<svg width="148" height="119" fill="none" xmlns="http://www.w3.org/2000/svg"><g filter="url(#a)"><path d="M119.52 68.473c1.971-14.115-.473-27.598-3.154-37.06-.158-.474-.237-.868-.395-1.341-1.498 1.735-3.154 3.233-4.889 4.652-.63.473-1.261 1.025-1.892 1.498-.789.552-1.498 1.104-2.287 1.656-3.548 2.445-7.254 4.653-10.724 7.176-3.548-8.122-8.2-15.77-12.616-23.498C80.093 15.563 76.78 9.49 74.1 3.183L73.627 2c-2.76 6.781-6.308 13.247-10.014 19.556-4.416 7.727-9.068 15.376-12.617 23.498-3.47-2.523-7.175-4.731-10.724-7.176a57.308 57.308 0 0 1-2.286-1.656c-2.445-1.813-4.81-3.864-6.86-6.15-2.84 9.462-5.6 23.577-3.549 38.322C16.695 67.29 9.204 65.161 4 62.717c2.05 10.409 8.122 29.097 25.154 40.294 0 0 .079 0 .079.079 1.262.788 2.602 1.577 3.943 2.365.552.316 1.104.552 1.655.868 5.836 2.917 12.775 4.967 20.975 5.756-7.727-6.545-13.09-13.72-16.716-21.133-2.524-5.125-4.18-10.33-5.205-15.534 4.1.473 7.807 1.34 11.276 2.602.395 2.445.947 4.89 1.814 7.334 2.76 7.964 8.358 14.903 15.534 19.398 2.602 1.655 5.44 2.917 8.358 3.863.552-5.914-.946-13.09-4.967-19.792a40.376 40.376 0 0 0-3.549-4.889c-1.577-6.623-.946-13.799 1.972-20.028 2.286-4.81 6.229-11.276 8.831-15.85.158-.236.316-.552.473-.788.158.236.316.552.395.788 2.68 4.653 6.623 11.04 8.831 15.85 2.918 6.229 3.548 13.405 1.971 20.028-6.702 7.807-9.147 17.19-8.516 24.524v.157c2.918-.946 5.756-2.208 8.359-3.863a45.315 45.315 0 0 0 3.154-2.208c5.677-4.416 10.014-10.409 12.38-17.19.867-2.366 1.419-4.81 1.813-7.334 3.47-1.261 7.176-2.129 11.276-2.602-2.523 12.617-8.831 25.549-21.92 36.588 8.2-.789 15.139-2.839 20.974-5.756.552-.237 1.104-.552 1.656-.868 19.004-10.172 26.179-29.254 28.781-40.767.158-.63.316-1.261.395-1.892-5.362 2.444-12.853 4.573-23.656 5.756ZM35.541 92.13c3.628 6.308 8.674 12.301 15.455 17.821-5.046-1.104-9.54-2.76-13.405-4.889-14.745-7.885-21.605-21.606-24.838-31.936 4.494 1.025 9.62 1.735 15.376 1.814h.552c1.42 5.835 3.548 11.592 6.86 17.19Zm12.617-40.215c-1.577 4.573-2.76 9.305-3.233 14.115-.08 1.104-.158 2.129-.237 3.233 0 .867-.079 1.734-.079 2.68a54.567 54.567 0 0 0-11.749-2.838c-.157-1.656-.315-3.312-.315-4.889-.316-8.516.788-16.48 2.286-23.104 1.656 1.025 3.312 2.05 5.047 2.918 3.154 1.656 6.387 3.233 9.384 5.046-.395.868-.71 1.814-1.104 2.839Zm17.347 41.871c2.445 3.943 3.707 8.043 3.785 11.986v.473c-1.183-.631-2.365-1.42-3.47-2.208-6.78-4.889-11.827-12.065-14.193-20.029-.315-1.104-.552-2.208-.788-3.312 3.47 1.814 6.466 3.943 8.989 6.309 2.287 2.05 4.18 4.415 5.677 6.781Zm-5.52-27.835a25.93 25.93 0 0 0-.709 3.39c0 .158-.079.237-.079.395-.552 3.785-.552 7.648.316 11.276-.237-.158-.395-.394-.631-.552-2.445-2.287-5.362-4.337-8.753-6.072 0-.788-.079-1.577-.079-2.444 0-.947 0-1.972.079-2.918v-.552c.237-3.785.946-7.57 1.893-11.276.473-1.735.946-3.47 1.498-5.125.788.63 1.656 1.34 2.365 2.05 2.208 2.129 4.022 4.573 5.362 7.254-.315 1.499-.788 2.997-1.261 4.574Zm18.768-19.477c-1.735-3.548-3.391-7.175-4.653-10.96a15.878 15.878 0 0 1-.552-1.814c-1.34 4.416-3.233 8.595-5.283 12.695-1.892 3.864-3.864 7.728-5.52 11.67-1.576-3.469-4.1-6.623-6.939-9.146-.236-.237-.473-.474-.71-.631a145.92 145.92 0 0 1 3.313-8.122c1.182-2.76 2.444-5.441 3.706-8.2 3.154-6.703 7.648-14.746 11.433-23.341 2.602 5.992 5.599 11.749 8.28 16.953 1.104 2.287 2.208 4.416 3.154 6.466a258.944 258.944 0 0 1 3.706 8.2A145.89 145.89 0 0 1 92 48.367c-.237.236-.473.473-.71.63-2.838 2.603-5.362 5.678-6.939 9.147-1.656-3.942-3.706-7.806-5.598-11.67Zm6.86 14.825c1.34-2.681 3.154-5.126 5.362-7.255.788-.71 1.577-1.42 2.366-2.05.552 1.735 1.103 3.39 1.498 5.125 1.025 3.864 1.734 7.807 1.971 11.828.079 1.814.158 3.549.079 5.362h-.079c-3.39 1.735-6.23 3.785-8.753 6.072-.236.158-.394.394-.63.552 1.182-4.889.788-10.093-.474-14.982-.315-1.577-.788-3.075-1.34-4.653Zm-7.885 44.473c.157-8.99 6.86-19.083 18.451-25.154-.236 1.103-.473 2.207-.788 3.311-1.735 6.072-5.126 11.67-9.541 16.086a43.082 43.082 0 0 1-4.574 3.943c-1.104.789-2.287 1.498-3.47 2.208-.078-.158-.078-.316-.078-.394Zm24.681-33.828c.078-6.782-1.341-13.642-3.549-20.029a44.023 44.023 0 0 0-1.104-2.918c3.076-1.813 6.309-3.39 9.384-5.046 1.735-.868 3.39-1.893 5.046-2.918.237.947.395 1.893.631 2.839 1.183 5.993 1.972 12.932 1.656 20.265-.079 1.577-.158 3.233-.315 4.89-4.337.63-8.28 1.655-11.749 2.917Zm7.018 33.197a52.608 52.608 0 0 1-13.406 4.889c12.854-10.409 19.398-22.71 22.316-34.932h.552c5.835-.08 10.96-.789 15.376-1.814-3.154 10.251-10.093 23.971-24.838 31.857Z" fill="url(#b)"/></g><defs><linearGradient id="b" x1="73.588" y1="2" x2="73.588" y2="112.079" gradientUnits="userSpaceOnUse"><stop stop-color="#7ADBAE"/><stop offset="1" stop-color="#1A7F72"/></linearGradient><filter id="a" x="0" y="0" width="147.176" height="118.079" filterUnits="userSpaceOnUse" color-interpolation-filters="sRGB"><feFlood flood-opacity="0" result="BackgroundImageFix"/><feColorMatrix in="SourceAlpha" values="0 0 0 0 0 0 0 0 0 0 0 0 0 0 0 0 0 0 127 0" result="hardAlpha"/><feOffset dy="2"/><feGaussianBlur stdDeviation="2"/><feColorMatrix values="0 0 0 0 0 0 0 0 0 0 0 0 0 0 0 0 0 0 0.25 0"/><feBlend in2="BackgroundImageFix" result="effect1_dropShadow"/><feBlend in="SourceGraphic" in2="effect1_dropShadow" result="shape"/></filter></defs></svg>