<svg width="591" height="558" fill="none" xmlns="http://www.w3.org/2000/svg"><path d="M295.996 45.566c-23.074-2.444-45.805 4.016-66.451 14.142-18.737 9.078-36.435 20.95-52.224 34.393-29.843 25.315-55.001 58.311-66.452 96.369-11.625 38.06-6.94 78.215 11.451 113.307 19.259 36.838 50.837 66.166 86.058 87.292 38.692 23.044 82.935 36.663 127.698 39.28 41.122 2.445 85.017-4.19 119.544-28.106 31.405-21.824 49.97-56.915 54.828-94.8 5.031-38.932-3.99-78.215-23.249-112.259-20.475-36.139-50.838-65.643-84.323-89.386-36.436-26.013-78.944-48.709-124.229-52.026-10.93-.873-21.863-.35-32.619 1.397-1.736.349-1.042 2.793.694 2.618 46.153-7.507 91.61 10.65 130.476 34.393 34.353 20.951 66.452 46.963 90.914 79.088 23.77 31.249 39.386 68.262 40.948 107.893 1.388 37.011-9.195 75.244-34.353 102.828-27.936 30.727-69.575 43.646-109.829 45.917-43.201 2.269-87.273-6.634-126.831-24.443-70.79-31.773-139.15-100.21-130.301-184.534 3.99-38.932 24.117-74.548 50.316-102.831 13.36-14.315 28.281-27.06 44.591-37.884 18.391-12.221 38.518-22.87 60.205-27.934 10.93-2.444 22.034-3.317 33.312-2.095 1.562.175 1.562-2.444-.174-2.619Z" fill="#1A7F72"/><path d="M313.522 439.428c-23.596 8.205-49.277 4.54-73.393.698-23.076-3.841-45.978-9.253-67.84-17.284-41.467-15.187-79.985-40.676-104.97-78.038-23.076-34.568-30.883-76.119-20.82-116.622 9.716-39.282 34.007-74.548 65.064-99.863 71.31-58.835 172.983-62.85 260.43-51.851 25.504 3.142 50.836 8.205 75.472 15.363 20.647 5.936 42.162 13.094 59.165 26.886 17.871 14.491 26.72 35.79 26.026 58.835-.694 23.919-11.104 46.09-24.464 65.469-24.81 36.313-57.603 68.263-91.956 95.149-34.701 27.236-72.873 49.756-113.473 66.69-9.716 4.015-19.604 7.856-29.669 11.348-1.56.524-.866 3.143.694 2.619 85.711-29.505 162.921-82.928 220.524-153.286 27.588-33.52 54.654-80.306 33.659-124.303-9.021-19.029-26.718-31.425-45.283-39.805-22.383-9.951-46.673-16.062-70.617-20.95-48.581-9.951-99.417-13.967-148.865-9.777-45.46 3.667-91.09 15.19-130.476 39.107-69.228 42.075-115.9 130.938-82.067 210.2 17.177 40.155 50.49 71.23 88.487 91.133 21.167 11.172 44.07 19.029 67.32 24.791 23.769 5.76 48.755 10.65 73.217 10.998 11.626.174 23.25-1.047 34.355-5.062 1.736-.524 1.042-3.143-.52-2.445Z" fill="#1A7F72"/><path d="M119.485 199.098c5.15-5.183 5.15-13.584 0-18.764a13.13 13.13 0 0 0-18.648 0c-5.15 5.18-5.15 13.581 0 18.764a13.13 13.13 0 0 0 18.648 0ZM139.15 45.217c0 4.365-3.47 8.031-7.981 8.031a7.984 7.984 0 0 1-7.981-8.03c0-4.365 3.47-8.031 7.981-8.031 4.511.174 7.981 3.666 7.981 8.03ZM96.815 311.982c0 4.364-3.47 8.031-7.981 8.031a7.984 7.984 0 0 1-7.981-8.031c0-4.365 3.47-8.031 7.98-8.031 4.512.174 7.982 3.666 7.982 8.031Zm333.821-128.844c0 3.667-2.95 6.634-6.593 6.634-3.644 0-6.593-2.967-6.593-6.634 0-3.665 2.949-6.632 6.593-6.632 3.643 0 6.593 2.967 6.593 6.632Zm-227.983-3.491a3.12 3.12 0 0 1-3.124 3.143 3.12 3.12 0 0 1-3.123-3.143 3.119 3.119 0 0 1 3.123-3.141 3.12 3.12 0 0 1 3.124 3.141ZM402.528 4.888c0 2.62-2.256 4.889-4.857 4.889-2.604 0-4.859-2.27-4.859-4.889 0-2.618 2.255-4.888 4.859-4.888 2.775.175 4.857 2.27 4.857 4.888Zm0 395.434c0 2.619-2.256 4.888-4.857 4.888-2.604 0-4.859-2.269-4.859-4.888 0-2.619 2.255-4.89 4.859-4.89 2.775 0 4.857 2.097 4.857 4.89Zm187.557-107.719c0 6.284-5.205 11.522-11.45 11.522-6.247 0-11.452-5.238-11.452-11.522 0-6.286 5.205-11.522 11.452-11.522 6.419 0 11.45 5.062 11.45 11.522ZM21.167 397.179c6.804 0 12.32-5.551 12.32-12.397s-5.516-12.394-12.32-12.394c-6.803 0-12.318 5.548-12.318 12.394s5.515 12.397 12.318 12.397ZM9.716 110.511c0 2.619-2.255 4.889-4.858 4.889-2.603 0-4.858-2.27-4.858-4.889a4.864 4.864 0 0 1 4.858-4.888 4.865 4.865 0 0 1 4.858 4.888Zm502.119 40.33c6.325 0 11.453-5.159 11.453-11.523s-5.128-11.522-11.453-11.522c-6.324 0-11.45 5.158-11.45 11.522s5.126 11.523 11.45 11.523Z" fill="#1A7F72"/><path d="m187.384 351.262 9.022-7.506c-3.99-9.254-13.706-10.824-19.085-10.998l-9.196 4.888c2.603 13.616 19.259 13.616 19.259 13.616Zm75.3-9.601s-14.748-9.077-24.637 2.445c0 0-9.022-7.507-24.638 4.189l-5.725 2.445s15.616 12.395 32.965 3.317c0 0 27.068 4.19 27.936-3.317.694-7.332-5.901-9.079-5.901-9.079Zm47.366-168.473s47.715-20.776 56.738-61.28c9.02-40.503-25.506-85.197-25.506-85.197s-143.141 123.257-111.909 148.92c16.135 13.269 80.677 7.507 80.677 7.507" fill="#1D3542"/><path opacity=".22" d="M253.315 127.795s15.616 39.805 44.417 38.061c28.802-1.573 49.103-38.584 50.836-57.439 1.736-18.681-98.548-1.397-95.253 19.378Z" fill="#1D3542"/><path d="M254.877 372.736s-31.231 48.011-32.965 55.518c0 0-106.185 5.762-130.823 16.586-24.637 10.824-33.66 43.124-12.318 59.533 21.341 16.412 163.614 22.346 203.172 8.205 0 0 204.04 27.236 238.569-12.394 34.527-39.807-62.462-78.565-144.704-74.549 0 0-28.801-57.089-44.415-64.595-15.615-7.333-76.516 11.696-76.516 11.696Z" fill="#1F5148"/><path opacity=".23" d="M140.538 447.285c-1.562 1.744-9.89 5.76-1.562 9.077 8.155 3.317 53.44 28.108 65.065 24.791 11.45-3.317-55.175-42.947-63.503-33.868Zm243.425 29.679c1.736.174 37.13-8.904 52.746-15.538s18.911-11.522 23.076-11.522c4.164 0 3.296-8.207-8.154-7.509-11.453.875-59.165 21.474-59.165 21.474l-8.329 14.317" fill="#D25A5C"/><path opacity=".23" d="M372.513 456.362s-37.824 8.207-43.549 7.509c-5.726-.874 11.45-36.489 51.878-39.806 0 0-39.56-.873-65.758 28.98-26.374 29.855-48.583-7.507-65.064-15.712 0 0 26.372 33.52 27.585 37.886 0 0 40.948-5.238 52.746-3.317 0 0 29.844.348 44.243-15.888l-2.081.348Z" fill="#1F5148"/><path d="M231.629 472.424c11.97 5.412 25.158 5.412 37.996 4.189 14.401-1.22 28.801-3.141 43.203-3.665 15.094-.698 30.189-.698 45.283.698 4.511.351 9.023.699 13.534 1.921 3.991.872 7.809 2.095 11.624 3.143 7.983 2.443 16.31 4.714 24.118 7.681.694.35 1.04-.872.346-1.222-6.767-2.619-13.705-4.714-20.646-6.809-6.767-2.095-13.88-4.54-20.993-5.412-29.67-3.317-59.339-1.747-88.835 1.571-14.921 1.572-30.883 3.143-45.111-3.318-.693-.174-1.213.875-.519 1.223Z" fill="#000"/><path d="M220.176 488.138c21.515 12.744 45.111 21.647 69.401 26.535.694.176 1.042-1.046.349-1.22a225.541 225.541 0 0 1-69.23-26.364c-.52-.524-1.214.698-.52 1.049Z" fill="#040404"/><path d="M177.841 462.124c-12.666-3.143-26.025-6.11-38.691-1.57-.694.348-.347 1.396.347 1.22 12.492-4.537 25.678-1.571 37.997 1.573.868.174 1.041-.875.347-1.223Z" fill="#000"/><path opacity=".49" d="M276.218 474.171c-4.512-6.635-9.195-13.269-13.706-20.078l13.706 20.078Z" fill="#D25A5C"/><path d="M376.315 425.219c-5.725.176-11.278 1.572-16.658 3.317-5.377 1.573-10.756 3.667-15.787 6.46-.694.35 0 1.397.694 1.049 4.857-2.619 10.062-4.714 15.441-6.287 5.206-1.57 10.757-2.967 16.31-3.141.694-.176.694-1.398 0-1.398Z" fill="#050505"/><path d="M222.326 428.08c8.675.35 17.003 4.189 23.077 10.476.519.524 1.387-.35.867-.875-6.247-6.632-14.921-10.473-23.944-10.823-.868 0-.868 1.222 0 1.222Z" fill="#151515"/><path d="M368.176 461.252c-10.411 5.412-21.169 9.601-33.139 9.775-.868 0-.868 1.223 0 1.223 12.144-.174 23.074-4.364 33.658-9.952.868-.174.174-1.396-.519-1.046Z" fill="#000"/><path d="M219.308 210.724c0 1.57-3.469 13.443-6.939 44.17-3.471 30.901-21.341 73.15-20.994 78.038.173 4.887-11.105 9.601-19.953 30.727-8.849 21.123-27.934 36.139-32.793 40.502 0 0-10.063-2.793-20.646-1.57-10.584 1.396-20.647-1.571-22.383-4.714 0 0-4.684 4.366-.52 8.381 4.338 4.016 14.054.174 16.656 5.062 2.777 4.888-3.47 12.571-9.369 10.3-5.899-2.269-7.634-6.285-8.675-8.73-.867-2.442 2.776-12.568-4.858-14.663 0 0-2.255 13.791-1.215 17.108 0 0-10.41-11.174-15.962-5.936 0 0 10.237 8.555 11.278 11 0 0-8.328-3.667-10.584 1.397 0 0 7.634 4.537 10.93 5.238 3.297.698 5.9 1.396 7.635 3.839 0 0-9.196-1.223-9.716 3.841 0 0 9.022-.35 13.186 1.049 4.164 1.396 19.953 2.443 25.505-1.223 5.552-3.667 82.762-46.09 99.765-85.894 0 0 20.647-70.534 20.647-87.12" fill="#F4A082"/><path opacity=".21" d="M203.867 293.302s17.351 35.614 39.56 49.581c22.208 14.141-10.759-75.245-39.56-49.581Z" fill="#D18161"/><path d="M383.269 213.865c-.172 1.573 2.084 6.46 5.379 37.361 3.298 30.901 20.821 73.325 20.473 78.215-.346 4.887 10.933 9.775 19.781 30.901 8.675 21.123 27.76 36.313 32.445 40.678 0 0 10.063-2.795 20.647-1.396 10.582 1.396 20.647-1.399 22.554-4.54 0 0 4.686 4.364.348 8.379-4.337 3.841-14.053 0-16.657 4.89-2.776 4.888 3.472 12.568 9.371 10.474 5.899-2.095 7.806-6.285 8.674-8.73 1.04-2.442-2.603-12.57 4.857-14.665 0 0 2.084 13.793 1.216 17.11 0 0 10.411-11 15.962-5.762 0 0-10.411 8.555-11.278 11 0 0 8.502-3.667 10.584 1.397 0 0-7.635 4.539-10.93 5.238-3.298.698-5.899 1.396-7.635 3.665 0 0 9.196-1.223 9.716 3.841 0 0-9.022-.524-13.186.873-4.165 1.396-19.953 2.271-25.506-1.397-5.551-3.665-82.413-46.789-99.071-86.593 0 0-20.124-70.707-19.953-87.293" fill="#F4A082"/><path opacity=".21" d="M380.842 359.469s15.615-26.537 29.669-29.854c13.88-3.144-37.13-32.996-29.669 29.854Z" fill="#D18161"/><path d="m253.315 376.053-15.616-112.606-19.604-46.439s-3.818-11.698 40.079-32.996c44.418-21.473 122.494 4.19 125.443 32.472 3.124 31.251-19.259 41.203-19.259 41.203l-17.351 118.366s-40.252 20.776-93.692 0Z" fill="#F4A082"/><path opacity=".21" d="M243.427 342.883c-.174 1.921 75.82 52.899 112.428 24.791 36.437-28.108-104.97-84.324-112.428-24.791Z" fill="#D18161"/><path d="M262.858 183.836c-1.388 4.192 23.25-25.663 20.82-68.611h27.762s0 53.424 28.108 70.184c.172.174-44.071 41.377-76.69-1.573Z" fill="#F4A082"/><path opacity=".34" d="M297.212 165.856c13.893 0 25.159-9.068 25.159-20.253s-11.266-20.252-25.159-20.252c-13.895 0-25.158 9.067-25.158 20.252 0 11.185 11.263 20.253 25.158 20.253Z" fill="#D18161"/><path d="M230.239 472.076s-3.296-9.079-6.593-19.031c-3.296-9.952-17.35-10.824-27.934-4.888-10.757 5.762-32.965-7.506-41.12-8.205-8.155-.874-19.78 0-17.35 6.635 2.949 7.68 13.186.872 17.35 5.76 4.164 4.89 51.878 36.489 65.758 36.489 0-.174 9.889-2.619 9.889-16.76Zm139.324-12.047s4.164-8.729 8.329-18.332c4.163-9.602 18.217-9.078 28.28-2.269 10.064 6.808 33.487-4.19 41.815-4.19 8.329 0 19.605 1.921 16.484 8.205-3.646 7.507-13.188-.524-17.7 4.016-4.509 4.539-54.999 31.251-69.053 29.855 0 .174-9.542-3.318-8.155-17.285Z" fill="#F4A082"/><path d="M222.78 207.23c1.04 0 137.761 50.631 163.439 24.443 0 0 5.205 42.075 11.104 58.137 6.593 18.157 13.188 38.932 13.188 39.804 0 0-9.023-1.57-36.956 26.538-37.825 38.06-119.718 3.491-169.688-63.201-.174 0 5.553-86.419 18.913-85.721Z" fill="#FFD2B9"/><path d="M210.724 247.709c13.137-7.481 30.462 4.249 43.745-3.062 1.443-.848 2.888-1.87 4.476-2.209 1.443-.339 3.031 0 4.477.169 14.291 2.381 28.585 4.76 42.734 7.311 3.753.681 7.65 1.361 11.549 1.361 5.053 0 10.25-1.022 15.16.679 2.308.85 4.33 2.211 6.639 3.061 5.921 2.379 12.417 1.529 18.77.509 8.518-1.189 17.034-2.551 25.552-3.74 2.456-.339 5.776 0 6.065 2.72.145 2.89-3.465 3.571-6.065 3.571-7.795 0-15.591 2.55-23.387 3.57-5.63.679-11.26.509-17.036.17-27.143-1.02-54.429-2.551-81.57-4.421-5.198-.339-10.54-.68-15.593-1.7-1.877-.339-3.754-.85-5.485-.339-1.445.339-2.888 1.359-4.333 1.87-5.774 2.039-11.549-3.741-17.468-3.232-2.6.172-5.197 1.531-7.796 1.362-2.599-.17-5.199-3.571-3.61-5.78m1.689 23.214c.564-3.527 4.657-4.76 7.763-3.703 2.965 1.057 5.505 3.703 8.469 4.936 9.036 4.231 18.916-4.055 28.657-3.526 6.634.354 12.846 4.76 19.34 3.879 1.976-.353 3.811-1.058 5.646-1.234 4.093-.529 8.188.881 12.14 1.938 13.128 3.527 26.821 3.879 40.372 4.232l24.846.528c7.481.177 15.104.353 22.303-1.938 2.824-.881 5.505-2.117 8.47-2.117 2.965 0 6.069 1.588 7.058 4.584-8.329 1.41-16.658 2.645-24.987 4.055-4.092.705-8.046 1.41-12.139 1.41-6.212.176-12.422-.705-18.634-1.058-19.338-1.057-38.82 3.703-57.876.353-5.082-.881-10.023-2.467-15.105-1.938-4.377.352-8.61 2.114-12.987 1.938-3.247-.176-6.353-1.234-9.598-2.291-11.012-3.35-22.587-4.407-34.022-2.998a202.227 202.227 0 0 1-4.093-7.579c1.694 0 3.388-.176 5.082-.176m-19.886 28.288c6.513-4.372 15.042-3.323 22.329-1.05 7.443 2.449 14.576 5.947 22.327 5.947 7.289 0 14.268-2.974 21.401-3.324 11.474-.524 22.792 5.423 34.112 3.848 4.807-.698 9.459-2.797 14.265-3.147 3.567-.351 7.133.35 10.699 1.048 7.133 1.401 14.266 2.626 21.244 4.024 2.17.35 4.342.875 6.666.698 2.947-.174 5.582-1.398 8.375-2.447a145.886 145.886 0 0 1 20.931-6.297c3.877-.875 8.064-1.399 11.474.35 1.397.701 2.483 1.749 4.034 2.273 2.79.875 5.736-.874 8.527-1.572 2.79-.701 6.822.698 6.667 3.671-8.062 2.974-17.056 1.575-25.585 1.926-9.148.524-17.986 3.147-26.98 4.722-14.109 2.447-28.531 2.273-42.642-.35-4.806-.875-9.613-2.276-14.419-2.45-5.738-.174-11.475 1.049-17.213 1.749-14.419 1.926-28.839.875-43.261-.35-7.908-.524-15.816-1.225-23.724-1.749-6.046-.524-12.249-.874-18.296-2.447-1.241-.35-2.636-.874-3.412-1.925-.775-1.225-.155-3.148 1.241-3.148m57.668 29.534c4.694-2.74 10.036-1.828 14.99.183 4.822 2.008 9.644 4.751 14.598 5.482 14.336 2.374 29.326-11.696 42.75-4.386 2.346 1.278 4.562 3.106 7.17 3.106 1.954-.183 3.648-1.462 5.474-2.011 5.212-2.009 10.818.731 15.77 3.291 1.824.914 3.91 2.009 5.866 1.277 1.434-.546 2.606-2.008 3.91-2.922 3.128-1.829 6.646 0 10.036.548 4.952.914 9.906-.731 14.987-1.645 4.955-.912 10.429-.912 14.468 2.742-2.998 2.923-7.037 3.837-10.817 4.02-12.642 1.097-25.546-1.646-37.798 2.557-1.956.731-3.91 1.463-5.866 1.463-2.216-.183-4.3-1.28-6.386-2.194-7.95-3.654-16.422-3.654-24.764-3.654-3.388 0-6.908 0-10.296.365-7.952 1.097-15.772 4.934-23.722 4.569-9.646-.549-18.768-6.943-28.414-7.126-1.434 0-2.868 0-4.17-.548-1.304-.732-2.346-2.56-1.826-4.386.522-1.828 2.868-2.011 3.128-.183m-33.198-102.146c2.698-6.255 9.232-8.531 14.911-7.963 5.681.569 11.077 3.604 16.758 5.119 5.822 1.707 11.788 1.897 17.753.76 3.123-.57 6.247-1.517 9.373-.949 2.98.568 5.678 2.465 8.661 3.604 10.369 3.79 20.876-4.362 31.529-6.069 7.099-1.136 14.485.379 21.585 2.086 17.325 4.172 35.077 8.531 52.545 5.498-.141 5.308-5.681 7.015-9.941 7.205-16.9.758-33.8 0-50.699-2.275-8.378-1.137-16.9-2.465-25.277-1.897-5.966.379-11.788 1.897-17.753 1.518-9.941-.569-19.598-5.877-29.539-6.066-5.113-.192-10.226 1.136-15.338 1.894a65.16 65.16 0 0 1-21.017-.568c-1.421-.19-2.983-.569-3.976-2.086-.853-1.326-.569-3.981.85-4.359m62.551 131.481c14.725.528 29.583.881 44.309-1.586 3.315-.529 6.5-1.234 9.816-1.234 2.918 0 5.837.705 8.623 1.41 10.614 2.291 21.227 4.231 31.972 5.288-9.287 5.465-20.032 4.76-30.247 3.172-10.214-1.762-20.431-4.581-30.513-2.995-5.837.881-11.672 3.172-17.51 2.995-4.511-.176-9.02-1.938-12.736-4.934" fill="#FCEBE6"/><path opacity=".22" d="M253.315 127.795s15.616 39.805 44.417 38.061c28.802-1.573 49.103-38.584 50.836-57.439 1.736-18.681-98.548-1.397-95.253 19.378Z" fill="#1D3542"/><path d="M351.692 97.243c0 34.219-37.998 61.978-54.134 61.978-15.961 0-54.131-27.759-54.131-61.978 0-34.218 23.248-77.166 53.092-77.166 29.841 0 55.173 42.948 55.173 77.166Z" fill="#F4A082"/><path opacity=".18" d="M296.344 38.408s19.434 41.202 50.663 56.216c31.231 15.015 0 0 0 0l-38.69-57.438-23.251-4.888s-34.352 51.677-29.321 67.215c5.031 15.538 0 0 0 0s28.453-55.344 46.673-60.93c18.217-5.587-9.891-8.205-9.891-8.205" fill="#A05940"/><path d="M296.864 39.98s-27.933 18.157-41.119 59.533c0 0-7.461 18.157-2.43 28.108 4.859 9.951 23.77 23.22 19.779 35.616 0 0 .868 21.474-18.043 36.487 0 0 18.043-7.507 33.659 21.474 0 0 32.967-17.459 56.735 13.268 0 0 17.351-19.903 34.529 5.763 0 0 15.615-10.827 23.77 9.949 0 0 12.318-9.949 8.155 17.46 0 0 14.054 11.522-3.298 22.346 0 0 2.43 5.762-7.461 11.522l-4.857-14.141s2.428-2.445 8.155-2.445c0 0-4.859-11.522 3.295-17.458 0 0-13.186-3.317-13.186-17.458 0 0-14.747 9.952-24.638-7.507 0 0-23.768 19.903-42.855-6.634 0 0-37.822 25.663-55.174-8.205 0 0-46.847 21.474-49.274-20.776 0 0-24.638-33.87 6.593-53.772 0 0-28.628-38.234-11.453-71.928 18.22-35.441 35.569-88.34 74.955-65.993 0 0 69.053-30.553 59.165 83.626.174 0-34.355-26.537-55.002-58.835Z" fill="#1D3542"/><path d="M256.439 102.306c1.561 6.46-.52 12.57-4.86 13.618-4.163 1.047-9.02-3.317-10.582-9.777-1.562-6.46.52-12.57 4.857-13.618 4.337-1.047 9.023 3.317 10.585 9.777Zm89.874-5.761c-1.56 6.459.522 12.57 4.859 13.617 4.163 1.048 9.023-3.317 10.585-9.776 1.559-6.46-.523-12.57-4.86-13.618-4.163-1.047-9.022 3.317-10.584 9.777Z" fill="#F4A082"/><path d="M208.03 286.667c-17.349-5.762-24.637 14.839-24.637 14.839-12.318-4.887-15.615 10.824-15.615 10.824-10.757 9.08 0 21.474 0 21.474 0 1.396.174 2.619.347 3.841l9.196-4.887c-2.256 0-3.817.174-3.817.174 4.164-8.205-2.429-17.459-2.429-17.459 12.318.873 16.483-9.951 16.483-9.951 44.416 16.586 55.869-34.743 55.869-34.743s-18.046 21.65-35.397 15.888Z" fill="#1D3542"/><path d="M265.807 100.735c3.644.873 7.115 1.222 10.759 1.047 3.469-.174 6.938-1.047 10.41-2.444-2.778 2.444-6.593 3.841-10.41 4.19-3.644.175-7.635-.698-10.759-2.793Z" fill="#2E2430"/><path d="M290.271 138.794c5.032 2.095 10.411 1.572 15.096-1.047.868-.524 0-1.746-.694-1.222-4.337 2.618-9.37 2.793-14.054.873-.867-.35-1.216 1.047-.348 1.396Zm.174-13.966c1.388 0 2.602.174 3.818.174 1.214 0 2.43 0 3.469-.174 1.216 0 2.256-.175 3.47-.35 1.216-.174 2.429-.349 3.817-.698-.868 1.048-1.908 1.921-3.121 2.444-1.216.524-2.604.873-3.992 1.048-1.387.174-2.775 0-3.991-.524-1.214-.174-2.428-.873-3.47-1.92Z" fill="#A34F31"/><path d="M310.398 100.909c3.644.873 7.113 1.222 10.757 1.048 3.471-.175 6.941-1.048 10.41-2.444-2.775 2.444-6.593 3.841-10.41 4.19-3.816.174-7.807-.699-10.757-2.794Z" fill="#2E2430"/><path d="M265.635 92.704c4.857-5.587 11.97-8.205 19.257-6.809 1.216.175 1.736-1.746.522-1.92-7.981-1.572-15.789 1.047-21.169 7.158-.865 1.047.522 2.618 1.39 1.57Zm66.452-2.27c-5.379-6.11-13.188-8.729-21.169-7.157-1.214.174-.694 2.094.522 1.92 7.287-1.397 14.4 1.047 19.257 6.809.696.873 2.084-.524 1.39-1.572Zm-33.661-53.248c1.042 5.238 3.124 10.475 5.725 15.364 2.604 4.888 5.553 9.602 9.197 13.792 3.643 4.19 7.635 8.205 12.146 11.348 2.082 1.746 4.509 3.142 6.939 4.713 2.43 1.397 4.859 2.62 7.461 4.016-2.602-1.222-5.205-2.27-7.635-3.666-2.428-1.397-4.857-2.619-7.113-4.365-4.685-3.142-8.849-6.809-12.84-10.999-3.815-4.19-7.287-8.729-10.062-13.617-2.776-4.889-5.206-10.126-6.767-15.887l2.949-.699Z" fill="#1D3542"/><path d="M299.642 33.52c-1.216 2.619-1.91 5.587-2.43 8.73a39.97 39.97 0 0 0-.522 9.078c.174 3.142.868 6.11 1.91 9.078 1.042 2.968 2.602 5.587 4.511 8.206-2.081-2.445-3.991-4.889-5.205-7.857-1.387-2.793-2.255-5.936-2.775-9.078-.522-3.143-.522-6.46-.348-9.602.348-3.317.868-6.285 1.907-9.603l2.952 1.048Z" fill="#1D3542"/><path d="M302.418 36.837c-1.388.873-2.95 2.095-4.338 3.317-1.39 1.222-2.603 2.619-3.817 4.016-1.216 1.396-2.256 2.968-3.298 4.539-1.039 1.571-1.907 3.317-2.601 5.063.52-1.746 1.214-3.667 1.907-5.413.694-1.745 1.736-3.491 2.776-5.062 1.042-1.572 2.084-3.317 3.472-4.714 1.213-1.571 2.601-2.968 4.163-4.365l1.736 2.619Z" fill="#1D3542"/><path opacity=".56" d="M551.569 549.242c0 4.365-114.686 8.031-256.266 8.031-141.579 0-256.265-3.492-256.265-8.031 0-4.366 114.686-8.031 256.265-8.031 141.58 0 256.266 3.665 256.266 8.031Z" fill="#000" fill-opacity=".2"/></svg>