<svg width="520" height="636" viewBox="0 0 520 636" fill="none" xmlns="http://www.w3.org/2000/svg">
<g filter="url(#filter0_d)">
<path fill-rule="evenodd" clip-rule="evenodd" d="M70 31C58.9543 31 50 39.9543 50 51V550.99C60.7237 551.954 71.4111 554.911 81.7009 557.951C82.2344 558.109 82.7686 558.267 83.3034 558.425C98.6559 562.969 114.525 567.666 130.57 566.221C144.51 565.005 157.608 559.284 170.574 553.62C187.356 546.289 203.917 539.055 221.8 541.809C232.149 543.393 241.306 548.251 250.408 553.08C252.756 554.326 255.101 555.57 257.462 556.755C268.971 562.535 282.557 567.118 295.104 563.631C303 561.444 309.25 556.403 315.509 551.354C321.514 546.511 327.528 541.66 335.011 539.318C346.42 535.718 358.494 538.566 370.577 541.416C382.575 544.246 394.582 547.078 405.957 543.603C416.712 540.314 424.543 531.944 430.864 523.375C432.051 521.808 433.216 520.216 434.382 518.623C439.516 511.608 444.675 504.558 451.902 499.361C456.981 495.709 463.545 493.234 470 492.87V51C470 39.9543 461.046 31 450 31H70Z" fill="white"/>
</g>
<defs>
<filter id="filter0_d" x="0" y="0" width="520" height="635.487" filterUnits="userSpaceOnUse" color-interpolation-filters="sRGB">
<feFlood flood-opacity="0" result="BackgroundImageFix"/>
<feColorMatrix in="SourceAlpha" type="matrix" values="0 0 0 0 0 0 0 0 0 0 0 0 0 0 0 0 0 0 127 0" result="hardAlpha"/>
<feOffset dy="19"/>
<feGaussianBlur stdDeviation="25"/>
<feColorMatrix type="matrix" values="0 0 0 0 0.101961 0 0 0 0 0.498039 0 0 0 0 0.447059 0 0 0 0.15 0"/>
<feBlend mode="normal" in2="BackgroundImageFix" result="effect1_dropShadow"/>
<feBlend mode="normal" in="SourceGraphic" in2="effect1_dropShadow" result="shape"/>
</filter>
</defs>
</svg>
