<svg width="818" height="333" fill="none" xmlns="http://www.w3.org/2000/svg"><g filter="url(#a)"><path fill-rule="evenodd" clip-rule="evenodd" d="M764.098 62.608c1.638-7.75-.125-17.258-7.909-20.541l-.036-.067H65c-8.284 0-15 6.716-15 15v203c0 8.284 6.716 15 15 15h700c.268 0 .534-.007.799-.021l-.019-1.396c-.082-6.429-.163-12.843-1.906-19.012-.979-3.514-2.49-6.917-3.997-10.31-2.495-5.618-4.98-11.212-5.022-17.247-.026-6.104 2.473-11.933 4.968-17.752 2.638-6.154 5.272-12.297 4.909-18.742-.284-5.24-2.514-10.071-4.749-14.912-1.913-4.143-3.829-8.293-4.529-12.71-1.421-8.85 2.102-17.518 5.63-26.196 3.498-8.603 6.999-17.216 5.686-26.024-.588-3.987-2.163-7.776-3.736-11.56-1.818-4.375-3.633-8.74-3.913-13.393-.323-5.196 1.243-10.242 2.814-15.306.804-2.592 1.609-5.188 2.163-7.811Z" fill="#fff"/></g><defs><filter id="a" x="0" y="0" width="817.052" height="333" filterUnits="userSpaceOnUse" color-interpolation-filters="sRGB"><feFlood flood-opacity="0" result="BackgroundImageFix"/><feColorMatrix in="SourceAlpha" values="0 0 0 0 0 0 0 0 0 0 0 0 0 0 0 0 0 0 127 0" result="hardAlpha"/><feOffset dy="8"/><feGaussianBlur stdDeviation="25"/><feColorMatrix values="0 0 0 0 0.101961 0 0 0 0 0.498039 0 0 0 0 0.447059 0 0 0 0.2 0"/><feBlend in2="BackgroundImageFix" result="effect1_dropShadow"/><feBlend in="SourceGraphic" in2="effect1_dropShadow" result="shape"/></filter></defs></svg>