<svg width="745" height="594" fill="none" xmlns="http://www.w3.org/2000/svg"><g opacity=".1" clip-path="url(#a)"><path d="M534.731 156.676c-34.26-7.079-70.535-5.961-103.989-16.393-45.143-13.785-80.209-46.2-118.096-72.653-38.291-26.08-87.061-47.317-132.203-33.532-60.056 18.256-81.015 86.066-92.704 143.443-12.494 61.103-24.99 122.205-37.484 183.681-6.852 32.414-12.898 67.809 4.03 97.243 21.363 37.258 70.939 50.298 115.678 57.004 177.749 27.571 645.699 46.945 513.093-244.411-25.795-57.005-83.03-100.969-148.325-114.382Z" fill="url(#b)"/></g><g opacity=".1" clip-path="url(#c)"><path d="M562.521 169.889c-33.599-9.747-69.85-11.481-102.381-24.507-43.921-17.287-76.334-52.354-112.028-81.7-36.125-29.006-83.078-54.006-129.163-43.807-61.303 13.486-87.521 79.44-103.678 135.723-17.253 59.933-34.506 119.867-51.789 180.171-9.375 31.777-18.181 66.588-3.615 97.26 18.37 38.819 66.77 55.711 110.845 65.909 175.036 41.44 640.021 97.49 530.697-203.377-21.241-58.853-74.847-107.175-138.888-125.672Z" fill="url(#d)"/></g><path d="M239.171 393.32c0-.299-2.095 30.807 20.046 57.127-5.086-1.795-9.874-3.589-14.661-5.384-.897-5.982-5.984-32.9-16.755-55.93 0-.299-3.291 29.311 15.858 55.631l-14.362-6.281c-.598-5.683-3.59-31.704-12.865-54.136 0-.299-4.787 27.816 11.968 53.837-4.788-2.393-9.275-4.785-13.763-7.178 0-5.085-1.496-30.209-9.276-52.342 0-.299-5.684 26.022 8.378 51.744l-13.464-8.076c.299-4.785.599-28.414-5.984-50.248 0-.299-6.582 24.526 5.087 49.65-4.488-2.991-8.677-5.982-12.866-8.973.598-4.486 2.394-26.918-2.693-47.855 0 0-7.48 22.731 2.095 47.257-4.189-3.29-8.378-6.58-12.267-9.87.598-4.187 3.889-25.124 0-45.163 0 0-8.079 21.235-.599 44.864a190.907 190.907 0 0 1-11.668-10.768c.897-3.589 5.086-23.329 2.393-42.471 0 0-8.677 19.441-2.693 42.172-3.889-3.589-7.48-7.477-11.07-11.365.898-3.29 5.984-21.535 4.488-39.78 0 0-8.976 17.946-4.787 39.182a206.024 206.024 0 0 1-10.472-12.263c1.197-2.692 6.882-19.441 6.283-36.789 0 0-9.275 16.45-6.582 36.49-3.291-4.188-6.583-8.375-9.574-12.861 1.196-2.393 7.479-17.647 7.779-33.798 0 0-9.275 14.656-8.079 33.498l-8.976-13.459c1.197-2.093 8.079-15.553 8.976-30.806 0 0-9.275 13.16-8.976 30.507-2.992-4.785-5.684-9.272-8.078-14.356.898-1.496 8.078-13.759 9.874-27.816 0 0-8.976 11.665-9.874 27.517-2.693-4.786-5.086-9.87-7.181-14.955.599-.897 8.079-11.665 10.173-24.825 0 0-8.677 10.169-10.173 24.526-.897-1.795-1.795-3.888-2.393-5.683.299-.897 3.889-14.656 2.393-29.012 0 0-5.385 13.758-2.393 28.713-.898-2.393-2.095-4.786-2.992-7.178.299.299.299.598.598.897 0 0-2.094-16.151-8.676-30.208 0 0 .598 15.851 8.078 29.012.897 2.392 1.795 5.084 2.992 7.477-1.197-1.795-9.874-14.057-20.645-21.834 0 0 8.378 15.254 20.645 22.133.897 1.795 1.496 3.888 2.393 5.683-11.668-8.375-25.132-11.964-25.132-11.964 10.77 10.468 23.936 11.964 25.132 11.964 2.095 5.084 4.488 10.169 7.181 14.955-13.464-8.375-28.424-11.366-28.424-11.366 12.268 10.767 26.629 11.665 28.424 11.665a173.621 173.621 0 0 0 8.078 14.356c-15.259-8.075-31.714-10.767-31.714-10.767 14.062 11.066 29.62 10.767 31.714 10.767 2.693 4.786 5.685 9.272 8.976 13.758-17.054-7.776-35.006-9.571-35.006-9.571 15.559 11.067 32.613 9.87 35.006 9.87 2.992 4.487 6.283 8.674 9.575 12.862-18.85-7.179-38.298-8.076-38.298-8.076 17.653 11.066 35.605 8.674 38.597 8.375a205.317 205.317 0 0 0 10.472 12.262c-20.645-6.281-41.589-6.281-41.589-6.281 19.448 10.768 38.597 7.179 41.888 6.581 3.59 3.888 7.181 7.776 11.07 11.664-22.44-5.383-44.58-4.187-44.58-4.187 21.243 10.468 41.588 5.384 45.179 4.486l11.668 10.768c-23.935-4.188-47.572-1.795-47.871-1.496 23.337 9.87 44.58 3.29 48.17 2.094 3.89 3.589 8.079 6.879 12.268 9.87-25.731-2.692-50.565 1.196-50.864 1.196 25.432 9.272 47.273.898 51.462-.897 4.189 3.29 8.377 6.281 12.865 9.272-27.227-1.196-53.556 4.187-53.556 4.187 27.526 8.375 50.265-1.794 54.155-3.888 4.488 2.991 8.976 5.683 13.464 8.375-29.022.598-56.249 7.477-56.249 7.776 29.62 7.178 52.658-4.785 57.146-7.178 4.488 2.692 9.275 5.084 13.763 7.477-30.518 2.393-58.642 11.366-58.642 11.366 31.415 5.982 55.351-8.076 59.54-11.067 4.787 2.393 9.574 4.487 14.361 6.58-31.715 4.487-61.036 15.254-61.036 15.553 33.51 4.786 57.745-11.664 61.934-14.954 4.787 2.093 9.873 3.888 14.661 5.682-32.912 6.879-63.131 19.74-63.131 19.74 35.604 2.991 59.839-15.552 64.327-19.441 6.283 2.094 12.567 4.188 19.149 5.982.299-.598.299-1.495.598-2.093-6.582-1.496-12.865-3.59-19.148-5.683-1.496-5.384-8.677-33.499-21.243-56.828Z" fill="url(#e)"/><path d="M188.008 433.997c0-.299 11.07 20.338 35.904 28.115-3.89.897-7.779 1.794-11.669 2.392-2.992-3.29-17.054-18.543-33.51-28.713 0-.299 9.574 20.04 32.612 29.013l-11.668 1.794c-2.693-3.29-14.96-18.544-30.219-29.311 0-.299 8.078 19.441 29.321 29.311l-11.669.897c-2.094-3.29-13.164-18.543-26.927-29.61 0-.299 6.881 18.843 26.329 29.61-3.889.299-7.779.299-11.968.299-1.795-3.29-11.07-18.543-23.936-29.61 0 0 5.685 18.245 23.338 29.61-3.89 0-7.779-.299-11.968-.598-1.496-2.991-9.275-17.945-20.944-29.311 0 0 4.488 17.647 20.645 29.311-3.89-.299-7.779-.598-11.968-1.196-1.197-2.991-7.779-17.647-18.251-28.713 0 0 3.291 16.749 17.952 28.713-3.89-.598-7.779-1.196-11.669-2.094-.898-2.692-6.283-16.749-15.558-28.115 0 0 2.393 15.852 15.259 27.816l-11.669-2.692c-.598-2.392-4.787-16.151-13.165-27.217 0 0 1.496 14.955 12.866 26.918-3.89-1.196-7.779-2.093-11.669-3.589-.598-2.094-3.59-15.254-10.771-26.021 0 0 .599 14.057 10.472 25.722-3.89-1.196-7.48-2.692-11.369-4.187-.3-2.094-2.394-14.357-8.677-24.526 0 0 0 13.16 8.377 24.526-3.89-1.496-7.48-3.29-11.07-5.085 0-1.794-1.197-13.16-6.881-23.329 0 0-.599 12.263 6.582 23.03-3.59-1.795-7.48-3.589-11.07-5.683 0-1.495-.3-11.964-5.087-21.535 0 0-1.197 11.067 4.787 21.535-3.59-2.093-7.18-4.187-10.77-6.58 0-.897.299-10.767-3.591-20.039 0 0-1.496 10.169 3.291 19.74-1.197-.897-2.693-1.794-3.89-2.692-.299-.598-3.59-11.066-10.172-19.441 0 0 2.094 10.768 10.173 19.441-1.496-1.196-3.292-2.093-4.788-3.29.3 0 .3.299.599.299 0 0-7.78-9.571-17.653-15.553 0 0 6.882 9.871 16.755 15.254 1.496 1.197 3.291 2.393 4.787 3.589-1.496-.598-11.968-5.084-21.841-5.682 0 0 11.37 6.281 22.14 5.682 1.197.898 2.693 1.795 3.89 2.692-10.771-.598-20.645 2.393-20.645 2.393 11.07 2.393 20.047-2.094 20.944-2.393 3.59 2.393 6.882 4.487 10.472 6.58-11.968 0-22.739 4.188-22.739 4.188 12.267 1.794 21.542-3.59 22.74-4.188 3.59 2.094 7.18 3.888 10.77 5.982-12.865.897-24.534 5.982-24.534 5.982 13.165 1.495 23.338-5.085 24.534-5.982 3.59 1.795 7.48 3.589 11.071 5.085-13.764 2.093-26.03 8.075-26.03 8.075 14.36.598 24.833-6.879 26.329-8.075 3.889 1.495 7.48 2.991 11.369 4.486-14.66 2.991-27.526 10.468-27.526 10.468 15.558 0 26.329-8.972 27.825-10.169 3.89 1.197 7.78 2.692 11.669 3.589-15.558 4.188-29.022 12.861-29.022 12.861 16.755-.897 27.526-11.066 29.321-12.861 3.89 1.197 7.779 2.094 11.669 2.991-16.456 5.683-30.219 15.553-30.219 15.553 17.952-2.094 28.723-13.459 30.518-15.553 3.89.898 7.779 1.496 11.669 2.094-17.054 7.178-31.117 18.245-31.117 18.245 18.85-3.29 29.621-15.852 31.416-18.245 3.89.598 7.779 1.196 11.968 1.495-17.653 8.674-31.715 21.236-31.715 21.236 19.747-4.486 30.518-18.544 32.313-21.236 3.89.299 7.779.599 11.968.599-17.952 10.169-32.313 24.226-32.313 24.525 20.944-5.683 31.116-21.534 32.912-24.525h11.967c-18.251 11.963-32.612 27.516-32.612 27.815 21.841-7.178 31.715-24.525 33.51-27.815 3.89-.3 7.779-.3 11.968-.898-18.251 13.759-32.912 31.106-32.912 31.106 22.44-8.973 32.014-27.517 33.51-31.106 3.89-.299 7.779-.897 11.669-1.495-18.55 15.553-32.612 34.396-32.612 34.695 23.337-10.768 32.014-30.807 33.51-34.695 3.889-.598 7.779-1.496 11.668-2.393C205.062 480.955 191 501.293 191 501.592c23.936-12.562 31.715-34.097 33.211-38.284 4.787-1.196 9.873-2.393 14.66-4.187-.299-.598-.299-1.197-.598-1.496-4.787 1.496-9.574 2.991-14.361 4.188-2.394-3.29-18.251-18.245-35.904-27.816Z" fill="url(#f)"/><path d="M296.617 409.471c-.599-.299-4.788-30.208-15.559-33.797-11.369-4.188-12.267 5.982-12.267 5.982-.598-.3-7.779-32.003-15.857-36.49-8.677-4.785-12.566 4.487-12.566 4.487-.3 0-3.591-25.124-11.071-32.303-7.779-7.178-8.976 3.889-8.976 3.889-.299 0-4.188-23.33-9.275-29.311-5.385-5.982-11.07 3.29-11.07 3.589-.299 0-3.291-25.124-7.48-29.312-4.787-4.187-7.48 1.496-7.48 1.496-.299 0-4.787-29.311-15.857-28.414-11.968 1.196-3.591 32.601-3.291 32.302 0 0-5.386-4.486-7.48 1.496-2.394 6.281 11.07 32.302 11.369 32.003 0 0-10.771-5.384-11.07 3.589-.299 9.272 16.456 32.9 16.755 32.601 0 0-10.472-8.674-8.976 3.888 1.496 13.16 24.833 34.396 25.132 33.798 0 0-11.07-2.094-9.275 9.87 1.796 12.861 36.502 35.891 36.502 35.293 0 0-11.369-2.692-6.881 12.263 5.086 15.852 40.691 24.825 40.391 24.226.3 0-21.841 3.889 2.095 21.834 25.432 18.245 60.138-16.45 59.54-16.45-.299-.299 14.96-46.36.898-61.015-14.661-15.254-18.251 4.187-18.251 4.486Z" fill="url(#g)"/><path opacity=".07" d="M314.868 405.583c-14.661-15.852-18.251 3.589-18.251 3.888-.599-.299-4.788-30.208-15.559-33.797-11.369-4.187-12.267 5.982-12.267 5.982-.598-.299-7.779-32.003-15.857-36.49-8.677-4.785-12.566 4.487-12.566 4.487-.3 0-3.591-25.124-11.071-32.302-2.992-2.692-5.086-2.991-6.283-1.795 10.771 33.798 17.952 83.746-13.464 102.888 4.787 3.589 8.378 5.683 9.275 5.982h.3-.3c-1.196-.299-11.07-1.794-6.582 12.263 4.787 15.254 38.297 24.227 40.392 24.227-1.496.299-20.645 4.486 2.393 21.833 25.432 18.245 60.139-16.45 59.54-16.45-.598 0 14.661-46.06.3-60.716Z" fill="#1F5148"/><path opacity=".8" d="M278.366 393.32c-.898 14.357-.599 29.311.897 44.565-19.747-17.347-37.399-37.087-52.359-58.323-.898-14.656-.3-29.012.897-43.07-2.094 12.861-2.992 26.022-3.291 39.78a325.284 325.284 0 0 1-37.399-70.586c0-.598 0-1.795.299-3.29.299-2.393.299-5.683.598-8.973.299-3.29.299-6.281.599-8.973 0-2.393.299-3.888.299-3.888s-.299 1.495-.599 3.888c-.299 2.393-.598 5.384-.897 8.674-.299 3.29-.299 6.58-.299 8.973v3.29c-6.583-16.75-11.669-33.798-15.259-51.444 5.983 29.61 15.857 58.323 29.62 85.241-.598-.598-1.795-1.495-3.59-2.692-2.693-1.794-5.984-4.486-9.575-6.879l-9.873-6.58-4.488-2.991s1.795 1.496 4.189 3.889c2.692 2.093 5.984 4.785 9.574 7.477 3.59 2.393 7.181 4.785 9.873 6.281 1.796.897 3.292 1.794 3.89 2.093 6.881 13.46 14.361 26.321 23.038 38.883 7.48 11.066 15.858 21.534 24.534 31.704-14.66-2.692-29.919-6.58-44.879-11.665 15.857 6.281 31.715 11.066 47.273 14.356a335.998 335.998 0 0 0 47.871 44.266 335.406 335.406 0 0 1-35.006 9.87c12.866-1.794 25.432-4.486 37.4-8.075 6.582 4.785 13.165 9.272 20.046 13.758.299-.897.898-1.495 1.197-2.393-14.661-9.272-28.424-19.441-41.589-30.507-2.094-15.852-3.291-31.405-2.991-46.659Z" fill="#1F5148"/><path d="M505.755 405.882c0-.299 2.094 30.807-20.046 57.127 5.086-1.794 9.873-3.589 14.66-5.383.898-5.982 5.984-32.901 16.755-55.931 0-.299 3.292 29.311-15.857 55.631l14.361-6.281c.599-5.682 3.591-31.703 12.866-54.135 0-.3 4.787 27.815-11.968 53.836 4.787-2.392 9.275-4.785 13.763-7.178 0-5.084 1.496-30.208 9.275-52.341 0-.299 5.685 26.021-8.377 51.743l13.464-8.076c-.3-4.785-.599-28.413 5.983-50.247 0-.299 6.583 24.525-5.086 49.649 4.488-2.991 8.677-5.982 12.866-8.973-.599-4.486-2.394-26.918 2.692-47.855 0 0 7.48 22.732-2.094 47.257 4.189-3.29 8.377-6.58 12.267-9.87-.598-4.187-3.89-25.124 0-45.163 0 0 8.078 21.236.299 44.864 3.89-3.29 7.779-6.879 11.669-10.767-.898-3.589-5.086-23.33-2.394-42.472 0 0 8.677 19.441 2.693 42.173 3.89-3.59 7.48-7.478 11.07-11.366-.897-3.29-5.984-21.535-4.488-39.779 0 0 8.976 17.945 4.788 39.181 3.59-3.888 7.18-8.076 10.471-12.263-1.196-2.692-6.881-19.441-6.283-36.789 0 0 9.275 16.451 6.583 36.49 3.291-4.187 6.582-8.375 9.574-12.861-1.197-2.393-7.48-17.647-7.779-33.798 0 0 9.275 14.656 8.078 33.499l8.976-13.459c-1.197-2.094-8.078-15.553-8.976-30.807 0 0 9.275 13.16 8.976 30.507 2.992-4.785 5.685-9.271 8.078-14.356-.897-1.495-8.078-13.758-9.873-27.816 0 0 8.976 11.665 9.873 27.517 2.693-4.786 5.087-9.87 7.181-14.955-.598-.897-8.078-11.664-10.173-24.825 0 0 8.677 10.17 10.173 24.526.898-1.794 1.795-3.888 2.394-5.683-.3-.897-3.89-14.655-2.394-29.012 0 0 5.386 13.759 2.394 28.713.897-2.393 2.094-4.785 2.992-7.178-.3.299-.3.598-.599.897 0 0 2.095-16.151 8.677-30.208 0 0-.598 15.852-8.078 29.012-.898 2.393-1.796 5.084-2.992 7.477 1.196-1.794 9.873-14.057 20.644-21.834 0 0-8.377 15.254-20.644 22.133-.898 1.795-1.496 3.889-2.394 5.683 11.669-8.375 25.133-11.964 25.133-11.964-10.771 10.469-23.936 11.964-25.133 11.964-2.094 5.085-4.488 10.169-7.181 14.955 13.464-8.375 28.125-11.366 28.424-11.366-12.267 10.768-26.628 11.665-28.424 11.665a173.332 173.332 0 0 1-8.078 14.356c15.259-8.075 31.715-10.767 31.715-10.767-14.062 11.066-29.621 10.767-31.715 10.767-2.693 4.786-5.685 9.272-8.976 13.759 17.054-7.777 35.006-9.571 35.006-9.571-15.558 11.066-32.612 9.87-35.006 9.87-2.992 4.486-6.283 8.673-9.574 12.861 18.849-7.178 38.297-8.076 38.297-8.076-17.653 11.067-35.604 8.674-38.596 8.375a205.707 205.707 0 0 1-10.472 12.263c20.644-6.281 41.588-6.281 41.588-6.281-19.448 10.767-38.596 7.178-41.887 6.58-3.591 3.888-7.181 7.776-11.071 11.664 22.44-5.383 44.581-4.187 44.581-4.187-21.243 10.468-41.589 5.384-45.179 4.487l-11.669 10.767c23.936-4.187 47.572-1.795 47.872-1.496-23.338 9.871-44.581 3.291-48.171 2.094-3.89 3.589-8.078 6.879-12.267 9.87 25.731-2.692 50.564 1.197 50.863 1.197-25.431 9.272-47.273.897-51.461-.898-4.189 3.29-8.378 6.281-12.866 9.272 27.227-1.196 53.556 4.188 53.556 4.188-27.526 8.374-50.265-1.795-54.154-3.889-4.488 2.991-8.976 5.683-13.464 8.375 29.022.598 56.249 7.477 56.249 7.776-29.621 7.179-52.659-4.785-57.147-7.178-4.488 2.692-9.275 5.085-13.763 7.477 30.518 2.393 58.643 11.366 58.643 11.366-31.416 5.982-55.352-8.075-59.54-11.066-4.787 2.392-9.575 4.486-14.362 6.58 31.715 4.486 61.036 15.253 61.036 15.552-33.51 4.786-57.745-11.664-61.933-14.954-4.788 2.093-9.874 3.888-14.661 5.683 32.912 6.879 63.13 19.74 63.13 19.74-35.604 2.991-59.839-15.553-64.327-19.441-6.283 2.093-12.566 4.187-19.148 5.982-.3-.599-.3-1.496-.599-2.094 6.583-1.496 12.866-3.589 19.149-5.683 1.496-5.683 8.676-33.498 21.542-56.828Z" fill="url(#h)"/><path opacity=".82" d="M386.675 372.982c-.299-.3 11.668 28.413-1.197 60.416 4.189-3.29 8.377-6.58 12.267-9.87-.898-5.981-4.787-33.199-1.496-58.323-.299-.299 12.566 26.619 2.394 57.725 3.889-3.29 7.779-6.879 11.668-10.468-1.197-5.384-6.582-31.106-4.787-55.631-.299-.3 13.165 24.824 5.386 55.033 3.59-3.589 7.48-7.478 10.771-11.366-1.496-5.084-8.079-29.012-7.779-52.64-.3 0 13.763 23.03 8.377 51.743a194.779 194.779 0 0 0 10.173-11.964c-1.795-4.486-9.574-26.918-10.173-49.35-.299 0 14.062 21.235 10.771 48.752 3.291-4.187 6.283-8.375 9.275-12.562-1.795-4.187-10.472-24.825-12.267-46.06 0 0 14.362 19.441 12.866 45.462 2.992-4.187 5.984-8.674 8.676-13.16-2.094-3.589-11.369-22.731-14.062-42.771 0 0 14.362 17.647 14.362 42.472 2.692-4.487 5.385-8.973 7.779-13.759-2.095-3.29-11.968-20.637-15.558-39.48 0 0 14.361 15.852 15.857 39.181 2.394-4.785 4.787-9.571 6.881-14.356-2.094-2.692-12.566-18.544-16.755-36.191 0 0 14.362 14.357 17.055 35.892 2.094-4.786 4.188-9.87 5.984-14.955-1.796-2.393-12.567-16.45-17.653-32.9 0 0 14.062 12.562 17.653 32.601 1.795-5.085 3.59-10.169 5.086-15.254-1.795-1.794-12.566-14.356-17.952-29.61 0 0 13.464 11.066 17.952 29.311 1.496-5.085 2.992-10.468 4.189-15.553-1.496-1.495-12.567-12.263-18.251-26.32 0 0 12.865 9.571 18.251 26.32 1.197-5.384 2.393-10.767 3.291-16.151-1.496-1.196-11.968-10.468-17.952-23.329 0 0 12.267 8.374 17.952 23.03.897-5.384 1.795-10.767 2.393-16.45-.897-.598-11.369-8.674-17.652-20.339 0 0 11.669 6.88 17.652 20.04.3-2.094.3-4.188.599-6.281-.599-.898-8.378-12.861-11.37-26.919 0 0 9.275 11.366 11.37 26.62.299-2.692.299-5.085.598-7.777 0 .299 0 .598-.299.898 0 0-3.291-15.852-1.197-31.405 0 0 4.488 15.253 1.496 30.208 0 2.692-.299 5.384-.598 8.076.598-2.094 4.787-16.45 12.566-27.218 0 0-3.291 17.048-12.566 27.517 0 2.093-.299 4.187-.599 6.281 8.378-11.665 20.047-19.142 20.047-19.142-6.882 13.16-18.85 18.843-20.047 19.441-.598 5.384-1.196 11.066-2.094 16.45 10.173-12.263 23.337-19.74 23.337-19.74-8.078 14.057-21.841 19.441-23.337 20.039-.897 5.384-1.795 10.767-2.992 16.151 11.968-12.562 26.629-20.039 26.629-20.039-9.874 14.655-24.834 19.74-26.629 20.338-1.197 5.384-2.693 10.469-4.189 15.852 13.763-12.562 30.219-20.039 30.219-20.039-11.369 15.553-27.825 19.74-30.219 20.338-1.496 5.085-3.291 10.169-5.086 15.254 15.558-12.562 33.809-19.74 33.809-19.74-13.164 15.852-31.116 19.441-33.809 20.039-1.795 5.085-3.89 9.87-5.984 14.955 17.653-12.263 37.4-18.843 37.4-18.843-14.96 16.45-34.408 18.843-37.699 19.441-2.094 4.786-4.488 9.571-6.882 14.357 19.448-11.964 40.99-17.946 41.29-17.946-17.055 16.45-37.998 18.245-41.29 18.245-2.393 4.785-5.086 9.272-7.779 14.057 21.542-11.366 44.88-16.45 44.88-16.45-19.149 16.749-41.289 17.048-45.179 17.048-2.693 4.487-5.685 8.973-8.377 13.459 23.636-10.767 48.469-14.954 48.469-14.655-21.243 16.749-44.879 15.553-49.068 15.254-2.992 4.486-5.984 8.673-9.275 12.861 25.432-9.87 52.06-12.861 52.359-12.562-23.337 16.45-48.17 14.057-52.658 13.459-3.291 4.187-6.583 8.075-10.173 12.263 27.526-8.674 55.651-10.469 55.95-10.169-25.731 16.151-51.761 11.963-56.548 11.066-3.591 3.888-7.181 7.776-10.771 11.366 29.62-7.179 59.241-7.777 59.54-7.478-28.125 15.553-55.052 9.571-60.139 8.375a207.175 207.175 0 0 1-11.668 10.767c31.415-5.683 62.831-4.486 62.831-4.486-30.518 14.955-58.343 6.879-63.729 5.084-3.89 3.59-8.078 6.88-12.267 9.871 33.51-3.889 66.122-1.197 66.122-.898-32.911 14.058-61.634 3.888-67.02 1.795-5.385 4.187-10.771 7.776-16.456 11.664-.299-.598-.897-1.196-1.196-1.794 5.684-3.589 11.07-7.477 16.456-11.366-.898-8.374-2.992-37.087 1.795-63.108Z" fill="url(#i)"/><path d="M448.01 421.734c.599-.299 4.787-30.208 15.558-33.797 11.37-4.188 12.267 5.982 12.267 5.982.599-.3 7.78-32.003 15.858-36.49 8.677-4.785 12.566 4.487 12.566 4.487.299 0 3.89-25.124 11.07-32.303 7.78-7.178 8.976 3.889 8.976 3.889.299 0 4.189-23.33 9.275-29.312 5.386-5.981 11.071 3.29 11.071 3.59.299 0 3.291-25.124 7.48-29.312 4.787-4.187 7.479 1.496 7.479 1.496.3 0 4.788-29.311 15.858-28.414 11.968 1.196 3.59 32.601 3.291 32.302 0 0 5.386-4.486 7.48 1.496 2.394 6.281-11.07 32.302-11.369 32.003 0 0 10.771-5.384 11.07 3.589.299 9.272-16.456 32.9-16.755 32.601 0 0 10.472-8.674 8.976 3.888-1.496 13.16-24.834 34.396-25.133 33.798 0 0 11.07-2.094 9.275 9.87-1.795 12.861-36.502 35.891-36.502 35.293 0 0 11.37-2.692 6.882 12.263-5.087 15.852-40.691 24.824-40.392 24.226-.299 0 21.842 3.888-2.094 21.834-25.432 18.245-60.139-16.45-59.54-16.45.299-.299-14.96-46.36-.898-61.015 14.661-15.254 18.55 4.187 18.251 4.486Z" fill="url(#j)"/><path opacity=".05" d="M429.759 417.846c14.661-15.852 18.251 3.589 18.251 3.888.598-.299 4.787-30.208 15.558-33.797 11.37-4.188 12.267 5.982 12.267 5.982.599-.299 7.779-32.003 15.858-36.49 8.677-4.785 12.566 4.487 12.566 4.487.299 0 3.89-25.124 11.07-32.302 2.992-2.692 5.087-2.991 6.284-1.795-10.772 33.798-17.952 83.746 13.463 102.888-4.787 3.589-8.377 5.683-9.275 5.982h-.299.299c1.197-.299 11.071-1.795 6.583 12.263-4.788 15.254-38.298 24.226-40.392 24.226 1.496.3 20.645 4.487-2.394 21.834-25.431 18.245-60.138-16.45-59.54-16.45.898 0-14.361-45.761-.299-60.716Z" fill="#1F5148"/><path opacity=".8" d="M466.56 405.883c.898 14.356.599 29.311-.897 44.564 19.747-17.347 37.399-37.087 52.359-58.323.898-14.655.299-29.012-.898-43.069 2.095 12.861 2.992 26.021 3.292 39.779a325.284 325.284 0 0 0 37.399-70.586c0-.598 0-1.794-.299-3.29-.299-2.393-.299-5.683-.598-8.973-.3-3.29-.3-6.281-.599-8.973 0-2.392-.299-3.888-.299-3.888s.299 1.496.598 3.888c.3 2.393.599 5.384.898 8.674.299 3.29.299 6.58.299 8.973v3.29c6.583-16.749 11.669-33.798 15.259-51.444-5.984 29.61-15.857 58.323-29.62 85.242.598-.599 1.795-1.496 3.59-2.692 2.693-1.795 5.984-4.487 9.574-6.879l9.874-6.58 4.488-2.991s-1.496 1.495-4.189 3.888c-2.693 2.093-5.984 4.785-9.574 7.477-3.59 2.393-7.181 4.786-9.874 6.281-1.795.897-3.291 1.795-3.889 2.094-6.882 13.459-14.362 26.32-23.038 38.882-7.48 11.066-15.858 21.535-24.534 31.704 14.66-2.692 29.919-6.58 44.879-11.665-15.857 6.281-31.715 11.067-47.273 14.357a336.01 336.01 0 0 1-47.872 44.266 335.984 335.984 0 0 0 35.007 9.87c-12.866-1.795-25.432-4.487-37.4-8.076-6.582 4.786-13.165 9.272-20.046 13.758-.299-.897-.898-1.495-1.197-2.392 14.661-9.272 28.424-19.441 41.588-30.508 2.095-15.852 2.992-31.704 2.992-46.658Z" fill="#1F5148"/><path d="M221.817 483.048s-76.893 28.414-130.45-91.522c.3 0 128.356 0 130.45 91.522Z" fill="url(#k)"/><path opacity=".1" d="M196.086 425.622c-13.164 23.329-45.178 22.731-73.901 17.347 48.17 59.221 99.632 40.079 99.632 40.079-.598-25.722-11.07-44.266-25.731-57.426Z" fill="#1A7F72"/><path opacity=".4" d="m170.954 413.659 5.984 35.891-40.093-26.919-3.291-20.338 1.496 19.142-12.267-8.075v-.599h-.598l-18.85-12.861 17.653 12.861-14.96.599 16.755 1.196v-.299l32.014 23.329-29.62.897 32.014.898 39.494 28.713h-38.297s10.771.598 21.841.897c5.385.299 10.771.598 14.96.598 1.496 0 2.992.299 4.188.299l21.243 15.254 2.992-4.187-44.281-29.91-8.377-37.386Z" fill="#1F5148"/><path d="M549.139 464.803s61.634 53.837 154.385-39.181c0-.299-119.679-45.761-154.385 39.181Z" fill="url(#l)"/><path opacity=".05" d="M594.018 420.238c3.89 26.321 34.108 37.387 62.831 42.472-66.122 38.284-107.411 2.093-107.411 2.093 9.574-23.927 26.03-37.386 44.58-44.565Z" fill="#1F5148"/><path opacity=".4" d="m621.544 417.846-18.251 31.405 46.974-11.067 10.472-17.945-8.078 17.347 14.361-3.29.299-.299.599.299 22.14-5.384-20.944 5.683 13.764 5.683-16.157-4.786.299-.299-38.297 10.469 27.227 11.365-30.219-10.468-46.974 12.861c.299.299.898.299 1.496.598 3.89 1.496 8.976 3.29 14.062 5.384l20.346 7.776s-10.173-3.29-20.645-6.879c-5.086-1.794-10.472-3.29-14.062-4.486-1.496-.599-2.992-.898-3.89-1.197l-25.132 6.879-1.197-5.084 52.06-12.263 19.747-32.302Z" fill="#1F5148"/><path d="M371.416 422.332s64.327-13.459 49.666-117.543c0 0-87.066 54.136-49.666 117.543Z" fill="url(#m)"/><path opacity=".1" d="M364.833 372.084c18.85 10.17 40.392-3.589 57.446-19.74-7.48 60.716-50.863 69.689-50.863 69.689-10.472-17.646-11.071-34.695-6.583-49.949Z" fill="#1A7F72"/><path opacity=".6" d="m376.502 353.541 11.07 26.918 15.559-35.293-6.284-15.254 7.181 13.46 4.787-10.768-.299-.299.599-.299 7.479-16.749-6.582 16.151 10.472-5.982-10.771 8.076-.299-.3-11.968 29.312 20.345-11.964-21.243 14.356-14.66 36.191c.299-.299.598-.299.897-.598 2.693-1.795 6.582-4.188 10.173-6.281 7.48-4.487 14.661-9.272 14.661-9.272s-7.181 4.785-14.362 9.87c-3.59 2.392-7.181 5.084-9.873 6.879-.898.897-1.796 1.495-2.693 1.794l-7.779 19.442-3.89-1.496 17.354-39.181-9.874-28.713Z" fill="#1F5148"/><path d="M249.942 329.314s-67.02-26.021-32.613-135.788c0 0 84.374 74.175 32.613 135.788Z" fill="url(#n)"/><path opacity=".2" d="M240.667 219.547c8.078 28.115 5.684 54.136-23.039 77.465 12.567 24.526 32.314 32.302 32.314 32.302 32.612-38.882 11.07-82.55-9.275-109.767Z" fill="#1A7F72"/><path opacity=".6" d="m256.524 253.943-16.755 27.217-10.771-40.976 9.574-15.552-10.172 13.459-3.292-12.562.3-.299-.3-.299-5.086-19.441 4.189 18.842-10.173-8.075 10.173 10.468.299-.299 7.48 33.798-20.046-16.451 20.345 19.142 9.275 41.874-.897-.898c-2.693-2.392-6.284-5.682-9.874-8.673l-14.361-12.562 13.763 13.16c3.291 3.29 6.881 6.58 9.275 9.272l2.393 2.392 5.087 22.432 4.488-1.196-11.669-45.462 16.755-29.311Z" fill="#1F5148"/><path d="M380.668 232.902c20.644-.598 32.612 6.879 48.769 19.441 16.156 12.562 71.807 17.347 71.807 17.347-5.086-11.963 2.693-60.716-3.59-73.876-6.283-13.16-13.763-30.208-18.251-38.882-4.488-8.674-11.669-23.628-6.882-32.9 4.787-8.973 23.038-13.759 32.014-7.478 9.275 6.281 7.48 13.759 7.48 13.759s5.685-.599 6.283 14.356c.599 14.955-2.393 33.2 0 43.07 2.394 9.87 26.33 94.513 18.251 114.552-8.078 20.04-62.233 12.263-84.373 5.982-22.141-5.982-36.801-15.253-54.155-12.263-17.652 2.991-35.305 25.723-35.305 25.723s-38.297 15.253-35.305-31.106c-1.197-13.459 18.251-43.668 18.251-43.668l35.006-14.057Z" fill="#F4A082"/><path opacity=".3" d="M384.857 232.902h-4.189l-34.707 14.357s-19.747 30.208-18.251 43.667c-3.291 46.36 35.305 31.106 35.305 31.106s3.59-4.486 8.976-9.87c-44.58 6.879-15.857-57.426 12.866-79.26Z" fill="url(#o)"/><path d="M246.628 260.418s11.668-66.099 16.156-85.54c4.488-19.441 11.968-56.828 21.542-77.466 9.874-20.936 15.858-37.087 26.33-38.284 10.472-1.196 84.373 6.281 102.624 9.272 18.251 2.991 35.006 2.991 48.769 11.964 13.763 9.272 29.92 23.928 32.613 31.704 2.992 7.776 6.283 12.861-5.087 15.852-11.369 2.991-25.132 0-33.809-6.281-8.677-6.281-23.936-22.432-35.006-27.517-16.755-5.682-82.578 7.478-96.94 2.991 0 0-2.692 17.647-7.779 33.2-5.086 15.553-11.968 55.332-5.685 75.67 6.583 20.04-63.728 54.435-63.728 54.435Z" fill="#F4A082"/><path opacity=".55" d="M267.871 151.848c-2.095 8.673-3.591 16.749-5.087 23.03-4.488 19.441-16.156 85.541-16.156 85.541s70.61-34.097 64.028-54.435c-1.197-3.59-1.796-7.478-2.095-11.964-17.652 7.477-49.068-2.991-40.69-42.172Z" fill="url(#p)"/><path d="M338.182 87.243c3.291-8.674-6.583-23.628-17.653-22.133-11.07 1.496-16.156 3.888-19.747 12.861 0 0 4.488-8.674 11.37-6.58 0 0-15.259 1.197-16.157 21.236-.898 20.039 18.55 20.338 18.55 20.338l23.637-25.722Z" fill="#1D3542"/><path d="M335.686 74.128c-10.472.898-20.944 7.179-29.321 11.366 6.881-2.393 11.668-4.486 18.55-4.486-13.464 0-20.645 13.16-23.936 26.918 5.386 5.683 13.763 5.982 13.763 5.982l23.637-26.021c1.496-4.188.299-9.571-2.693-13.759Z" fill="url(#q)"/><path d="M319.033 180.261c-16.755-1.794-21.841-24.525-19.448-46.359 2.394-21.834 20.645-51.743 51.462-55.632 20.944-2.691 49.966 14.656 56.249 25.423 10.472 18.245 8.079 37.985 8.079 37.985l-96.342 38.583Z" fill="#1D3542"/><path d="M410.587 113.563c7.48 11.366 7.48 45.463-6.283 58.324-13.763 12.562 1.795 24.525-17.054 34.096 0 0 10.472-6.281 6.882-20.338-3.591-14.356 4.188-57.127 4.188-57.127l12.267-14.955Z" fill="#1D3542"/><path opacity=".3" d="M500.047 222.733c-.299 18.244-2.094 39.48.898 46.957 0 0-8.378-.598-19.747-2.392 2.393 15.253-7.779 29.311-13.464 44.565 25.432 4.785 62.532 6.879 68.815-9.571.599-1.197.898-2.692 1.197-4.487-26.628-14.655-27.825-48.453-37.699-75.072Z" fill="url(#r)"/><path d="M348.354 353.137c3.89-14.356 14.661-31.105 14.661-31.105s-30.518 0-25.132-28.414c3.59-18.843 43.084-60.417 43.084-60.417l-5.984-.598-46.675 4.486-19.148-34.695s-4.787-1.794-8.378 0c-3.59 1.795-43.982 36.191-53.855 52.94-9.874 16.749-24.235 19.441-22.44 36.19 1.795 16.749 8.677 27.517 11.968 36.789 1.496 4.187 2.992 18.843 8.377 38.284 35.904 9.87 74.5 7.178 103.522-13.46Z" fill="#FFD2B9"/><path d="M235.557 326.518c.3.599.599 1.197.599 1.795 1.496 4.187 2.992 18.843 8.377 38.284 36.203 10.169 74.799 7.477 103.821-13.459 3.89-14.357 14.661-31.106 14.661-31.106s-11.669 0-19.448-6.879c-24.833 29.311-73.602 25.722-108.01 11.365Z" fill="#FFD2B9"/><path d="M244.533 366.298c6.283 21.833 17.952 49.948 42.187 75.969 0 0 62.831 10.17 76.295-63.707 0 0-16.157-.598-16.157-16.151 0-2.991.599-6.281 1.496-9.571-29.022 20.937-67.618 23.629-103.821 13.46Z" fill="#F4A082"/><path opacity=".7" d="M346.859 362.709c0-2.991.598-6.281 1.495-9.571-6.283 4.486-13.164 8.374-20.345 11.066 10.771 32.601-14.062 62.81-42.785 76.568.598.598.898 1.197 1.496 1.795 0 0 61.036 11.365 76.295-63.707 0-.299-16.156-.898-16.156-16.151Z" fill="url(#s)"/><path d="M565.272 394.413c-15.558-32.901-30.518-64.904-32.911-72.381-4.488-15.254-14.96-37.985-20.944-52.641-5.984-14.655-5.386-23.628-5.984-31.105-.898-7.179-.898-15.254-7.48-16.451-6.882-1.196-5.086 12.862-10.173 19.442-5.086 6.58-2.693 19.142-.897 37.087 1.795 17.946-13.763 24.526-11.37 43.369 2.394 18.843 16.755 6.879 29.022 23.628 6.583 9.272 9.575 37.387 13.763 64.305 17.054.598 32.912-5.982 46.974-15.253Z" fill="#F4A082"/><path opacity=".7" d="M512.614 372.28c2.094 11.365 3.889 24.525 5.684 37.685 17.054.299 32.912-6.281 46.974-15.553-.598-1.196-.897-2.093-1.496-3.29-18.849.599-38.297-5.383-51.162-18.842Z" fill="#F4A082"/><path d="M601.475 473.672c-2.992-8.973-20.046-44.565-36.502-79.26-13.763 9.272-29.92 15.852-46.974 15.553 3.59 23.031 7.779 45.163 15.857 54.435-7.779-4.486-81.979-27.516-90.955-34.395-9.275-6.88-11.37-22.133-30.518-36.789-19.149-14.655-39.794-9.272-49.667-14.655 0 0-15.259 65.8-79.586 59.818-64.328-5.982-146.607 3.589-143.016 41.873 3.889 38.284 54.154 36.789 75.098 37.387 20.645.897 92.452-.897 123.269-.897 30.518 0 49.667-18.245 55.95-19.142 5.984-.898 135.237 35.293 178.321 29.909 42.486-4.785 35.006-36.19 28.723-53.837Z" fill="#1F5148"/><path d="M321.726 157.231s-9.574 36.789-11.369 42.172c-3.89 12.861-93.649 68.493-53.557 94.813 41.888 27.517 117.884-61.912 117.884-61.912s-14.062-.599-18.85-11.366c-4.488-10.767 3.591-28.115 3.591-28.115s-19.448-40.676-37.699-35.592Z" fill="#F4A082"/><path opacity=".7" d="M356.134 220.938c-4.488-10.767 3.59-28.115 3.59-28.115s-19.448-40.676-37.998-35.592c0 0-.598 2.094-2.394 9.272 3.292 29.61 17.055 64.604 43.384 78.961 7.48-7.777 12.267-13.16 12.267-13.16s-14.361-.299-18.849-11.366Z" fill="url(#t)"/><path d="M404.603 118.947s3.292 25.423 2.992 36.789c-.299 11.365-5.983 13.459-7.479 16.45-1.496 3.29-1.496 11.365-5.984 19.74-4.488 8.375-20.645 23.927-31.117 23.329-12.566-.897-27.227-15.852-32.313-25.722-5.086-9.571-6.582-29.909-6.582-29.909s-10.472 1.794-11.669-11.366c-1.197-13.459 3.59-21.235 14.361-15.852 0 0 1.796-30.507 37.101-31.105 34.707-.898 40.69 17.646 40.69 17.646Z" fill="#F4A082"/><path opacity=".4" d="M338.481 158.727c4.189-24.526 19.149-41.873 38.596-56.828-3.889-.598-8.676-.897-13.763-.897-35.305.598-37.1 31.105-37.1 31.105-10.771-5.383-15.558 2.393-14.362 15.852 1.197 13.46 11.669 11.366 11.669 11.366s1.496 20.637 6.582 29.909c4.788 8.973 17.354 22.432 29.023 25.124-17.653-10.468-22.44-35.592-20.645-55.631Z" fill="url(#u)"/><path d="M407.296 125.228c-11.668 10.768-26.628 18.245-51.162 11.665 0 0 16.755-2.393 24.534-8.674-17.952 7.478-41.888-.897-46.675 13.16-4.787 14.058 8.976 49.052-8.078 55.034 0 0 11.369-4.188 4.488-20.937-4.189-9.87-13.165-25.722-7.48-50.248 5.685-24.525 25.731-35.592 52.06-32.6 26.329 3.29 35.904 20.936 35.904 20.936l-3.591 11.664Z" fill="#1D3542"/><path d="M382.558 163.12c2.242 1.336 4.477 2.288 6.937 2.928 2.346.604 4.835.743 7.432.533-2.353 1.051-5.182 1.188-7.794.628-2.574-.675-5.048-2.084-6.575-4.089Zm-24.92-6.2c2.203 1.402 4.41 2.418 6.85 3.129 2.327.672 4.81.884 7.413.75-2.383.981-5.215 1.036-7.809.4-2.554-.749-4.985-2.23-6.454-4.279Z" fill="#2E2430"/><path d="M399.9 157.088c-3.343-3.943-8.269-5.699-13.354-4.796-.773.096-.466 1.321.308 1.225 4.643-.8 9.13.837 12.144 4.552.432.562 1.33-.308.902-.981Zm-40.429-7.695c4.496-2.55 9.726-2.501 14.189.099.692.356-.018 1.401-.712 1.043-4.083-2.35-8.858-2.359-12.969.09-.598.379-1.141-.747-.508-1.232Z" fill="#1D3542"/><path d="M366.869 180.214c1.244.372 2.271.899 3.361 1.225 1.087.325 2.177.651 3.169.727 1.09.326 2.082.402 3.23.524 1.15.124 2.298.246 3.663.213-1.141.982-2.375 1.715-3.644 1.997-1.271.282-2.636.315-3.94.146-1.304-.17-2.487-.744-3.395-1.677-1.027-.527-1.873-1.662-2.444-3.155Zm-4.976 14.815c4.385 3.556 9.883 4.611 15.306 3.382 1.016-.266.511-1.735-.332-1.418-5.076 1.331-10.129.031-14.219-3.25-.76-.601-1.515.685-.755 1.286Z" fill="#A34F31"/><path d="M325.914 196.114c-.298.298 0 0 0 0Z" fill="url(#v)"/><path opacity=".47" d="M407.595 109.376c-8.078 10.468-24.235 12.562-36.801 12.562 6.882-2.393 13.763-6.879 18.55-13.758-16.156 13.758-41.588 6.879-55.351 23.03-12.865 11.066.898 37.686-1.496 52.042.898 9.272-5.086 12.263-6.283 12.861 16.755-6.281 2.992-40.976 8.078-55.033 4.787-14.057 28.723-5.683 46.675-13.16-7.779 6.281-24.534 8.674-24.534 8.674 24.534 6.58 39.494-.898 51.162-11.665l3.292-11.665c-.3.299-1.197-1.495-3.292-3.888Z" fill="url(#w)"/><path d="m443.499 94.122 2.693.898c.897.299 1.795.897 2.992 1.495 1.197.598 2.393 1.495 3.59 2.692 2.394 2.094 5.086 4.785 8.078 7.477 1.496 1.496 2.992 2.393 4.788 3.29.897.299 1.795.598 2.992 1.197.897.299 2.094 1.196 2.992 2.392.299.599.598 1.197.598 1.795 0 .299.299 1.196 0 2.094-.299 1.495-1.496 2.691-2.693 2.991-2.393.897-4.488.299-6.582 0-.898-.3-1.795-.3-2.992-.599l-2.693-.897c-1.795-.598-3.291-1.196-4.787-2.094-1.496-.897-2.693-1.495-3.89-2.093-1.196-.598-2.094-1.496-2.692-1.795-.898-.598-1.496-.897-1.796-1.196l-.598-.598s.898.598 2.693 1.196c.897.299 1.795.897 2.992 1.495 1.197.599 2.393.898 3.889 1.795 1.496.598 2.992 1.196 4.787 1.795l2.693.897c.898.299 1.795.299 2.693.598 1.795.299 3.89.299 5.386 0 .897-.299 1.196-.598 1.496-1.495v-1.197c0-.299-.3-.598-.3-.897-.897-1.196-2.992-1.795-4.787-2.692-2.094-.897-3.889-2.393-5.086-3.888-2.693-2.991-5.086-5.683-7.48-7.777a21.884 21.884 0 0 0-3.291-2.691c-.898-.898-2.095-1.197-2.693-1.795-2.094-2.094-2.992-2.393-2.992-2.393Z" fill="url(#x)" opacity=".7"/><path d="M496.756 117.452s5.984 8.972-4.189 11.664c-10.172 2.692-21.542-.897-21.542-.897s-.299 6.58.599 10.169c1.196 3.888.299 1.197.299 1.197s2.393-5.384 8.976-5.683c6.582-.299 13.464-2.692 17.353-6.879 4.189-4.188-1.496-9.571-1.496-9.571Z" fill="url(#y)"/><path opacity=".2" d="M267.871 472.775s-40.99-13.758-55.352-13.758c0 0 34.109-2.991 57.745 6.879 23.637 9.87 46.376 20.637 57.446 18.544 11.07-2.094 14.661-5.683 14.661-5.683s-4.189 6.58-17.952 8.973c-14.362 2.093-56.548-14.955-56.548-14.955Z" fill="#192E2A"/><path d="M261.887 518.237c33.809.299 66.72.897 73.602 2.094 14.361 2.393 37.699 2.991 52.359 3.888 14.661.897 21.842 5.085 28.424 7.477 6.283 2.393 13.165 5.683 16.755.299 3.591-5.084-8.677-9.571-12.267-16.45-3.291-6.879-14.96-9.87-30.518-15.553-15.857-5.682-14.96-21.534-31.416-27.217-16.755-5.683-12.566 11.365-31.415 14.655-10.173 1.795-35.006-7.178-59.241-14.655-7.48 14.057-8.677 30.208-6.283 45.462Z" fill="#F4A082"/><path opacity=".5" d="M320.529 487.43c-12.267-1.196-32.612-8.374-52.658-14.655-7.181 14.057-8.079 29.909-5.984 45.462h6.582c10.771-19.142 31.715-26.32 52.06-30.807Z" fill="#F4A082"/><defs><linearGradient id="b" x1="706.392" y1="279.914" x2="43.337" y2="279.913" gradientUnits="userSpaceOnUse"><stop stop-color="#1A7F54"/><stop offset="1" stop-color="#7ADBAE"/></linearGradient><linearGradient id="d" x1="723.978" y1="306.221" x2="62.969" y2="254.169" gradientUnits="userSpaceOnUse"><stop stop-color="#1A7F72"/><stop offset="1" stop-color="#7ADBAE"/></linearGradient><linearGradient id="e" x1="622.888" y1="131" x2="-369.703" y2="635.922" gradientUnits="userSpaceOnUse"><stop stop-color="#41CBB9"/><stop offset="1" stop-color="#307E70"/></linearGradient><linearGradient id="f" x1="264.888" y1="249.5" x2="-145.366" y2="906.488" gradientUnits="userSpaceOnUse"><stop stop-color="#41CBB9"/><stop offset="1" stop-color="#307E70"/></linearGradient><linearGradient id="g" x1="460.229" y1="-107.922" x2="-133.731" y2="787.426" gradientUnits="userSpaceOnUse"><stop stop-color="#41CBB9"/><stop offset="1" stop-color="#3EB39D"/></linearGradient><linearGradient id="h" x1="267.888" y1="236" x2="834.423" y2="510.595" gradientUnits="userSpaceOnUse"><stop stop-color="#41CBB9"/><stop offset="1" stop-color="#307E70"/></linearGradient><linearGradient id="i" x1="155.388" y1="279.5" x2="866.554" y2="387.999" gradientUnits="userSpaceOnUse"><stop stop-color="#41CBB9"/><stop offset="1" stop-color="#307E70"/></linearGradient><linearGradient id="j" x1="197.922" y1="-277.093" x2="791.886" y2="618.262" gradientUnits="userSpaceOnUse"><stop stop-color="#41CBB9"/><stop offset="1" stop-color="#359D8A"/></linearGradient><linearGradient id="k" x1="263.318" y1="-300.83" x2="86.244" y2="926.581" gradientUnits="userSpaceOnUse"><stop stop-color="#41CBB9"/><stop offset="1" stop-color="#32BFA6"/></linearGradient><linearGradient id="l" x1="805.317" y1="-355.151" x2="534.945" y2="855.249" gradientUnits="userSpaceOnUse"><stop stop-color="#41CBB9"/><stop offset="1" stop-color="#319E8B"/></linearGradient><linearGradient id="m" x1="-61.038" y1="-177.53" x2="739.505" y2="769.93" gradientUnits="userSpaceOnUse"><stop stop-color="#41CBB9"/><stop offset="1" stop-color="#4DD0B9"/></linearGradient><linearGradient id="n" x1="656.364" y1="-98.483" x2="-287.976" y2="705.81" gradientUnits="userSpaceOnUse"><stop stop-color="#41CBB9"/><stop offset="1" stop-color="#2EA892"/></linearGradient><linearGradient id="o" x1="749.813" y1="84.377" x2="-356.611" y2="645.359" gradientUnits="userSpaceOnUse"><stop offset=".005" stop-color="#F5906B"/><stop offset=".747" stop-color="#F5906B"/></linearGradient><linearGradient id="p" x1="698.204" y1="-17.372" x2="-408.177" y2="543.589" gradientUnits="userSpaceOnUse"><stop offset=".005" stop-color="#F5906B"/><stop offset=".747" stop-color="#F5906B"/></linearGradient><linearGradient id="q" x1="666.153" y1="-80.68" x2="-440.285" y2="480.309" gradientUnits="userSpaceOnUse"><stop stop-color="#313F46"/><stop offset="1" stop-color="#305062"/></linearGradient><linearGradient id="r" x1="775.211" y1="134.469" x2="-331.216" y2="695.453" gradientUnits="userSpaceOnUse"><stop offset=".005" stop-color="#EA7951"/><stop offset=".747" stop-color="#F5906B"/></linearGradient><linearGradient id="s" x1="790.455" y1="164.549" x2="-315.953" y2="725.523" gradientUnits="userSpaceOnUse"><stop offset=".005" stop-color="#F5906B"/><stop offset=".747" stop-color="#F5906B"/></linearGradient><linearGradient id="t" x1="713.714" y1="13.169" x2="-392.714" y2="574.154" gradientUnits="userSpaceOnUse"><stop offset=".005" stop-color="#F5906B"/><stop offset=".747" stop-color="#F5906B"/></linearGradient><linearGradient id="u" x1="698.987" y1="-15.827" x2="-407.385" y2="545.129" gradientUnits="userSpaceOnUse"><stop offset=".005" stop-color="#F5906B"/><stop offset=".747" stop-color="#F5906B"/></linearGradient><linearGradient id="v" x1="707.637" y1="3.031" x2="-396.353" y2="563.489" gradientUnits="userSpaceOnUse"><stop stop-color="#007"/><stop offset=".146" stop-color="#020087"/><stop offset=".723" stop-color="#0B00C1"/><stop offset="1" stop-color="#0F00D8"/></linearGradient><linearGradient id="w" x1="695.493" y1="-22.738" x2="-410.905" y2="538.231" gradientUnits="userSpaceOnUse"><stop stop-color="#305062"/><stop offset="1" stop-color="#305062"/></linearGradient><linearGradient id="x" x1="442.782" y1="107.187" x2="472.369" y2="107.187" gradientUnits="userSpaceOnUse"><stop offset=".005" stop-color="#F5906B"/><stop offset=".747" stop-color="#F5906B"/></linearGradient><linearGradient id="y" x1="713.379" y1="12.524" x2="-393.042" y2="573.505" gradientUnits="userSpaceOnUse"><stop offset=".005" stop-color="#F5906B"/><stop offset=".747" stop-color="#F5906B"/></linearGradient><clipPath id="a"><path fill="#fff" transform="rotate(90 338.217 368.217)" d="M0 0h500v663.434H0z"/></clipPath><clipPath id="c"><path fill="#fff" transform="rotate(94.503 345.437 372.232)" d="M0 0h500v663.434H0z"/></clipPath></defs></svg>