<svg width="32" height="32" viewBox="0 0 32 32" fill="none" xmlns="http://www.w3.org/2000/svg">
<path d="M6.64968 0H4.34855C1.95068 0 0 1.39322 0 3.10582V28.8941C0 30.6067 1.95068 32 4.34855 32H6.64968C9.04754 32 10.9984 30.6067 10.9984 28.8941V3.10582C10.9982 1.39322 9.0474 0 6.64968 0ZM9.0006 28.894C9.0006 29.8198 7.94585 30.5732 6.64953 30.5732H4.34855C3.05223 30.5732 1.99763 29.8198 1.99763 28.894V3.10582C1.99763 2.17997 3.05223 1.42675 4.34855 1.42675H6.64968C7.94599 1.42675 9.00074 2.17997 9.00074 3.10582V28.894H9.0006Z" fill="white"/>
<path d="M27.6514 0H25.3503C22.9524 0 21.0016 1.39322 21.0016 3.10582V28.8941C21.0016 30.6067 22.9524 32 25.3503 32H27.6514C30.0493 32 32 30.6067 32 28.8941V3.10582C32 1.39322 30.0493 0 27.6514 0ZM30.0023 28.894C30.0023 29.8198 28.9477 30.5732 27.6514 30.5732H25.3503C24.054 30.5732 22.9992 29.8198 22.9992 28.894V3.10582C22.9992 2.17997 24.054 1.42675 25.3503 1.42675H27.6514C28.9477 1.42675 30.0023 2.17997 30.0023 3.10582V28.894Z" fill="white"/>
<ellipse cx="5.5" cy="16" rx="4.5" ry="14" fill="white"/>
<ellipse cx="26.5" cy="16" rx="4.5" ry="14" fill="white"/>
<ellipse cx="5.5" cy="5.5" rx="4.5" ry="5.5" fill="white"/>
<ellipse cx="26.5" cy="5.5" rx="4.5" ry="5.5" fill="white"/>
<ellipse cx="26.5" cy="26.5" rx="4.5" ry="5.5" fill="white"/>
<ellipse cx="5.5" cy="26.5" rx="4.5" ry="5.5" fill="white"/>
</svg>
