<svg width="766" height="533" fill="none" xmlns="http://www.w3.org/2000/svg"><g opacity=".1" clip-path="url(#a)"><path d="M242.809 135.08c34.571-5.361 70.745-2.436 104.677-11.187 45.774-11.518 82.413-42.143 121.572-66.674 39.544-24.139 89.312-42.917 133.711-26.898 59.07 21.228 76.622 89.998 85.435 147.887 9.433 61.65 18.865 123.299 28.279 185.321 5.227 32.716 9.501 68.368-8.874 96.921-23.194 36.147-73.359 46.699-118.377 51.166C410.33 530.289-58.004 526.305 88.965 241.924c28.606-55.648 87.961-96.703 153.844-106.844Z" fill="url(#b)"/></g><g opacity=".1" clip-path="url(#c)"><path d="M214.395 146.89c34.043-8.06 70.335-7.983 103.476-19.371 44.728-15.075 78.85-48.483 115.963-76.012C471.36 24.34 519.5 1.711 565.02 14.195c60.555 16.526 83.451 83.706 96.781 140.723 14.243 60.72 28.487 121.439 42.74 182.53 7.78 32.205 14.839 67.411-1.238 97.319-20.284 37.855-69.466 52.313-113.994 60.3-176.884 32.66-644.086 65.455-519.896-229.586 24.15-57.722 80.099-103.31 144.982-118.591Z" fill="url(#d)"/></g><path fill-rule="evenodd" clip-rule="evenodd" d="M521 160.497s22.74-34.616 58.639-32.34c27.642 1.777 70.694 17.113 72.561 60.749 2.386 49.709-22.005 35.313-17.094 58.458 4.92 23.503 25.381 24.754 22.94 40.931-2.44 16.178-23.89 31.782-22.909 41.782.98 10 16.296 33.587 5.835 44.605-12.544 13.58-26.898 12.884-25.559 22.874 2.668 19.624 19.953 22.749 16.079 25.358-3.873 2.608-61.862 5.212-72.164-18.508-7.635-17.702 6.586-35.622 8.103-46.046 3.025-21.206-21.159-41.336-36.568-54.895-15.419-13.916-7.183-41.347-7.551-55.302-.01-13.964-36.908-26.956-2.312-87.666Z" fill="#1D3542"/><path d="M578.084 137.15c18.208-2.629 58.301 9.205 60.875 52.463 2.518 41.112-25.087 40.766-20.176 63.911 4.92 23.503 25.767 25.818 23.336 42.353-2.44 16.177-21.195 25.266-20.214 35.266.98 10 16.503 27.852 6.052 39.228-12.544 13.579-27.623 12.545-12.42 45.444" stroke="#01080A" stroke-miterlimit="10" stroke-linecap="round" stroke-linejoin="round"/><path d="M651.06 186.43c4.714 42.844-10.893 35.378-5.935 60.312 4.6 24.944 24.005 26.939 21.244 44.557-2.412 17.251-25.351 30.746-24.352 41.462 1 10.716 13.723 31.148-1.035 42.28M570.78 145.578c18.208-2.628 16.475 13.172 58.83 42.85 2.517 41.111-30.45 41.264-25.171 64.758 4.92 23.503 25.767 25.818 23.336 42.353-2.44 16.177-21.195 25.266-20.215 35.266.981 10 16.504 27.852 6.052 39.228-12.543 13.579-27.623 12.545-12.42 45.444" stroke="#01080A" stroke-miterlimit="10" stroke-linecap="round" stroke-linejoin="round"/><path d="M600.544 187.045c4.666 41.055-28.263 42.64-21.919 65.747 5.985 23.117 27.171 24.707 25.447 40.865-1.366 16.149-19.734 26.302-18.395 36.292 1.696 9.982 17.916 27.099 7.833 38.823-11.809 14.277-20.112 11.989-3.137 44.126" stroke="#01080A" stroke-miterlimit="10" stroke-linecap="round" stroke-linejoin="round"/><path d="M567.54 185.768c8.587 40.236-23.532 45.38-15.059 67.715 8.474 22.335 29.603 21.777 29.679 38.247.076 16.469-17.18 28.024-14.408 37.977 2.771 9.953 20.734 25.234 12.111 37.994-10.347 15.312-18.98 14.107 1.519 44.003" stroke="#01080A" stroke-miterlimit="10" stroke-linecap="round" stroke-linejoin="round"/><path d="M103.795 471.204s-25.767 15.002-27.19 15.398c-6.361 3.39-26.501 14.305-48.403 26.341-8.53 2.731-18.152 4.775-16.974 8.683 1.17 3.55 35.305 6.947 44.409-1.171 3.854-3.324 9.48-7.411 14.202-5.029 4.722 2.382 16.899 2.061 21.413-3.429 4.165-5.123.47-9.323 3.194-14.766.349-.367 25.013-16.414 25.361-16.781 4.486-6.564-14.269-11.082-16.012-9.246Zm255.592-38.251s-6.889-3.041-10.348 1.705c-8.152 3.438-8.877 16.706-8.877 16.706s-6.814-.179-10.98 4.944c-1.395 1.469-6.814-.178-5.636 3.73.773 2.128 32.487 8.811 35.437 11.956 2.573 2.438.14-35.453.404-39.041Z" fill="#F4A082"/><path d="M339.807 247.633c-4.995.848-12.78 4.634-17.699 8.344-56.066 21.172-99.35 105.744-123.307 135.021-3.816 4.756-12.581 12.149-16.737 17.629-10.056 12.798-50.071 44.647-83.236 64.499-.707.377 5.721 13.098 10.764 14.039 29.121-10.077 85.018-24.084 113.318-65.292 9.33-13.137 62.173-47.831 93.028-73.709 6.013-3.023 22.76 6.919 22.289 16.241 5.807 29.925 13.048 127.845 23.01 138.683 9.962 10.837 16.795 11.731 22.054 7.296 15.616-5.783 27.997-107.085 20.418-163.46 2.619-9.379 9.245-16.357 8.764-21 0 0-74.315-72.877-72.666-78.291Z" fill="#1F5148"/><path d="M330.954 250.725s28.978 64.315 79.032 82.344" stroke="#1D4941" stroke-width="1.5" stroke-miterlimit="10"/><path d="M326.325 253.192s25.037 70.575 81.694 83.153" stroke="#1D4941" stroke-width="1.5" stroke-miterlimit="10"/><path d="M546.523 190.619c-7.464 2.345-31.515 14.437-32.335 10.52-.396-1.422.527-7.175.122-8.955-3.563-12.796 22.41-47.14 12.411-45.802-11.423 1.734-95.168 46.91-101.539 49.943-3.534 1.883-29.885 21.914-52.088 36.106-9.868 6.348-24.428 11.386-35.059 15.964 20.462 42.07 72.025 81.173 74.437 77.528 7.219-11.648 25.559-36.481 49.167-38.177 3.6.621 30.809-.455 37.18-3.487 6.371-3.033 43.419 15.684 42.891-4.354-.529-20.038-18.709-43.549-14.487-46.525 4.222-2.976 15.541-8.646 27.151-16.829 11.272-7.459-.387-28.278-7.851-25.932Z" fill="#F4A082"/><path opacity=".6" d="M549.388 217.756c-5.306 2.647-16.898-2.06-21.045-9.829-4.147-7.768-.76-9.878 4.47-11.775 5.306-2.646 10.109-6.155 14.256 1.614 4.157 8.126 7.625 17.344 2.319 19.99Z" fill="#DB8C70"/><path d="M432.468 214.394c-11.706-9.001 27.622-39.758 55.932-67.002 15.381-14.728 56.424-34.788 91.728-41.448 12.817-3.203 68.328-18.273 126.148-.104 0 0 .886 6.422-5.608 4.803-6.484-1.262-94.424 7.145-115.337 15.932-10.998 4.228-44.785 14.071-62.314 28.856-17.529 14.785-31.853 55.983-59.336 46.682-28.208-9.641-34.748 14.165-31.213 12.281Z" fill="#F4A082"/><path d="M687.917 102.744c11.337-4.954 23.033-9.917 28.782-9.353 8.256.498 16.549 2.428 22.393 6.571 5.834 3.785 17.483 10.639 16.436 11.741-1.046 1.102-30.761 2.243-30.761 2.243s-10.056-.809-7.841 1.639c2.215 2.449 13.628.357 13.779 6.082 0 0-9.321-.112-12.912-.375-3.591-.264-25.512-2.55-33.307-12.729.358-.009-.82-3.917 3.431-5.819ZM536.68 388.175c3.017 5.649 21.829 53.134 25.205 99.594 6.088-.16 10.499 4.021 16.597 4.218-12.649-17.57-.229-63.015-20.898-112.957-9.18-21.959-10.539-87.092-11.812-94.578-2.865-13.531-2.866-27.137-15.241-34.33-12.374-7.194-45.152 13.723-43.644 30.154 0 0 25.965-7.488 24.9 6.505.085 3.22 21.877 95.744 24.893 101.394Z" fill="#F4A082"/><path d="M600.903 499.632s-16.917-2.776-19.829-4.49c-2.922-2.071-8.671-16.243-8.728-18.389l-8.982-.838c-6.54 10.199-2.742 18.334-7.265 23.466-2.092 2.204-6.644 6.263-4.467 7.28 3.261 1.346 6.107.555 8.897-2.384 2.789-2.938 6.992-6.629 8.868-3.456 1.517 3.183 3.742 5.989 8.058 6.591 4.317.602 37.981-.286 37.566-2.423-.773-2.128-14.118-5.357-14.118-5.357ZM562.6 161.549s2.658-7.948-4.071-4.906c-14.165 6.461-11.762 16.066-11.733 17.139.038 1.431 15.804-12.233 15.804-12.233Zm28.71 55.819s7.945 2.297 1.593 6.045c-13.411 7.873-19.688.877-20.791-.168-.735-.697 19.198-5.877 19.198-5.877Z" fill="#F4A082"/><path fill-rule="evenodd" clip-rule="evenodd" d="M576.398 154.741c-4.967 1.921-11.357 4.238-17.002 7.61-28.273 15.068-27.01 35.803-19.818 50.294 9.123 19.811 40.903 15.393 55.331 5.344 9.151-6.328 12.997-10.01 17.492-16.216 9.876-19.596-.622-10.01-36.003-47.032Z" fill="#F4A082"/><path d="M378.032 229.437c18.35 2.739 57.444 44.677 53.892 73.058 0 0 25.795-13.929 27.953-13.628 1.432-.038 2.874.283 3.949.254 26.681 6.1 40.751-3.939 45.2-11.934 4.448-7.995 15.663-17.6 20.563-22.026 4.91-4.069 5.523-8.023 5.523-8.023l-3.629-1.695s-20.582 21.311-24.569 19.625c-3.977-1.327-32.393-18.839-35.729-23.048-2.978-4.218 6.756-42.789 13.504-45.115 6.748-2.326 25.701-3.9 30.762-2.243 1.451.677 1.309-4.69-.123-4.652-1.8-.311-32.995-.92-53.522-4.676-6.126-1.271-2.969-3.86-13.713-3.577-11.432 1.376-70.08 46.965-70.061 47.68Z" fill="#FFD2B9"/><path d="M585.465 186.011c-6.314 5.18-14.127 7.892-15.918 7.939-2.516-.291-2.62-4.228-4.024-3.116-3.515 2.599-1.234 7.552 1.31 8.917" stroke="#EFAFA3" stroke-width="1.38" stroke-miterlimit="10" stroke-linecap="round" stroke-linejoin="round"/><path opacity=".69" d="M576.634 163.686c1.828 1.384 4.797 5.245 5.259 9.171" stroke="#682C1A" stroke-width="1.31" stroke-miterlimit="10" stroke-linecap="round" stroke-linejoin="round"/><path d="M571.668 179.213c-3.233-.273-6.598-5.555-5.26-9.171m21.131 40.263c-3.232-.272-6.597-5.555-5.259-9.171" stroke="#49241B" stroke-miterlimit="10" stroke-linecap="round" stroke-linejoin="round"/><path opacity=".69" d="M597.416 204.315c-.066-2.504-1.979-7.109-4.562-9.905" stroke="#682C1A" stroke-width="1.31" stroke-miterlimit="10" stroke-linecap="round" stroke-linejoin="round"/><path d="M555.542 192.888c-1.036 1.46-.791 10.763 7.154 13.06" stroke="#BC4926" stroke-width="1.45" stroke-miterlimit="10" stroke-linecap="round" stroke-linejoin="round"/><path opacity=".24" fill-rule="evenodd" clip-rule="evenodd" d="M559.991 184.892c-3.223.085-6.192-3.775-6.664-8.06-.48-4.642 1.942-7.929 5.165-8.014 3.223-.085 6.192 3.776 6.663 8.06.113 4.294-1.941 7.929-5.164 8.014Zm11.734 23.682c-1.357 2.9.188 7.156 3.845 9.925 3.648 2.41 7.945 2.296 9.302-.604 1.357-2.9-.189-7.156-3.845-9.924-3.648-2.411-7.945-2.297-9.302.603Z" fill="#ED5851"/><path opacity=".6" d="M375.244 286.801c-1.404 1.111-3.195 1.158-3.93.461-.735-.697.292-2.514 1.696-3.625 1.404-1.111 3.195-1.159 3.93-.462.735.697.066 2.505-1.696 3.626Z" fill="#DB8C70"/><path d="M587.924 143.336c10.404.442 34.051 13.783 42.515 35.76" stroke="#01080A" stroke-miterlimit="10" stroke-linecap="round" stroke-linejoin="round"/><path opacity=".56" d="M606.824 512.499c.047 1.902-123.119 6.591-275.218 10.409-152.097 3.818-275.34 5.389-275.39 3.411-.048-1.902 123.118-6.591 275.215-10.409 152.099-3.818 275.345-5.313 275.393-3.411Z" fill="#000" fill-opacity=".2"/><path opacity=".5" d="M91.036 82.712c.007.711-.027 1.439-.02 2.15-.014 2.05.07 4.109.155 6.167.085 2.058.268 4.124.532 6.156.247 1.991.593 3.99.881 5.965.503 3.075.867 6.161 1.451 9.203.181 1.019.346 1.998.55 2.961.17.644.479 1.278.73 1.889.083.203.231.332.38.462.205.153.564.101.66-.129.055-.213.168-.402.166-.639a7.542 7.542 0 0 0-.066-.972c-.515-3.451-.989-6.919-1.503-10.371a65.098 65.098 0 0 1-.622-7.879c-.038-3.219-.019-6.414.156-9.578.07-1.218.083-2.46.112-3.661.085-1.415.112-2.853.197-4.268.105-2.754.521-5.446.994-8.115.063-.31.125-.622.106-.9.066-.882-.546-1.677-1.389-1.76-.859-.122-1.582.318-1.901 1.162-.137.247-.158.541-.22.852-.352 1.81-.915 3.563-1.594 5.27-.599 1.435-1.174 2.813-1.79 4.208-.12.287-.28.59-.442.894-.963 1.824-1.754 3.718-2.488 5.637a7.122 7.122 0 0 0-.413 2.12 6.058 6.058 0 0 0 .725 3.27c.117.285.3.496.562.673.149.13.426.11.572.003.146-.108.235-.24.209-.419-.02-.277-.096-.579-.155-.84-.248-1.182-.26-2.367.139-3.482.367-.96.75-1.878 1.232-2.79.56-1.182 1.196-2.299 1.814-3.457.024-.057.105-.09.187-.124.05.122.1.244.093.342Zm53.077 14.676 1.058-.435c1.774-.777 3.615-1.39 5.231-2.435l.122-.05c1.357-.749 2.617-1.504 3.759-2.544.486-.438 1.013-.892 1.483-1.37.234-.24.469-.479.646-.742.194-.222.274-.493.319-.844.082-.843-.82-1.186-1.373-.91-.203.083-.349.19-.536.315-.625.447-1.25.894-1.851 1.283-.764.457-1.578.791-2.291 1.37-.527.455-1.128.844-1.696 1.315-1.532 1.249-3.223 2.229-5.004 3.103-1.391.667-2.732 1.456-4.197 2.058a.977.977 0 0 0-.309.174c-.471.242-.902.466-1.333.691-.35.191-.699.382-1.008.557-.391.208-.74.4-1.13.607-.268.158-.594.292-.862.45a88.685 88.685 0 0 0-2.967 1.694c-1.235.698-2.454 1.437-3.532 2.403-.129.148-.316.272-.502.397 0 0-.082.033-.099-.007a.336.336 0 0 1-.148-.13c.012-.433.065-.883.094-1.275.061-1.357.22-2.707.24-4.047.057-1.831.096-3.703.014-5.524-.092-1.96-.167-3.88-.283-5.782-.375-4.27-.75-8.54-.807-12.846-.027-2.843-.013-5.703.279-8.582.06-.548.103-1.136.188-1.742.005-.335.067-.646.031-.964.015-.197-.052-.36-.119-.522-.076-.302-.478-.47-.821-.377-.244.1-.471.242-.567.471-.161.304-.28.591-.384.92a25.441 25.441 0 0 0-.949 5.099 55.823 55.823 0 0 0-.325 6.27c-.022 3.767.038 7.5.236 11.225.086 1.249.13 2.515.175 3.781.065 1.78.107 3.619.132 5.416.084 2.867.145 5.792.245 8.7.002 1.046.044 2.075.103 3.145-.021.294-.002.572.115.857.093.342.373.56.724.606a.666.666 0 0 0 .757-.359c.137-.246.256-.533.336-.804.388-1.254 1.073-2.249 2.046-3.124.251-.198.486-.438.778-.653a31.369 31.369 0 0 1 4.99-2.906c.773-.318 1.546-.636 2.303-.994.325-.134.668-.227.919-.426.642-.406 1.334-.69 2.025-.975l3.745-1.538Zm-3.719-4.561c.576 1.285 1.444 2.356 2.563 3.228.651.541 1.38.812 2.206.853.67.01 1.364-.037 1.965-.427.544-.413 1.111-.884 1.547-1.444a15.734 15.734 0 0 0 1.85-3.139c.561-1.181.909-2.419 1.297-3.672a45.056 45.056 0 0 0 1.362-6.411c.168-1.21.337-2.422.407-3.64.063-1.12.069-2.264.034-3.391-.149-3.602-.68-7.094-2.19-10.422l-.134-.326c-.568-1.383-1.405-2.61-2.347-3.745-.852-1.03-1.938-1.82-3.289-2.216-1.271-.429-2.537-.384-3.749.256-.821.433-1.534 1.011-2.107 1.818-1.121 1.554-1.587 3.316-1.626 5.187-.081 1.888.256 3.748.853 5.548.126.424.195.824.085 1.25-.055.213-.07.409-.125.622-.492 2.39-.788 4.795-.97 7.248-.099 1.611-.043 3.253.112 4.902.257 2.13.595 4.227 1.553 6.212l.703 1.709Zm.612-26.986.048-.115c-.422-1.492-.141-2.891.549-4.221.537-1.125 1.528-1.723 2.687-1.913.816-.098 1.594.058 2.268.542.732.508 1.399 1.09 1.937 1.82.72.942 1.358 1.916 1.769 3.032l.101.244c1.175 2.514 1.748 5.18 1.961 7.9.202 2.342.208 4.671-.105 7.035-.205 1.702-.45 3.42-.851 5.107-.392 1.826-.938 3.62-1.698 5.36-.408.976-.93 1.904-1.527 2.768-.307.411-.63.782-1.027 1.088a8.582 8.582 0 0 1-.903.466c-.505.16-1.012.083-1.424-.224-.749-.548-1.246-1.295-1.621-2.093a18.763 18.763 0 0 1-1.065-2.94c-.449-1.67-.678-3.384-.808-5.09-.194-2.442-.095-4.861.185-7.307.014-.196.069-.41.125-.622l.096-.23c.122-.05.212.055.287.12.356.52.753 1.023 1.109 1.542.837 1.226 1.731 2.476 2.755 3.578.33.34.66.68 1.014.962.165.17.394.266.624.362.23.096.507.077.751-.023.407-.167.673-.562.588-1.002-.144-.465-.311-.872-.6-1.229-.498-.747-1.019-1.436-1.516-2.183-.961-1.413-1.963-2.81-2.819-4.313-.581-.95-.917-2.001-1.359-2.961-.117-.285-.096-.58-.033-.89.12-1.097.257-2.152.378-3.248a9.645 9.645 0 0 0-.004-1.283c-.047-.694-.94-.898-1.345-.494-.146.108-.333.232-.479.34l-.048.115Zm35.674-24.364-.719-1.75c-.175-.309-.268-.651-.466-.903a2.16 2.16 0 0 0-.603-.656.744.744 0 0 0-.826-.041c-.284.117-.388.445-.369.722.003.237.062.498.163.743.444 1.197.701 2.518 1.186 3.698.084.203.127.424.17.644.076.302.21.627.286.929.144.464.229.904.373 1.369.286.929.369 1.941.55 2.96.601 3.084.803 6.236.628 9.4a46.86 46.86 0 0 1-1.085 7.2c-.501 2.252-1.233 4.408-2.038 6.499-.823 2.05-1.834 3.988-2.862 5.886-.571 1.042-1.198 2.062-1.974 2.951-.218.28-.477.577-.752.833a2.613 2.613 0 0 1-.537.315c-.309.175-.629-.027-.665-.345a3.107 3.107 0 0 1-.014-.613c.104-1.945.226-3.85.33-5.796.085-1.414.112-2.853.197-4.267.015-1.005.071-2.027.045-3.015-.008-2.566-.016-5.132-.064-7.68-.027-2.844-.077-5.63-.382-8.454-.035-.318-.088-.677-.123-.996-.07-.4-.481-.706-.89-.776-.393-.029-.783.18-.927.524-.144.344-.263.631-.309.983-.116.761-.255 1.58-.313 2.365-.141 2.436-.24 4.855-.381 7.292-.007.098-.014.196-.038.253-.045 2.207-.114 4.47-.158 6.677-.062 2.166-.14 4.291-.12 6.424.054 2.214.165 4.452.733 6.644.203.726.535 1.303 1.006 1.87a1.656 1.656 0 0 0 1.818.49c.489-.201.92-.426 1.267-.854.388-.445.858-.923 1.212-1.45.613-.822 1.152-1.71 1.732-2.614a29.743 29.743 0 0 0 1.841-3.278c.666-1.272 1.349-2.504 1.9-3.825a65.401 65.401 0 0 0 1.54-4.01c.477-1.385.93-2.713 1.269-4.09.772-2.98 1.332-6.017 1.361-9.074-.001-1.854-.141-3.7-.518-5.543-.179-.783-.334-1.623-.652-2.396-.334-.814-.669-1.628-.84-2.509-.036-.318-.194-.586-.294-.83-.227-.668-.519-1.262-.77-1.873l.082-.033Zm17.24 11.658c-1.452 1.215-2.68 2.624-3.653 4.308-1.206 2.16-1.772 4.486-1.683 7.018.078 1.348.458 2.619 1.057 3.847.849 1.602 2.311 2.38 4.034 2.291 1.07-.06 2.08-.38 2.99-.943 1.08-.73 2.143-1.5 3.041-2.44.477-.576 1.028-1.087 1.487-1.705.508-.731 1.033-1.423 1.541-2.155.951-1.39 1.919-2.739 2.853-4.17.29-.451.506-.968.738-1.444.072-.173.063-.311.037-.49.007-.099-.125-.188-.199-.252-.074-.065-.213-.056-.237.002-.17.165-.38.347-.534.552-.774 1.127-1.588 2.27-2.362 3.397a32.594 32.594 0 0 1-4.494 5.272c-1.077.966-2.222 1.77-3.598 2.24a3.228 3.228 0 0 1-1.625.097c-.41-.07-.689-.288-.921-.62-.165-.17-.232-.334-.316-.537-.375-.797-.628-1.645-.661-2.535-.119-1.33-.041-2.647.405-3.877.676-1.943 1.525-3.814 2.751-5.46.896-1.176 1.859-2.19 3.135-2.905.122-.05.244-.1.35-.191a.505.505 0 0 0 .151-.443c.014-.196-.184-.448-.38-.462-.237.002-.491-.036-.728-.034-.237.002-.498.062-.768-.018a2.641 2.641 0 0 1-1.737-1.331c-.456-.764-.791-1.578-.922-2.476-.202-1.534-.086-3.104.283-4.635a21.74 21.74 0 0 1 1.538-4.247c.697-1.429 1.641-2.72 2.956-3.689.818-.67 1.714-1.037 2.7-1.3.962-.205 1.773.033 2.41.77.346.381.652.779.836 1.226.517 1.025.789 2.15.962 3.268.027.18.07.4.153.603.034.081.165.17.28.218.115.048.359-.052.407-.167.048-.115.137-.247.144-.345.07-.409.115-.76.104-1.136-.05-.931-.198-1.87-.549-2.724a6.682 6.682 0 0 0-1.905-2.785c-.981-.882-2.177-1.246-3.467-1.144-1.152.092-2.226.486-3.234 1.043-1.894 1.064-3.293 2.638-4.371 4.413-.7 1.191-1.261 2.373-1.616 3.708-.648 2.36-.822 4.714-.326 7.08.368 1.704 1.278 2.994 2.685 3.986.222.194.469.33.732.508.074.065.084.203.134.326-.211.181-.381.346-.608.487Zm-87.536 78.312.27.787-1.151.473.135.393.384-.157 7.158-3.391 1.536-.631.135.393-.475 1.093.519.235.293.777c.5 1.344.401 2.281-.295 2.814l.834 1.003.022 1.337-.519-.235-.384.158c-3.509 1.653-5.203 2.648-5.081 2.985l-.542-.226c-4.096 2.493-5.791 4.685-5.084 6.577l1.149 3.117 8.92-4.563.542.226.135.393-1.919.789.135.393c1.28-.526 2.009-.526 2.19-.002l.157.384c.481 1.298.466 2.052-.046 2.262l-2.304.947.135.393 2.688-1.104.293.777c.164.443-2.705 2.669-8.606 6.677l1.193 4.446.542.226.157.384-.248.551.135.393.812 1.012-.384.158.812 1.013c.536 1.047.457 3.402-.237 7.066l-3.229.878-1.058-4.053c-.979.402-1.663.129-2.053-.819l-.046-.113c.125-.808-1.066-5.035-3.574-12.679l.768-.316-.519-.235-.766-3.275.52.235.383-.158-1.035-4.061-.563-1.564c-1.28.526-2.025.533-2.235.021l.34-1.485c-1.024.42-1.671.237-1.942-.549-.871-2.334-.923-3.659-.155-3.975 1.28-.525 1.68-1.437 1.198-2.736l.384-.157.52.235.497-1.102 1.151-.473 1.58.697 5.828-4.639Zm1.85 1.484.135.393 1.152-.473 4.088-2.129-.158-.384-2.304.947-2.913 1.646Zm-1.878 5.707.158.384.384-.158 7.362-3.922-.135-.394-1.287.081-.249.55-.383.158-.519-.235-5.331 3.536Zm-3.874 19.541 1.577 4.288.384-.158-1.577-4.288-.384.158Zm5.065 10.72.563 1.564.384-.158-.563-1.564-.384.158Zm14.966-42.522c.255.792.895.978 1.918.558l1.331 1.248-.248.551.384-.158c.39 6.174 1.845 12.905 4.365 20.193l.811 2.359.541.226.136.393-.249.551.384-.157-.249.55 1.33 2.595.271.786c-.69 2.219-.879 3.793-.568 4.721l-1.536.631-2.167-.007-.562-2.91-2.099-.932-1.666-6.047-2.456-7.067.362-1.495-.54-1.573-.52-.235-.135-.394.768-.315-.135-.393-.519-.236-1.439-7.934-.384.158.249-.551-.834-2.35-.519-.235-.135-.393 4.11-2.138Zm-1.406 8.654.969 2.743.384-.157-.969-2.743-.384.157Zm.99 4.081.811 2.359.384-.158-.811-2.359-.384.158Zm.833 3.696.834 2.35.384-.158-.834-2.35-.384.158Zm6.242 15.383.676 1.966.475-1.092-.383-1.189-.768.315Zm18.628-43.182 1.309-.089.316.768-1.152.473 1.241.836c-.031 1.508-1.816 2.99-5.353 4.443l-2.53 1.489.09 1.309.383-.158c-.019 2.137 1.811 10.958 5.49 26.462l3.202 4.518-.384.157c-.572.235-1.609-.834-3.113-3.208l-1.193-3.996-.158-.384-.384.158.316.767c-.768.316-1.047.73-.837 1.241l.158.384 3.292 5.827.158.384-.768.315-2.009-.52-.226.541-.384.158c-1.933-1.792-3.234-3.501-3.902-5.127l.542.226.384-.158-1.872-2.371.994-.858-.789-1.919-.768.315-.158-.383c.768-.316 1.047-.73.837-1.242l-.158-.383-.768.315c-.841-2.047-.878-3.229-.11-3.544l-2.051-4.991c.258-.528-.334-3.426-1.777-8.693l-2.53 1.489-5.532 1.824-.158-.384 1.762-1.172.158.384.226-.542 5.758-2.366-.473-1.152-5.827 3.292-.541-.226-.384.157-2.146 1.331-1.467-.295-.405-2.077-.542-.226c-.525-1.28.747-2.55 3.818-3.812l20.415-9.287Zm-1.83 2.098.158.384 1.535-.631-.158-.384-1.535.631Zm-5.37 27.335 2.703 8.761.768-.315-1.173-1.762-.316-.768.295-1.467-.384.158.226-.542-.158-.384-.541-.226-.158-.384.137-1.851-1.015-1.378-.384.158Zm12.71-30.668 3.634 1.199c-.315-.768-.217-1.257.295-1.467l.384-.158 11.053 11.612.316.767-.384.158-1.715-1.988-.383.158.315.768 5.369 5.422.384-.158c-1.711-7.075-3.09-14.629-4.139-22.662l1.467.295.994-.857 2.777.205.157.384c-.767.315-.941.985-.52 2.009l.384-.158.541.226.384-.158-.405-2.077.768-.316.158.384-.226.542.541.226.158.384c.504 6.708 2.259 15.903 5.264 27.584l-.767.315-1.757-6.457c-.512.21-.28 2.957.694 8.24-.633 1.158-1.371 1.91-2.214 2.256l.316.768-.384.158c-.21-.512-.827-.558-1.851-.137l-1.104-2.687c-.477-1.16-5.665-6.506-15.566-16.04l-.384.158c.851 4.982 2.479 11.492 4.885 19.531l-.542-.226c-1.349 1.082-1.854 2.038-1.514 2.866l-.768.315c-.908-.753-1.847-2.311-2.818-4.675l-.384.158 1.419 3.455-.767.315-1.173-1.761c-2.858-6.955-4.793-16.032-5.805-27.23l2.913-1.646Zm-1.43 11.806.158.384.541.226-.226.541.316.768.383-.157-.247-1.694-.541-.226-.384.158Zm17.112.147c.662-.272 1.595.542 2.797 2.441l.158.383-.384.158-2.571-2.982Zm26.675-29.57 2.381.526c.392 2.496-.138 3.99-1.59 4.481l-9.841 4.572.27.786 1.953-.644 2.233-1.181.538.28.393-.135 2.617-1.339.796-.248.135.393-8.54 4.591 1.342 5.256.393-.135 10.089-5.123.506.267.135.394-.795.247.158.384 2.883-.498.135.393c.031 1.659-3.166 4.327-9.591 8.006l-3.806 1.722.519.235.153 5.639-.384.158-1.194-3.548-.393.135 1.445 5.636c7.242-4.173 12.487-6.803 15.735-7.892l2.088-.251.293.778-.787.27.506.267.406 1.18c-.342 1.266-1.741 2.316-4.196 3.149l.135.393 3.155-1.058.247.795-16.785 9.96-.394.135c-1.345.236-2.127.091-2.343-.436l-.028-.068-.405-1.179-.647-4.591-.528-.258.777-.293.653 1.975.403-.113c-.375-1.341-.328-2.082.142-2.223l-.537-.28-1.298-3.928-.795.248.26 2.11.28-.537.394-.136.788 2.369-.402.112-.397-1.157-.393.136.271.786-.394.135-.27-.786-1.444-6.982-.393.135.12-2.214-.529-.258-.135-.393-1.827-6.824.528.258.393-.135-.27-.787-1.047-1.84-.801-3.683-.405-1.179.402-.113.529.258.258-.528.402-.113.519.236.258-.529 1.189-.383 13.379-5.788Zm-12.322 24.675.924 2.762.393-.135-.915-2.739-.402.112Zm12.872-4.709.384-.158.113.403-6.668 3.558-.537-.281-.126-.37 3.413-1.587.135.393 3.286-1.958Zm13.513-26.404c.887.233 3.145-.396 6.773-1.887l.136.394-2.688 1.104.136.393c3.206-1.318 5.524-1.373 6.953-.165l.27.786-1.919.79.135.392 2.822-.71.135.392-2.303.947.135.393c.768-.316 1.242-.211 1.422.313-4.561 1.875-7.95 5.212-10.166 10.011l.136.393c5.497-.71 10.628.621 15.393 3.995l.135.393c.428 3.696-.922 7.84-4.05 12.433l-2.19 1.349.135.394.768-.316c.254.705-1.779 2.438-6.099 5.199l-.271-.787 1.92-.788-.113-.403c-1.641.674-3.492.388-5.553-.859-1.385-.117-2.418-1.004-3.099-2.659a5.669 5.669 0 0 1-.172-.484l.881-1.26 1.422.313.768-.315c6.762-4.099 9.542-7.933 8.339-11.503-3.657-.293-5.975-.238-6.954.165l.135.393-4.402.014.519.235.293.777c-4.156-1.037-6.451-2.188-6.883-3.453l.795-6.609 1.379-2.361.27.786 4.657-8.195Zm-.98 12.517.135.394 5.039-7.007 2.801-2.048-.27-.787-.768.316c-3.431 3.17-5.743 6.214-6.937 9.132Zm8.59 14.868.384-.158.498-1.102-.384.158-.498 1.102Zm6.91-2.84-.859 2.597.384-.158.859-2.597-.384.158Zm-3.547 5.048.157.384.384-.158 1.13-1.811-1.671 1.585Zm-3.254 4.478.135.393 1.535-.631 1.785-1.182-.158-.384-.384.158-2.913 1.646Zm14.546-43.221c.888.233 3.146-.395 6.774-1.886l.135.393-2.687 1.104.135.393c3.207-1.317 5.525-1.372 6.953-.165l.271.787-1.92.789.136.393 2.822-.712.135.394-2.303.946.135.393c.768-.315 1.242-.21 1.422.314-4.562 1.874-7.95 5.21-10.166 10.01l.135.394c5.498-.711 10.629.62 15.394 3.994l.135.393c.427 3.696-.923 7.84-4.05 12.434l-2.191 1.349.135.393.768-.316c.255.705-1.778 2.438-6.099 5.199l-.27-.786 1.919-.789-.112-.403c-1.641.675-3.492.388-5.553-.859-1.386-.117-2.419-1.003-3.099-2.659a5.669 5.669 0 0 1-.172-.484l.881-1.259 1.422.313.768-.316c6.762-4.098 9.541-7.933 8.338-11.503-3.657-.292-5.975-.237-6.953.165l.135.393-4.402.014.519.236.293.777c-4.157-1.037-6.451-2.189-6.883-3.454l.795-6.608 1.379-2.362.27.786 4.656-8.195Zm-.979 12.518.135.393 5.039-7.007 2.801-2.048-.271-.786-.767.315c-3.431 3.17-5.744 6.214-6.937 9.133Zm8.59 14.867.384-.158.497-1.102-.383.158-.498 1.102Zm6.91-2.839-.86 2.596.384-.157.86-2.597-.384.158Zm-3.548 5.047.158.384.384-.158 1.13-1.81-1.672 1.584Zm-3.254 4.478.135.394 1.536-.631 1.784-1.182-.158-.384-.383.157-2.914 1.646Zm-115.639 70.984c1.115-.488 2.09-.56 2.927-.218.836.343 1.53 1.144 2.081 2.402l2.924 6.679-1.757.769-2.932-6.697c-.353-.808-.786-1.294-1.298-1.458-.508-.173-1.117-.104-1.824.205-.451.198-.803.468-1.056.81-.256.336-.41.709-.461 1.119-.046.408-.001.825.133 1.252l2.948 6.735-1.756.769-2.928-6.688c-.644-1.472-1.69-1.891-3.136-1.258-.582.255-1.008.594-1.278 1.018a2.6 2.6 0 0 0-.413 1.435l3.265 7.458-1.757.769-4.449-10.163 1.663-.728.537 1.074a3.81 3.81 0 0 1 .862-1.508c.403-.445.926-.808 1.571-1.091.67-.293 1.315-.415 1.934-.365a2.773 2.773 0 0 1 1.676.71 4.097 4.097 0 0 1 .825-1.771c.425-.529.991-.949 1.699-1.259Zm17.341 2.102c.156.357.349.713.579 1.068.227.348.455.629.683.843l.065.15-1.831.802c-.214-.198-.45-.516-.709-.955a4.457 4.457 0 0 1-.869 1.467c-.39.439-.879.787-1.468 1.045-.676.296-1.335.428-1.976.395a3.34 3.34 0 0 1-1.689-.559 3.107 3.107 0 0 1-1.089-1.337c-.315-.72-.398-1.411-.247-2.074.156-.666.521-1.273 1.094-1.822.576-.559 1.331-1.042 2.264-1.45l1.709-.749-.353-.808c-.272-.62-.669-1.024-1.192-1.213-.519-.198-1.123-.146-1.812.155a2.96 2.96 0 0 0-1.029.719c-.269.29-.442.601-.52.933a1.43 1.43 0 0 0 .077.918l-1.757.769c-.216-.495-.257-1.048-.122-1.659.136-.612.447-1.196.935-1.752.485-.563 1.121-1.018 1.911-1.363.751-.329 1.465-.488 2.141-.478a3.173 3.173 0 0 1 1.835.562c.542.367.974.92 1.298 1.659l2.072 4.734Zm-3.954 2.806a3.235 3.235 0 0 0 1.027-.696 3.24 3.24 0 0 0 .655-.958c.149-.342.23-.676.244-1.003l-.921-2.104-1.428.625c-1.002.439-1.699.934-2.091 1.487-.396.546-.458 1.129-.186 1.749.145.332.351.596.616.794.265.197.576.311.933.341.354.024.737-.054 1.151-.235Zm8.449-7.751-.596 1.604 1.571 3.589-1.757.768-6.316-14.428 1.757-.769 3.816 8.717.449-1.506 1.669-4.727 2.132-.933-2.1 5.968 7.019 3.99-2.066.905-5.578-3.178Zm15.154-6.499-6.876 3.01a4.652 4.652 0 0 0 1.147 1.546c.469.406.992.663 1.568.769.58.097 1.17.014 1.771-.25.589-.257 1.044-.598 1.366-1.023.328-.427.563-.937.707-1.529l1.423.362a4.879 4.879 0 0 1-.882 2.076c-.467.637-1.164 1.159-2.091 1.564-.927.406-1.836.554-2.727.444a4.686 4.686 0 0 1-2.409-1.027c-.708-.578-1.269-1.34-1.683-2.286l-.177-.403c-.463-1.059-.661-2.073-.593-3.043.065-.976.344-1.822.837-2.538a4.484 4.484 0 0 1 1.913-1.587c.946-.414 1.822-.544 2.628-.389.81.145 1.528.525 2.155 1.138.627.614 1.154 1.409 1.582 2.386l.341.78Zm-2.431-.772c-.398-.773-.905-1.342-1.52-1.708-.611-.374-1.324-.382-2.138-.026a2.491 2.491 0 0 0-1.42 1.539c-.241.71-.217 1.558.073 2.543l5.063-2.216-.058-.132Zm8.11-1.547c-1.318.279-2.386.329-3.204.149-.811-.182-1.39-.671-1.738-1.466a2.777 2.777 0 0 1-.18-1.69c.115-.588.399-1.141.851-1.66.458-.521 1.057-.944 1.796-1.267.789-.346 1.539-.506 2.251-.482.712.024 1.327.21 1.845.558a3.1 3.1 0 0 1 1.169 1.391l-1.756.769a1.7 1.7 0 0 0-.62-.725 2.04 2.04 0 0 0-1.03-.333c-.396-.035-.81.042-1.242.231-.457.2-.805.438-1.042.713-.241.27-.382.552-.425.846a1.51 1.51 0 0 0 .114.824c.118.269.28.467.484.594.209.117.51.176.905.174.401-.004.948-.075 1.641-.214.937-.179 1.729-.253 2.376-.223.648.03 1.183.179 1.607.449.431.267.765.673 1.003 1.218.258.588.324 1.182.199 1.782-.128.593-.434 1.149-.916 1.666-.486.511-1.12.938-1.902 1.28-.865.379-1.68.553-2.447.523-.763-.039-1.419-.241-1.966-.606a3.22 3.22 0 0 1-1.2-1.411l1.756-.769c.223.44.516.752.88.936.361.178.745.252 1.15.224a3.687 3.687 0 0 0 1.21-.306c.457-.2.821-.434 1.092-.701.274-.277.448-.562.521-.855.07-.3.044-.591-.08-.872a1.57 1.57 0 0 0-.499-.655c-.209-.154-.521-.245-.936-.273-.415-.027-.971.033-1.667.181Zm19.383-15.503c1.115-.488 2.09-.561 2.927-.218.836.343 1.53 1.143 2.081 2.402l2.924 6.679-1.757.769-2.932-6.698c-.353-.808-.786-1.293-1.298-1.457-.509-.173-1.117-.105-1.824.205-.451.197-.803.467-1.056.809-.256.336-.41.709-.462 1.12-.045.408 0 .825.134 1.251l2.948 6.735-1.756.769-2.928-6.688c-.644-1.471-1.69-1.891-3.136-1.257-.583.255-1.009.594-1.278 1.018a2.6 2.6 0 0 0-.413 1.435l3.265 7.458-1.757.769-4.449-10.164 1.663-.728.537 1.075c.17-.567.457-1.07.862-1.508.403-.445.926-.809 1.571-1.091.67-.293 1.315-.415 1.934-.365a2.773 2.773 0 0 1 1.676.71 4.097 4.097 0 0 1 .825-1.771c.425-.53.991-.949 1.699-1.259Zm16.738-.477-6.876 3.01c.296.624.678 1.14 1.147 1.546.469.407.992.663 1.568.769.58.097 1.17.014 1.771-.249.589-.258 1.044-.599 1.366-1.023.328-.428.563-.937.707-1.53l1.423.362a4.873 4.873 0 0 1-.882 2.076c-.467.637-1.164 1.159-2.091 1.565-.927.405-1.836.553-2.727.444a4.696 4.696 0 0 1-2.409-1.028c-.708-.578-1.269-1.34-1.683-2.285l-.177-.404c-.463-1.058-.661-2.073-.593-3.043.065-.976.344-1.822.837-2.537a4.48 4.48 0 0 1 1.913-1.588c.946-.414 1.822-.544 2.628-.389.81.145 1.528.525 2.155 1.138.627.614 1.154 1.409 1.582 2.386l.341.78Zm-2.431-.772c-.398-.773-.905-1.342-1.52-1.707-.611-.374-1.324-.383-2.138-.027a2.491 2.491 0 0 0-1.42 1.539c-.241.71-.217 1.558.073 2.543l5.063-2.216-.058-.132Zm11.459-10.031c2.173-.951 3.798-.196 4.875 2.265l2.916 6.66-1.757.769-2.924-6.679c-.339-.776-.755-1.266-1.247-1.468-.485-.206-1.066-.16-1.743.136a2.755 2.755 0 0 0-1.262 1.078 3.413 3.413 0 0 0-.497 1.628l3.183 7.271-1.756.768-6.317-14.428 1.757-.769 2.393 5.467a4.135 4.135 0 0 1 .867-1.599 4.14 4.14 0 0 1 1.512-1.099Zm17.162 2.181c.156.357.35.712.579 1.067.227.348.455.629.683.843l.066.15-1.832.802c-.213-.197-.45-.516-.709-.954a4.453 4.453 0 0 1-.869 1.466c-.39.439-.879.788-1.468 1.045-.676.296-1.335.428-1.976.395a3.331 3.331 0 0 1-1.689-.559 3.104 3.104 0 0 1-1.089-1.336c-.315-.721-.397-1.412-.247-2.075.156-.665.521-1.273 1.094-1.822.576-.558 1.331-1.042 2.264-1.45l1.71-.748-.354-.808c-.271-.62-.669-1.025-1.192-1.214-.519-.198-1.123-.146-1.812.156-.42.183-.762.423-1.029.719-.268.289-.442.6-.52.933-.075.323-.049.629.077.917l-1.757.769c-.216-.494-.257-1.047-.121-1.659.135-.611.446-1.195.934-1.752.485-.563 1.122-1.017 1.911-1.363.751-.329 1.465-.488 2.141-.478a3.173 3.173 0 0 1 1.835.562c.542.367.974.921 1.298 1.66l2.072 4.734Zm-3.954 2.805a3.235 3.235 0 0 0 1.027-.696 3.24 3.24 0 0 0 .655-.958c.149-.341.231-.675.244-1.002l-.921-2.104-1.428.625c-1.002.438-1.699.934-2.091 1.486-.395.546-.457 1.129-.186 1.749.145.332.351.597.616.794.266.197.577.311.933.342.354.024.738-.055 1.151-.236Zm7.758-14.164c.839-.367 1.65-.465 2.434-.293.782.165 1.497.572 2.147 1.221.646.642 1.197 1.483 1.652 2.522l.087.197c.436.996.668 1.954.698 2.874.033.911-.151 1.718-.551 2.424-.397.696-1.005 1.223-1.826 1.582-1.227.538-2.364.573-3.412.106l2.138 4.885-1.756.769-6.16-14.072 1.597-.699.579 1.068c.329-1.174 1.12-2.035 2.373-2.584Zm4.477 4.219c-.307-.701-.683-1.287-1.127-1.756-.441-.479-.941-.794-1.499-.945-.553-.153-1.133-.097-1.74.169-.551.241-.966.572-1.245.992a3.067 3.067 0 0 0-.491 1.435l2.143 4.894c.922.693 1.913.808 2.971.345.601-.264 1.033-.65 1.295-1.16.259-.517.362-1.099.309-1.748-.046-.651-.223-1.327-.53-2.029l-.086-.197Zm6.325-8.948c.839-.367 1.65-.465 2.435-.293.781.165 1.496.572 2.146 1.221.647.642 1.198 1.483 1.653 2.522l.086.198c.436.995.669 1.953.698 2.873.033.911-.15 1.719-.551 2.424-.396.696-1.005 1.223-1.825 1.582-1.228.538-2.365.573-3.413.106l2.139 4.885-1.757.769-6.16-14.071 1.597-.699.579 1.067c.329-1.174 1.12-2.035 2.373-2.584Zm4.477 4.219c-.307-.701-.683-1.287-1.127-1.756-.441-.479-.941-.794-1.499-.945-.553-.153-1.132-.097-1.74.169-.551.241-.966.572-1.244.992a3.057 3.057 0 0 0-.492 1.435l2.143 4.894c.923.693 1.913.808 2.971.345.602-.263 1.033-.65 1.295-1.16.259-.516.362-1.099.309-1.748-.046-.651-.223-1.327-.53-2.029l-.086-.197Zm9.329-10.038 1.059 13.516a5.559 5.559 0 0 1-.313 2.253c-.247.713-.778 1.247-1.592 1.604a3.428 3.428 0 0 1-.541.169 3.99 3.99 0 0 1-.511.112l-.613-1.4c.074-.017.157-.042.247-.074a1.89 1.89 0 0 0 .243-.084c.595-.261 1.001-.587 1.217-.98.225-.39.305-.94.24-1.65l-.071-1.212-8.026-8.463 1.916-.839 5.848 6.507-.973-8.641 1.87-.818Z" fill="#000"/><defs><linearGradient id="b" x1="65.216" y1="249.605" x2="727.447" y2="282.667" gradientUnits="userSpaceOnUse"><stop stop-color="#1A7F54"/><stop offset="1" stop-color="#7ADBAE"/></linearGradient><linearGradient id="d" x1="46.341" y1="275.002" x2="709.123" y2="255.975" gradientUnits="userSpaceOnUse"><stop stop-color="#1A7F72"/><stop offset="1" stop-color="#7ADBAE"/></linearGradient><clipPath id="a"><path fill="#fff" transform="scale(-1 1) rotate(87.142 -38.818 -40.805)" d="M0 0h500v663.434H0z"/></clipPath><clipPath id="c"><path fill="#fff" transform="scale(1 -1) rotate(-88.356 6.6 -32.73)" d="M0 0h500v663.434H0z"/></clipPath></defs></svg>