<svg width="100" height="100" fill="none" xmlns="http://www.w3.org/2000/svg"><path d="m45.703 60.547-28.125 8.017v-10.98l28.125-8.017v10.98Zm-35.937 37.5a7.812 7.812 0 1 0 0-15.625 7.812 7.812 0 0 0 0 15.625ZM37.89 90.03a7.812 7.812 0 1 0 0-15.625 7.812 7.812 0 0 0 0 15.625Zm39.765-71.22 20.392-5.877V1.953L77.655 7.83v10.98Zm-7.813 29.483a7.812 7.812 0 1 0 0-15.625 7.812 7.812 0 0 0 0 15.625Z" fill="#CAE0DD"/><path d="m76.707 82.912-9.344 4.912 1.784-10.405-7.56-7.369 10.448-1.518 4.672-9.467 4.673 9.467 10.447 1.518-7.56 7.37 1.785 10.404-9.345-4.912ZM14.681 21.547l-7.678 4.037 1.467-8.55-6.212-6.055 8.584-1.247 3.84-7.779 3.838 7.779 8.585 1.247-6.212 6.055 1.466 8.55-7.678-4.037Z" fill="#7ADBAE"/><path d="M45.703 47.614c-.186 0-.365.027-.535.076v-.002l-5.61 1.6a1.953 1.953 0 1 0 1.07 3.756l3.122-.89v6.919l-24.219 6.903v-6.918l4.192-1.195a1.953 1.953 0 0 0-1.07-3.757l-5.61 1.6a1.953 1.953 0 0 0-1.418 1.878v24.843a9.713 9.713 0 0 0-5.86-1.958C4.382 80.469 0 84.849 0 90.234 0 95.62 4.38 100 9.766 100c5.384 0 9.765-4.381 9.765-9.766V70.038l24.219-6.904V74.41a9.715 9.715 0 0 0-5.86-1.958c-5.384 0-9.765 4.38-9.765 9.766 0 5.384 4.381 9.765 9.766 9.765 5.384 0 9.765-4.38 9.765-9.765V49.567a1.953 1.953 0 0 0-1.953-1.953ZM9.766 96.094a5.866 5.866 0 0 1-5.86-5.86c0-3.23 2.629-5.86 5.86-5.86 3.23 0 5.859 2.63 5.859 5.86a5.867 5.867 0 0 1-5.86 5.86Zm28.125-8.017a5.866 5.866 0 0 1-5.86-5.86 5.867 5.867 0 0 1 5.86-5.859 5.867 5.867 0 0 1 5.859 5.86 5.867 5.867 0 0 1-5.86 5.859ZM99.221.393a1.954 1.954 0 0 0-1.715-.316L77.114 5.953A1.953 1.953 0 0 0 75.7 7.83v24.844a9.714 9.714 0 0 0-5.859-1.959c-5.385 0-9.765 4.381-9.765 9.766s4.38 9.766 9.765 9.766c5.385 0 9.766-4.381 9.766-9.766V20.28l18.98-5.47A1.953 1.953 0 0 0 100 12.933V1.953c0-.613-.289-1.191-.779-1.56ZM69.842 46.34a5.866 5.866 0 0 1-5.86-5.86c0-3.23 2.63-5.858 5.86-5.858 3.23 0 5.86 2.628 5.86 5.859 0 3.23-2.63 5.86-5.86 5.86Zm26.252-34.877-16.486 4.751V9.3l16.486-4.751v6.914Zm-3.986 56.654-9.432-1.37L78.46 58.2a1.953 1.953 0 0 0-3.503 0l-4.218 8.546-9.431 1.37a1.954 1.954 0 0 0-1.082 3.332L67.05 78.1l-1.611 9.393a1.954 1.954 0 0 0 2.833 2.06l8.436-4.436 8.436 4.435a1.95 1.95 0 0 0 2.056-.148 1.952 1.952 0 0 0 .777-1.91l-1.61-9.394 6.824-6.653a1.953 1.953 0 0 0-1.082-3.33Zm-9.204 7.903a1.952 1.952 0 0 0-.562 1.729l1.116 6.505-5.842-3.071c-.569-.3-1.249-.3-1.818 0l-5.841 3.07 1.115-6.504a1.952 1.952 0 0 0-.561-1.728l-4.726-4.607 6.53-.95a1.953 1.953 0 0 0 1.471-1.067l2.921-5.919 2.921 5.919c.285.576.834.975 1.47 1.068l6.531.949-4.725 4.606ZM6.371 17.716l-1.293 7.538a1.953 1.953 0 0 0 2.834 2.059l6.769-3.56 6.77 3.56a1.951 1.951 0 0 0 2.056-.15 1.953 1.953 0 0 0 .777-1.91l-1.293-7.537 5.477-5.338a1.953 1.953 0 0 0-1.083-3.332l-7.568-1.1-3.384-6.857a1.953 1.953 0 0 0-3.503 0L9.545 7.947l-7.568 1.1a1.953 1.953 0 0 0-1.082 3.33l5.476 5.339Zm4.752-6.051a1.953 1.953 0 0 0 1.47-1.069l2.088-4.23 2.088 4.23c.284.577.834.976 1.47 1.069l4.668.678-3.377 3.293a1.953 1.953 0 0 0-.562 1.729l.797 4.649-4.175-2.195a1.952 1.952 0 0 0-1.817 0l-4.176 2.195.798-4.65a1.953 1.953 0 0 0-.562-1.729l-3.378-3.292 4.668-.678Zm34.58 5.192a1.953 1.953 0 0 0-1.953 1.953v1.953a1.953 1.953 0 1 0 3.906 0V18.81a1.953 1.953 0 0 0-1.953-1.953Zm0 13.671a1.953 1.953 0 0 0-1.953 1.954v1.953a1.953 1.953 0 1 0 3.906 0v-1.953a1.953 1.953 0 0 0-1.953-1.954Zm7.813-5.858h-1.953a1.953 1.953 0 1 0 0 3.905h1.953a1.953 1.953 0 1 0 0-3.906ZM37.89 28.575h1.954a1.953 1.953 0 1 0 0-3.906H37.89a1.953 1.953 0 0 0 0 3.906Z" fill="#000"/><path d="M31.64 55.53a1.97 1.97 0 0 0 1.381-.573c.364-.363.573-.867.573-1.38 0-.516-.21-1.018-.573-1.383a1.966 1.966 0 0 0-1.38-.57c-.514 0-1.018.206-1.381.57a1.973 1.973 0 0 0-.573 1.382c0 .514.21 1.018.573 1.381.363.364.867.573 1.38.573Z" fill="#000"/></svg>