<svg width="520" height="636" fill="none" xmlns="http://www.w3.org/2000/svg"><g filter="url(#a)"><path fill-rule="evenodd" clip-rule="evenodd" d="M450 31c11.046 0 20 8.954 20 20v500c0 1.064-.083 2.108-.243 3.127a43.184 43.184 0 0 0-9.4-2.653c-16.415-2.69-33.208 1.794-49.058 6.477l-1.602.474c-15.353 4.544-31.222 9.241-47.267 7.796-13.94-1.216-27.038-6.937-40.004-12.601-16.782-7.331-33.343-14.565-51.226-11.811-10.349 1.584-19.506 6.442-28.608 11.271-2.348 1.246-4.693 2.49-7.054 3.675-11.509 5.78-25.095 10.363-37.642 6.876-7.896-2.187-14.146-7.228-20.405-12.277-6.005-4.843-12.019-9.694-19.502-12.036-11.409-3.6-23.483-.752-35.566 2.098-11.998 2.83-24.005 5.662-35.38 2.187-10.755-3.289-18.586-11.659-24.907-20.228-1.187-1.567-2.352-3.159-3.518-4.752-2.76-3.771-5.527-7.552-8.618-11.049V51c0-11.046 8.954-20 20-20h380Z" fill="#fff"/></g><defs><filter id="a" x="0" y="0" width="520" height="635.487" filterUnits="userSpaceOnUse" color-interpolation-filters="sRGB"><feFlood flood-opacity="0" result="BackgroundImageFix"/><feColorMatrix in="SourceAlpha" values="0 0 0 0 0 0 0 0 0 0 0 0 0 0 0 0 0 0 127 0" result="hardAlpha"/><feOffset dy="19"/><feGaussianBlur stdDeviation="25"/><feColorMatrix values="0 0 0 0 0.101961 0 0 0 0 0.498039 0 0 0 0 0.447059 0 0 0 0.15 0"/><feBlend in2="BackgroundImageFix" result="effect1_dropShadow"/><feBlend in="SourceGraphic" in2="effect1_dropShadow" result="shape"/></filter></defs></svg>