<svg width="652" height="152" fill="none" xmlns="http://www.w3.org/2000/svg"><rect x="1" y="1" width="416" height="150" rx="15" fill="url(#a)" stroke="url(#b)"/><rect x="1" y="1" width="650" height="150" rx="15" fill="url(#c)" stroke="url(#d)" stroke-width="2"/><g opacity=".46"><path d="M631 76h-2.252v-1.263H631V76Zm0-3.41h-2.252v-2.273H631v2.273Z" fill="url(#e)"/><path d="M623.869 73.98h-2.252v-2.274h2.252v2.273Zm0-4.547h-2.252v-2.274h2.252v2.273Zm0-4.42h-2.252v-2.274h2.252v2.273Z" fill="url(#f)"/><path d="M616.738 76h-2.252v-1.137h2.252V76Zm0-3.41h-2.252v-2.273h2.252v2.273Zm0-4.42h-2.252v-2.274h2.252v2.274Zm0-4.42h-2.252v-2.274h2.252v2.273Zm0-4.421h-2.252v-2.274h2.252v2.274Z" fill="url(#g)"/><path d="M609.607 75.242h-2.251V72.97h2.251v2.273Zm0-4.42h-2.251v-2.274h2.251v2.274Z" fill="url(#h)"/><path d="M602.477 76h-2.252v-.884h2.252V76Zm0-3.031h-2.252v-2.273h2.252v2.273Zm0-4.42h-2.252v-2.274h2.252v2.273Zm0-4.547h-2.252v-2.274h2.252v2.274Z" fill="url(#i)"/><path d="M595.346 74.863h-2.252V72.59h2.252v2.273Zm0-4.546h-2.252v-2.274h2.252v2.274Zm0-4.42h-2.252v-2.274h2.252v2.273Zm0-4.421h-2.252v-2.274h2.252v2.274Zm0-4.42h-2.252v-2.274h2.252v2.273Zm0-4.547h-2.252v-2.274h2.252v2.274Z" fill="url(#j)"/><path d="M588.09 76h-2.252v-.632h2.252V76Zm0-2.778h-2.252v-2.274h2.252v2.274Zm0-4.421h-2.252v-2.273h2.252V68.8Z" fill="url(#k)"/><path d="M580.959 76h-2.252v-2.147h2.252V76Zm0-4.294h-2.252v-2.273h2.252v2.273Zm0-4.547h-2.252v-2.273h2.252v2.273Zm0-4.42h-2.252v-2.274h2.252v2.274Zm0-4.42h-2.252v-2.274h2.252v2.273Z" fill="url(#l)"/><path d="M573.828 73.98h-2.252v-2.274h2.252v2.273Zm0-4.421h-2.252v-2.273h2.252v2.273Zm0-4.42h-2.252v-2.274h2.252v2.273Zm0-4.421h-2.252v-2.273h2.252v2.273Zm0-4.547h-2.252v-2.273h2.252v2.273Zm0-4.42h-2.252v-2.273h2.252v2.273Zm0-4.42h-2.252v-2.274h2.252v2.273Z" fill="url(#m)"/><path d="M566.572 75.747h-2.252v-2.273h2.252v2.273Zm0-4.42h-2.252v-2.273h2.252v2.273Zm0-4.547h-2.252v-2.273h2.252v2.273Zm0-4.42h-2.252v-2.273h2.252v2.273Zm0-4.42h-2.252v-2.274h2.252v2.274Zm0-4.42h-2.252v-2.274h2.252v2.273Zm0-4.548h-2.252V46.7h2.252v2.273Z" fill="url(#n)"/><path d="M559.441 76h-2.252v-2.273h2.252V76Zm0-4.547h-2.252V69.18h2.252v2.273Zm0-4.42h-2.252V64.76h2.252v2.273Zm0-4.42h-2.252v-2.274h2.252v2.273Zm0-4.421h-2.252v-2.273h2.252v2.273Zm0-4.547h-2.252v-2.273h2.252v2.273Zm0-4.42h-2.252v-2.273h2.252v2.273Zm0-4.42h-2.252V42.53h2.252v2.273Zm0-4.547h-2.252v-2.274h2.252v2.274Zm0-4.42h-2.252v-2.274h2.252v2.273Zm0-4.421h-2.252v-2.273h2.252v2.273Z" fill="url(#o)"/><path d="M550.184 76v-1.768h2.252V76h-2.252Zm0-4.041v-2.274h2.252v2.273h-2.252Zm0-4.42v-2.274h2.252v2.273h-2.252Zm0-4.421v-2.274h2.252v2.274h-2.252Zm0-4.547v-2.273h2.252v2.273h-2.252Zm0-4.42v-2.274h2.252v2.273h-2.252Zm0-4.42v-2.274h2.252v2.273h-2.252Zm0-4.421v-2.274h2.252v2.274h-2.252Zm0-4.547V38.49h2.252v2.273h-2.252Zm0-4.42v-2.274h2.252v2.274h-2.252Zm0-4.42v-2.274h2.252v2.273h-2.252Zm0-4.548v-2.273h2.252v2.273h-2.252Zm0-4.42v-2.273h2.252v2.273h-2.252Z" fill="url(#p)"/><path d="M545.18 76h-2.252v-1.39h2.252V76Zm0-3.663h-2.252v-2.273h2.252v2.273Zm0-4.42h-2.252v-2.273h2.252v2.273Zm0-4.42h-2.252v-2.274h2.252v2.273Zm0-4.42h-2.252v-2.274h2.252v2.273Zm0-4.548h-2.252v-2.273h2.252v2.273Zm0-4.42h-2.252v-2.273h2.252v2.273Zm0-4.42h-2.252v-2.274h2.252v2.274Zm0-4.42h-2.252v-2.274h2.252v2.273Zm0-4.548h-2.252v-2.147h2.252v2.147Zm0-4.42h-2.252v-2.273h2.252V32.3Z" fill="url(#q)"/><path d="M538.049 75.495h-2.252V73.22h2.252v2.274Zm0-4.547h-2.252v-2.273h2.252v2.273Zm0-4.42h-2.252v-2.274h2.252v2.274Zm0-4.42h-2.252v-2.274h2.252v2.273Zm0-4.421h-2.252v-2.273h2.252v2.273Zm0-4.547h-2.252v-2.147h2.252v2.147Zm0-4.42h-2.252v-2.274h2.252v2.274Zm0-4.42h-2.252v-2.274h2.252v2.273Zm0-4.421h-2.252v-2.273h2.252v2.273Zm0-4.547h-2.252V33.06h2.252v2.273Zm0-4.42h-2.252v-2.274h2.252v2.274Zm0-4.42h-2.252v-2.274h2.252v2.273Zm0-4.547h-2.252V19.67h2.252v2.274Zm0-4.42h-2.252v-2.148h2.252v2.147Zm0-4.421h-2.252V10.83h2.252v2.274Z" fill="url(#r)"/><path d="M530.918 76h-2.252v-1.642h2.252V76Zm0-3.915h-2.252v-2.147h2.252v2.147Zm0-4.42h-2.252V65.39h2.252v2.273Zm0-4.421h-2.252v-2.273h2.252v2.273Zm0-4.547h-2.252v-2.273h2.252v2.273Z" fill="url(#s)"/><path d="M523.787 75.242h-2.252V72.97h2.252v2.273Zm0-4.42h-2.252v-2.274h2.252v2.274Zm0-4.42h-2.252v-2.274h2.252v2.273Zm0-4.547h-2.252V59.58h2.252v2.274Zm0-4.42h-2.252V55.16h2.252v2.273Zm0-4.421h-2.252V50.74h2.252v2.274Zm0-4.42h-2.252V46.32h2.252v2.273Zm0-4.547h-2.252v-2.274h2.252v2.274Z" fill="url(#t)"/><path d="M516.656 74.99h-2.252v-2.274h2.252v2.274Zm0-4.547h-2.252V68.17h2.252v2.273Zm0-4.42h-2.252v-2.274h2.252v2.273Zm0-4.42h-2.252v-2.274h2.252v2.273Zm0-4.548h-2.252v-2.273h2.252v2.273Zm0-4.42h-2.252v-2.273h2.252v2.273Zm0-4.42h-2.252V45.94h2.252v2.273Zm0-4.42h-2.252V41.52h2.252v2.273Zm0-4.548h-2.252V37.1h2.252v2.147Zm0-4.42h-2.252v-2.273h2.252v2.273Z" fill="url(#u)"/><path d="M509.525 76h-2.251v-2.273h2.251V76Zm0-4.547h-2.251V69.18h2.251v2.273Zm0-4.42h-2.251V64.76h2.251v2.273Zm0-4.42h-2.251v-2.274h2.251v2.273Zm0-4.547h-2.251v-2.274h2.251v2.274Zm0-4.42h-2.251v-2.274h2.251v2.273Zm0-4.421h-2.251v-2.273h2.251v2.273Zm0-4.42h-2.251V42.53h2.251v2.273Z" fill="url(#v)"/><path d="M502.269 74.232h-2.251v-2.273h2.251v2.273Zm0-4.42h-2.251v-2.274h2.251v2.273Zm0-4.421h-2.251v-2.273h2.251v2.273Zm0-4.42h-2.251v-2.274h2.251v2.274Zm0-4.547h-2.251V54.15h2.251v2.273Zm0-4.42h-2.251V49.73h2.251v2.274Zm0-4.421h-2.251V45.31h2.251v2.273Z" fill="url(#w)"/><path d="M495.139 74.106h-2.252v-2.274h2.252v2.274Zm0-4.42h-2.252v-2.274h2.252v2.273Zm0-4.548h-2.252v-2.273h2.252v2.273Zm0-4.42h-2.252v-2.147h2.252v2.147Zm0-4.42h-2.252v-2.274h2.252v2.274Z" fill="url(#x)"/><path d="M488.008 71.832h-2.252v2.274h2.252v-2.274Z" fill="url(#y)"/><path d="M480.877 76h-2.252v-.126l2.252.126Zm0-2.273h-2.252v-2.274h2.252v2.274Zm0-4.42h-2.252v-2.274h2.252v2.273Z" fill="url(#z)"/><path d="M473.621 75.116h-2.252v-2.273h2.252v2.273Zm0-4.42h-2.252v-2.274h2.252v2.273Zm0-4.42h-2.252v-2.274h2.252v2.273Zm0-4.548h-2.252v-2.273h2.252v2.273Z" fill="url(#A)"/><path d="M466.49 75.242h-2.252V72.97h2.252v2.273Zm0-4.42h-2.252v-2.273h2.252v2.273Zm0-4.42h-2.252v-2.274h2.252v2.273Zm0-4.547h-2.252V59.58h2.252v2.274Zm0-4.42h-2.252V55.16h2.252v2.273Zm0-4.421h-2.252V50.74h2.252v2.274Zm0-4.42h-2.252V46.32h2.252v2.273Z" fill="url(#B)"/><path d="M459.359 74.106h-2.252v-2.274h2.252v2.274Zm0-4.42h-2.252v-2.274h2.252v2.273Zm0-4.421h-2.252V62.99h2.252v2.274Zm0-4.42h-2.252V58.57h2.252v2.273Zm0-4.547h-2.252v-2.274h2.252v2.274Zm0-4.42h-2.252v-2.274h2.252v2.273Zm0-4.421h-2.252v-2.274h2.252v2.274Zm0-4.547h-2.252v-2.273h2.252v2.273Zm0-4.42h-2.252v-2.274h2.252v2.274Zm0-4.42h-2.252v-2.274h2.252v2.273Z" fill="url(#C)"/><path d="M450.102 76v-.758h2.252V76h-2.252Zm0-3.031v-2.273h2.252v2.273h-2.252Z" fill="url(#D)"/><path d="M445.098 75.747h-2.252v-2.273h2.252v2.273Zm0-4.546h-2.252v-2.274h2.252v2.274Zm0-4.42h-2.252v-2.274h2.252v2.273Z" fill="url(#E)"/><path d="M437.967 76h-2.252v-2.02h2.252V76Zm0-4.168h-2.252V69.56h2.252v2.273Zm0-4.42h-2.252v-2.274h2.252v2.274Zm0-4.42h-2.252v-2.274h2.252v2.273Zm0-4.547h-2.252V56.17h2.252v2.274Zm0-4.42h-2.252V51.75h2.252v2.273Z" fill="url(#F)"/><path d="M430.836 74.106h-2.252v-2.274h2.252v2.274Zm0-4.547h-2.252v-2.147h2.252v2.147Zm0-4.42h-2.252v-2.274h2.252v2.273Zm0-4.421h-2.252v-2.273h2.252v2.273Zm0-4.42h-2.252v-2.274h2.252v2.274Zm0-4.547h-2.252v-2.273h2.252v2.273Zm0-4.42h-2.252v-2.274h2.252v2.273Zm0-4.421h-2.252v-2.273h2.252v2.273Zm0-4.547h-2.252V36.09h2.252v2.273Zm0-4.42h-2.252V31.67h2.252v2.273Zm0-4.42h-2.252v-2.274h2.252v2.274Zm0-4.42h-2.252v-2.274h2.252v2.273Z" fill="url(#G)"/><path d="M423.705 75.747h-2.252v-2.273h2.252v2.273Zm0-4.42h-2.252v-2.273h2.252v2.273Zm0-4.547h-2.252v-2.273h2.252v2.273Zm0-4.42h-2.252v-2.273h2.252v2.273Zm0-4.42h-2.252v-2.274h2.252v2.274Zm0-4.42h-2.252v-2.274h2.252v2.273Zm0-4.548h-2.252V46.7h2.252v2.273Zm0-4.42h-2.252v-2.273h2.252v2.273Z" fill="url(#H)"/><path d="M416.574 75.621h-2.252v-2.273h2.252v2.273Zm0-4.42h-2.252v-2.274h2.252v2.274Zm0-4.547h-2.252v-2.273h2.252v2.273Zm0-4.42h-2.252V59.96h2.252v2.273Zm0-4.42h-2.252V55.54h2.252v2.273Zm0-4.548h-2.252v-2.273h2.252v2.273Zm0-4.42h-2.252v-2.273h2.252v2.273Zm0-4.42h-2.252v-2.274h2.252v2.274Zm0-4.42h-2.252v-2.274h2.252v2.273Zm0-4.547h-2.252V33.31h2.252v2.148Zm0-4.421h-2.252v-2.273h2.252v2.273Z" fill="url(#I)"/><path d="M409.318 76h-2.252v-1.768h2.252V76Zm0-3.915h-2.252V69.81h2.252v2.274Zm0-4.547h-2.252v-2.273h2.252v2.273Zm0-4.42h-2.252v-2.274h2.252v2.274Zm0-4.42h-2.252v-2.274h2.252v2.273Zm0-4.421h-2.252v-2.273h2.252v2.273Zm0-4.547h-2.252v-2.273h2.252v2.273Zm0-4.42h-2.252v-2.274h2.252v2.274Zm0-4.42h-2.252v-2.274h2.252v2.273Zm0-4.421h-2.252v-2.273h2.252v2.273Zm0-4.547h-2.252V29.65h2.252v2.273Zm0-4.42h-2.252v-2.274h2.252v2.274Zm0-4.42h-2.252v-2.274h2.252v2.273Zm0-4.547h-2.252V16.26h2.252v2.274Zm0-4.42h-2.252v-2.148h2.252v2.147Zm0-4.421h-2.252V7.42h2.252v2.274Zm0-4.42h-2.252V3h2.252v2.273Z" fill="url(#J)"/><path d="M402.187 74.99h-2.251v-2.274h2.251v2.274Zm0-4.547h-2.251V68.17h2.251v2.273Zm0-4.42h-2.251v-2.274h2.251v2.273Zm0-4.42h-2.251v-2.274h2.251v2.273Zm0-4.548h-2.251v-2.273h2.251v2.273Zm0-4.42h-2.251v-2.273h2.251v2.273Zm0-4.42h-2.251V45.94h2.251v2.274Zm0-4.42h-2.251V41.52h2.251v2.273Zm0-4.548h-2.251V37.1h2.251v2.147Zm0-4.42h-2.251v-2.273h2.251v2.273Zm0-4.42h-2.251v-2.274h2.251v2.274Zm0-4.42h-2.251v-2.274h2.251v2.273Zm0-4.547h-2.251v-2.274h2.251v2.273Zm0-4.421h-2.251v-2.273h2.251v2.273Zm0-4.42h-2.251v-2.274h2.251V12.6Z" fill="url(#K)"/><path d="M395.057 74.863h-2.252V72.59h2.252v2.273Zm0-4.546h-2.252v-2.274h2.252v2.274Zm0-4.42h-2.252v-2.274h2.252v2.273Zm0-4.421h-2.252v-2.274h2.252v2.274Zm0-4.547h-2.252v-2.147h2.252v2.147Zm0-4.42h-2.252v-2.274h2.252v2.274Zm0-4.42h-2.252v-2.274h2.252v2.273Zm0-4.421h-2.252v-2.273h2.252v2.273Zm0-4.547h-2.252v-2.273h2.252v2.273Zm0-4.42h-2.252v-2.274h2.252v2.274Zm0-4.42h-2.252v-2.274h2.252v2.273Zm0-4.421h-2.252v-2.273h2.252v2.273Z" fill="url(#L)"/><path d="M387.926 76h-2.252v-1.263h2.252V76Zm0-3.536h-2.252V70.19h2.252v2.274Zm0-4.42h-2.252V65.77h2.252v2.273Zm0-4.421h-2.252V61.35h2.252v2.273Zm0-4.42h-2.252v-2.274h2.252v2.273Zm0-4.547h-2.252v-2.274h2.252v2.274Zm0-4.42h-2.252v-2.274h2.252v2.273Zm0-4.421h-2.252v-2.273h2.252v2.273Z" fill="url(#M)"/><path d="M380.67 76h-2.252v-.632h2.252V76Zm0-2.778h-2.252v-2.274h2.252v2.274Zm0-4.421h-2.252v-2.273h2.252V68.8Z" fill="url(#N)"/><path d="M373.539 74.61h-2.252v-2.146h2.252v2.147Zm0-4.42h-2.252v-2.273h2.252v2.273Zm0-4.42h-2.252v-2.273h2.252v2.273Zm0-4.547h-2.252V58.95h2.252v2.273Z" fill="url(#O)"/><path d="M366.408 74.358h-2.252v-2.273h2.252v2.273Zm0-4.547h-2.252v-2.273h2.252v2.273Zm0-4.42h-2.252v-2.273h2.252v2.273Zm0-4.42h-2.252v-2.274h2.252v2.274Zm0-4.42h-2.252v-2.274h2.252v2.273Zm0-4.547h-2.252V49.73h2.252v2.274Z" fill="url(#P)"/><path d="M359.277 76h-2.252v-2.147h2.252V76Zm0-4.294h-2.252v-2.273h2.252v2.273Zm0-4.42h-2.252v-2.274h2.252v2.273Zm0-4.42h-2.252v-2.274h2.252v2.273Zm0-4.548h-2.252v-2.273h2.252v2.273Zm0-4.42h-2.252v-2.273h2.252v2.273Zm0-4.42h-2.252v-2.274h2.252v2.273Zm0-4.42h-2.252v-2.274h2.252v2.273Zm0-4.548h-2.252v-2.147h2.252v2.147Z" fill="url(#Q)"/><path d="M350.02 76v-.126h2.252V76h-2.252Zm0-2.4v-2.273h2.252V73.6h-2.252Zm0-4.42v-2.274h2.252v2.274h-2.252Zm0-4.42v-2.274h2.252v2.274h-2.252Zm0-4.42v-2.274h2.252v2.273h-2.252Zm0-4.548V53.52h2.252v2.273h-2.252Zm0-4.42v-2.273h2.252v2.273h-2.252Zm0-4.42v-2.274h2.252v2.274h-2.252Zm0-4.547v-2.273h2.252v2.273h-2.252Zm0-4.42v-2.148h2.252v2.147h-2.252Zm0-4.421v-2.273h2.252v2.273h-2.252Z" fill="url(#R)"/><path d="M345.016 76h-2.252v-.758h2.252V76Zm0-3.031h-2.252v-2.273h2.252v2.273Zm0-4.42h-2.252v-2.274h2.252v2.273Zm0-4.421h-2.252v-2.273h2.252v2.273Zm0-4.42h-2.252v-2.274h2.252v2.274Zm0-4.547h-2.252v-2.273h2.252v2.273Zm0-4.42h-2.252v-2.274h2.252v2.273Zm0-4.42h-2.252v-2.274h2.252v2.273Zm0-4.548h-2.252v-2.147h2.252v2.147Zm0-4.42h-2.252V35.08h2.252v2.273Zm0-4.42h-2.252v-2.274h2.252v2.273Zm0-4.42h-2.252v-2.274h2.252v2.273Zm0-4.548h-2.252v-2.273h2.252v2.273Zm0-4.42h-2.252v-2.273h2.252v2.273Z" fill="url(#S)"/><path d="M337.885 75.621h-2.252v-2.273h2.252v2.273Zm0-4.42h-2.252v-2.274h2.252v2.274Zm0-4.547h-2.252v-2.273h2.252v2.273Zm0-4.42h-2.252V59.96h2.252v2.273Zm0-4.42h-2.252V55.54h2.252v2.273Zm0-4.548h-2.252v-2.273h2.252v2.273Zm0-4.42h-2.252v-2.273h2.252v2.273Zm0-4.42h-2.252v-2.274h2.252v2.274Zm0-4.42h-2.252v-2.274h2.252v2.273Zm0-4.547h-2.252V33.31h2.252v2.148Zm0-4.421h-2.252v-2.273h2.252v2.273Z" fill="url(#T)"/><path d="M330.754 76h-2.252v-.379h2.252V76Zm0-2.526h-2.252v-2.273h2.252v2.273Zm0-4.42h-2.252V66.78h2.252v2.274Zm0-4.42h-2.252V62.36h2.252v2.273Zm0-4.547h-2.252v-2.274h2.252v2.273Zm0-4.42h-2.252v-2.274h2.252v2.273Zm0-4.421h-2.252v-2.274h2.252v2.274Zm0-4.547h-2.252v-2.273h2.252v2.273Zm0-4.42h-2.252v-2.274h2.252v2.274Z" fill="url(#U)"/><path d="M323.498 75.621h-2.252v-2.273h2.252v2.273Zm0-4.547h-2.252v-2.273h2.252v2.273Zm0-4.42h-2.252v-2.273h2.252v2.273Zm0-4.42h-2.252V59.96h2.252v2.274Zm0-4.547h-2.252v-2.273h2.252v2.273Zm0-4.42h-2.252v-2.274h2.252v2.273Z" fill="url(#V)"/><path d="M316.367 76h-2.252v-1.768h2.252V76Zm0-3.915h-2.252V69.81h2.252v2.274Z" fill="url(#W)"/><path d="M309.236 73.853h-2.252V71.58h2.252v2.273Zm0-4.42h-2.252v-2.274h2.252v2.273Zm0-4.42h-2.252v-2.274h2.252v2.273Zm0-4.421h-2.252v-2.274h2.252v2.274Z" fill="url(#X)"/><path d="M302.105 76h-2.251v-.253h2.251V76Zm0-2.526h-2.251v-2.273h2.251v2.273Zm0-4.42h-2.251V66.78h2.251v2.274Zm0-4.42h-2.251V62.36h2.251v2.273Zm0-4.547h-2.251v-2.274h2.251v2.273Zm0-4.42h-2.251v-2.148h2.251v2.147Zm0-4.421h-2.251v-2.274h2.251v2.274Z" fill="url(#Y)"/><path d="M294.975 76h-2.252v-1.01h2.252V76Zm0-3.157h-2.252v-2.274h2.252v2.274Zm0-4.42h-2.252v-2.274h2.252v2.273Zm0-4.421h-2.252v-2.274h2.252v2.274Zm0-4.547h-2.252v-2.147h2.252v2.147Zm0-4.42h-2.252V52.76h2.252v2.274Zm0-4.42h-2.252V48.34h2.252v2.273Zm0-4.547h-2.252v-2.274h2.252v2.274Zm0-4.42h-2.252v-2.274h2.252v2.273Z" fill="url(#Z)"/><path d="M287.719 73.727h-2.252v-2.274h2.252v2.274Zm0-4.42h-2.252v-2.274h2.252v2.273Zm0-4.421h-2.252v-2.273h2.252v2.273Zm0-4.547h-2.252v-2.273h2.252v2.273Zm0-4.42h-2.252v-2.274h2.252v2.274Zm0-4.42h-2.252v-2.274h2.252v2.273Zm0-4.547h-2.252v-2.274h2.252v2.274Zm0-4.42h-2.252v-2.274h2.252v2.273Zm0-4.421h-2.252v-2.274h2.252v2.274Zm0-4.42h-2.252v-2.274h2.252v2.273Zm0-4.547h-2.252v-2.147h2.252v2.147Z" fill="url(#aa)"/><path d="M280.588 75.621h-2.252v-2.273h2.252v2.273Zm0-4.42h-2.252v-2.274h2.252v2.274Zm0-4.42h-2.252v-2.274h2.252v2.273Zm0-4.547h-2.252V59.96h2.252v2.274Zm0-4.42h-2.252V55.54h2.252v2.273Zm0-4.421h-2.252v-2.274h2.252v2.274Zm0-4.42h-2.252v-2.274h2.252v2.273Zm0-4.547h-2.252v-2.274h2.252v2.274Zm0-4.42h-2.252v-2.274h2.252v2.273Zm0-4.421h-2.252V33.31h2.252v2.274Zm0-4.547h-2.252v-2.273h2.252v2.273Zm0-4.42h-2.252V24.47h2.252v2.147Zm0-4.42h-2.252v-2.274h2.252v2.273Zm0-4.421h-2.252v-2.274h2.252v2.274Zm0-4.547h-2.252v-2.147h2.252v2.147Zm0-4.42h-2.252V6.536h2.252V8.81Z" fill="url(#ab)"/><path d="M273.457 76h-2.252v-.379h2.252V76Zm0-2.652h-2.252V71.2h2.252v2.147Zm0-4.42h-2.252v-2.274h2.252v2.273Zm0-4.421h-2.252v-2.273h2.252v2.273Zm0-4.547h-2.252v-2.273h2.252v2.273Zm0-4.42h-2.252v-2.273h2.252v2.273Zm0-4.42h-2.252v-2.274h2.252v2.273Zm0-4.421h-2.252v-2.273h2.252v2.273Zm0-4.547h-2.252V39.88h2.252v2.273Zm0-4.42h-2.252v-2.273h2.252v2.273Zm0-4.42h-2.252v-2.274h2.252v2.273Zm0-4.421h-2.252v-2.273h2.252v2.273Zm0-4.547h-2.252v-2.273h2.252v2.273Zm0-4.42h-2.252V17.65h2.252v2.273Zm0-4.42h-2.252V13.23h2.252v2.274Z" fill="url(#ac)"/><path d="M266.326 75.495h-2.252v-2.273h2.252v2.273Zm0-4.42h-2.252V68.8h2.252v2.273Zm0-4.547h-2.252v-2.274h2.252v2.274Zm0-4.42h-2.252v-2.274h2.252v2.273Zm0-4.421h-2.252v-2.273h2.252v2.273Zm0-4.42h-2.252v-2.274h2.252v2.273Zm0-4.547h-2.252v-2.274h2.252v2.274Zm0-4.42h-2.252v-2.274h2.252v2.273Zm0-4.421h-2.252v-2.273h2.252v2.273Zm0-4.42h-2.252v-2.274h2.252v2.273Zm0-4.547h-2.252v-2.274h2.252v2.274Zm0-4.42h-2.252v-2.274h2.252v2.273Z" fill="url(#ad)"/><path d="M259.195 76h-2.252v-.884h2.252V76Zm0-3.031h-2.252v-2.273h2.252v2.273Zm0-4.42h-2.252v-2.274h2.252v2.273Zm0-4.547h-2.252v-2.274h2.252v2.274Zm0-4.42h-2.252v-2.274h2.252v2.273Zm0-4.421h-2.252v-2.273h2.252v2.273Zm0-4.547h-2.252v-2.147h2.252v2.147Zm0-4.42h-2.252V43.92h2.252v2.274Zm0-4.42h-2.252V39.5h2.252v2.273Zm0-4.421h-2.252V35.08h2.252v2.273Z" fill="url(#ae)"/><path d="M249.938 76v-1.768h2.251V76h-2.251Zm0-4.041v-2.274h2.251v2.273h-2.251Zm0-4.42v-2.274h2.251v2.273h-2.251Zm0-4.421v-2.274h2.251v2.274h-2.251Z" fill="url(#af)"/><path d="M244.934 73.727h-2.252v-2.274h2.252v2.274Zm0-4.42h-2.252v-2.274h2.252v2.273Z" fill="url(#ag)"/><path d="M237.678 73.853h-2.252V71.58h2.252v2.273Zm0-4.42h-2.252v-2.274h2.252v2.273Zm0-4.547h-2.252v-2.273h2.252v2.273Zm0-4.42h-2.252v-2.274h2.252v2.273Zm0-4.421h-2.252v-2.273h2.252v2.273Zm0-4.42h-2.252V49.35h2.252v2.274Zm0-4.547h-2.252v-2.274h2.252v2.274Zm0-4.42h-2.252v-2.274h2.252v2.273Zm0-4.421h-2.252v-2.273h2.252v2.273Zm0-4.42h-2.252v-2.274h2.252v2.274Zm0-4.547h-2.252v-2.273h2.252v2.273Z" fill="url(#ah)"/><path d="M230.547 76h-2.252v-.632h2.252V76Zm0-2.905h-2.252v-2.273h2.252v2.273Zm0-4.42h-2.252V66.4h2.252v2.274Zm0-4.42h-2.252V61.98h2.252v2.273Zm0-4.421h-2.252V57.56h2.252v2.273Zm0-4.547h-2.252v-2.273h2.252v2.273Zm0-4.42h-2.252v-2.273h2.252v2.273Zm0-4.42h-2.252v-2.274h2.252v2.273Zm0-4.421h-2.252v-2.273h2.252v2.273Z" fill="url(#ai)"/><path d="M223.416 76h-2.252v-.758h2.252V76Zm0-2.905h-2.252v-2.273h2.252v2.273Zm0-4.42h-2.252V66.4h2.252v2.274Z" fill="url(#aj)"/><path d="M216.285 76h-2.252v-1.01h2.252V76Zm0-3.284h-2.252v-2.273h2.252v2.273Zm0-4.42h-2.252v-2.274h2.252v2.274Zm0-4.547h-2.252v-2.273h2.252v2.273Z" fill="url(#ak)"/><path d="M209.154 76h-2.252v-.758h2.252V76Zm0-3.031h-2.252v-2.273h2.252v2.273Zm0-4.42h-2.252v-2.274h2.252v2.273Zm0-4.421h-2.252v-2.273h2.252v2.273Zm0-4.42h-2.252v-2.274h2.252v2.274Zm0-4.547h-2.252v-2.273h2.252v2.273Zm0-4.42h-2.252v-2.274h2.252v2.273Zm0-4.421h-2.252v-2.273h2.252v2.273Zm0-4.547h-2.252v-2.147h2.252v2.147Zm0-4.42h-2.252V35.08h2.252v2.273Zm0-4.42h-2.252v-2.274h2.252v2.273Z" fill="url(#al)"/><path d="M202.023 76h-2.251v-1.642h2.251V76Zm0-3.789h-2.251v-2.273h2.251v2.273Zm0-4.42h-2.251v-2.274h2.251v2.274Zm0-4.547h-2.251v-2.147h2.251v2.147Zm0-4.42h-2.251V56.55h2.251v2.274Zm0-4.42h-2.251V52.13h2.251v2.273Zm0-4.421h-2.251v-2.274h2.251v2.274Zm0-4.547h-2.251v-2.273h2.251v2.273Zm0-4.42h-2.251v-2.274h2.251v2.274Z" fill="url(#am)"/><path d="M194.767 75.116h-2.251v-2.273h2.251v2.273Zm0-4.42h-2.251v-2.274h2.251v2.273Zm0-4.547h-2.251v-2.273h2.251v2.273Zm0-4.42h-2.251v-2.274h2.251v2.273Zm0-4.421h-2.251v-2.273h2.251v2.273Zm0-4.547h-2.251v-2.273h2.251v2.273Zm0-4.42h-2.251v-2.273h2.251v2.273Z" fill="url(#an)"/><path d="M187.637 76h-2.252v-1.39h2.252V76Zm0-3.536h-2.252V70.19h2.252v2.274Zm0-4.42h-2.252V65.77h2.252v2.273Zm0-4.547h-2.252v-2.274h2.252v2.274Zm0-4.42h-2.252v-2.274h2.252v2.273Zm0-4.421h-2.252v-2.274h2.252v2.274Zm0-4.547h-2.252v-2.273h2.252v2.273Zm0-4.42h-2.252v-2.274h2.252v2.274Zm0-4.42h-2.252v-2.274h2.252v2.273Zm0-4.421h-2.252v-2.274h2.252v2.274Zm0-4.547h-2.252v-2.273h2.252V32.3Zm0-4.42h-2.252v-2.274h2.252v2.274Zm0-4.42h-2.252v-2.274h2.252v2.273Zm0-4.421h-2.252v-2.274h2.252v2.274Zm0-4.547h-2.252v-2.147h2.252v2.147Zm0-4.42h-2.252V7.799h2.252v2.274Z" fill="url(#ao)"/><path d="M180.506 76h-2.252v-1.137h2.252V76Zm0-3.284h-2.252v-2.273h2.252v2.273Zm0-4.546h-2.252v-2.274h2.252v2.273Zm0-4.42h-2.252v-2.274h2.252v2.273Zm0-4.421h-2.252v-2.274h2.252v2.274Zm0-4.42h-2.252v-2.274h2.252v2.273Zm0-4.547h-2.252v-2.274h2.252v2.274Zm0-4.42h-2.252v-2.274h2.252v2.273Zm0-4.421h-2.252v-2.274h2.252v2.274Zm0-4.42h-2.252v-2.274h2.252V37.1Zm0-4.547h-2.252V30.28h2.252v2.274Zm0-4.42h-2.252V25.86h2.252v2.273Zm0-4.421h-2.252v-2.274h2.252v2.274Zm0-4.547h-2.252v-2.273h2.252v2.273Z" fill="url(#ap)"/><path d="M173.375 76h-2.252v-1.263h2.252V76Zm0-3.536h-2.252V70.19h2.252v2.274Zm0-4.42h-2.252V65.77h2.252v2.273Zm0-4.421h-2.252V61.35h2.252v2.273Zm0-4.42h-2.252v-2.274h2.252v2.273Zm0-4.547h-2.252v-2.274h2.252v2.274Zm0-4.42h-2.252v-2.274h2.252v2.273Zm0-4.421h-2.252v-2.273h2.252v2.273Zm0-4.42h-2.252V39.12h2.252v2.273Zm0-4.547h-2.252v-2.274h2.252v2.274Zm0-4.42h-2.252v-2.274h2.252v2.273Z" fill="url(#aq)"/><path d="M166.244 76h-2.252v-.126h2.252V76Zm0-2.273h-2.252v-2.274h2.252v2.274Zm0-4.547h-2.252v-2.273h2.252v2.273Zm0-4.42h-2.252v-2.274h2.252v2.274Zm0-4.42h-2.252v-2.274h2.252v2.273Zm0-4.548h-2.252V53.52h2.252v2.273Zm0-4.42h-2.252v-2.273h2.252v2.273Zm0-4.42h-2.252v-2.274h2.252v2.274Zm0-4.42h-2.252v-2.274h2.252v2.273Zm0-4.548h-2.252v-2.147h2.252v2.147Z" fill="url(#ar)"/><path d="M159.113 76h-2.252v-2.147h2.252V76Zm0-4.294h-2.252v-2.273h2.252v2.273Zm0-4.42h-2.252v-2.274h2.252v2.273Zm0-4.547h-2.252v-2.274h2.252v2.274Zm0-4.42h-2.252v-2.274h2.252v2.273Zm0-4.421h-2.252v-2.274h2.252v2.274Zm0-4.42h-2.252v-2.274h2.252v2.273Zm0-4.547h-2.252v-2.274h2.252v2.274Z" fill="url(#as)"/><path d="M149.856 74.484v-2.273h2.251v2.273h-2.251Zm0-4.42v-2.273h2.251v2.273h-2.251Zm0-4.547v-2.273h2.251v2.273h-2.251Zm0-4.42v-2.273h2.251v2.273h-2.251Z" fill="url(#at)"/><path d="M144.726 76h-2.251v-.253h2.251V76Zm0-2.4h-2.251v-2.273h2.251V73.6Zm0-4.546h-2.251V66.78h2.251v2.274Z" fill="url(#au)"/><path d="M137.596 76h-2.252v-1.39h2.252V76Zm0-3.536h-2.252V70.19h2.252v2.274Zm0-4.42h-2.252V65.77h2.252v2.273Zm0-4.547h-2.252v-2.274h2.252v2.274Zm0-4.42h-2.252v-2.274h2.252v2.273Zm0-4.421h-2.252v-2.274h2.252v2.274Z" fill="url(#av)"/><path d="M130.465 75.242h-2.252V72.97h2.252v2.273Zm0-4.42h-2.252v-2.273h2.252v2.273Zm0-4.547h-2.252v-2.273h2.252v2.273Zm0-4.42h-2.252V59.58h2.252v2.274Zm0-4.42h-2.252V55.16h2.252v2.273Zm0-4.421h-2.252V50.74h2.252v2.274Zm0-4.547h-2.252v-2.273h2.252v2.273Zm0-4.42h-2.252v-2.274h2.252v2.274Zm0-4.42h-2.252v-2.274h2.252v2.273Zm0-4.547h-2.252v-2.274h2.252v2.274Z" fill="url(#aw)"/><path d="M123.334 76h-2.252v-.253h2.252V76Zm0-2.4h-2.252v-2.273h2.252V73.6Zm0-4.546h-2.252V66.78h2.252v2.274Zm0-4.42h-2.252V62.36h2.252v2.273Zm0-4.421h-2.252v-2.274h2.252v2.274Zm0-4.42h-2.252v-2.274h2.252v2.273Zm0-4.547h-2.252v-2.274h2.252v2.274Z" fill="url(#ax)"/><path d="M116.203 76h-2.252v-2.147h2.252V76Zm0-4.294h-2.252v-2.273h2.252v2.273Zm0-4.42h-2.252v-2.274h2.252v2.273Zm0-4.547h-2.252v-2.274h2.252v2.274Zm0-4.42h-2.252v-2.274h2.252v2.273Zm0-4.421h-2.252v-2.274h2.252v2.274Zm0-4.42h-2.252v-2.274h2.252v2.273Zm0-4.547h-2.252v-2.274h2.252v2.274Z" fill="url(#ay)"/><path d="M109.072 73.6h-2.252v-2.273h2.252V73.6Zm0-4.42h-2.252v-2.273h2.252v2.273Zm0-4.42h-2.252v-2.274h2.252v2.274Zm0-4.42h-2.252v-2.274h2.252v2.273Z" fill="url(#az)"/><path d="M101.941 76h-2.252v-1.516h2.252V76Zm0-3.663h-2.252v-2.273h2.252v2.273Zm0-4.42h-2.252v-2.273h2.252v2.273Zm0-4.547h-2.252v-2.273h2.252v2.273Zm0-4.42h-2.252v-2.274h2.252v2.274Zm0-4.42h-2.252v-2.274h2.252v2.273Zm0-4.547h-2.252v-2.274h2.252v2.274Zm0-4.42h-2.252v-2.148h2.252v2.147Zm0-4.421h-2.252v-2.274h2.252v2.274Zm0-4.42h-2.252v-2.274h2.252v2.273Zm0-4.547h-2.252V29.9h2.252v2.274Zm0-4.42h-2.252V25.48h2.252v2.273Zm0-4.421h-2.252V21.06h2.252v2.273Z" fill="url(#aA)"/><path d="M94.685 74.232h-2.252v-2.273h2.252v2.273Zm0-4.42h-2.252v-2.274h2.252v2.273Zm0-4.547h-2.252V62.99h2.252v2.274Zm0-4.42h-2.252V58.57h2.252v2.273Zm0-4.421h-2.252V54.15h2.252v2.273Zm0-4.42h-2.252V49.73h2.252v2.273Zm0-4.547h-2.252v-2.274h2.252v2.274Zm0-4.42h-2.252v-2.274h2.252v2.273Zm0-4.421h-2.252v-2.273h2.252v2.273Zm0-4.42h-2.252v-2.274h2.252v2.274Z" fill="url(#aB)"/><path d="M87.555 75.495h-2.252v-2.273h2.252v2.273Zm0-4.547h-2.252v-2.273h2.252v2.273Zm0-4.42h-2.252v-2.274h2.252v2.274Zm0-4.42h-2.252v-2.274h2.252v2.273Zm0-4.547h-2.252v-2.274h2.252v2.274Zm0-4.42h-2.252v-2.148h2.252v2.147Zm0-4.421h-2.252v-2.274h2.252v2.274Zm0-4.42h-2.252v-2.274h2.252v2.273Zm0-4.547h-2.252v-2.274h2.252v2.274Z" fill="url(#aC)"/><path d="M80.424 74.737h-2.252v-2.273h2.252v2.273Zm0-4.42h-2.252v-2.274h2.252v2.274Zm0-4.42h-2.252v-2.274h2.252v2.273Zm0-4.548h-2.252v-2.273h2.252v2.273Zm0-4.42h-2.252v-2.147h2.252v2.147Zm0-4.42h-2.252v-2.274h2.252v2.274Zm0-4.42h-2.252v-2.274h2.252v2.273Zm0-4.547h-2.252v-2.274h2.252v2.273Zm0-4.42h-2.252v-2.274h2.252v2.273Zm0-4.421h-2.252v-2.274h2.252v2.274Zm0-4.42h-2.252v-2.274h2.252v2.273Zm0-4.547h-2.252V23.46h2.252v2.274Zm0-4.42h-2.252V19.04h2.252v2.273Z" fill="url(#aD)"/><path d="M73.293 73.853H71.04V71.58h2.252v2.273Zm0-4.42H71.04v-2.274h2.252v2.273Zm0-4.547H71.04v-2.273h2.252v2.273Zm0-4.42H71.04v-2.274h2.252v2.273Zm0-4.421H71.04v-2.273h2.252v2.273Zm0-4.42H71.04V49.35h2.252v2.274Zm0-4.547H71.04v-2.274h2.252v2.274Zm0-4.42H71.04v-2.274h2.252v2.273Zm0-4.421H71.04v-2.273h2.252v2.273Zm0-4.42H71.04v-2.274h2.252v2.274Zm0-4.547H71.04v-2.273h2.252v2.273Z" fill="url(#aE)"/><path d="M66.162 76H63.91v-.758h2.252V76Zm0-2.905H63.91v-2.273h2.252v2.273Zm0-4.42H63.91V66.4h2.252v2.274Z" fill="url(#aF)"/><path d="M58.906 76h-2.252v-.758h2.252V76Zm0-2.905h-2.252v-2.273h2.252v2.273Zm0-4.42h-2.252V66.4h2.252v2.274Z" fill="url(#aG)"/><path d="M51.775 75.874h-2.252v-2.147h2.252v2.147Zm0-4.42h-2.252V69.18h2.252v2.273Zm0-4.421h-2.252V64.76h2.252v2.273Zm0-4.547h-2.252v-2.273h2.252v2.273Z" fill="url(#aH)"/><path d="M44.644 74.484h-2.252v-2.273h2.252v2.273Zm0-4.42h-2.252v-2.273h2.252v2.273Zm0-4.42h-2.252V63.37h2.252v2.274Zm0-4.547h-2.252v-2.273h2.252v2.273Zm0-4.42h-2.252v-2.274h2.252v2.273Zm0-4.421h-2.252v-2.273h2.252v2.273Zm0-4.42h-2.252v-2.274h2.252v2.274Z" fill="url(#aI)"/><path d="M37.514 76h-2.252v-2.147h2.252V76Zm0-4.42h-2.252v-2.274h2.252v2.274Zm0-4.42h-2.252v-2.274h2.252v2.273Zm0-4.421h-2.252v-2.274h2.252v2.274Zm0-4.42h-2.252v-2.274h2.252v2.273Z" fill="url(#aJ)"/><path d="M30.383 76H28.13v-1.01h2.252V76Zm0-3.157H28.13v-2.274h2.252v2.273Zm0-4.547H28.13v-2.147h2.252v2.147Zm0-4.42H28.13v-2.274h2.252v2.273Z" fill="url(#aK)"/><path d="M23.252 73.98H21v-2.274h2.252v2.273Zm0-4.547H21v-2.274h2.252v2.273Z" fill="url(#aL)"/><path d="M631 81.683h-2.252V79.41H631v2.273Zm0-4.42h-2.252V76H631v1.263Z" fill="url(#aM)"/><path d="M623.869 89.135h-2.252v-2.273h2.252v2.273Zm0-4.42h-2.252V82.44h2.252v2.273Zm0-4.42h-2.252V78.02h2.252v2.273Z" fill="url(#aN)"/><path d="M616.738 94.945h-2.252V92.67h2.252v2.274Zm0-4.547h-2.252v-2.273h2.252v2.273Zm0-4.42h-2.252V83.83h2.252v2.147Zm0-4.42h-2.252v-2.274h2.252v2.273Zm0-4.421h-2.252V76h2.252v1.137Z" fill="url(#aO)"/><path d="M609.607 83.452h-2.251v-2.274h2.251v2.274Zm0-4.547h-2.251v-2.273h2.251v2.273Z" fill="url(#aP)"/><path d="M602.477 90.145h-2.252v-2.273h2.252v2.273Zm0-4.42h-2.252v-2.273h2.252v2.273Zm0-4.42h-2.252V79.03h2.252v2.273Zm0-4.547h-2.252v-.884h2.252v.884Z" fill="url(#aQ)"/><path d="M595.346 101.638h-2.252v-2.273h2.252v2.273Zm0-4.42h-2.252v-2.273h2.252v2.273Zm0-4.42h-2.252v-2.274h2.252v2.274Zm0-4.547h-2.252v-2.273h2.252v2.273Zm0-4.42h-2.252v-2.274h2.252v2.273Zm0-4.421h-2.252v-2.273h2.252v2.273Z" fill="url(#aR)"/><path d="M588.09 85.472h-2.252V83.2h2.252v2.273Zm0-4.546h-2.252v-2.148h2.252v2.148Zm0-4.42h-2.252v-.632h2.252v.631Z" fill="url(#aS)"/><path d="M580.959 95.955h-2.252v-2.273h2.252v2.273Zm0-4.547h-2.252v-2.273h2.252v2.273Zm0-4.42h-2.252v-2.273h2.252v2.273Zm0-4.42h-2.252v-2.274h2.252v2.273Zm0-4.42h-2.252V76h2.252v2.147Z" fill="url(#aT)"/><path d="M573.828 106.943h-2.252v-2.273h2.252v2.273Zm0-4.547h-2.252v-2.147h2.252v2.147Zm0-4.42h-2.252v-2.274h2.252v2.274Zm0-4.42h-2.252v-2.274h2.252v2.273Zm0-4.421h-2.252v-2.273h2.252v2.273Zm0-4.547h-2.252v-2.273h2.252v2.273Zm0-4.42h-2.252v-2.274h2.252v2.274Z" fill="url(#aU)"/><path d="M566.572 105.175h-2.252v-2.274h2.252v2.274Zm0-4.421h-2.252v-2.273h2.252v2.273Zm0-4.42h-2.252V94.06h2.252v2.273Zm0-4.547h-2.252v-2.273h2.252v2.273Zm0-4.42h-2.252v-2.274h2.252v2.274Zm0-4.42h-2.252v-2.274h2.252v2.273Zm0-4.421h-2.252v-2.273h2.252v2.273Z" fill="url(#aV)"/><path d="M559.441 122.73h-2.252v-2.273h2.252v2.273Zm0-4.42h-2.252v-2.274h2.252v2.274Zm0-4.421h-2.252v-2.273h2.252v2.273Zm0-4.42h-2.252v-2.273h2.252v2.273Zm0-4.547h-2.252v-2.147h2.252v2.147Zm0-4.42h-2.252v-2.274h2.252v2.274Zm0-4.42h-2.252v-2.274h2.252v2.273Zm0-4.421h-2.252v-2.273h2.252v2.273Zm0-4.547h-2.252v-2.273h2.252v2.273Zm0-4.42h-2.252V80.42h2.252v2.274Zm0-4.42h-2.252V76h2.252v2.273Z" fill="url(#aW)"/><path d="M550.184 131.192v-2.273h2.252v2.273h-2.252Zm0-4.42v-2.274h2.252v2.274h-2.252Zm0-4.421v-2.273h2.252v2.273h-2.252Zm0-4.546v-2.274h2.252v2.274h-2.252Zm0-4.421v-2.273h2.252v2.273h-2.252Zm0-4.42v-2.274h2.252v2.274h-2.252Zm0-4.421v-2.273h2.252v2.273h-2.252Zm0-4.546v-2.274h2.252v2.274h-2.252Zm0-4.42v-2.274h2.252v2.273h-2.252Zm0-4.421v-2.274h2.252v2.274h-2.252Zm0-4.547v-2.273h2.252v2.273h-2.252Zm0-4.42v-2.147h2.252v2.147h-2.252Zm0-4.42V76h2.252v1.768h-2.252Z" fill="url(#aX)"/><path d="M545.18 121.846h-2.252v-2.273h2.252v2.273Zm0-4.42h-2.252v-2.274h2.252v2.274Zm0-4.421h-2.252v-2.273h2.252v2.273Zm0-4.42h-2.252v-2.274h2.252v2.274Zm0-4.547h-2.252v-2.273h2.252v2.273Zm0-4.42h-2.252v-2.274h2.252v2.274Zm0-4.42h-2.252v-2.274h2.252v2.273Zm0-4.547h-2.252v-2.274h2.252v2.273Zm0-4.42h-2.252v-2.274h2.252v2.273Zm0-4.421h-2.252v-2.274h2.252v2.274Zm0-4.42h-2.252V76h2.252v1.39Z" fill="url(#aY)"/><path d="M538.049 141.043h-2.252v-2.273h2.252v2.273Zm0-4.42h-2.252v-2.274h2.252v2.274Zm0-4.421h-2.252v-2.273h2.252v2.273Zm0-4.42h-2.252v-2.273h2.252v2.273Zm0-4.547h-2.252v-2.273h2.252v2.273Zm0-4.42h-2.252v-2.273h2.252v2.273Zm0-4.421h-2.252v-2.273h2.252v2.273Zm0-4.42h-2.252v-2.273h2.252v2.273Zm0-4.547h-2.252v-2.273h2.252v2.273Zm0-4.42h-2.252v-2.273h2.252v2.273Zm0-4.42h-2.252v-2.274h2.252v2.273Zm0-4.547h-2.252v-2.274h2.252v2.274Zm0-4.42h-2.252v-2.274h2.252v2.273Zm0-4.421h-2.252v-2.273h2.252v2.273Zm0-4.42h-2.252v-2.274h2.252v2.273Z" fill="url(#aZ)"/><path d="M530.918 95.45h-2.252v-2.273h2.252v2.273Zm0-4.42h-2.252v-2.274h2.252v2.273Zm0-4.547h-2.252v-2.274h2.252v2.274Zm0-4.42h-2.252v-2.274h2.252v2.273Zm0-4.421h-2.252V76h2.252v1.642Z" fill="url(#ba)"/><path d="M523.787 110.1h-2.252v-2.273h2.252v2.273Zm0-4.42h-2.252v-2.273h2.252v2.273Zm0-4.42h-2.252v-2.274h2.252v2.274Zm0-4.547h-2.252V94.44h2.252v2.273Zm0-4.42h-2.252v-2.274h2.252v2.273Zm0-4.421h-2.252v-2.273h2.252v2.273Zm0-4.547h-2.252v-2.273h2.252v2.273Zm0-4.42h-2.252v-2.273h2.252v2.273Z" fill="url(#bb)"/><path d="M516.656 119.32h-2.252v-2.273h2.252v2.273Zm0-4.42h-2.252v-2.274h2.252v2.274Zm0-4.421h-2.252v-2.273h2.252v2.273Zm0-4.546h-2.252v-2.274h2.252v2.274Zm0-4.421h-2.252v-2.273h2.252v2.273Zm0-4.42h-2.252v-2.274h2.252v2.274Zm0-4.42h-2.252v-2.274h2.252v2.273Zm0-4.547h-2.252V85.85h2.252v2.274Zm0-4.42h-2.252V81.43h2.252v2.273Zm0-4.421h-2.252V77.01h2.252v2.274Z" fill="url(#bc)"/><path d="M509.525 109.469h-2.251v-2.273h2.251v2.273Zm0-4.421h-2.251v-2.273h2.251v2.273Zm0-4.546h-2.251v-2.274h2.251v2.274Zm0-4.42h-2.251v-2.274h2.251v2.273Zm0-4.421h-2.251v-2.273h2.251v2.273Zm0-4.547h-2.251v-2.273h2.251v2.273Zm0-4.42h-2.251V80.42h2.251v2.274Zm0-4.42h-2.251V76h2.251v2.273Z" fill="url(#bd)"/><path d="M502.269 106.69h-2.251v-2.273h2.251v2.273Zm0-4.546h-2.251V99.87h2.251v2.274Zm0-4.42h-2.251V95.45h2.251v2.273Zm0-4.421h-2.251v-2.274h2.251v2.274Zm0-4.42h-2.251v-2.274h2.251v2.273Zm0-4.547h-2.251v-2.274h2.251v2.274Zm0-4.42h-2.251v-2.274h2.251v2.273Z" fill="url(#be)"/><path d="M495.139 97.85h-2.252v-2.274h2.252v2.274Zm0-4.42h-2.252v-2.274h2.252v2.273Zm0-4.421h-2.252v-2.274h2.252v2.274Zm0-4.42h-2.252v-2.274h2.252v2.273Zm0-4.547h-2.252v-2.274h2.252v2.273Z" fill="url(#bf)"/><path d="M488.008 77.894h-2.252v2.274h2.252v-2.274Z" fill="url(#bg)"/><path d="M480.877 84.967h-2.252v-2.273h2.252v2.273Zm0-4.547h-2.252v-2.273h2.252v2.273Zm0-4.42h-2.252v-.126l2.252.126Z" fill="url(#bh)"/><path d="M473.621 92.419h-2.252v-2.274h2.252v2.274Zm0-4.42h-2.252v-2.274h2.252v2.273Zm0-4.547h-2.252v-2.147h2.252v2.146Zm0-4.42h-2.252v-2.274h2.252v2.273Z" fill="url(#bi)"/><path d="M466.49 105.68h-2.252v-2.273h2.252v2.273Zm0-4.42h-2.252v-2.274h2.252v2.274Zm0-4.547h-2.252V94.44h2.252v2.273Zm0-4.42h-2.252v-2.274h2.252v2.273Zm0-4.421h-2.252v-2.273h2.252v2.273Zm0-4.547h-2.252v-2.273h2.252v2.273Zm0-4.42h-2.252v-2.273h2.252v2.273Z" fill="url(#bj)"/><path d="M459.359 120.204h-2.252v-2.273h2.252v2.273Zm0-4.547h-2.252v-2.273h2.252v2.273Zm0-4.42h-2.252v-2.273h2.252v2.273Zm0-4.42h-2.252v-2.274h2.252v2.274Zm0-4.547h-2.252v-2.273h2.252v2.273Zm0-4.42h-2.252v-2.274h2.252v2.274Zm0-4.42h-2.252v-2.274h2.252v2.273Zm0-4.421h-2.252v-2.274h2.252v2.274Zm0-4.547h-2.252v-2.273h2.252v2.273Zm0-4.42h-2.252v-2.274h2.252v2.273Z" fill="url(#bk)"/><path d="M450.102 81.178v-2.273h2.252v2.273h-2.252Zm0-4.42V76h2.252v.758h-2.252Z" fill="url(#bl)"/><path d="M445.098 87.367h-2.252v-2.274h2.252v2.274Zm0-4.42h-2.252v-2.274h2.252v2.273Zm0-4.421h-2.252v-2.273h2.252v2.273Z" fill="url(#bm)"/><path d="M437.967 100.123h-2.252V97.85h2.252v2.273Zm0-4.42h-2.252v-2.274h2.252v2.273Zm0-4.421h-2.252v-2.273h2.252v2.273Zm0-4.547h-2.252v-2.273h2.252v2.273Zm0-4.42h-2.252v-2.273h2.252v2.273Zm0-4.42h-2.252v-2.021h2.252v2.02Z" fill="url(#bn)"/><path d="M430.836 129.171h-2.252v-2.273h2.252v2.273Zm0-4.546h-2.252v-2.274h2.252v2.274Zm0-4.421h-2.252v-2.273h2.252v2.273Zm0-4.42h-2.252v-2.274h2.252v2.274Zm0-4.421h-2.252v-2.273h2.252v2.273Zm0-4.546h-2.252v-2.274h2.252v2.274Zm0-4.421h-2.252v-2.273h2.252v2.273Zm0-4.42h-2.252v-2.274h2.252v2.274Zm0-4.42h-2.252v-2.274h2.252v2.273Zm0-4.547h-2.252v-2.274h2.252v2.274Zm0-4.42h-2.252v-2.274h2.252v2.273Zm0-4.421h-2.252v-2.274h2.252v2.274Z" fill="url(#bo)"/><path d="M423.705 109.595h-2.252v-2.273h2.252v2.273Zm0-4.42h-2.252v-2.274h2.252v2.274Zm0-4.421h-2.252v-2.273h2.252v2.273Zm0-4.42h-2.252V94.06h2.252v2.273Zm0-4.547h-2.252v-2.273h2.252v2.273Zm0-4.42h-2.252v-2.274h2.252v2.274Zm0-4.42h-2.252v-2.274h2.252v2.273Zm0-4.421h-2.252v-2.273h2.252v2.273Z" fill="url(#bp)"/><path d="M416.574 123.109h-2.252v-2.273h2.252v2.273Zm0-4.42h-2.252v-2.274h2.252v2.274Zm0-4.421h-2.252v-2.273h2.252v2.273Zm0-4.547h-2.252v-2.273h2.252v2.273Zm0-4.42h-2.252v-2.273h2.252v2.273Zm0-4.42h-2.252v-2.274h2.252v2.274Zm0-4.42h-2.252v-2.274h2.252v2.273Zm0-4.547h-2.252V89.64h2.252v2.273Zm0-4.42h-2.252V85.22h2.252v2.273Zm0-4.421h-2.252v-2.274h2.252v2.274Zm0-4.42h-2.252v-2.274h2.252v2.273Z" fill="url(#bq)"/><path d="M409.318 149h-2.252v-2.273h2.252V149Zm0-4.547h-2.252v-2.273h2.252v2.273Zm0-4.42h-2.252v-2.273h2.252v2.273Zm0-4.421h-2.252v-2.273h2.252v2.273Zm0-4.42h-2.252v-2.273h2.252v2.273Zm0-4.547h-2.252v-2.273h2.252v2.273Zm0-4.42h-2.252v-2.273h2.252v2.273Zm0-4.421h-2.252v-2.273h2.252v2.273Zm0-4.42h-2.252v-2.273h2.252v2.273Zm0-4.547h-2.252v-2.273h2.252v2.273Zm0-4.42h-2.252v-2.273h2.252v2.273Zm0-4.42h-2.252v-2.274h2.252v2.273Zm0-4.547h-2.252v-2.273h2.252v2.273Zm0-4.42h-2.252v-2.148h2.252v2.147Zm0-4.421h-2.252v-2.273h2.252v2.273Zm0-4.42h-2.252v-2.274h2.252v2.274Zm0-4.547h-2.252v-1.768h2.252v1.768Z" fill="url(#br)"/><path d="M402.187 141.675h-2.251v-2.274h2.251v2.274Zm0-4.547h-2.251v-2.273h2.251v2.273Zm0-4.42h-2.251v-2.274h2.251v2.274Zm0-4.421h-2.251v-2.273h2.251v2.273Zm0-4.42h-2.251v-2.274h2.251v2.274Zm0-4.547h-2.251v-2.273h2.251v2.273Zm0-4.42h-2.251v-2.274h2.251v2.274Zm0-4.421h-2.251v-2.273h2.251v2.273Zm0-4.546h-2.251v-2.274h2.251v2.274Zm0-4.421h-2.251v-2.273h2.251v2.273Zm0-4.42h-2.251v-2.274h2.251v2.274Zm0-4.42h-2.251v-2.274h2.251v2.273Zm0-4.547h-2.251V85.85h2.251v2.274Zm0-4.42h-2.251V81.43h2.251v2.273Zm0-4.421h-2.251V77.01h2.251v2.274Z" fill="url(#bs)"/><path d="M395.057 128.413h-2.252v-2.273h2.252v2.273Zm0-4.42h-2.252v-2.273h2.252v2.273Zm0-4.547h-2.252v-2.273h2.252v2.273Zm0-4.42h-2.252v-2.273h2.252v2.273Zm0-4.42h-2.252v-2.274h2.252v2.274Zm0-4.547h-2.252v-2.274h2.252v2.274Zm0-4.421h-2.252v-2.273h2.252v2.273Zm0-4.42h-2.252v-2.273h2.252v2.273Zm0-4.42h-2.252v-2.274h2.252v2.274Zm0-4.547h-2.252v-2.273h2.252v2.273Zm0-4.42h-2.252v-2.274h2.252v2.273Zm0-4.421h-2.252v-2.273h2.252v2.273Z" fill="url(#bt)"/><path d="M387.926 108.458h-2.252v-2.273h2.252v2.273Zm0-4.546h-2.252v-2.274h2.252v2.274Zm0-4.42h-2.252v-2.274h2.252v2.273Zm0-4.421h-2.252v-2.273h2.252v2.273Zm0-4.547h-2.252v-2.273h2.252v2.273Zm0-4.42h-2.252V83.83h2.252v2.273Zm0-4.42h-2.252V79.41h2.252v2.273Zm0-4.421h-2.252V76h2.252v1.263Z" fill="url(#bu)"/><path d="M380.67 85.472h-2.252V83.2h2.252v2.273Zm0-4.546h-2.252v-2.148h2.252v2.148Zm0-4.42h-2.252v-.632h2.252v.631Z" fill="url(#bv)"/><path d="M373.539 92.924h-2.252V90.65h2.252v2.274Zm0-4.42h-2.252V86.23h2.252v2.273Zm0-4.547h-2.252v-2.274h2.252v2.274Zm0-4.42h-2.252v-2.274h2.252v2.273Z" fill="url(#bw)"/><path d="M366.408 102.144h-2.252V99.87h2.252v2.274Zm0-4.42h-2.252V95.45h2.252v2.273Zm0-4.421h-2.252v-2.274h2.252v2.274Zm0-4.547h-2.252v-2.273h2.252v2.273Zm0-4.42h-2.252v-2.274h2.252v2.274Zm0-4.42h-2.252v-2.274h2.252v2.273Z" fill="url(#bx)"/><path d="M359.277 113.637h-2.252v-2.274h2.252v2.274Zm0-4.421h-2.252v-2.273h2.252v2.273Zm0-4.42h-2.252v-2.274h2.252v2.274Zm0-4.547h-2.252v-2.273h2.252v2.273Zm0-4.42h-2.252v-2.274h2.252v2.274Zm0-4.42h-2.252v-2.274h2.252v2.273Zm0-4.547h-2.252v-2.274h2.252v2.274Zm0-4.42h-2.252v-2.274h2.252v2.273Zm0-4.421h-2.252v-2.147h2.252v2.147Z" fill="url(#by)"/><path d="M350.02 120.583v-2.273h2.252v2.273h-2.252Zm0-4.42v-2.274h2.252v2.274h-2.252Zm0-4.421v-2.273h2.252v2.273h-2.252Zm0-4.42v-2.274h2.252v2.274h-2.252Zm0-4.547v-2.273h2.252v2.273h-2.252Zm0-4.42V96.08h2.252v2.274h-2.252Zm0-4.42V91.66h2.252v2.273h-2.252Zm0-4.421V87.24h2.252v2.273h-2.252Zm0-4.547v-2.273h2.252v2.273h-2.252Zm0-4.42v-2.274h2.252v2.274h-2.252Zm0-4.42V76h2.252v.126h-2.252Z" fill="url(#bz)"/><path d="M345.016 134.602h-2.252v-2.273h2.252v2.273Zm0-4.42h-2.252v-2.274h2.252v2.274Zm0-4.421h-2.252v-2.273h2.252v2.273Zm0-4.546h-2.252v-2.274h2.252v2.274Zm0-4.421h-2.252v-2.273h2.252v2.273Zm0-4.42h-2.252V110.1h2.252v2.274Zm0-4.421h-2.252v-2.273h2.252v2.273Zm0-4.546h-2.252v-2.274h2.252v2.274Zm0-4.42h-2.252v-2.274h2.252v2.273Zm0-4.421h-2.252v-2.274h2.252v2.274Zm0-4.42h-2.252v-2.274h2.252v2.273Zm0-4.547h-2.252v-2.274h2.252V85.6Zm0-4.42h-2.252v-2.274h2.252v2.273Zm0-4.421h-2.252V76h2.252v.758Z" fill="url(#bA)"/><path d="M337.885 123.109h-2.252v-2.273h2.252v2.273Zm0-4.42h-2.252v-2.274h2.252v2.274Zm0-4.421h-2.252v-2.273h2.252v2.273Zm0-4.547h-2.252v-2.273h2.252v2.273Zm0-4.42h-2.252v-2.273h2.252v2.273Zm0-4.42h-2.252v-2.274h2.252v2.274Zm0-4.42h-2.252v-2.274h2.252v2.273Zm0-4.547h-2.252V89.64h2.252v2.273Zm0-4.42h-2.252V85.22h2.252v2.273Zm0-4.421h-2.252v-2.274h2.252v2.274Zm0-4.42h-2.252v-2.274h2.252v2.273Z" fill="url(#bB)"/><path d="M330.754 111.868h-2.252v-2.273h2.252v2.273Zm0-4.42h-2.252v-2.273h2.252v2.273Zm0-4.42h-2.252v-2.274h2.252v2.274Zm0-4.547h-2.252v-2.273h2.252v2.273Zm0-4.42h-2.252v-2.274h2.252v2.273Zm0-4.42h-2.252v-2.274h2.252v2.273Zm0-4.421h-2.252v-2.274h2.252v2.274Zm0-4.547h-2.252V78.4h2.252v2.273Zm0-4.42h-2.252v-.38h2.252v.38Z" fill="url(#bC)"/><path d="M323.498 100.881h-2.252v-2.274h2.252v2.274Zm0-4.42h-2.252v-2.274h2.252v2.273Zm0-4.421h-2.252v-2.274h2.252v2.274Zm0-4.547h-2.252V85.22h2.252v2.273Zm0-4.42h-2.252v-2.274h2.252v2.274Zm0-4.42h-2.252v-2.274h2.252v2.273Z" fill="url(#bD)"/><path d="M316.367 82.189h-2.252v-2.274h2.252v2.274Zm0-4.42h-2.252V76h2.252v1.768Z" fill="url(#bE)"/><path d="M309.236 93.682h-2.252v-2.274h2.252v2.274Zm0-4.42h-2.252v-2.274h2.252v2.273Zm0-4.547h-2.252v-2.148h2.252v2.148Zm0-4.42h-2.252V78.02h2.252v2.273Z" fill="url(#bF)"/><path d="M302.105 102.901h-2.251v-2.273h2.251v2.273Zm0-4.42h-2.251v-2.273h2.251v2.273Zm0-4.42h-2.251v-2.274h2.251v2.274Zm0-4.42h-2.251v-2.274h2.251v2.273Zm0-4.548h-2.251V82.82h2.251v2.273Zm0-4.42h-2.251V78.4h2.251v2.273Zm0-4.42h-2.251V76h2.251v.253Z" fill="url(#bG)"/><path d="M294.975 112.5h-2.252v-2.147h2.252v2.147Zm0-4.42h-2.252v-2.274h2.252v2.274Zm0-4.421h-2.252v-2.273h2.252v2.273Zm0-4.547h-2.252V96.84h2.252v2.273Zm0-4.42h-2.252v-2.273h2.252v2.273Zm0-4.42h-2.252v-2.274h2.252v2.274Zm0-4.42h-2.252v-2.274h2.252v2.273Zm0-4.547h-2.252V79.03h2.252v2.273Zm0-4.42h-2.252v-1.011h2.252v1.01Z" fill="url(#bH)"/><path d="M287.719 125.003h-2.252v-2.273h2.252v2.273Zm0-4.42h-2.252v-2.273h2.252v2.273Zm0-4.547h-2.252v-2.273h2.252v2.273Zm0-4.42h-2.252v-2.273h2.252v2.273Zm0-4.421h-2.252v-2.273h2.252v2.273Zm0-4.42h-2.252v-2.273h2.252v2.273Zm0-4.547h-2.252v-2.273h2.252v2.273Zm0-4.42h-2.252v-2.273h2.252v2.273Zm0-4.42h-2.252v-2.274h2.252v2.273Zm0-4.42h-2.252v-2.274h2.252v2.273Zm0-4.548h-2.252v-2.273h2.252v2.273Z" fill="url(#bI)"/><path d="M280.588 145.337h-2.252v-2.147h2.252v2.147Zm0-4.42h-2.252v-2.273h2.252v2.273Zm0-4.42h-2.252v-2.274h2.252v2.274Zm0-4.421h-2.252v-2.273h2.252v2.273Zm0-4.547h-2.252v-2.273h2.252v2.273Zm0-4.42h-2.252v-2.273h2.252v2.273Zm0-4.42h-2.252v-2.274h2.252v2.274Zm0-4.547h-2.252v-2.273h2.252v2.273Zm0-4.421h-2.252v-2.273h2.252v2.273Zm0-4.42h-2.252v-2.273h2.252v2.273Zm0-4.42h-2.252v-2.274h2.252v2.274Zm0-4.547h-2.252V94.06h2.252v2.273Zm0-4.42h-2.252V89.64h2.252v2.273Zm0-4.42h-2.252V85.22h2.252v2.273Zm0-4.421h-2.252v-2.274h2.252v2.274Zm0-4.547h-2.252v-2.273h2.252v2.273Z" fill="url(#bJ)"/><path d="M273.457 138.77h-2.252v-2.273h2.252v2.273Zm0-4.547h-2.252v-2.273h2.252v2.273Zm0-4.42h-2.252v-2.274h2.252v2.274Zm0-4.421h-2.252v-2.273h2.252v2.273Zm0-4.42h-2.252v-2.273h2.252v2.273Zm0-4.547h-2.252v-2.273h2.252v2.273Zm0-4.42h-2.252v-2.274h2.252v2.274Zm0-4.421h-2.252v-2.273h2.252v2.273Zm0-4.546h-2.252v-2.274h2.252v2.274Zm0-4.42h-2.252V96.46h2.252v2.147Zm0-4.421h-2.252v-2.273h2.252v2.273Zm0-4.42h-2.252v-2.274h2.252v2.273Zm0-4.547h-2.252v-2.274h2.252v2.274Zm0-4.42h-2.252v-2.274h2.252v2.273Zm0-4.421h-2.252V76h2.252v.379Z" fill="url(#bK)"/><path d="M266.326 127.656h-2.252v-2.147h2.252v2.147Zm0-4.421h-2.252v-2.273h2.252v2.273Zm0-4.42h-2.252v-2.273h2.252v2.273Zm0-4.421h-2.252v-2.273h2.252v2.273Zm0-4.546h-2.252v-2.274h2.252v2.274Zm0-4.421h-2.252v-2.273h2.252v2.273Zm0-4.42h-2.252v-2.273h2.252v2.273Zm0-4.42h-2.252v-2.274h2.252v2.273Zm0-4.547h-2.252v-2.274h2.252v2.274Zm0-4.42h-2.252v-2.274h2.252v2.273Zm0-4.421h-2.252v-2.273h2.252v2.273Zm0-4.547h-2.252V76.38h2.252v2.273Z" fill="url(#bL)"/><path d="M259.195 116.92h-2.252v-2.273h2.252v2.273Zm0-4.42h-2.252v-2.273h2.252v2.273Zm0-4.547h-2.252v-2.273h2.252v2.273Zm0-4.42h-2.252v-2.273h2.252v2.273Zm0-4.42h-2.252v-2.274h2.252v2.273Zm0-4.547h-2.252v-2.274h2.252v2.274Zm0-4.42h-2.252v-2.274h2.252v2.273Zm0-4.421h-2.252v-2.273h2.252v2.273Zm0-4.42h-2.252V79.03h2.252v2.273Zm0-4.547h-2.252v-.884h2.252v.884Z" fill="url(#bM)"/><path d="M249.938 91.156v-2.274h2.251v2.274h-2.251Zm0-4.547v-2.273h2.251v2.273h-2.251Zm0-4.42v-2.274h2.251v2.274h-2.251Zm0-4.42V76h2.251v1.768h-2.251Z" fill="url(#bN)"/><path d="M244.934 84.967h-2.252v-2.273h2.252v2.273Zm0-4.547h-2.252v-2.273h2.252v2.273Z" fill="url(#bO)"/><path d="M237.678 124.877h-2.252v-2.273h2.252v2.273Zm0-4.42h-2.252v-2.274h2.252v2.274Zm0-4.421h-2.252v-2.273h2.252v2.273Zm0-4.546h-2.252v-2.274h2.252v2.274Zm0-4.421h-2.252v-2.273h2.252v2.273Zm0-4.42h-2.252v-2.274h2.252v2.274Zm0-4.547h-2.252V95.83h2.252v2.273Zm0-4.42h-2.252v-2.274h2.252v2.274Zm0-4.42h-2.252v-2.274h2.252v2.273Zm0-4.421h-2.252v-2.273h2.252v2.273Zm0-4.547h-2.252v-2.273h2.252v2.273Z" fill="url(#bP)"/><path d="M230.547 112.247h-2.252v-2.273h2.252v2.273Zm0-4.42h-2.252v-2.273h2.252v2.273Zm0-4.547h-2.252v-2.273h2.252v2.273Zm0-4.42h-2.252v-2.273h2.252v2.273Zm0-4.42h-2.252v-2.274h2.252v2.273Zm0-4.42h-2.252v-2.274h2.252v2.273Zm0-4.548h-2.252V83.2h2.252v2.273Zm0-4.42h-2.252v-2.273h2.252v2.273Zm0-4.42h-2.252V76h2.252v.632Z" fill="url(#bQ)"/><path d="M223.416 85.599h-2.252v-2.274h2.252V85.6Zm0-4.42h-2.252v-2.274h2.252v2.273Zm0-4.547h-2.252v-.758h2.252v.758Z" fill="url(#bR)"/><path d="M216.285 90.398h-2.252v-2.273h2.252v2.273Zm0-4.42h-2.252v-2.274h2.252v2.274Zm0-4.547h-2.252v-2.274h2.252v2.274Zm0-4.42h-2.252v-1.137h2.252v1.136Z" fill="url(#bS)"/><path d="M209.154 121.215h-2.252v-2.274h2.252v2.274Zm0-4.421h-2.252v-2.273h2.252v2.273Zm0-4.42h-2.252V110.1h2.252v2.274Zm0-4.421h-2.252v-2.273h2.252v2.273Zm0-4.546h-2.252v-2.274h2.252v2.274Zm0-4.42h-2.252v-2.274h2.252v2.273Zm0-4.421h-2.252v-2.274h2.252v2.274Zm0-4.42h-2.252v-2.274h2.252v2.273Zm0-4.547h-2.252v-2.274h2.252V85.6Zm0-4.42h-2.252v-2.274h2.252v2.273Zm0-4.421h-2.252V76h2.252v.758Z" fill="url(#bT)"/><path d="M202.023 113.131h-2.251v-2.273h2.251v2.273Zm0-4.42h-2.251v-2.273h2.251v2.273Zm0-4.42h-2.251v-2.274h2.251v2.274Zm0-4.42h-2.251v-2.274h2.251v2.273Zm0-4.547h-2.251V93.05h2.251v2.273Zm0-4.42h-2.251V88.63h2.251v2.273Zm0-4.421h-2.251v-2.274h2.251v2.274Zm0-4.547h-2.251v-2.273h2.251v2.273Zm0-4.42h-2.251v-1.642h2.251v1.642Z" fill="url(#bU)"/><path d="M194.893 105.806h-2.252v-2.273h2.252v2.273Zm0-4.42h-2.252v-2.273h2.252v2.273Zm0-4.42h-2.252v-2.274h2.252v2.273Zm0-4.547h-2.252v-2.274h2.252v2.274Zm0-4.42h-2.252v-2.274h2.252v2.273Zm0-4.421h-2.252v-2.273h2.252v2.273Zm0-4.42h-2.252v-2.274h2.252v2.273Z" fill="url(#bV)"/><path d="M187.637 144.074h-2.252v-2.147h2.252v2.147Zm0-4.42h-2.252v-2.273h2.252v2.273Zm0-4.42h-2.252v-2.274h2.252v2.274Zm0-4.421h-2.252v-2.273h2.252v2.273Zm0-4.547h-2.252v-2.273h2.252v2.273Zm0-4.42h-2.252v-2.273h2.252v2.273Zm0-4.42h-2.252v-2.274h2.252v2.274Zm0-4.421h-2.252v-2.273h2.252v2.273Zm0-4.547h-2.252v-2.273h2.252v2.273Zm0-4.42h-2.252v-2.273h2.252v2.273Zm0-4.42h-2.252v-2.274h2.252v2.274Zm0-4.547h-2.252v-2.273h2.252v2.273Zm0-4.42h-2.252v-2.274h2.252v2.273Zm0-4.42h-2.252v-2.274h2.252v2.273Zm0-4.421h-2.252v-2.274h2.252v2.274Zm0-4.547h-2.252v-1.39h2.252v1.39Z" fill="url(#bW)"/><path d="M180.506 134.981h-2.252v-2.273h2.252v2.273Zm0-4.42h-2.252v-2.274h2.252v2.274Zm0-4.547h-2.252v-2.274h2.252v2.274Zm0-4.421h-2.252v-2.273h2.252v2.273Zm0-4.42h-2.252V114.9h2.252v2.273Zm0-4.42h-2.252v-2.274h2.252v2.274Zm0-4.547h-2.252v-2.273h2.252v2.273Zm0-4.421h-2.252v-2.273h2.252v2.273Zm0-4.42h-2.252v-2.273h2.252v2.273Zm0-4.42h-2.252V92.67h2.252v2.274Zm0-4.547h-2.252v-2.273h2.252v2.273Zm0-4.42h-2.252v-2.274h2.252v2.274Zm0-4.42h-2.252v-2.274h2.252v2.273Zm0-4.548h-2.252v-1.136h2.252v1.136Z" fill="url(#bX)"/><path d="M173.375 121.72h-2.252v-2.274h2.252v2.274Zm0-4.421h-2.252v-2.273h2.252v2.273Zm0-4.42h-2.252v-2.273h2.252v2.273Zm0-4.421h-2.252v-2.273h2.252v2.273Zm0-4.546h-2.252v-2.274h2.252v2.274Zm0-4.42h-2.252v-2.274h2.252v2.273Zm0-4.421h-2.252v-2.273h2.252v2.273Zm0-4.42h-2.252v-2.274h2.252v2.273Zm0-4.547h-2.252V83.83h2.252v2.273Zm0-4.42h-2.252V79.41h2.252v2.273Zm0-4.421h-2.252V76h2.252v1.263Z" fill="url(#bY)"/><path d="M166.244 116.163h-2.252v-2.274h2.252v2.274Zm0-4.421h-2.252v-2.273h2.252v2.273Zm0-4.42h-2.252v-2.274h2.252v2.274Zm0-4.547h-2.252v-2.273h2.252v2.273Zm0-4.42h-2.252V96.08h2.252v2.274Zm0-4.42h-2.252V91.66h2.252v2.273Zm0-4.547h-2.252v-2.274h2.252v2.274Zm0-4.42h-2.252v-2.274h2.252v2.273Zm0-4.421h-2.252v-2.274h2.252v2.274Zm0-4.42h-2.252V76h2.252v.126Z" fill="url(#bZ)"/><path d="M159.113 109.216h-2.252v-2.273h2.252v2.273Zm0-4.42h-2.252v-2.274h2.252v2.274Zm0-4.421h-2.252v-2.273h2.252v2.273Zm0-4.546h-2.252v-2.274h2.252v2.274Zm0-4.42h-2.252v-2.274h2.252v2.273Zm0-4.421h-2.252v-2.273h2.252v2.273Zm0-4.42h-2.252v-2.274h2.252v2.273Zm0-4.547h-2.252v-2.147h2.252v2.147Z" fill="url(#ca)"/><path d="M149.856 93.05v-2.273h2.251v2.273h-2.251Zm0-4.42v-2.274h2.251v2.274h-2.251Zm0-4.42v-2.274h2.251v2.273h-2.251Zm0-4.547v-2.147h2.251v2.147h-2.251Z" fill="url(#cb)"/><path d="M144.726 85.093h-2.251V82.82h2.251v2.273Zm0-4.42h-2.251V78.4h2.251v2.273Zm0-4.547h-2.251v-.252h2.251v.252Z" fill="url(#cc)"/><path d="M137.596 99.618h-2.252v-2.274h2.252v2.274Zm0-4.547h-2.252v-2.273h2.252v2.273Zm0-4.42h-2.252v-2.274h2.252v2.273Zm0-4.42h-2.252v-2.274h2.252v2.273Zm0-4.421h-2.252v-2.274h2.252v2.274Zm0-4.547h-2.252v-1.39h2.252v1.39Z" fill="url(#cd)"/><path d="M130.465 119.067h-2.252v-2.273h2.252v2.273Zm0-4.42h-2.252v-2.273h2.252v2.273Zm0-4.547h-2.252v-2.273h2.252v2.273Zm0-4.42h-2.252v-2.273h2.252v2.273Zm0-4.421h-2.252v-2.273h2.252v2.273Zm0-4.42h-2.252v-2.273h2.252v2.273Zm0-4.547h-2.252v-2.147h2.252v2.147Zm0-4.42h-2.252v-2.273h2.252v2.273Zm0-4.42h-2.252v-2.274h2.252v2.273Zm0-4.42h-2.252v-2.274h2.252v2.273Z" fill="url(#ce)"/><path d="M123.334 102.901h-2.252v-2.273h2.252v2.273Zm0-4.42h-2.252v-2.273h2.252v2.273Zm0-4.42h-2.252v-2.274h2.252v2.273Zm0-4.547h-2.252V87.24h2.252v2.273Zm0-4.42h-2.252V82.82h2.252v2.273Zm0-4.421h-2.252V78.4h2.252v2.273Zm0-4.547h-2.252v-.252h2.252v.252Z" fill="url(#cf)"/><path d="M116.203 109.216h-2.252v-2.273h2.252v2.273Zm0-4.42h-2.252v-2.274h2.252v2.274Zm0-4.421h-2.252v-2.273h2.252v2.273Zm0-4.546h-2.252v-2.274h2.252v2.274Zm0-4.42h-2.252v-2.274h2.252v2.273Zm0-4.421h-2.252v-2.273h2.252v2.273Zm0-4.42h-2.252v-2.274h2.252v2.273Zm0-4.547h-2.252v-2.147h2.252v2.147Z" fill="url(#cg)"/><path d="M109.072 93.934h-2.252v-2.273h2.252v2.273Zm0-4.42h-2.252V87.24h2.252v2.273Zm0-4.547h-2.252v-2.273h2.252v2.273Zm0-4.42h-2.252v-2.274h2.252v2.274Z" fill="url(#ch)"/><path d="M101.941 130.939h-2.252v-2.273h2.252v2.273Zm0-4.546h-2.252v-2.147h2.252v2.147Zm0-4.421h-2.252v-2.273h2.252v2.273Zm0-4.42h-2.252v-2.273h2.252v2.273Zm0-4.421h-2.252v-2.273h2.252v2.273Zm0-4.546h-2.252v-2.274h2.252v2.274Zm0-4.421h-2.252v-2.273h2.252v2.273Zm0-4.42h-2.252V97.47h2.252v2.273Zm0-4.547h-2.252v-2.273h2.252v2.273Zm0-4.42h-2.252v-2.274h2.252v2.274Zm0-4.42h-2.252v-2.274h2.252v2.273Zm0-4.421h-2.252v-2.273h2.252v2.273Zm0-4.547h-2.252v-1.515h2.252v1.515Z" fill="url(#ci)"/><path d="M94.685 120.078h-2.252v-2.273h2.252v2.273Zm0-4.421h-2.252v-2.273h2.252v2.273Zm0-4.546h-2.252v-2.274h2.252v2.274Zm0-4.421h-2.252v-2.273h2.252v2.273Zm0-4.42h-2.252v-2.273h2.252v2.273Zm0-4.42h-2.252v-2.274h2.252v2.274Zm0-4.547h-2.252v-2.274h2.252v2.274Zm0-4.42h-2.252v-2.274h2.252v2.273Zm0-4.421h-2.252v-2.273h2.252v2.273Zm0-4.547h-2.252v-2.273h2.252v2.273Z" fill="url(#cj)"/><path d="M87.555 114.394h-2.252v-2.273h2.252v2.273Zm0-4.42h-2.252v-2.273h2.252v2.273Zm0-4.547h-2.252v-2.273h2.252v2.273Zm0-4.42h-2.252v-2.273h2.252v2.273Zm0-4.42h-2.252v-2.274h2.252v2.273Zm0-4.42h-2.252v-2.274h2.252v2.273Zm0-4.548h-2.252v-2.273h2.252v2.273Zm0-4.42h-2.252v-2.273h2.252v2.273Zm0-4.42h-2.252v-2.274h2.252v2.273Z" fill="url(#ck)"/><path d="M80.424 132.834h-2.252v-2.273h2.252v2.273Zm0-4.421h-2.252v-2.273h2.252v2.273Zm0-4.42h-2.252v-2.273h2.252v2.273Zm0-4.42h-2.252v-2.274h2.252v2.274Zm0-4.547h-2.252v-2.147h2.252v2.147Zm0-4.42h-2.252v-2.274h2.252v2.274Zm0-4.421h-2.252v-2.273h2.252v2.273Zm0-4.42h-2.252v-2.274h2.252v2.274Zm0-4.547h-2.252v-2.273h2.252v2.273Zm0-4.42h-2.252v-2.274h2.252v2.274Zm0-4.42h-2.252v-2.274h2.252v2.273Zm0-4.548h-2.252v-2.273h2.252v2.273Zm0-4.42h-2.252v-2.273h2.252v2.273Z" fill="url(#cl)"/><path d="M73.293 124.877H71.04v-2.273h2.252v2.273Zm0-4.42H71.04v-2.274h2.252v2.274Zm0-4.421H71.04v-2.273h2.252v2.273Zm0-4.546H71.04v-2.274h2.252v2.274Zm0-4.421H71.04v-2.273h2.252v2.273Zm0-4.42H71.04v-2.274h2.252v2.274Zm0-4.547H71.04V95.83h2.252v2.273Zm0-4.42H71.04v-2.274h2.252v2.274Zm0-4.42H71.04v-2.274h2.252v2.273Zm0-4.421H71.04v-2.273h2.252v2.273Zm0-4.547H71.04v-2.273h2.252v2.273Z" fill="url(#cm)"/><path d="M66.162 85.599H63.91v-2.274h2.252V85.6Zm0-4.42H63.91v-2.274h2.252v2.273Zm0-4.547H63.91v-.758h2.252v.758Z" fill="url(#cn)"/><path d="M58.906 85.599h-2.252v-2.274h2.252V85.6Zm0-4.42h-2.252v-2.274h2.252v2.273Zm0-4.547h-2.252v-.758h2.252v.758Z" fill="url(#co)"/><path d="M51.775 93.66h-2.252v-2.272h2.252v2.273Zm0-4.42h-2.252v-2.273h2.252v2.273Zm0-4.42h-2.252v-2.273h2.252v2.273Zm0-4.547h-2.252V78h2.252v2.273Z" fill="url(#cp)"/><path d="M44.644 106.438h-2.252v-2.274h2.252v2.274Zm0-4.547h-2.252v-2.273h2.252v2.273Zm0-4.42h-2.252v-2.274h2.252v2.274Zm0-4.42h-2.252v-2.274h2.252v2.273Zm0-4.421h-2.252v-2.274h2.252v2.274Zm0-4.547h-2.252V81.81h2.252v2.273Zm0-4.42h-2.252v-2.274h2.252v2.274Z" fill="url(#cq)"/><path d="M37.514 95.955h-2.252v-2.273h2.252v2.273Zm0-4.42h-2.252V89.26h2.252v2.274Zm0-4.547h-2.252v-2.273h2.252v2.273Zm0-4.42h-2.252v-2.274h2.252v2.273Zm0-4.42h-2.252V76h2.252v2.147Z" fill="url(#cr)"/><path d="M30.383 90.272H28.13v-2.274h2.252v2.274Zm0-4.42H28.13v-2.274h2.252v2.273Zm0-4.421H28.13v-2.273h2.252v2.273Zm0-4.42H28.13V76h2.252v1.01Z" fill="url(#cs)"/><path d="M23.252 84.715H21V82.44h2.252v2.273Zm0-4.42H21V78.02h2.252v2.273Z" fill="url(#ct)"/></g><defs><linearGradient id="a" x1="1" y1="83.5" x2="403.56" y2="83.5" gradientUnits="userSpaceOnUse"><stop offset=".234" stop-color="#C3E2DE"/><stop offset=".734" stop-color="#EDFBF9"/></linearGradient><linearGradient id="b" x1="1" y1="83.5" x2="403.56" y2="83.5" gradientUnits="userSpaceOnUse"><stop/><stop offset="1" stop-color="#1A7F72" stop-opacity="0"/></linearGradient><linearGradient id="c" x1="1" y1="83.5" x2="630" y2="83.5" gradientUnits="userSpaceOnUse"><stop offset=".281" stop-color="#C3E2DE"/><stop offset=".505" stop-color="#CFF1ED"/><stop offset="1" stop-color="#EDFBF9"/></linearGradient><linearGradient id="d" x1="1" y1="83.5" x2="630" y2="83.5" gradientUnits="userSpaceOnUse"><stop stop-color="#1E9787"/><stop offset=".51" stop-color="#1A7F72" stop-opacity=".38"/><stop offset=".76" stop-color="#1A7F72" stop-opacity=".13"/><stop offset=".943" stop-color="#1A7F72" stop-opacity=".04"/></linearGradient><linearGradient id="e" x1="21" y1="83.3" x2="611.292" y2="83.3" gradientUnits="userSpaceOnUse"><stop stop-color="#1A7F72" stop-opacity=".46"/><stop offset="1" stop-color="#1A7F72" stop-opacity="0"/></linearGradient><linearGradient id="f" x1="21" y1="83.3" x2="611.292" y2="83.3" gradientUnits="userSpaceOnUse"><stop stop-color="#1A7F72" stop-opacity=".46"/><stop offset="1" stop-color="#1A7F72" stop-opacity="0"/></linearGradient><linearGradient id="g" x1="21" y1="83.3" x2="611.292" y2="83.3" gradientUnits="userSpaceOnUse"><stop stop-color="#1A7F72" stop-opacity=".46"/><stop offset="1" stop-color="#1A7F72" stop-opacity="0"/></linearGradient><linearGradient id="h" x1="21" y1="83.3" x2="611.292" y2="83.3" gradientUnits="userSpaceOnUse"><stop stop-color="#1A7F72" stop-opacity=".46"/><stop offset="1" stop-color="#1A7F72" stop-opacity="0"/></linearGradient><linearGradient id="i" x1="21" y1="83.3" x2="611.292" y2="83.3" gradientUnits="userSpaceOnUse"><stop stop-color="#1A7F72" stop-opacity=".46"/><stop offset="1" stop-color="#1A7F72" stop-opacity="0"/></linearGradient><linearGradient id="j" x1="21" y1="83.3" x2="611.292" y2="83.3" gradientUnits="userSpaceOnUse"><stop stop-color="#1A7F72" stop-opacity=".46"/><stop offset="1" stop-color="#1A7F72" stop-opacity="0"/></linearGradient><linearGradient id="k" x1="21" y1="83.3" x2="611.292" y2="83.3" gradientUnits="userSpaceOnUse"><stop stop-color="#1A7F72" stop-opacity=".46"/><stop offset="1" stop-color="#1A7F72" stop-opacity="0"/></linearGradient><linearGradient id="l" x1="21" y1="83.3" x2="611.292" y2="83.3" gradientUnits="userSpaceOnUse"><stop stop-color="#1A7F72" stop-opacity=".46"/><stop offset="1" stop-color="#1A7F72" stop-opacity="0"/></linearGradient><linearGradient id="m" x1="21" y1="83.3" x2="611.292" y2="83.3" gradientUnits="userSpaceOnUse"><stop stop-color="#1A7F72" stop-opacity=".46"/><stop offset="1" stop-color="#1A7F72" stop-opacity="0"/></linearGradient><linearGradient id="n" x1="21" y1="83.3" x2="611.292" y2="83.3" gradientUnits="userSpaceOnUse"><stop stop-color="#1A7F72" stop-opacity=".46"/><stop offset="1" stop-color="#1A7F72" stop-opacity="0"/></linearGradient><linearGradient id="o" x1="21" y1="83.3" x2="611.292" y2="83.3" gradientUnits="userSpaceOnUse"><stop stop-color="#1A7F72" stop-opacity=".46"/><stop offset="1" stop-color="#1A7F72" stop-opacity="0"/></linearGradient><linearGradient id="p" x1="21" y1="83.3" x2="611.292" y2="83.3" gradientUnits="userSpaceOnUse"><stop stop-color="#1A7F72" stop-opacity=".46"/><stop offset="1" stop-color="#1A7F72" stop-opacity="0"/></linearGradient><linearGradient id="q" x1="21" y1="83.3" x2="611.292" y2="83.3" gradientUnits="userSpaceOnUse"><stop stop-color="#1A7F72" stop-opacity=".46"/><stop offset="1" stop-color="#1A7F72" stop-opacity="0"/></linearGradient><linearGradient id="r" x1="21" y1="83.3" x2="611.292" y2="83.3" gradientUnits="userSpaceOnUse"><stop stop-color="#1A7F72" stop-opacity=".46"/><stop offset="1" stop-color="#1A7F72" stop-opacity="0"/></linearGradient><linearGradient id="s" x1="21" y1="83.3" x2="611.292" y2="83.3" gradientUnits="userSpaceOnUse"><stop stop-color="#1A7F72" stop-opacity=".46"/><stop offset="1" stop-color="#1A7F72" stop-opacity="0"/></linearGradient><linearGradient id="t" x1="21" y1="83.3" x2="611.292" y2="83.3" gradientUnits="userSpaceOnUse"><stop stop-color="#1A7F72" stop-opacity=".46"/><stop offset="1" stop-color="#1A7F72" stop-opacity="0"/></linearGradient><linearGradient id="u" x1="21" y1="83.3" x2="611.292" y2="83.3" gradientUnits="userSpaceOnUse"><stop stop-color="#1A7F72" stop-opacity=".46"/><stop offset="1" stop-color="#1A7F72" stop-opacity="0"/></linearGradient><linearGradient id="v" x1="21" y1="83.3" x2="611.292" y2="83.3" gradientUnits="userSpaceOnUse"><stop stop-color="#1A7F72" stop-opacity=".46"/><stop offset="1" stop-color="#1A7F72" stop-opacity="0"/></linearGradient><linearGradient id="w" x1="21" y1="83.3" x2="611.292" y2="83.3" gradientUnits="userSpaceOnUse"><stop stop-color="#1A7F72" stop-opacity=".46"/><stop offset="1" stop-color="#1A7F72" stop-opacity="0"/></linearGradient><linearGradient id="x" x1="21" y1="83.3" x2="611.292" y2="83.3" gradientUnits="userSpaceOnUse"><stop stop-color="#1A7F72" stop-opacity=".46"/><stop offset="1" stop-color="#1A7F72" stop-opacity="0"/></linearGradient><linearGradient id="y" x1="21" y1="83.3" x2="611.292" y2="83.3" gradientUnits="userSpaceOnUse"><stop stop-color="#1A7F72" stop-opacity=".46"/><stop offset="1" stop-color="#1A7F72" stop-opacity="0"/></linearGradient><linearGradient id="z" x1="21" y1="83.3" x2="611.292" y2="83.3" gradientUnits="userSpaceOnUse"><stop stop-color="#1A7F72" stop-opacity=".46"/><stop offset="1" stop-color="#1A7F72" stop-opacity="0"/></linearGradient><linearGradient id="A" x1="21" y1="83.3" x2="611.292" y2="83.3" gradientUnits="userSpaceOnUse"><stop stop-color="#1A7F72" stop-opacity=".46"/><stop offset="1" stop-color="#1A7F72" stop-opacity="0"/></linearGradient><linearGradient id="B" x1="21" y1="83.3" x2="611.292" y2="83.3" gradientUnits="userSpaceOnUse"><stop stop-color="#1A7F72" stop-opacity=".46"/><stop offset="1" stop-color="#1A7F72" stop-opacity="0"/></linearGradient><linearGradient id="C" x1="21" y1="83.3" x2="611.292" y2="83.3" gradientUnits="userSpaceOnUse"><stop stop-color="#1A7F72" stop-opacity=".46"/><stop offset="1" stop-color="#1A7F72" stop-opacity="0"/></linearGradient><linearGradient id="D" x1="21" y1="83.3" x2="611.292" y2="83.3" gradientUnits="userSpaceOnUse"><stop stop-color="#1A7F72" stop-opacity=".46"/><stop offset="1" stop-color="#1A7F72" stop-opacity="0"/></linearGradient><linearGradient id="E" x1="21" y1="83.3" x2="611.292" y2="83.3" gradientUnits="userSpaceOnUse"><stop stop-color="#1A7F72" stop-opacity=".46"/><stop offset="1" stop-color="#1A7F72" stop-opacity="0"/></linearGradient><linearGradient id="F" x1="21" y1="83.3" x2="611.292" y2="83.3" gradientUnits="userSpaceOnUse"><stop stop-color="#1A7F72" stop-opacity=".46"/><stop offset="1" stop-color="#1A7F72" stop-opacity="0"/></linearGradient><linearGradient id="G" x1="21" y1="83.3" x2="611.292" y2="83.3" gradientUnits="userSpaceOnUse"><stop stop-color="#1A7F72" stop-opacity=".46"/><stop offset="1" stop-color="#1A7F72" stop-opacity="0"/></linearGradient><linearGradient id="H" x1="21" y1="83.3" x2="611.292" y2="83.3" gradientUnits="userSpaceOnUse"><stop stop-color="#1A7F72" stop-opacity=".46"/><stop offset="1" stop-color="#1A7F72" stop-opacity="0"/></linearGradient><linearGradient id="I" x1="21" y1="83.3" x2="611.292" y2="83.3" gradientUnits="userSpaceOnUse"><stop stop-color="#1A7F72" stop-opacity=".46"/><stop offset="1" stop-color="#1A7F72" stop-opacity="0"/></linearGradient><linearGradient id="J" x1="21" y1="83.3" x2="611.292" y2="83.3" gradientUnits="userSpaceOnUse"><stop stop-color="#1A7F72" stop-opacity=".46"/><stop offset="1" stop-color="#1A7F72" stop-opacity="0"/></linearGradient><linearGradient id="K" x1="21" y1="83.3" x2="611.292" y2="83.3" gradientUnits="userSpaceOnUse"><stop stop-color="#1A7F72" stop-opacity=".46"/><stop offset="1" stop-color="#1A7F72" stop-opacity="0"/></linearGradient><linearGradient id="L" x1="21" y1="83.3" x2="611.292" y2="83.3" gradientUnits="userSpaceOnUse"><stop stop-color="#1A7F72" stop-opacity=".46"/><stop offset="1" stop-color="#1A7F72" stop-opacity="0"/></linearGradient><linearGradient id="M" x1="21" y1="83.3" x2="611.292" y2="83.3" gradientUnits="userSpaceOnUse"><stop stop-color="#1A7F72" stop-opacity=".46"/><stop offset="1" stop-color="#1A7F72" stop-opacity="0"/></linearGradient><linearGradient id="N" x1="21" y1="83.3" x2="611.292" y2="83.3" gradientUnits="userSpaceOnUse"><stop stop-color="#1A7F72" stop-opacity=".46"/><stop offset="1" stop-color="#1A7F72" stop-opacity="0"/></linearGradient><linearGradient id="O" x1="21" y1="83.3" x2="611.292" y2="83.3" gradientUnits="userSpaceOnUse"><stop stop-color="#1A7F72" stop-opacity=".46"/><stop offset="1" stop-color="#1A7F72" stop-opacity="0"/></linearGradient><linearGradient id="P" x1="21" y1="83.3" x2="611.292" y2="83.3" gradientUnits="userSpaceOnUse"><stop stop-color="#1A7F72" stop-opacity=".46"/><stop offset="1" stop-color="#1A7F72" stop-opacity="0"/></linearGradient><linearGradient id="Q" x1="21" y1="83.3" x2="611.292" y2="83.3" gradientUnits="userSpaceOnUse"><stop stop-color="#1A7F72" stop-opacity=".46"/><stop offset="1" stop-color="#1A7F72" stop-opacity="0"/></linearGradient><linearGradient id="R" x1="21" y1="83.3" x2="611.292" y2="83.3" gradientUnits="userSpaceOnUse"><stop stop-color="#1A7F72" stop-opacity=".46"/><stop offset="1" stop-color="#1A7F72" stop-opacity="0"/></linearGradient><linearGradient id="S" x1="21" y1="83.3" x2="611.292" y2="83.3" gradientUnits="userSpaceOnUse"><stop stop-color="#1A7F72" stop-opacity=".46"/><stop offset="1" stop-color="#1A7F72" stop-opacity="0"/></linearGradient><linearGradient id="T" x1="21" y1="83.3" x2="611.292" y2="83.3" gradientUnits="userSpaceOnUse"><stop stop-color="#1A7F72" stop-opacity=".46"/><stop offset="1" stop-color="#1A7F72" stop-opacity="0"/></linearGradient><linearGradient id="U" x1="21" y1="83.3" x2="611.292" y2="83.3" gradientUnits="userSpaceOnUse"><stop stop-color="#1A7F72" stop-opacity=".46"/><stop offset="1" stop-color="#1A7F72" stop-opacity="0"/></linearGradient><linearGradient id="V" x1="21" y1="83.3" x2="611.292" y2="83.3" gradientUnits="userSpaceOnUse"><stop stop-color="#1A7F72" stop-opacity=".46"/><stop offset="1" stop-color="#1A7F72" stop-opacity="0"/></linearGradient><linearGradient id="W" x1="21" y1="83.3" x2="611.292" y2="83.3" gradientUnits="userSpaceOnUse"><stop stop-color="#1A7F72" stop-opacity=".46"/><stop offset="1" stop-color="#1A7F72" stop-opacity="0"/></linearGradient><linearGradient id="X" x1="21" y1="83.3" x2="611.292" y2="83.3" gradientUnits="userSpaceOnUse"><stop stop-color="#1A7F72" stop-opacity=".46"/><stop offset="1" stop-color="#1A7F72" stop-opacity="0"/></linearGradient><linearGradient id="Y" x1="21" y1="83.3" x2="611.292" y2="83.3" gradientUnits="userSpaceOnUse"><stop stop-color="#1A7F72" stop-opacity=".46"/><stop offset="1" stop-color="#1A7F72" stop-opacity="0"/></linearGradient><linearGradient id="Z" x1="21" y1="83.3" x2="611.292" y2="83.3" gradientUnits="userSpaceOnUse"><stop stop-color="#1A7F72" stop-opacity=".46"/><stop offset="1" stop-color="#1A7F72" stop-opacity="0"/></linearGradient><linearGradient id="aa" x1="21" y1="83.3" x2="611.292" y2="83.3" gradientUnits="userSpaceOnUse"><stop stop-color="#1A7F72" stop-opacity=".46"/><stop offset="1" stop-color="#1A7F72" stop-opacity="0"/></linearGradient><linearGradient id="ab" x1="21" y1="83.3" x2="611.292" y2="83.3" gradientUnits="userSpaceOnUse"><stop stop-color="#1A7F72" stop-opacity=".46"/><stop offset="1" stop-color="#1A7F72" stop-opacity="0"/></linearGradient><linearGradient id="ac" x1="21" y1="83.3" x2="611.292" y2="83.3" gradientUnits="userSpaceOnUse"><stop stop-color="#1A7F72" stop-opacity=".46"/><stop offset="1" stop-color="#1A7F72" stop-opacity="0"/></linearGradient><linearGradient id="ad" x1="21" y1="83.3" x2="611.292" y2="83.3" gradientUnits="userSpaceOnUse"><stop stop-color="#1A7F72" stop-opacity=".46"/><stop offset="1" stop-color="#1A7F72" stop-opacity="0"/></linearGradient><linearGradient id="ae" x1="21" y1="83.3" x2="611.292" y2="83.3" gradientUnits="userSpaceOnUse"><stop stop-color="#1A7F72" stop-opacity=".46"/><stop offset="1" stop-color="#1A7F72" stop-opacity="0"/></linearGradient><linearGradient id="af" x1="21" y1="83.3" x2="611.292" y2="83.3" gradientUnits="userSpaceOnUse"><stop stop-color="#1A7F72" stop-opacity=".46"/><stop offset="1" stop-color="#1A7F72" stop-opacity="0"/></linearGradient><linearGradient id="ag" x1="21" y1="83.3" x2="611.292" y2="83.3" gradientUnits="userSpaceOnUse"><stop stop-color="#1A7F72" stop-opacity=".46"/><stop offset="1" stop-color="#1A7F72" stop-opacity="0"/></linearGradient><linearGradient id="ah" x1="21" y1="83.3" x2="611.292" y2="83.3" gradientUnits="userSpaceOnUse"><stop stop-color="#1A7F72" stop-opacity=".46"/><stop offset="1" stop-color="#1A7F72" stop-opacity="0"/></linearGradient><linearGradient id="ai" x1="21" y1="83.3" x2="611.292" y2="83.3" gradientUnits="userSpaceOnUse"><stop stop-color="#1A7F72" stop-opacity=".46"/><stop offset="1" stop-color="#1A7F72" stop-opacity="0"/></linearGradient><linearGradient id="aj" x1="21" y1="83.3" x2="611.292" y2="83.3" gradientUnits="userSpaceOnUse"><stop stop-color="#1A7F72" stop-opacity=".46"/><stop offset="1" stop-color="#1A7F72" stop-opacity="0"/></linearGradient><linearGradient id="ak" x1="21" y1="83.3" x2="611.292" y2="83.3" gradientUnits="userSpaceOnUse"><stop stop-color="#1A7F72" stop-opacity=".46"/><stop offset="1" stop-color="#1A7F72" stop-opacity="0"/></linearGradient><linearGradient id="al" x1="21" y1="83.3" x2="611.292" y2="83.3" gradientUnits="userSpaceOnUse"><stop stop-color="#1A7F72" stop-opacity=".46"/><stop offset="1" stop-color="#1A7F72" stop-opacity="0"/></linearGradient><linearGradient id="am" x1="21" y1="83.3" x2="611.292" y2="83.3" gradientUnits="userSpaceOnUse"><stop stop-color="#1A7F72" stop-opacity=".46"/><stop offset="1" stop-color="#1A7F72" stop-opacity="0"/></linearGradient><linearGradient id="an" x1="21" y1="83.3" x2="611.292" y2="83.3" gradientUnits="userSpaceOnUse"><stop stop-color="#1A7F72" stop-opacity=".46"/><stop offset="1" stop-color="#1A7F72" stop-opacity="0"/></linearGradient><linearGradient id="ao" x1="21" y1="83.3" x2="611.292" y2="83.3" gradientUnits="userSpaceOnUse"><stop stop-color="#1A7F72" stop-opacity=".46"/><stop offset="1" stop-color="#1A7F72" stop-opacity="0"/></linearGradient><linearGradient id="ap" x1="21" y1="83.3" x2="611.292" y2="83.3" gradientUnits="userSpaceOnUse"><stop stop-color="#1A7F72" stop-opacity=".46"/><stop offset="1" stop-color="#1A7F72" stop-opacity="0"/></linearGradient><linearGradient id="aq" x1="21" y1="83.3" x2="611.292" y2="83.3" gradientUnits="userSpaceOnUse"><stop stop-color="#1A7F72" stop-opacity=".46"/><stop offset="1" stop-color="#1A7F72" stop-opacity="0"/></linearGradient><linearGradient id="ar" x1="21" y1="83.3" x2="611.292" y2="83.3" gradientUnits="userSpaceOnUse"><stop stop-color="#1A7F72" stop-opacity=".46"/><stop offset="1" stop-color="#1A7F72" stop-opacity="0"/></linearGradient><linearGradient id="as" x1="21" y1="83.3" x2="611.292" y2="83.3" gradientUnits="userSpaceOnUse"><stop stop-color="#1A7F72" stop-opacity=".46"/><stop offset="1" stop-color="#1A7F72" stop-opacity="0"/></linearGradient><linearGradient id="at" x1="21" y1="83.3" x2="611.292" y2="83.3" gradientUnits="userSpaceOnUse"><stop stop-color="#1A7F72" stop-opacity=".46"/><stop offset="1" stop-color="#1A7F72" stop-opacity="0"/></linearGradient><linearGradient id="au" x1="21" y1="83.3" x2="611.292" y2="83.3" gradientUnits="userSpaceOnUse"><stop stop-color="#1A7F72" stop-opacity=".46"/><stop offset="1" stop-color="#1A7F72" stop-opacity="0"/></linearGradient><linearGradient id="av" x1="21" y1="83.3" x2="611.292" y2="83.3" gradientUnits="userSpaceOnUse"><stop stop-color="#1A7F72" stop-opacity=".46"/><stop offset="1" stop-color="#1A7F72" stop-opacity="0"/></linearGradient><linearGradient id="aw" x1="21" y1="83.3" x2="611.292" y2="83.3" gradientUnits="userSpaceOnUse"><stop stop-color="#1A7F72" stop-opacity=".46"/><stop offset="1" stop-color="#1A7F72" stop-opacity="0"/></linearGradient><linearGradient id="ax" x1="21" y1="83.3" x2="611.292" y2="83.3" gradientUnits="userSpaceOnUse"><stop stop-color="#1A7F72" stop-opacity=".46"/><stop offset="1" stop-color="#1A7F72" stop-opacity="0"/></linearGradient><linearGradient id="ay" x1="21" y1="83.3" x2="611.292" y2="83.3" gradientUnits="userSpaceOnUse"><stop stop-color="#1A7F72" stop-opacity=".46"/><stop offset="1" stop-color="#1A7F72" stop-opacity="0"/></linearGradient><linearGradient id="az" x1="21" y1="83.3" x2="611.292" y2="83.3" gradientUnits="userSpaceOnUse"><stop stop-color="#1A7F72" stop-opacity=".46"/><stop offset="1" stop-color="#1A7F72" stop-opacity="0"/></linearGradient><linearGradient id="aA" x1="21" y1="83.3" x2="611.292" y2="83.3" gradientUnits="userSpaceOnUse"><stop stop-color="#1A7F72" stop-opacity=".46"/><stop offset="1" stop-color="#1A7F72" stop-opacity="0"/></linearGradient><linearGradient id="aB" x1="21" y1="83.3" x2="611.292" y2="83.3" gradientUnits="userSpaceOnUse"><stop stop-color="#1A7F72" stop-opacity=".46"/><stop offset="1" stop-color="#1A7F72" stop-opacity="0"/></linearGradient><linearGradient id="aC" x1="21" y1="83.3" x2="611.292" y2="83.3" gradientUnits="userSpaceOnUse"><stop stop-color="#1A7F72" stop-opacity=".46"/><stop offset="1" stop-color="#1A7F72" stop-opacity="0"/></linearGradient><linearGradient id="aD" x1="21" y1="83.3" x2="611.292" y2="83.3" gradientUnits="userSpaceOnUse"><stop stop-color="#1A7F72" stop-opacity=".46"/><stop offset="1" stop-color="#1A7F72" stop-opacity="0"/></linearGradient><linearGradient id="aE" x1="21" y1="83.3" x2="611.292" y2="83.3" gradientUnits="userSpaceOnUse"><stop stop-color="#1A7F72" stop-opacity=".46"/><stop offset="1" stop-color="#1A7F72" stop-opacity="0"/></linearGradient><linearGradient id="aF" x1="21" y1="83.3" x2="611.292" y2="83.3" gradientUnits="userSpaceOnUse"><stop stop-color="#1A7F72" stop-opacity=".46"/><stop offset="1" stop-color="#1A7F72" stop-opacity="0"/></linearGradient><linearGradient id="aG" x1="21" y1="83.3" x2="611.292" y2="83.3" gradientUnits="userSpaceOnUse"><stop stop-color="#1A7F72" stop-opacity=".46"/><stop offset="1" stop-color="#1A7F72" stop-opacity="0"/></linearGradient><linearGradient id="aH" x1="21" y1="83.3" x2="611.292" y2="83.3" gradientUnits="userSpaceOnUse"><stop stop-color="#1A7F72" stop-opacity=".46"/><stop offset="1" stop-color="#1A7F72" stop-opacity="0"/></linearGradient><linearGradient id="aI" x1="21" y1="83.3" x2="611.292" y2="83.3" gradientUnits="userSpaceOnUse"><stop stop-color="#1A7F72" stop-opacity=".46"/><stop offset="1" stop-color="#1A7F72" stop-opacity="0"/></linearGradient><linearGradient id="aJ" x1="21" y1="83.3" x2="611.292" y2="83.3" gradientUnits="userSpaceOnUse"><stop stop-color="#1A7F72" stop-opacity=".46"/><stop offset="1" stop-color="#1A7F72" stop-opacity="0"/></linearGradient><linearGradient id="aK" x1="21" y1="83.3" x2="611.292" y2="83.3" gradientUnits="userSpaceOnUse"><stop stop-color="#1A7F72" stop-opacity=".46"/><stop offset="1" stop-color="#1A7F72" stop-opacity="0"/></linearGradient><linearGradient id="aL" x1="21" y1="83.3" x2="611.292" y2="83.3" gradientUnits="userSpaceOnUse"><stop stop-color="#1A7F72" stop-opacity=".46"/><stop offset="1" stop-color="#1A7F72" stop-opacity="0"/></linearGradient><linearGradient id="aM" x1="21" y1="83.3" x2="611.292" y2="83.3" gradientUnits="userSpaceOnUse"><stop stop-color="#1A7F72" stop-opacity=".46"/><stop offset="1" stop-color="#1A7F72" stop-opacity="0"/></linearGradient><linearGradient id="aN" x1="21" y1="83.3" x2="611.292" y2="83.3" gradientUnits="userSpaceOnUse"><stop stop-color="#1A7F72" stop-opacity=".46"/><stop offset="1" stop-color="#1A7F72" stop-opacity="0"/></linearGradient><linearGradient id="aO" x1="21" y1="83.3" x2="611.292" y2="83.3" gradientUnits="userSpaceOnUse"><stop stop-color="#1A7F72" stop-opacity=".46"/><stop offset="1" stop-color="#1A7F72" stop-opacity="0"/></linearGradient><linearGradient id="aP" x1="21" y1="83.3" x2="611.292" y2="83.3" gradientUnits="userSpaceOnUse"><stop stop-color="#1A7F72" stop-opacity=".46"/><stop offset="1" stop-color="#1A7F72" stop-opacity="0"/></linearGradient><linearGradient id="aQ" x1="21" y1="83.3" x2="611.292" y2="83.3" gradientUnits="userSpaceOnUse"><stop stop-color="#1A7F72" stop-opacity=".46"/><stop offset="1" stop-color="#1A7F72" stop-opacity="0"/></linearGradient><linearGradient id="aR" x1="21" y1="83.3" x2="611.292" y2="83.3" gradientUnits="userSpaceOnUse"><stop stop-color="#1A7F72" stop-opacity=".46"/><stop offset="1" stop-color="#1A7F72" stop-opacity="0"/></linearGradient><linearGradient id="aS" x1="21" y1="83.3" x2="611.292" y2="83.3" gradientUnits="userSpaceOnUse"><stop stop-color="#1A7F72" stop-opacity=".46"/><stop offset="1" stop-color="#1A7F72" stop-opacity="0"/></linearGradient><linearGradient id="aT" x1="21" y1="83.3" x2="611.292" y2="83.3" gradientUnits="userSpaceOnUse"><stop stop-color="#1A7F72" stop-opacity=".46"/><stop offset="1" stop-color="#1A7F72" stop-opacity="0"/></linearGradient><linearGradient id="aU" x1="21" y1="83.3" x2="611.292" y2="83.3" gradientUnits="userSpaceOnUse"><stop stop-color="#1A7F72" stop-opacity=".46"/><stop offset="1" stop-color="#1A7F72" stop-opacity="0"/></linearGradient><linearGradient id="aV" x1="21" y1="83.3" x2="611.292" y2="83.3" gradientUnits="userSpaceOnUse"><stop stop-color="#1A7F72" stop-opacity=".46"/><stop offset="1" stop-color="#1A7F72" stop-opacity="0"/></linearGradient><linearGradient id="aW" x1="21" y1="83.3" x2="611.292" y2="83.3" gradientUnits="userSpaceOnUse"><stop stop-color="#1A7F72" stop-opacity=".46"/><stop offset="1" stop-color="#1A7F72" stop-opacity="0"/></linearGradient><linearGradient id="aX" x1="21" y1="83.3" x2="611.292" y2="83.3" gradientUnits="userSpaceOnUse"><stop stop-color="#1A7F72" stop-opacity=".46"/><stop offset="1" stop-color="#1A7F72" stop-opacity="0"/></linearGradient><linearGradient id="aY" x1="21" y1="83.3" x2="611.292" y2="83.3" gradientUnits="userSpaceOnUse"><stop stop-color="#1A7F72" stop-opacity=".46"/><stop offset="1" stop-color="#1A7F72" stop-opacity="0"/></linearGradient><linearGradient id="aZ" x1="21" y1="83.3" x2="611.292" y2="83.3" gradientUnits="userSpaceOnUse"><stop stop-color="#1A7F72" stop-opacity=".46"/><stop offset="1" stop-color="#1A7F72" stop-opacity="0"/></linearGradient><linearGradient id="ba" x1="21" y1="83.3" x2="611.292" y2="83.3" gradientUnits="userSpaceOnUse"><stop stop-color="#1A7F72" stop-opacity=".46"/><stop offset="1" stop-color="#1A7F72" stop-opacity="0"/></linearGradient><linearGradient id="bb" x1="21" y1="83.3" x2="611.292" y2="83.3" gradientUnits="userSpaceOnUse"><stop stop-color="#1A7F72" stop-opacity=".46"/><stop offset="1" stop-color="#1A7F72" stop-opacity="0"/></linearGradient><linearGradient id="bc" x1="21" y1="83.3" x2="611.292" y2="83.3" gradientUnits="userSpaceOnUse"><stop stop-color="#1A7F72" stop-opacity=".46"/><stop offset="1" stop-color="#1A7F72" stop-opacity="0"/></linearGradient><linearGradient id="bd" x1="21" y1="83.3" x2="611.292" y2="83.3" gradientUnits="userSpaceOnUse"><stop stop-color="#1A7F72" stop-opacity=".46"/><stop offset="1" stop-color="#1A7F72" stop-opacity="0"/></linearGradient><linearGradient id="be" x1="21" y1="83.3" x2="611.292" y2="83.3" gradientUnits="userSpaceOnUse"><stop stop-color="#1A7F72" stop-opacity=".46"/><stop offset="1" stop-color="#1A7F72" stop-opacity="0"/></linearGradient><linearGradient id="bf" x1="21" y1="83.3" x2="611.292" y2="83.3" gradientUnits="userSpaceOnUse"><stop stop-color="#1A7F72" stop-opacity=".46"/><stop offset="1" stop-color="#1A7F72" stop-opacity="0"/></linearGradient><linearGradient id="bg" x1="21" y1="83.3" x2="611.292" y2="83.3" gradientUnits="userSpaceOnUse"><stop stop-color="#1A7F72" stop-opacity=".46"/><stop offset="1" stop-color="#1A7F72" stop-opacity="0"/></linearGradient><linearGradient id="bh" x1="21" y1="83.3" x2="611.292" y2="83.3" gradientUnits="userSpaceOnUse"><stop stop-color="#1A7F72" stop-opacity=".46"/><stop offset="1" stop-color="#1A7F72" stop-opacity="0"/></linearGradient><linearGradient id="bi" x1="21" y1="83.3" x2="611.292" y2="83.3" gradientUnits="userSpaceOnUse"><stop stop-color="#1A7F72" stop-opacity=".46"/><stop offset="1" stop-color="#1A7F72" stop-opacity="0"/></linearGradient><linearGradient id="bj" x1="21" y1="83.3" x2="611.292" y2="83.3" gradientUnits="userSpaceOnUse"><stop stop-color="#1A7F72" stop-opacity=".46"/><stop offset="1" stop-color="#1A7F72" stop-opacity="0"/></linearGradient><linearGradient id="bk" x1="21" y1="83.3" x2="611.292" y2="83.3" gradientUnits="userSpaceOnUse"><stop stop-color="#1A7F72" stop-opacity=".46"/><stop offset="1" stop-color="#1A7F72" stop-opacity="0"/></linearGradient><linearGradient id="bl" x1="21" y1="83.3" x2="611.292" y2="83.3" gradientUnits="userSpaceOnUse"><stop stop-color="#1A7F72" stop-opacity=".46"/><stop offset="1" stop-color="#1A7F72" stop-opacity="0"/></linearGradient><linearGradient id="bm" x1="21" y1="83.3" x2="611.292" y2="83.3" gradientUnits="userSpaceOnUse"><stop stop-color="#1A7F72" stop-opacity=".46"/><stop offset="1" stop-color="#1A7F72" stop-opacity="0"/></linearGradient><linearGradient id="bn" x1="21" y1="83.3" x2="611.292" y2="83.3" gradientUnits="userSpaceOnUse"><stop stop-color="#1A7F72" stop-opacity=".46"/><stop offset="1" stop-color="#1A7F72" stop-opacity="0"/></linearGradient><linearGradient id="bo" x1="21" y1="83.3" x2="611.292" y2="83.3" gradientUnits="userSpaceOnUse"><stop stop-color="#1A7F72" stop-opacity=".46"/><stop offset="1" stop-color="#1A7F72" stop-opacity="0"/></linearGradient><linearGradient id="bp" x1="21" y1="83.3" x2="611.292" y2="83.3" gradientUnits="userSpaceOnUse"><stop stop-color="#1A7F72" stop-opacity=".46"/><stop offset="1" stop-color="#1A7F72" stop-opacity="0"/></linearGradient><linearGradient id="bq" x1="21" y1="83.3" x2="611.292" y2="83.3" gradientUnits="userSpaceOnUse"><stop stop-color="#1A7F72" stop-opacity=".46"/><stop offset="1" stop-color="#1A7F72" stop-opacity="0"/></linearGradient><linearGradient id="br" x1="21" y1="83.3" x2="611.292" y2="83.3" gradientUnits="userSpaceOnUse"><stop stop-color="#1A7F72" stop-opacity=".46"/><stop offset="1" stop-color="#1A7F72" stop-opacity="0"/></linearGradient><linearGradient id="bs" x1="21" y1="83.3" x2="611.292" y2="83.3" gradientUnits="userSpaceOnUse"><stop stop-color="#1A7F72" stop-opacity=".46"/><stop offset="1" stop-color="#1A7F72" stop-opacity="0"/></linearGradient><linearGradient id="bt" x1="21" y1="83.3" x2="611.292" y2="83.3" gradientUnits="userSpaceOnUse"><stop stop-color="#1A7F72" stop-opacity=".46"/><stop offset="1" stop-color="#1A7F72" stop-opacity="0"/></linearGradient><linearGradient id="bu" x1="21" y1="83.3" x2="611.292" y2="83.3" gradientUnits="userSpaceOnUse"><stop stop-color="#1A7F72" stop-opacity=".46"/><stop offset="1" stop-color="#1A7F72" stop-opacity="0"/></linearGradient><linearGradient id="bv" x1="21" y1="83.3" x2="611.292" y2="83.3" gradientUnits="userSpaceOnUse"><stop stop-color="#1A7F72" stop-opacity=".46"/><stop offset="1" stop-color="#1A7F72" stop-opacity="0"/></linearGradient><linearGradient id="bw" x1="21" y1="83.3" x2="611.292" y2="83.3" gradientUnits="userSpaceOnUse"><stop stop-color="#1A7F72" stop-opacity=".46"/><stop offset="1" stop-color="#1A7F72" stop-opacity="0"/></linearGradient><linearGradient id="bx" x1="21" y1="83.3" x2="611.292" y2="83.3" gradientUnits="userSpaceOnUse"><stop stop-color="#1A7F72" stop-opacity=".46"/><stop offset="1" stop-color="#1A7F72" stop-opacity="0"/></linearGradient><linearGradient id="by" x1="21" y1="83.3" x2="611.292" y2="83.3" gradientUnits="userSpaceOnUse"><stop stop-color="#1A7F72" stop-opacity=".46"/><stop offset="1" stop-color="#1A7F72" stop-opacity="0"/></linearGradient><linearGradient id="bz" x1="21" y1="83.3" x2="611.292" y2="83.3" gradientUnits="userSpaceOnUse"><stop stop-color="#1A7F72" stop-opacity=".46"/><stop offset="1" stop-color="#1A7F72" stop-opacity="0"/></linearGradient><linearGradient id="bA" x1="21" y1="83.3" x2="611.292" y2="83.3" gradientUnits="userSpaceOnUse"><stop stop-color="#1A7F72" stop-opacity=".46"/><stop offset="1" stop-color="#1A7F72" stop-opacity="0"/></linearGradient><linearGradient id="bB" x1="21" y1="83.3" x2="611.292" y2="83.3" gradientUnits="userSpaceOnUse"><stop stop-color="#1A7F72" stop-opacity=".46"/><stop offset="1" stop-color="#1A7F72" stop-opacity="0"/></linearGradient><linearGradient id="bC" x1="21" y1="83.3" x2="611.292" y2="83.3" gradientUnits="userSpaceOnUse"><stop stop-color="#1A7F72" stop-opacity=".46"/><stop offset="1" stop-color="#1A7F72" stop-opacity="0"/></linearGradient><linearGradient id="bD" x1="21" y1="83.3" x2="611.292" y2="83.3" gradientUnits="userSpaceOnUse"><stop stop-color="#1A7F72" stop-opacity=".46"/><stop offset="1" stop-color="#1A7F72" stop-opacity="0"/></linearGradient><linearGradient id="bE" x1="21" y1="83.3" x2="611.292" y2="83.3" gradientUnits="userSpaceOnUse"><stop stop-color="#1A7F72" stop-opacity=".46"/><stop offset="1" stop-color="#1A7F72" stop-opacity="0"/></linearGradient><linearGradient id="bF" x1="21" y1="83.3" x2="611.292" y2="83.3" gradientUnits="userSpaceOnUse"><stop stop-color="#1A7F72" stop-opacity=".46"/><stop offset="1" stop-color="#1A7F72" stop-opacity="0"/></linearGradient><linearGradient id="bG" x1="21" y1="83.3" x2="611.292" y2="83.3" gradientUnits="userSpaceOnUse"><stop stop-color="#1A7F72" stop-opacity=".46"/><stop offset="1" stop-color="#1A7F72" stop-opacity="0"/></linearGradient><linearGradient id="bH" x1="21" y1="83.3" x2="611.292" y2="83.3" gradientUnits="userSpaceOnUse"><stop stop-color="#1A7F72" stop-opacity=".46"/><stop offset="1" stop-color="#1A7F72" stop-opacity="0"/></linearGradient><linearGradient id="bI" x1="21" y1="83.3" x2="611.292" y2="83.3" gradientUnits="userSpaceOnUse"><stop stop-color="#1A7F72" stop-opacity=".46"/><stop offset="1" stop-color="#1A7F72" stop-opacity="0"/></linearGradient><linearGradient id="bJ" x1="21" y1="83.3" x2="611.292" y2="83.3" gradientUnits="userSpaceOnUse"><stop stop-color="#1A7F72" stop-opacity=".46"/><stop offset="1" stop-color="#1A7F72" stop-opacity="0"/></linearGradient><linearGradient id="bK" x1="21" y1="83.3" x2="611.292" y2="83.3" gradientUnits="userSpaceOnUse"><stop stop-color="#1A7F72" stop-opacity=".46"/><stop offset="1" stop-color="#1A7F72" stop-opacity="0"/></linearGradient><linearGradient id="bL" x1="21" y1="83.3" x2="611.292" y2="83.3" gradientUnits="userSpaceOnUse"><stop stop-color="#1A7F72" stop-opacity=".46"/><stop offset="1" stop-color="#1A7F72" stop-opacity="0"/></linearGradient><linearGradient id="bM" x1="21" y1="83.3" x2="611.292" y2="83.3" gradientUnits="userSpaceOnUse"><stop stop-color="#1A7F72" stop-opacity=".46"/><stop offset="1" stop-color="#1A7F72" stop-opacity="0"/></linearGradient><linearGradient id="bN" x1="21" y1="83.3" x2="611.292" y2="83.3" gradientUnits="userSpaceOnUse"><stop stop-color="#1A7F72" stop-opacity=".46"/><stop offset="1" stop-color="#1A7F72" stop-opacity="0"/></linearGradient><linearGradient id="bO" x1="21" y1="83.3" x2="611.292" y2="83.3" gradientUnits="userSpaceOnUse"><stop stop-color="#1A7F72" stop-opacity=".46"/><stop offset="1" stop-color="#1A7F72" stop-opacity="0"/></linearGradient><linearGradient id="bP" x1="21" y1="83.3" x2="611.292" y2="83.3" gradientUnits="userSpaceOnUse"><stop stop-color="#1A7F72" stop-opacity=".46"/><stop offset="1" stop-color="#1A7F72" stop-opacity="0"/></linearGradient><linearGradient id="bQ" x1="21" y1="83.3" x2="611.292" y2="83.3" gradientUnits="userSpaceOnUse"><stop stop-color="#1A7F72" stop-opacity=".46"/><stop offset="1" stop-color="#1A7F72" stop-opacity="0"/></linearGradient><linearGradient id="bR" x1="21" y1="83.3" x2="611.292" y2="83.3" gradientUnits="userSpaceOnUse"><stop stop-color="#1A7F72" stop-opacity=".46"/><stop offset="1" stop-color="#1A7F72" stop-opacity="0"/></linearGradient><linearGradient id="bS" x1="21" y1="83.3" x2="611.292" y2="83.3" gradientUnits="userSpaceOnUse"><stop stop-color="#1A7F72" stop-opacity=".46"/><stop offset="1" stop-color="#1A7F72" stop-opacity="0"/></linearGradient><linearGradient id="bT" x1="21" y1="83.3" x2="611.292" y2="83.3" gradientUnits="userSpaceOnUse"><stop stop-color="#1A7F72" stop-opacity=".46"/><stop offset="1" stop-color="#1A7F72" stop-opacity="0"/></linearGradient><linearGradient id="bU" x1="21" y1="83.3" x2="611.292" y2="83.3" gradientUnits="userSpaceOnUse"><stop stop-color="#1A7F72" stop-opacity=".46"/><stop offset="1" stop-color="#1A7F72" stop-opacity="0"/></linearGradient><linearGradient id="bV" x1="21" y1="83.3" x2="611.292" y2="83.3" gradientUnits="userSpaceOnUse"><stop stop-color="#1A7F72" stop-opacity=".46"/><stop offset="1" stop-color="#1A7F72" stop-opacity="0"/></linearGradient><linearGradient id="bW" x1="21" y1="83.3" x2="611.292" y2="83.3" gradientUnits="userSpaceOnUse"><stop stop-color="#1A7F72" stop-opacity=".46"/><stop offset="1" stop-color="#1A7F72" stop-opacity="0"/></linearGradient><linearGradient id="bX" x1="21" y1="83.3" x2="611.292" y2="83.3" gradientUnits="userSpaceOnUse"><stop stop-color="#1A7F72" stop-opacity=".46"/><stop offset="1" stop-color="#1A7F72" stop-opacity="0"/></linearGradient><linearGradient id="bY" x1="21" y1="83.3" x2="611.292" y2="83.3" gradientUnits="userSpaceOnUse"><stop stop-color="#1A7F72" stop-opacity=".46"/><stop offset="1" stop-color="#1A7F72" stop-opacity="0"/></linearGradient><linearGradient id="bZ" x1="21" y1="83.3" x2="611.292" y2="83.3" gradientUnits="userSpaceOnUse"><stop stop-color="#1A7F72" stop-opacity=".46"/><stop offset="1" stop-color="#1A7F72" stop-opacity="0"/></linearGradient><linearGradient id="ca" x1="21" y1="83.3" x2="611.292" y2="83.3" gradientUnits="userSpaceOnUse"><stop stop-color="#1A7F72" stop-opacity=".46"/><stop offset="1" stop-color="#1A7F72" stop-opacity="0"/></linearGradient><linearGradient id="cb" x1="21" y1="83.3" x2="611.292" y2="83.3" gradientUnits="userSpaceOnUse"><stop stop-color="#1A7F72" stop-opacity=".46"/><stop offset="1" stop-color="#1A7F72" stop-opacity="0"/></linearGradient><linearGradient id="cc" x1="21" y1="83.3" x2="611.292" y2="83.3" gradientUnits="userSpaceOnUse"><stop stop-color="#1A7F72" stop-opacity=".46"/><stop offset="1" stop-color="#1A7F72" stop-opacity="0"/></linearGradient><linearGradient id="cd" x1="21" y1="83.3" x2="611.292" y2="83.3" gradientUnits="userSpaceOnUse"><stop stop-color="#1A7F72" stop-opacity=".46"/><stop offset="1" stop-color="#1A7F72" stop-opacity="0"/></linearGradient><linearGradient id="ce" x1="21" y1="83.3" x2="611.292" y2="83.3" gradientUnits="userSpaceOnUse"><stop stop-color="#1A7F72" stop-opacity=".46"/><stop offset="1" stop-color="#1A7F72" stop-opacity="0"/></linearGradient><linearGradient id="cf" x1="21" y1="83.3" x2="611.292" y2="83.3" gradientUnits="userSpaceOnUse"><stop stop-color="#1A7F72" stop-opacity=".46"/><stop offset="1" stop-color="#1A7F72" stop-opacity="0"/></linearGradient><linearGradient id="cg" x1="21" y1="83.3" x2="611.292" y2="83.3" gradientUnits="userSpaceOnUse"><stop stop-color="#1A7F72" stop-opacity=".46"/><stop offset="1" stop-color="#1A7F72" stop-opacity="0"/></linearGradient><linearGradient id="ch" x1="21" y1="83.3" x2="611.292" y2="83.3" gradientUnits="userSpaceOnUse"><stop stop-color="#1A7F72" stop-opacity=".46"/><stop offset="1" stop-color="#1A7F72" stop-opacity="0"/></linearGradient><linearGradient id="ci" x1="21" y1="83.3" x2="611.292" y2="83.3" gradientUnits="userSpaceOnUse"><stop stop-color="#1A7F72" stop-opacity=".46"/><stop offset="1" stop-color="#1A7F72" stop-opacity="0"/></linearGradient><linearGradient id="cj" x1="21" y1="83.3" x2="611.292" y2="83.3" gradientUnits="userSpaceOnUse"><stop stop-color="#1A7F72" stop-opacity=".46"/><stop offset="1" stop-color="#1A7F72" stop-opacity="0"/></linearGradient><linearGradient id="ck" x1="21" y1="83.3" x2="611.292" y2="83.3" gradientUnits="userSpaceOnUse"><stop stop-color="#1A7F72" stop-opacity=".46"/><stop offset="1" stop-color="#1A7F72" stop-opacity="0"/></linearGradient><linearGradient id="cl" x1="21" y1="83.3" x2="611.292" y2="83.3" gradientUnits="userSpaceOnUse"><stop stop-color="#1A7F72" stop-opacity=".46"/><stop offset="1" stop-color="#1A7F72" stop-opacity="0"/></linearGradient><linearGradient id="cm" x1="21" y1="83.3" x2="611.292" y2="83.3" gradientUnits="userSpaceOnUse"><stop stop-color="#1A7F72" stop-opacity=".46"/><stop offset="1" stop-color="#1A7F72" stop-opacity="0"/></linearGradient><linearGradient id="cn" x1="21" y1="83.3" x2="611.292" y2="83.3" gradientUnits="userSpaceOnUse"><stop stop-color="#1A7F72" stop-opacity=".46"/><stop offset="1" stop-color="#1A7F72" stop-opacity="0"/></linearGradient><linearGradient id="co" x1="21" y1="83.3" x2="611.292" y2="83.3" gradientUnits="userSpaceOnUse"><stop stop-color="#1A7F72" stop-opacity=".46"/><stop offset="1" stop-color="#1A7F72" stop-opacity="0"/></linearGradient><linearGradient id="cp" x1="21" y1="83.3" x2="611.292" y2="83.3" gradientUnits="userSpaceOnUse"><stop stop-color="#1A7F72" stop-opacity=".46"/><stop offset="1" stop-color="#1A7F72" stop-opacity="0"/></linearGradient><linearGradient id="cq" x1="21" y1="83.3" x2="611.292" y2="83.3" gradientUnits="userSpaceOnUse"><stop stop-color="#1A7F72" stop-opacity=".46"/><stop offset="1" stop-color="#1A7F72" stop-opacity="0"/></linearGradient><linearGradient id="cr" x1="21" y1="83.3" x2="611.292" y2="83.3" gradientUnits="userSpaceOnUse"><stop stop-color="#1A7F72" stop-opacity=".46"/><stop offset="1" stop-color="#1A7F72" stop-opacity="0"/></linearGradient><linearGradient id="cs" x1="21" y1="83.3" x2="611.292" y2="83.3" gradientUnits="userSpaceOnUse"><stop stop-color="#1A7F72" stop-opacity=".46"/><stop offset="1" stop-color="#1A7F72" stop-opacity="0"/></linearGradient><linearGradient id="ct" x1="21" y1="83.3" x2="611.292" y2="83.3" gradientUnits="userSpaceOnUse"><stop stop-color="#1A7F72" stop-opacity=".46"/><stop offset="1" stop-color="#1A7F72" stop-opacity="0"/></linearGradient></defs></svg>