<svg width="32" height="32" fill="none" xmlns="http://www.w3.org/2000/svg"><path d="M6.65 0H4.349C1.95 0 0 1.393 0 3.106v25.788C0 30.607 1.95 32 4.349 32h2.3C9.049 32 11 30.607 11 28.894V3.106C10.998 1.393 9.046 0 6.648 0ZM9 28.894c0 .926-1.054 1.68-2.35 1.68H4.349c-1.297 0-2.351-.754-2.351-1.68V3.106c0-.926 1.054-1.68 2.35-1.68H6.65c1.296 0 2.35.754 2.35 1.68v25.788ZM27.651 0h-2.3C22.951 0 21 1.393 21 3.106v25.788C21 30.607 22.951 32 25.35 32h2.3c2.4 0 4.35-1.393 4.35-3.106V3.106C32 1.393 30.05 0 27.651 0Zm2.351 28.894c0 .926-1.054 1.68-2.35 1.68H25.35c-1.296 0-2.35-.754-2.35-1.68V3.106c0-.926 1.054-1.68 2.35-1.68h2.301c1.297 0 2.351.754 2.351 1.68v25.788Z" fill="#fff"/><ellipse cx="5.5" cy="16" rx="4.5" ry="14" fill="#fff"/><ellipse cx="26.5" cy="16" rx="4.5" ry="14" fill="#fff"/><ellipse cx="5.5" cy="5.5" rx="4.5" ry="5.5" fill="#fff"/><ellipse cx="26.5" cy="5.5" rx="4.5" ry="5.5" fill="#fff"/><ellipse cx="26.5" cy="26.5" rx="4.5" ry="5.5" fill="#fff"/><ellipse cx="5.5" cy="26.5" rx="4.5" ry="5.5" fill="#fff"/></svg>