<svg width="339" height="802" fill="none" xmlns="http://www.w3.org/2000/svg"><path opacity=".2" d="M174.293 801.126c84.914 0 153.751-12.413 153.751-27.725 0-15.312-68.837-27.725-153.751-27.725s-153.75 12.413-153.75 27.725c0 15.312 68.836 27.725 153.75 27.725Z" fill="#000" fill-opacity=".2"/><path d="M225.838 772.771c-1.765 3.277-7.31 4.537-10.335 4.537-4.032 0-19.912.756-19.912.756s-3.906 2.52-7.939 1.89c-1.386-.126-3.151-1.26-4.537-2.772-2.773-2.647-4.789-6.679-3.151-8.822 2.521-3.403 3.025-28.481 3.025-33.648 0-5.041.504-8.822 3.151-12.477 2.646-3.654 4.915-9.325 4.915-9.325 15.627-4.789 26.339 1.764 26.339 1.764s-6.806 23.44-4.285 31.002c2.646 7.561 11.468 16.887 12.981 23.188.504 1.638.378 2.899-.252 3.907Z" fill="#F4A082"/><path d="M273.349 476.11c-7.435 25.331-13.611 42.975-19.408 54.821-8.444 17.391-15.627 22.432-23.567 21.172-7.435-1.134-15.249-4.663-20.794-10.712-3.528-3.907-6.175-9.074-6.805-15.375-.126-1.386-.252-2.773-.252-4.285.378-18.651 6.805-79.143 7.939-88.973 1.135-9.2-3.654-24.322-4.41-26.339 0-.126-.126-.252-.126-.252s4.536-15.753 14.745-23.062a109.56 109.56 0 0 1 4.914-3.277c15.376-9.704 51.293-28.733 56.838-15.375.252.126 9.2 49.024-9.074 111.657Z" fill="#1F5148"/><path d="M254.067 531.057c-.252.63-7.057 21.676-7.309 30.624-.378 9.2.378 32.388-2.899 52.426C240.582 634.145 217.52 714.8 217.52 714.8c-11.595 5.293-26.34-1.764-26.34-1.764l1.387-14.745c1.386-14.745-.378-60.492 0-74.228v-.504c.63-13.863 10.838-38.438 8.695-54.569-2.268-16.383 1.513-42.722 1.513-42.722h.252l10.208 1.008 40.832 3.781Zm28.607-166.478c0 5.167-1.386 10.838-6.301 15.627-10.208 9.83-30.75 22.684-53.308 25.961-4.159.63-8.57.882-12.855.882-1.386-.126-2.647-.252-4.033-.378a66.462 66.462 0 0 1-8.696-1.764c-16.257-4.159-30.75-13.359-40.958-22.18-3.655-3.151-6.805-6.302-9.2-9.2-8.569-10.208-3.528-22.811-1.134-27.725.63-1.261 1.134-2.017 1.134-2.017l5.419.63 28.23 3.025 32.137 3.529 66.163-.379c.126 0 3.402 6.428 3.402 13.989Z" fill="#1F5148"/><path d="M198.868 403.646c-.252.378-.757.757-1.387 1.135-13.989 10.46-104.979 51.795-138.88 60.617-.63.126-1.134.252-1.764.504-2.646.63-5.04 1.26-7.183 1.639-3.025.63 1.134-4.285-1.513-4.033-.126 0-5.67.252-5.67.252-7.436.756-17.644 4.537-22.56 3.276-5.67-1.512-7.057-3.276-10.46-6.301-2.394-2.142-4.284-4.411-6.049-6.679-1.386-1.764-2.268-3.781-2.772-6.049-2.269-9.83 3.024-23.315 11.72-31.254 5.167-4.789 24.827-17.896 47.26-31.38 24.07-14.619 60.114-29.49 75.363-35.539 4.033-1.638 7.939-2.898 11.468-3.781 2.269-.63 4.411-1.134 6.553-1.386 13.359-2.268 22.433.126 28.23 3.025 5.671 2.898 8.066 6.427 8.066 6.427 5.167 8.948 6.175 10.082 7.939 16.383.252.63.378 1.26.504 1.89.504 2.143.883 4.033 1.135 5.924.882 10.081 4.536 20.415 0 25.33Z" fill="#1F5148"/><path d="M222.057 566.596c2.899 2.394 2.647 7.057-.63 8.947-5.419 3.151-12.099 7.94-14.493 12.855-3.655 7.435-4.033 32.01-14.367 35.035.63-13.863 10.838-38.438 8.696-54.569-2.269-16.383 1.512-42.722 1.512-42.722h.252c-.126-1.386-.252-2.772-.252-4.285.378-18.651 6.805-79.143 7.94-88.973 1.134-9.199-3.655-24.322-4.411-26.339a66.429 66.429 0 0 1-8.696-1.764c-13.989 10.46-104.98 51.796-138.88 60.618-.63.126-1.134.252-1.764.504l20.542-43.227s51.418-10.46 81.538-25.834c10.712-5.546 19.03-9.83 21.929-11.343 4.663-2.52 11.594-1.134 19.156.883 10.334 2.772 19.155-7.436 26.465-10.965 0 0-.252 1.639-.504 4.537-.63 5.419-1.765 15.123-2.773 26.213-1.134 11.721-2.268 24.953-2.772 36.043-1.261 27.221 4.032 65.155-1.639 73.22-2.016 2.899-4.032 6.931-5.671 11.594-1.638 4.537-2.898 9.578-3.276 14.367-.379 4.033-.126 7.813.882 10.838 1.764 5.671 6.805 10.838 11.216 14.367Z" fill="#1D4941"/><path d="M209.454 513.035s2.395 13.737-9.074 12.981c0 0 .631-7.814-.882-13.107-.504-1.764-1.386-5.797-2.52-10.46-2.269-9.703-5.419-22.432-7.94-25.708-3.781-5.041-11.216-6.302-11.216-6.302l-1.008-10.712-2.017-22.306s13.107-2.016 19.912-5.167c6.806-3.277 15.249-2.772 17.518 3.529 2.394 6.301-3.025 25.583 0 37.807 3.276 12.35 7.057 36.673-2.773 39.445Zm101.577-345.053c-3.277 10.46-10.586 24.071-27.348 31.758 0 0 4.159 14.619-2.772 28.482-6.932 13.736-10.964 49.023-11.847 64.776-.882 15.753 6.05 40.958 9.452 43.73 3.403 2.773 1.513 6.68.883 9.2-.631 2.521 3.276 4.663-5.294 6.553-8.569 1.891-42.974 5.167-61.626 4.159s-52.426-8.065-60.87-10.838c-8.318-2.773-4.285-4.537-4.537-7.057-.378-2.647-1.764-6.68 1.89-9.074 3.655-2.395 13.233-26.717 14.115-42.47.882-15.123.63-48.267-4.033-63.768-.252-.63-.378-1.261-.63-1.891-2.394-6.301-2.52-12.476-2.016-17.517.63-6.553 2.394-10.964 2.394-10.964-4.285-2.521-7.813-5.419-10.712-8.57-8.066-8.443-11.594-18.273-13.107-26.087-.756-4.158-.126-8.317 1.765-11.72 0-.126.126-.126.126-.252.126-.252.252-.378.378-.63.126-.126.252-.378.252-.504 2.647-4.159 7.057-7.184 12.224-8.066 9.452-1.512 18.778-4.032 26.844-7.561 1.512-.63 2.898-1.26 4.411-1.891 7.057-2.772 13.484-4.914 17.643-6.175 1.387-.378 2.395-.756 3.151-1.008l1.134-.378 22.559-4.663 21.928 7.057s1.638.631 4.159 1.765c3.907 1.638 10.208 4.537 16.761 8.065l4.159 2.269c7.562 4.411 16.636 7.813 25.835 10.46 10.082 2.898 15.754 13.106 12.729 22.81Z" fill="#F4A082"/><path d="M328.926 284.554c-.756.378-1.512.504-2.268.504-1.765-.126-3.781-1.134-5.923-2.898-2.395-1.765-4.915-4.411-7.562-7.436-3.655-4.285-7.183-9.326-10.208-14.241-2.268-3.654-4.159-7.183-5.545-10.207-3.781-8.192-9.074-19.912-12.855-31.506-2.646-7.94-4.663-15.879-5.041-22.685-.126-3.024.252-6.049 1.134-9.073 3.907-14.115 16.384-27.978 19.66-31.884 4.033-4.789 8.318-2.773 8.318-2.773s20.038 49.275 26.591 82.672c6.302 33.396 1.387 45.368-6.301 49.527Z" fill="#F4A082"/><path opacity=".6" d="M313.047 274.724c-6.301-7.436-12.476-17.391-15.753-24.449-6.301-13.862-17.014-37.555-17.896-54.19-.126-3.025.252-6.049 1.134-9.074l29.995 63.642 2.52 24.071Z" fill="#DB8C70"/><path d="M159.926 192.935c-.756 3.528-1.89 7.183-3.528 11.09-4.159 10.46-10.839 21.676-16.51 30.876-2.016 3.276-4.032 6.301-5.671 8.947-2.394 3.655-5.671 7.94-9.452 12.225-7.813 8.821-17.517 17.139-23.44 17.769-1.261.126-2.395-.126-3.403-.756-5.041-3.781-8.066-11.468-5.041-27.725 1.134-6.176 3.15-13.485 6.301-22.181 10.208-28.859 33.145-68.683 37.682-76.496 0-.126.126-.126.126-.252.126-.252.252-.504.378-.63s.252-.378.252-.504c0 0 4.537-1.261 7.813 4.032 1.765 2.899 6.932 10.712 10.713 20.038 1.26 2.899 2.268 6.049 3.024 9.074 1.26 4.915 1.639 9.956.756 14.493Z" fill="#F4A082"/><path opacity=".6" d="m169.126 217.509-9.956 5.923c-.252-.63-.378-1.26-.63-1.89-2.394-6.301-2.52-12.476-2.016-17.517-4.159 10.46-10.839 21.676-16.51 30.876l-26.591 15.753 34.531-52.426 8.066-15.249 4.536-8.57 7.814-4.915.756 48.015Z" fill="#DB8C70"/><path d="M249.531 168.234c-4.663 16.257-27.726 18.147-27.726 18.147s-18.904-3.654-24.449-17.013a18.847 18.847 0 0 1-1.134-4.033c-2.899-16.635 6.049-67.422 6.049-67.422l23.945 7.435 24.575-4.789s1.26 20.038 1.134 39.068c-.126 11.342-.756 22.432-2.394 28.607Z" fill="#F4A082"/><path opacity=".6" d="M251.925 139.5c-.504-2.268-1.008-4.41-1.26-6.427-1.26-8.569-2.899-16.005-5.293-16.383-2.395-.378-12.855 5.419-20.669 6.301-4.788.504-9.703-2.646-12.854-5.167-2.143-1.764-5.419-1.26-6.932 1.009-2.268 3.528-4.789 9.577-5.167 19.785-.756 18.904 7.058 30.372 7.058 30.372l-9.578.378c-.504-1.26-5.671-9.452-5.923-10.838-2.899-16.635 10.838-60.617 10.838-60.617l23.945 7.435 24.575-4.789c.126-.126 1.386 19.912 1.26 38.941Z" fill="#DB8C70"/><path opacity=".6" d="M198.49 137.232s6.68 4.915 11.342 5.797c4.789.756 10.713.252 11.721 2.647 1.008 2.394-.252 5.167-4.159 3.15-3.907-2.016-7.309-2.394-10.712-2.646-3.403-.378-8.444-3.277-8.444-3.277l.252-5.671Zm53.309 2.899s-7.184 4.159-11.973 4.537c-4.789.252-10.712-.882-11.846 1.26-1.26 2.268-.378 5.167 3.781 3.529 4.158-1.513 7.561-1.513 10.838-1.513 3.402 0 8.822-2.394 8.822-2.394l.378-5.419Z" fill="#DB8C70"/><path d="m221.553 170.628 1.512-7.183.378 8.065-1.89-.882Z" fill="#E67B70"/><path d="M274.105 352.607c-8.569 1.89-42.974 5.167-61.626 4.159-18.652-1.009-52.427-8.066-60.87-10.838-3.529-1.261-4.789-2.143-5.167-3.151-.504-1.26.756-2.521.63-4.033-.378-2.646-1.765-6.679 1.89-9.074 3.655-2.394 13.233-26.717 14.115-42.47.882-15.753.63-51.165-4.663-65.658-5.293-14.493.378-28.607.378-28.607 3.403-11.973 9.452-23.441 9.452-23.441s5.797-11.216 8.696-24.323c1.26-6.049 2.898-12.35 4.159-17.391 7.057-2.772 13.484-5.041 17.643-6.175-.126.378-7.435 15.249-5.167 29.238 1.26 7.561 9.578 12.224 17.14 14.996 6.427 2.395 12.098 3.277 12.098 3.277s22.559-.126 26.465-13.863c2.017-7.435 2.647-15.879 2.773-22.054.126-5.041-.126-8.443-.126-8.569 3.907 1.638 10.208 4.536 16.761 8.065.756 5.167-1.26 13.989-.63 20.164 1.386 13.358 10.712 29.616 10.712 29.616s1.261 2.268 2.647 7.309c.756 2.646 1.512 6.049 2.268 10.208 0 0 4.159 14.619-2.772 28.481a83.314 83.314 0 0 0-1.891 4.537c-2.52 7.183-4.663 17.139-6.301 27.347-2.016 12.477-3.151 25.079-3.655 32.893-.882 15.753 6.05 40.957 9.452 43.73 3.403 2.772 1.512 6.679.882 9.2-.63 2.394 3.277 4.536-5.293 6.427Z" fill="#D0F4EA"/><path d="M281.415 189.532c-5.419-14.745-20.29-16.005-30.246-15.123-1.765.126-2.899-2.017-1.512-3.277 7.813-7.561 12.098-20.794 9.325-26.465-2.268-4.663-5.167-9.073-6.931-11.594.126-5.041-.126-8.444-.126-8.57 3.907 1.639 10.208 4.537 16.761 8.066.757 5.167-1.26 13.989-.63 20.164 1.387 13.358 10.712 29.615 10.712 29.615s1.135 2.143 2.647 7.184ZM159.8 342.525s18.904 5.797 39.824 7.057c-9.199-.378-27.347-1.386-40.328-3.024-.504-1.261.757-2.521.504-4.033Zm19.409-8.318-30.121-4.536c3.655-2.395 13.233-26.718 14.115-42.471.883-15.753.63-51.165-4.663-65.658-5.293-14.493.378-28.607.378-28.607 3.403-11.973 9.452-23.441 9.452-23.441s5.798-11.216 8.696-24.323c1.26-6.049 2.899-12.35 4.159-17.391 7.057-2.772 13.485-5.041 17.644-6.175-.126.378-7.436 15.249-5.167 29.238 1.26 7.561 9.577 12.224 17.139 14.996 0 0-29.994-3.654-38.438 7.94-8.444 11.594-12.854 54.19 4.663 54.442 8.318.126 15.753-.756 21.172-1.89 2.017-.378 3.151 2.268 1.387 3.403-4.663 3.15-10.586 6.679-15.501 8.317-10.082 3.277-10.461 4.789-13.485 21.676-3.025 16.887-4.285 40.202-4.537 51.166-.126 7.309 8.696 15.753 14.745 20.542 1.008.882 0 3.024-1.638 2.772Z" fill="#AAE9D7"/><path d="M198.742 121.479c-4.789 9.074-6.679 40.202-3.907 47.889 2.773 7.31 4.285 25.205 0 37.051l-.378 1.134c-4.663 11.847-23.314 12.855-23.314 12.855l1.512-5.797c-7.183 7.435-21.928 8.191-21.928 8.191s5.041-6.805 7.687-13.736c1.26-3.277 2.017-6.553 1.638-9.074-1.008-5.671-1.134-16.509-.252-28.859.378-5.293 1.009-10.712 1.765-16.132 2.646-18.147 8.065-34.53 22.306-41.713 14.367-7.184 17.14-24.575 17.14-24.575l5.293 4.537s-.252 1.89-.756 4.915c-1.261 6.301-3.529 17.139-6.806 23.314Z" fill="#1D3542"/><path d="M279.021 232.758c-2.521 7.184-4.663 17.14-6.302 27.348-.756-7.058-3.528-16.131-12.476-18.022-9.326-1.89-13.863-5.671-16.005-8.443-.631-.757.252-1.891 1.134-1.513 15.753 6.932 33.649.63 33.649.63Z" fill="#AAE9D7"/><path d="M194.835 169.368c2.773 7.31 4.285 25.205 0 37.051 6.05-35.538-13.106-30.623-16.257-51.417-3.276-20.668 10.964-26.213 16.509-33.649 5.546-7.561 7.562-25.079 7.562-25.079l2.773 1.89c-1.135 6.302-3.403 17.14-6.68 23.315-4.915 9.074-6.805 40.328-3.907 47.889Z" fill="#01080A"/><path d="M188.408 55.82s-6.553-5.166-8.318 1.64c-1.764 6.678 2.521 19.155 5.923 20.541 3.277 1.386 7.436-1.638 7.436-1.638l-5.041-20.542Zm74.733 0s6.553-5.166 8.318 1.64c1.764 6.678-2.521 19.155-5.923 20.541-3.277 1.386-7.436-1.638-7.436-1.638l5.041-20.542Z" fill="#E67B70"/><path d="M226.09 11.712s-57.342-2.899-34.909 70.07c11.09 36.042 34.909 33.774 34.909 33.774s23.818 2.394 34.909-33.775c22.306-72.968-34.909-70.069-34.909-70.069Z" fill="#F4A082"/><path d="M264.906 65.02c-3.025 7.814-2.647 4.285-4.915 0-1.891-3.528-6.554-9.451-18.526-13.736-.882-.252-1.764-.63-2.647-.883-1.512-.504-3.024-.882-4.789-1.386l-1.512-.378c-18.652-4.285-28.86-16.761-28.86-16.761-2.142 11.846-6.175 14.115-8.821 16.131l-.126.126c-.757.504-1.261 1.008-1.765 1.638-2.142 3.151-5.041 19.786-5.041 19.786S185.51 58.72 184.376 56.2c-1.135-2.52-5.168-13.737-.883-27.095C187.778 15.619 198.112 1.881 226.846 1c14.115-.504 28.608 10.838 33.775 17.517 5.545 7.058 7.309 14.997 8.065 18.778 1.765 7.183-.756 19.912-3.78 27.725Z" fill="#1D3542"/><path d="M238.818 50.401c-1.512-.504-3.024-.882-4.789-1.386-2.268-3.025-3.402-7.687-4.033-11.342-.126-.378.631-.63.631-.126 1.512 4.537 3.906 10.46 8.191 12.854Zm26.087 14.619c-3.024 7.814-2.646 4.285-4.915 0-1.89-3.528-6.553-9.451-18.525-13.736 6.805 1.008 14.115 4.285 17.643 5.923 1.261.63 2.647 0 3.025-1.26 4.663-14.997 1.26-29.364-1.512-37.303 5.545 7.057 7.309 14.996 8.065 18.777 1.765 7.057-.756 19.786-3.781 27.6Zm-79.017-13.736s6.301-1.26 8.821-3.15c-.756.503-1.26 1.008-1.764 1.638-2.142 3.15-5.041 19.785-5.041 19.785-.504-7.561 2.899-18.273 2.899-18.273-1.387.378-4.915 0-4.915 0Zm17.895-19.282c-2.142 11.846-6.175 14.115-8.822 16.131 2.521-1.89 4.663-6.931 6.05-11.09.882-2.646.756-5.545.378-7.435 0-.378.378-.504.63-.252l1.764 2.646Z" fill="#01080A"/><path d="M220.167 196.589c-.379.504-5.546 7.562-27.222 23.945-70.574 53.686-91.873 53.308-91.873 53.308-.63-2.394-1.008-4.663-1.134-6.805-2.394-27.095 22.937-41.462 39.824-48.519 17.014-7.058 48.52-20.794 62.509-27.348 1.008-.504 2.016-.882 2.773-1.386 6.553-3.151 10.46-.882 12.602 1.89 1.89 2.269 2.521 4.915 2.521 4.915Z" fill="#F4A082"/><path d="M220.166 196.589c-3.402 3.907-7.435 3.907-10.712 2.521-3.78-1.638-6.679-5.293-7.183-7.814v-.126c.756-2.268 13.737-43.856 14.871-51.165.882-5.545 2.268-7.94 4.285-7.688.378 0 .756.252 1.134.378.756.504 1.134 1.387 1.134 2.269v40.453s3.655 12.855-3.529 21.172Z" fill="#F4A082"/><path opacity=".6" d="M220.166 196.589c-.378.505-5.545 7.562-27.221 23.945-70.574 53.686-91.873 53.308-91.873 53.308v-.126c-1.008-4.285.883-8.822 4.663-11.09 8.318-5.041 21.173-9.704 28.986-12.98 14.241-5.798 51.419-28.23 62.635-35.791 11.216-7.562 11.468-14.871 11.468-14.871s.252 0 .504-.126c2.017-.252 9.2-1.638 8.444-6.931v-.379c-.756-6.175 4.033-16.509 4.033-16.509s.126-35.412 0-39.823c-.126-1.639.252-2.269.756-2.521.756.504 1.134 1.387 1.134 2.269v40.453s3.655 12.855-3.529 21.172Z" fill="#DB8C70"/><path d="M329.052 275.733c-.378 2.898-1.26 6.049-2.394 9.199-.252-.126-2.016-.504-5.923-2.898-8.948-5.293-29.49-20.038-71.835-61.5-3.528-3.403-6.553-6.427-9.073-9.2-12.225-12.728-14.871-17.895-14.871-17.895s4.41-12.098 15.753-4.915c9.2 5.923 27.977 19.786 43.983 30.12 3.78 2.394 7.309 4.663 10.586 6.553 15.123 8.822 37.555 25.331 33.774 50.536Z" fill="#F4A082"/><path d="M244.867 191.17s-13.736-43.73-14.871-51.166c-1.134-7.435-3.276-9.199-6.553-6.679v42.092s-3.655 12.855 3.529 21.172c7.183 8.192 17.139-.756 17.895-5.419Z" fill="#F4A082"/><path opacity=".6" d="M328.926 284.554c-.756.378-1.512.504-2.268.504-1.764-.126-3.781-1.134-5.923-2.899-8.948-5.293-29.49-20.037-71.835-61.499-3.529-3.403-6.553-6.428-9.074-9.2.757.63 43.101 34.783 63.265 49.023 4.663 3.277 8.192 5.545 9.704 5.923 4.537 1.387 12.477 5.293 16.51 9.326 2.646 3.025 3.528 6.175-.379 8.822Z" fill="#DB8C70"/><path d="M218.449 70.133c-1.885 1.88-4.639 3.036-7.539 3.036-2.754 0-5.364-1.012-7.249-2.747m45.963-.289c-1.886 1.88-4.64 3.036-7.54 3.036-2.756 0-5.366-1.012-7.249-2.747m.869 27.056c-2.32 1.735-5.655 2.747-9.279 2.747-3.481 0-6.525-.867-8.845-2.458m13.631 5.639c-1.161.435-2.757.724-4.642.724-1.739 0-3.334-.289-4.495-.579" stroke="#000" stroke-width=".512" stroke-miterlimit="10" stroke-linecap="round" stroke-linejoin="round"/><path d="M206.56 57.144c5.801-2.168 9.859 1.157 10.44 4.337 0 0-3.625-1.156-9.135-.433-5.51.867-10.005 3.18-10.005 3.18s2.9-5.06 8.7-7.084Zm40.164 0c-5.801-2.168-9.86 1.157-10.44 4.337 0 0 3.625-1.156 9.135-.433 5.51.867 10.005 3.18 10.005 3.18s-2.9-5.06-8.7-7.084Z" fill="#372E2A"/><path d="M227.757 74.094c-1.17 3.36-.651 7.142 1.429 9.942.912 1.12 1.951 2.24 2.471 3.641.521 1.54.129 3.36-.91 4.48-.91 1.261-2.471 1.961-3.901 2.101m-25.942-22.534s2.032.58 3.915-.435m47.271.435s-2.032.58-3.915-.435" stroke="#000" stroke-width=".512" stroke-miterlimit="10" stroke-linecap="round" stroke-linejoin="round"/><path opacity=".6" d="M196.978 502.576c-2.269-9.704-5.419-22.433-7.94-25.709-3.781-5.041-11.216-6.302-11.216-6.302l-1.008-10.712c3.024-.126 11.09-.63 15.753-3.528 5.671-3.655 1.386 10.082 3.907 18.525 2.52 8.444 4.789 37.681.504 27.726Z" fill="#DB8C70"/><path d="M177.822 470.44s-19.912 0-43.101 1.89c-18.4 1.512-68.18-2.016-98.552-4.033-7.813-.504-13.61-1.008-16.257-1.386h-.126c-.126-.126-1.638-1.386-2.899-3.403-.882-1.386-1.638-3.15-1.638-5.293 0 0-2.268-7.939 5.167-13.484.756-.504 1.512-1.008 2.395-1.513 10.334-5.545 32.136-17.391 45.243-19.533 13.232-2.143 28.103-.882 39.824 1.26 11.72 2.142 36.295 9.83 45.369 10.964 2.646.252 21.676 1.512 21.676 1.512s3.151 14.997 3.529 25.457c.126 3.025 0 5.797-.63 7.562Z" fill="#1F5148"/><path d="M177.822 470.44s-19.912 0-43.101 1.89c-18.4 1.512-68.18-2.016-98.552-4.033-7.813-.504-13.61-1.008-16.257-1.386h-.126l-.126-.126a6.857 6.857 0 0 1-2.143-6.805c1.387-5.545 4.916-10.208 13.107-8.066 17.14 4.537 42.219-.882 69.944 4.285 22.937 4.285 60.114 7.687 77.884 6.679.126 3.025 0 5.797-.63 7.562Z" fill="#1D4941"/><path opacity=".6" d="M223.821 772.771c.882 0 1.386 1.134.63 1.764-2.394 2.017-6.427 2.899-8.948 2.899-4.032 0-19.912.756-19.912.756s-3.906 2.52-7.939 1.89c-1.387-.126-3.151-1.26-4.537-2.772.378-1.386 2.898-1.134 7.561-.63 5.545.63 3.025-3.907 3.025-3.907s7.561 2.142 18.778.63c4.663-.756 8.443-.756 11.342-.63Z" fill="#DB8C70"/></svg>