<svg width="757" height="310" fill="none" xmlns="http://www.w3.org/2000/svg"><g filter="url(#a)"><rect x="106" y="76" width="416" height="150" rx="15" fill="url(#b)"/><rect x="106" y="76" width="416" height="150" rx="15" stroke="url(#c)"/></g><rect x="106" y="76" width="650" height="150" rx="15" fill="url(#d)" stroke="url(#e)" stroke-width="2"/><g opacity=".46"><path d="M736 151h-2.252v-1.263H736V151Zm0-3.41h-2.252v-2.273H736v2.273Z" fill="url(#f)"/><path d="M728.869 148.979h-2.252v-2.273h2.252v2.273Zm0-4.546h-2.252v-2.274h2.252v2.274Zm0-4.421h-2.252v-2.273h2.252v2.273Z" fill="url(#g)"/><path d="M721.738 151h-2.252v-1.137h2.252V151Zm0-3.41h-2.252v-2.273h2.252v2.273Zm0-4.42h-2.252v-2.274h2.252v2.274Zm0-4.421h-2.252v-2.273h2.252v2.273Zm0-4.42h-2.252v-2.274h2.252v2.274Z" fill="url(#h)"/><path d="M714.607 150.242h-2.251v-2.273h2.251v2.273Zm0-4.42h-2.251v-2.274h2.251v2.274Z" fill="url(#i)"/><path d="M707.477 151h-2.252v-.884h2.252V151Zm0-3.031h-2.252v-2.273h2.252v2.273Zm0-4.421h-2.252v-2.273h2.252v2.273Zm0-4.546h-2.252v-2.274h2.252v2.274Z" fill="url(#j)"/><path d="M700.346 149.863h-2.252v-2.273h2.252v2.273Zm0-4.546h-2.252v-2.274h2.252v2.274Zm0-4.421h-2.252v-2.273h2.252v2.273Zm0-4.42h-2.252v-2.274h2.252v2.274Zm0-4.421h-2.252v-2.273h2.252v2.273Zm0-4.546h-2.252v-2.274h2.252v2.274Z" fill="url(#k)"/><path d="M693.09 151h-2.252v-.631h2.252V151Zm0-2.779h-2.252v-2.273h2.252v2.273Zm0-4.42h-2.252v-2.273h2.252v2.273Z" fill="url(#l)"/><path d="M685.959 151h-2.252v-2.147h2.252V151Zm0-4.294h-2.252v-2.273h2.252v2.273Zm0-4.547h-2.252v-2.273h2.252v2.273Zm0-4.42h-2.252v-2.274h2.252v2.274Zm0-4.421h-2.252v-2.273h2.252v2.273Z" fill="url(#m)"/><path d="M678.828 148.979h-2.252v-2.273h2.252v2.273Zm0-4.42h-2.252v-2.274h2.252v2.274Zm0-4.421h-2.252v-2.273h2.252v2.273Zm0-4.42h-2.252v-2.273h2.252v2.273Zm0-4.547h-2.252v-2.273h2.252v2.273Zm0-4.42h-2.252v-2.273h2.252v2.273Zm0-4.421h-2.252v-2.273h2.252v2.273Z" fill="url(#n)"/><path d="M671.572 150.747h-2.252v-2.273h2.252v2.273Zm0-4.42h-2.252v-2.273h2.252v2.273Zm0-4.547h-2.252v-2.273h2.252v2.273Zm0-4.42h-2.252v-2.273h2.252v2.273Zm0-4.421h-2.252v-2.273h2.252v2.273Zm0-4.42h-2.252v-2.273h2.252v2.273Zm0-4.547h-2.252v-2.273h2.252v2.273Z" fill="url(#o)"/><path d="M664.441 151h-2.252v-2.273h2.252V151Zm0-4.547h-2.252v-2.273h2.252v2.273Zm0-4.42h-2.252v-2.273h2.252v2.273Zm0-4.421h-2.252v-2.273h2.252v2.273Zm0-4.42h-2.252v-2.273h2.252v2.273Zm0-4.547h-2.252v-2.273h2.252v2.273Zm0-4.42h-2.252v-2.273h2.252v2.273Zm0-4.421h-2.252v-2.273h2.252v2.273Zm0-4.546h-2.252v-2.274h2.252v2.274Zm0-4.421h-2.252v-2.273h2.252v2.273Zm0-4.42h-2.252v-2.273h2.252v2.273Z" fill="url(#p)"/><path d="M655.184 151v-1.768h2.252V151h-2.252Zm0-4.042v-2.273h2.252v2.273h-2.252Zm0-4.42v-2.273h2.252v2.273h-2.252Zm0-4.42v-2.274h2.252v2.274h-2.252Zm0-4.547v-2.273h2.252v2.273h-2.252Zm0-4.42v-2.274h2.252v2.274h-2.252Zm0-4.421v-2.273h2.252v2.273h-2.252Zm0-4.42v-2.274h2.252v2.274h-2.252Zm0-4.547v-2.273h2.252v2.273h-2.252Zm0-4.42v-2.274h2.252v2.274h-2.252Zm0-4.421v-2.273h2.252v2.273h-2.252Zm0-4.547v-2.273h2.252v2.273h-2.252Zm0-4.42v-2.273h2.252v2.273h-2.252Z" fill="url(#q)"/><path d="M650.18 151h-2.252v-1.389h2.252V151Zm0-3.663h-2.252v-2.273h2.252v2.273Zm0-4.42h-2.252v-2.273h2.252v2.273Zm0-4.42h-2.252v-2.274h2.252v2.274Zm0-4.421h-2.252v-2.273h2.252v2.273Zm0-4.547h-2.252v-2.273h2.252v2.273Zm0-4.42h-2.252v-2.273h2.252v2.273Zm0-4.42h-2.252v-2.274h2.252v2.274Zm0-4.421h-2.252v-2.273h2.252v2.273Zm0-4.547h-2.252v-2.147h2.252v2.147Zm0-4.42h-2.252v-2.273h2.252v2.273Z" fill="url(#r)"/><path d="M643.049 150.495h-2.252v-2.274h2.252v2.274Zm0-4.547h-2.252v-2.273h2.252v2.273Zm0-4.42h-2.252v-2.274h2.252v2.274Zm0-4.421h-2.252v-2.273h2.252v2.273Zm0-4.42h-2.252v-2.274h2.252v2.274Zm0-4.547h-2.252v-2.147h2.252v2.147Zm0-4.42h-2.252v-2.274h2.252v2.274Zm0-4.421h-2.252v-2.273h2.252v2.273Zm0-4.42h-2.252v-2.273h2.252v2.273Zm0-4.547h-2.252v-2.273h2.252v2.273Zm0-4.42h-2.252v-2.274h2.252v2.274Zm0-4.421h-2.252v-2.273h2.252v2.273Zm0-4.546h-2.252V94.67h2.252v2.274Zm0-4.42h-2.252v-2.148h2.252v2.147Zm0-4.421h-2.252V85.83h2.252v2.274Z" fill="url(#s)"/><path d="M635.918 151h-2.252v-1.642h2.252V151Zm0-3.915h-2.252v-2.147h2.252v2.147Zm0-4.421h-2.252v-2.273h2.252v2.273Zm0-4.42h-2.252v-2.273h2.252v2.273Zm0-4.547h-2.252v-2.273h2.252v2.273Z" fill="url(#t)"/><path d="M628.787 150.242h-2.252v-2.273h2.252v2.273Zm0-4.42h-2.252v-2.274h2.252v2.274Zm0-4.421h-2.252v-2.273h2.252v2.273Zm0-4.546h-2.252v-2.274h2.252v2.274Zm0-4.421h-2.252v-2.273h2.252v2.273Zm0-4.42h-2.252v-2.274h2.252v2.274Zm0-4.421h-2.252v-2.273h2.252v2.273Zm0-4.546h-2.252v-2.274h2.252v2.274Z" fill="url(#u)"/><path d="M621.656 149.99h-2.252v-2.274h2.252v2.274Zm0-4.547h-2.252v-2.273h2.252v2.273Zm0-4.421h-2.252v-2.273h2.252v2.273Zm0-4.42h-2.252v-2.273h2.252v2.273Zm0-4.547h-2.252v-2.273h2.252v2.273Zm0-4.42h-2.252v-2.273h2.252v2.273Zm0-4.42h-2.252v-2.274h2.252v2.274Zm0-4.421h-2.252v-2.273h2.252v2.273Zm0-4.547h-2.252V112.1h2.252v2.147Zm0-4.42h-2.252v-2.273h2.252v2.273Z" fill="url(#v)"/><path d="M614.525 151h-2.251v-2.273h2.251V151Zm0-4.547h-2.251v-2.273h2.251v2.273Zm0-4.42h-2.251v-2.273h2.251v2.273Zm0-4.421h-2.251v-2.273h2.251v2.273Zm0-4.546h-2.251v-2.274h2.251v2.274Zm0-4.421h-2.251v-2.273h2.251v2.273Zm0-4.42h-2.251v-2.273h2.251v2.273Zm0-4.42h-2.251v-2.274h2.251v2.274Z" fill="url(#w)"/><path d="M607.269 149.232h-2.251v-2.274h2.251v2.274Zm0-4.421h-2.251v-2.273h2.251v2.273Zm0-4.42h-2.251v-2.273h2.251v2.273Zm0-4.42h-2.251v-2.274h2.251v2.274Zm0-4.547h-2.251v-2.273h2.251v2.273Zm0-4.421h-2.251v-2.273h2.251v2.273Zm0-4.42h-2.251v-2.273h2.251v2.273Z" fill="url(#x)"/><path d="M600.139 149.106h-2.252v-2.274h2.252v2.274Zm0-4.421h-2.252v-2.273h2.252v2.273Zm0-4.547h-2.252v-2.273h2.252v2.273Zm0-4.42h-2.252v-2.147h2.252v2.147Zm0-4.42h-2.252v-2.274h2.252v2.274Z" fill="url(#y)"/><path d="M593.008 146.832h-2.252v2.274h2.252v-2.274Z" fill="url(#z)"/><path d="M585.877 151h-2.252v-.126l2.252.126Zm0-2.273h-2.252v-2.274h2.252v2.274Zm0-4.421h-2.252v-2.273h2.252v2.273Z" fill="url(#A)"/><path d="M578.621 150.116h-2.252v-2.273h2.252v2.273Zm0-4.421h-2.252v-2.273h2.252v2.273Zm0-4.42h-2.252v-2.273h2.252v2.273Zm0-4.547h-2.252v-2.273h2.252v2.273Z" fill="url(#B)"/><path d="M571.49 150.242h-2.252v-2.273h2.252v2.273Zm0-4.42h-2.252v-2.274h2.252v2.274Zm0-4.421h-2.252v-2.273h2.252v2.273Zm0-4.546h-2.252v-2.274h2.252v2.274Zm0-4.421h-2.252v-2.273h2.252v2.273Zm0-4.42h-2.252v-2.274h2.252v2.274Zm0-4.421h-2.252v-2.273h2.252v2.273Z" fill="url(#C)"/><path d="M564.359 149.106h-2.252v-2.274h2.252v2.274Zm0-4.421h-2.252v-2.273h2.252v2.273Zm0-4.42h-2.252v-2.274h2.252v2.274Zm0-4.421h-2.252v-2.273h2.252v2.273Zm0-4.546h-2.252v-2.274h2.252v2.274Zm0-4.421h-2.252v-2.273h2.252v2.273Zm0-4.42h-2.252v-2.274h2.252v2.274Zm0-4.547h-2.252v-2.273h2.252v2.273Zm0-4.42h-2.252v-2.274h2.252v2.274Zm0-4.421h-2.252v-2.273h2.252v2.273Z" fill="url(#D)"/><path d="M555.102 151v-.758h2.252V151h-2.252Zm0-3.031v-2.273h2.252v2.273h-2.252Z" fill="url(#E)"/><path d="M550.098 150.747h-2.252v-2.273h2.252v2.273Zm0-4.546h-2.252v-2.274h2.252v2.274Zm0-4.421h-2.252v-2.273h2.252v2.273Z" fill="url(#F)"/><path d="M542.967 151h-2.252v-2.021h2.252V151Zm0-4.168h-2.252v-2.273h2.252v2.273Zm0-4.42h-2.252v-2.274h2.252v2.274Zm0-4.421h-2.252v-2.273h2.252v2.273Zm0-4.546h-2.252v-2.274h2.252v2.274Zm0-4.421h-2.252v-2.273h2.252v2.273Z" fill="url(#G)"/><path d="M535.836 149.106h-2.252v-2.274h2.252v2.274Zm0-4.547h-2.252v-2.147h2.252v2.147Zm0-4.421h-2.252v-2.273h2.252v2.273Zm0-4.42h-2.252v-2.273h2.252v2.273Zm0-4.42h-2.252v-2.274h2.252v2.274Zm0-4.547h-2.252v-2.274h2.252v2.274Zm0-4.421h-2.252v-2.273h2.252v2.273Zm0-4.42h-2.252v-2.273h2.252v2.273Zm0-4.547h-2.252v-2.273h2.252v2.273Zm0-4.42h-2.252v-2.273h2.252v2.273Zm0-4.421h-2.252v-2.273h2.252v2.273Zm0-4.42h-2.252v-2.273h2.252v2.273Z" fill="url(#H)"/><path d="M528.705 150.747h-2.252v-2.273h2.252v2.273Zm0-4.42h-2.252v-2.273h2.252v2.273Zm0-4.547h-2.252v-2.273h2.252v2.273Zm0-4.42h-2.252v-2.273h2.252v2.273Zm0-4.421h-2.252v-2.273h2.252v2.273Zm0-4.42h-2.252v-2.273h2.252v2.273Zm0-4.547h-2.252v-2.273h2.252v2.273Zm0-4.42h-2.252v-2.273h2.252v2.273Z" fill="url(#I)"/><path d="M521.574 150.621h-2.252v-2.273h2.252v2.273Zm0-4.42h-2.252v-2.274h2.252v2.274Zm0-4.547h-2.252v-2.273h2.252v2.273Zm0-4.42h-2.252v-2.274h2.252v2.274Zm0-4.421h-2.252v-2.273h2.252v2.273Zm0-4.547h-2.252v-2.273h2.252v2.273Zm0-4.42h-2.252v-2.273h2.252v2.273Zm0-4.42h-2.252v-2.274h2.252v2.274Zm0-4.421h-2.252v-2.273h2.252v2.273Zm0-4.547h-2.252v-2.147h2.252v2.147Zm0-4.42h-2.252v-2.273h2.252v2.273Z" fill="url(#J)"/><path d="M514.318 151h-2.252v-1.768h2.252V151Zm0-3.915h-2.252v-2.274h2.252v2.274Zm0-4.547h-2.252v-2.273h2.252v2.273Zm0-4.42h-2.252v-2.274h2.252v2.274Zm0-4.421h-2.252v-2.273h2.252v2.273Zm0-4.42h-2.252v-2.274h2.252v2.274Zm0-4.547h-2.252v-2.273h2.252v2.273Zm0-4.42h-2.252v-2.274h2.252v2.274Zm0-4.421h-2.252v-2.273h2.252v2.273Zm0-4.42h-2.252v-2.273h2.252v2.273Zm0-4.547h-2.252v-2.273h2.252v2.273Zm0-4.42h-2.252v-2.274h2.252v2.274Zm0-4.42h-2.252v-2.274h2.252v2.273Zm0-4.547h-2.252V91.26h2.252v2.274Zm0-4.42h-2.252v-2.148h2.252v2.147Zm0-4.421h-2.252V82.42h2.252v2.274Zm0-4.42h-2.252V78h2.252v2.273Z" fill="url(#K)"/><path d="M507.187 149.99h-2.251v-2.274h2.251v2.274Zm0-4.547h-2.251v-2.273h2.251v2.273Zm0-4.42h-2.251v-2.274h2.251v2.274Zm0-4.421h-2.251v-2.273h2.251v2.273Zm0-4.547h-2.251v-2.273h2.251v2.273Zm0-4.42h-2.251v-2.273h2.251v2.273Zm0-4.42h-2.251v-2.274h2.251v2.274Zm0-4.421h-2.251v-2.273h2.251v2.273Zm0-4.547h-2.251V112.1h2.251v2.147Zm0-4.42h-2.251v-2.273h2.251v2.273Zm0-4.42h-2.251v-2.274h2.251v2.274Zm0-4.421h-2.251v-2.273h2.251v2.273Zm0-4.547h-2.251v-2.273h2.251v2.273Zm0-4.42h-2.251v-2.273h2.251v2.273Zm0-4.42h-2.251v-2.274h2.251V87.6Z" fill="url(#L)"/><path d="M500.057 149.863h-2.252v-2.273h2.252v2.273Zm0-4.546h-2.252v-2.274h2.252v2.274Zm0-4.421h-2.252v-2.273h2.252v2.273Zm0-4.42h-2.252v-2.274h2.252v2.274Zm0-4.547h-2.252v-2.147h2.252v2.147Zm0-4.42h-2.252v-2.274h2.252v2.274Zm0-4.421h-2.252v-2.273h2.252v2.273Zm0-4.42h-2.252v-2.274h2.252v2.274Zm0-4.547h-2.252v-2.273h2.252v2.273Zm0-4.42h-2.252v-2.274h2.252v2.274Zm0-4.421h-2.252v-2.273h2.252v2.273Zm0-4.42h-2.252v-2.273h2.252v2.273Z" fill="url(#M)"/><path d="M492.926 151h-2.252v-1.263h2.252V151Zm0-3.536h-2.252v-2.274h2.252v2.274Zm0-4.421h-2.252v-2.273h2.252v2.273Zm0-4.42h-2.252v-2.273h2.252v2.273Zm0-4.421h-2.252v-2.273h2.252v2.273Zm0-4.546h-2.252v-2.274h2.252v2.274Zm0-4.421h-2.252v-2.273h2.252v2.273Zm0-4.42h-2.252v-2.273h2.252v2.273Z" fill="url(#N)"/><path d="M485.67 151h-2.252v-.631h2.252V151Zm0-2.779h-2.252v-2.273h2.252v2.273Zm0-4.42h-2.252v-2.273h2.252v2.273Z" fill="url(#O)"/><path d="M478.539 149.611h-2.252v-2.147h2.252v2.147Zm0-4.421h-2.252v-2.273h2.252v2.273Zm0-4.42h-2.252v-2.273h2.252v2.273Zm0-4.547h-2.252v-2.273h2.252v2.273Z" fill="url(#P)"/><path d="M471.408 149.358h-2.252v-2.273h2.252v2.273Zm0-4.547h-2.252v-2.273h2.252v2.273Zm0-4.42h-2.252v-2.273h2.252v2.273Zm0-4.42h-2.252v-2.274h2.252v2.274Zm0-4.421h-2.252v-2.273h2.252v2.273Zm0-4.547h-2.252v-2.273h2.252v2.273Z" fill="url(#Q)"/><path d="M464.277 151h-2.252v-2.147h2.252V151Zm0-4.294h-2.252v-2.273h2.252v2.273Zm0-4.421h-2.252v-2.273h2.252v2.273Zm0-4.42h-2.252v-2.273h2.252v2.273Zm0-4.547h-2.252v-2.273h2.252v2.273Zm0-4.42h-2.252v-2.273h2.252v2.273Zm0-4.42h-2.252v-2.274h2.252v2.274Zm0-4.421h-2.252v-2.273h2.252v2.273Zm0-4.547h-2.252v-2.147h2.252v2.147Z" fill="url(#R)"/><path d="M455.02 151v-.126h2.252V151h-2.252Zm0-2.4v-2.273h2.252v2.273h-2.252Zm0-4.42v-2.273h2.252v2.273h-2.252Zm0-4.421v-2.273h2.252v2.273h-2.252Zm0-4.42v-2.273h2.252v2.273h-2.252Zm0-4.547v-2.273h2.252v2.273h-2.252Zm0-4.42v-2.273h2.252v2.273h-2.252Zm0-4.42v-2.274h2.252v2.274h-2.252Zm0-4.547v-2.274h2.252v2.274h-2.252Zm0-4.421v-2.147h2.252v2.147h-2.252Zm0-4.42v-2.273h2.252v2.273h-2.252Z" fill="url(#S)"/><path d="M450.016 151h-2.252v-.758h2.252V151Zm0-3.031h-2.252v-2.273h2.252v2.273Zm0-4.421h-2.252v-2.273h2.252v2.273Zm0-4.42h-2.252v-2.273h2.252v2.273Zm0-4.42h-2.252v-2.274h2.252v2.274Zm0-4.547h-2.252v-2.273h2.252v2.273Zm0-4.42h-2.252v-2.274h2.252v2.274Zm0-4.421h-2.252v-2.273h2.252v2.273Zm0-4.547h-2.252v-2.147h2.252v2.147Zm0-4.42h-2.252v-2.273h2.252v2.273Zm0-4.42h-2.252v-2.274h2.252v2.274Zm0-4.421h-2.252v-2.273h2.252v2.273Zm0-4.547h-2.252v-2.273h2.252v2.273Zm0-4.42h-2.252v-2.273h2.252v2.273Z" fill="url(#T)"/><path d="M442.885 150.621h-2.252v-2.273h2.252v2.273Zm0-4.42h-2.252v-2.274h2.252v2.274Zm0-4.547h-2.252v-2.273h2.252v2.273Zm0-4.42h-2.252v-2.274h2.252v2.274Zm0-4.421h-2.252v-2.273h2.252v2.273Zm0-4.547h-2.252v-2.273h2.252v2.273Zm0-4.42h-2.252v-2.273h2.252v2.273Zm0-4.42h-2.252v-2.274h2.252v2.274Zm0-4.421h-2.252v-2.273h2.252v2.273Zm0-4.547h-2.252v-2.147h2.252v2.147Zm0-4.42h-2.252v-2.273h2.252v2.273Z" fill="url(#U)"/><path d="M435.754 151h-2.252v-.379h2.252V151Zm0-2.526h-2.252v-2.273h2.252v2.273Zm0-4.42h-2.252v-2.274h2.252v2.274Zm0-4.421h-2.252v-2.273h2.252v2.273Zm0-4.546h-2.252v-2.274h2.252v2.274Zm0-4.421h-2.252v-2.273h2.252v2.273Zm0-4.42h-2.252v-2.274h2.252v2.274Zm0-4.547h-2.252v-2.273h2.252v2.273Zm0-4.42h-2.252v-2.274h2.252v2.274Z" fill="url(#V)"/><path d="M428.498 150.621h-2.252v-2.273h2.252v2.273Zm0-4.547h-2.252v-2.273h2.252v2.273Zm0-4.42h-2.252v-2.273h2.252v2.273Zm0-4.42h-2.252v-2.274h2.252v2.274Zm0-4.547h-2.252v-2.274h2.252v2.274Zm0-4.421h-2.252v-2.273h2.252v2.273Z" fill="url(#W)"/><path d="M421.367 151h-2.252v-1.768h2.252V151Zm0-3.915h-2.252v-2.274h2.252v2.274Z" fill="url(#X)"/><path d="M414.236 148.853h-2.252v-2.273h2.252v2.273Zm0-4.42h-2.252v-2.274h2.252v2.274Zm0-4.421h-2.252v-2.273h2.252v2.273Zm0-4.42h-2.252v-2.274h2.252v2.274Z" fill="url(#Y)"/><path d="M407.105 151h-2.251v-.253h2.251V151Zm0-2.526h-2.251v-2.273h2.251v2.273Zm0-4.42h-2.251v-2.274h2.251v2.274Zm0-4.421h-2.251v-2.273h2.251v2.273Zm0-4.547h-2.251v-2.273h2.251v2.273Zm0-4.42h-2.251v-2.147h2.251v2.147Zm0-4.42h-2.251v-2.274h2.251v2.274Z" fill="url(#Z)"/><path d="M399.975 151h-2.252v-1.01h2.252V151Zm0-3.157h-2.252v-2.274h2.252v2.274Zm0-4.421h-2.252v-2.273h2.252v2.273Zm0-4.42h-2.252v-2.274h2.252v2.274Zm0-4.547h-2.252v-2.147h2.252v2.147Zm0-4.42h-2.252v-2.274h2.252v2.274Zm0-4.421h-2.252v-2.273h2.252v2.273Zm0-4.547h-2.252v-2.273h2.252v2.273Zm0-4.42h-2.252v-2.273h2.252v2.273Z" fill="url(#aa)"/><path d="M392.719 148.727h-2.252v-2.274h2.252v2.274Zm0-4.421h-2.252v-2.273h2.252v2.273Zm0-4.42h-2.252v-2.274h2.252v2.274Zm0-4.547h-2.252v-2.273h2.252v2.273Zm0-4.42h-2.252v-2.274h2.252v2.274Zm0-4.421h-2.252v-2.273h2.252v2.273Zm0-4.546h-2.252v-2.274h2.252v2.274Zm0-4.421h-2.252v-2.273h2.252v2.273Zm0-4.42h-2.252v-2.274h2.252v2.274Zm0-4.421h-2.252v-2.273h2.252v2.273Zm0-4.546h-2.252v-2.147h2.252v2.147Z" fill="url(#ab)"/><path d="M385.588 150.621h-2.252v-2.273h2.252v2.273Zm0-4.42h-2.252v-2.274h2.252v2.274Zm0-4.421h-2.252v-2.273h2.252v2.273Zm0-4.546h-2.252v-2.274h2.252v2.274Zm0-4.421h-2.252v-2.273h2.252v2.273Zm0-4.42h-2.252v-2.274h2.252v2.274Zm0-4.421h-2.252v-2.273h2.252v2.273Zm0-4.546h-2.252v-2.274h2.252v2.274Zm0-4.421h-2.252v-2.273h2.252v2.273Zm0-4.42h-2.252v-2.274h2.252v2.274Zm0-4.547h-2.252v-2.273h2.252v2.273Zm0-4.42h-2.252v-2.147h2.252v2.147Zm0-4.42h-2.252v-2.274h2.252v2.273Zm0-4.421h-2.252v-2.273h2.252v2.273Zm0-4.547h-2.252v-2.147h2.252v2.147Zm0-4.42h-2.252v-2.274h2.252v2.274Z" fill="url(#ac)"/><path d="M378.457 151h-2.252v-.379h2.252V151Zm0-2.652h-2.252v-2.147h2.252v2.147Zm0-4.421h-2.252v-2.273h2.252v2.273Zm0-4.42h-2.252v-2.273h2.252v2.273Zm0-4.547h-2.252v-2.273h2.252v2.273Zm0-4.42h-2.252v-2.274h2.252v2.274Zm0-4.421h-2.252v-2.273h2.252v2.273Zm0-4.42h-2.252v-2.273h2.252v2.273Zm0-4.547h-2.252v-2.273h2.252v2.273Zm0-4.42h-2.252v-2.273h2.252v2.273Zm0-4.421h-2.252v-2.273h2.252v2.273Zm0-4.42h-2.252v-2.273h2.252v2.273Zm0-4.547h-2.252v-2.273h2.252v2.273Zm0-4.42h-2.252V92.65h2.252v2.274Zm0-4.42h-2.252V88.23h2.252v2.273Z" fill="url(#ad)"/><path d="M371.326 150.495h-2.252v-2.274h2.252v2.274Zm0-4.421h-2.252v-2.273h2.252v2.273Zm0-4.546h-2.252v-2.274h2.252v2.274Zm0-4.421h-2.252v-2.273h2.252v2.273Zm0-4.42h-2.252v-2.273h2.252v2.273Zm0-4.421h-2.252v-2.273h2.252v2.273Zm0-4.546h-2.252v-2.274h2.252v2.274Zm0-4.421h-2.252v-2.273h2.252v2.273Zm0-4.42h-2.252v-2.273h2.252v2.273Zm0-4.421h-2.252v-2.273h2.252v2.273Zm0-4.546h-2.252v-2.274h2.252v2.274Zm0-4.421h-2.252v-2.273h2.252v2.273Z" fill="url(#ae)"/><path d="M364.195 151h-2.252v-.884h2.252V151Zm0-3.031h-2.252v-2.274h2.252v2.274Zm0-4.421h-2.252v-2.273h2.252v2.273Zm0-4.546h-2.252v-2.274h2.252v2.274Zm0-4.421h-2.252v-2.273h2.252v2.273Zm0-4.42h-2.252v-2.273h2.252v2.273Zm0-4.547h-2.252v-2.147h2.252v2.147Zm0-4.42h-2.252v-2.274h2.252v2.274Zm0-4.421h-2.252V114.5h2.252v2.273Zm0-4.42h-2.252v-2.273h2.252v2.273Z" fill="url(#af)"/><path d="M354.938 151v-1.768h2.251V151h-2.251Zm0-4.042v-2.273h2.251v2.273h-2.251Zm0-4.42v-2.273h2.251v2.273h-2.251Zm0-4.42v-2.274h2.251v2.274h-2.251Z" fill="url(#ag)"/><path d="M349.934 148.727h-2.252v-2.274h2.252v2.274Zm0-4.421h-2.252v-2.273h2.252v2.273Z" fill="url(#ah)"/><path d="M342.678 148.853h-2.252v-2.273h2.252v2.273Zm0-4.42h-2.252v-2.274h2.252v2.274Zm0-4.547h-2.252v-2.274h2.252v2.274Zm0-4.421h-2.252v-2.273h2.252v2.273Zm0-4.42h-2.252v-2.273h2.252v2.273Zm0-4.42h-2.252v-2.274h2.252v2.274Zm0-4.547h-2.252v-2.273h2.252v2.273Zm0-4.421h-2.252v-2.273h2.252v2.273Zm0-4.42h-2.252v-2.273h2.252v2.273Zm0-4.42h-2.252v-2.274h2.252v2.274Zm0-4.547h-2.252v-2.273h2.252v2.273Z" fill="url(#ai)"/><path d="M335.547 151h-2.252v-.631h2.252V151Zm0-2.905h-2.252v-2.273h2.252v2.273Zm0-4.42h-2.252v-2.274h2.252v2.274Zm0-4.421h-2.252v-2.273h2.252v2.273Zm0-4.42h-2.252v-2.273h2.252v2.273Zm0-4.547h-2.252v-2.273h2.252v2.273Zm0-4.42h-2.252v-2.274h2.252v2.274Zm0-4.421h-2.252v-2.273h2.252v2.273Zm0-4.42h-2.252v-2.273h2.252v2.273Z" fill="url(#aj)"/><path d="M328.416 151h-2.252v-.758h2.252V151Zm0-2.905h-2.252v-2.273h2.252v2.273Zm0-4.42h-2.252v-2.274h2.252v2.274Z" fill="url(#ak)"/><path d="M321.285 151h-2.252v-1.01h2.252V151Zm0-3.284h-2.252v-2.273h2.252v2.273Zm0-4.42h-2.252v-2.273h2.252v2.273Zm0-4.547h-2.252v-2.273h2.252v2.273Z" fill="url(#al)"/><path d="M314.154 151h-2.252v-.758h2.252V151Zm0-3.031h-2.252v-2.274h2.252v2.274Zm0-4.421h-2.252v-2.273h2.252v2.273Zm0-4.42h-2.252v-2.273h2.252v2.273Zm0-4.42h-2.252v-2.274h2.252v2.274Zm0-4.547h-2.252v-2.273h2.252v2.273Zm0-4.421h-2.252v-2.273h2.252v2.273Zm0-4.42h-2.252v-2.273h2.252v2.273Zm0-4.547h-2.252v-2.147h2.252v2.147Zm0-4.42h-2.252v-2.273h2.252v2.273Zm0-4.42h-2.252v-2.274h2.252v2.274Z" fill="url(#am)"/><path d="M307.023 151h-2.251v-1.642h2.251V151Zm0-3.789h-2.251v-2.273h2.251v2.273Zm0-4.42h-2.251v-2.274h2.251v2.274Zm0-4.547h-2.251v-2.147h2.251v2.147Zm0-4.42h-2.251v-2.274h2.251v2.274Zm0-4.421h-2.251v-2.273h2.251v2.273Zm0-4.42h-2.251v-2.274h2.251v2.274Zm0-4.547h-2.251v-2.273h2.251v2.273Zm0-4.42h-2.251v-2.274h2.251v2.274Z" fill="url(#an)"/><path d="M299.767 150.116h-2.251v-2.273h2.251v2.273Zm0-4.42h-2.251v-2.274h2.251v2.274Zm0-4.547h-2.251v-2.274h2.251v2.274Zm0-4.421h-2.251v-2.273h2.251v2.273Zm0-4.42h-2.251v-2.273h2.251v2.273Zm0-4.547h-2.251v-2.273h2.251v2.273Zm0-4.42h-2.251v-2.274h2.251v2.274Z" fill="url(#ao)"/><path d="M292.637 151h-2.252v-1.389h2.252V151Zm0-3.536h-2.252v-2.274h2.252v2.274Zm0-4.421h-2.252v-2.273h2.252v2.273Zm0-4.546h-2.252v-2.274h2.252v2.274Zm0-4.421h-2.252v-2.273h2.252v2.273Zm0-4.42h-2.252v-2.274h2.252v2.274Zm0-4.547h-2.252v-2.273h2.252v2.273Zm0-4.42h-2.252v-2.274h2.252v2.274Zm0-4.421h-2.252v-2.273h2.252v2.273Zm0-4.42h-2.252v-2.274h2.252v2.274Zm0-4.547h-2.252v-2.273h2.252v2.273Zm0-4.42h-2.252v-2.274h2.252v2.274Zm0-4.42h-2.252v-2.274h2.252v2.273Zm0-4.421h-2.252v-2.274h2.252v2.274Zm0-4.547h-2.252v-2.147h2.252v2.147Zm0-4.42h-2.252v-2.274h2.252v2.274Z" fill="url(#ap)"/><path d="M285.506 151h-2.252v-1.137h2.252V151Zm0-3.284h-2.252v-2.273h2.252v2.273Zm0-4.546h-2.252v-2.274h2.252v2.274Zm0-4.421h-2.252v-2.273h2.252v2.273Zm0-4.42h-2.252v-2.274h2.252v2.274Zm0-4.421h-2.252v-2.273h2.252v2.273Zm0-4.546h-2.252v-2.274h2.252v2.274Zm0-4.421h-2.252v-2.273h2.252v2.273Zm0-4.42h-2.252v-2.274h2.252v2.274Zm0-4.421h-2.252v-2.273h2.252v2.273Zm0-4.546h-2.252v-2.274h2.252v2.274Zm0-4.421h-2.252v-2.273h2.252v2.273Zm0-4.42h-2.252v-2.274h2.252v2.274Zm0-4.547h-2.252v-2.273h2.252v2.273Z" fill="url(#aq)"/><path d="M278.375 151h-2.252v-1.263h2.252V151Zm0-3.536h-2.252v-2.274h2.252v2.274Zm0-4.421h-2.252v-2.273h2.252v2.273Zm0-4.42h-2.252v-2.274h2.252v2.274Zm0-4.421h-2.252v-2.273h2.252v2.273Zm0-4.546h-2.252v-2.274h2.252v2.274Zm0-4.421h-2.252v-2.273h2.252v2.273Zm0-4.42h-2.252v-2.273h2.252v2.273Zm0-4.421h-2.252v-2.273h2.252v2.273Zm0-4.546h-2.252v-2.274h2.252v2.274Zm0-4.421h-2.252v-2.273h2.252v2.273Z" fill="url(#ar)"/><path d="M271.244 151h-2.252v-.126h2.252V151Zm0-2.273h-2.252v-2.274h2.252v2.274Zm0-4.547h-2.252v-2.273h2.252v2.273Zm0-4.42h-2.252v-2.274h2.252v2.274Zm0-4.421h-2.252v-2.273h2.252v2.273Zm0-4.547h-2.252v-2.273h2.252v2.273Zm0-4.42h-2.252v-2.273h2.252v2.273Zm0-4.42h-2.252v-2.274h2.252v2.274Zm0-4.421h-2.252v-2.273h2.252v2.273Zm0-4.547h-2.252v-2.147h2.252v2.147Z" fill="url(#as)"/><path d="M264.113 151h-2.252v-2.147h2.252V151Zm0-4.294h-2.252v-2.274h2.252v2.274Zm0-4.421h-2.252v-2.273h2.252v2.273Zm0-4.546h-2.252v-2.274h2.252v2.274Zm0-4.421h-2.252v-2.273h2.252v2.273Zm0-4.42h-2.252v-2.273h2.252v2.273Zm0-4.421h-2.252v-2.273h2.252v2.273Zm0-4.546h-2.252v-2.274h2.252v2.274Z" fill="url(#at)"/><path d="M254.856 149.484v-2.273h2.251v2.273h-2.251Zm0-4.42v-2.273h2.251v2.273h-2.251Zm0-4.547v-2.273h2.251v2.273h-2.251Zm0-4.42v-2.273h2.251v2.273h-2.251Z" fill="url(#au)"/><path d="M249.726 151h-2.251v-.253h2.251V151Zm0-2.4h-2.251v-2.273h2.251v2.273Zm0-4.546h-2.251v-2.274h2.251v2.274Z" fill="url(#av)"/><path d="M242.596 151h-2.252v-1.389h2.252V151Zm0-3.536h-2.252v-2.274h2.252v2.274Zm0-4.421h-2.252v-2.273h2.252v2.273Zm0-4.546h-2.252v-2.274h2.252v2.274Zm0-4.421h-2.252v-2.273h2.252v2.273Zm0-4.42h-2.252v-2.274h2.252v2.274Z" fill="url(#aw)"/><path d="M235.465 150.242h-2.252v-2.273h2.252v2.273Zm0-4.42h-2.252v-2.274h2.252v2.274Zm0-4.547h-2.252v-2.273h2.252v2.273Zm0-4.42h-2.252v-2.274h2.252v2.274Zm0-4.421h-2.252v-2.273h2.252v2.273Zm0-4.42h-2.252v-2.273h2.252v2.273Zm0-4.547h-2.252v-2.273h2.252v2.273Zm0-4.42h-2.252v-2.274h2.252v2.274Zm0-4.421h-2.252v-2.273h2.252v2.273Zm0-4.546h-2.252v-2.274h2.252v2.274Z" fill="url(#ax)"/><path d="M228.334 151h-2.252v-.253h2.252V151Zm0-2.4h-2.252v-2.273h2.252v2.273Zm0-4.546h-2.252v-2.274h2.252v2.274Zm0-4.421h-2.252v-2.273h2.252v2.273Zm0-4.42h-2.252v-2.274h2.252v2.274Zm0-4.421h-2.252v-2.273h2.252v2.273Zm0-4.546h-2.252v-2.274h2.252v2.274Z" fill="url(#ay)"/><path d="M221.203 151h-2.252v-2.147h2.252V151Zm0-4.294h-2.252v-2.274h2.252v2.274Zm0-4.421h-2.252v-2.273h2.252v2.273Zm0-4.546h-2.252v-2.274h2.252v2.274Zm0-4.421h-2.252v-2.273h2.252v2.273Zm0-4.42h-2.252v-2.273h2.252v2.273Zm0-4.421h-2.252v-2.273h2.252v2.273Zm0-4.546h-2.252v-2.274h2.252v2.274Z" fill="url(#az)"/><path d="M214.072 148.6h-2.252v-2.273h2.252v2.273Zm0-4.42h-2.252v-2.273h2.252v2.273Zm0-4.42h-2.252v-2.274h2.252v2.274Zm0-4.421h-2.252v-2.273h2.252v2.273Z" fill="url(#aA)"/><path d="M206.941 151h-2.252v-1.516h2.252V151Zm0-3.663h-2.252v-2.273h2.252v2.273Zm0-4.42h-2.252v-2.273h2.252v2.273Zm0-4.547h-2.252v-2.273h2.252v2.273Zm0-4.42h-2.252v-2.274h2.252v2.274Zm0-4.421h-2.252v-2.273h2.252v2.273Zm0-4.546h-2.252v-2.274h2.252v2.274Zm0-4.421h-2.252v-2.147h2.252v2.147Zm0-4.42h-2.252v-2.273h2.252v2.273Zm0-4.421h-2.252v-2.273h2.252v2.273Zm0-4.546h-2.252v-2.274h2.252v2.274Zm0-4.421h-2.252v-2.273h2.252v2.273Zm0-4.42h-2.252V96.06h2.252v2.273Z" fill="url(#aB)"/><path d="M199.685 149.232h-2.251v-2.274h2.251v2.274Zm0-4.421h-2.251v-2.273h2.251v2.273Zm0-4.546h-2.251v-2.274h2.251v2.274Zm0-4.421h-2.251v-2.273h2.251v2.273Zm0-4.42h-2.251v-2.274h2.251v2.274Zm0-4.421h-2.251v-2.273h2.251v2.273Zm0-4.546h-2.251v-2.274h2.251v2.274Zm0-4.421h-2.251v-2.273h2.251v2.273Zm0-4.42h-2.251v-2.273h2.251v2.273Zm0-4.421h-2.251v-2.273h2.251v2.273Z" fill="url(#aC)"/><path d="M192.555 150.495h-2.252v-2.274h2.252v2.274Zm0-4.547h-2.252v-2.273h2.252v2.273Zm0-4.42h-2.252v-2.274h2.252v2.274Zm0-4.421h-2.252v-2.273h2.252v2.273Zm0-4.546h-2.252v-2.274h2.252v2.274Zm0-4.421h-2.252v-2.147h2.252v2.147Zm0-4.42h-2.252v-2.274h2.252v2.274Zm0-4.421h-2.252v-2.273h2.252v2.273Zm0-4.546h-2.252v-2.274h2.252v2.274Z" fill="url(#aD)"/><path d="M185.424 149.737h-2.252v-2.273h2.252v2.273Zm0-4.42h-2.252v-2.274h2.252v2.274Zm0-4.421h-2.252v-2.273h2.252v2.273Zm0-4.547h-2.252v-2.273h2.252v2.273Zm0-4.42h-2.252v-2.147h2.252v2.147Zm0-4.42h-2.252v-2.274h2.252v2.274Zm0-4.421h-2.252v-2.273h2.252v2.273Zm0-4.546h-2.252v-2.274h2.252v2.274Zm0-4.421h-2.252v-2.273h2.252v2.273Zm0-4.42h-2.252v-2.274h2.252v2.274Zm0-4.421h-2.252v-2.273h2.252v2.273Zm0-4.546h-2.252V98.46h2.252v2.274Zm0-4.42h-2.252V94.04h2.252v2.273Z" fill="url(#aE)"/><path d="M178.293 148.853h-2.252v-2.273h2.252v2.273Zm0-4.42h-2.252v-2.274h2.252v2.274Zm0-4.547h-2.252v-2.274h2.252v2.274Zm0-4.421h-2.252v-2.273h2.252v2.273Zm0-4.42h-2.252v-2.273h2.252v2.273Zm0-4.42h-2.252v-2.274h2.252v2.274Zm0-4.547h-2.252v-2.273h2.252v2.273Zm0-4.421h-2.252v-2.273h2.252v2.273Zm0-4.42h-2.252v-2.273h2.252v2.273Zm0-4.42h-2.252v-2.274h2.252v2.274Zm0-4.547h-2.252v-2.273h2.252v2.273Z" fill="url(#aF)"/><path d="M171.162 151h-2.252v-.758h2.252V151Zm0-2.905h-2.252v-2.273h2.252v2.273Zm0-4.42h-2.252v-2.274h2.252v2.274Z" fill="url(#aG)"/><path d="M163.906 151h-2.252v-.758h2.252V151Zm0-2.905h-2.252v-2.273h2.252v2.273Zm0-4.42h-2.252v-2.274h2.252v2.274Z" fill="url(#aH)"/><path d="M156.775 150.874h-2.252v-2.147h2.252v2.147Zm0-4.421h-2.252v-2.273h2.252v2.273Zm0-4.42h-2.252v-2.273h2.252v2.273Zm0-4.547h-2.252v-2.273h2.252v2.273Z" fill="url(#aI)"/><path d="M149.644 149.484h-2.251v-2.273h2.251v2.273Zm0-4.42h-2.251v-2.273h2.251v2.273Zm0-4.42h-2.251v-2.274h2.251v2.274Zm0-4.547h-2.251v-2.273h2.251v2.273Zm0-4.421h-2.251v-2.273h2.251v2.273Zm0-4.42h-2.251v-2.273h2.251v2.273Zm0-4.42h-2.251v-2.274h2.251v2.274Z" fill="url(#aJ)"/><path d="M142.514 151h-2.252v-2.147h2.252V151Zm0-4.42h-2.252v-2.274h2.252v2.274Zm0-4.421h-2.252v-2.273h2.252v2.273Zm0-4.42h-2.252v-2.274h2.252v2.274Zm0-4.421h-2.252v-2.273h2.252v2.273Z" fill="url(#aK)"/><path d="M135.383 151h-2.252v-1.01h2.252V151Zm0-3.157h-2.252v-2.274h2.252v2.274Zm0-4.547h-2.252v-2.147h2.252v2.147Zm0-4.421h-2.252v-2.273h2.252v2.273Z" fill="url(#aL)"/><path d="M128.252 148.979H126v-2.273h2.252v2.273Zm0-4.546H126v-2.274h2.252v2.274Z" fill="url(#aM)"/><path d="M736 156.683h-2.252v-2.273H736v2.273Zm0-4.42h-2.252V151H736v1.263Z" fill="url(#aN)"/><path d="M728.869 164.135h-2.252v-2.273h2.252v2.273Zm0-4.42h-2.252v-2.274h2.252v2.274Zm0-4.421h-2.252v-2.273h2.252v2.273Z" fill="url(#aO)"/><path d="M721.738 169.945h-2.252v-2.274h2.252v2.274Zm0-4.547h-2.252v-2.273h2.252v2.273Zm0-4.42h-2.252v-2.148h2.252v2.148Zm0-4.421h-2.252v-2.273h2.252v2.273Zm0-4.42h-2.252V151h2.252v1.137Z" fill="url(#aP)"/><path d="M714.607 158.452h-2.251v-2.274h2.251v2.274Zm0-4.547h-2.251v-2.273h2.251v2.273Z" fill="url(#aQ)"/><path d="M707.477 165.145h-2.252v-2.273h2.252v2.273Zm0-4.42h-2.252v-2.273h2.252v2.273Zm0-4.421h-2.252v-2.273h2.252v2.273Zm0-4.546h-2.252v-.884h2.252v.884Z" fill="url(#aR)"/><path d="M700.346 176.638h-2.252v-2.273h2.252v2.273Zm0-4.42h-2.252v-2.273h2.252v2.273Zm0-4.42h-2.252v-2.274h2.252v2.274Zm0-4.547h-2.252v-2.274h2.252v2.274Zm0-4.421h-2.252v-2.273h2.252v2.273Zm0-4.42h-2.252v-2.273h2.252v2.273Z" fill="url(#aS)"/><path d="M693.09 160.472h-2.252v-2.273h2.252v2.273Zm0-4.546h-2.252v-2.147h2.252v2.147Zm0-4.421h-2.252v-.631h2.252v.631Z" fill="url(#aT)"/><path d="M685.959 170.955h-2.252v-2.273h2.252v2.273Zm0-4.547h-2.252v-2.273h2.252v2.273Zm0-4.42h-2.252v-2.273h2.252v2.273Zm0-4.421h-2.252v-2.273h2.252v2.273Zm0-4.42h-2.252V151h2.252v2.147Z" fill="url(#aU)"/><path d="M678.828 181.943h-2.252v-2.273h2.252v2.273Zm0-4.547h-2.252v-2.147h2.252v2.147Zm0-4.42h-2.252v-2.274h2.252v2.274Zm0-4.421h-2.252v-2.273h2.252v2.273Zm0-4.42h-2.252v-2.273h2.252v2.273Zm0-4.547h-2.252v-2.273h2.252v2.273Zm0-4.42h-2.252v-2.274h2.252v2.274Z" fill="url(#aV)"/><path d="M671.572 180.175h-2.252v-2.274h2.252v2.274Zm0-4.421h-2.252v-2.273h2.252v2.273Zm0-4.42h-2.252v-2.273h2.252v2.273Zm0-4.547h-2.252v-2.273h2.252v2.273Zm0-4.42h-2.252v-2.274h2.252v2.274Zm0-4.421h-2.252v-2.273h2.252v2.273Zm0-4.42h-2.252v-2.273h2.252v2.273Z" fill="url(#aW)"/><path d="M664.441 197.73h-2.252v-2.273h2.252v2.273Zm0-4.42h-2.252v-2.274h2.252v2.274Zm0-4.421h-2.252v-2.273h2.252v2.273Zm0-4.42h-2.252v-2.273h2.252v2.273Zm0-4.547h-2.252v-2.147h2.252v2.147Zm0-4.42h-2.252v-2.274h2.252v2.274Zm0-4.421h-2.252v-2.273h2.252v2.273Zm0-4.42h-2.252v-2.273h2.252v2.273Zm0-4.547h-2.252v-2.273h2.252v2.273Zm0-4.42h-2.252v-2.274h2.252v2.274Zm0-4.421h-2.252V151h2.252v2.273Z" fill="url(#aX)"/><path d="M655.184 206.192v-2.273h2.252v2.273h-2.252Zm0-4.42v-2.274h2.252v2.274h-2.252Zm0-4.421v-2.273h2.252v2.273h-2.252Zm0-4.546v-2.274h2.252v2.274h-2.252Zm0-4.421v-2.273h2.252v2.273h-2.252Zm0-4.42v-2.274h2.252v2.274h-2.252Zm0-4.421v-2.273h2.252v2.273h-2.252Zm0-4.546v-2.274h2.252v2.274h-2.252Zm0-4.421v-2.273h2.252v2.273h-2.252Zm0-4.42v-2.274h2.252v2.274h-2.252Zm0-4.547v-2.273h2.252v2.273h-2.252Zm0-4.42v-2.147h2.252v2.147h-2.252Zm0-4.421V151h2.252v1.768h-2.252Z" fill="url(#aY)"/><path d="M650.18 196.846h-2.252v-2.273h2.252v2.273Zm0-4.42h-2.252v-2.274h2.252v2.274Zm0-4.421h-2.252v-2.273h2.252v2.273Zm0-4.42h-2.252v-2.274h2.252v2.274Zm0-4.547h-2.252v-2.273h2.252v2.273Zm0-4.42h-2.252v-2.274h2.252v2.274Zm0-4.421h-2.252v-2.273h2.252v2.273Zm0-4.546h-2.252v-2.274h2.252v2.274Zm0-4.421h-2.252v-2.273h2.252v2.273Zm0-4.42h-2.252v-2.274h2.252v2.274Zm0-4.421h-2.252V151h2.252v1.389Z" fill="url(#aZ)"/><path d="M643.049 216.043h-2.252v-2.273h2.252v2.273Zm0-4.42h-2.252v-2.274h2.252v2.274Zm0-4.421h-2.252v-2.273h2.252v2.273Zm0-4.42h-2.252v-2.273h2.252v2.273Zm0-4.547h-2.252v-2.273h2.252v2.273Zm0-4.42h-2.252v-2.273h2.252v2.273Zm0-4.421h-2.252v-2.273h2.252v2.273Zm0-4.42h-2.252v-2.273h2.252v2.273Zm0-4.547h-2.252v-2.273h2.252v2.273Zm0-4.42h-2.252v-2.273h2.252v2.273Zm0-4.421h-2.252v-2.273h2.252v2.273Zm0-4.546h-2.252v-2.274h2.252v2.274Zm0-4.421h-2.252v-2.273h2.252v2.273Zm0-4.42h-2.252v-2.273h2.252v2.273Zm0-4.42h-2.252v-2.274h2.252v2.274Z" fill="url(#ba)"/><path d="M635.918 170.45h-2.252v-2.274h2.252v2.274Zm0-4.421h-2.252v-2.273h2.252v2.273Zm0-4.546h-2.252v-2.274h2.252v2.274Zm0-4.421h-2.252v-2.273h2.252v2.273Zm0-4.42h-2.252V151h2.252v1.642Z" fill="url(#bb)"/><path d="M628.787 185.1h-2.252v-2.273h2.252v2.273Zm0-4.42h-2.252v-2.273h2.252v2.273Zm0-4.42h-2.252v-2.274h2.252v2.274Zm0-4.547h-2.252v-2.274h2.252v2.274Zm0-4.421h-2.252v-2.273h2.252v2.273Zm0-4.42h-2.252v-2.273h2.252v2.273Zm0-4.547h-2.252v-2.273h2.252v2.273Zm0-4.42h-2.252v-2.273h2.252v2.273Z" fill="url(#bc)"/><path d="M621.656 194.32h-2.252v-2.273h2.252v2.273Zm0-4.42h-2.252v-2.274h2.252v2.274Zm0-4.421h-2.252v-2.273h2.252v2.273Zm0-4.546h-2.252v-2.274h2.252v2.274Zm0-4.421h-2.252v-2.273h2.252v2.273Zm0-4.42h-2.252v-2.274h2.252v2.274Zm0-4.421h-2.252v-2.273h2.252v2.273Zm0-4.546h-2.252v-2.274h2.252v2.274Zm0-4.421h-2.252v-2.273h2.252v2.273Zm0-4.42h-2.252v-2.274h2.252v2.274Z" fill="url(#bd)"/><path d="M614.525 184.469h-2.251v-2.273h2.251v2.273Zm0-4.421h-2.251v-2.273h2.251v2.273Zm0-4.546h-2.251v-2.274h2.251v2.274Zm0-4.421h-2.251v-2.273h2.251v2.273Zm0-4.42h-2.251v-2.273h2.251v2.273Zm0-4.547h-2.251v-2.273h2.251v2.273Zm0-4.42h-2.251v-2.274h2.251v2.274Zm0-4.421h-2.251V151h2.251v2.273Z" fill="url(#be)"/><path d="M607.269 181.69h-2.251v-2.273h2.251v2.273Zm0-4.546h-2.251v-2.274h2.251v2.274Zm0-4.421h-2.251v-2.273h2.251v2.273Zm0-4.42h-2.251v-2.274h2.251v2.274Zm0-4.421h-2.251v-2.273h2.251v2.273Zm0-4.546h-2.251v-2.274h2.251v2.274Zm0-4.421h-2.251v-2.273h2.251v2.273Z" fill="url(#bf)"/><path d="M600.139 172.849h-2.252v-2.273h2.252v2.273Zm0-4.42h-2.252v-2.273h2.252v2.273Zm0-4.42h-2.252v-2.274h2.252v2.274Zm0-4.421h-2.252v-2.273h2.252v2.273Zm0-4.546h-2.252v-2.274h2.252v2.274Z" fill="url(#bg)"/><path d="M593.008 152.894h-2.252v2.274h2.252v-2.274Z" fill="url(#bh)"/><path d="M585.877 159.967h-2.252v-2.273h2.252v2.273Zm0-4.547h-2.252v-2.273h2.252v2.273Zm0-4.42h-2.252v-.126l2.252.126Z" fill="url(#bi)"/><path d="M578.621 167.419h-2.252v-2.274h2.252v2.274Zm0-4.421h-2.252v-2.273h2.252v2.273Zm0-4.546h-2.252v-2.148h2.252v2.148Zm0-4.421h-2.252v-2.273h2.252v2.273Z" fill="url(#bj)"/><path d="M571.49 180.68h-2.252v-2.273h2.252v2.273Zm0-4.42h-2.252v-2.274h2.252v2.274Zm0-4.547h-2.252v-2.274h2.252v2.274Zm0-4.421h-2.252v-2.273h2.252v2.273Zm0-4.42h-2.252v-2.273h2.252v2.273Zm0-4.547h-2.252v-2.273h2.252v2.273Zm0-4.42h-2.252v-2.273h2.252v2.273Z" fill="url(#bk)"/><path d="M564.359 195.204h-2.252v-2.273h2.252v2.273Zm0-4.547h-2.252v-2.273h2.252v2.273Zm0-4.42h-2.252v-2.273h2.252v2.273Zm0-4.42h-2.252v-2.274h2.252v2.274Zm0-4.547h-2.252v-2.273h2.252v2.273Zm0-4.421h-2.252v-2.273h2.252v2.273Zm0-4.42h-2.252v-2.273h2.252v2.273Zm0-4.42h-2.252v-2.274h2.252v2.274Zm0-4.547h-2.252v-2.273h2.252v2.273Zm0-4.42h-2.252v-2.274h2.252v2.274Z" fill="url(#bl)"/><path d="M555.102 156.178v-2.273h2.252v2.273h-2.252Zm0-4.42V151h2.252v.758h-2.252Z" fill="url(#bm)"/><path d="M550.098 162.367h-2.252v-2.274h2.252v2.274Zm0-4.421h-2.252v-2.273h2.252v2.273Zm0-4.42h-2.252v-2.273h2.252v2.273Z" fill="url(#bn)"/><path d="M542.967 175.123h-2.252v-2.274h2.252v2.274Zm0-4.421h-2.252v-2.273h2.252v2.273Zm0-4.42h-2.252v-2.273h2.252v2.273Zm0-4.547h-2.252v-2.273h2.252v2.273Zm0-4.42h-2.252v-2.273h2.252v2.273Zm0-4.421h-2.252v-2.02h2.252v2.02Z" fill="url(#bo)"/><path d="M535.836 204.171h-2.252v-2.273h2.252v2.273Zm0-4.546h-2.252v-2.274h2.252v2.274Zm0-4.421h-2.252v-2.273h2.252v2.273Zm0-4.42h-2.252v-2.274h2.252v2.274Zm0-4.421h-2.252v-2.273h2.252v2.273Zm0-4.546h-2.252v-2.274h2.252v2.274Zm0-4.421h-2.252v-2.273h2.252v2.273Zm0-4.42h-2.252v-2.274h2.252v2.274Zm0-4.421h-2.252v-2.273h2.252v2.273Zm0-4.546h-2.252v-2.274h2.252v2.274Zm0-4.421h-2.252v-2.273h2.252v2.273Zm0-4.42h-2.252v-2.274h2.252v2.274Z" fill="url(#bp)"/><path d="M528.705 184.595h-2.252v-2.273h2.252v2.273Zm0-4.42h-2.252v-2.274h2.252v2.274Zm0-4.421h-2.252v-2.273h2.252v2.273Zm0-4.42h-2.252v-2.273h2.252v2.273Zm0-4.547h-2.252v-2.273h2.252v2.273Zm0-4.42h-2.252v-2.274h2.252v2.274Zm0-4.421h-2.252v-2.273h2.252v2.273Zm0-4.42h-2.252v-2.273h2.252v2.273Z" fill="url(#bq)"/><path d="M521.574 198.109h-2.252v-2.273h2.252v2.273Zm0-4.42h-2.252v-2.274h2.252v2.274Zm0-4.421h-2.252v-2.273h2.252v2.273Zm0-4.547h-2.252v-2.273h2.252v2.273Zm0-4.42h-2.252v-2.273h2.252v2.273Zm0-4.42h-2.252v-2.274h2.252v2.274Zm0-4.421h-2.252v-2.273h2.252v2.273Zm0-4.546h-2.252v-2.274h2.252v2.274Zm0-4.421h-2.252v-2.273h2.252v2.273Zm0-4.42h-2.252v-2.274h2.252v2.274Zm0-4.421h-2.252v-2.273h2.252v2.273Z" fill="url(#br)"/><path d="M514.318 224h-2.252v-2.273h2.252V224Zm0-4.547h-2.252v-2.273h2.252v2.273Zm0-4.42h-2.252v-2.273h2.252v2.273Zm0-4.421h-2.252v-2.273h2.252v2.273Zm0-4.42h-2.252v-2.273h2.252v2.273Zm0-4.547h-2.252v-2.273h2.252v2.273Zm0-4.42h-2.252v-2.273h2.252v2.273Zm0-4.421h-2.252v-2.273h2.252v2.273Zm0-4.42h-2.252v-2.273h2.252v2.273Zm0-4.547h-2.252v-2.273h2.252v2.273Zm0-4.42h-2.252v-2.273h2.252v2.273Zm0-4.42h-2.252v-2.274h2.252v2.274Zm0-4.547h-2.252v-2.274h2.252v2.274Zm0-4.421h-2.252v-2.147h2.252v2.147Zm0-4.42h-2.252v-2.273h2.252v2.273Zm0-4.42h-2.252v-2.274h2.252v2.274Zm0-4.547h-2.252v-1.768h2.252v1.768Z" fill="url(#bs)"/><path d="M507.187 216.675h-2.251v-2.274h2.251v2.274Zm0-4.547h-2.251v-2.273h2.251v2.273Zm0-4.42h-2.251v-2.274h2.251v2.274Zm0-4.421h-2.251v-2.273h2.251v2.273Zm0-4.42h-2.251v-2.274h2.251v2.274Zm0-4.547h-2.251v-2.273h2.251v2.273Zm0-4.42h-2.251v-2.274h2.251v2.274Zm0-4.421h-2.251v-2.273h2.251v2.273Zm0-4.546h-2.251v-2.274h2.251v2.274Zm0-4.421h-2.251v-2.273h2.251v2.273Zm0-4.42h-2.251v-2.274h2.251v2.274Zm0-4.421h-2.251v-2.273h2.251v2.273Zm0-4.546h-2.251v-2.274h2.251v2.274Zm0-4.421h-2.251v-2.273h2.251v2.273Zm0-4.42h-2.251v-2.274h2.251v2.274Z" fill="url(#bt)"/><path d="M500.057 203.413h-2.252v-2.273h2.252v2.273Zm0-4.42h-2.252v-2.273h2.252v2.273Zm0-4.547h-2.252v-2.273h2.252v2.273Zm0-4.42h-2.252v-2.273h2.252v2.273Zm0-4.42h-2.252v-2.274h2.252v2.274Zm0-4.547h-2.252v-2.274h2.252v2.274Zm0-4.421h-2.252v-2.273h2.252v2.273Zm0-4.42h-2.252v-2.273h2.252v2.273Zm0-4.42h-2.252v-2.274h2.252v2.274Zm0-4.547h-2.252v-2.274h2.252v2.274Zm0-4.421h-2.252v-2.273h2.252v2.273Zm0-4.42h-2.252v-2.273h2.252v2.273Z" fill="url(#bu)"/><path d="M492.926 183.458h-2.252v-2.273h2.252v2.273Zm0-4.546h-2.252v-2.274h2.252v2.274Zm0-4.421h-2.252v-2.273h2.252v2.273Zm0-4.42h-2.252v-2.273h2.252v2.273Zm0-4.547h-2.252v-2.273h2.252v2.273Zm0-4.42h-2.252v-2.274h2.252v2.274Zm0-4.421h-2.252v-2.273h2.252v2.273Zm0-4.42h-2.252V151h2.252v1.263Z" fill="url(#bv)"/><path d="M485.67 160.472h-2.252v-2.273h2.252v2.273Zm0-4.546h-2.252v-2.147h2.252v2.147Zm0-4.421h-2.252v-.631h2.252v.631Z" fill="url(#bw)"/><path d="M478.539 167.924h-2.252v-2.273h2.252v2.273Zm0-4.421h-2.252v-2.273h2.252v2.273Zm0-4.546h-2.252v-2.274h2.252v2.274Zm0-4.421h-2.252v-2.273h2.252v2.273Z" fill="url(#bx)"/><path d="M471.408 177.144h-2.252v-2.274h2.252v2.274Zm0-4.421h-2.252v-2.273h2.252v2.273Zm0-4.42h-2.252v-2.274h2.252v2.274Zm0-4.547h-2.252v-2.273h2.252v2.273Zm0-4.42h-2.252v-2.274h2.252v2.274Zm0-4.421h-2.252v-2.273h2.252v2.273Z" fill="url(#by)"/><path d="M464.277 188.637h-2.252v-2.274h2.252v2.274Zm0-4.421h-2.252v-2.273h2.252v2.273Zm0-4.42h-2.252v-2.274h2.252v2.274Zm0-4.547h-2.252v-2.273h2.252v2.273Zm0-4.42h-2.252v-2.274h2.252v2.274Zm0-4.421h-2.252v-2.273h2.252v2.273Zm0-4.546h-2.252v-2.274h2.252v2.274Zm0-4.421h-2.252v-2.273h2.252v2.273Zm0-4.42h-2.252v-2.147h2.252v2.147Z" fill="url(#bz)"/><path d="M455.02 195.583v-2.273h2.252v2.273h-2.252Zm0-4.42v-2.274h2.252v2.274h-2.252Zm0-4.421v-2.273h2.252v2.273h-2.252Zm0-4.42v-2.274h2.252v2.274h-2.252Zm0-4.547v-2.273h2.252v2.273h-2.252Zm0-4.42v-2.274h2.252v2.274h-2.252Zm0-4.421v-2.273h2.252v2.273h-2.252Zm0-4.42v-2.274h2.252v2.274h-2.252Zm0-4.547v-2.273h2.252v2.273h-2.252Zm0-4.42v-2.274h2.252v2.274h-2.252Zm0-4.421V151h2.252v.126h-2.252Z" fill="url(#bA)"/><path d="M450.016 209.602h-2.252v-2.273h2.252v2.273Zm0-4.42h-2.252v-2.274h2.252v2.274Zm0-4.421h-2.252v-2.273h2.252v2.273Zm0-4.546h-2.252v-2.274h2.252v2.274Zm0-4.421h-2.252v-2.273h2.252v2.273Zm0-4.42h-2.252V185.1h2.252v2.274Zm0-4.421h-2.252v-2.273h2.252v2.273Zm0-4.546h-2.252v-2.274h2.252v2.274Zm0-4.421h-2.252v-2.273h2.252v2.273Zm0-4.42h-2.252v-2.274h2.252v2.274Zm0-4.421h-2.252v-2.273h2.252v2.273Zm0-4.546h-2.252v-2.274h2.252v2.274Zm0-4.421h-2.252v-2.273h2.252v2.273Zm0-4.42h-2.252V151h2.252v.758Z" fill="url(#bB)"/><path d="M442.885 198.109h-2.252v-2.273h2.252v2.273Zm0-4.42h-2.252v-2.274h2.252v2.274Zm0-4.421h-2.252v-2.273h2.252v2.273Zm0-4.547h-2.252v-2.273h2.252v2.273Zm0-4.42h-2.252v-2.273h2.252v2.273Zm0-4.42h-2.252v-2.274h2.252v2.274Zm0-4.421h-2.252v-2.273h2.252v2.273Zm0-4.546h-2.252v-2.274h2.252v2.274Zm0-4.421h-2.252v-2.273h2.252v2.273Zm0-4.42h-2.252v-2.274h2.252v2.274Zm0-4.421h-2.252v-2.273h2.252v2.273Z" fill="url(#bC)"/><path d="M435.754 186.868h-2.252v-2.273h2.252v2.273Zm0-4.42h-2.252v-2.273h2.252v2.273Zm0-4.42h-2.252v-2.274h2.252v2.274Zm0-4.547h-2.252v-2.273h2.252v2.273Zm0-4.42h-2.252v-2.274h2.252v2.274Zm0-4.421h-2.252v-2.273h2.252v2.273Zm0-4.42h-2.252v-2.274h2.252v2.274Zm0-4.547h-2.252V153.4h2.252v2.273Zm0-4.42h-2.252v-.379h2.252v.379Z" fill="url(#bD)"/><path d="M428.498 175.881h-2.252v-2.274h2.252v2.274Zm0-4.421h-2.252v-2.273h2.252v2.273Zm0-4.42h-2.252v-2.274h2.252v2.274Zm0-4.547h-2.252v-2.273h2.252v2.273Zm0-4.42h-2.252v-2.274h2.252v2.274Zm0-4.421h-2.252v-2.273h2.252v2.273Z" fill="url(#bE)"/><path d="M421.367 157.189h-2.252v-2.274h2.252v2.274Zm0-4.421h-2.252V151h2.252v1.768Z" fill="url(#bF)"/><path d="M414.236 168.682h-2.252v-2.274h2.252v2.274Zm0-4.421h-2.252v-2.273h2.252v2.273Zm0-4.546h-2.252v-2.148h2.252v2.148Zm0-4.421h-2.252v-2.273h2.252v2.273Z" fill="url(#bG)"/><path d="M407.105 177.901h-2.251v-2.273h2.251v2.273Zm0-4.42h-2.251v-2.273h2.251v2.273Zm0-4.42h-2.251v-2.274h2.251v2.274Zm0-4.421h-2.251v-2.273h2.251v2.273Zm0-4.547h-2.251v-2.273h2.251v2.273Zm0-4.42h-2.251V153.4h2.251v2.273Zm0-4.42h-2.251V151h2.251v.253Z" fill="url(#bH)"/><path d="M399.975 187.5h-2.252v-2.147h2.252v2.147Zm0-4.42h-2.252v-2.274h2.252v2.274Zm0-4.421h-2.252v-2.273h2.252v2.273Zm0-4.547h-2.252v-2.273h2.252v2.273Zm0-4.42h-2.252v-2.273h2.252v2.273Zm0-4.42h-2.252v-2.274h2.252v2.274Zm0-4.421h-2.252v-2.273h2.252v2.273Zm0-4.547h-2.252v-2.273h2.252v2.273Zm0-4.42h-2.252v-1.01h2.252v1.01Z" fill="url(#bI)"/><path d="M392.719 200.003h-2.252v-2.273h2.252v2.273Zm0-4.42h-2.252v-2.273h2.252v2.273Zm0-4.547h-2.252v-2.273h2.252v2.273Zm0-4.42h-2.252v-2.273h2.252v2.273Zm0-4.421h-2.252v-2.273h2.252v2.273Zm0-4.42h-2.252v-2.273h2.252v2.273Zm0-4.547h-2.252v-2.273h2.252v2.273Zm0-4.42h-2.252v-2.273h2.252v2.273Zm0-4.42h-2.252v-2.274h2.252v2.274Zm0-4.421h-2.252v-2.273h2.252v2.273Zm0-4.547h-2.252v-2.273h2.252v2.273Z" fill="url(#bJ)"/><path d="M385.588 220.337h-2.252v-2.147h2.252v2.147Zm0-4.42h-2.252v-2.273h2.252v2.273Zm0-4.42h-2.252v-2.274h2.252v2.274Zm0-4.421h-2.252v-2.273h2.252v2.273Zm0-4.547h-2.252v-2.273h2.252v2.273Zm0-4.42h-2.252v-2.273h2.252v2.273Zm0-4.42h-2.252v-2.274h2.252v2.274Zm0-4.547h-2.252v-2.273h2.252v2.273Zm0-4.421h-2.252v-2.273h2.252v2.273Zm0-4.42h-2.252v-2.273h2.252v2.273Zm0-4.42h-2.252v-2.274h2.252v2.274Zm0-4.547h-2.252v-2.273h2.252v2.273Zm0-4.42h-2.252v-2.274h2.252v2.274Zm0-4.421h-2.252v-2.273h2.252v2.273Zm0-4.42h-2.252v-2.274h2.252v2.274Zm0-4.547h-2.252v-2.273h2.252v2.273Z" fill="url(#bK)"/><path d="M378.457 213.77h-2.252v-2.273h2.252v2.273Zm0-4.547h-2.252v-2.273h2.252v2.273Zm0-4.42h-2.252v-2.274h2.252v2.274Zm0-4.421h-2.252v-2.273h2.252v2.273Zm0-4.42h-2.252v-2.273h2.252v2.273Zm0-4.547h-2.252v-2.273h2.252v2.273Zm0-4.42h-2.252v-2.274h2.252v2.274Zm0-4.421h-2.252v-2.273h2.252v2.273Zm0-4.546h-2.252v-2.274h2.252v2.274Zm0-4.421h-2.252v-2.147h2.252v2.147Zm0-4.42h-2.252v-2.273h2.252v2.273Zm0-4.421h-2.252v-2.273h2.252v2.273Zm0-4.546h-2.252v-2.274h2.252v2.274Zm0-4.421h-2.252v-2.273h2.252v2.273Zm0-4.42h-2.252V151h2.252v.379Z" fill="url(#bL)"/><path d="M371.326 202.656h-2.252v-2.147h2.252v2.147Zm0-4.421h-2.252v-2.273h2.252v2.273Zm0-4.42h-2.252v-2.273h2.252v2.273Zm0-4.421h-2.252v-2.273h2.252v2.273Zm0-4.546h-2.252v-2.274h2.252v2.274Zm0-4.421h-2.252v-2.273h2.252v2.273Zm0-4.42h-2.252v-2.273h2.252v2.273Zm0-4.42h-2.252v-2.274h2.252v2.274Zm0-4.547h-2.252v-2.274h2.252v2.274Zm0-4.421h-2.252v-2.273h2.252v2.273Zm0-4.42h-2.252v-2.273h2.252v2.273Zm0-4.547h-2.252v-2.273h2.252v2.273Z" fill="url(#bM)"/><path d="M364.195 191.92h-2.252v-2.273h2.252v2.273Zm0-4.42h-2.252v-2.273h2.252v2.273Zm0-4.547h-2.252v-2.273h2.252v2.273Zm0-4.42h-2.252v-2.273h2.252v2.273Zm0-4.421h-2.252v-2.273h2.252v2.273Zm0-4.546h-2.252v-2.274h2.252v2.274Zm0-4.421h-2.252v-2.273h2.252v2.273Zm0-4.42h-2.252v-2.273h2.252v2.273Zm0-4.421h-2.252v-2.273h2.252v2.273Zm0-4.546h-2.252v-.884h2.252v.884Z" fill="url(#bN)"/><path d="M354.938 166.156v-2.274h2.251v2.274h-2.251Zm0-4.547v-2.273h2.251v2.273h-2.251Zm0-4.42v-2.274h2.251v2.274h-2.251Zm0-4.421V151h2.251v1.768h-2.251Z" fill="url(#bO)"/><path d="M349.934 159.967h-2.252v-2.273h2.252v2.273Zm0-4.547h-2.252v-2.273h2.252v2.273Z" fill="url(#bP)"/><path d="M342.678 199.877h-2.252v-2.273h2.252v2.273Zm0-4.42h-2.252v-2.274h2.252v2.274Zm0-4.421h-2.252v-2.273h2.252v2.273Zm0-4.546h-2.252v-2.274h2.252v2.274Zm0-4.421h-2.252v-2.273h2.252v2.273Zm0-4.42h-2.252v-2.274h2.252v2.274Zm0-4.547h-2.252v-2.273h2.252v2.273Zm0-4.42h-2.252v-2.274h2.252v2.274Zm0-4.421h-2.252v-2.273h2.252v2.273Zm0-4.42h-2.252v-2.274h2.252v2.274Zm0-4.547h-2.252v-2.273h2.252v2.273Z" fill="url(#bQ)"/><path d="M335.547 187.247h-2.252v-2.273h2.252v2.273Zm0-4.42h-2.252v-2.273h2.252v2.273Zm0-4.547h-2.252v-2.273h2.252v2.273Zm0-4.42h-2.252v-2.273h2.252v2.273Zm0-4.421h-2.252v-2.273h2.252v2.273Zm0-4.42h-2.252v-2.273h2.252v2.273Zm0-4.547h-2.252v-2.273h2.252v2.273Zm0-4.42h-2.252v-2.273h2.252v2.273Zm0-4.42h-2.252V151h2.252v.632Z" fill="url(#bR)"/><path d="M328.416 160.599h-2.252v-2.274h2.252v2.274Zm0-4.421h-2.252v-2.273h2.252v2.273Zm0-4.547h-2.252v-.757h2.252v.757Z" fill="url(#bS)"/><path d="M321.285 165.398h-2.252v-2.273h2.252v2.273Zm0-4.421h-2.252v-2.273h2.252v2.273Zm0-4.546h-2.252v-2.274h2.252v2.274Zm0-4.421h-2.252v-1.136h2.252v1.136Z" fill="url(#bT)"/><path d="M314.154 196.215h-2.252v-2.274h2.252v2.274Zm0-4.421h-2.252v-2.273h2.252v2.273Zm0-4.42h-2.252V185.1h2.252v2.274Zm0-4.421h-2.252v-2.273h2.252v2.273Zm0-4.546h-2.252v-2.274h2.252v2.274Zm0-4.421h-2.252v-2.273h2.252v2.273Zm0-4.42h-2.252v-2.274h2.252v2.274Zm0-4.421h-2.252v-2.273h2.252v2.273Zm0-4.546h-2.252v-2.274h2.252v2.274Zm0-4.421h-2.252v-2.273h2.252v2.273Zm0-4.42h-2.252V151h2.252v.758Z" fill="url(#bU)"/><path d="M307.023 188.131h-2.251v-2.273h2.251v2.273Zm0-4.42h-2.251v-2.273h2.251v2.273Zm0-4.42h-2.251v-2.274h2.251v2.274Zm0-4.421h-2.251v-2.273h2.251v2.273Zm0-4.546h-2.251v-2.274h2.251v2.274Zm0-4.421h-2.251v-2.273h2.251v2.273Zm0-4.42h-2.251v-2.274h2.251v2.274Zm0-4.547h-2.251v-2.273h2.251v2.273Zm0-4.42h-2.251v-1.642h2.251v1.642Z" fill="url(#bV)"/><path d="M299.893 180.806h-2.252v-2.273h2.252v2.273Zm0-4.42h-2.252v-2.274h2.252v2.274Zm0-4.421h-2.252v-2.273h2.252v2.273Zm0-4.546h-2.252v-2.274h2.252v2.274Zm0-4.421h-2.252v-2.273h2.252v2.273Zm0-4.42h-2.252v-2.273h2.252v2.273Zm0-4.421h-2.252v-2.273h2.252v2.273Z" fill="url(#bW)"/><path d="M292.637 219.074h-2.252v-2.147h2.252v2.147Zm0-4.42h-2.252v-2.273h2.252v2.273Zm0-4.42h-2.252v-2.274h2.252v2.274Zm0-4.421h-2.252v-2.273h2.252v2.273Zm0-4.547h-2.252v-2.273h2.252v2.273Zm0-4.42h-2.252v-2.273h2.252v2.273Zm0-4.42h-2.252v-2.274h2.252v2.274Zm0-4.421h-2.252v-2.273h2.252v2.273Zm0-4.547h-2.252v-2.273h2.252v2.273Zm0-4.42h-2.252v-2.273h2.252v2.273Zm0-4.42h-2.252v-2.274h2.252v2.274Zm0-4.547h-2.252v-2.273h2.252v2.273Zm0-4.42h-2.252v-2.274h2.252v2.274Zm0-4.421h-2.252v-2.273h2.252v2.273Zm0-4.42h-2.252v-2.274h2.252v2.274Zm0-4.547h-2.252v-1.389h2.252v1.389Z" fill="url(#bX)"/><path d="M285.506 209.981h-2.252v-2.273h2.252v2.273Zm0-4.42h-2.252v-2.274h2.252v2.274Zm0-4.547h-2.252v-2.274h2.252v2.274Zm0-4.421h-2.252v-2.273h2.252v2.273Zm0-4.42h-2.252V189.9h2.252v2.273Zm0-4.42h-2.252v-2.274h2.252v2.274Zm0-4.547h-2.252v-2.273h2.252v2.273Zm0-4.421h-2.252v-2.273h2.252v2.273Zm0-4.42h-2.252v-2.273h2.252v2.273Zm0-4.42h-2.252v-2.274h2.252v2.274Zm0-4.547h-2.252v-2.273h2.252v2.273Zm0-4.421h-2.252v-2.273h2.252v2.273Zm0-4.42h-2.252v-2.273h2.252v2.273Zm0-4.547h-2.252v-1.136h2.252v1.136Z" fill="url(#bY)"/><path d="M278.375 196.72h-2.252v-2.274h2.252v2.274Zm0-4.421h-2.252v-2.273h2.252v2.273Zm0-4.42h-2.252v-2.273h2.252v2.273Zm0-4.421h-2.252v-2.273h2.252v2.273Zm0-4.546h-2.252v-2.274h2.252v2.274Zm0-4.421h-2.252v-2.273h2.252v2.273Zm0-4.42h-2.252v-2.273h2.252v2.273Zm0-4.42h-2.252v-2.274h2.252v2.274Zm0-4.547h-2.252v-2.274h2.252v2.274Zm0-4.421h-2.252v-2.273h2.252v2.273Zm0-4.42h-2.252V151h2.252v1.263Z" fill="url(#bZ)"/><path d="M271.244 191.163h-2.252v-2.274h2.252v2.274Zm0-4.421h-2.252v-2.273h2.252v2.273Zm0-4.42h-2.252v-2.274h2.252v2.274Zm0-4.547h-2.252v-2.273h2.252v2.273Zm0-4.42h-2.252v-2.274h2.252v2.274Zm0-4.421h-2.252v-2.273h2.252v2.273Zm0-4.546h-2.252v-2.274h2.252v2.274Zm0-4.421h-2.252v-2.273h2.252v2.273Zm0-4.42h-2.252v-2.274h2.252v2.274Zm0-4.421h-2.252V151h2.252v.126Z" fill="url(#ca)"/><path d="M264.113 184.216h-2.252v-2.273h2.252v2.273Zm0-4.42h-2.252v-2.274h2.252v2.274Zm0-4.421h-2.252v-2.273h2.252v2.273Zm0-4.546h-2.252v-2.274h2.252v2.274Zm0-4.421h-2.252v-2.273h2.252v2.273Zm0-4.42h-2.252v-2.273h2.252v2.273Zm0-4.421h-2.252v-2.273h2.252v2.273Zm0-4.546h-2.252v-2.147h2.252v2.147Z" fill="url(#cb)"/><path d="M254.856 168.05v-2.273h2.251v2.273h-2.251Zm0-4.42v-2.274h2.251v2.274h-2.251Zm0-4.421v-2.273h2.251v2.273h-2.251Zm0-4.546v-2.147h2.251v2.147h-2.251Z" fill="url(#cc)"/><path d="M249.726 160.093h-2.251v-2.273h2.251v2.273Zm0-4.42h-2.251V153.4h2.251v2.273Zm0-4.547h-2.251v-.252h2.251v.252Z" fill="url(#cd)"/><path d="M242.596 174.618h-2.252v-2.274h2.252v2.274Zm0-4.547h-2.252v-2.273h2.252v2.273Zm0-4.42h-2.252v-2.274h2.252v2.274Zm0-4.421h-2.252v-2.273h2.252v2.273Zm0-4.42h-2.252v-2.274h2.252v2.274Zm0-4.547h-2.252v-1.389h2.252v1.389Z" fill="url(#ce)"/><path d="M235.465 194.067h-2.252v-2.273h2.252v2.273Zm0-4.42h-2.252v-2.273h2.252v2.273Zm0-4.547h-2.252v-2.273h2.252v2.273Zm0-4.42h-2.252v-2.273h2.252v2.273Zm0-4.421h-2.252v-2.273h2.252v2.273Zm0-4.42h-2.252v-2.273h2.252v2.273Zm0-4.547h-2.252v-2.147h2.252v2.147Zm0-4.42h-2.252v-2.273h2.252v2.273Zm0-4.42h-2.252v-2.274h2.252v2.274Zm0-4.421h-2.252v-2.273h2.252v2.273Z" fill="url(#cf)"/><path d="M228.334 177.901h-2.252v-2.273h2.252v2.273Zm0-4.42h-2.252v-2.273h2.252v2.273Zm0-4.42h-2.252v-2.274h2.252v2.274Zm0-4.547h-2.252v-2.274h2.252v2.274Zm0-4.421h-2.252v-2.273h2.252v2.273Zm0-4.42h-2.252V153.4h2.252v2.273Zm0-4.547h-2.252v-.252h2.252v.252Z" fill="url(#cg)"/><path d="M221.203 184.216h-2.252v-2.273h2.252v2.273Zm0-4.42h-2.252v-2.274h2.252v2.274Zm0-4.421h-2.252v-2.273h2.252v2.273Zm0-4.546h-2.252v-2.274h2.252v2.274Zm0-4.421h-2.252v-2.273h2.252v2.273Zm0-4.42h-2.252v-2.273h2.252v2.273Zm0-4.421h-2.252v-2.273h2.252v2.273Zm0-4.546h-2.252v-2.147h2.252v2.147Z" fill="url(#ch)"/><path d="M214.072 168.934h-2.252v-2.273h2.252v2.273Zm0-4.42h-2.252v-2.274h2.252v2.274Zm0-4.547h-2.252v-2.273h2.252v2.273Zm0-4.42h-2.252v-2.274h2.252v2.274Z" fill="url(#ci)"/><path d="M206.941 205.939h-2.252v-2.273h2.252v2.273Zm0-4.546h-2.252v-2.147h2.252v2.147Zm0-4.421h-2.252v-2.273h2.252v2.273Zm0-4.42h-2.252v-2.273h2.252v2.273Zm0-4.421h-2.252v-2.273h2.252v2.273Zm0-4.546h-2.252v-2.274h2.252v2.274Zm0-4.421h-2.252v-2.273h2.252v2.273Zm0-4.42h-2.252v-2.273h2.252v2.273Zm0-4.547h-2.252v-2.273h2.252v2.273Zm0-4.42h-2.252v-2.274h2.252v2.274Zm0-4.421h-2.252v-2.273h2.252v2.273Zm0-4.42h-2.252v-2.273h2.252v2.273Zm0-4.547h-2.252v-1.515h2.252v1.515Z" fill="url(#cj)"/><path d="M199.685 195.078h-2.251v-2.273h2.251v2.273Zm0-4.421h-2.251v-2.273h2.251v2.273Zm0-4.546h-2.251v-2.274h2.251v2.274Zm0-4.421h-2.251v-2.273h2.251v2.273Zm0-4.42h-2.251v-2.273h2.251v2.273Zm0-4.42h-2.251v-2.274h2.251v2.274Zm0-4.547h-2.251v-2.274h2.251v2.274Zm0-4.421h-2.251v-2.273h2.251v2.273Zm0-4.42h-2.251v-2.273h2.251v2.273Zm0-4.547h-2.251v-2.273h2.251v2.273Z" fill="url(#ck)"/><path d="M192.555 189.394h-2.252v-2.273h2.252v2.273Zm0-4.42h-2.252v-2.273h2.252v2.273Zm0-4.547h-2.252v-2.273h2.252v2.273Zm0-4.42h-2.252v-2.273h2.252v2.273Zm0-4.421h-2.252v-2.273h2.252v2.273Zm0-4.42h-2.252v-2.273h2.252v2.273Zm0-4.547h-2.252v-2.273h2.252v2.273Zm0-4.42h-2.252v-2.273h2.252v2.273Zm0-4.42h-2.252v-2.274h2.252v2.274Z" fill="url(#cl)"/><path d="M185.424 207.834h-2.252v-2.273h2.252v2.273Zm0-4.421h-2.252v-2.273h2.252v2.273Zm0-4.42h-2.252v-2.273h2.252v2.273Zm0-4.42h-2.252v-2.274h2.252v2.274Zm0-4.547h-2.252v-2.147h2.252v2.147Zm0-4.42h-2.252v-2.274h2.252v2.274Zm0-4.421h-2.252v-2.273h2.252v2.273Zm0-4.42h-2.252v-2.274h2.252v2.274Zm0-4.547h-2.252v-2.273h2.252v2.273Zm0-4.42h-2.252v-2.274h2.252v2.274Zm0-4.421h-2.252v-2.273h2.252v2.273Zm0-4.547h-2.252v-2.273h2.252v2.273Zm0-4.42h-2.252v-2.273h2.252v2.273Z" fill="url(#cm)"/><path d="M178.293 199.877h-2.252v-2.273h2.252v2.273Zm0-4.42h-2.252v-2.274h2.252v2.274Zm0-4.421h-2.252v-2.273h2.252v2.273Zm0-4.546h-2.252v-2.274h2.252v2.274Zm0-4.421h-2.252v-2.273h2.252v2.273Zm0-4.42h-2.252v-2.274h2.252v2.274Zm0-4.547h-2.252v-2.273h2.252v2.273Zm0-4.42h-2.252v-2.274h2.252v2.274Zm0-4.421h-2.252v-2.273h2.252v2.273Zm0-4.42h-2.252v-2.274h2.252v2.274Zm0-4.547h-2.252v-2.273h2.252v2.273Z" fill="url(#cn)"/><path d="M171.162 160.599h-2.252v-2.274h2.252v2.274Zm0-4.421h-2.252v-2.273h2.252v2.273Zm0-4.547h-2.252v-.757h2.252v.757Z" fill="url(#co)"/><path d="M163.906 160.599h-2.252v-2.274h2.252v2.274Zm0-4.421h-2.252v-2.273h2.252v2.273Zm0-4.547h-2.252v-.757h2.252v.757Z" fill="url(#cp)"/><path d="M156.775 168.661h-2.252v-2.273h2.252v2.273Zm0-4.421h-2.252v-2.273h2.252v2.273Zm0-4.42h-2.252v-2.273h2.252v2.273Zm0-4.547h-2.252V153h2.252v2.273Z" fill="url(#cq)"/><path d="M149.644 181.438h-2.251v-2.274h2.251v2.274Zm0-4.547h-2.251v-2.273h2.251v2.273Zm0-4.42h-2.251v-2.274h2.251v2.274Zm0-4.421h-2.251v-2.273h2.251v2.273Zm0-4.42h-2.251v-2.274h2.251v2.274Zm0-4.547h-2.251v-2.273h2.251v2.273Zm0-4.42h-2.251v-2.274h2.251v2.274Z" fill="url(#cr)"/><path d="M142.514 170.955h-2.252v-2.273h2.252v2.273Zm0-4.42h-2.252v-2.274h2.252v2.274Zm0-4.547h-2.252v-2.273h2.252v2.273Zm0-4.421h-2.252v-2.273h2.252v2.273Zm0-4.42h-2.252V151h2.252v2.147Z" fill="url(#cs)"/><path d="M135.383 165.272h-2.252v-2.274h2.252v2.274Zm0-4.421h-2.252v-2.273h2.252v2.273Zm0-4.42h-2.252v-2.274h2.252v2.274Zm0-4.421h-2.252V151h2.252v1.01Z" fill="url(#ct)"/><path d="M128.252 159.715H126v-2.274h2.252v2.274Zm0-4.421H126v-2.273h2.252v2.273Z" fill="url(#cu)"/></g><defs><linearGradient id="b" x1="106" y1="158.5" x2="508.56" y2="158.5" gradientUnits="userSpaceOnUse"><stop offset=".234" stop-color="#C3E2DE"/><stop offset=".734" stop-color="#EDFBF9"/></linearGradient><linearGradient id="c" x1="106" y1="158.5" x2="508.56" y2="158.5" gradientUnits="userSpaceOnUse"><stop/><stop offset="1" stop-color="#1A7F72" stop-opacity="0"/></linearGradient><linearGradient id="d" x1="106" y1="158.5" x2="735" y2="158.5" gradientUnits="userSpaceOnUse"><stop offset=".281" stop-color="#C3E2DE"/><stop offset=".505" stop-color="#CFF1ED"/><stop offset="1" stop-color="#EDFBF9"/></linearGradient><linearGradient id="e" x1="106" y1="158.5" x2="735" y2="158.5" gradientUnits="userSpaceOnUse"><stop stop-color="#1E9787"/><stop offset=".51" stop-color="#1A7F72" stop-opacity=".38"/><stop offset=".76" stop-color="#1A7F72" stop-opacity=".13"/><stop offset=".943" stop-color="#1A7F72" stop-opacity=".04"/></linearGradient><linearGradient id="f" x1="126" y1="158.3" x2="716.292" y2="158.3" gradientUnits="userSpaceOnUse"><stop stop-color="#1A7F72" stop-opacity=".46"/><stop offset="1" stop-color="#1A7F72" stop-opacity="0"/></linearGradient><linearGradient id="g" x1="126" y1="158.3" x2="716.292" y2="158.3" gradientUnits="userSpaceOnUse"><stop stop-color="#1A7F72" stop-opacity=".46"/><stop offset="1" stop-color="#1A7F72" stop-opacity="0"/></linearGradient><linearGradient id="h" x1="126" y1="158.3" x2="716.292" y2="158.3" gradientUnits="userSpaceOnUse"><stop stop-color="#1A7F72" stop-opacity=".46"/><stop offset="1" stop-color="#1A7F72" stop-opacity="0"/></linearGradient><linearGradient id="i" x1="126" y1="158.3" x2="716.292" y2="158.3" gradientUnits="userSpaceOnUse"><stop stop-color="#1A7F72" stop-opacity=".46"/><stop offset="1" stop-color="#1A7F72" stop-opacity="0"/></linearGradient><linearGradient id="j" x1="126" y1="158.3" x2="716.292" y2="158.3" gradientUnits="userSpaceOnUse"><stop stop-color="#1A7F72" stop-opacity=".46"/><stop offset="1" stop-color="#1A7F72" stop-opacity="0"/></linearGradient><linearGradient id="k" x1="126" y1="158.3" x2="716.292" y2="158.3" gradientUnits="userSpaceOnUse"><stop stop-color="#1A7F72" stop-opacity=".46"/><stop offset="1" stop-color="#1A7F72" stop-opacity="0"/></linearGradient><linearGradient id="l" x1="126" y1="158.3" x2="716.292" y2="158.3" gradientUnits="userSpaceOnUse"><stop stop-color="#1A7F72" stop-opacity=".46"/><stop offset="1" stop-color="#1A7F72" stop-opacity="0"/></linearGradient><linearGradient id="m" x1="126" y1="158.3" x2="716.292" y2="158.3" gradientUnits="userSpaceOnUse"><stop stop-color="#1A7F72" stop-opacity=".46"/><stop offset="1" stop-color="#1A7F72" stop-opacity="0"/></linearGradient><linearGradient id="n" x1="126" y1="158.3" x2="716.292" y2="158.3" gradientUnits="userSpaceOnUse"><stop stop-color="#1A7F72" stop-opacity=".46"/><stop offset="1" stop-color="#1A7F72" stop-opacity="0"/></linearGradient><linearGradient id="o" x1="126" y1="158.3" x2="716.292" y2="158.3" gradientUnits="userSpaceOnUse"><stop stop-color="#1A7F72" stop-opacity=".46"/><stop offset="1" stop-color="#1A7F72" stop-opacity="0"/></linearGradient><linearGradient id="p" x1="126" y1="158.3" x2="716.292" y2="158.3" gradientUnits="userSpaceOnUse"><stop stop-color="#1A7F72" stop-opacity=".46"/><stop offset="1" stop-color="#1A7F72" stop-opacity="0"/></linearGradient><linearGradient id="q" x1="126" y1="158.3" x2="716.292" y2="158.3" gradientUnits="userSpaceOnUse"><stop stop-color="#1A7F72" stop-opacity=".46"/><stop offset="1" stop-color="#1A7F72" stop-opacity="0"/></linearGradient><linearGradient id="r" x1="126" y1="158.3" x2="716.292" y2="158.3" gradientUnits="userSpaceOnUse"><stop stop-color="#1A7F72" stop-opacity=".46"/><stop offset="1" stop-color="#1A7F72" stop-opacity="0"/></linearGradient><linearGradient id="s" x1="126" y1="158.3" x2="716.292" y2="158.3" gradientUnits="userSpaceOnUse"><stop stop-color="#1A7F72" stop-opacity=".46"/><stop offset="1" stop-color="#1A7F72" stop-opacity="0"/></linearGradient><linearGradient id="t" x1="126" y1="158.3" x2="716.292" y2="158.3" gradientUnits="userSpaceOnUse"><stop stop-color="#1A7F72" stop-opacity=".46"/><stop offset="1" stop-color="#1A7F72" stop-opacity="0"/></linearGradient><linearGradient id="u" x1="126" y1="158.3" x2="716.292" y2="158.3" gradientUnits="userSpaceOnUse"><stop stop-color="#1A7F72" stop-opacity=".46"/><stop offset="1" stop-color="#1A7F72" stop-opacity="0"/></linearGradient><linearGradient id="v" x1="126" y1="158.3" x2="716.292" y2="158.3" gradientUnits="userSpaceOnUse"><stop stop-color="#1A7F72" stop-opacity=".46"/><stop offset="1" stop-color="#1A7F72" stop-opacity="0"/></linearGradient><linearGradient id="w" x1="126" y1="158.3" x2="716.292" y2="158.3" gradientUnits="userSpaceOnUse"><stop stop-color="#1A7F72" stop-opacity=".46"/><stop offset="1" stop-color="#1A7F72" stop-opacity="0"/></linearGradient><linearGradient id="x" x1="126" y1="158.3" x2="716.292" y2="158.3" gradientUnits="userSpaceOnUse"><stop stop-color="#1A7F72" stop-opacity=".46"/><stop offset="1" stop-color="#1A7F72" stop-opacity="0"/></linearGradient><linearGradient id="y" x1="126" y1="158.3" x2="716.292" y2="158.3" gradientUnits="userSpaceOnUse"><stop stop-color="#1A7F72" stop-opacity=".46"/><stop offset="1" stop-color="#1A7F72" stop-opacity="0"/></linearGradient><linearGradient id="z" x1="126" y1="158.3" x2="716.292" y2="158.3" gradientUnits="userSpaceOnUse"><stop stop-color="#1A7F72" stop-opacity=".46"/><stop offset="1" stop-color="#1A7F72" stop-opacity="0"/></linearGradient><linearGradient id="A" x1="126" y1="158.3" x2="716.292" y2="158.3" gradientUnits="userSpaceOnUse"><stop stop-color="#1A7F72" stop-opacity=".46"/><stop offset="1" stop-color="#1A7F72" stop-opacity="0"/></linearGradient><linearGradient id="B" x1="126" y1="158.3" x2="716.292" y2="158.3" gradientUnits="userSpaceOnUse"><stop stop-color="#1A7F72" stop-opacity=".46"/><stop offset="1" stop-color="#1A7F72" stop-opacity="0"/></linearGradient><linearGradient id="C" x1="126" y1="158.3" x2="716.292" y2="158.3" gradientUnits="userSpaceOnUse"><stop stop-color="#1A7F72" stop-opacity=".46"/><stop offset="1" stop-color="#1A7F72" stop-opacity="0"/></linearGradient><linearGradient id="D" x1="126" y1="158.3" x2="716.292" y2="158.3" gradientUnits="userSpaceOnUse"><stop stop-color="#1A7F72" stop-opacity=".46"/><stop offset="1" stop-color="#1A7F72" stop-opacity="0"/></linearGradient><linearGradient id="E" x1="126" y1="158.3" x2="716.292" y2="158.3" gradientUnits="userSpaceOnUse"><stop stop-color="#1A7F72" stop-opacity=".46"/><stop offset="1" stop-color="#1A7F72" stop-opacity="0"/></linearGradient><linearGradient id="F" x1="126" y1="158.3" x2="716.292" y2="158.3" gradientUnits="userSpaceOnUse"><stop stop-color="#1A7F72" stop-opacity=".46"/><stop offset="1" stop-color="#1A7F72" stop-opacity="0"/></linearGradient><linearGradient id="G" x1="126" y1="158.3" x2="716.292" y2="158.3" gradientUnits="userSpaceOnUse"><stop stop-color="#1A7F72" stop-opacity=".46"/><stop offset="1" stop-color="#1A7F72" stop-opacity="0"/></linearGradient><linearGradient id="H" x1="126" y1="158.3" x2="716.292" y2="158.3" gradientUnits="userSpaceOnUse"><stop stop-color="#1A7F72" stop-opacity=".46"/><stop offset="1" stop-color="#1A7F72" stop-opacity="0"/></linearGradient><linearGradient id="I" x1="126" y1="158.3" x2="716.292" y2="158.3" gradientUnits="userSpaceOnUse"><stop stop-color="#1A7F72" stop-opacity=".46"/><stop offset="1" stop-color="#1A7F72" stop-opacity="0"/></linearGradient><linearGradient id="J" x1="126" y1="158.3" x2="716.292" y2="158.3" gradientUnits="userSpaceOnUse"><stop stop-color="#1A7F72" stop-opacity=".46"/><stop offset="1" stop-color="#1A7F72" stop-opacity="0"/></linearGradient><linearGradient id="K" x1="126" y1="158.3" x2="716.292" y2="158.3" gradientUnits="userSpaceOnUse"><stop stop-color="#1A7F72" stop-opacity=".46"/><stop offset="1" stop-color="#1A7F72" stop-opacity="0"/></linearGradient><linearGradient id="L" x1="126" y1="158.3" x2="716.292" y2="158.3" gradientUnits="userSpaceOnUse"><stop stop-color="#1A7F72" stop-opacity=".46"/><stop offset="1" stop-color="#1A7F72" stop-opacity="0"/></linearGradient><linearGradient id="M" x1="126" y1="158.3" x2="716.292" y2="158.3" gradientUnits="userSpaceOnUse"><stop stop-color="#1A7F72" stop-opacity=".46"/><stop offset="1" stop-color="#1A7F72" stop-opacity="0"/></linearGradient><linearGradient id="N" x1="126" y1="158.3" x2="716.292" y2="158.3" gradientUnits="userSpaceOnUse"><stop stop-color="#1A7F72" stop-opacity=".46"/><stop offset="1" stop-color="#1A7F72" stop-opacity="0"/></linearGradient><linearGradient id="O" x1="126" y1="158.3" x2="716.292" y2="158.3" gradientUnits="userSpaceOnUse"><stop stop-color="#1A7F72" stop-opacity=".46"/><stop offset="1" stop-color="#1A7F72" stop-opacity="0"/></linearGradient><linearGradient id="P" x1="126" y1="158.3" x2="716.292" y2="158.3" gradientUnits="userSpaceOnUse"><stop stop-color="#1A7F72" stop-opacity=".46"/><stop offset="1" stop-color="#1A7F72" stop-opacity="0"/></linearGradient><linearGradient id="Q" x1="126" y1="158.3" x2="716.292" y2="158.3" gradientUnits="userSpaceOnUse"><stop stop-color="#1A7F72" stop-opacity=".46"/><stop offset="1" stop-color="#1A7F72" stop-opacity="0"/></linearGradient><linearGradient id="R" x1="126" y1="158.3" x2="716.292" y2="158.3" gradientUnits="userSpaceOnUse"><stop stop-color="#1A7F72" stop-opacity=".46"/><stop offset="1" stop-color="#1A7F72" stop-opacity="0"/></linearGradient><linearGradient id="S" x1="126" y1="158.3" x2="716.292" y2="158.3" gradientUnits="userSpaceOnUse"><stop stop-color="#1A7F72" stop-opacity=".46"/><stop offset="1" stop-color="#1A7F72" stop-opacity="0"/></linearGradient><linearGradient id="T" x1="126" y1="158.3" x2="716.292" y2="158.3" gradientUnits="userSpaceOnUse"><stop stop-color="#1A7F72" stop-opacity=".46"/><stop offset="1" stop-color="#1A7F72" stop-opacity="0"/></linearGradient><linearGradient id="U" x1="126" y1="158.3" x2="716.292" y2="158.3" gradientUnits="userSpaceOnUse"><stop stop-color="#1A7F72" stop-opacity=".46"/><stop offset="1" stop-color="#1A7F72" stop-opacity="0"/></linearGradient><linearGradient id="V" x1="126" y1="158.3" x2="716.292" y2="158.3" gradientUnits="userSpaceOnUse"><stop stop-color="#1A7F72" stop-opacity=".46"/><stop offset="1" stop-color="#1A7F72" stop-opacity="0"/></linearGradient><linearGradient id="W" x1="126" y1="158.3" x2="716.292" y2="158.3" gradientUnits="userSpaceOnUse"><stop stop-color="#1A7F72" stop-opacity=".46"/><stop offset="1" stop-color="#1A7F72" stop-opacity="0"/></linearGradient><linearGradient id="X" x1="126" y1="158.3" x2="716.292" y2="158.3" gradientUnits="userSpaceOnUse"><stop stop-color="#1A7F72" stop-opacity=".46"/><stop offset="1" stop-color="#1A7F72" stop-opacity="0"/></linearGradient><linearGradient id="Y" x1="126" y1="158.3" x2="716.292" y2="158.3" gradientUnits="userSpaceOnUse"><stop stop-color="#1A7F72" stop-opacity=".46"/><stop offset="1" stop-color="#1A7F72" stop-opacity="0"/></linearGradient><linearGradient id="Z" x1="126" y1="158.3" x2="716.292" y2="158.3" gradientUnits="userSpaceOnUse"><stop stop-color="#1A7F72" stop-opacity=".46"/><stop offset="1" stop-color="#1A7F72" stop-opacity="0"/></linearGradient><linearGradient id="aa" x1="126" y1="158.3" x2="716.292" y2="158.3" gradientUnits="userSpaceOnUse"><stop stop-color="#1A7F72" stop-opacity=".46"/><stop offset="1" stop-color="#1A7F72" stop-opacity="0"/></linearGradient><linearGradient id="ab" x1="126" y1="158.3" x2="716.292" y2="158.3" gradientUnits="userSpaceOnUse"><stop stop-color="#1A7F72" stop-opacity=".46"/><stop offset="1" stop-color="#1A7F72" stop-opacity="0"/></linearGradient><linearGradient id="ac" x1="126" y1="158.3" x2="716.292" y2="158.3" gradientUnits="userSpaceOnUse"><stop stop-color="#1A7F72" stop-opacity=".46"/><stop offset="1" stop-color="#1A7F72" stop-opacity="0"/></linearGradient><linearGradient id="ad" x1="126" y1="158.3" x2="716.292" y2="158.3" gradientUnits="userSpaceOnUse"><stop stop-color="#1A7F72" stop-opacity=".46"/><stop offset="1" stop-color="#1A7F72" stop-opacity="0"/></linearGradient><linearGradient id="ae" x1="126" y1="158.3" x2="716.292" y2="158.3" gradientUnits="userSpaceOnUse"><stop stop-color="#1A7F72" stop-opacity=".46"/><stop offset="1" stop-color="#1A7F72" stop-opacity="0"/></linearGradient><linearGradient id="af" x1="126" y1="158.3" x2="716.292" y2="158.3" gradientUnits="userSpaceOnUse"><stop stop-color="#1A7F72" stop-opacity=".46"/><stop offset="1" stop-color="#1A7F72" stop-opacity="0"/></linearGradient><linearGradient id="ag" x1="126" y1="158.3" x2="716.292" y2="158.3" gradientUnits="userSpaceOnUse"><stop stop-color="#1A7F72" stop-opacity=".46"/><stop offset="1" stop-color="#1A7F72" stop-opacity="0"/></linearGradient><linearGradient id="ah" x1="126" y1="158.3" x2="716.292" y2="158.3" gradientUnits="userSpaceOnUse"><stop stop-color="#1A7F72" stop-opacity=".46"/><stop offset="1" stop-color="#1A7F72" stop-opacity="0"/></linearGradient><linearGradient id="ai" x1="126" y1="158.3" x2="716.292" y2="158.3" gradientUnits="userSpaceOnUse"><stop stop-color="#1A7F72" stop-opacity=".46"/><stop offset="1" stop-color="#1A7F72" stop-opacity="0"/></linearGradient><linearGradient id="aj" x1="126" y1="158.3" x2="716.292" y2="158.3" gradientUnits="userSpaceOnUse"><stop stop-color="#1A7F72" stop-opacity=".46"/><stop offset="1" stop-color="#1A7F72" stop-opacity="0"/></linearGradient><linearGradient id="ak" x1="126" y1="158.3" x2="716.292" y2="158.3" gradientUnits="userSpaceOnUse"><stop stop-color="#1A7F72" stop-opacity=".46"/><stop offset="1" stop-color="#1A7F72" stop-opacity="0"/></linearGradient><linearGradient id="al" x1="126" y1="158.3" x2="716.292" y2="158.3" gradientUnits="userSpaceOnUse"><stop stop-color="#1A7F72" stop-opacity=".46"/><stop offset="1" stop-color="#1A7F72" stop-opacity="0"/></linearGradient><linearGradient id="am" x1="126" y1="158.3" x2="716.292" y2="158.3" gradientUnits="userSpaceOnUse"><stop stop-color="#1A7F72" stop-opacity=".46"/><stop offset="1" stop-color="#1A7F72" stop-opacity="0"/></linearGradient><linearGradient id="an" x1="126" y1="158.3" x2="716.292" y2="158.3" gradientUnits="userSpaceOnUse"><stop stop-color="#1A7F72" stop-opacity=".46"/><stop offset="1" stop-color="#1A7F72" stop-opacity="0"/></linearGradient><linearGradient id="ao" x1="126" y1="158.3" x2="716.292" y2="158.3" gradientUnits="userSpaceOnUse"><stop stop-color="#1A7F72" stop-opacity=".46"/><stop offset="1" stop-color="#1A7F72" stop-opacity="0"/></linearGradient><linearGradient id="ap" x1="126" y1="158.3" x2="716.292" y2="158.3" gradientUnits="userSpaceOnUse"><stop stop-color="#1A7F72" stop-opacity=".46"/><stop offset="1" stop-color="#1A7F72" stop-opacity="0"/></linearGradient><linearGradient id="aq" x1="126" y1="158.3" x2="716.292" y2="158.3" gradientUnits="userSpaceOnUse"><stop stop-color="#1A7F72" stop-opacity=".46"/><stop offset="1" stop-color="#1A7F72" stop-opacity="0"/></linearGradient><linearGradient id="ar" x1="126" y1="158.3" x2="716.292" y2="158.3" gradientUnits="userSpaceOnUse"><stop stop-color="#1A7F72" stop-opacity=".46"/><stop offset="1" stop-color="#1A7F72" stop-opacity="0"/></linearGradient><linearGradient id="as" x1="126" y1="158.3" x2="716.292" y2="158.3" gradientUnits="userSpaceOnUse"><stop stop-color="#1A7F72" stop-opacity=".46"/><stop offset="1" stop-color="#1A7F72" stop-opacity="0"/></linearGradient><linearGradient id="at" x1="126" y1="158.3" x2="716.292" y2="158.3" gradientUnits="userSpaceOnUse"><stop stop-color="#1A7F72" stop-opacity=".46"/><stop offset="1" stop-color="#1A7F72" stop-opacity="0"/></linearGradient><linearGradient id="au" x1="126" y1="158.3" x2="716.292" y2="158.3" gradientUnits="userSpaceOnUse"><stop stop-color="#1A7F72" stop-opacity=".46"/><stop offset="1" stop-color="#1A7F72" stop-opacity="0"/></linearGradient><linearGradient id="av" x1="126" y1="158.3" x2="716.292" y2="158.3" gradientUnits="userSpaceOnUse"><stop stop-color="#1A7F72" stop-opacity=".46"/><stop offset="1" stop-color="#1A7F72" stop-opacity="0"/></linearGradient><linearGradient id="aw" x1="126" y1="158.3" x2="716.292" y2="158.3" gradientUnits="userSpaceOnUse"><stop stop-color="#1A7F72" stop-opacity=".46"/><stop offset="1" stop-color="#1A7F72" stop-opacity="0"/></linearGradient><linearGradient id="ax" x1="126" y1="158.3" x2="716.292" y2="158.3" gradientUnits="userSpaceOnUse"><stop stop-color="#1A7F72" stop-opacity=".46"/><stop offset="1" stop-color="#1A7F72" stop-opacity="0"/></linearGradient><linearGradient id="ay" x1="126" y1="158.3" x2="716.292" y2="158.3" gradientUnits="userSpaceOnUse"><stop stop-color="#1A7F72" stop-opacity=".46"/><stop offset="1" stop-color="#1A7F72" stop-opacity="0"/></linearGradient><linearGradient id="az" x1="126" y1="158.3" x2="716.292" y2="158.3" gradientUnits="userSpaceOnUse"><stop stop-color="#1A7F72" stop-opacity=".46"/><stop offset="1" stop-color="#1A7F72" stop-opacity="0"/></linearGradient><linearGradient id="aA" x1="126" y1="158.3" x2="716.292" y2="158.3" gradientUnits="userSpaceOnUse"><stop stop-color="#1A7F72" stop-opacity=".46"/><stop offset="1" stop-color="#1A7F72" stop-opacity="0"/></linearGradient><linearGradient id="aB" x1="126" y1="158.3" x2="716.292" y2="158.3" gradientUnits="userSpaceOnUse"><stop stop-color="#1A7F72" stop-opacity=".46"/><stop offset="1" stop-color="#1A7F72" stop-opacity="0"/></linearGradient><linearGradient id="aC" x1="126" y1="158.3" x2="716.292" y2="158.3" gradientUnits="userSpaceOnUse"><stop stop-color="#1A7F72" stop-opacity=".46"/><stop offset="1" stop-color="#1A7F72" stop-opacity="0"/></linearGradient><linearGradient id="aD" x1="126" y1="158.3" x2="716.292" y2="158.3" gradientUnits="userSpaceOnUse"><stop stop-color="#1A7F72" stop-opacity=".46"/><stop offset="1" stop-color="#1A7F72" stop-opacity="0"/></linearGradient><linearGradient id="aE" x1="126" y1="158.3" x2="716.292" y2="158.3" gradientUnits="userSpaceOnUse"><stop stop-color="#1A7F72" stop-opacity=".46"/><stop offset="1" stop-color="#1A7F72" stop-opacity="0"/></linearGradient><linearGradient id="aF" x1="126" y1="158.3" x2="716.292" y2="158.3" gradientUnits="userSpaceOnUse"><stop stop-color="#1A7F72" stop-opacity=".46"/><stop offset="1" stop-color="#1A7F72" stop-opacity="0"/></linearGradient><linearGradient id="aG" x1="126" y1="158.3" x2="716.292" y2="158.3" gradientUnits="userSpaceOnUse"><stop stop-color="#1A7F72" stop-opacity=".46"/><stop offset="1" stop-color="#1A7F72" stop-opacity="0"/></linearGradient><linearGradient id="aH" x1="126" y1="158.3" x2="716.292" y2="158.3" gradientUnits="userSpaceOnUse"><stop stop-color="#1A7F72" stop-opacity=".46"/><stop offset="1" stop-color="#1A7F72" stop-opacity="0"/></linearGradient><linearGradient id="aI" x1="126" y1="158.3" x2="716.292" y2="158.3" gradientUnits="userSpaceOnUse"><stop stop-color="#1A7F72" stop-opacity=".46"/><stop offset="1" stop-color="#1A7F72" stop-opacity="0"/></linearGradient><linearGradient id="aJ" x1="126" y1="158.3" x2="716.292" y2="158.3" gradientUnits="userSpaceOnUse"><stop stop-color="#1A7F72" stop-opacity=".46"/><stop offset="1" stop-color="#1A7F72" stop-opacity="0"/></linearGradient><linearGradient id="aK" x1="126" y1="158.3" x2="716.292" y2="158.3" gradientUnits="userSpaceOnUse"><stop stop-color="#1A7F72" stop-opacity=".46"/><stop offset="1" stop-color="#1A7F72" stop-opacity="0"/></linearGradient><linearGradient id="aL" x1="126" y1="158.3" x2="716.292" y2="158.3" gradientUnits="userSpaceOnUse"><stop stop-color="#1A7F72" stop-opacity=".46"/><stop offset="1" stop-color="#1A7F72" stop-opacity="0"/></linearGradient><linearGradient id="aM" x1="126" y1="158.3" x2="716.292" y2="158.3" gradientUnits="userSpaceOnUse"><stop stop-color="#1A7F72" stop-opacity=".46"/><stop offset="1" stop-color="#1A7F72" stop-opacity="0"/></linearGradient><linearGradient id="aN" x1="126" y1="158.3" x2="716.292" y2="158.3" gradientUnits="userSpaceOnUse"><stop stop-color="#1A7F72" stop-opacity=".46"/><stop offset="1" stop-color="#1A7F72" stop-opacity="0"/></linearGradient><linearGradient id="aO" x1="126" y1="158.3" x2="716.292" y2="158.3" gradientUnits="userSpaceOnUse"><stop stop-color="#1A7F72" stop-opacity=".46"/><stop offset="1" stop-color="#1A7F72" stop-opacity="0"/></linearGradient><linearGradient id="aP" x1="126" y1="158.3" x2="716.292" y2="158.3" gradientUnits="userSpaceOnUse"><stop stop-color="#1A7F72" stop-opacity=".46"/><stop offset="1" stop-color="#1A7F72" stop-opacity="0"/></linearGradient><linearGradient id="aQ" x1="126" y1="158.3" x2="716.292" y2="158.3" gradientUnits="userSpaceOnUse"><stop stop-color="#1A7F72" stop-opacity=".46"/><stop offset="1" stop-color="#1A7F72" stop-opacity="0"/></linearGradient><linearGradient id="aR" x1="126" y1="158.3" x2="716.292" y2="158.3" gradientUnits="userSpaceOnUse"><stop stop-color="#1A7F72" stop-opacity=".46"/><stop offset="1" stop-color="#1A7F72" stop-opacity="0"/></linearGradient><linearGradient id="aS" x1="126" y1="158.3" x2="716.292" y2="158.3" gradientUnits="userSpaceOnUse"><stop stop-color="#1A7F72" stop-opacity=".46"/><stop offset="1" stop-color="#1A7F72" stop-opacity="0"/></linearGradient><linearGradient id="aT" x1="126" y1="158.3" x2="716.292" y2="158.3" gradientUnits="userSpaceOnUse"><stop stop-color="#1A7F72" stop-opacity=".46"/><stop offset="1" stop-color="#1A7F72" stop-opacity="0"/></linearGradient><linearGradient id="aU" x1="126" y1="158.3" x2="716.292" y2="158.3" gradientUnits="userSpaceOnUse"><stop stop-color="#1A7F72" stop-opacity=".46"/><stop offset="1" stop-color="#1A7F72" stop-opacity="0"/></linearGradient><linearGradient id="aV" x1="126" y1="158.3" x2="716.292" y2="158.3" gradientUnits="userSpaceOnUse"><stop stop-color="#1A7F72" stop-opacity=".46"/><stop offset="1" stop-color="#1A7F72" stop-opacity="0"/></linearGradient><linearGradient id="aW" x1="126" y1="158.3" x2="716.292" y2="158.3" gradientUnits="userSpaceOnUse"><stop stop-color="#1A7F72" stop-opacity=".46"/><stop offset="1" stop-color="#1A7F72" stop-opacity="0"/></linearGradient><linearGradient id="aX" x1="126" y1="158.3" x2="716.292" y2="158.3" gradientUnits="userSpaceOnUse"><stop stop-color="#1A7F72" stop-opacity=".46"/><stop offset="1" stop-color="#1A7F72" stop-opacity="0"/></linearGradient><linearGradient id="aY" x1="126" y1="158.3" x2="716.292" y2="158.3" gradientUnits="userSpaceOnUse"><stop stop-color="#1A7F72" stop-opacity=".46"/><stop offset="1" stop-color="#1A7F72" stop-opacity="0"/></linearGradient><linearGradient id="aZ" x1="126" y1="158.3" x2="716.292" y2="158.3" gradientUnits="userSpaceOnUse"><stop stop-color="#1A7F72" stop-opacity=".46"/><stop offset="1" stop-color="#1A7F72" stop-opacity="0"/></linearGradient><linearGradient id="ba" x1="126" y1="158.3" x2="716.292" y2="158.3" gradientUnits="userSpaceOnUse"><stop stop-color="#1A7F72" stop-opacity=".46"/><stop offset="1" stop-color="#1A7F72" stop-opacity="0"/></linearGradient><linearGradient id="bb" x1="126" y1="158.3" x2="716.292" y2="158.3" gradientUnits="userSpaceOnUse"><stop stop-color="#1A7F72" stop-opacity=".46"/><stop offset="1" stop-color="#1A7F72" stop-opacity="0"/></linearGradient><linearGradient id="bc" x1="126" y1="158.3" x2="716.292" y2="158.3" gradientUnits="userSpaceOnUse"><stop stop-color="#1A7F72" stop-opacity=".46"/><stop offset="1" stop-color="#1A7F72" stop-opacity="0"/></linearGradient><linearGradient id="bd" x1="126" y1="158.3" x2="716.292" y2="158.3" gradientUnits="userSpaceOnUse"><stop stop-color="#1A7F72" stop-opacity=".46"/><stop offset="1" stop-color="#1A7F72" stop-opacity="0"/></linearGradient><linearGradient id="be" x1="126" y1="158.3" x2="716.292" y2="158.3" gradientUnits="userSpaceOnUse"><stop stop-color="#1A7F72" stop-opacity=".46"/><stop offset="1" stop-color="#1A7F72" stop-opacity="0"/></linearGradient><linearGradient id="bf" x1="126" y1="158.3" x2="716.292" y2="158.3" gradientUnits="userSpaceOnUse"><stop stop-color="#1A7F72" stop-opacity=".46"/><stop offset="1" stop-color="#1A7F72" stop-opacity="0"/></linearGradient><linearGradient id="bg" x1="126" y1="158.3" x2="716.292" y2="158.3" gradientUnits="userSpaceOnUse"><stop stop-color="#1A7F72" stop-opacity=".46"/><stop offset="1" stop-color="#1A7F72" stop-opacity="0"/></linearGradient><linearGradient id="bh" x1="126" y1="158.3" x2="716.292" y2="158.3" gradientUnits="userSpaceOnUse"><stop stop-color="#1A7F72" stop-opacity=".46"/><stop offset="1" stop-color="#1A7F72" stop-opacity="0"/></linearGradient><linearGradient id="bi" x1="126" y1="158.3" x2="716.292" y2="158.3" gradientUnits="userSpaceOnUse"><stop stop-color="#1A7F72" stop-opacity=".46"/><stop offset="1" stop-color="#1A7F72" stop-opacity="0"/></linearGradient><linearGradient id="bj" x1="126" y1="158.3" x2="716.292" y2="158.3" gradientUnits="userSpaceOnUse"><stop stop-color="#1A7F72" stop-opacity=".46"/><stop offset="1" stop-color="#1A7F72" stop-opacity="0"/></linearGradient><linearGradient id="bk" x1="126" y1="158.3" x2="716.292" y2="158.3" gradientUnits="userSpaceOnUse"><stop stop-color="#1A7F72" stop-opacity=".46"/><stop offset="1" stop-color="#1A7F72" stop-opacity="0"/></linearGradient><linearGradient id="bl" x1="126" y1="158.3" x2="716.292" y2="158.3" gradientUnits="userSpaceOnUse"><stop stop-color="#1A7F72" stop-opacity=".46"/><stop offset="1" stop-color="#1A7F72" stop-opacity="0"/></linearGradient><linearGradient id="bm" x1="126" y1="158.3" x2="716.292" y2="158.3" gradientUnits="userSpaceOnUse"><stop stop-color="#1A7F72" stop-opacity=".46"/><stop offset="1" stop-color="#1A7F72" stop-opacity="0"/></linearGradient><linearGradient id="bn" x1="126" y1="158.3" x2="716.292" y2="158.3" gradientUnits="userSpaceOnUse"><stop stop-color="#1A7F72" stop-opacity=".46"/><stop offset="1" stop-color="#1A7F72" stop-opacity="0"/></linearGradient><linearGradient id="bo" x1="126" y1="158.3" x2="716.292" y2="158.3" gradientUnits="userSpaceOnUse"><stop stop-color="#1A7F72" stop-opacity=".46"/><stop offset="1" stop-color="#1A7F72" stop-opacity="0"/></linearGradient><linearGradient id="bp" x1="126" y1="158.3" x2="716.292" y2="158.3" gradientUnits="userSpaceOnUse"><stop stop-color="#1A7F72" stop-opacity=".46"/><stop offset="1" stop-color="#1A7F72" stop-opacity="0"/></linearGradient><linearGradient id="bq" x1="126" y1="158.3" x2="716.292" y2="158.3" gradientUnits="userSpaceOnUse"><stop stop-color="#1A7F72" stop-opacity=".46"/><stop offset="1" stop-color="#1A7F72" stop-opacity="0"/></linearGradient><linearGradient id="br" x1="126" y1="158.3" x2="716.292" y2="158.3" gradientUnits="userSpaceOnUse"><stop stop-color="#1A7F72" stop-opacity=".46"/><stop offset="1" stop-color="#1A7F72" stop-opacity="0"/></linearGradient><linearGradient id="bs" x1="126" y1="158.3" x2="716.292" y2="158.3" gradientUnits="userSpaceOnUse"><stop stop-color="#1A7F72" stop-opacity=".46"/><stop offset="1" stop-color="#1A7F72" stop-opacity="0"/></linearGradient><linearGradient id="bt" x1="126" y1="158.3" x2="716.292" y2="158.3" gradientUnits="userSpaceOnUse"><stop stop-color="#1A7F72" stop-opacity=".46"/><stop offset="1" stop-color="#1A7F72" stop-opacity="0"/></linearGradient><linearGradient id="bu" x1="126" y1="158.3" x2="716.292" y2="158.3" gradientUnits="userSpaceOnUse"><stop stop-color="#1A7F72" stop-opacity=".46"/><stop offset="1" stop-color="#1A7F72" stop-opacity="0"/></linearGradient><linearGradient id="bv" x1="126" y1="158.3" x2="716.292" y2="158.3" gradientUnits="userSpaceOnUse"><stop stop-color="#1A7F72" stop-opacity=".46"/><stop offset="1" stop-color="#1A7F72" stop-opacity="0"/></linearGradient><linearGradient id="bw" x1="126" y1="158.3" x2="716.292" y2="158.3" gradientUnits="userSpaceOnUse"><stop stop-color="#1A7F72" stop-opacity=".46"/><stop offset="1" stop-color="#1A7F72" stop-opacity="0"/></linearGradient><linearGradient id="bx" x1="126" y1="158.3" x2="716.292" y2="158.3" gradientUnits="userSpaceOnUse"><stop stop-color="#1A7F72" stop-opacity=".46"/><stop offset="1" stop-color="#1A7F72" stop-opacity="0"/></linearGradient><linearGradient id="by" x1="126" y1="158.3" x2="716.292" y2="158.3" gradientUnits="userSpaceOnUse"><stop stop-color="#1A7F72" stop-opacity=".46"/><stop offset="1" stop-color="#1A7F72" stop-opacity="0"/></linearGradient><linearGradient id="bz" x1="126" y1="158.3" x2="716.292" y2="158.3" gradientUnits="userSpaceOnUse"><stop stop-color="#1A7F72" stop-opacity=".46"/><stop offset="1" stop-color="#1A7F72" stop-opacity="0"/></linearGradient><linearGradient id="bA" x1="126" y1="158.3" x2="716.292" y2="158.3" gradientUnits="userSpaceOnUse"><stop stop-color="#1A7F72" stop-opacity=".46"/><stop offset="1" stop-color="#1A7F72" stop-opacity="0"/></linearGradient><linearGradient id="bB" x1="126" y1="158.3" x2="716.292" y2="158.3" gradientUnits="userSpaceOnUse"><stop stop-color="#1A7F72" stop-opacity=".46"/><stop offset="1" stop-color="#1A7F72" stop-opacity="0"/></linearGradient><linearGradient id="bC" x1="126" y1="158.3" x2="716.292" y2="158.3" gradientUnits="userSpaceOnUse"><stop stop-color="#1A7F72" stop-opacity=".46"/><stop offset="1" stop-color="#1A7F72" stop-opacity="0"/></linearGradient><linearGradient id="bD" x1="126" y1="158.3" x2="716.292" y2="158.3" gradientUnits="userSpaceOnUse"><stop stop-color="#1A7F72" stop-opacity=".46"/><stop offset="1" stop-color="#1A7F72" stop-opacity="0"/></linearGradient><linearGradient id="bE" x1="126" y1="158.3" x2="716.292" y2="158.3" gradientUnits="userSpaceOnUse"><stop stop-color="#1A7F72" stop-opacity=".46"/><stop offset="1" stop-color="#1A7F72" stop-opacity="0"/></linearGradient><linearGradient id="bF" x1="126" y1="158.3" x2="716.292" y2="158.3" gradientUnits="userSpaceOnUse"><stop stop-color="#1A7F72" stop-opacity=".46"/><stop offset="1" stop-color="#1A7F72" stop-opacity="0"/></linearGradient><linearGradient id="bG" x1="126" y1="158.3" x2="716.292" y2="158.3" gradientUnits="userSpaceOnUse"><stop stop-color="#1A7F72" stop-opacity=".46"/><stop offset="1" stop-color="#1A7F72" stop-opacity="0"/></linearGradient><linearGradient id="bH" x1="126" y1="158.3" x2="716.292" y2="158.3" gradientUnits="userSpaceOnUse"><stop stop-color="#1A7F72" stop-opacity=".46"/><stop offset="1" stop-color="#1A7F72" stop-opacity="0"/></linearGradient><linearGradient id="bI" x1="126" y1="158.3" x2="716.292" y2="158.3" gradientUnits="userSpaceOnUse"><stop stop-color="#1A7F72" stop-opacity=".46"/><stop offset="1" stop-color="#1A7F72" stop-opacity="0"/></linearGradient><linearGradient id="bJ" x1="126" y1="158.3" x2="716.292" y2="158.3" gradientUnits="userSpaceOnUse"><stop stop-color="#1A7F72" stop-opacity=".46"/><stop offset="1" stop-color="#1A7F72" stop-opacity="0"/></linearGradient><linearGradient id="bK" x1="126" y1="158.3" x2="716.292" y2="158.3" gradientUnits="userSpaceOnUse"><stop stop-color="#1A7F72" stop-opacity=".46"/><stop offset="1" stop-color="#1A7F72" stop-opacity="0"/></linearGradient><linearGradient id="bL" x1="126" y1="158.3" x2="716.292" y2="158.3" gradientUnits="userSpaceOnUse"><stop stop-color="#1A7F72" stop-opacity=".46"/><stop offset="1" stop-color="#1A7F72" stop-opacity="0"/></linearGradient><linearGradient id="bM" x1="126" y1="158.3" x2="716.292" y2="158.3" gradientUnits="userSpaceOnUse"><stop stop-color="#1A7F72" stop-opacity=".46"/><stop offset="1" stop-color="#1A7F72" stop-opacity="0"/></linearGradient><linearGradient id="bN" x1="126" y1="158.3" x2="716.292" y2="158.3" gradientUnits="userSpaceOnUse"><stop stop-color="#1A7F72" stop-opacity=".46"/><stop offset="1" stop-color="#1A7F72" stop-opacity="0"/></linearGradient><linearGradient id="bO" x1="126" y1="158.3" x2="716.292" y2="158.3" gradientUnits="userSpaceOnUse"><stop stop-color="#1A7F72" stop-opacity=".46"/><stop offset="1" stop-color="#1A7F72" stop-opacity="0"/></linearGradient><linearGradient id="bP" x1="126" y1="158.3" x2="716.292" y2="158.3" gradientUnits="userSpaceOnUse"><stop stop-color="#1A7F72" stop-opacity=".46"/><stop offset="1" stop-color="#1A7F72" stop-opacity="0"/></linearGradient><linearGradient id="bQ" x1="126" y1="158.3" x2="716.292" y2="158.3" gradientUnits="userSpaceOnUse"><stop stop-color="#1A7F72" stop-opacity=".46"/><stop offset="1" stop-color="#1A7F72" stop-opacity="0"/></linearGradient><linearGradient id="bR" x1="126" y1="158.3" x2="716.292" y2="158.3" gradientUnits="userSpaceOnUse"><stop stop-color="#1A7F72" stop-opacity=".46"/><stop offset="1" stop-color="#1A7F72" stop-opacity="0"/></linearGradient><linearGradient id="bS" x1="126" y1="158.3" x2="716.292" y2="158.3" gradientUnits="userSpaceOnUse"><stop stop-color="#1A7F72" stop-opacity=".46"/><stop offset="1" stop-color="#1A7F72" stop-opacity="0"/></linearGradient><linearGradient id="bT" x1="126" y1="158.3" x2="716.292" y2="158.3" gradientUnits="userSpaceOnUse"><stop stop-color="#1A7F72" stop-opacity=".46"/><stop offset="1" stop-color="#1A7F72" stop-opacity="0"/></linearGradient><linearGradient id="bU" x1="126" y1="158.3" x2="716.292" y2="158.3" gradientUnits="userSpaceOnUse"><stop stop-color="#1A7F72" stop-opacity=".46"/><stop offset="1" stop-color="#1A7F72" stop-opacity="0"/></linearGradient><linearGradient id="bV" x1="126" y1="158.3" x2="716.292" y2="158.3" gradientUnits="userSpaceOnUse"><stop stop-color="#1A7F72" stop-opacity=".46"/><stop offset="1" stop-color="#1A7F72" stop-opacity="0"/></linearGradient><linearGradient id="bW" x1="126" y1="158.3" x2="716.292" y2="158.3" gradientUnits="userSpaceOnUse"><stop stop-color="#1A7F72" stop-opacity=".46"/><stop offset="1" stop-color="#1A7F72" stop-opacity="0"/></linearGradient><linearGradient id="bX" x1="126" y1="158.3" x2="716.292" y2="158.3" gradientUnits="userSpaceOnUse"><stop stop-color="#1A7F72" stop-opacity=".46"/><stop offset="1" stop-color="#1A7F72" stop-opacity="0"/></linearGradient><linearGradient id="bY" x1="126" y1="158.3" x2="716.292" y2="158.3" gradientUnits="userSpaceOnUse"><stop stop-color="#1A7F72" stop-opacity=".46"/><stop offset="1" stop-color="#1A7F72" stop-opacity="0"/></linearGradient><linearGradient id="bZ" x1="126" y1="158.3" x2="716.292" y2="158.3" gradientUnits="userSpaceOnUse"><stop stop-color="#1A7F72" stop-opacity=".46"/><stop offset="1" stop-color="#1A7F72" stop-opacity="0"/></linearGradient><linearGradient id="ca" x1="126" y1="158.3" x2="716.292" y2="158.3" gradientUnits="userSpaceOnUse"><stop stop-color="#1A7F72" stop-opacity=".46"/><stop offset="1" stop-color="#1A7F72" stop-opacity="0"/></linearGradient><linearGradient id="cb" x1="126" y1="158.3" x2="716.292" y2="158.3" gradientUnits="userSpaceOnUse"><stop stop-color="#1A7F72" stop-opacity=".46"/><stop offset="1" stop-color="#1A7F72" stop-opacity="0"/></linearGradient><linearGradient id="cc" x1="126" y1="158.3" x2="716.292" y2="158.3" gradientUnits="userSpaceOnUse"><stop stop-color="#1A7F72" stop-opacity=".46"/><stop offset="1" stop-color="#1A7F72" stop-opacity="0"/></linearGradient><linearGradient id="cd" x1="126" y1="158.3" x2="716.292" y2="158.3" gradientUnits="userSpaceOnUse"><stop stop-color="#1A7F72" stop-opacity=".46"/><stop offset="1" stop-color="#1A7F72" stop-opacity="0"/></linearGradient><linearGradient id="ce" x1="126" y1="158.3" x2="716.292" y2="158.3" gradientUnits="userSpaceOnUse"><stop stop-color="#1A7F72" stop-opacity=".46"/><stop offset="1" stop-color="#1A7F72" stop-opacity="0"/></linearGradient><linearGradient id="cf" x1="126" y1="158.3" x2="716.292" y2="158.3" gradientUnits="userSpaceOnUse"><stop stop-color="#1A7F72" stop-opacity=".46"/><stop offset="1" stop-color="#1A7F72" stop-opacity="0"/></linearGradient><linearGradient id="cg" x1="126" y1="158.3" x2="716.292" y2="158.3" gradientUnits="userSpaceOnUse"><stop stop-color="#1A7F72" stop-opacity=".46"/><stop offset="1" stop-color="#1A7F72" stop-opacity="0"/></linearGradient><linearGradient id="ch" x1="126" y1="158.3" x2="716.292" y2="158.3" gradientUnits="userSpaceOnUse"><stop stop-color="#1A7F72" stop-opacity=".46"/><stop offset="1" stop-color="#1A7F72" stop-opacity="0"/></linearGradient><linearGradient id="ci" x1="126" y1="158.3" x2="716.292" y2="158.3" gradientUnits="userSpaceOnUse"><stop stop-color="#1A7F72" stop-opacity=".46"/><stop offset="1" stop-color="#1A7F72" stop-opacity="0"/></linearGradient><linearGradient id="cj" x1="126" y1="158.3" x2="716.292" y2="158.3" gradientUnits="userSpaceOnUse"><stop stop-color="#1A7F72" stop-opacity=".46"/><stop offset="1" stop-color="#1A7F72" stop-opacity="0"/></linearGradient><linearGradient id="ck" x1="126" y1="158.3" x2="716.292" y2="158.3" gradientUnits="userSpaceOnUse"><stop stop-color="#1A7F72" stop-opacity=".46"/><stop offset="1" stop-color="#1A7F72" stop-opacity="0"/></linearGradient><linearGradient id="cl" x1="126" y1="158.3" x2="716.292" y2="158.3" gradientUnits="userSpaceOnUse"><stop stop-color="#1A7F72" stop-opacity=".46"/><stop offset="1" stop-color="#1A7F72" stop-opacity="0"/></linearGradient><linearGradient id="cm" x1="126" y1="158.3" x2="716.292" y2="158.3" gradientUnits="userSpaceOnUse"><stop stop-color="#1A7F72" stop-opacity=".46"/><stop offset="1" stop-color="#1A7F72" stop-opacity="0"/></linearGradient><linearGradient id="cn" x1="126" y1="158.3" x2="716.292" y2="158.3" gradientUnits="userSpaceOnUse"><stop stop-color="#1A7F72" stop-opacity=".46"/><stop offset="1" stop-color="#1A7F72" stop-opacity="0"/></linearGradient><linearGradient id="co" x1="126" y1="158.3" x2="716.292" y2="158.3" gradientUnits="userSpaceOnUse"><stop stop-color="#1A7F72" stop-opacity=".46"/><stop offset="1" stop-color="#1A7F72" stop-opacity="0"/></linearGradient><linearGradient id="cp" x1="126" y1="158.3" x2="716.292" y2="158.3" gradientUnits="userSpaceOnUse"><stop stop-color="#1A7F72" stop-opacity=".46"/><stop offset="1" stop-color="#1A7F72" stop-opacity="0"/></linearGradient><linearGradient id="cq" x1="126" y1="158.3" x2="716.292" y2="158.3" gradientUnits="userSpaceOnUse"><stop stop-color="#1A7F72" stop-opacity=".46"/><stop offset="1" stop-color="#1A7F72" stop-opacity="0"/></linearGradient><linearGradient id="cr" x1="126" y1="158.3" x2="716.292" y2="158.3" gradientUnits="userSpaceOnUse"><stop stop-color="#1A7F72" stop-opacity=".46"/><stop offset="1" stop-color="#1A7F72" stop-opacity="0"/></linearGradient><linearGradient id="cs" x1="126" y1="158.3" x2="716.292" y2="158.3" gradientUnits="userSpaceOnUse"><stop stop-color="#1A7F72" stop-opacity=".46"/><stop offset="1" stop-color="#1A7F72" stop-opacity="0"/></linearGradient><linearGradient id="ct" x1="126" y1="158.3" x2="716.292" y2="158.3" gradientUnits="userSpaceOnUse"><stop stop-color="#1A7F72" stop-opacity=".46"/><stop offset="1" stop-color="#1A7F72" stop-opacity="0"/></linearGradient><linearGradient id="cu" x1="126" y1="158.3" x2="716.292" y2="158.3" gradientUnits="userSpaceOnUse"><stop stop-color="#1A7F72" stop-opacity=".46"/><stop offset="1" stop-color="#1A7F72" stop-opacity="0"/></linearGradient><filter id="a" x=".5" y=".5" width="575" height="309" filterUnits="userSpaceOnUse" color-interpolation-filters="sRGB"><feFlood flood-opacity="0" result="BackgroundImageFix"/><feColorMatrix in="SourceAlpha" values="0 0 0 0 0 0 0 0 0 0 0 0 0 0 0 0 0 0 127 0" result="hardAlpha"/><feOffset dx="-26" dy="4"/><feGaussianBlur stdDeviation="39.5"/><feColorMatrix values="0 0 0 0 0.660156 0 0 0 0 0.8125 0 0 0 0 0.792629 0 0 0 0.39 0"/><feBlend in2="BackgroundImageFix" result="effect1_dropShadow"/><feBlend in="SourceGraphic" in2="effect1_dropShadow" result="shape"/></filter></defs></svg>