<svg width="923" height="941" fill="none" xmlns="http://www.w3.org/2000/svg"><g opacity=".1" clip-path="url(#a)"><path d="M696.987 231.654c-6.435-37.358-36.547-63.693-85.024-60.376-41.781 2.56-73.732 17.097-117.738-12.192-168.093-112.356-231.544 5.386-235.716 97.397-5.802 132.14-47.986 150.038-92.643 211.911-31.186 43.332-52.528 81.271-44.986 139.115 11.08 86.46 84.973 128.971 157.945 121.667 35.979-3.555 74.508-13.036 98.463-17.096 64.219-10.89 88.494-5.013 171.041 5.671 161.071 17.753 231.59-96.957 159.812-204.598-61.438-92.08-66.526-97.596-35.102-176.406 13.665-33.137 31.418-62.32 23.948-105.093Z" fill="url(#b)"/></g><g opacity=".1" clip-path="url(#c)"><path d="M673.998 210.976c-9.847-36.606-42.256-60.057-90.222-52.292-41.367 6.396-71.844 23.812-118.36-1.3-177.724-96.404-230.065 26.68-225.749 118.684 6.388 132.113-33.968 153.819-72.74 219.54-27.064 46.019-44.822 85.762-31.987 142.666 18.992 85.073 96.486 120.6 168.476 106.609 35.498-6.852 72.991-19.84 96.471-26.088 62.943-16.757 87.656-13.139 170.836-10.1 162.021 2.849 221.68-117.867 140.297-218.442-69.654-86.033-75.228-91.057-51.193-172.425 10.556-34.254 25.546-64.948 14.171-106.852Z" fill="url(#d)"/></g><g opacity=".5"><path d="M730 483.035c-11.623.536-28.305-.43-48.645-3.54-20.663-3.111-45.093-8.367-71.353-16.627-6.565-2.038-13.238-4.398-20.018-6.972a399.557 399.557 0 0 1-10.116-4.077 975.936 975.936 0 0 0-10.224-4.505c-13.883-5.9-29.273-10.19-45.309-11.263-7.964-.536-15.928-.322-23.784.536l-2.906.322c-.969.107-1.937.215-2.906.429-1.937.322-3.766.644-5.704.966-1.829.429-3.766.858-5.596 1.287-1.83.429-3.659.965-5.489 1.502-.861.214-1.829.536-2.69.75a26.11 26.11 0 0 1-2.691.859c-.861.321-1.829.643-2.69.858l-1.292.429-1.291.536c-3.444 1.287-6.888 2.682-10.224 3.969-1.722.644-3.337 1.287-5.058 1.931-1.722.644-3.337 1.287-4.951 2.038-3.229 1.395-6.457 2.682-9.686 4.076-12.807 5.364-24.753 10.513-36.376 14.589-11.408 4.72-22.601 7.079-32.932 8.152-5.166.429-10.117.536-14.852.215-4.628-.322-9.04-1.073-13.022-2.146-7.964-2.145-14.206-5.899-18.511-9.761-4.305-3.862-6.78-7.723-8.395-10.405-.861-1.287-1.291-2.36-1.614-3.111-.323-.751-.538-1.073-.538-1.073s.108.429.43 1.073c.323.751.754 1.824 1.507 3.218 1.399 2.682 3.875 6.651 8.179 10.727a49.199 49.199 0 0 0 7.964 5.792 54.897 54.897 0 0 0 10.763 4.506c3.982 1.18 8.502 1.931 13.237 2.36 4.735.429 9.794.321 14.959-.108 5.274-.429 10.655-1.287 16.251-2.574a92.485 92.485 0 0 0 8.502-2.36c2.798-.965 5.597-2.038 8.502-3.111 11.624-4.076 23.785-9.225 36.484-14.481 3.229-1.287 6.457-2.682 9.686-4.076 1.614-.751 3.336-1.287 4.951-1.931 1.614-.644 3.336-1.287 5.058-1.931 3.336-1.287 6.78-2.574 10.224-3.862l1.291-.536 1.292-.429c.861-.322 1.722-.536 2.583-.858.861-.322 1.722-.536 2.69-.858.861-.322 1.83-.537 2.691-.751 1.829-.429 3.551-1.073 5.489-1.502l5.488-1.287c1.83-.322 3.767-.644 5.597-.966.968-.214 1.937-.321 2.798-.429l2.905-.321a131.196 131.196 0 0 1 23.462-.537c15.82.966 30.995 5.256 44.771 11.049 3.443 1.502 6.887 3.003 10.224 4.505 3.443 1.502 6.78 2.789 10.224 4.076 6.78 2.575 13.452 4.935 20.125 6.973 26.475 8.259 51.012 13.301 71.676 16.305 20.34 3.003 37.129 3.647 48.86 2.896v-.536Z" fill="#FF706E"/><path d="M730 469.733h-.108c-11.515.537-28.197-1.072-48.537-4.827-20.34-3.754-44.232-9.654-70.277-17.914a432.369 432.369 0 0 1-19.802-6.758c-1.722-.643-3.336-1.18-5.058-1.823-1.722-.644-3.337-1.287-5.059-1.931-3.444-1.287-6.78-2.789-10.224-4.076-13.883-5.578-29.165-9.225-45.093-9.976-7.964-.429-15.82 0-23.462.965-7.641.966-15.067 2.682-22.277 4.72-14.422 3.969-27.659 10.083-39.713 16.412-12.161 6.329-23.461 12.658-34.654 17.27-2.798 1.18-5.596 2.146-8.287 3.218-2.69 1.073-5.488 1.931-8.179 2.682a131.72 131.72 0 0 1-15.713 3.647c-10.116 1.609-19.587 1.609-27.551 0-7.964-1.609-14.421-4.934-18.941-8.367-4.52-3.432-7.534-6.865-9.363-9.332-.969-1.18-1.614-2.145-2.045-2.789-.43-.644-.753-.965-.753-.965s.215.321.538 1.072c.43.644.968 1.717 1.937 2.896 1.722 2.468 4.628 6.007 9.255 9.655 4.628 3.539 11.085 6.972 19.157 8.796 8.072 1.823 17.65 1.823 27.982.321 5.166-.75 10.439-2.038 15.928-3.539 2.69-.751 5.488-1.609 8.287-2.682 2.798-1.073 5.596-2.038 8.394-3.218 11.3-4.613 22.708-10.942 34.762-17.163 12.053-6.329 25.183-12.229 39.389-16.198 7.103-2.038 14.529-3.647 22.063-4.612 7.533-.966 15.282-1.287 23.138-.966 15.713.751 30.78 4.398 44.448 9.762 3.444 1.287 6.888 2.789 10.224 4.076 1.722.644 3.444 1.287 5.058 1.931 1.722.643 3.336 1.287 5.058 1.823 6.781 2.468 13.453 4.613 19.91 6.651 26.152 8.152 50.152 13.945 70.492 17.592 20.341 3.54 37.238 4.934 48.753 4.184h.108v-.537H730Z" fill="#FF706E"/><path d="M730 456.861h-.646c-5.704.214-12.699 0-20.771-.858-8.071-.858-17.219-2.36-27.228-4.505-10.009-2.146-20.986-4.72-32.502-8.046-11.623-3.218-23.892-7.079-36.699-11.477-6.349-2.253-12.807-4.72-19.372-7.509-6.564-2.789-13.452-5.256-20.555-7.402-7.103-2.145-14.422-3.969-21.955-5.363-7.534-1.395-15.282-2.36-23.139-2.682-7.856-.322-15.712.107-23.246 1.287-7.641 1.18-14.959 3.326-21.847 5.793a50.376 50.376 0 0 0-5.166 1.931c-1.722.643-3.444 1.287-5.058 2.038-3.336 1.394-6.673 2.789-9.901 4.291l-4.843 2.252c-1.615.751-3.121 1.609-4.736 2.36-3.121 1.502-6.134 3.111-9.147 4.72-6.027 3.111-11.731 6.436-17.435 9.44-5.704 3.003-11.3 5.685-16.789 8.152-10.977 4.827-21.632 8.474-31.641 10.727-10.009 2.252-19.264 2.896-27.336 2.038-3.982-.429-7.748-1.287-10.977-2.253-1.614-.643-3.229-1.072-4.628-1.823-.753-.322-1.399-.644-2.152-.966-.646-.321-1.292-.751-1.937-1.072-4.951-2.789-8.18-5.9-10.332-8.045-1.076-1.073-1.722-2.039-2.26-2.575-.538-.536-.753-.858-.861-.858l.646.965c.43.644 1.183 1.502 2.152 2.682 2.045 2.253 5.274 5.471 10.224 8.474.646.322 1.292.751 1.937 1.073.646.322 1.399.644 2.153.965 1.399.751 3.013 1.288 4.735 1.931 3.336 1.073 7.103 1.931 11.193 2.467 8.179.859 17.65.322 27.658-1.823 10.117-2.146 20.879-5.793 31.964-10.513 5.596-2.359 11.193-5.148 16.897-8.152 5.704-3.003 11.408-6.221 17.434-9.44 3.014-1.501 6.027-3.218 9.148-4.719 1.507-.751 3.121-1.502 4.735-2.36l4.843-2.253c3.229-1.502 6.458-2.896 9.794-4.291 1.614-.751 3.336-1.287 5.058-1.93 1.722-.644 3.444-1.288 5.166-1.824 6.888-2.467 14.098-4.505 21.632-5.685 7.426-1.18 15.175-1.609 22.923-1.287 7.749.321 15.39 1.287 22.924 2.574 7.426 1.287 14.744 3.111 21.739 5.256 6.996 2.145 13.883 4.505 20.341 7.294 6.565 2.789 13.13 5.257 19.479 7.509 12.807 4.505 25.184 8.153 36.807 11.371a472.72 472.72 0 0 0 32.717 7.83c10.116 2.038 19.264 3.433 27.443 4.184 8.18.858 15.175.965 20.986.536h.646v-.429H730Z" fill="#FF706E"/><path d="M730 443.131h-.323c-.646 0-1.399.107-2.045.107-11.3.751-27.874-1.287-47.676-5.793-19.91-4.398-43.156-11.37-68.663-20.059-6.349-2.252-12.914-4.398-19.479-6.865-6.673-2.467-13.345-4.934-20.233-7.402-13.883-5.148-29.165-7.937-44.878-7.83-7.857 0-15.605.751-23.031 1.931-3.767.643-7.426 1.394-11.085 2.145-1.83.429-3.659.858-5.489 1.395-1.829.429-3.551 1.072-5.273 1.609-7.103 2.145-13.668 5.041-20.233 7.937-6.35 3.004-12.592 6.222-18.403 9.655-1.507.858-2.906 1.716-4.413 2.467l-4.197 2.574a213.546 213.546 0 0 0-8.179 5.256c-2.691 1.717-5.274 3.433-7.964 5.042-2.583 1.609-5.274 3.218-7.857 4.613-10.439 5.899-20.555 10.512-30.241 13.623-9.686 3.11-18.834 4.719-26.798 4.612-3.982-.107-7.749-.536-11.085-1.287a52.661 52.661 0 0 1-8.825-3.111 52.563 52.563 0 0 1-3.552-1.931c-1.076-.751-2.044-1.287-2.905-1.93-.861-.644-1.615-1.288-2.368-1.824-.646-.644-1.292-1.18-1.83-1.716l-1.399-1.395c-.43-.429-.753-.751-.968-1.073l-.861-.858s.215.322.753.966c.215.322.538.643.969 1.072.323.43.753.966 1.291 1.502.538.537 1.184 1.073 1.83 1.824.753.643 1.506 1.287 2.367 1.931.861.75 1.83 1.287 2.906 2.038 1.076.643 2.26 1.394 3.552 2.038a45.587 45.587 0 0 0 8.932 3.325c3.444.858 7.211 1.395 11.3 1.502 8.18.214 17.435-1.287 27.229-4.398 9.793-3.111 20.017-7.723 30.564-13.516 2.583-1.502 5.274-3.003 7.964-4.612 2.691-1.61 5.274-3.326 7.964-5.042 2.691-1.716 5.381-3.433 8.179-5.149l4.198-2.574c1.399-.859 2.905-1.609 4.305-2.468 5.811-3.325 11.946-6.436 18.295-9.439 6.457-2.789 13.022-5.685 20.018-7.831 1.722-.536 3.444-1.18 5.273-1.609 1.83-.429 3.552-.965 5.381-1.287 3.659-.858 7.319-1.502 10.978-2.145a145.5 145.5 0 0 1 22.815-1.824c15.498-.107 30.565 2.682 44.233 7.723a2114.116 2114.116 0 0 1 20.34 7.402c6.673 2.36 13.238 4.612 19.587 6.758 25.614 8.581 48.968 15.446 68.878 19.737 19.91 4.291 36.592 6.222 47.999 5.256.754 0 1.4-.107 2.045-.107h.323v-.965H730Z" fill="#FF706E"/><path d="M730 429.937c-.861.107-1.614.214-2.583.321-5.596.43-12.592.322-20.556-.75-7.964-.966-17.004-2.682-26.797-5.042-19.695-4.72-42.726-12.229-67.91-21.132-6.349-2.253-12.807-4.505-19.371-6.865-3.337-1.18-6.673-2.36-10.117-3.433-3.444-1.072-6.888-2.252-10.547-3.003-14.313-3.218-29.488-5.256-44.986-5.149-15.497.107-30.779 2.36-44.663 7.187-13.883 4.827-26.474 11.37-37.99 18.128-2.906 1.717-5.704 3.433-8.502 5.149-2.798 1.716-5.489 3.433-8.179 5.149-5.381 3.433-10.44 6.865-15.605 9.869-10.117 6.114-20.018 11.37-29.381 15.125-9.363 3.754-18.296 6.007-26.26 6.543-3.982.215-7.748.107-11.085-.429-3.336-.536-6.349-1.395-8.932-2.467-1.292-.537-2.476-1.18-3.552-1.717-1.076-.643-2.152-1.18-3.013-1.823-.861-.644-1.722-1.18-2.476-1.716a12.741 12.741 0 0 0-1.937-1.609c-.538-.43-1.076-.966-1.399-1.288l-.968-.965c-.539-.536-.861-.751-.861-.751s.215.322.753.858c.215.322.538.644.969 1.073.43.429.861.965 1.399 1.394.538.537 1.183 1.073 1.829 1.717.754.536 1.507 1.18 2.368 1.823.861.644 1.937 1.18 3.013 1.931 1.076.644 2.368 1.18 3.659 1.824 2.583 1.18 5.704 2.038 9.148 2.681 3.444.537 7.211.751 11.301.537 8.179-.429 17.219-2.682 26.69-6.436 9.47-3.755 19.479-8.796 29.703-15.018 5.166-3.004 10.332-6.436 15.605-9.869 2.691-1.716 5.381-3.432 8.18-5.149 2.798-1.716 5.596-3.432 8.502-5.041 11.515-6.758 24.107-13.194 37.775-17.914 13.668-4.72 28.735-6.865 44.125-6.973 15.39-.107 30.457 1.824 44.663 5.042 3.551.751 6.995 1.824 10.331 2.896 3.444 1.073 6.78 2.253 10.009 3.433 6.673 2.36 13.13 4.612 19.48 6.865 25.291 8.903 48.429 16.198 68.232 20.81 9.901 2.253 18.941 3.969 27.013 4.827 8.071.858 15.067.966 20.771.429.861-.107 1.722-.214 2.475-.321v-.751H730Z" fill="#FF706E"/><path d="M496.354 408.268c-.108-.107-.216 0-.431 0-.108 0-.215.108-.43.108-.108 0-.323.107-.538.107-.754.215-1.615.107-2.799-.322-1.937-.643-3.982-1.716-5.165.644-.431.965-.539 1.716-.646 3.111 0 1.93.107 4.29.43 6.221.108.858.216 1.716.216 2.682 0 .214.107 2.145 0 2.682-.323-.322-1.722-.644-2.476-.537-1.399.107-2.583.751-3.013.966a2.476 2.476 0 0 0-1.076 2.789c.322 1.072 1.183 1.716 2.367 1.716h.538c.861-.107 1.83-.322 2.691-.644 2.906-1.394 2.583-5.256 2.26-7.938-.108-1.609-.323-3.218-.538-4.827-.108-1.394.108-1.93 1.507-1.93 1.076 0 2.152.214 3.228.107.861-.107 1.83-.429 2.476-.966.645-.536.968-1.287 1.076-1.93.43-.859.323-2.039.323-2.039Z" fill="#477E7F"/><path d="M413.916 462.761c.861 1.609 3.228 1.502 4.735.536.753-.429 1.829-1.073 2.26-1.716.753-1.073.323-2.253.215-3.433-.215-1.609-.753-3.54-1.184-5.149-.645-2.36-1.183-4.505-1.614-6.007-.215-.751-.323-1.394-.323-1.823-.107-.429 0-.537 0-.644 0 0-.107 0-.215.107a.818.818 0 0 0-.215.537c-.108.536-.108 1.18 0 1.931.107 1.609.645 3.861 1.291 6.221.323 1.502 1.184 3.325 1.184 4.827-1.292.107-2.798.322-3.982.751-1.184.429-2.26 1.502-2.152 2.789-.216.429-.108.751 0 1.073Z" fill="#325F62"/><path d="M437.485 431.975c-1.077-1.395-3.444-.751-4.736.322-.645.536-1.506 1.394-1.829 2.145-.538 1.287.107 2.253.538 3.433.538 1.501 1.507 3.325 2.152 4.827 1.076 2.252 2.045 4.183 2.798 5.578.323.751.539 1.287.754 1.716.107.429.107.536.215.644 0 0 .108 0 .215-.108.108-.107.108-.322.108-.536 0-.536-.108-1.18-.323-1.931-.43-1.609-1.399-3.647-2.475-5.792-.646-1.395-1.83-3.004-2.045-4.506 1.184-.321 2.69-.858 3.767-1.501 1.076-.751 1.937-1.824 1.614-3.218-.43-.537-.538-.859-.753-1.073Z" fill="#477E7F"/><path d="M356.769 449.245c-1.184-3.003-3.337-5.578-6.027-7.08-2.691-1.501-5.704-2.038-8.502-1.823-1.399.107-2.691.429-3.982.858-1.184.536-2.368 1.18-3.337 2.038a8.348 8.348 0 0 0-2.26 3.325v.215c-.107.322-.323.643-.323 1.18a7.315 7.315 0 0 0-.215 1.609c0 1.18.323 2.789 1.292 4.076.215.322.538.644.861.965.322.215.753.537 1.183.751.861.429 1.722.644 2.799.644.968 0 2.044-.429 2.798-.965.753-.537 1.291-1.395 1.399-2.253.215-.966 0-1.824-.323-2.467-.431-.644-.969-1.18-1.507-1.502-1.184-.644-4.089-.322-4.735-.215-.646.108-.108-2.145.43-3.003 1.615-2.253 3.982-3.325 6.565-3.647 4.951-.537 11.193 3.003 12.269 8.152 1.076 4.827-.861 10.298-5.381 13.731-1.614 1.287-3.659 2.145-5.381 2.896a27.006 27.006 0 0 1-5.058 1.931 611.2 611.2 0 0 0-6.996 1.93c-1.291.322-2.152.43-2.26 1.931 0 .537 0 .966.108 1.395a5.4 5.4 0 0 0 .538 1.716c0 .107.108.322.323.429 0 0 .108 0 .108.107h.107c.108.108.215.108.431.108.43.107.968 0 1.506 0 2.26-.108 5.597-.751 9.471-2.253a35.053 35.053 0 0 0 6.027-3.003c2.045-1.288 4.197-2.897 5.919-5.042 3.336-3.969 4.628-10.727 2.153-16.734Zm9.47.322c-1.291-.429-2.906.107-3.228 2.038-.323 3.325 3.121 3.54 4.197 1.824 1.076-1.824.323-3.433-.969-3.862Zm.215 8.903c-1.291-.429-2.905.107-3.228 2.038-.431 3.326 3.121 3.54 4.197 1.824 1.076-1.824.323-3.433-.969-3.862Zm100.196-63.288c-.323.107-1.076.536-2.152.965-.754.322-1.615.537-2.691.858-1.076.215-2.26.537-3.444.858-2.367.751-4.52 1.61-6.027 2.575-.538.322-2.583 1.287-2.583 1.931 0 .536.323 1.394.539 2.145.43 1.609 1.399 3.647 2.367 5.9.861 1.716 1.615 3.325 2.153 4.72-.861-.108-1.722.107-2.583.536a7.386 7.386 0 0 0-2.476 2.038c-.645.751-.645 2.038 0 2.896.646.859 1.722 1.18 2.799.751.107-.107.323-.107.43-.214.753-.429 3.229-1.824 3.336-3.969.108-1.18-.538-2.253-.968-3.326-.538-1.394-1.076-2.681-1.722-3.968-.215-.537-1.184-2.897-1.399-3.326.43-.214.968-.429 1.722-.858a34.798 34.798 0 0 1 5.811-2.467c1.184-.322 2.368-.644 3.444-.966a13.649 13.649 0 0 0 2.798-1.179c.646-.43 1.184-.751 1.507-1.073.538 1.073 1.83 4.183 2.368 5.363 1.184 2.467 2.367 4.72 3.121 6.436-.861 0-1.615.108-2.476.537a7.379 7.379 0 0 0-2.475 2.038c-.646.751-.646 2.038 0 3.003.646.858 1.722 1.18 2.798.751.108-.107.323-.107.538-.214.754-.429 1.615-.966 2.153-1.609 1.937-2.146 1.291-3.218-.538-7.295-.646-1.394-1.184-2.789-1.937-4.183a975.685 975.685 0 0 1-3.229-6.758c-.431-.858-.969-2.145-1.184-2.896.108-.107.215-.107 0 0Z" fill="#325F62"/><path d="M398.31 436.373c-.322.107-1.076.536-2.152.858-.753.214-1.614.429-2.691.643-1.076.215-2.26.43-3.443.751-2.476.644-4.628 1.395-6.135 2.253-.538.322-2.583 1.18-2.69 1.824 0 .536.215 1.394.43 2.252.431 1.609 1.184 3.755 2.045 6.007a227.814 227.814 0 0 1 1.937 4.827 4.419 4.419 0 0 0-2.583.429c-1.291.537-2.26 1.502-2.583 1.824-.753.751-.753 2.038-.107 2.896.645.966 1.722 1.287 2.798.858.107-.107.323-.107.538-.214.753-.322 3.229-1.609 3.551-3.755.108-1.18-.43-2.252-.753-3.325-.43-1.394-.969-2.682-1.507-4.076-.215-.536-.43-.966-.645-1.502.43-.107.968-.429 1.722-.751 1.506-.643 3.551-1.609 5.919-2.145 1.184-.322 2.367-.537 3.444-.858 1.076-.215 2.044-.644 2.798-.966.753-.322 1.184-.751 1.614-1.072.431 1.072.969 2.359 1.507 3.647a414.218 414.218 0 0 0 2.798 6.543c-.861-.107-1.614.107-2.583.429-1.291.537-2.26 1.502-2.583 1.824-.753.751-.753 2.038-.107 3.003.645.966 1.721 1.287 2.798.858.107-.107.323-.107.538-.214.861-.322 1.614-.858 2.26-1.502 2.045-2.038 1.507-3.111-.215-7.294-.539-1.395-1.077-2.789-1.722-4.184-1.184-2.789-2.045-5.149-2.799-6.865-.43-.858-.86-2.252-1.076-3.003-.215-.108-.323-.108-.323 0Z" fill="#477E7F"/><path d="M524.443 405.479c-.323-1.716-2.798-2.252-4.413-1.823-.861.214-2.044.536-2.69 1.073-1.076.858-.969 2.038-1.076 3.325-.216 1.609-.216 3.647-.323 5.256-.108 2.467 0 4.613-.108 6.222 0 .75-.107 1.394-.107 1.823-.108.429-.216.537-.108.644h.215c.108-.107.323-.215.431-.429.215-.429.43-1.073.538-1.931.323-1.609.43-3.862.538-6.329 0-1.502-.215-3.54.215-4.934 1.292.214 2.691.429 3.982.322 1.292-.108 2.583-.751 2.906-2.146v-1.073Z" fill="#325F62"/><path d="M545.859 395.074c-.322-1.716-2.798-2.252-4.412-1.823-.861.214-2.045.536-2.69 1.073-1.077.858-.969 2.038-1.077 3.325-.215 1.609-.215 3.647-.323 5.256-.107 2.467 0 4.613-.107 6.222 0 .75-.108 1.394-.108 1.823-.107.429-.215.537-.107.644h.215c.107-.107.323-.215.43-.429.216-.429.431-1.073.538-1.931.323-1.609.431-3.862.539-6.329 0-1.502-.216-3.54.215-4.934 1.291.214 2.69.429 3.982.321 1.291-.107 2.583-.75 2.905-2.145.108-.429.108-.751 0-1.073Z" fill="#477E7F"/><path d="M570.182 410.95c-.108-.107-.215 0-.431 0-.107 0-.215.107-.43.107-.108 0-.323.108-.538.108-.753.214-1.614.107-2.798-.322-1.937-.644-3.982-1.716-5.166.643-.431.966-.538 1.717-.646 3.111 0 1.931.108 4.291.431 6.222.107.858.215 1.716.215 2.681 0 .215.108 2.146 0 2.682-.323-.322-1.722-.643-2.475-.536-1.399.107-2.583.751-3.014.965a2.477 2.477 0 0 0-1.076 2.789c.323 1.073 1.184 1.717 2.368 1.717h.538a12.29 12.29 0 0 0 2.69-.644c2.906-1.395 2.583-5.256 2.26-7.938-.107-1.609-.323-3.218-.538-4.827-.107-1.394.108-1.931 1.507-1.931 1.076 0 2.152.215 3.229.107.861-.107 1.829-.429 2.475-.965.646-.536.968-1.287 1.076-1.931.431-.751.431-1.931.323-2.038Z" fill="#325F62"/><path d="M607.634 424.788c-.107-1.073-.968-1.931-2.152-2.038h-.538c-.861 0-3.659 0-4.843 1.823-.646.966-.646 2.253-.754 3.326-.215 1.394-.43 8.688-.538 10.083 0 .536-.107 3.54-.107 4.076-.431-.107-1.077-.107-1.83-.107-1.614 0-3.874-.107-6.242-.644-1.184-.214-2.368-.536-3.444-.751-1.076-.214-2.152-.321-3.013-.321-.646 0-1.184.107-1.615.214.108-2.253.216-6.865.431-8.367.646.429 1.507.644 2.475.751 1.399.107 2.691-.322 3.121-.536.969-.322 1.615-1.502 1.399-2.575-.107-1.072-.968-1.931-2.152-2.038h-.538c-.861 0-1.83 0-2.691.322-2.69.858-2.69 2.145-3.013 6.651l-.323 4.505c-.43 3.218-.753 5.685-.753 5.9.107.107 0 .107.538.214.43.107.861 0 1.937.215.753.107 1.614.214 2.69.321 1.077.108 2.153.43 3.444.751 2.476.537 4.736.751 6.458.644.538 0 3.444.107 3.766-.429.216-.429.216-1.073.323-1.931.215-1.609.323-4.076.538-6.436.108-1.931.323-9.547.538-10.941.754.429 1.615.75 2.476.75 1.399.108 2.69-.321 3.121-.536a3.243 3.243 0 0 0 1.291-2.896Z" fill="#477E7F"/><path d="M576.532 405.908c.215 1.717 2.475 2.575 4.197 2.253.861-.107 2.045-.322 2.798-.751 1.076-.751 1.184-1.931 1.399-3.111.323-1.609.646-3.539.861-5.256.323-2.467.538-4.612.753-6.221.108-.751.216-1.395.323-1.824.108-.429.216-.536.216-.643 0 0-.108-.108-.216 0-.107.107-.323.214-.43.429-.323.429-.538 1.072-.754 1.823-.43 1.609-.86 3.755-1.183 6.222-.216 1.502-.108 3.54-.754 4.934-1.184-.322-2.69-.751-3.982-.751-1.291 0-2.583.537-3.121 1.824-.107.429-.215.751-.107 1.072Z" fill="#325F62"/><path d="M636.907 418.888c-.107-.107-.215 0-.43 0-.108 0-.215.107-.431.107-.107 0-.323.108-.538.108-.753.214-1.614.107-2.798-.322-1.937-.644-3.982-1.716-5.166.643-.43.966-.538 1.717-.645 3.111 0 1.931.107 4.291.43 6.222.108.858.215 1.716.215 2.681 0 .215.108 2.146 0 2.682-.323-.322-1.722-.643-2.475-.536-1.399.107-2.583.751-3.013.965a2.478 2.478 0 0 0-1.077 2.789c.323 1.073 1.184 1.717 2.368 1.717h.538a12.3 12.3 0 0 0 2.691-.644c2.905-1.395 2.583-5.256 2.26-7.938-.108-1.609-.323-3.218-.538-4.827-.108-1.395.107-1.931 1.506-1.931 1.077 0 2.153.215 3.229.107.861-.107 1.83-.429 2.475-.965.646-.536.969-1.287 1.076-1.931.431-.858.323-2.038.323-2.038Z" fill="#477E7F"/><path d="M604.836 282.073c-.215.321-.538.858-.861 1.287-.323.536-.646 1.18-1.184 1.823-1.829 2.789-4.843 6.544-9.47 10.727-1.184 1.073-2.476 2.038-3.767 3.111-.753.536-1.399 1.073-2.153 1.502-.322.214-.753.536-1.076.751-.43.214-.753.536-1.184.751-3.121 2.145-6.887 4.076-10.869 5.899-8.072 3.648-17.866 6.651-28.843 8.475-11.085 1.823-23.354 2.467-36.484 1.394-6.565-.536-13.345-1.502-20.125-3.111l-5.166-1.287c-1.722-.536-3.444-.965-5.165-1.502-3.444-1.072-6.888-2.36-10.332-3.647-13.991-4.934-28.735-10.19-44.448-14.374-15.713-4.183-32.179-7.294-49.291-9.332-17.111-1.824-34.008-1.502-50.151-.215-16.143 1.288-31.641 4.077-46.062 8.045-14.421 3.862-27.767 8.367-40.143 13.194-12.376 4.828-23.569 9.869-33.578 15.018-4.52 2.467-8.61 4.72-12.484 7.08v1.394c4.09-2.36 8.394-4.72 13.022-7.079a358.6 358.6 0 0 1 33.578-14.803 417.712 417.712 0 0 1 40.035-12.98c14.314-3.969 29.596-6.543 45.739-7.831 16.036-1.287 32.825-1.609 49.829.215 17.004 2.038 33.471 5.042 48.968 9.225 15.605 4.184 30.242 9.332 44.34 14.267 3.552 1.18 6.888 2.467 10.439 3.647 1.722.643 3.444 1.073 5.166 1.502l5.166 1.287c6.888 1.502 13.776 2.467 20.341 3.003 13.237 1.073 25.721.322 36.806-1.609 11.085-1.93 20.986-5.041 29.058-8.796 4.09-1.93 7.749-3.969 10.87-6.114.43-.215.753-.536 1.184-.751.43-.322.753-.536 1.076-.858.753-.536 1.506-1.073 2.152-1.609 1.292-1.18 2.691-2.145 3.767-3.218 4.628-4.291 7.641-8.26 9.363-11.049.43-.643.861-1.287 1.076-1.931.323-.536.538-.965.754-1.394.43-.751.538-1.18.538-1.18.323 0 0 .322-.431 1.073Z" fill="#82BAB0"/><path d="M604.944 289.689c-.215.322-.538.858-.861 1.287-.323.536-.646 1.18-1.184 1.824-1.83 2.789-4.843 6.543-9.471 10.726-1.184 1.073-2.475 2.038-3.766 3.111-.754.537-1.4 1.073-2.153 1.609a7.623 7.623 0 0 0-1.076.858c-.431.215-.753.537-1.184.751-3.121 2.146-6.78 4.076-10.87 5.9-8.071 3.647-17.757 6.758-28.842 8.581-10.978 1.824-23.354 2.468-36.484 1.395-6.565-.536-13.237-1.502-20.125-3.111-3.444-.858-6.78-1.716-10.224-2.896-3.444-1.073-6.888-2.36-10.44-3.54-6.995-2.36-14.206-4.827-21.739-7.08-3.659-1.18-7.534-2.252-11.3-3.325-3.875-1.073-7.641-2.145-11.623-3.111a291.051 291.051 0 0 0-24.108-5.149c-8.287-1.501-16.681-2.467-25.291-3.11-8.609-.644-17.112-.751-25.506-.43-8.395.215-16.681 1.395-24.645 2.682-15.928 2.789-31.211 6.329-45.309 11.371-13.883 5.041-26.905 10.512-38.959 15.983a435.818 435.818 0 0 0-32.717 16.841c-5.381 3.111-10.439 6.221-15.067 9.332v1.395c4.843-3.218 10.116-6.436 15.82-9.655 9.794-5.47 20.664-11.155 32.717-16.626 12.054-5.471 25.076-10.834 39.067-15.661 13.991-4.935 29.165-8.367 45.093-11.156 7.964-1.287 16.036-2.467 24.323-2.682 8.287-.322 16.789-.214 25.291.429 8.502.644 16.896 1.609 25.076 3.111a326.489 326.489 0 0 1 23.999 5.042c3.875.965 7.749 2.038 11.623 3.003 3.767 1.073 7.534 2.145 11.301 3.325 7.426 2.253 14.636 4.613 21.632 6.973 3.551 1.18 6.887 2.467 10.439 3.54 3.444 1.18 6.995 2.038 10.439 2.896 6.888 1.502 13.776 2.467 20.341 3.003 13.237 1.073 25.721.322 36.806-1.609 11.085-1.93 20.879-5.041 29.058-8.903 3.982-1.931 7.749-3.969 10.87-6.114.43-.215.753-.537 1.184-.751.43-.322.753-.536 1.076-.858.753-.537 1.507-1.073 2.152-1.609 1.292-1.18 2.691-2.146 3.767-3.218 4.628-4.291 7.534-8.26 9.255-11.049.431-.644.861-1.287 1.077-1.931.323-.536.538-.965.753-1.394.431-.751.538-1.18.538-1.18 0 .107-.323.536-.753 1.18Z" fill="#82BAB0"/><path d="M605.051 297.305c-.215.322-.538.751-.861 1.287-.322.536-.645 1.18-1.183 1.824a55.735 55.735 0 0 1-9.363 10.619c-4.521 4.184-10.87 8.367-18.727 12.122-7.964 3.647-17.542 6.758-28.412 8.581-10.869 1.824-23.031 2.575-35.945 1.609-6.458-.536-13.13-1.394-19.803-2.896-3.336-.751-6.78-1.609-10.116-2.682-3.336-1.073-6.78-2.253-10.332-3.325-3.444-1.18-6.995-2.253-10.547-3.433-3.659-.965-7.318-2.038-10.977-3.003-1.83-.537-3.659-1.073-5.596-1.502-1.938-.429-3.767-.858-5.704-1.287l-5.812-1.287c-1.937-.43-3.874-.859-5.811-1.18-3.982-.644-7.964-1.395-11.946-2.039-2.045-.429-3.982-.536-6.027-.858-2.045-.214-4.09-.429-6.135-.751-2.044-.214-4.089-.429-6.134-.75-2.045-.108-4.197-.215-6.242-.43-2.045-.107-4.197-.214-6.242-.429-2.153-.107-4.197-.321-6.35-.214-4.197 0-8.502-.107-12.592-.107-2.044-.108-4.197.107-6.242.214-2.044.107-4.197.215-6.242.322-8.287.214-16.358 1.073-24.322 2.467-7.856 1.395-15.605 3.218-22.924 5.578-7.318 2.467-14.313 5.149-21.093 7.831-27.336 10.834-51.228 22.419-70.062 34.004-8.072 5.041-15.175 9.976-21.309 14.91v1.395c6.242-4.935 13.668-9.976 21.955-15.125 18.941-11.478 42.726-22.848 69.954-33.575 6.78-2.682 13.883-5.364 21.094-7.724 7.21-2.36 14.851-4.183 22.6-5.47 7.856-1.288 15.82-2.253 24.107-2.468 2.045-.107 4.09-.214 6.135-.214 2.045-.107 4.089-.215 6.242-.215 4.197 0 8.394.108 12.592.108 2.152 0 4.197.107 6.242.214 2.044.107 4.197.215 6.242.429 2.044.108 4.197.215 6.242.429 2.044.215 4.089.429 6.134.751 2.045.215 4.09.429 6.135.751 2.044.215 4.089.429 6.026.858 3.982.644 7.964 1.395 11.839 2.038 1.937.322 3.874.751 5.811 1.18 1.937.429 3.875.858 5.704 1.288 1.937.429 3.767.858 5.704 1.287 1.83.429 3.767.965 5.596 1.502 3.66.965 7.319 2.038 10.978 3.003 3.551 1.18 7.103 2.253 10.547 3.433 3.444 1.18 6.888 2.252 10.331 3.325 3.444.965 6.888 1.931 10.332 2.682 6.78 1.501 13.56 2.36 20.125 2.789a147.11 147.11 0 0 0 36.269-1.824c10.977-1.931 20.663-5.149 28.627-8.903 7.964-3.862 14.314-8.26 18.834-12.551 4.52-4.29 7.426-8.152 9.148-10.941.43-.644.861-1.287 1.076-1.824.323-.536.538-.965.753-1.394.431-.751.538-1.073.538-1.18-.215-.322-.43.107-.861.751Z" fill="#82BAB0"/><path d="M605.697 305.243c-.215.321-.43.75-.753 1.287-.323.536-.646 1.18-1.184 1.823-1.83 2.682-4.735 6.436-9.148 10.513-1.076 1.072-2.368 2.038-3.659 3.11-.646.537-1.399.966-2.045 1.502-.753.537-1.399 1.073-2.26 1.609a103.194 103.194 0 0 1-10.439 6.007c-3.875 1.824-8.179 3.54-12.915 5.149-4.627 1.502-9.686 2.789-15.067 3.862-10.654 2.038-22.708 3.003-35.515 2.36-6.35-.322-13.022-1.073-19.695-2.36-3.336-.644-6.672-1.395-10.116-2.36-1.722-.429-3.336-.965-5.058-1.502-1.722-.536-3.444-1.18-5.058-1.716-6.888-2.36-13.991-4.505-21.31-6.543-7.318-1.931-14.851-3.755-22.708-5.149-7.748-1.395-15.712-2.575-23.892-3.326-8.179-.643-16.466-1.18-24.753-.965-2.044 0-4.197.107-6.242.214-2.044.108-4.197.108-6.242.322-2.044.215-4.089.322-6.134.429l-6.135.644c-2.044.214-4.089.536-6.026.858-2.045.322-3.982.536-6.027.965-3.982.751-7.857 1.717-11.731 2.682-15.282 4.076-29.703 9.011-43.156 14.374-26.905 10.62-50.259 22.848-68.232 35.399-8.933 6.329-16.574 12.765-22.708 18.986a70.04 70.04 0 0 0-5.489 6.115v1.394c1.83-2.253 3.982-4.505 6.242-6.758 6.134-6.114 13.776-12.443 22.708-18.665 17.973-12.443 41.219-24.457 68.125-34.969 13.452-5.256 27.874-10.191 43.048-14.16 3.767-.965 7.641-1.93 11.516-2.681 1.937-.429 3.982-.644 5.919-.966 2.045-.321 3.982-.643 6.027-.858 2.045-.214 4.089-.429 6.027-.643 2.044-.215 4.089-.322 6.134-.429 2.045-.215 4.09-.215 6.134-.322 2.045 0 4.09-.215 6.242-.215 8.287-.107 16.574.322 24.646.966 8.071.643 15.928 1.93 23.676 3.218 7.749 1.394 15.283 3.218 22.493 5.041 7.319 2.038 14.422 4.076 21.202 6.436 3.444 1.073 6.888 2.36 10.224 3.218 3.444.966 6.888 1.717 10.224 2.36 6.78 1.288 13.453 1.931 19.91 2.253 12.914.536 25.076-.429 35.838-2.682 5.381-1.072 10.439-2.467 15.175-3.969 4.735-1.609 9.04-3.432 12.914-5.256 3.874-1.931 7.426-4.076 10.547-6.114l2.26-1.609c.753-.536 1.399-1.073 2.045-1.609 1.291-1.073 2.583-2.146 3.659-3.218 4.412-4.184 7.318-8.153 9.04-10.834.431-.644.754-1.288 1.076-1.824.323-.536.539-.965.754-1.394.43-.751.538-1.073.538-1.073s-.215.322-.646 1.073Z" fill="#82BAB0"/><path d="M605.805 315.433c-.431.644-.969 1.716-1.937 3.111-1.722 2.682-4.628 6.436-9.148 10.512-2.26 2.038-4.843 4.076-7.857 6.222-3.121 2.038-6.565 4.076-10.331 5.9-3.875 1.823-8.18 3.647-12.807 5.148-4.628 1.502-9.686 2.789-14.96 3.862-10.654 2.145-22.493 3.111-35.299 2.467-12.7-.643-26.26-2.789-39.713-7.616-1.722-.536-3.444-1.18-5.166-1.716-1.722-.536-3.551-1.073-5.273-1.609-3.552-1.073-7.103-2.038-10.762-3.004-7.319-1.823-14.852-3.432-22.601-4.719a248.075 248.075 0 0 0-48.429-2.897 260.652 260.652 0 0 0-24.538 2.146c-2.045.214-3.982.643-6.027.858-1.937.322-3.982.536-5.919.965-3.982.751-7.749 1.824-11.516 2.896-7.533 2.253-14.744 4.935-21.847 7.724-6.995 2.789-13.775 5.685-20.34 8.796-26.045 12.336-48.215 26.066-65.111 39.904-8.395 6.865-15.498 13.837-21.202 20.381-2.798 3.218-5.273 6.543-7.426 9.547-.968 1.501-2.044 3.003-2.905 4.398-.861 1.501-1.615 2.896-2.368 4.183l-.323.644v1.501c.323-.536.538-1.18.969-1.716.753-1.287 1.614-2.682 2.367-4.076.969-1.395 1.937-2.896 3.014-4.398 2.152-3.004 4.627-6.114 7.426-9.332 5.703-6.437 12.807-13.194 21.201-20.06 16.897-13.73 39.067-27.353 65.111-39.582 6.457-3.003 13.237-5.899 20.233-8.688 6.995-2.789 14.206-5.364 21.632-7.616 3.767-1.073 7.533-2.146 11.408-2.897 1.937-.429 3.874-.643 5.919-.965 1.937-.322 3.982-.644 5.919-.858 7.964-1.073 16.143-1.717 24.43-2.146a244.27 244.27 0 0 1 48.107 2.897c7.749 1.18 15.175 2.896 22.493 4.612 3.659.966 7.21 1.824 10.762 3.004 1.722.536 3.552 1.072 5.273 1.609 1.722.536 3.444 1.18 5.166 1.716 13.668 4.934 27.336 7.08 40.251 7.616 12.807.536 24.86-.536 35.515-2.789a113.776 113.776 0 0 0 15.067-4.076 109.318 109.318 0 0 0 12.807-5.364c3.874-1.93 7.318-4.076 10.439-6.114 3.014-2.145 5.704-4.291 7.856-6.436 4.413-4.183 7.319-8.045 8.933-10.834.861-1.287 1.399-2.467 1.83-3.218.43-.751.538-1.073.538-1.073-.108.107-.431.429-.861 1.18Z" fill="#82BAB0"/><path d="M291.335 333.991c-1.184-1.609-2.798-3.004-4.628-3.862-1.399-.644-3.013-.751-4.413-.322-1.399.429-2.582 1.18-3.443 2.038-.861.858-1.4 1.717-1.83 2.789-.43-.429-.969-.858-1.399-1.18-1.722-1.501-3.552-3.11-5.381-4.827l-.538-.536c.215-1.395.323-2.682.538-4.076.323-3.004.646-6.007.215-9.225a18.1 18.1 0 0 0-1.291-4.72c-.646-1.502-1.615-2.896-2.906-3.969-.646-.536-1.399-1.073-2.26-1.395-.861-.321-1.937-.429-2.906-.107-.969.322-1.722.966-2.26 1.609-.538.644-1.076 1.287-1.399 2.145-.646 1.717-.431 3.433-.108 4.828.431 1.501.969 2.896 1.615 4.076 1.291 2.574 3.013 4.827 4.627 6.865.861 1.073 1.722 2.038 2.476 3.003.215.322.538.644.753.859-.108.429-.215.965-.323 1.394-.43 2.145-.861 4.505-1.076 7.08-.215 2.467-.108 5.149.753 7.723a13.819 13.819 0 0 0 4.52 6.436c3.767 3.433 10.224 3.326 14.637 1.18 1.076-.536 2.26-1.287 3.229-2.145.43.536.753 1.073 1.183 1.609.646 1.073 1.292 2.038 1.615 3.003.107.108.107.215.107.322 0 .107.108.215 0 .215v.107l-.107.107c-.108.108-.323.215-.538.322a5.618 5.618 0 0 0-1.722.644c-.538.214-.969.429-1.292.751-.323.214-.646.536-.861.75a3.3 3.3 0 0 0-.538.751l-.323.644c0 .107-.107.214-.107.322-.646 1.072-.431 2.467.43 3.432.861.966 2.368 1.073 3.444.537 1.291-.537 2.26-1.502 2.906-2.682 1.184-2.038 1.399-4.398.753-6.651-.323-1.18-.861-2.252-1.399-3.325-.538-.965-1.184-1.824-1.83-2.789.646-.858 1.077-1.716 1.4-2.467 1.399-2.896 1.937-6.114.753-9.225-.108-.215-.108-.322-.215-.537-.108-.321-.431-.858-.861-1.501Zm-30.35-17.7c-.645-1.18-1.076-2.36-1.399-3.647-.323-1.18-.323-2.467 0-3.54.861-2.36 3.229-3.003 5.166-1.394.108.214.861.858 1.507 2.36.753 1.716 1.399 4.398 1.614 7.723 0 .429.108.858.108 1.287v1.288c0 .858 0 1.823-.215 2.789a91.76 91.76 0 0 0-.323 2.145c-.754-.858-1.399-1.716-2.153-2.575-1.506-1.93-3.121-4.076-4.305-6.436Zm17.435 32.932c-1.076-.107-2.26-.429-3.229-.966a8.685 8.685 0 0 1-2.582-2.252c-1.507-1.824-2.153-4.291-2.368-6.973-.215-2.36 0-4.72.215-7.187.753.751 2.045 1.824 3.767 3.218.753.537 1.507 1.288 2.26 2.038v.859c.108 1.93.753 3.325 1.507 4.183.215.322.645.536.968.751 1.292.644.108-.965-.107-1.395a6.233 6.233 0 0 1-.646-2.789c.323.215.646.537.968.859.969.858 1.83 1.823 2.799 2.681.43.429.968.966 1.506 1.395.431.536.969 1.072 1.399 1.609.431.536.969 1.073 1.399 1.609l.323.322c-.43.321-.968.643-1.829 1.072-2.045.966-4.09 1.288-6.35.966Zm12.269-8.582c-.108 1.824-1.076 3.647-2.26 4.827a42.149 42.149 0 0 0-3.014-3.325c-2.044-2.038-4.304-4.183-6.672-6.222 0-.107 0-.107.108-.214 0-.215.215-.429.322-.644l.323-.643c.538-.858 1.399-1.609 2.583-2.038 1.184-.429 2.583-.322 3.875.214 1.291.644 2.475 1.716 3.443 3.111.754 1.394 1.4 3.111 1.292 4.934Z" fill="#E75B5A"/><path d="M557.052 306.315c-.107-.107-.215-.107-.43 0-.108 0-.216.108-.431.108-.107 0-.323.107-.538.107-.753.214-1.722.107-2.906-.322-1.937-.751-3.982-1.824-5.273.536-.431.966-.646 1.824-.646 3.111-.107 2.038.108 4.398.323 6.436.108.858.108 1.824.215 2.682 0 .215.108 2.145 0 2.789-.323-.322-1.722-.644-2.475-.644-1.399.108-2.691.644-3.121.966-.969.536-1.399 1.609-1.184 2.789.215 1.072 1.184 1.823 2.368 1.823h.538c.861-.107 1.937-.214 2.69-.643 2.906-1.395 2.691-5.256 2.476-8.045-.108-1.609-.323-3.326-.431-4.935-.107-1.394.108-1.931 1.615-1.931 1.076 0 2.26.215 3.336.108.968-.108 1.937-.322 2.583-.966.753-.536.968-1.394 1.184-1.931.215-.858.107-2.038.107-2.038Z" fill="#FCA7A7"/><path d="M336.536 299.021c.323 1.716 2.798 2.36 4.52 1.824.861-.215 2.045-.537 2.69-1.073 1.077-.858.969-2.038 1.077-3.325.215-1.717.215-3.755.215-5.364v-6.329c0-.858.107-1.501.107-1.823.108-.429.216-.537.108-.644h-.215c-.108.107-.323.215-.431.429-.215.429-.43 1.073-.538 1.931-.323 1.609-.43 3.969-.43 6.436 0 1.502.323 3.54-.108 5.042-1.291-.215-2.798-.429-4.09-.322-1.291.107-2.582.858-2.905 2.145a1.817 1.817 0 0 0 0 1.073Z" fill="#E75B5A"/><path d="M338.796 321.869c-.431-1.502-2.906-1.931-4.52-1.502-.861.215-2.045.537-2.691 1.073-1.076.751-.968 1.824-1.076 2.896-.108 1.395-.108 3.218-.108 4.613 0 2.145.108 4.076.108 5.471 0 .643 0 1.287-.108 1.609 0 .321-.215.536-.107.536h.215c.108-.107.323-.215.43-.429a5.38 5.38 0 0 0 .539-1.716c.215-1.395.322-3.326.322-5.471 0-1.287-.323-3.004 0-4.291 1.292.215 2.799.322 4.09.107 1.291-.107 2.583-.75 2.906-1.93.107-.429.107-.751 0-.966Z" fill="#FCA7A7"/><path d="M317.056 291.298c-.43 0-1.184.214-2.367.214-.861 0-1.722 0-2.799-.107-1.076-.107-2.26-.214-3.659-.322-2.583-.107-4.95.108-6.565.429-.538.108-2.905.429-3.121 1.073-.215.536-.215 1.502-.215 2.253-.108 1.716.108 3.969.323 6.436.215 1.931.43 3.754.538 5.256-.753-.322-1.722-.429-2.69-.322-1.4.215-2.583.858-3.014 1.073-.861.536-1.291 1.716-.968 2.896.322 1.073 1.291 1.716 2.475 1.609.215 0 .323 0 .538-.107.861-.107 3.659-.644 4.52-2.682.431-1.073.215-2.36.215-3.54 0-1.501-.107-2.896-.323-4.398-.107-.536-.215-3.11-.322-3.647.43 0 1.076-.107 1.829-.214 1.614-.215 3.874-.537 6.35-.429 1.291 0 2.475.107 3.551.214 1.076 0 2.153 0 3.014-.214.753-.108 1.399-.322 1.829-.537.108 1.18.323 4.613.538 6.007.323 2.789.646 5.364.861 7.187-.753-.322-1.614-.429-2.583-.322-1.399.215-2.583.859-3.013 1.073-.861.536-1.291 1.716-.969 2.896.323 1.073 1.292 1.717 2.476 1.609.215 0 .323 0 .538-.107.861-.107 1.829-.322 2.69-.858 2.583-1.395 2.368-2.682 1.83-7.187-.108-1.502-.215-3.111-.431-4.613-.322-3.003-.538-5.578-.861-7.508-.107-.966-.215-2.468-.107-3.218.107.107 0 .107-.108.107Z" fill="#E75B5A"/><path d="M443.511 293.872c-.107-.107-.215 0-.43 0-.108 0-.215.107-.43.215-.108 0-.323.107-.539.214-.753.215-1.722.215-2.905-.214-2.045-.644-4.09-1.609-5.166.858-.431.965-.538 1.823-.538 3.111 0 2.038.323 4.398.538 6.328.107.859.215 1.824.323 2.682 0 .215.215 2.146.107 2.789-.323-.322-1.722-.643-2.583-.536-1.399.214-2.583.858-3.013 1.072-.861.537-1.291 1.717-.969 2.897.323 1.072 1.292 1.716 2.476 1.716h.538c.861-.107 1.829-.322 2.69-.751 2.906-1.502 2.476-5.471 2.153-8.152-.215-1.609-.431-3.326-.646-4.935-.215-1.394 0-1.93 1.507-1.93 1.076 0 2.26.107 3.336 0 .969-.108 1.83-.429 2.583-1.073a3.783 3.783 0 0 0 1.076-2.038c0-1.073 0-2.253-.108-2.253Zm-54.456 2.789c-.215-1.18-1.076-1.931-2.26-2.038h-.538c-.861 0-3.767.107-4.951 2.038-.645.966-.538 2.36-.753 3.433-.215 1.501-.215 8.903-.323 10.405v4.183h-1.937c-1.722 0-3.982 0-6.457-.429-1.184-.214-2.368-.536-3.552-.751-1.076-.214-2.152-.322-3.013-.214-.646 0-1.184.107-1.615.214.108-2.36.108-6.972.216-8.581.753.429 1.614.643 2.582.643 1.4 0 2.691-.429 3.229-.643.969-.429 1.507-1.502 1.399-2.682-.215-1.073-1.076-1.931-2.26-2.038h-.538c-.861 0-1.937.107-2.798.429-2.691.965-2.691 2.253-2.906 6.865-.108 1.502-.108 3.111-.215 4.613-.323 3.325-.646 5.792-.538 6.007.107.107 0 .107.538.214.43 0 .861 0 2.045.108.753.107 1.614.107 2.798.214 1.076.107 2.26.429 3.551.644 2.583.429 4.843.643 6.565.536.538 0 3.552 0 3.875-.536.215-.429.107-1.073.215-2.038.107-1.717.215-4.184.323-6.651.107-1.931.107-9.761.215-11.263.753.429 1.614.643 2.583.751 1.399 0 2.69-.429 3.229-.644.861-.429 1.399-1.609 1.291-2.789Z" fill="#FCA7A7"/><path d="M463.206 323.586c-.107-.108-.215 0-.43 0-.108 0-.215.107-.431.214-.107 0-.323.107-.538.215-.753.214-1.722.214-2.906-.215-2.044-.644-4.089-1.609-5.165.858-.431.966-.539 1.824-.539 3.111 0 2.038.323 4.398.539 6.329.107.858.215 1.823.322 2.682 0 .214.216 2.145.108 2.789-.323-.322-1.722-.644-2.583-.537-1.399.215-2.583.858-3.013 1.073-.861.536-1.292 1.716-.969 2.896.323 1.073 1.292 1.716 2.475 1.716h.539c.861-.107 1.829-.321 2.69-.75 2.906-1.502 2.475-5.471 2.152-8.153-.215-1.609-.43-3.325-.645-4.934-.215-1.395 0-1.931 1.506-1.931 1.077 0 2.261.107 3.337 0 .968-.107 1.829-.429 2.583-1.073a3.79 3.79 0 0 0 1.076-2.038c0-.965-.108-2.145-.108-2.252Zm-51.873-15.983c-.431-1.717-2.906-2.253-4.52-1.717-.861.215-2.045.537-2.691 1.18-1.076.966-.861 2.038-.969 3.326-.107 1.716-.107 3.754-.107 5.363 0 2.467.107 4.72.107 6.329 0 .751 0 1.502-.107 1.823 0 .429-.215.537-.108.644h.215c.108-.107.323-.215.431-.429.215-.429.43-1.18.538-1.931.215-1.716.323-3.969.323-6.436 0-1.502-.323-3.54 0-5.042 1.291.215 2.798.429 4.089.215 1.292-.215 2.583-.858 2.906-2.253-.107-.429-.107-.751-.107-1.072Zm122.688 21.99c-.43-1.717-2.906-2.253-4.52-1.717-.861.215-2.045.644-2.69 1.18-1.077.966-.861 2.038-.969 3.326-.108 1.716-.108 3.754-.108 5.363 0 2.467.108 4.72.108 6.329 0 .751 0 1.502-.108 1.823 0 .429-.215.537-.107.644h.215c.108-.107.323-.215.43-.429.216-.429.431-1.18.539-1.931.215-1.716.322-3.969.322-6.436 0-1.502-.322-3.54 0-5.042 1.292.215 2.799.429 4.09.215 1.292-.215 2.583-.858 2.906-2.253 0-.322 0-.643-.108-1.072Zm-36.268-27.89c-.431 0-1.184.214-2.368.214-.861 0-1.722 0-2.798-.107s-2.26-.214-3.659-.322c-2.583-.107-4.951.108-6.565.429-.538.108-2.906.43-3.121 1.073-.215.536-.215 1.502-.215 2.253-.108 1.716.107 3.969.322 6.436.216 1.931.431 3.754.539 5.256-.754-.322-1.722-.429-2.691-.322-1.399.215-2.583.858-3.013 1.073-.861.536-1.292 1.716-.969 2.896.323 1.073 1.292 1.716 2.475 1.609.216 0 .323 0 .538-.107.861-.107 3.66-.644 4.521-2.682.43-1.072.215-2.36.215-3.54 0-1.501-.108-2.896-.323-4.398-.108-.536-.215-3.11-.323-3.647.431 0 1.076-.107 1.937-.214 1.615-.215 3.875-.537 6.458-.429 1.291 0 2.475.107 3.551.214 1.076 0 2.152 0 3.013-.214.754-.108 1.4-.322 1.83-.537.108 1.18.323 4.613.538 6.007.323 2.789.646 5.364.861 7.187-.753-.322-1.614-.429-2.583-.322-1.399.215-2.583.859-3.013 1.073-.861.536-1.292 1.716-.969 2.896.323 1.073 1.292 1.717 2.475 1.609.216 0 .323 0 .539-.107.861-.107 1.829-.322 2.69-.858 2.583-1.394 2.368-2.682 1.83-7.187-.108-1.502-.216-3.111-.431-4.613-.323-3.003-.538-5.577-.861-7.508-.107-.966-.215-2.467-.107-3.218-.108.107-.216.107-.323.107Z" fill="#E75B5A"/><path d="M497.645 344.396c.431 1.716 2.906 2.252 4.52 1.716.861-.215 2.045-.644 2.691-1.18.968-.965.861-2.038.968-3.325.108-1.717.108-3.647.108-5.364 0-2.467-.108-4.72-.108-6.329 0-.75 0-1.394.108-1.823 0-.429.108-.536.108-.644h-.216c-.107.108-.322.215-.43.429-.215.429-.431 1.073-.538 1.931-.215 1.609-.323 3.862-.215 6.436 0 1.502.43 3.54 0 5.042-1.292-.215-2.799-.322-4.09-.215-1.292.215-2.583.859-2.798 2.253-.215.429-.215.751-.108 1.073Z" fill="#FCA7A7"/></g><path opacity=".1" d="M211.496 266.779c.129-1.161 1.203-1.979 2.363-1.85.816.086 1.503.689 1.761 1.463l9.837 28.223c1.203-.215 2.448-.258 3.651 0 3.651.689 6.314 3.055 5.799 5.292-.515 2.237-3.737 3.399-7.431 2.582-3.694-.818-6.315-3.055-5.799-5.292l-7.818-22.501c-.644 1.635-4.768 11.745-3.479 15.23a2.182 2.182 0 0 1-1.504 2.581c-1.117.301-2.277-.344-2.62-1.506-1.589-4.56 4.725-20.522 5.24-24.222Zm110.61-34.418c3.737.645 6.916-.646 7.303-2.926.429-2.28-2.32-4.517-6.014-5.034a9.493 9.493 0 0 0-3.651.173l-7.904-19.791 13.574-10.154 7.903 19.791c-.429 2.28 2.277 4.388 6.014 5.034 3.737.645 6.916-.646 7.303-2.926.429-2.28-2.32-4.517-6.014-5.033a9.473 9.473 0 0 0-3.651.172l-11.083-27.793c-.043-.086-.043-.172-.086-.258l-.129-.259c-.085-.086-.214-.215-.3-.258l-.301-.215-.472-.129-.258.086-.43.172-.257.129-.258.129-.516.216-17.096 12.777c-.773.56-1.031 1.592-.687 2.496l11.469 28.739c-.344 2.151 1.804 4.216 5.541 4.862Z" fill="#1A7F72"/><path opacity=".15" d="M383.06 276.029c1.159 2.582 3.307 3.958 4.854 3.27 1.546-.688 1.804-3.313.558-5.808-.387-.818-.945-1.549-1.632-2.194l8.848-13.165 11.942 4.087-8.849 13.165c-1.546.688-1.761 3.27-.558 5.808 1.16 2.581 3.307 3.958 4.854 3.27 1.546-.689 1.804-3.313.558-5.808-.386-.818-.945-1.549-1.632-2.195l12.457-18.499c.043-.044.086-.087.129-.173.043-.043.086-.129.129-.172.043-.086.043-.215.043-.301v-.258l-.086-.344-.172-.129-.301-.215-.172-.129-.171-.129-.387-.13-15.034-5.162a1.61 1.61 0 0 0-1.805.602l-12.886 19.145c-1.504.689-1.847 2.883-.687 5.464Zm236.296-36.182c-.902-.732-2.233-.559-2.963.344a2.097 2.097 0 0 0-.215 2.28l12.672 27.062a9.84 9.84 0 0 0-2.621 2.538c-2.147 3.055-2.362 6.583-.429 7.83 1.933 1.248 5.025-.172 7.13-3.356 2.105-3.183 2.363-6.582.43-7.83l-10.095-21.554c1.59.731 11.598 5.076 13.102 8.475a2.143 2.143 0 0 0 2.878.775c1.031-.56 1.374-1.85.816-2.883-2.105-4.388-17.784-11.358-20.705-13.681Z" fill="#7ADBAE"/><path opacity=".08" d="M713.514 366.292c0-1.162-.988-2.108-2.147-2.108-.817 0-1.59.516-1.891 1.247l-12.886 26.976c-1.16-.344-2.406-.517-3.651-.43-3.737.301-6.615 2.366-6.315 4.646.258 2.28 3.351 3.786 7.131 3.399 3.78-.387 6.615-2.366 6.314-4.647l10.267-21.468c.472 1.678 3.436 12.175 1.761 15.531-.387 1.076.172 2.28 1.203 2.754a2.105 2.105 0 0 0 2.749-1.205c2.062-4.388-2.449-20.952-2.535-24.695Z" fill="#1A7F72"/><path opacity=".1" d="m678.463 313.502-15.12-26.975c-.473-.818-1.461-1.248-2.363-1.033l-20.661 5.292-.473.258-.258.129-.257.129-.43.259-.215.129-.172.43-.042.387v.43l.128.258a.94.94 0 0 0 .129.215l14.648 26.072c-.988.732-1.804 1.678-2.448 2.754-1.89 3.227-1.89 6.755.128 7.873 2.019 1.076 5.026-.559 6.873-3.872 1.847-3.313 1.89-6.755-.129-7.873l-10.438-18.586 16.409-4.173 10.438 18.586c-.988.731-1.804 1.678-2.448 2.753-1.89 3.227-1.89 6.755.129 7.873 2.019 1.076 5.025-.559 6.873-3.872 1.89-3.356 1.632-6.281-.301-7.443Z" fill="#1A7F72"/><path opacity=".15" d="m677.604 202.029 4.209-30.675c.129-.946-.386-1.893-1.245-2.237l-19.631-8.304-.558-.086-.301-.043-.301-.043-.472-.086-.258-.043-.43.258-.257.258a.949.949 0 0 0-.215.345c0 .086-.043.215-.043.301s-.043.172-.043.258l-4.081 29.643c-1.245 0-2.448.258-3.608.731-3.479 1.42-5.584 4.26-4.639 6.325.945 2.108 4.338 2.581 7.818 1.075 3.479-1.506 5.584-4.259 4.639-6.324l2.921-21.124 15.593 6.625-2.921 21.124c-1.246 0-2.449.259-3.609.732-3.479 1.42-5.584 4.259-4.639 6.324.945 2.108 4.339 2.582 7.818 1.076 3.522-1.549 5.112-4.044 4.253-6.11Z" fill="#7ADBAE"/><path d="M546.418 165.675c-6.314-8.949-8.805-4.173-14.261-9.422-4.252-4.087-7.431-5.335-10.567-5.249-3.092-.086-6.271 1.162-10.567 5.249-5.455 5.249-7.989.473-14.261 9.422-6.314 8.949 9.107 18.328 9.107 18.328l14.948 2.624s.344-1.463.816-3.829c.473 2.366.816 3.829.816 3.829l14.949-2.624c-.086 0 15.335-9.379 9.02-18.328Z" fill="#2C2858"/><path d="M522.578 250.99c19.715 0 35.696-17.182 35.696-38.377 0-21.195-15.981-38.376-35.696-38.376-19.714 0-35.695 17.181-35.695 38.376 0 21.195 15.981 38.377 35.695 38.377Z" fill="#2C2858"/><path d="m491.908 273.491 65.722 1.592-31.1 28.438-34.622-30.03Zm65.808 126.531h-70.275c-9.278 11.358-12.371 24.179-13.402 32.396-.73 5.808-3.394 11.186-7.646 15.187-21.005 19.963-80.026 78.646-69.416 97.964 9.794 17.854 63.66 6.496 88.832.086 3.221-.818 5.97-1.549 8.075-2.151 5.627-.818 9.579.086 11.383 1.247 4.167 2.711 10.267 18.113 13.574 27.234 1.461 4.001 6.186 6.496 10.438 6.453 0 0-.172-35.149-1.117-53.95-.987-18.802-13.702-11.574-24.871-7.271-1.761.688-3.994 1.376-6.529 2.065l-39.733 1.419s37.5-38.634 50.902-46.077c13.402-7.486 19.286 3.011 19.286 3.011l4.94 237.144c.129 7.098.215 17.381-.129 18.586-.515 1.807-10.395 17.725-3.651 17.725h27.578c6.744 0-3.136-15.918-3.652-17.725-.343-1.119-.257-10.627-.129-17.683 0 0 8.763-57.35 9.837-99.727 1.074-42.378 6.959-69.311 15.55-129.113 8.548-59.888-19.845-86.82-19.845-86.82Zm-4.167-11.272 3.866-14.456-7.517-7.873-27.363 6.023-27.362-6.023-7.517 7.873 3.866 14.456-4.081 11.272h70.189l-4.081-11.272Z" fill="#F4A082"/><path d="M540.104 278.309c-13.187 5.722-25.258 3.442-34.837-1.247-15.549-7.615-34.321-4.001-45.962 8.862a1799.045 1799.045 0 0 0-22.251 25.083s22.294 19.661 39.648 21.77c0 0 8.462 39.021 10.181 41.56 0 0 8.719 4.13 21.434 6.281a73.96 73.96 0 0 0 13.531 1.248h1.632c4.339 0 8.892-.387 13.531-1.248 12.715-2.151 21.435-6.281 21.435-6.281 1.675-2.539 10.18-41.56 10.18-41.56 17.354-2.109 35.567-18.758 35.567-18.758s-8.29-11.445-17.525-23.706c-10.868-14.37-30.069-19.145-46.564-12.004Z" fill="#E62552"/><path d="M489.331 299.176a91.284 91.284 0 0 0-5.498 7.572 59.754 59.754 0 0 0-4.382 8.174c-1.203 2.84-2.148 5.765-2.663 8.82a32.073 32.073 0 0 0-.215 9.293c-.988-3.012-1.245-6.238-.902-9.422.301-3.184 1.203-6.324 2.449-9.25a43.83 43.83 0 0 1 4.768-8.26c1.89-2.539 3.994-4.905 6.443-6.927Zm66.495 0a91.284 91.284 0 0 1 5.498 7.572 59.748 59.748 0 0 1 4.381 8.174c1.203 2.84 2.148 5.765 2.664 8.82.515 3.055.601 6.152.214 9.293.988-3.012 1.246-6.238.902-9.422-.3-3.184-1.202-6.324-2.448-9.25a43.884 43.884 0 0 0-4.768-8.26c-1.89-2.539-3.995-4.905-6.443-6.927Z" fill="#C4204A"/><path d="M534.391 254.174h-20.619v20.651h20.619v-20.651Z" fill="#F4A082"/><path d="M534.391 266.564v-12.39h-20.619v10.54c4.425 2.41 10.997 3.786 20.619 1.85Z" fill="#DB8C70"/><path d="M563.815 217.303c-2.019-.99-4.338-.818-6.443.258.73-18.973-14.734-34.935-34.192-34.29-19.459-.688-34.923 15.274-34.193 34.29-2.105-1.076-4.424-1.248-6.443-.258-3.866 1.893-5.026 7.357-2.663 12.175 2.362 4.819 7.388 7.185 11.254 5.292a6.721 6.721 0 0 0 1.461-.989c2.19 15.703 15.292 27.448 30.627 27.233 15.335.215 28.393-11.53 30.627-27.233.429.387.902.731 1.46.989 3.866 1.893 8.892-.473 11.255-5.292 2.276-4.818 1.073-10.282-2.75-12.175Z" fill="#F4A082"/><path d="M517.681 218.421c-1.46-.516-2.792-.903-4.166-1.118a14.184 14.184 0 0 0-4.038-.173c-1.289.173-2.62.431-3.866.99l-.473.172c-.171.043-.3.172-.472.215l-.988.473c-.644.345-1.246.732-1.976 1.076.387-.645.816-1.291 1.332-1.893.558-.516 1.074-1.119 1.761-1.506 1.288-.946 2.878-1.463 4.467-1.635a9.65 9.65 0 0 1 4.682.689c1.461.602 2.792 1.462 3.737 2.71Zm11.598-.043c.945-1.247 2.234-2.108 3.694-2.753a10.216 10.216 0 0 1 4.683-.732c1.589.172 3.178.689 4.467 1.592.687.387 1.203.99 1.761 1.506.516.559.945 1.205 1.332 1.85-.731-.301-1.332-.731-1.976-1.033l-.945-.473c-.172-.086-.301-.172-.473-.215l-.472-.172c-1.246-.559-2.578-.817-3.909-.947-1.332-.129-2.663-.043-4.038.216-1.332.258-2.663.645-4.124 1.161Z" fill="#07095B"/><path d="M523.695 220.357a15.981 15.981 0 0 0 .258 4.518c.129.774.343 1.506.644 2.237.301.731.687 1.463 1.332 2.108l.3.215.258.172c.086.086.258.172.344.259.215.172.343.387.472.645.215.473.129 1.075-.128 1.635-.559 1.161-1.762 2.022-3.136 2.667 1.503-.086 3.136-.645 4.081-2.108.472-.688.73-1.721.429-2.624-.086-.215-.172-.474-.301-.646-.128-.215-.3-.387-.429-.559a4.554 4.554 0 0 0-.516-.43c-.129-.086-.129-.086-.171-.172l-.172-.129c-.43-.388-.773-.99-1.074-1.592-.301-.603-.559-1.291-.816-1.979-.516-1.334-.902-2.754-1.375-4.217Z" fill="#DB8C70"/><path d="M625.972 353.213c-6.229-10.885-17.354-23.104-28.609-33.903-14.261 10.498-23.11 12.348-26.847 13.165 21.95 15.274 23.497 21.512 23.497 21.512-11.512 3.227-60.438 2.323-60.438 2.323s-1.632-4.302-3.608-7.013c-1.976-2.71-2.878-19.618-4.511-24.136-.257-.688-.515-1.29-.816-1.806-1.632-1.506-2.663-1.248-3.264-.818l-.645.818c-.257.43-.472.946-.687 1.505-1.632 4.518-2.534 21.426-4.51 24.136-1.976 2.711-3.609 7.013-3.609 7.013s-48.926.904-60.438-2.323c0 0 1.246-6.066 23.196-21.34-3.694-.473-12.972-3.269-26.847-13.079-11.254 10.799-22.165 22.803-28.393 33.687-15.851 27.75 83.462 22.329 101.073 15.489 0 0 1.031.043 2.062-1.162 1.117 1.463 2.277 1.42 2.277 1.42 17.655 6.884 116.924 12.261 101.117-15.488Z" fill="#F4A082"/><path opacity=".5" d="M528.334 743.432s3.136-2.538 5.112 0c0 0 4.296-1.506 6.271-.559 1.976.946 3.351-.301 7.561.559 4.209.86 5.197-.645 7.646 0l-3.394-7.787c-.472-1.119-1.589-1.85-2.792-1.893l-12.629-.516a3.18 3.18 0 0 0-2.921 1.634l-4.854 8.562Z" fill="#DB8C70"/><path d="M488.687 489.897c7.56-6.841 14.733-12.821 19.201-15.316 13.402-7.486 19.287 3.011 19.287 3.011l.558 27.191c11.34 2.796 26.761 4.991 46.478 4.388 1.03-6.969 2.147-14.369 3.307-22.415 8.591-59.845-19.802-86.734-19.802-86.734h-70.275c-9.278 11.358-12.371 24.179-13.402 32.396-.73 5.808-3.394 11.186-7.646 15.187a629.74 629.74 0 0 0-10.825 10.498c5.971 9.852 16.624 23.534 33.119 31.794Z" fill="#1F5148"/><path opacity=".5" d="M528.077 520.96c.343 4.775.558 9.594.773 14.369l.258 7.185.171 7.185.129 7.185c0 2.409.043 4.776.043 7.185 0 4.775 0 9.594-.172 14.37a404.436 404.436 0 0 1-.773-14.37l-.258-7.185-.171-7.185-.129-7.185c0-2.409-.043-4.775-.043-7.185 0-4.775.043-9.594.172-14.369Z" fill="#DB8C70"/><path d="M456.986 520.658c-2.578 1.936-5.327 3.571-8.119 5.077a88.988 88.988 0 0 1-8.72 4.044c-1.503.603-3.007 1.119-4.51 1.678-.773.258-1.547.473-2.277.689l-1.16.344c-.386.086-.773.215-1.159.301l-2.32.559-2.362.473-1.16.216-1.203.172c-.773.086-1.589.215-2.363.258.774-.215 1.547-.43 2.32-.602l1.16-.302 1.16-.344 2.276-.645 2.277-.732c3.007-.989 6.014-2.022 8.935-3.226.73-.301 1.46-.56 2.19-.904a47.618 47.618 0 0 0 2.191-.946l2.191-.947c.73-.344 1.46-.645 2.148-.989 2.835-1.248 5.67-2.668 8.505-4.174Zm65.549-198.465c.258 3.743.387 7.529.473 11.272l.129 5.636.043 5.636-.043 5.636c-.043 1.893-.043 3.743-.086 5.636-.086 3.743-.215 7.529-.473 11.272-.257-3.743-.386-7.529-.472-11.272-.043-1.893-.086-3.743-.086-5.636l-.043-5.636.043-5.636c.043-1.893.043-3.743.086-5.636.043-3.743.172-7.529.429-11.272Zm-71.048 31.493c-3.135-.043-6.228.043-9.321.344-1.546.129-3.05.387-4.596.689-1.546.258-3.007.688-4.553 1.075.343-.172.687-.344 1.074-.516l.558-.258.558-.215 1.117-.388 1.117-.344c.172-.043.387-.129.558-.172l.559-.129 1.16-.258a38.962 38.962 0 0 1 2.362-.344c1.59-.172 3.136-.215 4.725-.172 1.547.172 3.136.301 4.682.688Zm142.354.258c3.136-.043 6.229.043 9.321.344 1.547.129 3.05.387 4.597.689 1.546.258 3.006.688 4.553 1.075-.344-.172-.687-.344-1.074-.516l-.559-.258-.558-.215-1.117-.388-1.117-.344c-.171-.043-.386-.129-.558-.172l-.558-.086-1.16-.258a38.996 38.996 0 0 0-2.363-.344 34.717 34.717 0 0 0-4.725-.172c-1.546.129-3.135.301-4.682.645Z" fill="#DB8C70"/><path d="M488.987 217.475s11.126-22.716 21.607-25.427c10.481-2.753 7.904 8.39 23.84 12.735 15.893 4.302 9.923 15.875 22.981 12.735l.902-7.357s-5.112-12.864-5.112-13.337c0-.474-8.677-9.422-9.622-9.767-.945-.344-9.407-3.613-10.481-3.829-1.074-.215-12.113-2.237-12.628-2.237-.473 0-8.506-.473-10.739.818-2.234 1.29-10.181.946-12.93 4.173-2.749 3.227-4.51 11.1-4.983 12.132-.472 1.076-4.982 8.562-4.897 10.025.086 1.42 2.062 9.336 2.062 9.336Z" fill="#2C2858"/><path opacity=".3" d="M516.736 240.879s4.339-1.979 8.806.388c0 0 4.296-3.27 8.119-.818 0 0-1.074 6.927-8.591 7.142-7.517.172-8.334-6.712-8.334-6.712Z" fill="#F79691"/><path d="M512.613 238.771a22.977 22.977 0 0 0 2.835 1.635c.945.473 1.976.904 2.964 1.248 2.019.688 4.166 1.118 6.271 1.118 2.148 0 4.253-.43 6.229-1.247 1.976-.818 3.823-2.022 5.498-3.399a17.39 17.39 0 0 1-2.448 2.237c-.86.689-1.848 1.248-2.836 1.721-.988.473-2.061.861-3.135 1.119-1.074.258-2.191.344-3.308.387a16.65 16.65 0 0 1-6.486-1.334 17.934 17.934 0 0 1-5.584-3.485Z" fill="#fff"/><path d="M503.377 224.703c.387.602.816 1.075 1.332 1.548a2.16 2.16 0 0 1-.73.13 2.777 2.777 0 0 1-1.031-.043c-.172 0-.344-.087-.516-.087a2.416 2.416 0 0 1-.515-.172c.172.086.301.172.472.215.172.044.344.13.516.173.343.129.687.172 1.074.215.343.043.687 0 1.031-.043-.172.129-.344.215-.516.344a3.643 3.643 0 0 1-.945.387c-.172.043-.343.086-.515.086-.172.043-.344.043-.516.043.172 0 .344.043.516.043.172 0 .343 0 .515-.043.344-.043.73-.129 1.074-.215.301-.086.601-.258.859-.43 3.909 2.624 9.794 1.204 12.199-2.151-5.455 2.065-10.008 1.893-14.304 0Zm41.753 0c-.387.602-.816 1.075-1.332 1.548.258.087.473.13.73.13.344.043.688.043 1.031-.043.172 0 .344-.087.516-.087.172-.043.344-.086.515-.172-.171.086-.3.172-.472.215-.172.044-.344.13-.516.173-.343.129-.687.172-1.074.215-.343.043-.687 0-1.03-.043.171.129.343.215.515.344.301.172.601.301.945.387.172.043.344.086.515.086.172.043.344.043.516.043-.172 0-.344.043-.516.043-.171 0-.343 0-.515-.043a9.492 9.492 0 0 1-1.074-.215c-.301-.086-.601-.258-.859-.43-3.909 2.624-9.794 1.204-12.199-2.151 5.455 2.065 10.008 1.893 14.304 0Z" fill="#333"/><path d="M332.673 334.799s.773-18.5-19.029-22.932c-19.802-4.431-23.625 18.199-38.101 16.005 0 0 15.163 17.597 32.087 12.391 12.844-3.958 17.913-2.41 19.631-1.463 1.031.602 2.234.817 3.35.43 1.289-.387 2.449-1.549 2.062-4.431Z" fill="#2C2858"/><path d="M318.97 338.37a1.068 1.068 0 0 1 .258-1.549c2.148-1.42 7.646-4.604 14.261-4.948.602-.043 1.16.473 1.16 1.076 0 .559-.472 1.075-1.031 1.075-6.056.301-11.254 3.313-13.187 4.561-.515.344-1.117.258-1.461-.215Z" fill="#07095B"/><path d="M309.477 372.014s-5.67-23.319 7.861-32.052c13.531-8.734 27.835-7.744 37.586-2.539 9.751 5.249 15.593 23.491 11.211 33.903l-32.388-9.939-24.27 10.627Z" fill="#2C2858"/><path d="m316.565 410.993 46.821 1.118-22.165 20.264-24.656-21.382Z" fill="#F4A082"/><path d="M364.761 410.778c-4.725-.302-6.787.559-11.255 2.753-4.037 1.979-8.676 3.356-13.702 3.313-5.069.043-9.708-1.334-13.703-3.313a27.345 27.345 0 0 0-14.046-2.753c2.577 35.58-6.272 40.872-6.272 40.872l7.646 49.476s10.61 6.712 26.418 6.195c15.764.517 26.417-6.195 26.417-6.195l7.045-50.466c-.043-.043-11.126-4.345-8.548-39.882Z" fill="#F5A3B7"/><path d="m343.197 628.13-.816-38.419c-.687-13.38-9.751-8.218-17.697-5.163-.473.172-1.031.387-1.59.559-.3 5.249-.687 12.563-1.031 17.984 1.89.129 3.222.559 4.038 1.076 2.964 1.936 7.302 12.906 9.665 19.36 1.031 2.883 4.381 4.646 7.431 4.603Zm16.28 97.706.473-3.313-14.906-4.13.129 6.797c.086 5.034.172 12.391-.086 13.252-.386 1.29-7.431 12.605-2.577 12.605h19.674c4.811 0-2.234-11.315-2.578-12.605-.258-.861-.215-7.616-.129-12.606Zm-11.984-328.611h-15.937v15.962h15.937v-15.962Z" fill="#F4A082"/><path d="M347.493 406.819v-9.594h-15.937v8.132c3.437 1.85 8.506 2.925 15.937 1.462Z" fill="#DB8C70"/><path d="M370.259 368.701c-1.546-.774-3.35-.645-4.983.215.559-14.671-11.383-27.018-26.46-26.502-15.078-.516-27.019 11.831-26.461 26.502-1.632-.817-3.436-.946-4.982-.215-2.964 1.463-3.909 5.679-2.062 9.422 1.847 3.743 5.713 5.55 8.72 4.087a5.16 5.16 0 0 0 1.116-.774c1.719 12.132 11.813 21.253 23.669 21.081 11.855.172 21.993-8.949 23.668-21.081.344.301.687.559 1.117.774 2.964 1.463 6.873-.344 8.72-4.087 1.847-3.743.902-7.959-2.062-9.422Z" fill="#F4A082"/><path d="M334.606 369.561c-1.117-.387-2.191-.688-3.221-.86-1.074-.172-2.105-.258-3.093-.129-1.031.129-2.019.344-3.007.774l-.387.129c-.129.043-.257.129-.343.172l-.731.345c-.515.258-.945.559-1.503.817.301-.516.644-.989 1.031-1.463.43-.387.816-.86 1.375-1.161.987-.732 2.233-1.119 3.436-1.248a7.567 7.567 0 0 1 3.651.516c1.031.474 2.062 1.162 2.792 2.108Zm8.935-.042c.73-.947 1.761-1.635 2.835-2.109 1.117-.473 2.405-.688 3.608-.559 1.246.129 2.449.516 3.48 1.248.515.301.945.774 1.374 1.161.387.431.73.947 1.031 1.42-.558-.258-1.031-.559-1.503-.817l-.731-.344c-.128-.043-.257-.13-.343-.173l-.387-.129c-.988-.43-2.019-.645-3.007-.731a10.69 10.69 0 0 0-3.092.172c-1.074.172-2.148.473-3.265.861Z" fill="#2C2858"/><path d="M339.245 372.444c-.129 1.161-.043 2.323.172 3.485.129.602.258 1.161.473 1.721.214.559.515 1.161 1.031 1.635l.214.172.172.129c.086.086.215.129.258.215.172.129.258.301.344.473.171.344.086.817-.086 1.248-.43.903-1.375 1.592-2.406 2.065 1.16-.043 2.406-.516 3.179-1.635a2.47 2.47 0 0 0 .344-2.065 1.453 1.453 0 0 0-.258-.516c-.086-.173-.215-.302-.344-.431-.129-.129-.258-.215-.429-.344-.086-.043-.086-.086-.129-.129l-.129-.086c-.344-.301-.602-.774-.816-1.248-.258-.473-.43-.989-.602-1.548-.343-.947-.644-2.023-.988-3.141Z" fill="#DB8C70"/><path opacity=".5" d="M342.51 745.626s2.234-1.807 3.608 0c0 0 3.05-1.075 4.468-.387 1.374.688 2.362-.215 5.369.387 3.007.646 3.694-.43 5.455 0l-2.448-5.55a2.254 2.254 0 0 0-1.976-1.376l-8.978-.388a2.23 2.23 0 0 0-2.062 1.162l-3.436 6.152Z" fill="#DB8C70"/><path opacity=".5" d="M342.338 587.215c.258 3.399.43 6.841.559 10.24.085 1.721.128 3.399.171 5.12l.129 5.119.086 5.12c0 1.721.043 3.399.043 5.12 0 3.399 0 6.84-.129 10.239-.257-3.399-.429-6.84-.558-10.239a203.565 203.565 0 0 1-.172-5.12l-.129-5.12-.086-5.119c0-1.721-.043-3.399-.043-5.12 0-3.442 0-6.841.129-10.24Z" fill="#F79691"/><path d="M291.694 587c-1.804 1.377-3.78 2.538-5.799 3.614a66.926 66.926 0 0 1-6.186 2.882 47.574 47.574 0 0 1-3.221 1.162c-.559.172-1.074.344-1.633.516l-.816.259c-.257.086-.558.129-.816.215l-1.675.43-1.675.344-.859.172-.86.129c-.558.086-1.116.129-1.675.215.559-.129 1.117-.301 1.632-.43l.817-.215.816-.258 1.632-.473 1.632-.517a100.473 100.473 0 0 0 6.358-2.28 60.6 60.6 0 0 1 1.589-.645l1.546-.646 1.547-.688c.515-.258 1.031-.473 1.546-.688 2.062-1.033 4.124-2.022 6.1-3.098Z" fill="#F79691"/><path d="M355.654 374.595c-.3.43-.945 1.162-1.589 1.592-2.921 1.979-7.345.904-9.15-1.592 4.081 1.592 7.518 1.463 10.739 0Zm-32.603 0c.301.43.945 1.162 1.59 1.592 2.921 1.979 7.345.904 9.149-1.592-4.081 1.592-7.517 1.463-10.739 0Z" fill="#333"/><path d="M366.221 501.083h-52.835c-108.591 130.876-64.476 114.57 10.696 102.309.258-6.109-.043-13.208-.429-18.5-1.59 1.764-29.554 1.807-31.959 2.108 4.338-2.925 51.589-58.597 50.215-18.93 0 0 .429 21.598.472 21.641 0-.345-.043-.646-.086-.947l.73 39.366h.129c.043 3.571.086 70.3.559 96.759h16.709c3.007-26.459 12.586-76.796 15.679-104.632 5.627-56.188 14.991-90.478-9.88-119.174Z" fill="#1A7F72"/><path d="M411.84 467.568c-4.425-7.744-47.079-56.834-47.079-56.834s2.448 25.212 10.18 34.892l-1.632 4.948c12.328 13.423 15.764 17.467 15.764 17.467-8.204 2.324-43.041 1.678-43.041 1.678s-1.16-3.097-2.577-4.991c-1.418-1.936-2.062-13.982-3.222-17.209-.129-.43-.3-.774-.472-1.075l-.43-.56a1.033 1.033 0 0 0-.902-.215 1.214 1.214 0 0 0-.859.215l-.429.56a6.218 6.218 0 0 0-.473 1.075c-1.16 3.227-1.804 15.273-3.222 17.209-1.417 1.937-2.577 4.991-2.577 4.991s-34.837.646-43.041-1.678c0 0 .902-4.302 16.538-15.187l3.178-2.753c7.732-9.724 4.597-39.41 4.597-39.41s-42.655 49.047-47.079 56.834c-11.255 19.748 59.407 15.919 71.993 11.014 0 0 .687.043 1.417-.775v-.043c.73.861 1.461.818 1.461.818 5.283 2.065 20.919 3.915 36.426 3.915 21.091.086 41.967-3.442 35.481-14.886Z" fill="#F4A082"/><path d="M384.649 482.54h-16.967c5.584.258 11.383.258 16.967 0Z" fill="#FDBEB9"/><path d="M338.386 445.669c.172 2.668.258 5.335.344 8.045.043 1.334.043 2.668.086 4.002l.043 4.001v4.001c-.043 1.334-.043 2.667-.086 4.001-.043 2.667-.129 5.335-.344 8.045-.172-2.667-.257-5.334-.343-8.045-.043-1.334-.043-2.667-.086-4.001l-.043-4.001v-4.001c.043-1.334.043-2.668.086-4.002.086-2.667.171-5.377.343-8.045Zm-50.601 22.415c-2.234-.043-4.424 0-6.615.258-1.117.086-2.191.302-3.265.474-1.074.215-2.147.516-3.221.774.257-.129.515-.258.773-.344l.386-.172.387-.129.773-.301.816-.216.387-.129.43-.086c.257-.043.558-.129.816-.172l1.675-.258a21.834 21.834 0 0 1 3.35-.129c1.074.086 2.191.172 3.308.43Zm101.374.215c2.234-.043 4.425 0 6.615.259 1.117.086 2.191.301 3.265.473 1.074.215 2.148.516 3.222.774a6.143 6.143 0 0 0-.773-.344l-.387-.172-.387-.172-.773-.301-.816-.215-.387-.129-.429-.086c-.258-.044-.559-.13-.816-.173l-1.676-.258c-1.116-.129-2.233-.172-3.35-.129-1.117.086-2.234.215-3.308.473Z" fill="#DB8C70"/><path d="M312.055 410.778s-10.224 5.162-16.366 9.551c-6.143 4.388-5.971 25.082 10.051 31.321 16.066 6.238 12.887-20.436 12.887-20.436l-6.572-20.436Zm52.663 0s10.223 5.162 16.366 9.551c6.142 4.388 5.971 25.082-10.052 31.321-16.065 6.238-12.886-20.436-12.886-20.436l6.572-20.436Z" fill="#F57191"/><path d="M331.513 386.082c.774 2.969 4.296 5.163 8.506 5.163 5.24 0 7.689-2.323 8.419-5.335l-16.925.172Z" fill="#fff"/><path d="M313.257 370.164s18.085-7.314 27.707-18.457c0 0-.215 6.109-2.234 8.26.644.431 13.144-4.56 16.022-14.154 2.878-9.594-14.218-5.894-14.218-5.894s-9.751-1.592-10.18-1.377c-.43.215-7.389 4.388-7.689 4.733-.301.301-9.451 13.294-9.451 13.294l-2.319 4.818-.516 6.626 2.878 2.151Z" fill="#2C2858"/><path opacity=".56" d="M612.998 754.504c0 1.903-75.632 3.5-169.001 3.5-93.367 0-168.999-1.521-168.999-3.5 0-1.902 75.632-3.5 168.999-3.5 93.369 0 169.001 1.598 169.001 3.5Z" fill="#000" fill-opacity=".2"/><defs><linearGradient id="b" x1="198.066" y1="291.735" x2="724.577" y2="649.2" gradientUnits="userSpaceOnUse"><stop stop-color="#1A7F72"/><stop offset="1" stop-color="#7ADBAE"/></linearGradient><linearGradient id="d" x1="182.727" y1="316.735" x2="739.912" y2="624.209" gradientUnits="userSpaceOnUse"><stop stop-color="#1A7F72"/><stop offset="1" stop-color="#7ADBAE"/></linearGradient><clipPath id="a"><path fill="#fff" transform="rotate(34.174 198.066 644.348)" d="M0 0h636.505v705.231H0z"/></clipPath><clipPath id="c"><path fill="#fff" transform="rotate(28.891 161.01 689.335)" d="M0 0h636.505v705.231H0z"/></clipPath></defs></svg>