<svg width="610" height="146" fill="none" xmlns="http://www.w3.org/2000/svg"><g opacity=".46"><path d="M610 73h-2.252v-1.263H610V73Zm0-3.41h-2.252v-2.273H610v2.273Z" fill="url(#a)"/><path d="M602.869 70.98h-2.252v-2.274h2.252v2.273Zm0-4.547h-2.252v-2.274h2.252v2.273Zm0-4.42h-2.252v-2.274h2.252v2.273Z" fill="url(#b)"/><path d="M595.738 73h-2.252v-1.137h2.252V73Zm0-3.41h-2.252v-2.273h2.252v2.273Zm0-4.42h-2.252v-2.274h2.252v2.274Zm0-4.42h-2.252v-2.274h2.252v2.273Zm0-4.421h-2.252v-2.274h2.252v2.274Z" fill="url(#c)"/><path d="M588.607 72.242h-2.251V69.97h2.251v2.273Zm0-4.42h-2.251v-2.274h2.251v2.274Z" fill="url(#d)"/><path d="M581.477 73h-2.252v-.884h2.252V73Zm0-3.031h-2.252v-2.273h2.252v2.273Zm0-4.42h-2.252v-2.274h2.252v2.273Zm0-4.547h-2.252v-2.274h2.252v2.274Z" fill="url(#e)"/><path d="M574.346 71.863h-2.252V69.59h2.252v2.273Zm0-4.546h-2.252v-2.274h2.252v2.274Zm0-4.42h-2.252v-2.274h2.252v2.273Zm0-4.421h-2.252v-2.274h2.252v2.274Zm0-4.42h-2.252v-2.274h2.252v2.273Zm0-4.547h-2.252v-2.274h2.252v2.274Z" fill="url(#f)"/><path d="M567.09 73h-2.252v-.632h2.252V73Zm0-2.778h-2.252v-2.274h2.252v2.274Zm0-4.421h-2.252v-2.273h2.252V65.8Z" fill="url(#g)"/><path d="M559.959 73h-2.252v-2.147h2.252V73Zm0-4.294h-2.252v-2.273h2.252v2.273Zm0-4.547h-2.252v-2.273h2.252v2.273Zm0-4.42h-2.252v-2.274h2.252v2.274Zm0-4.42h-2.252v-2.274h2.252v2.273Z" fill="url(#h)"/><path d="M552.828 70.98h-2.252v-2.274h2.252v2.273Zm0-4.421h-2.252v-2.273h2.252v2.273Zm0-4.42h-2.252v-2.274h2.252v2.273Zm0-4.421h-2.252v-2.273h2.252v2.273Zm0-4.547h-2.252v-2.273h2.252v2.273Zm0-4.42h-2.252v-2.273h2.252v2.273Zm0-4.42h-2.252v-2.274h2.252v2.273Z" fill="url(#i)"/><path d="M545.572 72.747h-2.252v-2.273h2.252v2.273Zm0-4.42h-2.252v-2.273h2.252v2.273Zm0-4.547h-2.252v-2.273h2.252v2.273Zm0-4.42h-2.252v-2.273h2.252v2.273Zm0-4.42h-2.252v-2.274h2.252v2.274Zm0-4.42h-2.252v-2.274h2.252v2.273Zm0-4.548h-2.252V43.7h2.252v2.273Z" fill="url(#j)"/><path d="M538.441 73h-2.252v-2.273h2.252V73Zm0-4.547h-2.252V66.18h2.252v2.273Zm0-4.42h-2.252V61.76h2.252v2.273Zm0-4.42h-2.252v-2.274h2.252v2.273Zm0-4.421h-2.252v-2.273h2.252v2.273Zm0-4.547h-2.252v-2.273h2.252v2.273Zm0-4.42h-2.252v-2.273h2.252v2.273Zm0-4.42h-2.252V39.53h2.252v2.273Zm0-4.547h-2.252v-2.274h2.252v2.274Zm0-4.42h-2.252v-2.274h2.252v2.273Zm0-4.421h-2.252v-2.273h2.252v2.273Z" fill="url(#k)"/><path d="M529.184 73v-1.768h2.252V73h-2.252Zm0-4.041v-2.274h2.252v2.273h-2.252Zm0-4.42v-2.274h2.252v2.273h-2.252Zm0-4.421v-2.274h2.252v2.274h-2.252Zm0-4.547v-2.273h2.252v2.273h-2.252Zm0-4.42v-2.274h2.252v2.273h-2.252Zm0-4.42v-2.274h2.252v2.273h-2.252Zm0-4.421v-2.274h2.252v2.274h-2.252Zm0-4.547V35.49h2.252v2.273h-2.252Zm0-4.42v-2.274h2.252v2.274h-2.252Zm0-4.42v-2.274h2.252v2.273h-2.252Zm0-4.548v-2.273h2.252v2.273h-2.252Zm0-4.42v-2.273h2.252v2.273h-2.252Z" fill="url(#l)"/><path d="M524.18 73h-2.252v-1.39h2.252V73Zm0-3.663h-2.252v-2.273h2.252v2.273Zm0-4.42h-2.252v-2.273h2.252v2.273Zm0-4.42h-2.252v-2.274h2.252v2.273Zm0-4.42h-2.252v-2.274h2.252v2.273Zm0-4.548h-2.252v-2.273h2.252v2.273Zm0-4.42h-2.252v-2.273h2.252v2.273Zm0-4.42h-2.252v-2.274h2.252v2.274Zm0-4.42h-2.252v-2.274h2.252v2.273Zm0-4.548h-2.252v-2.147h2.252v2.147Zm0-4.42h-2.252v-2.273h2.252V29.3Z" fill="url(#m)"/><path d="M517.049 72.495h-2.252V70.22h2.252v2.274Zm0-4.547h-2.252v-2.273h2.252v2.273Zm0-4.42h-2.252v-2.274h2.252v2.274Zm0-4.42h-2.252v-2.274h2.252v2.273Zm0-4.421h-2.252v-2.273h2.252v2.273Zm0-4.547h-2.252v-2.147h2.252v2.147Zm0-4.42h-2.252v-2.274h2.252v2.274Zm0-4.42h-2.252v-2.274h2.252v2.273Zm0-4.421h-2.252v-2.273h2.252v2.273Zm0-4.547h-2.252V30.06h2.252v2.273Zm0-4.42h-2.252v-2.274h2.252v2.274Zm0-4.42h-2.252v-2.274h2.252v2.273Zm0-4.547h-2.252V16.67h2.252v2.274Zm0-4.42h-2.252v-2.148h2.252v2.147Zm0-4.421h-2.252V7.83h2.252v2.274Z" fill="url(#n)"/><path d="M509.918 73h-2.252v-1.642h2.252V73Zm0-3.915h-2.252v-2.147h2.252v2.147Zm0-4.42h-2.252V62.39h2.252v2.273Zm0-4.421h-2.252v-2.273h2.252v2.273Zm0-4.547h-2.252v-2.273h2.252v2.273Z" fill="url(#o)"/><path d="M502.787 72.242h-2.252V69.97h2.252v2.273Zm0-4.42h-2.252v-2.274h2.252v2.274Zm0-4.42h-2.252v-2.274h2.252v2.273Zm0-4.547h-2.252V56.58h2.252v2.274Zm0-4.42h-2.252V52.16h2.252v2.273Zm0-4.421h-2.252V47.74h2.252v2.274Zm0-4.42h-2.252V43.32h2.252v2.273Zm0-4.547h-2.252v-2.274h2.252v2.274Z" fill="url(#p)"/><path d="M495.656 71.99h-2.252v-2.274h2.252v2.274Zm0-4.547h-2.252V65.17h2.252v2.273Zm0-4.42h-2.252v-2.274h2.252v2.273Zm0-4.42h-2.252v-2.274h2.252v2.273Zm0-4.548h-2.252v-2.273h2.252v2.273Zm0-4.42h-2.252v-2.273h2.252v2.273Zm0-4.42h-2.252V42.94h2.252v2.273Zm0-4.42h-2.252V38.52h2.252v2.273Zm0-4.548h-2.252V34.1h2.252v2.147Zm0-4.42h-2.252v-2.273h2.252v2.273Z" fill="url(#q)"/><path d="M488.525 73h-2.251v-2.273h2.251V73Zm0-4.547h-2.251V66.18h2.251v2.273Zm0-4.42h-2.251V61.76h2.251v2.273Zm0-4.42h-2.251v-2.274h2.251v2.273Zm0-4.547h-2.251v-2.274h2.251v2.274Zm0-4.42h-2.251v-2.274h2.251v2.273Zm0-4.421h-2.251v-2.273h2.251v2.273Zm0-4.42h-2.251V39.53h2.251v2.273Z" fill="url(#r)"/><path d="M481.269 71.232h-2.251v-2.273h2.251v2.273Zm0-4.42h-2.251v-2.274h2.251v2.273Zm0-4.421h-2.251v-2.273h2.251v2.273Zm0-4.42h-2.251v-2.274h2.251v2.274Zm0-4.547h-2.251V51.15h2.251v2.273Zm0-4.42h-2.251V46.73h2.251v2.274Zm0-4.421h-2.251V42.31h2.251v2.273Z" fill="url(#s)"/><path d="M474.139 71.106h-2.252v-2.274h2.252v2.274Zm0-4.42h-2.252v-2.274h2.252v2.273Zm0-4.548h-2.252v-2.273h2.252v2.273Zm0-4.42h-2.252v-2.147h2.252v2.147Zm0-4.42h-2.252v-2.274h2.252v2.274Z" fill="url(#t)"/><path d="M467.008 68.832h-2.252v2.274h2.252v-2.274Z" fill="url(#u)"/><path d="M459.877 73h-2.252v-.126l2.252.126Zm0-2.273h-2.252v-2.274h2.252v2.274Zm0-4.42h-2.252v-2.274h2.252v2.273Z" fill="url(#v)"/><path d="M452.621 72.116h-2.252v-2.273h2.252v2.273Zm0-4.42h-2.252v-2.274h2.252v2.273Zm0-4.42h-2.252v-2.274h2.252v2.273Zm0-4.548h-2.252v-2.273h2.252v2.273Z" fill="url(#w)"/><path d="M445.49 72.242h-2.252V69.97h2.252v2.273Zm0-4.42h-2.252v-2.273h2.252v2.273Zm0-4.42h-2.252v-2.274h2.252v2.273Zm0-4.547h-2.252V56.58h2.252v2.274Zm0-4.42h-2.252V52.16h2.252v2.273Zm0-4.421h-2.252V47.74h2.252v2.274Zm0-4.42h-2.252V43.32h2.252v2.273Z" fill="url(#x)"/><path d="M438.359 71.106h-2.252v-2.274h2.252v2.274Zm0-4.42h-2.252v-2.274h2.252v2.273Zm0-4.421h-2.252V59.99h2.252v2.274Zm0-4.42h-2.252V55.57h2.252v2.273Zm0-4.547h-2.252v-2.274h2.252v2.274Zm0-4.42h-2.252v-2.274h2.252v2.273Zm0-4.421h-2.252v-2.274h2.252v2.274Zm0-4.547h-2.252v-2.273h2.252v2.273Zm0-4.42h-2.252v-2.274h2.252v2.274Zm0-4.42h-2.252v-2.274h2.252v2.273Z" fill="url(#y)"/><path d="M429.102 73v-.758h2.252V73h-2.252Zm0-3.031v-2.273h2.252v2.273h-2.252Z" fill="url(#z)"/><path d="M424.098 72.747h-2.252v-2.273h2.252v2.273Zm0-4.546h-2.252v-2.274h2.252v2.274Zm0-4.42h-2.252v-2.274h2.252v2.273Z" fill="url(#A)"/><path d="M416.967 73h-2.252v-2.02h2.252V73Zm0-4.168h-2.252V66.56h2.252v2.273Zm0-4.42h-2.252v-2.274h2.252v2.274Zm0-4.42h-2.252v-2.274h2.252v2.273Zm0-4.547h-2.252V53.17h2.252v2.274Zm0-4.42h-2.252V48.75h2.252v2.273Z" fill="url(#B)"/><path d="M409.836 71.106h-2.252v-2.274h2.252v2.274Zm0-4.547h-2.252v-2.147h2.252v2.147Zm0-4.42h-2.252v-2.274h2.252v2.273Zm0-4.421h-2.252v-2.273h2.252v2.273Zm0-4.42h-2.252v-2.274h2.252v2.274Zm0-4.547h-2.252v-2.273h2.252v2.273Zm0-4.42h-2.252v-2.274h2.252v2.273Zm0-4.421h-2.252v-2.273h2.252v2.273Zm0-4.547h-2.252V33.09h2.252v2.273Zm0-4.42h-2.252v-2.274h2.252v2.274Zm0-4.42h-2.252v-2.274h2.252v2.274Zm0-4.42h-2.252v-2.274h2.252v2.273Z" fill="url(#C)"/><path d="M402.705 72.747h-2.252v-2.273h2.252v2.273Zm0-4.42h-2.252v-2.273h2.252v2.273Zm0-4.547h-2.252v-2.273h2.252v2.273Zm0-4.42h-2.252v-2.273h2.252v2.273Zm0-4.42h-2.252v-2.274h2.252v2.274Zm0-4.42h-2.252v-2.274h2.252v2.273Zm0-4.548h-2.252V43.7h2.252v2.273Zm0-4.42h-2.252v-2.273h2.252v2.273Z" fill="url(#D)"/><path d="M395.574 72.621h-2.252v-2.273h2.252v2.273Zm0-4.42h-2.252v-2.274h2.252v2.274Zm0-4.547h-2.252v-2.273h2.252v2.273Zm0-4.42h-2.252V56.96h2.252v2.273Zm0-4.42h-2.252V52.54h2.252v2.273Zm0-4.548h-2.252v-2.273h2.252v2.273Zm0-4.42h-2.252v-2.273h2.252v2.273Zm0-4.42h-2.252v-2.274h2.252v2.274Zm0-4.42h-2.252v-2.274h2.252v2.273Zm0-4.547h-2.252V30.31h2.252v2.148Zm0-4.421h-2.252v-2.273h2.252v2.273Z" fill="url(#E)"/><path d="M388.318 73h-2.252v-1.768h2.252V73Zm0-3.915h-2.252V66.81h2.252v2.274Zm0-4.547h-2.252v-2.273h2.252v2.273Zm0-4.42h-2.252v-2.274h2.252v2.274Zm0-4.42h-2.252v-2.274h2.252v2.273Zm0-4.421h-2.252v-2.273h2.252v2.273Zm0-4.547h-2.252v-2.273h2.252v2.273Zm0-4.42h-2.252v-2.274h2.252v2.274Zm0-4.42h-2.252v-2.274h2.252v2.273Zm0-4.421h-2.252v-2.274h2.252v2.274Zm0-4.547h-2.252V26.65h2.252v2.273Zm0-4.42h-2.252v-2.274h2.252v2.274Zm0-4.42h-2.252v-2.274h2.252v2.273Zm0-4.547h-2.252V13.26h2.252v2.274Zm0-4.42h-2.252V8.966h2.252v2.147Zm0-4.421h-2.252V4.42h2.252v2.274Zm0-4.42h-2.252V0h2.252v2.273Z" fill="url(#F)"/><path d="M381.187 71.99h-2.251v-2.274h2.251v2.274Zm0-4.547h-2.251V65.17h2.251v2.273Zm0-4.42h-2.251v-2.274h2.251v2.273Zm0-4.42h-2.251v-2.274h2.251v2.273Zm0-4.548h-2.251v-2.273h2.251v2.273Zm0-4.42h-2.251v-2.273h2.251v2.273Zm0-4.42h-2.251V42.94h2.251v2.274Zm0-4.42h-2.251V38.52h2.251v2.273Zm0-4.548h-2.251V34.1h2.251v2.147Zm0-4.42h-2.251v-2.273h2.251v2.273Zm0-4.42h-2.251v-2.274h2.251v2.274Zm0-4.42h-2.251v-2.274h2.251v2.273Zm0-4.547h-2.251v-2.274h2.251v2.273Zm0-4.421h-2.251v-2.273h2.251v2.273Zm0-4.42h-2.251V7.325h2.251V9.6Z" fill="url(#G)"/><path d="M374.057 71.863h-2.252V69.59h2.252v2.273Zm0-4.546h-2.252v-2.274h2.252v2.274Zm0-4.42h-2.252v-2.274h2.252v2.273Zm0-4.421h-2.252v-2.274h2.252v2.274Zm0-4.547h-2.252v-2.147h2.252v2.147Zm0-4.42h-2.252v-2.274h2.252v2.274Zm0-4.42h-2.252v-2.274h2.252v2.273Zm0-4.421h-2.252v-2.273h2.252v2.273Zm0-4.547h-2.252v-2.273h2.252v2.273Zm0-4.42h-2.252v-2.274h2.252v2.274Zm0-4.42h-2.252v-2.274h2.252v2.273Zm0-4.421h-2.252v-2.273h2.252v2.273Z" fill="url(#H)"/><path d="M366.926 73h-2.252v-1.263h2.252V73Zm0-3.536h-2.252V67.19h2.252v2.274Zm0-4.42h-2.252V62.77h2.252v2.273Zm0-4.421h-2.252V58.35h2.252v2.273Zm0-4.42h-2.252v-2.274h2.252v2.273Zm0-4.547h-2.252v-2.274h2.252v2.274Zm0-4.42h-2.252v-2.274h2.252v2.273Zm0-4.421h-2.252v-2.273h2.252v2.273Z" fill="url(#I)"/><path d="M359.67 73h-2.252v-.632h2.252V73Zm0-2.778h-2.252v-2.274h2.252v2.274Zm0-4.421h-2.252v-2.273h2.252V65.8Z" fill="url(#J)"/><path d="M352.539 71.61h-2.252v-2.146h2.252v2.147Zm0-4.42h-2.252v-2.273h2.252v2.273Zm0-4.42h-2.252v-2.273h2.252v2.273Zm0-4.547h-2.252V55.95h2.252v2.273Z" fill="url(#K)"/><path d="M345.408 71.358h-2.252v-2.273h2.252v2.273Zm0-4.547h-2.252v-2.273h2.252v2.273Zm0-4.42h-2.252v-2.273h2.252v2.273Zm0-4.42h-2.252v-2.274h2.252v2.274Zm0-4.42h-2.252v-2.274h2.252v2.273Zm0-4.547h-2.252V46.73h2.252v2.274Z" fill="url(#L)"/><path d="M338.277 73h-2.252v-2.147h2.252V73Zm0-4.294h-2.252v-2.273h2.252v2.273Zm0-4.42h-2.252v-2.274h2.252v2.273Zm0-4.42h-2.252v-2.274h2.252v2.273Zm0-4.548h-2.252v-2.273h2.252v2.273Zm0-4.42h-2.252v-2.273h2.252v2.273Zm0-4.42h-2.252v-2.274h2.252v2.273Zm0-4.42h-2.252v-2.274h2.252v2.273Zm0-4.548h-2.252v-2.147h2.252v2.147Z" fill="url(#M)"/><path d="M329.02 73v-.126h2.252V73h-2.252Zm0-2.4v-2.273h2.252V70.6h-2.252Zm0-4.42v-2.274h2.252v2.274h-2.252Zm0-4.42v-2.274h2.252v2.274h-2.252Zm0-4.42v-2.274h2.252v2.273h-2.252Zm0-4.548V50.52h2.252v2.273h-2.252Zm0-4.42v-2.273h2.252v2.273h-2.252Zm0-4.42v-2.274h2.252v2.274h-2.252Zm0-4.547v-2.273h2.252v2.273h-2.252Zm0-4.42v-2.148h2.252v2.147h-2.252Zm0-4.421v-2.273h2.252v2.273h-2.252Z" fill="url(#N)"/><path d="M324.016 73h-2.252v-.758h2.252V73Zm0-3.031h-2.252v-2.273h2.252v2.273Zm0-4.42h-2.252v-2.274h2.252v2.274Zm0-4.421h-2.252v-2.273h2.252v2.273Zm0-4.42h-2.252v-2.274h2.252v2.274Zm0-4.547h-2.252v-2.273h2.252v2.273Zm0-4.42h-2.252v-2.274h2.252v2.273Zm0-4.42h-2.252v-2.274h2.252v2.273Zm0-4.548h-2.252v-2.147h2.252v2.147Zm0-4.42h-2.252V32.08h2.252v2.273Zm0-4.42h-2.252v-2.274h2.252v2.274Zm0-4.42h-2.252v-2.274h2.252v2.273Zm0-4.548h-2.252v-2.273h2.252v2.273Zm0-4.42h-2.252v-2.273h2.252v2.273Z" fill="url(#O)"/><path d="M316.885 72.621h-2.252v-2.273h2.252v2.273Zm0-4.42h-2.252v-2.274h2.252v2.274Zm0-4.547h-2.252v-2.273h2.252v2.273Zm0-4.42h-2.252V56.96h2.252v2.273Zm0-4.42h-2.252V52.54h2.252v2.273Zm0-4.548h-2.252v-2.273h2.252v2.273Zm0-4.42h-2.252v-2.273h2.252v2.273Zm0-4.42h-2.252v-2.274h2.252v2.274Zm0-4.42h-2.252v-2.274h2.252v2.273Zm0-4.547h-2.252V30.31h2.252v2.148Zm0-4.421h-2.252v-2.273h2.252v2.273Z" fill="url(#P)"/><path d="M309.754 73h-2.252v-.379h2.252V73Zm0-2.526h-2.252v-2.273h2.252v2.273Zm0-4.42h-2.252V63.78h2.252v2.274Zm0-4.42h-2.252V59.36h2.252v2.273Zm0-4.547h-2.252v-2.274h2.252v2.273Zm0-4.42h-2.252v-2.274h2.252v2.273Zm0-4.421h-2.252v-2.274h2.252v2.274Zm0-4.547h-2.252v-2.273h2.252v2.273Zm0-4.42h-2.252v-2.274h2.252v2.274Z" fill="url(#Q)"/><path d="M302.498 72.621h-2.252v-2.273h2.252v2.273Zm0-4.547h-2.252v-2.273h2.252v2.273Zm0-4.42h-2.252v-2.273h2.252v2.273Zm0-4.42h-2.252V56.96h2.252v2.274Zm0-4.547h-2.252v-2.273h2.252v2.273Zm0-4.42h-2.252v-2.274h2.252v2.273Z" fill="url(#R)"/><path d="M295.367 73h-2.252v-1.768h2.252V73Zm0-3.915h-2.252V66.81h2.252v2.274Z" fill="url(#S)"/><path d="M288.236 70.853h-2.252V68.58h2.252v2.273Zm0-4.42h-2.252v-2.274h2.252v2.273Zm0-4.42h-2.252v-2.274h2.252v2.273Zm0-4.421h-2.252v-2.274h2.252v2.274Z" fill="url(#T)"/><path d="M281.105 73h-2.251v-.253h2.251V73Zm0-2.526h-2.251v-2.273h2.251v2.273Zm0-4.42h-2.251V63.78h2.251v2.274Zm0-4.42h-2.251V59.36h2.251v2.273Zm0-4.547h-2.251v-2.274h2.251v2.273Zm0-4.42h-2.251v-2.148h2.251v2.147Zm0-4.421h-2.251v-2.274h2.251v2.274Z" fill="url(#U)"/><path d="M273.975 73h-2.252v-1.01h2.252V73Zm0-3.157h-2.252v-2.274h2.252v2.274Zm0-4.42h-2.252v-2.274h2.252v2.273Zm0-4.421h-2.252v-2.274h2.252v2.274Zm0-4.547h-2.252v-2.147h2.252v2.147Zm0-4.42h-2.252V49.76h2.252v2.274Zm0-4.42h-2.252V45.34h2.252v2.273Zm0-4.547h-2.252v-2.274h2.252v2.274Zm0-4.42h-2.252v-2.274h2.252v2.273Z" fill="url(#V)"/><path d="M266.719 70.727h-2.252v-2.274h2.252v2.274Zm0-4.42h-2.252v-2.274h2.252v2.273Zm0-4.421h-2.252v-2.274h2.252v2.274Zm0-4.547h-2.252v-2.273h2.252v2.273Zm0-4.42h-2.252v-2.274h2.252v2.274Zm0-4.42h-2.252v-2.274h2.252v2.273Zm0-4.547h-2.252v-2.274h2.252v2.274Zm0-4.42h-2.252v-2.274h2.252v2.273Zm0-4.421h-2.252v-2.274h2.252v2.274Zm0-4.42h-2.252v-2.274h2.252v2.273Zm0-4.547h-2.252v-2.147h2.252v2.147Z" fill="url(#W)"/><path d="M259.588 72.621h-2.252v-2.273h2.252v2.273Zm0-4.42h-2.252v-2.274h2.252v2.274Zm0-4.42h-2.252v-2.274h2.252v2.273Zm0-4.547h-2.252V56.96h2.252v2.274Zm0-4.42h-2.252V52.54h2.252v2.273Zm0-4.421h-2.252v-2.274h2.252v2.274Zm0-4.42h-2.252v-2.274h2.252v2.273Zm0-4.547h-2.252v-2.274h2.252v2.274Zm0-4.42h-2.252v-2.274h2.252v2.273Zm0-4.421h-2.252V30.31h2.252v2.274Zm0-4.547h-2.252v-2.273h2.252v2.273Zm0-4.42h-2.252V21.47h2.252v2.147Zm0-4.42h-2.252v-2.274h2.252v2.273Zm0-4.421h-2.252v-2.273h2.252v2.273Zm0-4.547h-2.252V8.083h2.252v2.147Zm0-4.42h-2.252V3.536h2.252V5.81Z" fill="url(#X)"/><path d="M252.457 73h-2.252v-.379h2.252V73Zm0-2.652h-2.252V68.2h2.252v2.147Zm0-4.42h-2.252v-2.274h2.252v2.273Zm0-4.421h-2.252v-2.273h2.252v2.273Zm0-4.547h-2.252v-2.273h2.252v2.273Zm0-4.42h-2.252v-2.273h2.252v2.273Zm0-4.42h-2.252v-2.274h2.252v2.273Zm0-4.421h-2.252v-2.273h2.252v2.273Zm0-4.547h-2.252V36.88h2.252v2.273Zm0-4.42h-2.252v-2.273h2.252v2.273Zm0-4.42h-2.252v-2.274h2.252v2.273Zm0-4.421h-2.252v-2.273h2.252v2.273Zm0-4.547h-2.252v-2.273h2.252v2.273Zm0-4.42h-2.252V14.65h2.252v2.274Zm0-4.42h-2.252V10.23h2.252v2.274Z" fill="url(#Y)"/><path d="M245.326 72.495h-2.252v-2.273h2.252v2.273Zm0-4.42h-2.252V65.8h2.252v2.273Zm0-4.547h-2.252v-2.274h2.252v2.274Zm0-4.42h-2.252v-2.274h2.252v2.273Zm0-4.421h-2.252v-2.273h2.252v2.273Zm0-4.42h-2.252v-2.274h2.252v2.273Zm0-4.547h-2.252v-2.274h2.252v2.274Zm0-4.42h-2.252v-2.274h2.252v2.273Zm0-4.421h-2.252v-2.273h2.252v2.273Zm0-4.42h-2.252v-2.274h2.252v2.274Zm0-4.547h-2.252v-2.274h2.252v2.274Zm0-4.42h-2.252v-2.274h2.252v2.273Z" fill="url(#Z)"/><path d="M238.195 73h-2.252v-.884h2.252V73Zm0-3.031h-2.252v-2.273h2.252v2.273Zm0-4.42h-2.252v-2.274h2.252v2.273Zm0-4.547h-2.252v-2.274h2.252v2.274Zm0-4.42h-2.252v-2.274h2.252v2.273Zm0-4.421h-2.252v-2.273h2.252v2.273Zm0-4.547h-2.252v-2.147h2.252v2.147Zm0-4.42h-2.252V40.92h2.252v2.274Zm0-4.42h-2.252V36.5h2.252v2.273Zm0-4.421h-2.252V32.08h2.252v2.273Z" fill="url(#aa)"/><path d="M228.938 73v-1.768h2.251V73h-2.251Zm0-4.041v-2.274h2.251v2.273h-2.251Zm0-4.42v-2.274h2.251v2.273h-2.251Zm0-4.421v-2.274h2.251v2.274h-2.251Z" fill="url(#ab)"/><path d="M223.934 70.727h-2.252v-2.274h2.252v2.274Zm0-4.42h-2.252v-2.274h2.252v2.273Z" fill="url(#ac)"/><path d="M216.678 70.853h-2.252V68.58h2.252v2.273Zm0-4.42h-2.252v-2.274h2.252v2.273Zm0-4.547h-2.252v-2.274h2.252v2.274Zm0-4.42h-2.252v-2.274h2.252v2.273Zm0-4.421h-2.252v-2.273h2.252v2.273Zm0-4.42h-2.252V46.35h2.252v2.274Zm0-4.547h-2.252v-2.274h2.252v2.274Zm0-4.42h-2.252v-2.274h2.252v2.273Zm0-4.421h-2.252v-2.273h2.252v2.273Zm0-4.42h-2.252v-2.274h2.252v2.274Zm0-4.547h-2.252v-2.273h2.252v2.273Z" fill="url(#ad)"/><path d="M209.547 73h-2.252v-.632h2.252V73Zm0-2.905h-2.252v-2.273h2.252v2.273Zm0-4.42h-2.252V63.4h2.252v2.274Zm0-4.42h-2.252V58.98h2.252v2.273Zm0-4.421h-2.252V54.56h2.252v2.273Zm0-4.547h-2.252v-2.273h2.252v2.273Zm0-4.42h-2.252v-2.273h2.252v2.273Zm0-4.42h-2.252v-2.274h2.252v2.273Zm0-4.421h-2.252v-2.273h2.252v2.273Z" fill="url(#ae)"/><path d="M202.416 73h-2.252v-.758h2.252V73Zm0-2.905h-2.252v-2.273h2.252v2.273Zm0-4.42h-2.252V63.4h2.252v2.274Z" fill="url(#af)"/><path d="M195.285 73h-2.252v-1.01h2.252V73Zm0-3.284h-2.252v-2.273h2.252v2.273Zm0-4.42h-2.252v-2.274h2.252v2.274Zm0-4.547h-2.252v-2.273h2.252v2.273Z" fill="url(#ag)"/><path d="M188.154 73h-2.252v-.758h2.252V73Zm0-3.031h-2.252v-2.273h2.252v2.273Zm0-4.42h-2.252v-2.274h2.252v2.273Zm0-4.421h-2.252v-2.273h2.252v2.273Zm0-4.42h-2.252v-2.274h2.252v2.274Zm0-4.547h-2.252v-2.273h2.252v2.273Zm0-4.42h-2.252v-2.274h2.252v2.273Zm0-4.421h-2.252v-2.273h2.252v2.273Zm0-4.547h-2.252v-2.147h2.252v2.147Zm0-4.42h-2.252V32.08h2.252v2.273Zm0-4.42h-2.252v-2.274h2.252v2.274Z" fill="url(#ah)"/><path d="M181.023 73h-2.251v-1.642h2.251V73Zm0-3.789h-2.251v-2.273h2.251v2.273Zm0-4.42h-2.251v-2.274h2.251v2.274Zm0-4.547h-2.251v-2.147h2.251v2.147Zm0-4.42h-2.251V53.55h2.251v2.274Zm0-4.42h-2.251V49.13h2.251v2.273Zm0-4.421h-2.251v-2.274h2.251v2.274Zm0-4.547h-2.251v-2.273h2.251v2.273Zm0-4.42h-2.251v-2.274h2.251v2.274Z" fill="url(#ai)"/><path d="M173.767 72.116h-2.251v-2.273h2.251v2.273Zm0-4.42h-2.251v-2.274h2.251v2.273Zm0-4.547h-2.251v-2.273h2.251v2.273Zm0-4.42h-2.251v-2.274h2.251v2.273Zm0-4.421h-2.251v-2.273h2.251v2.273Zm0-4.547h-2.251v-2.273h2.251v2.273Zm0-4.42h-2.251v-2.273h2.251v2.273Z" fill="url(#aj)"/><path d="M166.637 73h-2.252v-1.39h2.252V73Zm0-3.536h-2.252V67.19h2.252v2.274Zm0-4.42h-2.252V62.77h2.252v2.273Zm0-4.547h-2.252v-2.274h2.252v2.274Zm0-4.42h-2.252v-2.274h2.252v2.273Zm0-4.421h-2.252v-2.274h2.252v2.274Zm0-4.547h-2.252v-2.273h2.252v2.273Zm0-4.42h-2.252v-2.274h2.252v2.274Zm0-4.42h-2.252v-2.274h2.252v2.273Zm0-4.421h-2.252v-2.274h2.252v2.274Zm0-4.547h-2.252v-2.273h2.252V29.3Zm0-4.42h-2.252v-2.274h2.252v2.274Zm0-4.42h-2.252v-2.274h2.252v2.273Zm0-4.421h-2.252v-2.274h2.252v2.274Zm0-4.547h-2.252V9.346h2.252v2.147Zm0-4.42h-2.252V4.799h2.252v2.274Z" fill="url(#ak)"/><path d="M159.506 73h-2.252v-1.137h2.252V73Zm0-3.284h-2.252v-2.273h2.252v2.273Zm0-4.546h-2.252v-2.274h2.252v2.273Zm0-4.42h-2.252v-2.274h2.252v2.273Zm0-4.421h-2.252v-2.274h2.252v2.274Zm0-4.42h-2.252v-2.274h2.252v2.273Zm0-4.547h-2.252v-2.274h2.252v2.274Zm0-4.42h-2.252v-2.274h2.252v2.273Zm0-4.421h-2.252v-2.274h2.252v2.274Zm0-4.42h-2.252v-2.274h2.252V34.1Zm0-4.547h-2.252V27.28h2.252v2.274Zm0-4.42h-2.252V22.86h2.252v2.273Zm0-4.421h-2.252v-2.274h2.252v2.274Zm0-4.547h-2.252v-2.273h2.252v2.273Z" fill="url(#al)"/><path d="M152.375 73h-2.252v-1.263h2.252V73Zm0-3.536h-2.252V67.19h2.252v2.274Zm0-4.42h-2.252V62.77h2.252v2.273Zm0-4.421h-2.252V58.35h2.252v2.273Zm0-4.42h-2.252v-2.274h2.252v2.273Zm0-4.547h-2.252v-2.274h2.252v2.274Zm0-4.42h-2.252v-2.274h2.252v2.273Zm0-4.421h-2.252v-2.273h2.252v2.273Zm0-4.42h-2.252V36.12h2.252v2.273Zm0-4.547h-2.252v-2.274h2.252v2.274Zm0-4.42h-2.252v-2.274h2.252v2.273Z" fill="url(#am)"/><path d="M145.244 73h-2.252v-.126h2.252V73Zm0-2.273h-2.252v-2.274h2.252v2.274Zm0-4.547h-2.252v-2.273h2.252v2.273Zm0-4.42h-2.252v-2.274h2.252v2.274Zm0-4.42h-2.252v-2.274h2.252v2.273Zm0-4.548h-2.252V50.52h2.252v2.273Zm0-4.42h-2.252v-2.273h2.252v2.273Zm0-4.42h-2.252v-2.274h2.252v2.274Zm0-4.42h-2.252v-2.274h2.252v2.273Zm0-4.548h-2.252v-2.147h2.252v2.147Z" fill="url(#an)"/><path d="M138.113 73h-2.252v-2.147h2.252V73Zm0-4.294h-2.252v-2.273h2.252v2.273Zm0-4.42h-2.252v-2.274h2.252v2.273Zm0-4.547h-2.252v-2.274h2.252v2.274Zm0-4.42h-2.252v-2.274h2.252v2.273Zm0-4.421h-2.252v-2.274h2.252v2.274Zm0-4.42h-2.252v-2.274h2.252v2.273Zm0-4.547h-2.252v-2.274h2.252v2.274Z" fill="url(#ao)"/><path d="M128.856 71.484v-2.273h2.251v2.273h-2.251Zm0-4.42v-2.273h2.251v2.273h-2.251Zm0-4.547v-2.273h2.251v2.273h-2.251Zm0-4.42v-2.273h2.251v2.273h-2.251Z" fill="url(#ap)"/><path d="M123.726 73h-2.251v-.253h2.251V73Zm0-2.4h-2.251v-2.273h2.251V70.6Zm0-4.546h-2.251V63.78h2.251v2.274Z" fill="url(#aq)"/><path d="M116.596 73h-2.252v-1.39h2.252V73Zm0-3.536h-2.252V67.19h2.252v2.274Zm0-4.42h-2.252V62.77h2.252v2.273Zm0-4.547h-2.252v-2.274h2.252v2.274Zm0-4.42h-2.252v-2.274h2.252v2.273Zm0-4.421h-2.252v-2.274h2.252v2.274Z" fill="url(#ar)"/><path d="M109.465 72.242h-2.252V69.97h2.252v2.273Zm0-4.42h-2.252v-2.273h2.252v2.273Zm0-4.547h-2.252v-2.273h2.252v2.273Zm0-4.42h-2.252V56.58h2.252v2.274Zm0-4.42h-2.252V52.16h2.252v2.273Zm0-4.421h-2.252V47.74h2.252v2.274Zm0-4.547h-2.252v-2.273h2.252v2.273Zm0-4.42h-2.252v-2.274h2.252v2.274Zm0-4.42h-2.252v-2.274h2.252v2.273Zm0-4.547h-2.252v-2.274h2.252v2.274Z" fill="url(#as)"/><path d="M102.334 73h-2.252v-.253h2.252V73Zm0-2.4h-2.252v-2.273h2.252V70.6Zm0-4.546h-2.252V63.78h2.252v2.274Zm0-4.42h-2.252V59.36h2.252v2.273Zm0-4.421h-2.252v-2.274h2.252v2.274Zm0-4.42h-2.252v-2.274h2.252v2.273Zm0-4.547h-2.252v-2.274h2.252v2.274Z" fill="url(#at)"/><path d="M95.203 73h-2.252v-2.147h2.252V73Zm0-4.294h-2.252v-2.273h2.252v2.273Zm0-4.42h-2.252v-2.274h2.252v2.273Zm0-4.547h-2.252v-2.274h2.252v2.274Zm0-4.42h-2.252v-2.274h2.252v2.273Zm0-4.421h-2.252v-2.274h2.252v2.274Zm0-4.42h-2.252v-2.274h2.252v2.273Zm0-4.547h-2.252v-2.274h2.252v2.274Z" fill="url(#au)"/><path d="M88.072 70.6H85.82v-2.273h2.252V70.6Zm0-4.42H85.82v-2.273h2.252v2.273Zm0-4.42H85.82v-2.274h2.252v2.274Zm0-4.42H85.82v-2.274h2.252v2.273Z" fill="url(#av)"/><path d="M80.941 73H78.69v-1.516h2.252V73Zm0-3.663H78.69v-2.273h2.252v2.273Zm0-4.42H78.69v-2.273h2.252v2.273Zm0-4.547H78.69v-2.273h2.252v2.273Zm0-4.42H78.69v-2.274h2.252v2.274Zm0-4.42H78.69v-2.274h2.252v2.273Zm0-4.547H78.69v-2.274h2.252v2.274Zm0-4.42H78.69v-2.148h2.252v2.147Zm0-4.421H78.69v-2.274h2.252v2.274Zm0-4.42H78.69v-2.274h2.252v2.273Zm0-4.547H78.69V26.9h2.252v2.274Zm0-4.42H78.69V22.48h2.252v2.273Zm0-4.421H78.69V18.06h2.252v2.273Z" fill="url(#aw)"/><path d="M73.685 71.232h-2.252v-2.273h2.252v2.273Zm0-4.42h-2.252v-2.274h2.252v2.273Zm0-4.547h-2.252V59.99h2.252v2.274Zm0-4.42h-2.252V55.57h2.252v2.273Zm0-4.421h-2.252V51.15h2.252v2.273Zm0-4.42h-2.252V46.73h2.252v2.273Zm0-4.547h-2.252v-2.274h2.252v2.274Zm0-4.42h-2.252v-2.274h2.252v2.273Zm0-4.421h-2.252v-2.273h2.252v2.273Zm0-4.42h-2.252v-2.274h2.252v2.273Z" fill="url(#ax)"/><path d="M66.555 72.495h-2.252v-2.273h2.252v2.273Zm0-4.547h-2.252v-2.273h2.252v2.273Zm0-4.42h-2.252v-2.274h2.252v2.274Zm0-4.42h-2.252v-2.274h2.252v2.273Zm0-4.547h-2.252v-2.274h2.252v2.274Zm0-4.42h-2.252v-2.148h2.252v2.147Zm0-4.421h-2.252v-2.274h2.252v2.274Zm0-4.42h-2.252v-2.274h2.252v2.273Zm0-4.547h-2.252v-2.274h2.252v2.274Z" fill="url(#ay)"/><path d="M59.424 71.737h-2.252v-2.273h2.252v2.273Zm0-4.42h-2.252v-2.274h2.252v2.274Zm0-4.42h-2.252v-2.274h2.252v2.273Zm0-4.547h-2.252v-2.274h2.252v2.273Zm0-4.42h-2.252v-2.148h2.252v2.147Zm0-4.421h-2.252v-2.274h2.252v2.274Zm0-4.42h-2.252v-2.274h2.252v2.273Zm0-4.547h-2.252v-2.274h2.252v2.273Zm0-4.42h-2.252v-2.274h2.252v2.273Zm0-4.421h-2.252v-2.274h2.252v2.274Zm0-4.42h-2.252v-2.274h2.252v2.273Zm0-4.547h-2.252V20.46h2.252v2.274Zm0-4.42h-2.252V16.04h2.252v2.273Z" fill="url(#az)"/><path d="M52.293 70.853H50.04V68.58h2.252v2.273Zm0-4.42H50.04v-2.274h2.252v2.273Zm0-4.547H50.04v-2.274h2.252v2.274Zm0-4.42H50.04v-2.274h2.252v2.273Zm0-4.421H50.04v-2.273h2.252v2.273Zm0-4.42H50.04V46.35h2.252v2.274Zm0-4.547H50.04v-2.274h2.252v2.274Zm0-4.42H50.04v-2.274h2.252v2.273Zm0-4.421H50.04v-2.273h2.252v2.273Zm0-4.42H50.04v-2.274h2.252v2.274Zm0-4.547H50.04v-2.273h2.252v2.273Z" fill="url(#aA)"/><path d="M45.162 73H42.91v-.758h2.252V73Zm0-2.905H42.91v-2.273h2.252v2.273Zm0-4.42H42.91V63.4h2.252v2.274Z" fill="url(#aB)"/><path d="M37.906 73h-2.252v-.758h2.252V73Zm0-2.905h-2.252v-2.273h2.252v2.273Zm0-4.42h-2.252V63.4h2.252v2.274Z" fill="url(#aC)"/><path d="M30.775 72.874h-2.252v-2.147h2.252v2.147Zm0-4.42h-2.252V66.18h2.252v2.273Zm0-4.421h-2.252V61.76h2.252v2.273Zm0-4.547h-2.252v-2.273h2.252v2.273Z" fill="url(#aD)"/><path d="M23.644 71.484h-2.252v-2.273h2.252v2.273Zm0-4.42h-2.252v-2.273h2.252v2.273Zm0-4.42h-2.252V60.37h2.252v2.274Zm0-4.547h-2.252v-2.273h2.252v2.273Zm0-4.42h-2.252v-2.274h2.252v2.273Zm0-4.421h-2.252v-2.273h2.252v2.273Zm0-4.42h-2.252v-2.274h2.252v2.274Z" fill="url(#aE)"/><path d="M16.514 73h-2.252v-2.147h2.252V73Zm0-4.42h-2.252v-2.274h2.252v2.274Zm0-4.42h-2.252v-2.274h2.252v2.273Zm0-4.421h-2.252v-2.274h2.252v2.274Zm0-4.42h-2.252v-2.274h2.252v2.273Z" fill="url(#aF)"/><path d="M9.383 73H7.13v-1.01h2.252V73Zm0-3.157H7.13v-2.274h2.252v2.273Zm0-4.547H7.13v-2.147h2.252v2.147Zm0-4.42H7.13v-2.274h2.252v2.273Z" fill="url(#aG)"/><path d="M2.252 70.98H0v-2.274h2.252v2.273Zm0-4.547H0v-2.274h2.252v2.273Z" fill="url(#aH)"/><path d="M610 78.683h-2.252V76.41H610v2.273Zm0-4.42h-2.252V73H610v1.263Z" fill="url(#aI)"/><path d="M602.869 86.135h-2.252v-2.273h2.252v2.273Zm0-4.42h-2.252V79.44h2.252v2.273Zm0-4.42h-2.252V75.02h2.252v2.273Z" fill="url(#aJ)"/><path d="M595.738 91.945h-2.252V89.67h2.252v2.274Zm0-4.547h-2.252v-2.273h2.252v2.273Zm0-4.42h-2.252V80.83h2.252v2.147Zm0-4.42h-2.252v-2.274h2.252v2.273Zm0-4.421h-2.252V73h2.252v1.137Z" fill="url(#aK)"/><path d="M588.607 80.452h-2.251v-2.274h2.251v2.274Zm0-4.547h-2.251v-2.273h2.251v2.273Z" fill="url(#aL)"/><path d="M581.477 87.145h-2.252v-2.273h2.252v2.273Zm0-4.42h-2.252v-2.273h2.252v2.273Zm0-4.42h-2.252V76.03h2.252v2.273Zm0-4.547h-2.252v-.884h2.252v.884Z" fill="url(#aM)"/><path d="M574.346 98.638h-2.252v-2.273h2.252v2.273Zm0-4.42h-2.252v-2.273h2.252v2.273Zm0-4.42h-2.252v-2.274h2.252v2.274Zm0-4.547h-2.252v-2.273h2.252v2.273Zm0-4.42h-2.252v-2.274h2.252v2.273Zm0-4.421h-2.252v-2.273h2.252v2.273Z" fill="url(#aN)"/><path d="M567.09 82.472h-2.252V80.2h2.252v2.273Zm0-4.546h-2.252v-2.148h2.252v2.148Zm0-4.42h-2.252v-.632h2.252v.631Z" fill="url(#aO)"/><path d="M559.959 92.955h-2.252v-2.273h2.252v2.273Zm0-4.547h-2.252v-2.273h2.252v2.273Zm0-4.42h-2.252v-2.273h2.252v2.273Zm0-4.42h-2.252v-2.274h2.252v2.273Zm0-4.42h-2.252V73h2.252v2.147Z" fill="url(#aP)"/><path d="M552.828 103.943h-2.252v-2.273h2.252v2.273Zm0-4.547h-2.252V97.25h2.252v2.147Zm0-4.42h-2.252v-2.274h2.252v2.274Zm0-4.42h-2.252v-2.274h2.252v2.273Zm0-4.421h-2.252v-2.273h2.252v2.273Zm0-4.547h-2.252v-2.273h2.252v2.273Zm0-4.42h-2.252v-2.274h2.252v2.274Z" fill="url(#aQ)"/><path d="M545.572 102.175h-2.252v-2.274h2.252v2.274Zm0-4.42h-2.252V95.48h2.252v2.273Zm0-4.421h-2.252V91.06h2.252v2.273Zm0-4.547h-2.252v-2.273h2.252v2.273Zm0-4.42h-2.252v-2.274h2.252v2.274Zm0-4.42h-2.252v-2.274h2.252v2.273Zm0-4.421h-2.252v-2.273h2.252v2.273Z" fill="url(#aR)"/><path d="M538.441 119.73h-2.252v-2.273h2.252v2.273Zm0-4.42h-2.252v-2.274h2.252v2.274Zm0-4.421h-2.252v-2.273h2.252v2.273Zm0-4.42h-2.252v-2.273h2.252v2.273Zm0-4.547h-2.252v-2.147h2.252v2.147Zm0-4.42h-2.252v-2.274h2.252v2.274Zm0-4.42h-2.252v-2.274h2.252v2.273Zm0-4.421h-2.252v-2.273h2.252v2.273Zm0-4.547h-2.252v-2.273h2.252v2.273Zm0-4.42h-2.252V77.42h2.252v2.274Zm0-4.42h-2.252V73h2.252v2.273Z" fill="url(#aS)"/><path d="M529.184 128.192v-2.273h2.252v2.273h-2.252Zm0-4.42v-2.274h2.252v2.274h-2.252Zm0-4.421v-2.273h2.252v2.273h-2.252Zm0-4.546v-2.274h2.252v2.274h-2.252Zm0-4.421v-2.273h2.252v2.273h-2.252Zm0-4.42v-2.274h2.252v2.274h-2.252Zm0-4.421V99.27h2.252v2.273h-2.252Zm0-4.546v-2.274h2.252v2.274h-2.252Zm0-4.42v-2.274h2.252v2.273h-2.252Zm0-4.421v-2.274h2.252v2.274h-2.252Zm0-4.547v-2.273h2.252v2.273h-2.252Zm0-4.42v-2.147h2.252v2.147h-2.252Zm0-4.42V73h2.252v1.768h-2.252Z" fill="url(#aT)"/><path d="M524.18 118.846h-2.252v-2.273h2.252v2.273Zm0-4.42h-2.252v-2.274h2.252v2.274Zm0-4.421h-2.252v-2.273h2.252v2.273Zm0-4.42h-2.252v-2.274h2.252v2.274Zm0-4.547h-2.252v-2.273h2.252v2.273Zm0-4.42h-2.252v-2.274h2.252v2.274Zm0-4.42h-2.252v-2.274h2.252v2.273Zm0-4.547h-2.252v-2.274h2.252v2.273Zm0-4.42h-2.252v-2.274h2.252v2.273Zm0-4.421h-2.252v-2.274h2.252v2.274Zm0-4.42h-2.252V73h2.252v1.39Z" fill="url(#aU)"/><path d="M517.049 138.043h-2.252v-2.273h2.252v2.273Zm0-4.42h-2.252v-2.274h2.252v2.274Zm0-4.421h-2.252v-2.273h2.252v2.273Zm0-4.42h-2.252v-2.273h2.252v2.273Zm0-4.547h-2.252v-2.273h2.252v2.273Zm0-4.42h-2.252v-2.273h2.252v2.273Zm0-4.421h-2.252v-2.273h2.252v2.273Zm0-4.42h-2.252v-2.273h2.252v2.273Zm0-4.547h-2.252v-2.273h2.252v2.273Zm0-4.42h-2.252v-2.273h2.252v2.273Zm0-4.42h-2.252v-2.274h2.252v2.273Zm0-4.547h-2.252v-2.274h2.252v2.274Zm0-4.42h-2.252v-2.274h2.252v2.273Zm0-4.421h-2.252v-2.273h2.252v2.273Zm0-4.42h-2.252v-2.274h2.252v2.273Z" fill="url(#aV)"/><path d="M509.918 92.45h-2.252v-2.273h2.252v2.273Zm0-4.42h-2.252v-2.274h2.252v2.273Zm0-4.547h-2.252v-2.274h2.252v2.274Zm0-4.42h-2.252v-2.274h2.252v2.273Zm0-4.421h-2.252V73h2.252v1.642Z" fill="url(#aW)"/><path d="M502.787 107.1h-2.252v-2.273h2.252v2.273Zm0-4.42h-2.252v-2.273h2.252v2.273Zm0-4.42h-2.252v-2.274h2.252v2.273Zm0-4.547h-2.252V91.44h2.252v2.273Zm0-4.42h-2.252v-2.274h2.252v2.273Zm0-4.421h-2.252v-2.273h2.252v2.273Zm0-4.547h-2.252v-2.273h2.252v2.273Zm0-4.42h-2.252v-2.273h2.252v2.273Z" fill="url(#aX)"/><path d="M495.656 116.32h-2.252v-2.273h2.252v2.273Zm0-4.42h-2.252v-2.274h2.252v2.274Zm0-4.421h-2.252v-2.273h2.252v2.273Zm0-4.546h-2.252v-2.274h2.252v2.274Zm0-4.42h-2.252v-2.274h2.252v2.273Zm0-4.421h-2.252v-2.274h2.252v2.274Zm0-4.42h-2.252v-2.274h2.252v2.273Zm0-4.547h-2.252V82.85h2.252v2.274Zm0-4.42h-2.252V78.43h2.252v2.273Zm0-4.421h-2.252V74.01h2.252v2.274Z" fill="url(#aY)"/><path d="M488.525 106.469h-2.251v-2.273h2.251v2.273Zm0-4.421h-2.251v-2.273h2.251v2.273Zm0-4.546h-2.251v-2.274h2.251v2.274Zm0-4.42h-2.251v-2.274h2.251v2.273Zm0-4.421h-2.251v-2.273h2.251v2.273Zm0-4.547h-2.251v-2.273h2.251v2.273Zm0-4.42h-2.251V77.42h2.251v2.274Zm0-4.42h-2.251V73h2.251v2.273Z" fill="url(#aZ)"/><path d="M481.269 103.69h-2.251v-2.273h2.251v2.273Zm0-4.546h-2.251V96.87h2.251v2.274Zm0-4.42h-2.251V92.45h2.251v2.273Zm0-4.421h-2.251v-2.274h2.251v2.274Zm0-4.42h-2.251v-2.274h2.251v2.273Zm0-4.547h-2.251v-2.274h2.251v2.274Zm0-4.42h-2.251v-2.274h2.251v2.273Z" fill="url(#ba)"/><path d="M474.139 94.85h-2.252v-2.274h2.252v2.274Zm0-4.42h-2.252v-2.274h2.252v2.273Zm0-4.421h-2.252v-2.274h2.252v2.274Zm0-4.42h-2.252v-2.274h2.252v2.273Zm0-4.547h-2.252v-2.274h2.252v2.273Z" fill="url(#bb)"/><path d="M467.008 74.894h-2.252v2.274h2.252v-2.274Z" fill="url(#bc)"/><path d="M459.877 81.967h-2.252v-2.273h2.252v2.273Zm0-4.547h-2.252v-2.273h2.252v2.273Zm0-4.42h-2.252v-.126l2.252.126Z" fill="url(#bd)"/><path d="M452.621 89.419h-2.252v-2.274h2.252v2.274Zm0-4.42h-2.252v-2.274h2.252v2.273Zm0-4.547h-2.252v-2.147h2.252v2.146Zm0-4.42h-2.252v-2.274h2.252v2.273Z" fill="url(#be)"/><path d="M445.49 102.68h-2.252v-2.273h2.252v2.273Zm0-4.42h-2.252v-2.274h2.252v2.273Zm0-4.547h-2.252V91.44h2.252v2.273Zm0-4.42h-2.252v-2.274h2.252v2.273Zm0-4.421h-2.252v-2.273h2.252v2.273Zm0-4.547h-2.252v-2.273h2.252v2.273Zm0-4.42h-2.252v-2.273h2.252v2.273Z" fill="url(#bf)"/><path d="M438.359 117.204h-2.252v-2.273h2.252v2.273Zm0-4.547h-2.252v-2.273h2.252v2.273Zm0-4.42h-2.252v-2.273h2.252v2.273Zm0-4.42h-2.252v-2.274h2.252v2.274Zm0-4.547h-2.252v-2.273h2.252v2.273Zm0-4.42h-2.252v-2.274h2.252v2.274Zm0-4.42h-2.252v-2.274h2.252v2.273Zm0-4.421h-2.252v-2.274h2.252v2.274Zm0-4.547h-2.252v-2.273h2.252v2.273Zm0-4.42h-2.252v-2.274h2.252v2.273Z" fill="url(#bg)"/><path d="M429.102 78.178v-2.273h2.252v2.273h-2.252Zm0-4.42V73h2.252v.758h-2.252Z" fill="url(#bh)"/><path d="M424.098 84.367h-2.252v-2.274h2.252v2.274Zm0-4.42h-2.252v-2.274h2.252v2.273Zm0-4.421h-2.252v-2.273h2.252v2.273Z" fill="url(#bi)"/><path d="M416.967 97.123h-2.252V94.85h2.252v2.273Zm0-4.42h-2.252v-2.274h2.252v2.273Zm0-4.421h-2.252v-2.273h2.252v2.273Zm0-4.547h-2.252v-2.273h2.252v2.273Zm0-4.42h-2.252v-2.273h2.252v2.273Zm0-4.42h-2.252v-2.021h2.252v2.02Z" fill="url(#bj)"/><path d="M409.836 126.171h-2.252v-2.273h2.252v2.273Zm0-4.546h-2.252v-2.274h2.252v2.274Zm0-4.421h-2.252v-2.273h2.252v2.273Zm0-4.42h-2.252v-2.274h2.252v2.274Zm0-4.421h-2.252v-2.273h2.252v2.273Zm0-4.546h-2.252v-2.274h2.252v2.274Zm0-4.42h-2.252v-2.274h2.252v2.273Zm0-4.421h-2.252v-2.274h2.252v2.274Zm0-4.42h-2.252v-2.274h2.252v2.273Zm0-4.547h-2.252v-2.274h2.252v2.274Zm0-4.42h-2.252v-2.274h2.252v2.273Zm0-4.421h-2.252v-2.274h2.252v2.274Z" fill="url(#bk)"/><path d="M402.705 106.595h-2.252v-2.273h2.252v2.273Zm0-4.42h-2.252v-2.274h2.252v2.274Zm0-4.42h-2.252V95.48h2.252v2.273Zm0-4.421h-2.252V91.06h2.252v2.273Zm0-4.547h-2.252v-2.273h2.252v2.273Zm0-4.42h-2.252v-2.274h2.252v2.274Zm0-4.42h-2.252v-2.274h2.252v2.273Zm0-4.421h-2.252v-2.273h2.252v2.273Z" fill="url(#bl)"/><path d="M395.574 120.109h-2.252v-2.273h2.252v2.273Zm0-4.42h-2.252v-2.274h2.252v2.274Zm0-4.421h-2.252v-2.273h2.252v2.273Zm0-4.547h-2.252v-2.273h2.252v2.273Zm0-4.42h-2.252v-2.273h2.252v2.273Zm0-4.42h-2.252v-2.274h2.252v2.274Zm0-4.42h-2.252v-2.274h2.252v2.273Zm0-4.547h-2.252V86.64h2.252v2.273Zm0-4.42h-2.252V82.22h2.252v2.273Zm0-4.421h-2.252v-2.274h2.252v2.274Zm0-4.42h-2.252v-2.274h2.252v2.273Z" fill="url(#bm)"/><path d="M388.318 146h-2.252v-2.273h2.252V146Zm0-4.547h-2.252v-2.273h2.252v2.273Zm0-4.42h-2.252v-2.273h2.252v2.273Zm0-4.421h-2.252v-2.273h2.252v2.273Zm0-4.42h-2.252v-2.273h2.252v2.273Zm0-4.547h-2.252v-2.273h2.252v2.273Zm0-4.42h-2.252v-2.273h2.252v2.273Zm0-4.421h-2.252v-2.273h2.252v2.273Zm0-4.42h-2.252v-2.273h2.252v2.273Zm0-4.547h-2.252v-2.273h2.252v2.273Zm0-4.42h-2.252v-2.273h2.252v2.273Zm0-4.42h-2.252v-2.274h2.252v2.273Zm0-4.547h-2.252v-2.273h2.252v2.273Zm0-4.42h-2.252v-2.148h2.252v2.147Zm0-4.421h-2.252v-2.273h2.252v2.273Zm0-4.42h-2.252v-2.274h2.252v2.274Zm0-4.547h-2.252v-1.768h2.252v1.768Z" fill="url(#bn)"/><path d="M381.187 138.675h-2.251v-2.274h2.251v2.274Zm0-4.547h-2.251v-2.273h2.251v2.273Zm0-4.42h-2.251v-2.274h2.251v2.274Zm0-4.421h-2.251v-2.273h2.251v2.273Zm0-4.42h-2.251v-2.274h2.251v2.274Zm0-4.547h-2.251v-2.273h2.251v2.273Zm0-4.42h-2.251v-2.274h2.251v2.274Zm0-4.421h-2.251v-2.273h2.251v2.273Zm0-4.546h-2.251v-2.274h2.251v2.274Zm0-4.42h-2.251v-2.274h2.251v2.273Zm0-4.421h-2.251v-2.274h2.251v2.274Zm0-4.42h-2.251v-2.274h2.251v2.273Zm0-4.547h-2.251V82.85h2.251v2.274Zm0-4.42h-2.251V78.43h2.251v2.273Zm0-4.421h-2.251V74.01h2.251v2.274Z" fill="url(#bo)"/><path d="M374.057 125.413h-2.252v-2.273h2.252v2.273Zm0-4.42h-2.252v-2.273h2.252v2.273Zm0-4.547h-2.252v-2.273h2.252v2.273Zm0-4.42h-2.252v-2.273h2.252v2.273Zm0-4.42h-2.252v-2.274h2.252v2.274Zm0-4.547h-2.252v-2.274h2.252v2.274Zm0-4.42h-2.252v-2.274h2.252v2.273Zm0-4.421h-2.252v-2.273h2.252v2.273Zm0-4.42h-2.252v-2.274h2.252v2.274Zm0-4.547h-2.252v-2.273h2.252v2.273Zm0-4.42h-2.252v-2.274h2.252v2.273Zm0-4.421h-2.252v-2.273h2.252v2.273Z" fill="url(#bp)"/><path d="M366.926 105.458h-2.252v-2.273h2.252v2.273Zm0-4.546h-2.252v-2.274h2.252v2.274Zm0-4.42h-2.252v-2.274h2.252v2.273Zm0-4.421h-2.252v-2.273h2.252v2.273Zm0-4.547h-2.252v-2.273h2.252v2.273Zm0-4.42h-2.252V80.83h2.252v2.273Zm0-4.42h-2.252V76.41h2.252v2.273Zm0-4.421h-2.252V73h2.252v1.263Z" fill="url(#bq)"/><path d="M359.67 82.472h-2.252V80.2h2.252v2.273Zm0-4.546h-2.252v-2.148h2.252v2.148Zm0-4.42h-2.252v-.632h2.252v.631Z" fill="url(#br)"/><path d="M352.539 89.924h-2.252V87.65h2.252v2.274Zm0-4.42h-2.252V83.23h2.252v2.273Zm0-4.547h-2.252v-2.274h2.252v2.274Zm0-4.42h-2.252v-2.274h2.252v2.273Z" fill="url(#bs)"/><path d="M345.408 99.144h-2.252V96.87h2.252v2.274Zm0-4.42h-2.252V92.45h2.252v2.273Zm0-4.421h-2.252v-2.274h2.252v2.274Zm0-4.547h-2.252v-2.273h2.252v2.273Zm0-4.42h-2.252v-2.274h2.252v2.274Zm0-4.42h-2.252v-2.274h2.252v2.273Z" fill="url(#bt)"/><path d="M338.277 110.637h-2.252v-2.274h2.252v2.274Zm0-4.421h-2.252v-2.273h2.252v2.273Zm0-4.42h-2.252v-2.274h2.252v2.274Zm0-4.547h-2.252v-2.273h2.252v2.273Zm0-4.42h-2.252v-2.274h2.252v2.274Zm0-4.42h-2.252v-2.274h2.252v2.273Zm0-4.547h-2.252v-2.274h2.252v2.274Zm0-4.42h-2.252v-2.274h2.252v2.273Zm0-4.421h-2.252v-2.147h2.252v2.147Z" fill="url(#bu)"/><path d="M329.02 117.583v-2.273h2.252v2.273h-2.252Zm0-4.42v-2.274h2.252v2.274h-2.252Zm0-4.421v-2.273h2.252v2.273h-2.252Zm0-4.42v-2.274h2.252v2.274h-2.252Zm0-4.547v-2.273h2.252v2.273h-2.252Zm0-4.42V93.08h2.252v2.274h-2.252Zm0-4.42V88.66h2.252v2.273h-2.252Zm0-4.421V84.24h2.252v2.273h-2.252Zm0-4.547v-2.273h2.252v2.273h-2.252Zm0-4.42v-2.274h2.252v2.274h-2.252Zm0-4.42V73h2.252v.126h-2.252Z" fill="url(#bv)"/><path d="M324.016 131.602h-2.252v-2.273h2.252v2.273Zm0-4.42h-2.252v-2.274h2.252v2.274Zm0-4.421h-2.252v-2.273h2.252v2.273Zm0-4.546h-2.252v-2.274h2.252v2.274Zm0-4.421h-2.252v-2.273h2.252v2.273Zm0-4.42h-2.252V107.1h2.252v2.274Zm0-4.421h-2.252v-2.273h2.252v2.273Zm0-4.546h-2.252v-2.274h2.252v2.274Zm0-4.42h-2.252v-2.274h2.252v2.273Zm0-4.421h-2.252v-2.274h2.252v2.274Zm0-4.42h-2.252v-2.274h2.252v2.273Zm0-4.547h-2.252v-2.274h2.252V82.6Zm0-4.42h-2.252v-2.274h2.252v2.273Zm0-4.421h-2.252V73h2.252v.758Z" fill="url(#bw)"/><path d="M316.885 120.109h-2.252v-2.273h2.252v2.273Zm0-4.42h-2.252v-2.274h2.252v2.274Zm0-4.421h-2.252v-2.273h2.252v2.273Zm0-4.547h-2.252v-2.273h2.252v2.273Zm0-4.42h-2.252v-2.273h2.252v2.273Zm0-4.42h-2.252v-2.274h2.252v2.274Zm0-4.42h-2.252v-2.274h2.252v2.273Zm0-4.547h-2.252V86.64h2.252v2.273Zm0-4.42h-2.252V82.22h2.252v2.273Zm0-4.421h-2.252v-2.274h2.252v2.274Zm0-4.42h-2.252v-2.274h2.252v2.273Z" fill="url(#bx)"/><path d="M309.754 108.868h-2.252v-2.273h2.252v2.273Zm0-4.42h-2.252v-2.273h2.252v2.273Zm0-4.42h-2.252v-2.274h2.252v2.274Zm0-4.547h-2.252v-2.273h2.252v2.273Zm0-4.42h-2.252v-2.274h2.252v2.273Zm0-4.42h-2.252v-2.274h2.252v2.273Zm0-4.421h-2.252v-2.274h2.252v2.274Zm0-4.547h-2.252V75.4h2.252v2.273Zm0-4.42h-2.252v-.38h2.252v.38Z" fill="url(#by)"/><path d="M302.498 97.88h-2.252v-2.273h2.252v2.274Zm0-4.42h-2.252v-2.273h2.252v2.273Zm0-4.42h-2.252v-2.274h2.252v2.274Zm0-4.547h-2.252V82.22h2.252v2.273Zm0-4.42h-2.252v-2.274h2.252v2.274Zm0-4.42h-2.252v-2.274h2.252v2.273Z" fill="url(#bz)"/><path d="M295.367 79.189h-2.252v-2.274h2.252v2.274Zm0-4.42h-2.252V73h2.252v1.768Z" fill="url(#bA)"/><path d="M288.236 90.682h-2.252v-2.274h2.252v2.274Zm0-4.42h-2.252v-2.274h2.252v2.273Zm0-4.547h-2.252v-2.148h2.252v2.148Zm0-4.42h-2.252V75.02h2.252v2.273Z" fill="url(#bB)"/><path d="M281.105 99.901h-2.251v-2.273h2.251v2.273Zm0-4.42h-2.251v-2.273h2.251v2.273Zm0-4.42h-2.251v-2.274h2.251v2.274Zm0-4.42h-2.251v-2.274h2.251v2.273Zm0-4.548h-2.251V79.82h2.251v2.273Zm0-4.42h-2.251V75.4h2.251v2.273Zm0-4.42h-2.251V73h2.251v.253Z" fill="url(#bC)"/><path d="M273.975 109.5h-2.252v-2.147h2.252v2.147Zm0-4.42h-2.252v-2.274h2.252v2.274Zm0-4.421h-2.252v-2.273h2.252v2.273Zm0-4.547h-2.252V93.84h2.252v2.273Zm0-4.42h-2.252v-2.273h2.252v2.273Zm0-4.42h-2.252v-2.274h2.252v2.274Zm0-4.42h-2.252v-2.274h2.252v2.273Zm0-4.547h-2.252V76.03h2.252v2.273Zm0-4.42h-2.252v-1.011h2.252v1.01Z" fill="url(#bD)"/><path d="M266.719 122.003h-2.252v-2.273h2.252v2.273Zm0-4.42h-2.252v-2.273h2.252v2.273Zm0-4.547h-2.252v-2.273h2.252v2.273Zm0-4.42h-2.252v-2.273h2.252v2.273Zm0-4.421h-2.252v-2.273h2.252v2.273Zm0-4.42h-2.252v-2.273h2.252v2.273Zm0-4.547h-2.252v-2.273h2.252v2.273Zm0-4.42h-2.252v-2.273h2.252v2.273Zm0-4.42h-2.252v-2.274h2.252v2.273Zm0-4.42h-2.252v-2.274h2.252v2.273Zm0-4.548h-2.252v-2.273h2.252v2.273Z" fill="url(#bE)"/><path d="M259.588 142.337h-2.252v-2.147h2.252v2.147Zm0-4.42h-2.252v-2.273h2.252v2.273Zm0-4.42h-2.252v-2.274h2.252v2.274Zm0-4.421h-2.252v-2.273h2.252v2.273Zm0-4.547h-2.252v-2.273h2.252v2.273Zm0-4.42h-2.252v-2.273h2.252v2.273Zm0-4.42h-2.252v-2.274h2.252v2.274Zm0-4.547h-2.252v-2.273h2.252v2.273Zm0-4.421h-2.252v-2.273h2.252v2.273Zm0-4.42h-2.252v-2.273h2.252v2.273Zm0-4.42h-2.252v-2.274h2.252v2.274Zm0-4.547h-2.252V91.06h2.252v2.273Zm0-4.42h-2.252V86.64h2.252v2.273Zm0-4.42h-2.252V82.22h2.252v2.273Zm0-4.421h-2.252v-2.274h2.252v2.274Zm0-4.547h-2.252v-2.273h2.252v2.273Z" fill="url(#bF)"/><path d="M252.457 135.77h-2.252v-2.273h2.252v2.273Zm0-4.547h-2.252v-2.273h2.252v2.273Zm0-4.42h-2.252v-2.274h2.252v2.274Zm0-4.421h-2.252v-2.273h2.252v2.273Zm0-4.42h-2.252v-2.273h2.252v2.273Zm0-4.547h-2.252v-2.273h2.252v2.273Zm0-4.42h-2.252v-2.274h2.252v2.274Zm0-4.421h-2.252v-2.273h2.252v2.273Zm0-4.546h-2.252v-2.274h2.252v2.274Zm0-4.42h-2.252V93.46h2.252v2.147Zm0-4.421h-2.252v-2.273h2.252v2.273Zm0-4.42h-2.252v-2.274h2.252v2.273Zm0-4.547h-2.252v-2.274h2.252v2.274Zm0-4.42h-2.252v-2.274h2.252v2.273Zm0-4.421h-2.252V73h2.252v.379Z" fill="url(#bG)"/><path d="M245.326 124.656h-2.252v-2.147h2.252v2.147Zm0-4.421h-2.252v-2.273h2.252v2.273Zm0-4.42h-2.252v-2.273h2.252v2.273Zm0-4.421h-2.252v-2.273h2.252v2.273Zm0-4.546h-2.252v-2.274h2.252v2.274Zm0-4.421h-2.252v-2.273h2.252v2.273Zm0-4.42h-2.252v-2.273h2.252v2.273Zm0-4.42h-2.252v-2.274h2.252v2.273Zm0-4.547h-2.252v-2.274h2.252v2.274Zm0-4.42h-2.252v-2.274h2.252v2.273Zm0-4.421h-2.252v-2.273h2.252v2.273Zm0-4.547h-2.252V73.38h2.252v2.273Z" fill="url(#bH)"/><path d="M238.195 113.92h-2.252v-2.273h2.252v2.273Zm0-4.42h-2.252v-2.273h2.252v2.273Zm0-4.547h-2.252v-2.273h2.252v2.273Zm0-4.42h-2.252V98.26h2.252v2.273Zm0-4.42h-2.252v-2.274h2.252v2.273Zm0-4.547h-2.252v-2.274h2.252v2.274Zm0-4.42h-2.252v-2.274h2.252v2.273Zm0-4.421h-2.252v-2.273h2.252v2.273Zm0-4.42h-2.252V76.03h2.252v2.273Zm0-4.547h-2.252v-.884h2.252v.884Z" fill="url(#bI)"/><path d="M228.938 88.156v-2.274h2.251v2.274h-2.251Zm0-4.547v-2.273h2.251v2.273h-2.251Zm0-4.42v-2.274h2.251v2.274h-2.251Zm0-4.42V73h2.251v1.768h-2.251Z" fill="url(#bJ)"/><path d="M223.934 81.967h-2.252v-2.273h2.252v2.273Zm0-4.547h-2.252v-2.273h2.252v2.273Z" fill="url(#bK)"/><path d="M216.678 121.877h-2.252v-2.273h2.252v2.273Zm0-4.42h-2.252v-2.274h2.252v2.274Zm0-4.421h-2.252v-2.273h2.252v2.273Zm0-4.546h-2.252v-2.274h2.252v2.274Zm0-4.421h-2.252v-2.273h2.252v2.273Zm0-4.42h-2.252v-2.274h2.252v2.274Zm0-4.547h-2.252V92.83h2.252v2.273Zm0-4.42h-2.252v-2.274h2.252v2.274Zm0-4.42h-2.252v-2.274h2.252v2.273Zm0-4.421h-2.252v-2.273h2.252v2.273Zm0-4.547h-2.252v-2.273h2.252v2.273Z" fill="url(#bL)"/><path d="M209.547 109.247h-2.252v-2.273h2.252v2.273Zm0-4.42h-2.252v-2.273h2.252v2.273Zm0-4.547h-2.252v-2.273h2.252v2.273Zm0-4.42h-2.252v-2.273h2.252v2.273Zm0-4.42h-2.252v-2.274h2.252v2.273Zm0-4.42h-2.252v-2.274h2.252v2.273Zm0-4.548h-2.252V80.2h2.252v2.273Zm0-4.42h-2.252v-2.273h2.252v2.273Zm0-4.42h-2.252V73h2.252v.632Z" fill="url(#bM)"/><path d="M202.416 82.599h-2.252v-2.274h2.252V82.6Zm0-4.42h-2.252v-2.274h2.252v2.273Zm0-4.547h-2.252v-.758h2.252v.758Z" fill="url(#bN)"/><path d="M195.285 87.398h-2.252v-2.273h2.252v2.273Zm0-4.42h-2.252v-2.274h2.252v2.274Zm0-4.547h-2.252v-2.274h2.252v2.274Zm0-4.42h-2.252v-1.137h2.252v1.136Z" fill="url(#bO)"/><path d="M188.154 118.215h-2.252v-2.274h2.252v2.274Zm0-4.421h-2.252v-2.273h2.252v2.273Zm0-4.42h-2.252V107.1h2.252v2.274Zm0-4.421h-2.252v-2.273h2.252v2.273Zm0-4.546h-2.252v-2.274h2.252v2.274Zm0-4.42h-2.252v-2.274h2.252v2.273Zm0-4.421h-2.252v-2.274h2.252v2.274Zm0-4.42h-2.252v-2.274h2.252v2.273Zm0-4.547h-2.252v-2.274h2.252V82.6Zm0-4.42h-2.252v-2.274h2.252v2.273Zm0-4.421h-2.252V73h2.252v.758Z" fill="url(#bP)"/><path d="M181.023 110.131h-2.251v-2.273h2.251v2.273Zm0-4.42h-2.251v-2.273h2.251v2.273Zm0-4.42h-2.251v-2.274h2.251v2.274Zm0-4.42h-2.251v-2.274h2.251v2.273Zm0-4.547h-2.251V90.05h2.251v2.273Zm0-4.42h-2.251V85.63h2.251v2.273Zm0-4.421h-2.251v-2.274h2.251v2.274Zm0-4.547h-2.251v-2.273h2.251v2.273Zm0-4.42h-2.251v-1.642h2.251v1.642Z" fill="url(#bQ)"/><path d="M173.893 102.806h-2.252v-2.273h2.252v2.273Zm0-4.42h-2.252v-2.273h2.252v2.273Zm0-4.42h-2.252v-2.274h2.252v2.273Zm0-4.547h-2.252v-2.274h2.252v2.274Zm0-4.42h-2.252v-2.274h2.252v2.273Zm0-4.421h-2.252v-2.273h2.252v2.273Zm0-4.42h-2.252v-2.274h2.252v2.273Z" fill="url(#bR)"/><path d="M166.637 141.074h-2.252v-2.147h2.252v2.147Zm0-4.42h-2.252v-2.273h2.252v2.273Zm0-4.42h-2.252v-2.274h2.252v2.274Zm0-4.421h-2.252v-2.273h2.252v2.273Zm0-4.547h-2.252v-2.273h2.252v2.273Zm0-4.42h-2.252v-2.273h2.252v2.273Zm0-4.42h-2.252v-2.274h2.252v2.274Zm0-4.421h-2.252v-2.273h2.252v2.273Zm0-4.547h-2.252v-2.273h2.252v2.273Zm0-4.42h-2.252v-2.273h2.252v2.273Zm0-4.42h-2.252v-2.274h2.252v2.274Zm0-4.547h-2.252v-2.273h2.252v2.273Zm0-4.42h-2.252v-2.274h2.252v2.273Zm0-4.42h-2.252v-2.274h2.252v2.273Zm0-4.421h-2.252v-2.274h2.252v2.274Zm0-4.547h-2.252v-1.39h2.252v1.39Z" fill="url(#bS)"/><path d="M159.506 131.981h-2.252v-2.273h2.252v2.273Zm0-4.42h-2.252v-2.274h2.252v2.274Zm0-4.547h-2.252v-2.274h2.252v2.274Zm0-4.421h-2.252v-2.273h2.252v2.273Zm0-4.42h-2.252V111.9h2.252v2.273Zm0-4.42h-2.252v-2.274h2.252v2.274Zm0-4.547h-2.252v-2.273h2.252v2.273Zm0-4.421h-2.252v-2.273h2.252v2.273Zm0-4.42h-2.252v-2.273h2.252v2.273Zm0-4.42h-2.252V89.67h2.252v2.274Zm0-4.547h-2.252v-2.273h2.252v2.273Zm0-4.42h-2.252v-2.274h2.252v2.274Zm0-4.42h-2.252v-2.274h2.252v2.273Zm0-4.548h-2.252v-1.136h2.252v1.136Z" fill="url(#bT)"/><path d="M152.375 118.72h-2.252v-2.274h2.252v2.274Zm0-4.421h-2.252v-2.273h2.252v2.273Zm0-4.42h-2.252v-2.273h2.252v2.273Zm0-4.421h-2.252v-2.273h2.252v2.273Zm0-4.546h-2.252v-2.274h2.252v2.274Zm0-4.42h-2.252v-2.274h2.252v2.273Zm0-4.421h-2.252v-2.273h2.252v2.273Zm0-4.42h-2.252v-2.274h2.252v2.273Zm0-4.547h-2.252V80.83h2.252v2.273Zm0-4.42h-2.252V76.41h2.252v2.273Zm0-4.421h-2.252V73h2.252v1.263Z" fill="url(#bU)"/><path d="M145.244 113.163h-2.252v-2.274h2.252v2.274Zm0-4.421h-2.252v-2.273h2.252v2.273Zm0-4.42h-2.252v-2.274h2.252v2.274Zm0-4.547h-2.252v-2.273h2.252v2.273Zm0-4.42h-2.252V93.08h2.252v2.274Zm0-4.42h-2.252V88.66h2.252v2.273Zm0-4.547h-2.252v-2.274h2.252v2.274Zm0-4.42h-2.252v-2.274h2.252v2.273Zm0-4.421h-2.252v-2.274h2.252v2.274Zm0-4.42h-2.252V73h2.252v.126Z" fill="url(#bV)"/><path d="M138.113 106.216h-2.252v-2.273h2.252v2.273Zm0-4.42h-2.252v-2.274h2.252v2.274Zm0-4.42h-2.252v-2.274h2.252v2.273Zm0-4.547h-2.252v-2.274h2.252v2.274Zm0-4.42h-2.252v-2.274h2.252v2.273Zm0-4.421h-2.252v-2.273h2.252v2.273Zm0-4.42h-2.252v-2.274h2.252v2.273Zm0-4.547h-2.252v-2.147h2.252v2.147Z" fill="url(#bW)"/><path d="M128.856 90.05v-2.273h2.251v2.273h-2.251Zm0-4.42v-2.274h2.251v2.274h-2.251Zm0-4.42v-2.274h2.251v2.273h-2.251Zm0-4.547v-2.147h2.251v2.147h-2.251Z" fill="url(#bX)"/><path d="M123.726 82.093h-2.251V79.82h2.251v2.273Zm0-4.42h-2.251V75.4h2.251v2.273Zm0-4.547h-2.251v-.252h2.251v.252Z" fill="url(#bY)"/><path d="M116.596 96.618h-2.252v-2.274h2.252v2.274Zm0-4.547h-2.252v-2.273h2.252v2.273Zm0-4.42h-2.252v-2.274h2.252v2.273Zm0-4.42h-2.252v-2.274h2.252v2.273Zm0-4.421h-2.252v-2.274h2.252v2.274Zm0-4.547h-2.252v-1.39h2.252v1.39Z" fill="url(#bZ)"/><path d="M109.465 116.067h-2.252v-2.273h2.252v2.273Zm0-4.42h-2.252v-2.273h2.252v2.273Zm0-4.547h-2.252v-2.273h2.252v2.273Zm0-4.42h-2.252v-2.273h2.252v2.273Zm0-4.42h-2.252v-2.274h2.252v2.273Zm0-4.42h-2.252v-2.274h2.252v2.273Zm0-4.548h-2.252v-2.147h2.252v2.147Zm0-4.42h-2.252v-2.273h2.252v2.273Zm0-4.42h-2.252v-2.274h2.252v2.273Zm0-4.42h-2.252v-2.274h2.252v2.273Z" fill="url(#ca)"/><path d="M102.334 99.901h-2.252v-2.273h2.252v2.273Zm0-4.42h-2.252v-2.273h2.252v2.273Zm0-4.42h-2.252v-2.274h2.252v2.273Zm0-4.547h-2.252V84.24h2.252v2.273Zm0-4.42h-2.252V79.82h2.252v2.273Zm0-4.421h-2.252V75.4h2.252v2.273Zm0-4.547h-2.252v-.252h2.252v.252Z" fill="url(#cb)"/><path d="M95.203 106.216h-2.252v-2.273h2.252v2.273Zm0-4.42h-2.252v-2.274h2.252v2.274Zm0-4.42h-2.252v-2.274h2.252v2.273Zm0-4.547h-2.252v-2.274h2.252v2.274Zm0-4.42h-2.252v-2.274h2.252v2.273Zm0-4.421h-2.252v-2.273h2.252v2.273Zm0-4.42h-2.252v-2.274h2.252v2.273Zm0-4.547h-2.252v-2.147h2.252v2.147Z" fill="url(#cc)"/><path d="M88.072 90.934H85.82v-2.273h2.252v2.273Zm0-4.42H85.82V84.24h2.252v2.273Zm0-4.547H85.82v-2.273h2.252v2.273Zm0-4.42H85.82v-2.274h2.252v2.274Z" fill="url(#cd)"/><path d="M80.941 127.939H78.69v-2.273h2.252v2.273Zm0-4.546H78.69v-2.147h2.252v2.147Zm0-4.421H78.69v-2.273h2.252v2.273Zm0-4.42H78.69v-2.273h2.252v2.273Zm0-4.421H78.69v-2.273h2.252v2.273Zm0-4.546H78.69v-2.274h2.252v2.274Zm0-4.421H78.69v-2.273h2.252v2.273Zm0-4.42H78.69V94.47h2.252v2.273Zm0-4.547H78.69v-2.273h2.252v2.273Zm0-4.42H78.69v-2.274h2.252v2.274Zm0-4.42H78.69v-2.274h2.252v2.273Zm0-4.421H78.69v-2.273h2.252v2.273Zm0-4.547H78.69v-1.515h2.252v1.515Z" fill="url(#ce)"/><path d="M73.685 117.078h-2.252v-2.273h2.252v2.273Zm0-4.421h-2.252v-2.273h2.252v2.273Zm0-4.546h-2.252v-2.274h2.252v2.274Zm0-4.421h-2.252v-2.273h2.252v2.273Zm0-4.42h-2.252v-2.273h2.252v2.273Zm0-4.42h-2.252v-2.274h2.252v2.274Zm0-4.547h-2.252v-2.274h2.252v2.274Zm0-4.42h-2.252v-2.274h2.252v2.273Zm0-4.421h-2.252v-2.273h2.252v2.273Zm0-4.547h-2.252v-2.273h2.252v2.273Z" fill="url(#cf)"/><path d="M66.555 111.394h-2.252v-2.273h2.252v2.273Zm0-4.42h-2.252v-2.273h2.252v2.273Zm0-4.547h-2.252v-2.273h2.252v2.273Zm0-4.42h-2.252v-2.273h2.252v2.273Zm0-4.42h-2.252v-2.274h2.252v2.273Zm0-4.42h-2.252v-2.274h2.252v2.273Zm0-4.548h-2.252v-2.273h2.252v2.273Zm0-4.42h-2.252v-2.273h2.252v2.273Zm0-4.42h-2.252v-2.274h2.252v2.273Z" fill="url(#cg)"/><path d="M59.424 129.834h-2.252v-2.273h2.252v2.273Zm0-4.421h-2.252v-2.273h2.252v2.273Zm0-4.42h-2.252v-2.273h2.252v2.273Zm0-4.42h-2.252v-2.274h2.252v2.274Zm0-4.547h-2.252v-2.147h2.252v2.147Zm0-4.42h-2.252v-2.274h2.252v2.274Zm0-4.421h-2.252v-2.273h2.252v2.273Zm0-4.42h-2.252V96.49h2.252v2.274Zm0-4.547h-2.252v-2.273h2.252v2.273Zm0-4.42h-2.252v-2.274h2.252v2.274Zm0-4.42h-2.252v-2.274h2.252v2.273Zm0-4.548h-2.252v-2.273h2.252v2.273Zm0-4.42h-2.252v-2.273h2.252v2.273Z" fill="url(#ch)"/><path d="M52.293 121.877H50.04v-2.273h2.252v2.273Zm0-4.42H50.04v-2.274h2.252v2.274Zm0-4.421H50.04v-2.273h2.252v2.273Zm0-4.546H50.04v-2.274h2.252v2.274Zm0-4.421H50.04v-2.273h2.252v2.273Zm0-4.42H50.04v-2.274h2.252v2.274Zm0-4.547H50.04V92.83h2.252v2.273Zm0-4.42H50.04v-2.274h2.252v2.274Zm0-4.42H50.04v-2.274h2.252v2.273Zm0-4.421H50.04v-2.273h2.252v2.273Zm0-4.547H50.04v-2.273h2.252v2.273Z" fill="url(#ci)"/><path d="M45.162 82.599H42.91v-2.274h2.252V82.6Zm0-4.42H42.91v-2.274h2.252v2.273Zm0-4.547H42.91v-.758h2.252v.758Z" fill="url(#cj)"/><path d="M37.906 82.599h-2.252v-2.274h2.252V82.6Zm0-4.42h-2.252v-2.274h2.252v2.273Zm0-4.547h-2.252v-.758h2.252v.758Z" fill="url(#ck)"/><path d="M30.775 90.66h-2.252v-2.272h2.252v2.273Zm0-4.42h-2.252v-2.273h2.252v2.273Zm0-4.42h-2.252v-2.273h2.252v2.273Zm0-4.547h-2.252V75h2.252v2.273Z" fill="url(#cl)"/><path d="M23.644 103.438h-2.252v-2.274h2.252v2.274Zm0-4.547h-2.252v-2.273h2.252v2.273Zm0-4.42h-2.252v-2.274h2.252v2.274Zm0-4.42h-2.252v-2.274h2.252v2.273Zm0-4.421h-2.252v-2.274h2.252v2.274Zm0-4.547h-2.252V78.81h2.252v2.273Zm0-4.42h-2.252v-2.274h2.252v2.274Z" fill="url(#cm)"/><path d="M16.514 92.955h-2.252v-2.273h2.252v2.273Zm0-4.42h-2.252V86.26h2.252v2.274Zm0-4.547h-2.252v-2.273h2.252v2.273Zm0-4.42h-2.252v-2.274h2.252v2.273Zm0-4.42h-2.252V73h2.252v2.147Z" fill="url(#cn)"/><path d="M9.383 87.272H7.13v-2.274h2.252v2.274Zm0-4.42H7.13v-2.274h2.252v2.273Zm0-4.421H7.13v-2.273h2.252v2.273Zm0-4.42H7.13V73h2.252v1.01Z" fill="url(#co)"/><path d="M2.252 81.715H0V79.44h2.252v2.273Zm0-4.42H0V75.02h2.252v2.273Z" fill="url(#cp)"/></g><defs><linearGradient id="a" x1="0" y1="80.3" x2="590.292" y2="80.3" gradientUnits="userSpaceOnUse"><stop stop-color="#1A7F72" stop-opacity=".46"/><stop offset="1" stop-color="#1A7F72" stop-opacity="0"/></linearGradient><linearGradient id="b" x1="0" y1="80.3" x2="590.292" y2="80.3" gradientUnits="userSpaceOnUse"><stop stop-color="#1A7F72" stop-opacity=".46"/><stop offset="1" stop-color="#1A7F72" stop-opacity="0"/></linearGradient><linearGradient id="c" x1="0" y1="80.3" x2="590.292" y2="80.3" gradientUnits="userSpaceOnUse"><stop stop-color="#1A7F72" stop-opacity=".46"/><stop offset="1" stop-color="#1A7F72" stop-opacity="0"/></linearGradient><linearGradient id="d" x1="0" y1="80.3" x2="590.292" y2="80.3" gradientUnits="userSpaceOnUse"><stop stop-color="#1A7F72" stop-opacity=".46"/><stop offset="1" stop-color="#1A7F72" stop-opacity="0"/></linearGradient><linearGradient id="e" x1="0" y1="80.3" x2="590.292" y2="80.3" gradientUnits="userSpaceOnUse"><stop stop-color="#1A7F72" stop-opacity=".46"/><stop offset="1" stop-color="#1A7F72" stop-opacity="0"/></linearGradient><linearGradient id="f" x1="0" y1="80.3" x2="590.292" y2="80.3" gradientUnits="userSpaceOnUse"><stop stop-color="#1A7F72" stop-opacity=".46"/><stop offset="1" stop-color="#1A7F72" stop-opacity="0"/></linearGradient><linearGradient id="g" x1="0" y1="80.3" x2="590.292" y2="80.3" gradientUnits="userSpaceOnUse"><stop stop-color="#1A7F72" stop-opacity=".46"/><stop offset="1" stop-color="#1A7F72" stop-opacity="0"/></linearGradient><linearGradient id="h" x1="0" y1="80.3" x2="590.292" y2="80.3" gradientUnits="userSpaceOnUse"><stop stop-color="#1A7F72" stop-opacity=".46"/><stop offset="1" stop-color="#1A7F72" stop-opacity="0"/></linearGradient><linearGradient id="i" x1="0" y1="80.3" x2="590.292" y2="80.3" gradientUnits="userSpaceOnUse"><stop stop-color="#1A7F72" stop-opacity=".46"/><stop offset="1" stop-color="#1A7F72" stop-opacity="0"/></linearGradient><linearGradient id="j" x1="0" y1="80.3" x2="590.292" y2="80.3" gradientUnits="userSpaceOnUse"><stop stop-color="#1A7F72" stop-opacity=".46"/><stop offset="1" stop-color="#1A7F72" stop-opacity="0"/></linearGradient><linearGradient id="k" x1="0" y1="80.3" x2="590.292" y2="80.3" gradientUnits="userSpaceOnUse"><stop stop-color="#1A7F72" stop-opacity=".46"/><stop offset="1" stop-color="#1A7F72" stop-opacity="0"/></linearGradient><linearGradient id="l" x1="0" y1="80.3" x2="590.292" y2="80.3" gradientUnits="userSpaceOnUse"><stop stop-color="#1A7F72" stop-opacity=".46"/><stop offset="1" stop-color="#1A7F72" stop-opacity="0"/></linearGradient><linearGradient id="m" x1="0" y1="80.3" x2="590.292" y2="80.3" gradientUnits="userSpaceOnUse"><stop stop-color="#1A7F72" stop-opacity=".46"/><stop offset="1" stop-color="#1A7F72" stop-opacity="0"/></linearGradient><linearGradient id="n" x1="0" y1="80.3" x2="590.292" y2="80.3" gradientUnits="userSpaceOnUse"><stop stop-color="#1A7F72" stop-opacity=".46"/><stop offset="1" stop-color="#1A7F72" stop-opacity="0"/></linearGradient><linearGradient id="o" x1="0" y1="80.3" x2="590.292" y2="80.3" gradientUnits="userSpaceOnUse"><stop stop-color="#1A7F72" stop-opacity=".46"/><stop offset="1" stop-color="#1A7F72" stop-opacity="0"/></linearGradient><linearGradient id="p" x1="0" y1="80.3" x2="590.292" y2="80.3" gradientUnits="userSpaceOnUse"><stop stop-color="#1A7F72" stop-opacity=".46"/><stop offset="1" stop-color="#1A7F72" stop-opacity="0"/></linearGradient><linearGradient id="q" x1="0" y1="80.3" x2="590.292" y2="80.3" gradientUnits="userSpaceOnUse"><stop stop-color="#1A7F72" stop-opacity=".46"/><stop offset="1" stop-color="#1A7F72" stop-opacity="0"/></linearGradient><linearGradient id="r" x1="0" y1="80.3" x2="590.292" y2="80.3" gradientUnits="userSpaceOnUse"><stop stop-color="#1A7F72" stop-opacity=".46"/><stop offset="1" stop-color="#1A7F72" stop-opacity="0"/></linearGradient><linearGradient id="s" x1="0" y1="80.3" x2="590.292" y2="80.3" gradientUnits="userSpaceOnUse"><stop stop-color="#1A7F72" stop-opacity=".46"/><stop offset="1" stop-color="#1A7F72" stop-opacity="0"/></linearGradient><linearGradient id="t" x1="0" y1="80.3" x2="590.292" y2="80.3" gradientUnits="userSpaceOnUse"><stop stop-color="#1A7F72" stop-opacity=".46"/><stop offset="1" stop-color="#1A7F72" stop-opacity="0"/></linearGradient><linearGradient id="u" x1="0" y1="80.3" x2="590.292" y2="80.3" gradientUnits="userSpaceOnUse"><stop stop-color="#1A7F72" stop-opacity=".46"/><stop offset="1" stop-color="#1A7F72" stop-opacity="0"/></linearGradient><linearGradient id="v" x1="0" y1="80.3" x2="590.292" y2="80.3" gradientUnits="userSpaceOnUse"><stop stop-color="#1A7F72" stop-opacity=".46"/><stop offset="1" stop-color="#1A7F72" stop-opacity="0"/></linearGradient><linearGradient id="w" x1="0" y1="80.3" x2="590.292" y2="80.3" gradientUnits="userSpaceOnUse"><stop stop-color="#1A7F72" stop-opacity=".46"/><stop offset="1" stop-color="#1A7F72" stop-opacity="0"/></linearGradient><linearGradient id="x" x1="0" y1="80.3" x2="590.292" y2="80.3" gradientUnits="userSpaceOnUse"><stop stop-color="#1A7F72" stop-opacity=".46"/><stop offset="1" stop-color="#1A7F72" stop-opacity="0"/></linearGradient><linearGradient id="y" x1="0" y1="80.3" x2="590.292" y2="80.3" gradientUnits="userSpaceOnUse"><stop stop-color="#1A7F72" stop-opacity=".46"/><stop offset="1" stop-color="#1A7F72" stop-opacity="0"/></linearGradient><linearGradient id="z" x1="0" y1="80.3" x2="590.292" y2="80.3" gradientUnits="userSpaceOnUse"><stop stop-color="#1A7F72" stop-opacity=".46"/><stop offset="1" stop-color="#1A7F72" stop-opacity="0"/></linearGradient><linearGradient id="A" x1="0" y1="80.3" x2="590.292" y2="80.3" gradientUnits="userSpaceOnUse"><stop stop-color="#1A7F72" stop-opacity=".46"/><stop offset="1" stop-color="#1A7F72" stop-opacity="0"/></linearGradient><linearGradient id="B" x1="0" y1="80.3" x2="590.292" y2="80.3" gradientUnits="userSpaceOnUse"><stop stop-color="#1A7F72" stop-opacity=".46"/><stop offset="1" stop-color="#1A7F72" stop-opacity="0"/></linearGradient><linearGradient id="C" x1="0" y1="80.3" x2="590.292" y2="80.3" gradientUnits="userSpaceOnUse"><stop stop-color="#1A7F72" stop-opacity=".46"/><stop offset="1" stop-color="#1A7F72" stop-opacity="0"/></linearGradient><linearGradient id="D" x1="0" y1="80.3" x2="590.292" y2="80.3" gradientUnits="userSpaceOnUse"><stop stop-color="#1A7F72" stop-opacity=".46"/><stop offset="1" stop-color="#1A7F72" stop-opacity="0"/></linearGradient><linearGradient id="E" x1="0" y1="80.3" x2="590.292" y2="80.3" gradientUnits="userSpaceOnUse"><stop stop-color="#1A7F72" stop-opacity=".46"/><stop offset="1" stop-color="#1A7F72" stop-opacity="0"/></linearGradient><linearGradient id="F" x1="0" y1="80.3" x2="590.292" y2="80.3" gradientUnits="userSpaceOnUse"><stop stop-color="#1A7F72" stop-opacity=".46"/><stop offset="1" stop-color="#1A7F72" stop-opacity="0"/></linearGradient><linearGradient id="G" x1="0" y1="80.3" x2="590.292" y2="80.3" gradientUnits="userSpaceOnUse"><stop stop-color="#1A7F72" stop-opacity=".46"/><stop offset="1" stop-color="#1A7F72" stop-opacity="0"/></linearGradient><linearGradient id="H" x1="0" y1="80.3" x2="590.292" y2="80.3" gradientUnits="userSpaceOnUse"><stop stop-color="#1A7F72" stop-opacity=".46"/><stop offset="1" stop-color="#1A7F72" stop-opacity="0"/></linearGradient><linearGradient id="I" x1="0" y1="80.3" x2="590.292" y2="80.3" gradientUnits="userSpaceOnUse"><stop stop-color="#1A7F72" stop-opacity=".46"/><stop offset="1" stop-color="#1A7F72" stop-opacity="0"/></linearGradient><linearGradient id="J" x1="0" y1="80.3" x2="590.292" y2="80.3" gradientUnits="userSpaceOnUse"><stop stop-color="#1A7F72" stop-opacity=".46"/><stop offset="1" stop-color="#1A7F72" stop-opacity="0"/></linearGradient><linearGradient id="K" x1="0" y1="80.3" x2="590.292" y2="80.3" gradientUnits="userSpaceOnUse"><stop stop-color="#1A7F72" stop-opacity=".46"/><stop offset="1" stop-color="#1A7F72" stop-opacity="0"/></linearGradient><linearGradient id="L" x1="0" y1="80.3" x2="590.292" y2="80.3" gradientUnits="userSpaceOnUse"><stop stop-color="#1A7F72" stop-opacity=".46"/><stop offset="1" stop-color="#1A7F72" stop-opacity="0"/></linearGradient><linearGradient id="M" x1="0" y1="80.3" x2="590.292" y2="80.3" gradientUnits="userSpaceOnUse"><stop stop-color="#1A7F72" stop-opacity=".46"/><stop offset="1" stop-color="#1A7F72" stop-opacity="0"/></linearGradient><linearGradient id="N" x1="0" y1="80.3" x2="590.292" y2="80.3" gradientUnits="userSpaceOnUse"><stop stop-color="#1A7F72" stop-opacity=".46"/><stop offset="1" stop-color="#1A7F72" stop-opacity="0"/></linearGradient><linearGradient id="O" x1="0" y1="80.3" x2="590.292" y2="80.3" gradientUnits="userSpaceOnUse"><stop stop-color="#1A7F72" stop-opacity=".46"/><stop offset="1" stop-color="#1A7F72" stop-opacity="0"/></linearGradient><linearGradient id="P" x1="0" y1="80.3" x2="590.292" y2="80.3" gradientUnits="userSpaceOnUse"><stop stop-color="#1A7F72" stop-opacity=".46"/><stop offset="1" stop-color="#1A7F72" stop-opacity="0"/></linearGradient><linearGradient id="Q" x1="0" y1="80.3" x2="590.292" y2="80.3" gradientUnits="userSpaceOnUse"><stop stop-color="#1A7F72" stop-opacity=".46"/><stop offset="1" stop-color="#1A7F72" stop-opacity="0"/></linearGradient><linearGradient id="R" x1="0" y1="80.3" x2="590.292" y2="80.3" gradientUnits="userSpaceOnUse"><stop stop-color="#1A7F72" stop-opacity=".46"/><stop offset="1" stop-color="#1A7F72" stop-opacity="0"/></linearGradient><linearGradient id="S" x1="0" y1="80.3" x2="590.292" y2="80.3" gradientUnits="userSpaceOnUse"><stop stop-color="#1A7F72" stop-opacity=".46"/><stop offset="1" stop-color="#1A7F72" stop-opacity="0"/></linearGradient><linearGradient id="T" x1="0" y1="80.3" x2="590.292" y2="80.3" gradientUnits="userSpaceOnUse"><stop stop-color="#1A7F72" stop-opacity=".46"/><stop offset="1" stop-color="#1A7F72" stop-opacity="0"/></linearGradient><linearGradient id="U" x1="0" y1="80.3" x2="590.292" y2="80.3" gradientUnits="userSpaceOnUse"><stop stop-color="#1A7F72" stop-opacity=".46"/><stop offset="1" stop-color="#1A7F72" stop-opacity="0"/></linearGradient><linearGradient id="V" x1="0" y1="80.3" x2="590.292" y2="80.3" gradientUnits="userSpaceOnUse"><stop stop-color="#1A7F72" stop-opacity=".46"/><stop offset="1" stop-color="#1A7F72" stop-opacity="0"/></linearGradient><linearGradient id="W" x1="0" y1="80.3" x2="590.292" y2="80.3" gradientUnits="userSpaceOnUse"><stop stop-color="#1A7F72" stop-opacity=".46"/><stop offset="1" stop-color="#1A7F72" stop-opacity="0"/></linearGradient><linearGradient id="X" x1="0" y1="80.3" x2="590.292" y2="80.3" gradientUnits="userSpaceOnUse"><stop stop-color="#1A7F72" stop-opacity=".46"/><stop offset="1" stop-color="#1A7F72" stop-opacity="0"/></linearGradient><linearGradient id="Y" x1="0" y1="80.3" x2="590.292" y2="80.3" gradientUnits="userSpaceOnUse"><stop stop-color="#1A7F72" stop-opacity=".46"/><stop offset="1" stop-color="#1A7F72" stop-opacity="0"/></linearGradient><linearGradient id="Z" x1="0" y1="80.3" x2="590.292" y2="80.3" gradientUnits="userSpaceOnUse"><stop stop-color="#1A7F72" stop-opacity=".46"/><stop offset="1" stop-color="#1A7F72" stop-opacity="0"/></linearGradient><linearGradient id="aa" x1="0" y1="80.3" x2="590.292" y2="80.3" gradientUnits="userSpaceOnUse"><stop stop-color="#1A7F72" stop-opacity=".46"/><stop offset="1" stop-color="#1A7F72" stop-opacity="0"/></linearGradient><linearGradient id="ab" x1="0" y1="80.3" x2="590.292" y2="80.3" gradientUnits="userSpaceOnUse"><stop stop-color="#1A7F72" stop-opacity=".46"/><stop offset="1" stop-color="#1A7F72" stop-opacity="0"/></linearGradient><linearGradient id="ac" x1="0" y1="80.3" x2="590.292" y2="80.3" gradientUnits="userSpaceOnUse"><stop stop-color="#1A7F72" stop-opacity=".46"/><stop offset="1" stop-color="#1A7F72" stop-opacity="0"/></linearGradient><linearGradient id="ad" x1="0" y1="80.3" x2="590.292" y2="80.3" gradientUnits="userSpaceOnUse"><stop stop-color="#1A7F72" stop-opacity=".46"/><stop offset="1" stop-color="#1A7F72" stop-opacity="0"/></linearGradient><linearGradient id="ae" x1="0" y1="80.3" x2="590.292" y2="80.3" gradientUnits="userSpaceOnUse"><stop stop-color="#1A7F72" stop-opacity=".46"/><stop offset="1" stop-color="#1A7F72" stop-opacity="0"/></linearGradient><linearGradient id="af" x1="0" y1="80.3" x2="590.292" y2="80.3" gradientUnits="userSpaceOnUse"><stop stop-color="#1A7F72" stop-opacity=".46"/><stop offset="1" stop-color="#1A7F72" stop-opacity="0"/></linearGradient><linearGradient id="ag" x1="0" y1="80.3" x2="590.292" y2="80.3" gradientUnits="userSpaceOnUse"><stop stop-color="#1A7F72" stop-opacity=".46"/><stop offset="1" stop-color="#1A7F72" stop-opacity="0"/></linearGradient><linearGradient id="ah" x1="0" y1="80.3" x2="590.292" y2="80.3" gradientUnits="userSpaceOnUse"><stop stop-color="#1A7F72" stop-opacity=".46"/><stop offset="1" stop-color="#1A7F72" stop-opacity="0"/></linearGradient><linearGradient id="ai" x1="0" y1="80.3" x2="590.292" y2="80.3" gradientUnits="userSpaceOnUse"><stop stop-color="#1A7F72" stop-opacity=".46"/><stop offset="1" stop-color="#1A7F72" stop-opacity="0"/></linearGradient><linearGradient id="aj" x1="0" y1="80.3" x2="590.292" y2="80.3" gradientUnits="userSpaceOnUse"><stop stop-color="#1A7F72" stop-opacity=".46"/><stop offset="1" stop-color="#1A7F72" stop-opacity="0"/></linearGradient><linearGradient id="ak" x1="0" y1="80.3" x2="590.292" y2="80.3" gradientUnits="userSpaceOnUse"><stop stop-color="#1A7F72" stop-opacity=".46"/><stop offset="1" stop-color="#1A7F72" stop-opacity="0"/></linearGradient><linearGradient id="al" x1="0" y1="80.3" x2="590.292" y2="80.3" gradientUnits="userSpaceOnUse"><stop stop-color="#1A7F72" stop-opacity=".46"/><stop offset="1" stop-color="#1A7F72" stop-opacity="0"/></linearGradient><linearGradient id="am" x1="0" y1="80.3" x2="590.292" y2="80.3" gradientUnits="userSpaceOnUse"><stop stop-color="#1A7F72" stop-opacity=".46"/><stop offset="1" stop-color="#1A7F72" stop-opacity="0"/></linearGradient><linearGradient id="an" x1="0" y1="80.3" x2="590.292" y2="80.3" gradientUnits="userSpaceOnUse"><stop stop-color="#1A7F72" stop-opacity=".46"/><stop offset="1" stop-color="#1A7F72" stop-opacity="0"/></linearGradient><linearGradient id="ao" x1="0" y1="80.3" x2="590.292" y2="80.3" gradientUnits="userSpaceOnUse"><stop stop-color="#1A7F72" stop-opacity=".46"/><stop offset="1" stop-color="#1A7F72" stop-opacity="0"/></linearGradient><linearGradient id="ap" x1="0" y1="80.3" x2="590.292" y2="80.3" gradientUnits="userSpaceOnUse"><stop stop-color="#1A7F72" stop-opacity=".46"/><stop offset="1" stop-color="#1A7F72" stop-opacity="0"/></linearGradient><linearGradient id="aq" x1="0" y1="80.3" x2="590.292" y2="80.3" gradientUnits="userSpaceOnUse"><stop stop-color="#1A7F72" stop-opacity=".46"/><stop offset="1" stop-color="#1A7F72" stop-opacity="0"/></linearGradient><linearGradient id="ar" x1="0" y1="80.3" x2="590.292" y2="80.3" gradientUnits="userSpaceOnUse"><stop stop-color="#1A7F72" stop-opacity=".46"/><stop offset="1" stop-color="#1A7F72" stop-opacity="0"/></linearGradient><linearGradient id="as" x1="0" y1="80.3" x2="590.292" y2="80.3" gradientUnits="userSpaceOnUse"><stop stop-color="#1A7F72" stop-opacity=".46"/><stop offset="1" stop-color="#1A7F72" stop-opacity="0"/></linearGradient><linearGradient id="at" x1="0" y1="80.3" x2="590.292" y2="80.3" gradientUnits="userSpaceOnUse"><stop stop-color="#1A7F72" stop-opacity=".46"/><stop offset="1" stop-color="#1A7F72" stop-opacity="0"/></linearGradient><linearGradient id="au" x1="0" y1="80.3" x2="590.292" y2="80.3" gradientUnits="userSpaceOnUse"><stop stop-color="#1A7F72" stop-opacity=".46"/><stop offset="1" stop-color="#1A7F72" stop-opacity="0"/></linearGradient><linearGradient id="av" x1="0" y1="80.3" x2="590.292" y2="80.3" gradientUnits="userSpaceOnUse"><stop stop-color="#1A7F72" stop-opacity=".46"/><stop offset="1" stop-color="#1A7F72" stop-opacity="0"/></linearGradient><linearGradient id="aw" x1="0" y1="80.3" x2="590.292" y2="80.3" gradientUnits="userSpaceOnUse"><stop stop-color="#1A7F72" stop-opacity=".46"/><stop offset="1" stop-color="#1A7F72" stop-opacity="0"/></linearGradient><linearGradient id="ax" x1="0" y1="80.3" x2="590.292" y2="80.3" gradientUnits="userSpaceOnUse"><stop stop-color="#1A7F72" stop-opacity=".46"/><stop offset="1" stop-color="#1A7F72" stop-opacity="0"/></linearGradient><linearGradient id="ay" x1="0" y1="80.3" x2="590.292" y2="80.3" gradientUnits="userSpaceOnUse"><stop stop-color="#1A7F72" stop-opacity=".46"/><stop offset="1" stop-color="#1A7F72" stop-opacity="0"/></linearGradient><linearGradient id="az" x1="0" y1="80.3" x2="590.292" y2="80.3" gradientUnits="userSpaceOnUse"><stop stop-color="#1A7F72" stop-opacity=".46"/><stop offset="1" stop-color="#1A7F72" stop-opacity="0"/></linearGradient><linearGradient id="aA" x1="0" y1="80.3" x2="590.292" y2="80.3" gradientUnits="userSpaceOnUse"><stop stop-color="#1A7F72" stop-opacity=".46"/><stop offset="1" stop-color="#1A7F72" stop-opacity="0"/></linearGradient><linearGradient id="aB" x1="0" y1="80.3" x2="590.292" y2="80.3" gradientUnits="userSpaceOnUse"><stop stop-color="#1A7F72" stop-opacity=".46"/><stop offset="1" stop-color="#1A7F72" stop-opacity="0"/></linearGradient><linearGradient id="aC" x1="0" y1="80.3" x2="590.292" y2="80.3" gradientUnits="userSpaceOnUse"><stop stop-color="#1A7F72" stop-opacity=".46"/><stop offset="1" stop-color="#1A7F72" stop-opacity="0"/></linearGradient><linearGradient id="aD" x1="0" y1="80.3" x2="590.292" y2="80.3" gradientUnits="userSpaceOnUse"><stop stop-color="#1A7F72" stop-opacity=".46"/><stop offset="1" stop-color="#1A7F72" stop-opacity="0"/></linearGradient><linearGradient id="aE" x1="0" y1="80.3" x2="590.292" y2="80.3" gradientUnits="userSpaceOnUse"><stop stop-color="#1A7F72" stop-opacity=".46"/><stop offset="1" stop-color="#1A7F72" stop-opacity="0"/></linearGradient><linearGradient id="aF" x1="0" y1="80.3" x2="590.292" y2="80.3" gradientUnits="userSpaceOnUse"><stop stop-color="#1A7F72" stop-opacity=".46"/><stop offset="1" stop-color="#1A7F72" stop-opacity="0"/></linearGradient><linearGradient id="aG" x1="0" y1="80.3" x2="590.292" y2="80.3" gradientUnits="userSpaceOnUse"><stop stop-color="#1A7F72" stop-opacity=".46"/><stop offset="1" stop-color="#1A7F72" stop-opacity="0"/></linearGradient><linearGradient id="aH" x1="0" y1="80.3" x2="590.292" y2="80.3" gradientUnits="userSpaceOnUse"><stop stop-color="#1A7F72" stop-opacity=".46"/><stop offset="1" stop-color="#1A7F72" stop-opacity="0"/></linearGradient><linearGradient id="aI" x1="0" y1="80.3" x2="590.292" y2="80.3" gradientUnits="userSpaceOnUse"><stop stop-color="#1A7F72" stop-opacity=".46"/><stop offset="1" stop-color="#1A7F72" stop-opacity="0"/></linearGradient><linearGradient id="aJ" x1="0" y1="80.3" x2="590.292" y2="80.3" gradientUnits="userSpaceOnUse"><stop stop-color="#1A7F72" stop-opacity=".46"/><stop offset="1" stop-color="#1A7F72" stop-opacity="0"/></linearGradient><linearGradient id="aK" x1="0" y1="80.3" x2="590.292" y2="80.3" gradientUnits="userSpaceOnUse"><stop stop-color="#1A7F72" stop-opacity=".46"/><stop offset="1" stop-color="#1A7F72" stop-opacity="0"/></linearGradient><linearGradient id="aL" x1="0" y1="80.3" x2="590.292" y2="80.3" gradientUnits="userSpaceOnUse"><stop stop-color="#1A7F72" stop-opacity=".46"/><stop offset="1" stop-color="#1A7F72" stop-opacity="0"/></linearGradient><linearGradient id="aM" x1="0" y1="80.3" x2="590.292" y2="80.3" gradientUnits="userSpaceOnUse"><stop stop-color="#1A7F72" stop-opacity=".46"/><stop offset="1" stop-color="#1A7F72" stop-opacity="0"/></linearGradient><linearGradient id="aN" x1="0" y1="80.3" x2="590.292" y2="80.3" gradientUnits="userSpaceOnUse"><stop stop-color="#1A7F72" stop-opacity=".46"/><stop offset="1" stop-color="#1A7F72" stop-opacity="0"/></linearGradient><linearGradient id="aO" x1="0" y1="80.3" x2="590.292" y2="80.3" gradientUnits="userSpaceOnUse"><stop stop-color="#1A7F72" stop-opacity=".46"/><stop offset="1" stop-color="#1A7F72" stop-opacity="0"/></linearGradient><linearGradient id="aP" x1="0" y1="80.3" x2="590.292" y2="80.3" gradientUnits="userSpaceOnUse"><stop stop-color="#1A7F72" stop-opacity=".46"/><stop offset="1" stop-color="#1A7F72" stop-opacity="0"/></linearGradient><linearGradient id="aQ" x1="0" y1="80.3" x2="590.292" y2="80.3" gradientUnits="userSpaceOnUse"><stop stop-color="#1A7F72" stop-opacity=".46"/><stop offset="1" stop-color="#1A7F72" stop-opacity="0"/></linearGradient><linearGradient id="aR" x1="0" y1="80.3" x2="590.292" y2="80.3" gradientUnits="userSpaceOnUse"><stop stop-color="#1A7F72" stop-opacity=".46"/><stop offset="1" stop-color="#1A7F72" stop-opacity="0"/></linearGradient><linearGradient id="aS" x1="0" y1="80.3" x2="590.292" y2="80.3" gradientUnits="userSpaceOnUse"><stop stop-color="#1A7F72" stop-opacity=".46"/><stop offset="1" stop-color="#1A7F72" stop-opacity="0"/></linearGradient><linearGradient id="aT" x1="0" y1="80.3" x2="590.292" y2="80.3" gradientUnits="userSpaceOnUse"><stop stop-color="#1A7F72" stop-opacity=".46"/><stop offset="1" stop-color="#1A7F72" stop-opacity="0"/></linearGradient><linearGradient id="aU" x1="0" y1="80.3" x2="590.292" y2="80.3" gradientUnits="userSpaceOnUse"><stop stop-color="#1A7F72" stop-opacity=".46"/><stop offset="1" stop-color="#1A7F72" stop-opacity="0"/></linearGradient><linearGradient id="aV" x1="0" y1="80.3" x2="590.292" y2="80.3" gradientUnits="userSpaceOnUse"><stop stop-color="#1A7F72" stop-opacity=".46"/><stop offset="1" stop-color="#1A7F72" stop-opacity="0"/></linearGradient><linearGradient id="aW" x1="0" y1="80.3" x2="590.292" y2="80.3" gradientUnits="userSpaceOnUse"><stop stop-color="#1A7F72" stop-opacity=".46"/><stop offset="1" stop-color="#1A7F72" stop-opacity="0"/></linearGradient><linearGradient id="aX" x1="0" y1="80.3" x2="590.292" y2="80.3" gradientUnits="userSpaceOnUse"><stop stop-color="#1A7F72" stop-opacity=".46"/><stop offset="1" stop-color="#1A7F72" stop-opacity="0"/></linearGradient><linearGradient id="aY" x1="0" y1="80.3" x2="590.292" y2="80.3" gradientUnits="userSpaceOnUse"><stop stop-color="#1A7F72" stop-opacity=".46"/><stop offset="1" stop-color="#1A7F72" stop-opacity="0"/></linearGradient><linearGradient id="aZ" x1="0" y1="80.3" x2="590.292" y2="80.3" gradientUnits="userSpaceOnUse"><stop stop-color="#1A7F72" stop-opacity=".46"/><stop offset="1" stop-color="#1A7F72" stop-opacity="0"/></linearGradient><linearGradient id="ba" x1="0" y1="80.3" x2="590.292" y2="80.3" gradientUnits="userSpaceOnUse"><stop stop-color="#1A7F72" stop-opacity=".46"/><stop offset="1" stop-color="#1A7F72" stop-opacity="0"/></linearGradient><linearGradient id="bb" x1="0" y1="80.3" x2="590.292" y2="80.3" gradientUnits="userSpaceOnUse"><stop stop-color="#1A7F72" stop-opacity=".46"/><stop offset="1" stop-color="#1A7F72" stop-opacity="0"/></linearGradient><linearGradient id="bc" x1="0" y1="80.3" x2="590.292" y2="80.3" gradientUnits="userSpaceOnUse"><stop stop-color="#1A7F72" stop-opacity=".46"/><stop offset="1" stop-color="#1A7F72" stop-opacity="0"/></linearGradient><linearGradient id="bd" x1="0" y1="80.3" x2="590.292" y2="80.3" gradientUnits="userSpaceOnUse"><stop stop-color="#1A7F72" stop-opacity=".46"/><stop offset="1" stop-color="#1A7F72" stop-opacity="0"/></linearGradient><linearGradient id="be" x1="0" y1="80.3" x2="590.292" y2="80.3" gradientUnits="userSpaceOnUse"><stop stop-color="#1A7F72" stop-opacity=".46"/><stop offset="1" stop-color="#1A7F72" stop-opacity="0"/></linearGradient><linearGradient id="bf" x1="0" y1="80.3" x2="590.292" y2="80.3" gradientUnits="userSpaceOnUse"><stop stop-color="#1A7F72" stop-opacity=".46"/><stop offset="1" stop-color="#1A7F72" stop-opacity="0"/></linearGradient><linearGradient id="bg" x1="0" y1="80.3" x2="590.292" y2="80.3" gradientUnits="userSpaceOnUse"><stop stop-color="#1A7F72" stop-opacity=".46"/><stop offset="1" stop-color="#1A7F72" stop-opacity="0"/></linearGradient><linearGradient id="bh" x1="0" y1="80.3" x2="590.292" y2="80.3" gradientUnits="userSpaceOnUse"><stop stop-color="#1A7F72" stop-opacity=".46"/><stop offset="1" stop-color="#1A7F72" stop-opacity="0"/></linearGradient><linearGradient id="bi" x1="0" y1="80.3" x2="590.292" y2="80.3" gradientUnits="userSpaceOnUse"><stop stop-color="#1A7F72" stop-opacity=".46"/><stop offset="1" stop-color="#1A7F72" stop-opacity="0"/></linearGradient><linearGradient id="bj" x1="0" y1="80.3" x2="590.292" y2="80.3" gradientUnits="userSpaceOnUse"><stop stop-color="#1A7F72" stop-opacity=".46"/><stop offset="1" stop-color="#1A7F72" stop-opacity="0"/></linearGradient><linearGradient id="bk" x1="0" y1="80.3" x2="590.292" y2="80.3" gradientUnits="userSpaceOnUse"><stop stop-color="#1A7F72" stop-opacity=".46"/><stop offset="1" stop-color="#1A7F72" stop-opacity="0"/></linearGradient><linearGradient id="bl" x1="0" y1="80.3" x2="590.292" y2="80.3" gradientUnits="userSpaceOnUse"><stop stop-color="#1A7F72" stop-opacity=".46"/><stop offset="1" stop-color="#1A7F72" stop-opacity="0"/></linearGradient><linearGradient id="bm" x1="0" y1="80.3" x2="590.292" y2="80.3" gradientUnits="userSpaceOnUse"><stop stop-color="#1A7F72" stop-opacity=".46"/><stop offset="1" stop-color="#1A7F72" stop-opacity="0"/></linearGradient><linearGradient id="bn" x1="0" y1="80.3" x2="590.292" y2="80.3" gradientUnits="userSpaceOnUse"><stop stop-color="#1A7F72" stop-opacity=".46"/><stop offset="1" stop-color="#1A7F72" stop-opacity="0"/></linearGradient><linearGradient id="bo" x1="0" y1="80.3" x2="590.292" y2="80.3" gradientUnits="userSpaceOnUse"><stop stop-color="#1A7F72" stop-opacity=".46"/><stop offset="1" stop-color="#1A7F72" stop-opacity="0"/></linearGradient><linearGradient id="bp" x1="0" y1="80.3" x2="590.292" y2="80.3" gradientUnits="userSpaceOnUse"><stop stop-color="#1A7F72" stop-opacity=".46"/><stop offset="1" stop-color="#1A7F72" stop-opacity="0"/></linearGradient><linearGradient id="bq" x1="0" y1="80.3" x2="590.292" y2="80.3" gradientUnits="userSpaceOnUse"><stop stop-color="#1A7F72" stop-opacity=".46"/><stop offset="1" stop-color="#1A7F72" stop-opacity="0"/></linearGradient><linearGradient id="br" x1="0" y1="80.3" x2="590.292" y2="80.3" gradientUnits="userSpaceOnUse"><stop stop-color="#1A7F72" stop-opacity=".46"/><stop offset="1" stop-color="#1A7F72" stop-opacity="0"/></linearGradient><linearGradient id="bs" x1="0" y1="80.3" x2="590.292" y2="80.3" gradientUnits="userSpaceOnUse"><stop stop-color="#1A7F72" stop-opacity=".46"/><stop offset="1" stop-color="#1A7F72" stop-opacity="0"/></linearGradient><linearGradient id="bt" x1="0" y1="80.3" x2="590.292" y2="80.3" gradientUnits="userSpaceOnUse"><stop stop-color="#1A7F72" stop-opacity=".46"/><stop offset="1" stop-color="#1A7F72" stop-opacity="0"/></linearGradient><linearGradient id="bu" x1="0" y1="80.3" x2="590.292" y2="80.3" gradientUnits="userSpaceOnUse"><stop stop-color="#1A7F72" stop-opacity=".46"/><stop offset="1" stop-color="#1A7F72" stop-opacity="0"/></linearGradient><linearGradient id="bv" x1="0" y1="80.3" x2="590.292" y2="80.3" gradientUnits="userSpaceOnUse"><stop stop-color="#1A7F72" stop-opacity=".46"/><stop offset="1" stop-color="#1A7F72" stop-opacity="0"/></linearGradient><linearGradient id="bw" x1="0" y1="80.3" x2="590.292" y2="80.3" gradientUnits="userSpaceOnUse"><stop stop-color="#1A7F72" stop-opacity=".46"/><stop offset="1" stop-color="#1A7F72" stop-opacity="0"/></linearGradient><linearGradient id="bx" x1="0" y1="80.3" x2="590.292" y2="80.3" gradientUnits="userSpaceOnUse"><stop stop-color="#1A7F72" stop-opacity=".46"/><stop offset="1" stop-color="#1A7F72" stop-opacity="0"/></linearGradient><linearGradient id="by" x1="0" y1="80.3" x2="590.292" y2="80.3" gradientUnits="userSpaceOnUse"><stop stop-color="#1A7F72" stop-opacity=".46"/><stop offset="1" stop-color="#1A7F72" stop-opacity="0"/></linearGradient><linearGradient id="bz" x1="0" y1="80.3" x2="590.292" y2="80.3" gradientUnits="userSpaceOnUse"><stop stop-color="#1A7F72" stop-opacity=".46"/><stop offset="1" stop-color="#1A7F72" stop-opacity="0"/></linearGradient><linearGradient id="bA" x1="0" y1="80.3" x2="590.292" y2="80.3" gradientUnits="userSpaceOnUse"><stop stop-color="#1A7F72" stop-opacity=".46"/><stop offset="1" stop-color="#1A7F72" stop-opacity="0"/></linearGradient><linearGradient id="bB" x1="0" y1="80.3" x2="590.292" y2="80.3" gradientUnits="userSpaceOnUse"><stop stop-color="#1A7F72" stop-opacity=".46"/><stop offset="1" stop-color="#1A7F72" stop-opacity="0"/></linearGradient><linearGradient id="bC" x1="0" y1="80.3" x2="590.292" y2="80.3" gradientUnits="userSpaceOnUse"><stop stop-color="#1A7F72" stop-opacity=".46"/><stop offset="1" stop-color="#1A7F72" stop-opacity="0"/></linearGradient><linearGradient id="bD" x1="0" y1="80.3" x2="590.292" y2="80.3" gradientUnits="userSpaceOnUse"><stop stop-color="#1A7F72" stop-opacity=".46"/><stop offset="1" stop-color="#1A7F72" stop-opacity="0"/></linearGradient><linearGradient id="bE" x1="0" y1="80.3" x2="590.292" y2="80.3" gradientUnits="userSpaceOnUse"><stop stop-color="#1A7F72" stop-opacity=".46"/><stop offset="1" stop-color="#1A7F72" stop-opacity="0"/></linearGradient><linearGradient id="bF" x1="0" y1="80.3" x2="590.292" y2="80.3" gradientUnits="userSpaceOnUse"><stop stop-color="#1A7F72" stop-opacity=".46"/><stop offset="1" stop-color="#1A7F72" stop-opacity="0"/></linearGradient><linearGradient id="bG" x1="0" y1="80.3" x2="590.292" y2="80.3" gradientUnits="userSpaceOnUse"><stop stop-color="#1A7F72" stop-opacity=".46"/><stop offset="1" stop-color="#1A7F72" stop-opacity="0"/></linearGradient><linearGradient id="bH" x1="0" y1="80.3" x2="590.292" y2="80.3" gradientUnits="userSpaceOnUse"><stop stop-color="#1A7F72" stop-opacity=".46"/><stop offset="1" stop-color="#1A7F72" stop-opacity="0"/></linearGradient><linearGradient id="bI" x1="0" y1="80.3" x2="590.292" y2="80.3" gradientUnits="userSpaceOnUse"><stop stop-color="#1A7F72" stop-opacity=".46"/><stop offset="1" stop-color="#1A7F72" stop-opacity="0"/></linearGradient><linearGradient id="bJ" x1="0" y1="80.3" x2="590.292" y2="80.3" gradientUnits="userSpaceOnUse"><stop stop-color="#1A7F72" stop-opacity=".46"/><stop offset="1" stop-color="#1A7F72" stop-opacity="0"/></linearGradient><linearGradient id="bK" x1="0" y1="80.3" x2="590.292" y2="80.3" gradientUnits="userSpaceOnUse"><stop stop-color="#1A7F72" stop-opacity=".46"/><stop offset="1" stop-color="#1A7F72" stop-opacity="0"/></linearGradient><linearGradient id="bL" x1="0" y1="80.3" x2="590.292" y2="80.3" gradientUnits="userSpaceOnUse"><stop stop-color="#1A7F72" stop-opacity=".46"/><stop offset="1" stop-color="#1A7F72" stop-opacity="0"/></linearGradient><linearGradient id="bM" x1="0" y1="80.3" x2="590.292" y2="80.3" gradientUnits="userSpaceOnUse"><stop stop-color="#1A7F72" stop-opacity=".46"/><stop offset="1" stop-color="#1A7F72" stop-opacity="0"/></linearGradient><linearGradient id="bN" x1="0" y1="80.3" x2="590.292" y2="80.3" gradientUnits="userSpaceOnUse"><stop stop-color="#1A7F72" stop-opacity=".46"/><stop offset="1" stop-color="#1A7F72" stop-opacity="0"/></linearGradient><linearGradient id="bO" x1="0" y1="80.3" x2="590.292" y2="80.3" gradientUnits="userSpaceOnUse"><stop stop-color="#1A7F72" stop-opacity=".46"/><stop offset="1" stop-color="#1A7F72" stop-opacity="0"/></linearGradient><linearGradient id="bP" x1="0" y1="80.3" x2="590.292" y2="80.3" gradientUnits="userSpaceOnUse"><stop stop-color="#1A7F72" stop-opacity=".46"/><stop offset="1" stop-color="#1A7F72" stop-opacity="0"/></linearGradient><linearGradient id="bQ" x1="0" y1="80.3" x2="590.292" y2="80.3" gradientUnits="userSpaceOnUse"><stop stop-color="#1A7F72" stop-opacity=".46"/><stop offset="1" stop-color="#1A7F72" stop-opacity="0"/></linearGradient><linearGradient id="bR" x1="0" y1="80.3" x2="590.292" y2="80.3" gradientUnits="userSpaceOnUse"><stop stop-color="#1A7F72" stop-opacity=".46"/><stop offset="1" stop-color="#1A7F72" stop-opacity="0"/></linearGradient><linearGradient id="bS" x1="0" y1="80.3" x2="590.292" y2="80.3" gradientUnits="userSpaceOnUse"><stop stop-color="#1A7F72" stop-opacity=".46"/><stop offset="1" stop-color="#1A7F72" stop-opacity="0"/></linearGradient><linearGradient id="bT" x1="0" y1="80.3" x2="590.292" y2="80.3" gradientUnits="userSpaceOnUse"><stop stop-color="#1A7F72" stop-opacity=".46"/><stop offset="1" stop-color="#1A7F72" stop-opacity="0"/></linearGradient><linearGradient id="bU" x1="0" y1="80.3" x2="590.292" y2="80.3" gradientUnits="userSpaceOnUse"><stop stop-color="#1A7F72" stop-opacity=".46"/><stop offset="1" stop-color="#1A7F72" stop-opacity="0"/></linearGradient><linearGradient id="bV" x1="0" y1="80.3" x2="590.292" y2="80.3" gradientUnits="userSpaceOnUse"><stop stop-color="#1A7F72" stop-opacity=".46"/><stop offset="1" stop-color="#1A7F72" stop-opacity="0"/></linearGradient><linearGradient id="bW" x1="0" y1="80.3" x2="590.292" y2="80.3" gradientUnits="userSpaceOnUse"><stop stop-color="#1A7F72" stop-opacity=".46"/><stop offset="1" stop-color="#1A7F72" stop-opacity="0"/></linearGradient><linearGradient id="bX" x1="0" y1="80.3" x2="590.292" y2="80.3" gradientUnits="userSpaceOnUse"><stop stop-color="#1A7F72" stop-opacity=".46"/><stop offset="1" stop-color="#1A7F72" stop-opacity="0"/></linearGradient><linearGradient id="bY" x1="0" y1="80.3" x2="590.292" y2="80.3" gradientUnits="userSpaceOnUse"><stop stop-color="#1A7F72" stop-opacity=".46"/><stop offset="1" stop-color="#1A7F72" stop-opacity="0"/></linearGradient><linearGradient id="bZ" x1="0" y1="80.3" x2="590.292" y2="80.3" gradientUnits="userSpaceOnUse"><stop stop-color="#1A7F72" stop-opacity=".46"/><stop offset="1" stop-color="#1A7F72" stop-opacity="0"/></linearGradient><linearGradient id="ca" x1="0" y1="80.3" x2="590.292" y2="80.3" gradientUnits="userSpaceOnUse"><stop stop-color="#1A7F72" stop-opacity=".46"/><stop offset="1" stop-color="#1A7F72" stop-opacity="0"/></linearGradient><linearGradient id="cb" x1="0" y1="80.3" x2="590.292" y2="80.3" gradientUnits="userSpaceOnUse"><stop stop-color="#1A7F72" stop-opacity=".46"/><stop offset="1" stop-color="#1A7F72" stop-opacity="0"/></linearGradient><linearGradient id="cc" x1="0" y1="80.3" x2="590.292" y2="80.3" gradientUnits="userSpaceOnUse"><stop stop-color="#1A7F72" stop-opacity=".46"/><stop offset="1" stop-color="#1A7F72" stop-opacity="0"/></linearGradient><linearGradient id="cd" x1="0" y1="80.3" x2="590.292" y2="80.3" gradientUnits="userSpaceOnUse"><stop stop-color="#1A7F72" stop-opacity=".46"/><stop offset="1" stop-color="#1A7F72" stop-opacity="0"/></linearGradient><linearGradient id="ce" x1="0" y1="80.3" x2="590.292" y2="80.3" gradientUnits="userSpaceOnUse"><stop stop-color="#1A7F72" stop-opacity=".46"/><stop offset="1" stop-color="#1A7F72" stop-opacity="0"/></linearGradient><linearGradient id="cf" x1="0" y1="80.3" x2="590.292" y2="80.3" gradientUnits="userSpaceOnUse"><stop stop-color="#1A7F72" stop-opacity=".46"/><stop offset="1" stop-color="#1A7F72" stop-opacity="0"/></linearGradient><linearGradient id="cg" x1="0" y1="80.3" x2="590.292" y2="80.3" gradientUnits="userSpaceOnUse"><stop stop-color="#1A7F72" stop-opacity=".46"/><stop offset="1" stop-color="#1A7F72" stop-opacity="0"/></linearGradient><linearGradient id="ch" x1="0" y1="80.3" x2="590.292" y2="80.3" gradientUnits="userSpaceOnUse"><stop stop-color="#1A7F72" stop-opacity=".46"/><stop offset="1" stop-color="#1A7F72" stop-opacity="0"/></linearGradient><linearGradient id="ci" x1="0" y1="80.3" x2="590.292" y2="80.3" gradientUnits="userSpaceOnUse"><stop stop-color="#1A7F72" stop-opacity=".46"/><stop offset="1" stop-color="#1A7F72" stop-opacity="0"/></linearGradient><linearGradient id="cj" x1="0" y1="80.3" x2="590.292" y2="80.3" gradientUnits="userSpaceOnUse"><stop stop-color="#1A7F72" stop-opacity=".46"/><stop offset="1" stop-color="#1A7F72" stop-opacity="0"/></linearGradient><linearGradient id="ck" x1="0" y1="80.3" x2="590.292" y2="80.3" gradientUnits="userSpaceOnUse"><stop stop-color="#1A7F72" stop-opacity=".46"/><stop offset="1" stop-color="#1A7F72" stop-opacity="0"/></linearGradient><linearGradient id="cl" x1="0" y1="80.3" x2="590.292" y2="80.3" gradientUnits="userSpaceOnUse"><stop stop-color="#1A7F72" stop-opacity=".46"/><stop offset="1" stop-color="#1A7F72" stop-opacity="0"/></linearGradient><linearGradient id="cm" x1="0" y1="80.3" x2="590.292" y2="80.3" gradientUnits="userSpaceOnUse"><stop stop-color="#1A7F72" stop-opacity=".46"/><stop offset="1" stop-color="#1A7F72" stop-opacity="0"/></linearGradient><linearGradient id="cn" x1="0" y1="80.3" x2="590.292" y2="80.3" gradientUnits="userSpaceOnUse"><stop stop-color="#1A7F72" stop-opacity=".46"/><stop offset="1" stop-color="#1A7F72" stop-opacity="0"/></linearGradient><linearGradient id="co" x1="0" y1="80.3" x2="590.292" y2="80.3" gradientUnits="userSpaceOnUse"><stop stop-color="#1A7F72" stop-opacity=".46"/><stop offset="1" stop-color="#1A7F72" stop-opacity="0"/></linearGradient><linearGradient id="cp" x1="0" y1="80.3" x2="590.292" y2="80.3" gradientUnits="userSpaceOnUse"><stop stop-color="#1A7F72" stop-opacity=".46"/><stop offset="1" stop-color="#1A7F72" stop-opacity="0"/></linearGradient></defs></svg>