<svg width="100" height="100" fill="none" xmlns="http://www.w3.org/2000/svg"><path d="M89.063 86.757c-.021 6.486-5.408 11.68-11.894 11.68H22.656c-6.49 0-11.74-5.27-11.718-11.757C10.957 80.195 16.345 75 22.83 75h3.358a7.028 7.028 0 0 0 5.85 3.125H67.96A7.033 7.033 0 0 0 73.81 75h3.533c6.49 0 11.74 5.271 11.719 11.757Z" fill="#FFE4CC"/><path d="M77.17 98.438H75v-11.72l-21.875 5.47-.17-.512a6.108 6.108 0 0 0-5.793-4.176c-2.315 0-3.44 1.06-6.537 3.125L25 86.72v11.719h-2.344c-6.472 0-11.718-5.246-11.718-11.72C10.938 80.25 16.18 75 22.655 75h3.534a7.028 7.028 0 0 0 5.85 3.125h35.92A7.033 7.033 0 0 0 73.81 75c3.66 0 7.895-.49 11.82 3.432 7.36 7.366 2.121 20.006-8.46 20.006Z" fill="#7ADBAE"/><path d="M73.81 75a7.032 7.032 0 0 1-5.85 3.125H32.04A7.031 7.031 0 0 1 26.19 75c-.483.002-4.204.015-4.268.023-6.162.38-11.004 5.507-10.985 11.734.021 6.486 5.408 11.68 11.894 11.68H25v-3.124h-2.192c-7.655 0-11.688-9.217-6.228-14.67 2.943-2.948 6.73-2.518 6.076-2.518.247 0 .48.115.628.313a7.01 7.01 0 0 0 5.622 2.812h38.282a7.027 7.027 0 0 0 6.984-6.227c-.61-.039-1.106-.023-.361-.023Z" fill="#7ADBAE"/><path d="M42.187 95.313c-2.502 0-3.564-3.186-1.562-4.688l-6.362 2.545c-1.413.565-1.514 2.143-1.45 2.143a7.398 7.398 0 0 1-7.114-5.366L25 87.5v10.937h50v-3.124H42.187ZM75 71.086c0 3.867-3.142 7.04-7.04 7.04H32.04c-4.492 0-7.852-4.166-6.872-8.567l2.014-9.069C29.57 49.755 39.094 42.187 50 42.187c10.992 0 20.448 7.645 22.818 18.303C74.983 70.238 75 70.042 75 71.086Z" fill="#F9CFAC"/><path d="m74.832 69.559-2.014-9.069a23.314 23.314 0 0 0-5.73-10.877 23.382 23.382 0 0 0-7.848-4.582 1.908 1.908 0 0 1-.46.43c-.162-.069-.64-.255-1.145-.43-1.777 2.452-13.492 2.413-15.268.002-.412.14-.82.295-1.222.46A23.366 23.366 0 0 0 30.307 60.49c-2.189 9.855-2.08 9.287-2.137 9.817a7.038 7.038 0 0 0 6.994 6.255c38.808 0 36.147.094 37.485-.23 1.79-1.508 2.761-4.176 2.183-6.773Z" fill="#FFE4CC"/><path d="M53.822 78.125h-5.385c0-.863.7-1.562 1.563-1.562a2.346 2.346 0 0 0 2.344-2.344 2.345 2.345 0 0 0-2.285-2.343c-.812-.02-1.531-.59-1.613-1.4A1.562 1.562 0 0 1 50 68.75c4.878 0 7.335 5.943 3.822 9.375Z" fill="#F9CFAC"/><path d="m61.285 57.813 2.778 12.5h-1.184c-4.12 0-8.228-1.6-11.316-4.688h-3.126a16.009 16.009 0 0 1-11.316 4.688h-2.746l1.51-6.794c2.906-.512 3.905-.67 4.888-.906 9.24-2.193 16.24-9.568 18.108-18.673a23.379 23.379 0 0 1 13.172 13.873H61.285Z" fill="#7ADBAE"/><path d="M72.053 57.813h-.612a23.392 23.392 0 0 0-12.9-12.448c.129-.47.242-.945.34-1.425a23.379 23.379 0 0 1 13.172 13.873Z" fill="#EDAC5F"/><path d="M67.187 70.313h-3.124c-2.474-11.138-1.852-8.337-2.778-12.5h2.778l3.124 12.5Zm-3.124-40.676c-.765 1.52-1.41 2.287-3.223 4.738h-.356C59.14 38.892 54.957 42.187 50 42.187c-4.963 0-9.144-3.306-10.484-7.812h-.356l-1.82-2.461c-6.422-8.686-1.797-20.531 7.973-23.436v-2.12c0-4.226 5.023-6.394 8.001-3.423 1.625 1.629 1.373 3.3 1.373 5.543 8.94 2.659 13.57 12.801 9.376 21.159Z" fill="#F9CFAC"/><path d="M60.937 23.438v4.687c0 6.03-4.932 11.117-10.962 11.103-4.542-.01-7.788-3.683-7.788-7.817 0-6.49 5.124-11.099 10.938-11.099h4.683a3.13 3.13 0 0 1 3.13 3.125Z" fill="#FFE4CC"/><path d="M50.108 1.563c-3.496-.06-6.358 2.877-6.358 6.374v3h12.5V7.812a6.257 6.257 0 0 0-6.142-6.249Z" fill="#797A7A"/><path d="m62.66 31.914-1.82 2.46h-.356c.611-2.05.453-2.874.453-10.937 0-1.085-.158-2.134-.453-3.125h-.925c-1.064 0-2.049-.6-2.528-1.562a2.826 2.826 0 0 0-2.527-1.563h-9.008a2.825 2.825 0 0 0-2.527 1.563 2.826 2.826 0 0 1-2.528 1.562h-.925c-.611 2.051-.453 2.875-.453 10.938 0 1.086.158 2.135.453 3.125h-.356l-1.82-2.461c-6.422-8.686-1.797-20.531 7.973-23.436 2.942-.879 6.361-.9 9.374 0 9.77 2.905 14.395 14.75 7.973 23.436Z" fill="#6D6D6D"/><path d="M77.344 98.438H75v-3.126h3.906c5.371 0 9.737-4.156 10.13-9.39.455 6.83-4.955 12.516-11.692 12.516ZM64.258 70.312c-1.414 0-2.041.02-3.08-.091a16.008 16.008 0 0 1-8.615-3.676 3.955 3.955 0 0 0-3.247-.871c-2.012.32-2.2 1.813-6.07 3.42-3.462 1.434-6.067 1.218-8.871 1.218l1.51-6.792 3.252-.573-.352.945a1.12 1.12 0 0 0 .998 1.508 15.927 15.927 0 0 0 3.463-.994c3.832-1.59 4.071-3.103 6.07-3.42a3.947 3.947 0 0 1 3.246.871c2.858 2.407 6.433 3.768 10.524 3.768l1.172 4.687Z" fill="#7ADBAE"/><path d="m40.588 56.59-1.41 6.35-3.293.58 1.652-7.61a1.562 1.562 0 0 1 3.05.68Z" fill="#F9CFAC"/><path d="M29.86 53.627c.716.481 1.687.29 2.168-.426.092-.138.188-.273.286-.407a1.563 1.563 0 0 0-2.527-1.838c-.121.166-.24.333-.354.503a1.562 1.562 0 0 0 .427 2.168Z" fill="#000"/><path d="M98.437 96.875H85.89c9.419-7.937 3.87-23.438-8.545-23.438h-1.108c.77-2.72.212-3.808-1.893-13.286a24.937 24.937 0 0 0-17.377-18.527 12.565 12.565 0 0 0 4.716-5.933c.324-.207.24-.15 2.235-2.849 6.934-9.38 2.178-21.844-7.667-25.497V6.25A6.257 6.257 0 0 0 50 0a6.257 6.257 0 0 0-6.25 6.25v1.095c-9.847 3.653-14.6 16.12-7.667 25.497 2.003 2.709 1.91 2.642 2.235 2.85a12.565 12.565 0 0 0 4.713 5.93 24.947 24.947 0 0 0-9.111 4.883 1.562 1.562 0 1 0 2.016 2.388 21.775 21.775 0 0 1 21.104-3.967c-2.263 8.505-9.173 14.893-17.94 16.44l-1.183.208 1.108-4.985a1.563 1.563 0 0 0-3.05-.678L33.12 68.75h-1.87a1.563 1.563 0 0 0 0 3.125h5.87c4.693 0 9.104-1.827 12.422-5.145.305-.305.458-.705.458-1.105 0 .4.153.8.458 1.105a17.451 17.451 0 0 0 12.421 5.145h5.871a1.563 1.563 0 1 0 0-3.125h-1.872l-2.083-9.375h6.116c.142.48.273.964.382 1.454 2.207 9.941 2.144 9.442 2.144 10.257a5.476 5.476 0 0 1-5.476 5.477H54.94a5.433 5.433 0 0 0 .529-2.344c0-5.296-7.032-7.069-7.032-3.906 0 .862.7 1.562 1.563 1.562a2.344 2.344 0 0 1 0 4.688H32.04c-3.495 0-6.107-3.246-5.347-6.666 2.067-9.309 2.16-10.06 2.874-11.966a1.563 1.563 0 0 0-2.927-1.096c-.807 2.156-.862 2.768-2.997 12.384a8.574 8.574 0 0 0 .124 4.218h-1.11c-12.297 0-18.021 15.443-8.556 23.438H1.562a1.562 1.562 0 1 0 0 3.125h96.875a1.562 1.562 0 1 0 0-3.125ZM46.875 6.25A3.129 3.129 0 0 1 50 3.125a3.129 3.129 0 0 1 3.125 3.125c0 .64.208-.102-3.693.008-2.841.08-2.557.531-2.557-.008Zm-9.56 10.9c5.056-10.383 20.304-10.404 25.37 0 1.92 3.944 1.824 8.337-.185 12.099 0-6.285.35-10.499-2.016-10.499-.815 0-1.635.145-2.055-.699a4.364 4.364 0 0 0-3.925-2.426c-9.715 0-9.9-.213-11.318.657-1.824 1.131-1.412 2.468-2.745 2.468h-.925c-2.379 0-2.016 4.246-2.016 10.499-2.009-3.762-2.105-8.155-.184-12.099Zm3.31 14.1c0-8.574-.044-8.348.131-9.386a4.363 4.363 0 0 0 3.611-2.418 1.26 1.26 0 0 1 .46-.505c.436-.268-.07-.191 9.677-.191 1.328 0 .918 1.335 2.751 2.473.606.37 1.288.59 1.988.64.185 1.093.132.966.132 9.387 0 5.17-4.206 9.375-9.375 9.375-5.17 0-9.375-4.206-9.375-9.375Zm23.476 25-.076-.339a1.562 1.562 0 1 0-3.05.678l2.702 12.161h-.798a14.347 14.347 0 0 1-10.212-4.23c-.986-.987-2.666-.275-2.667 1.104 0-1.379-1.68-2.09-2.667-1.104a14.347 14.347 0 0 1-10.212 4.23h-.798l.86-3.873 2.46-.434c9.952-1.756 17.668-9.057 20.302-18.287a21.724 21.724 0 0 1 9.771 10.094h-5.615ZM35.558 90.969l-1.569.628a4.347 4.347 0 0 0-2.56 5.278h-4.866V88.72l8.995 2.249Zm.05 5.906c-1.346 0-1.717-1.874-.458-2.377 6.476-2.59 6.148-2.445 6.342-2.573 3.31-2.207 3.938-2.862 5.67-2.862a4.538 4.538 0 0 1 4.31 3.106l.17.513a1.562 1.562 0 0 0 1.862 1.021l19.933-4.983v8.155h-37.83Zm40.955 0v-8.936l1.941-.486a1.563 1.563 0 0 0-.758-3.031l-23.649 5.912a7.658 7.658 0 0 0-6.936-4.397c-2.792 0-4.251 1.287-6.828 3.004l-18.08-4.52a1.563 1.563 0 0 0-.757 3.032l1.941.486v8.936h-.78c-5.627 0-10.157-4.556-10.157-10.156 0-5.6 4.556-10.156 10.156-10.156h2.755a8.588 8.588 0 0 0 6.628 3.124H67.96a8.558 8.558 0 0 0 6.631-3.124c3.19 0 6.611-.346 9.933 2.973 6.343 6.349 1.888 17.339-7.181 17.339h-.781Z" fill="#000"/></svg>