<svg width="100" height="100" fill="none" xmlns="http://www.w3.org/2000/svg"><g clip-path="url(#a)"><path d="M54.405 13.252c0 3.625-1.182 5.886-2.215 8.234-1.743 3.957-7.92 3.957-9.662 0l-.907-2.058c-.94-2.139-1.67-5.461-1.132-7.604.705-2.822 3.486-4.978 6.869-4.978 3.831 0 7.047 2.82 7.047 6.406Z" fill="#F9CFAC"/><path d="M54.229 11.819c-.352 2.35-1.102 3.817-2.04 5.945-1.739 3.956-7.92 3.96-9.662 0-.96-2.181-1.677-3.575-2.038-5.94 1.21-4.845 7.908-6.694 11.851-3.101.92.836 1.588 1.902 1.889 3.096Z" fill="#FFE4CC"/><path d="M54.405 13.252c0 .848-.073 1.692-.215 2.528a6.254 6.254 0 0 0-1.85-2.955c-3.89-3.545-10.497-1.8-11.813 2.957-.498-2.915-.23-5.447 2.163-7.327 4.497-3.627 11.715-.756 11.715 4.797Z" fill="#6D6D6D"/><path d="M43.835 7.79V5.085a3.522 3.522 0 0 1 3.523-3.523 3.52 3.52 0 0 1 3.523 3.523v2.703" fill="#6D6D6D"/><path d="m59.22 26.953-1.263-1.582a3.102 3.102 0 0 0-2.201-.91H38.961c-.797 0-1.594.303-2.201.91l-1.31 1.64c1.83 9.878 3.1 6.395 3.1 22.108h17.614c0-8.16.208-10.91 1.203-14.486.2-.729 2.074-7.414 1.854-7.68Z" fill="#B3CEC9"/><path d="M56.993 26.485 55.967 25.2a2.52 2.52 0 0 0-1.788-.74H40.538a2.52 2.52 0 0 0-1.788.74l-1.065 1.333c1.21 6.528 2.293 6.104 2.476 13.701a6.959 6.959 0 0 0 6.954 6.794c4.756 0 7.348-3.326 7.442-6.83.077-2.979.204-4.866.93-7.475.168-.608 1.685-6.022 1.506-6.238Z" fill="#CAE0DD"/><path d="M71.309 59.718 56.164 49.12H38.551c-2.09 12.92-.249 21.374 1.625 35.254l7.182-.028V59.687l12.33 3.524v7.045h8.299c5.684 0 7.9-7.323 3.322-10.538Z" fill="#5FC68F"/><path d="M71.309 59.718 56.164 49.12H38.551c-1.758 10.868-.649 15.305 1.176 28.812.421 3.139 4.278 4.433 6.514 2.192a3.827 3.827 0 0 0 1.117-2.705v-18.6a1.69 1.69 0 0 1 2.154-1.625l10.176 2.908c0 .034-.338-.143 4.375 2.149h-4.375a4.895 4.895 0 0 0 4.896 4.896h3.403c2.66 0 4.9-1.79 5.58-4.234a5.79 5.79 0 0 0-2.258-3.194Z" fill="#7ADBAE"/><path d="M47.358 84.346v12.53c0 .863-.7 1.562-1.563 1.562H35.278c-1.201 0-1.973-1.31-1.356-2.338.384-.767 1.463-1.715 2.764-2.04l4.64-1.16c-.279-2.076-.049-.37-1.15-8.526.328 0-.628.003 7.182-.028Z" fill="#F9CFAC"/><path d="M47.358 84.346v10.967c0 .863-.7 1.563-1.563 1.563H35.278a1.566 1.566 0 0 1-1.356-.776c.384-.767 1.463-1.715 2.764-2.04l4.64-1.16-.203-1.51.204-.052-.94-6.964 6.97-.028Z" fill="#FFE4CC"/><path d="M59.688 63.211v7.045h-7.045c-.906 3.616-.97 4.887-2.508 6.09a4.507 4.507 0 0 1-2.777.955V66.336a3.125 3.125 0 0 1 3.125-3.125h9.205Z" fill="#F9CFAC"/><path d="M59.688 63.211v4.961h-7.045c-.906 3.616-.97 4.887-2.508 6.09a4.506 4.506 0 0 1-2.777.955v-8.88a3.125 3.125 0 0 1 3.125-3.126h9.205Z" fill="#FFE4CC"/><path d="M47.358 32.244v9.83c0 .976-.792 1.762-1.762 1.762h-15.46c-2.43 0-4.257-2.2-3.862-4.549.229-1.404-.112-.647 10.486-13.916 1.375-1.375 3.583-1.072 4.531.14a3.113 3.113 0 0 1-.129 4.265c-4.389 5.591-4.913 6.26-6.89 8.775h7.803l.646-3.703c.98-2.95 3.843-3.262 3.863-3.281a.678.678 0 0 1 .774.677Z" fill="#F9CFAC"/><path d="M64.582 43.836H49.12a1.763 1.763 0 0 1-1.761-1.762v-9.83c0-.414.365-.742.773-.678.02.02 2.885.334 3.863 3.281l.649 3.704h7.802l-6.892-8.776c-1.952-1.951-.567-5.314 2.203-5.314.797 0 1.594.303 2.201.91 1.115 1.396 9.623 12.034 9.682 12.107 2.03 2.538.229 6.358-3.057 6.358Z" fill="#F9CFAC"/><path d="M46.576 39.033c0 .976-.791 1.762-1.761 1.762H29.354c-1.276 0-2.416-.626-3.08-1.508.229-1.404-.113-.647 10.486-13.916a3.117 3.117 0 0 1 4.402 0c.04.04-.21.793-.78 1.364-4.542 5.785-3.368 4.29-5.556 7.074a3.8 3.8 0 0 0-.554 3.719h.804l-.804 1.023h7.803l.646-3.703a4.883 4.883 0 0 1 3.547-3.219c.416.494.308.168.308 7.404Zm21.901.516c-.546.662-1.666 1.246-2.858 1.246H50.156a1.764 1.764 0 0 1-1.761-1.762c0-7.166-.095-6.875.265-7.351a4.882 4.882 0 0 1 3.334 3.166l.649 3.703h7.802l-.804-1.024h1.06c.172-.443.256-.91.256-1.37 0-1.656-.849-2.397-2.552-4.565-4.596-5.851-4.478-5.571-4.655-6.4a3.118 3.118 0 0 1 4.207.18c7.416 9.283.96 1.202 9.682 12.106.476.596.766 1.317.838 2.07Z" fill="#FFE4CC"/><path d="M52.233 8.629c-2.65 1.064-7.192.975-9.543-.174 2.759-2.225 6.92-2.12 9.543.174Z" fill="#797A7A"/><path d="M1.566 99.999H98.44a1.563 1.563 0 0 0 0-3.125H48.924V78.659a6.065 6.065 0 0 0 4.33-4.398l.612-2.444H67.99c7.182 0 10.074-9.28 4.218-13.379L57.73 48.305c.003-1.077.01-2.04.024-2.908h6.83c4.574 0 7.134-5.325 4.277-8.895-10.446-13.062-9.707-12.147-9.797-12.237-1.648-1.648-3.356-1.368-5.86-1.368.31-.497.335-.596 1.325-2.841a16.914 16.914 0 0 0 1.44-6.805c0-2.654-1.38-4.976-3.523-6.432 0-2.05.175-3.663-1.49-5.334-3.201-3.19-8.68-.9-8.68 3.6v1.734c-2.143 1.455-3.523 3.778-3.523 6.432 0 2.34.484 4.63 1.44 6.807.965 2.189 1.001 2.323 1.324 2.84-2.398 0-4.202-.291-5.86 1.367-.111.111-.876 1.087-1.502 1.865-1.29 1.596 1.095 3.648 2.517 1.857 1.233-1.543 1.317-1.811 2.004-1.938.22-.041-.855-.027 17.083-.027.985 0 1.18.618 2.27 1.937.228.296-.935-1.168 8.392 10.494 1.225 1.531.124 3.82-1.836 3.82H49.123c-.288 0-.2.368-.2-8.817.7.373 1.265.987 1.557 1.784l.627 3.579c.13.747.78 1.293 1.54 1.293h7.802c1.299 0 2.035-1.502 1.229-2.528l-4.508-5.738a1.562 1.562 0 1 0-2.458 1.93l.947 1.205a25.785 25.785 0 0 0-.443 2.006H53.96l-.422-2.41c-.153-.876-1.025-2.428-2.403-3.417a6.449 6.449 0 0 0-7.543-.002c-1.326.954-2.244 2.491-2.406 3.42l-.42 2.409h-1.26a26.377 26.377 0 0 0-.441-2.006l.947-1.205a1.562 1.562 0 1 0-2.458-1.93l-4.507 5.738c-.802 1.021-.076 2.528 1.229 2.528h7.803c.759 0 1.408-.546 1.539-1.294l.625-3.578a3.31 3.31 0 0 1 1.556-1.784v8.617c0 .306.828.2-15.66.2-1.948 0-3.072-2.276-1.835-3.822l.3-.376a1.563 1.563 0 0 0-2.442-1.95l-.3.376c-2.89 3.613-.258 8.896 4.277 8.896h6.829c.016 1.06.024 2.252.024 3.606-2.138 13.383-.284 21.34 2.603 42.719l-3.285.82a6.064 6.064 0 0 0-4.397 4.331H1.566a1.563 1.563 0 0 0 0 3.126ZM45.4 5.084c0-1.748 2.122-2.609 3.346-1.39.607.61.575 1.237.575 1.798a9.325 9.325 0 0 0-3.92 0v-.408Zm-1.97 4.793c.94-.854.968-.46 1.49-.964a6.149 6.149 0 0 1 4.88 0c.496.478.58.135 1.492.964 1.818 1.653 1.775 3.753 1.255 6.193-.364 1.715-.838 2.637-1.786 4.786-1.193 2.712-5.608 2.712-6.801-.001-1.12-2.54-2.082-4.407-2.082-7.604 0-1.266.55-2.464 1.551-3.374Zm9.215 58.815c-.717 0-1.342.488-1.516 1.184l-.907 3.627a2.945 2.945 0 0 1-1.3 1.788v-10.52h9.205v3.921h-5.482ZM47.36 44.89c1.08.678 1.451.508 7.269.508a247.071 247.071 0 0 0-.025 3.721c0 .4.159.797.442 1.088.159.163-.832-.548 15.369 10.793 3.375 2.362 1.697 7.693-2.425 7.693h-6.737v-3.92h1.96a1.563 1.563 0 0 0 0-3.125H59.91l-12.119-3.463a1.563 1.563 0 0 0-1.992 1.502v23.097h-4.258c-1.812-13.42-3.29-20.545-1.643-32.102h7.464a1.563 1.563 0 1 0 0-3.125h-7.248c-.004-.776-.011-1.492-.02-2.159 5.876 0 6.203.16 7.267-.508ZM37.067 95.575l4.642-1.16a1.563 1.563 0 0 0 1.17-1.725l-.916-6.782h3.836v10.966h-10.52a2.944 2.944 0 0 1 1.788-1.299Z" fill="#000"/><path d="m30.256 31.005-.242.3a1.562 1.562 0 1 0 2.434 1.96l.243-.3a1.563 1.563 0 0 0-2.435-1.96Z" fill="#000"/></g><defs><clipPath id="a"><path fill="#fff" d="M0 0h100v100H0z"/></clipPath></defs></svg>