<svg width="1920" height="1024" fill="none" xmlns="http://www.w3.org/2000/svg"><g opacity=".36"><g opacity=".3" clip-path="url(#a)"><path d="M1647.69 890.902c-1.77-1.234-3.97.826-3.4 2.766 1.92 6.467 10.28 8.564 16.16 8.23 5.78-.658 11.64-3.447 15.21-8.021 1.78-2.288 2.96-5.449 2.51-8.132-.06-1.389-.96-3.233-2.54-3.82-1.48-.264-2.49 1.089-2.85 2.251-.36 1.161-.07 2.131-.52 2.97-.36 1.161-1.24 1.772-2.34 2.802-1.1 1.029-1.65 1.544-2.53 2.155-.55.515-1.19.706-1.52.802l-.64.191-.97.288c-2.82 1.185-5.83 1.723-8.47 1.1-2.88-.204-5.16-1.989-8.1-3.582Z" fill="url(#b)"/><path d="m1655.16 881.658-.46.838c-.72 2.323.05 4.91 2.14 6.048 1.58.587 3.3.432 5.01.277 1.29-.384 2.49-1.09 3.27-2.024 1.56-1.868 1.86-4.419.54-6.491-.71-1.197-1.97-1.88-3.22-2.563-.42-.228-1.16-.36-1.91-.491a4.698 4.698 0 0 0-2.91.861c-.55.515-1.1 1.03-.81 2-.32.096-.55.515-.88.611-.22.419-.55.515-.77.934.32-.096.32-.096 0 0Zm3.08 3.306c.33-.096.33-.096 0 0Zm2.89-3.317s.32-.096.42.227c0 0 .1.324.42.228l.1.323c.09.324.09.324.19.647l.09.324s.1.323-.22.419l-.23.419s-.33.096-.23.419l-.32.096-.33.095-.64.192-.33.096-.64.191c-.33.096-.33.096-.75-.132l-.32.096-.32.096-.42-.228-.1-.323-.19-.647c-.1-.323.23-.419.13-.742l.46-.839 1.61-.478c1.2-.707 1.3-.383 1.62-.479Z" fill="url(#c)"/><path d="M1687.44 924.154c2.44-6 1.72-13.174-4.11-17.426-6.35-4.803-13.97-3.248-20.19.703-5.34 3.341-10.85 8.489-8.19 15.088 1.18 2.815 5.38 1.57 4.52-1.34-.92-4.3 3.55-7.029 6.91-8.729 4.24-2.311 9.32-4.166 13.48-.825 3.22 2.564 3.17 7.151 2.51 10.863-.49 1.904-1.63 4-2.96 5.449-1.65 1.544-3.27 2.023-5.63 2.37-1.94.574-2.05 3.772.18 4.167 2.23.396 4.17-.178 6.01-1.076 4.91-.047 9.52 2.456 11.61 7.115 2.37 5.629.08 13.341-4.65 17.556-4.18 3.7-9.97 4.358-15.03 2.692-5.07-1.665-11-6.241-7.81-12.109 1.82-3.353-3.3-6.407-5.45-2.959-3.83 6.059-1.31 13.401 3.88 17.845 5.09 4.121 12.61 5.762 19.17 4.171 5.92-1.4 10.88-6.034 13.51-11.387 2.77-6.095 4.03-14.909-1.12-20.419-2.48-2.432-5.7-4.995-9.09-5.75-.32.096-.74-.132-.74-.132a31.81 31.81 0 0 0 3.19-5.867Z" fill="url(#d)"/><path d="M1783.36 892.936c-1.23-1.748-3.13-2.24-4.71-2.827-2.42-1.042-4.93-2.408-7.45-3.773-5.45-2.959-11.09-6.565-15.85-10.781-8.92-7.559-16.97-15.727-27.68-20.999-8.28-4.228-17.19-5.811-26.31-4.519-3.42.311-21.04 3.769-15.09 10.8.42.228.52.551 1.26.683-.55.515-.26 1.485.25 2.036 2.06 2.204 5.22 3.378 7.83 5.067 2.94 1.593 6.06 3.833 9.09 5.75 5.93 4.575 11.3 9.666 15.9 15.691 8.68 11.498 13.26 24.564 12.01 39.354-.3 2.551-3.05 11.102 2 10.312 5.68-.981 4.75-11.257 4.67-15.101-.3-6.946-.83-13.473-2.84-20.263-2.01-6.791-5.63-13.103-10.14-18.804-5.01-6.252-10.81-11.571-17.48-16.278-3.12-2.24-6.9-4.289-10.25-6.11-2.42-1.042-5.35-2.635-8.23-2.839 1.98-1.641 3.41-2.766 6.09-3.209 3.23-.957 6.66-1.268 10.18-1.256 9.72-.417 18.85 4.267 26.45 9.753 8.54 6.265 15.52 14.398 24.61 20.148 4.7 2.827 9.73 5.558 14.9 7.547 1.16.359 2.83 1.27 4.32 1.533-1.1 1.03-2.21 2.06-2.76 2.575-3.43 3.832-5.52 8.669-7.28 13.412-3.62 9.16-5.75 18.585-7.79 28.333-1.87 7.94-4.58 15.424-11.06 20.86-5.28 4.73-15.93 10.345-23.18 7.218 1.55-1.868 2.79-3.64 3.93-5.736 2.24-3.125 3.48-8.418 6.33-10.669 3.4-2.766-.13-8.755-3.85-5.893-2.85 2.251-4.35 5.508-6.17 8.861-2.28 4.191-5.3 8.251-8.09 11.891-6.36 8.214-14.78 14.225-24.71 17.516-9.6 3.196-19.42 3.29-29.43 2.738-11.08-.589-20.59-6.566-30.46-11.382-1.25-.683-2.49 1.089-1.55 1.868 6.95 5.677 13.49 11.128 21.95 13.548-.88.611-2.08 1.317-3.79 1.472-3.23.958-6.66 1.269-10.18 1.256-9.72.418-18.85-4.266-26.45-9.752-8.54-6.265-15.52-14.398-24.61-20.148-4.7-2.827-9.73-5.558-14.89-7.547-1.17-.36-2.84-1.27-4.33-1.534 1.1-1.03 2.21-2.059 2.76-2.574 3.43-3.832 5.52-8.67 7.28-13.412 3.62-9.161 5.75-18.586 7.79-28.334 1.87-7.939 4.58-15.424 11.06-20.86 5.05-4.31 14.73-9.638 22.02-7.577-2.66 2.898-4.9 6.023-7.04 9.472-10.72 17.243-11.45 38.56-5.05 57.771 2.81 8.311 8.03 21.186 18.1 23.128.74.132 1.52-.802 1.01-1.353-2.96-4.048-6.47-7.582-8.88-12.145-2.92-5.114-4.64-10.935-5.94-16.528-2.42-10.539-3.41-22.204-.5-32.562 3.27-11.52 10.12-21.639 18.94-29.877 4.63-4.538 10.01-8.944 16.19-11.829 6.41-3.305 13.58-4.022 20.75-4.739.94.778 2.56.3 3.33-.634l.23-.42c1.56-1.868.73-5.844-2.27-5.305-5.92 1.4-12.45 1.926-18.27 3.649-5.82 1.724-10.84 4.969-15.43 8.441-3.73 2.861-7.04 5.951-10.34 9.04-7.87-4.001-17.28-.159-24.47 4.08-7.83 4.429-12.77 11.518-15.51 20.069-3.43 9.807-4.44 20.657-7.86 30.465-1.8 5.808-4.15 12.131-7.94 17.124-.78.934-5.71 4.502-5.13 6.442l-.33.096c-.87.611-.68 1.257-.58 1.581 1.22 1.748 3.12 2.24 4.7 2.827 2.42 1.042 4.94 2.408 7.45 3.773 5.45 2.959 11.09 6.565 15.86 10.781 8.92 7.559 16.96 15.727 27.67 20.999 8.29 4.228 17.2 5.813 26.31 4.519 3.01-.539 15.03-2.692 16.14-7.243 10.21 1.199 20.45 1.333 30.24-1.216 10.12-2.645 20.03-8.392 27.23-16.151.78-.934 1.55-1.868 2.33-2.802 8.06 4.648 18.12.613 25.31-3.625 7.83-4.43 12.77-11.518 15.51-20.069 3.43-9.807 4.44-20.657 7.86-30.465 1.8-5.808 4.15-12.131 7.94-17.124.78-.934 5.71-4.502 5.13-6.442l.32-.096c1.3-.383 1.43-1.126.92-1.677Z" fill="url(#e)"/></g><g opacity=".07" clip-path="url(#f)" fill="#fff"><path d="M1765.86 499.071c.41.411.82.822.82 1.233l1.23 1.232c.42.41.83.41 1.65.821 1.23.411 2.88.411 4.11-.411 1.65-.821 2.47-2.464 2.47-4.107v-2.464c0-.411 0-.821-.41-1.643 0-.411-.41-.821-.41-1.232 0-.411 0-.411-.41-.821-.41-.411-.41-.822-.82-1.233-.42-.821-1.24-1.232-2.06-1.232-1.24-.41-2.06 0-3.29.411-.83.411-1.24.821-1.65 1.643 0 0-.41 0-.41.411-.41.41-.82.821-.82 1.232-.41.41-.41 1.232-.83 1.643v2.464c.42.821.83 1.232.83 2.053Zm9.87-4.107c0-.41 0-.41-.41-.821.41.411.41.411.41.821Z"/><path d="M1775.32 492.5c.41 0 .41 0 0 0 0 .411.41.411.41.821 0-.41 0-.41-.41-.821Zm-30.86 25.054c3.7 0 7 .41 10.7.41 6.58.411 12.75.822 19.34 0 2.05-.41 4.52-.41 6.58-.821v1.643c0 1.643-.41 3.285-.41 5.339v4.107c-3.7-.411-7 0-10.29.822-4.52 1.232-9.87 2.875-13.57 6.16-7 5.34-7 14.375-7 22.179v.821c-3.29 2.875-6.17 6.161-7.82 9.857-3.7 7.804-3.7 17.25.41 24.643 2.06 3.697 5.35 7.393 9.47 9.036 4.11 2.054 10.7 4.107 14.4.411.82-.822.82-2.054 0-2.465-2.47-2.464-6.17-2.464-9.05-3.696-2.47-1.232-4.94-2.875-6.59-5.339-3.7-4.929-4.52-11.09-2.88-16.84 3.29-12.321 18.11-18.892 30.04-15.607 1.64.411 3.29 1.232 4.52 2.054 1.65 1.232 3.71 2.053 5.35 3.696 2.88 2.875 5.76 9.447 2.88 13.554-2.46 3.696 5.35 4.928 4.12.411-.82-2.054-.41-4.518-.82-6.572-.42-2.464-1.24-4.518-2.06-6.571-2.06-4.107-4.12-7.804-8.23-10.268-7.41-4.518-16.46-4.518-23.86-1.643-1.65.411-2.88 1.232-4.53 2.054 0-5.34.41-11.911 4.94-15.197 3.29-2.464 7.4-2.875 11.11-2.875 4.52 0 8.64.411 13.16 1.232 3.29.411 6.17-2.053 5.35-5.339-.82-3.696-1.23-6.982-1.64-10.679 0-1.642-.42-3.696-.83-5.339 2.06-.411 3.71-.821 5.76-.821 5.76-.822 10.7-.822 16.46 0 1.65.41 2.88-2.054 1.23-2.875-4.11-2.465-10.28-1.643-14.81-1.643-6.58 0-13.58-.411-20.16 0-7.4 0-14.4.411-21.39-.411-5.76-.411-15.23-2.053-20.16 2.464-1.65 1.643-.42 3.697 1.23 4.518 2.06.411 5.76-.41 9.05-.41Z"/><path d="M1884.76 570.946c-6.58-2.875-7.81-11.089-12.34-16.017-2.06-2.465-4.94-4.108-7.82-5.34 2.47-1.232 4.94-2.875 6.59-4.928 4.11-4.518 5.76-11.09 10.69-14.786 2.47-2.054.42-5.339-2.46-5.75-.83 0-2.88-.411-3.71-.821-1.64-.822-2.88-1.643-4.52-2.465-2.88-2.053-5.35-4.107-8.64-6.16-2.06-1.233-4.53-2.465-7-2.875.82-1.233 1.65-2.875 2.06-4.518 1.64-3.697 2.06-7.393 2.06-11.09.41-4.107.41-7.803 2.88-11.089 1.64-2.464-2.47-6.161-4.53-3.286-1.65 2.054-3.29 3.286-6.17 3.286-2.47 0-5.35-.821-7.82-.821-3.29 0-5.76.41-7.82 2.053.41-2.053.83-4.107.83-6.16 0-3.697-.83-7.393-1.65-10.679-.82-3.696-1.23-6.982.82-10.268 1.65-2.875-2.47-4.928-4.11-2.464-.82 1.232-4.12 1.643-5.76 2.053-2.06.411-4.53 0-7 0-3.7 0-6.99.411-10.28 2.465-1.24.821-2.06 1.232-3.29 2.053v-2.464c0-2.875-1.24-6.161-2.47-8.625-1.24-2.875-3.29-4.929-4.94-7.393-2.06-2.464-3.29-5.339-3.7-8.214-.41-2.875-4.12-2.464-4.94 0-1.23 3.286-3.29 4.928-6.17 6.161-2.88 1.232-6.17 2.464-9.05 4.107-2.47 1.643-4.12 4.518-5.35 7.393-.83-1.643-2.06-3.286-3.71-4.929-2.05-2.054-4.52-3.696-6.99-5.75-2.47-2.054-4.53-4.107-5.76-6.982-.82-1.643-3.29-1.643-4.12 0-1.23 2.875-2.46 5.75-4.52 8.214-2.06 2.464-4.53 4.929-6.17 7.804-1.65 2.464-2.47 5.339-2.47 8.625l-.82-.822c-2.47-2.053-5.77-3.285-9.06-3.696-3.7-.411-6.99.411-10.69.411-2.88 0-5.35-.411-7.82-.822-.41-.411-.82-1.232-1.24-1.643-.82-.821-2.05-.41-1.64.822v.821c-.41.411-.41.822 0 .822v3.285c0 1.643-.41 3.286-.41 4.518-.41 3.286-1.65 6.572-1.24 10.268 0 2.464.83 4.929 1.65 7.393-2.06-.822-4.53-1.643-6.59-1.643-1.64 0-3.7.411-5.34.411-1.65.41-3.3.821-5.35 1.232-3.71.821-7.41 0-11.11-.411-.82 0-1.65 1.232-1.24 1.643 0 .411.42.411.42.821h-.42c-.41 0-.82.822-.41 1.233.83.821.83 1.642.83 2.464 0 1.643 0 2.875-.42 4.518-.41 2.875-1.23 5.75-.41 9.035.83 4.518 4.12 7.804 8.23 10.679-2.47 0-4.52.411-6.99 1.232-2.88.822-5.35 2.875-7.82 4.518-1.24.821-2.88 2.054-4.53 2.875-1.23.821-2.47 1.232-3.7 1.643l-.41.411c-.82 0-1.24.41-1.65.821v1.232c0 .411.41.411.83.411l.41.411c.41.41.82.41 1.23.821.82 1.232 1.24 2.464 1.65 3.696 1.23 2.875 1.64 6.161 3.29 9.036 2.06 4.518 6.17 6.982 10.7 8.625-2.06 1.232-4.12 2.875-5.76 4.518-2.06 2.054-2.88 4.518-4.53 6.982-1.23 1.643-3.29 4.518-5.76 4.107-2.06-.41-3.29 2.465-1.65 3.286 2.88 1.643 5.76 4.518 8.23 6.571 2.47 4.108 5.76 6.983 9.47 9.036 1.64.822 3.29 1.643 4.93 2.054-1.23 2.053-1.64 4.518-2.05 6.982-.83 6.161 1.23 13.553-2.47 18.893-.82 1.232.41 3.285 2.06 3.285 4.52-.41 8.64 1.233 13.16 2.054 3.7.821 7.82 1.643 11.52.821h.41c-.82 2.465-.41 5.75 0 8.215.42 2.875 1.24 6.16 1.65 9.035v3.286c-.41 1.643-.82 2.054-1.65 3.697-.82 2.464 2.06 4.517 4.12 3.285 3.29-2.053 7.82-2.053 11.52-2.053 4.11-.411 7.4-1.232 11.11-2.465 1.23-.41 2.47-1.232 3.7-2.053.41 2.464 1.24 4.928 2.47 6.982 3.7 6.161 9.87 10.679 12.34 17.661.83 2.464 5.35 2.464 4.94-.822-.41-6.571 7.41-7.393 11.93-9.857 2.47-1.232 4.53-3.696 6.17-6.161.83 2.054 2.47 3.286 4.12 4.929 1.64 1.232 3.29 1.643 4.94 2.054 1.64.41 3.7.41 5.34 1.232 3.3 1.232 4.94 4.518 7.41 6.982 2.47 2.053 6.17-.411 4.53-3.697-1.24-2.464-.41-4.928 1.23-6.982 1.65-2.464 3.7-4.928 4.94-7.393.82-2.053 1.64-4.107 2.06-6.571 1.64 1.643 3.29 3.286 4.93 4.518 3.29 2.053 7.41 1.643 11.11 1.643 4.12-.411 8.23-.822 11.52 2.053 2.47 2.465 7-.821 4.94-3.696-2.06-2.875-2.06-5.339-1.23-8.625.82-3.286 2.05-6.982 2.05-10.679 0-2.464-.82-4.928-1.64-7.393 2.05.822 4.52.822 6.58.411 2.88-.411 6.17-.821 9.05-.821 2.06 0 4.12 0 6.17.821.42.411.83.822 1.65 1.232 3.29 1.643 5.76-2.875 2.88-4.928-2.88-1.643-2.47-4.929-2.06-7.804.41-3.696 1.24-6.982.83-10.678-.42-2.054-.83-4.108-2.06-5.75 2.47-.411 4.94-1.233 6.99-2.465 4.12-2.875 8.64-9.035 14.4-7.803 1.65.41 2.88-.411 3.71-1.643.82-1.232.41-2.875-.83-3.697Zm-37.03-81.732c2.47.411 5.35.822 7.41.411-.82 4.518-.82 9.036-2.06 13.554-.82 2.875-2.47 5.75-4.52 7.803-.83 1.232-2.06 2.054-3.3 2.875-.41.411-1.23.411-1.64.822-.82-1.643-1.65-3.286-2.88-4.929-2.88-4.518-5.76-9.036-9.05-13.554.82-1.232 2.05-2.464 2.47-4.107.41 0 .41 0 .82-.41 1.64-1.643 3.29-3.286 5.76-3.697 2.47-.411 4.94.822 6.99 1.232Zm-33.74-25.464c3.3-1.232 7.41-.411 10.7-.411 1.65 0 3.71 0 5.35-.41-.41 4.517 1.24 9.446 1.65 13.964.41 2.875 0 6.161-1.24 8.625-.82 1.232-1.64 2.875-2.47 4.107-.41.411-.41.821-.82 1.232-6.17-6.982-14.81-12.321-23.86-16.018 1.23-1.232 1.23-3.696 1.64-5.339.41-.411.83-.821.83-.821 2.46-2.465 5.34-4.108 8.22-4.929Zm-41.14-6.982c1.23-3.286 3.29-5.339 6.58-6.982 2.88-1.232 5.76-2.054 8.64-3.286 1.24-.821 2.47-2.054 3.71-3.286 1.64 2.875 3.7 5.34 5.35 8.625 1.23 2.054 2.46 4.929 2.46 7.393 0 2.464-.41 4.929-1.23 7.393-.41 1.643-.82 3.696-.82 5.75-2.88-1.232-5.76-2.054-8.64-3.286-5.35-1.643-10.7-2.875-16.87-2.875 0-.821-.41-2.053-.41-2.875 0-.41-.42-.821-.42-1.643.42-1.642.83-3.285 1.65-4.928Zm-33.74 4.518c.41-2.875 1.65-5.34 3.7-7.393 2.88-3.286 6.59-6.572 8.64-10.268 2.88 3.286 6.18 5.75 9.47 8.625 2.06 2.054 3.7 4.929 4.52 7.804.42 1.642.83 2.875.83 4.517 0 .411 0 1.233.41 1.643-8.23.411-16.46 1.643-24.28 4.518 0-.411 0-.821-.41-1.643-.41-1.232-1.23-2.053-2.06-2.875 0-.41-.41-.821-.41-1.232-.82-1.232-.82-2.464-.41-3.696Zm-59.25 42.303c-.41-.821-.41-1.232-.82-2.053v-.822c0-3.285.41-6.16-.41-9.446 0-1.232-.82-2.464-1.65-3.697 4.94 2.054 11.11.411 16.46 0 2.47 0 4.94.411 7.41 1.643 2.47 1.232 4.52 3.286 6.58 4.518-4.94 2.054-9.88 11.911-11.52 14.786-.82 1.232-1.24 2.875-2.06 4.107-.41-.411-.82-.411-1.23-.821-3.29-.822-7-2.465-9.47-4.518-1.23-1.232-2.46-2.465-3.29-3.697Zm-9.46 36.143c-.41-.821-1.24-1.643-1.65-2.464 0-.411-.41-.822-.41-.822v-.41c-1.23-3.286-2.47-6.572-4.52-9.036-.42-.411-.42-.821-.83-.821 1.24-.411 2.47-.822 3.71-1.233 2.88-1.232 5.34-3.285 8.23-4.517 2.46-.822 5.34-1.233 8.22-.822 1.24 0 2.88 0 4.12.411 1.64.411 2.06.411 3.29 1.232.41 0 .82.411.82.411-2.88 7.803-4.52 16.018-4.93 24.232h-.42c-3.7 0-7.4-.411-10.69-2.054-2.47-1.643-3.71-2.875-4.94-4.107Zm-7.82 27.518c2.88-2.054 4.53-5.75 6.58-8.214 1.65-2.054 3.71-3.697 6.18-4.929 2.47-1.232 5.76-2.875 8.64-2.053h1.64c0 9.035 1.24 18.071 4.12 26.696-2.06 0-3.71.411-5.35 1.232-3.29 0-6.17-2.053-8.64-3.696-4.53-2.465-8.64-6.572-13.17-9.036Zm38.68 44.768c-3.29.411-7-.411-10.29-.822-2.88-.41-6.17-.41-9.05-.821.82-1.643 1.23-3.696 1.23-5.339.42-3.286.83-6.982.83-10.268 0-2.875.41-6.161 1.23-8.214 0-.411.41-.411.41-.822h.41c1.65-.411 3.71-.821 4.94-2.053 1.24 2.875 2.47 5.339 3.7 7.803 3.71 6.161 8.23 11.089 13.17 16.429-1.23 2.464-3.29 4.107-6.58 4.107Zm25.51 23.821c-3.29 1.232-6.59 1.643-10.29 2.054-2.06 0-3.7.411-5.76.411h-.41c0-3.697-1.23-8.215-2.06-11.09-.82-2.875-1.64-5.339-1.64-8.214 0-1.643.41-2.875 1.23-4.107 1.65-.822 2.88-2.054 4.12-3.286 4.11 4.107 8.64 8.214 13.98 11.089 4.53 2.465 8.23-4.517 4.12-6.571-5.76-3.286-10.7-7.393-15.22-12.321-4.12-4.518-8.64-9.036-11.94-14.375-6.17-10.268-8.64-22.59-8.64-34.911-.41-13.143 2.06-26.286 7-38.607 1.23-3.286 2.88-6.982 4.52-10.268.83-2.054 2.06-4.107 3.3-5.75.41-.822 1.64-3.286 2.46-4.107.42-.411.83-1.232 0-1.643-.41-.411-.82-.411-1.23-.822l.41-.41c.41-.822.82-1.643.82-2.465.83-.821.83-2.053 0-3.285-1.23-2.054-2.88-4.107-4.11-6.161-1.23-2.054-1.65-4.518-1.23-6.982 0-3.286.82-6.161.82-9.447 0-1.232 0-2.053-.41-3.285 4.11 1.643 9.46 1.232 13.99 1.643 2.88.41 5.34 1.642 7.4 3.285 2.47 2.054 4.12 4.929 6.59 7.393-6.59 3.286-12.76 7.804-17.29 13.964-2.05 2.465 2.06 5.34 4.12 3.286 15.63-16.428 43.2-20.536 64.18-13.553 12.35 4.107 27.16 10.267 35.8 20.535 4.12 4.929 8.23 9.857 11.52 15.197 1.24 1.643 2.47 3.696 3.7 5.339.42.411.83.821 1.24 1.232 0 1.643.82 3.286 3.29 3.697.41.821 1.65.821 1.65 0v-.411c2.88-.822 6.17-3.697 8.23-5.339.41 0 1.23 0 1.64.41 2.06.822 4.94 2.465 7 4.107 3.7 2.875 7.4 6.161 11.93 8.215-2.06 2.875-3.71 6.16-5.76 9.035-1.65 2.465-3.29 4.108-6.17 5.34-2.06.821-4.53 1.232-7 1.232-.82 0-1.64 0-2.88.411 0-2.054-.41-4.108-.41-5.75-.41-4.108-7.41-2.875-7 .821 1.24 15.196 0 31.214-7.4 44.768-6.58 11.911-16.87 22.589-27.98 29.982-11.93 7.804-27.16 13.964-41.56 11.5-9.46-1.232-19.75-.821-28.39-4.929-.82-.41-1.64 0-1.64.822 0 1.232.82 2.464 1.23 3.286-1.64 2.053-2.88 4.107-4.52 5.75-.41 1.232-2.88 2.464-5.35 3.285Zm33.33 13.554c-3.71 2.053-7.82 3.696-9.88 6.982-2.47-3.696-5.76-6.982-9.05-10.268-2.47-2.875-4.12-6.161-4.53-9.446.41-.411.83-.411.83-.822 2.05-1.643 4.11-4.107 4.93-6.571 6.17 2.464 16.05 2.464 20.58 3.286 2.05.41 4.11.821 5.76.821-.42 3.286-.83 6.571-2.47 9.857-1.24 2.875-3.29 4.518-6.17 6.161Zm37.44-6.161c-1.65 2.875-4.12 5.75-5.35 9.036-.82-.411-1.24-.822-2.06-1.232-1.64-.822-3.29-1.643-4.94-1.643-1.64-.411-3.7-.411-5.35-.822-2.88-.821-4.52-3.285-5.76-5.75 0-.41-.41-.41-.41-.821.83-2.464 1.65-5.339 1.65-7.804 4.11 0 8.23-.41 12.34-1.642 4.12-1.233 8.23-2.465 11.93-4.108 0 .411.42.822.42 1.233.41 1.642.41 3.696.41 5.339 0 2.875-1.24 5.75-2.88 8.214Zm28.8-6.161c-3.7.411-7.41 1.233-11.11.411-2.88-.821-5.35-3.286-7.41-5.339-.41-.411-.82-1.232-1.23-1.643 0-1.643-.41-3.286-1.24-4.929 1.65-.821 3.3-1.642 4.53-2.875 6.17-4.107 11.93-8.625 17.28-13.964.82 1.643 2.06 2.875 2.88 4.107 2.06 2.875 3.29 6.982 3.29 10.679-.41 3.286-1.64 6.161-2.47 9.446-.41 1.232 0 2.465 0 3.697-1.23.41-2.88.41-4.52.41Zm20.98-26.285c-3.7.821-7.82 1.232-11.11-.411-.82-1.232-1.64-2.464-2.47-3.696-.41-.822-.82-1.233-1.23-2.054 0-.411-.41-.411-.41-.411 5.76-6.571 10.28-13.964 13.58-21.768 3.29 1.233 6.58 2.465 9.05 4.929 2.47 2.464 3.7 5.339 3.7 8.625-.41 4.107-1.64 9.036-.82 13.143-4.12.411-7.41 1.232-10.29 1.643Zm20.57-31.625c-2.05 2.053-4.52 3.696-7.81 4.107h-2.06c-2.88-2.875-6.58-4.518-10.7-6.161 2.88-7.803 4.12-16.018 4.53-24.232 2.47.411 5.35.821 7.82 1.643 3.7 1.232 6.99 2.875 9.05 5.75 2.05 2.464 3.29 5.75 4.93 8.214.83 1.232 1.65 2.464 2.47 3.286-2.88 2.053-5.76 4.928-8.23 7.393Z"/></g><g opacity=".1" clip-path="url(#g)" fill="#fff"><path d="M102.528 854.198c-11.11-3.729-24.276-.414-35.796-1.243-3.292-.414-6.584-1.658-9.875-2.072-3.703 0-7.818-.414-11.52-.414-6.584 0-13.579-.829-20.162.828-2.88.829-2.88 5.388 0 5.802 6.583 1.658 13.578 1.243 20.161 1.658h.412c-1.646 3.73-3.292 6.63-5.35 9.946-2.468 3.73-5.348 6.63-7.405 10.775-3.703 7.045-5.76 14.504-3.292 22.378 4.938 14.09 20.984 18.234 34.15 15.748 2.88-.415 6.172-1.658 9.464-3.316v.415a85.357 85.357 0 0 0 0 14.504c.411 5.802 9.052 5.802 8.64 0-.411-4.973 0-9.531 0-14.504.412-7.874 0-15.748 0-23.207 0-7.045-.411-14.09-.411-21.136-.412-4.144.411-9.117-1.646-12.846 2.88-.415 5.76-.415 8.64-.829 2.88 0 5.76 0 8.23.414 1.645.415 3.702.829 5.348-.414 1.646-.415 1.646-2.072.412-2.487Zm-26.333 17.406c-.823 7.045-1.234 14.09-1.646 21.135 0 3.315-.411 6.216-.411 9.531-.823.829-1.235 1.658-2.058 2.487-1.234.829-2.88 1.658-4.114 2.486-2.88 1.244-6.172 2.072-9.052 2.072-6.172.829-13.166-.828-17.692-5.801-4.938-5.802-3.292-12.847-.823-19.478 1.646-4.144 3.291-8.288 4.937-12.847 1.235-3.729 2.88-7.874 3.292-12.018 2.88 0 5.76.415 8.229 0 3.703 0 6.994-1.657 10.698-1.657h10.697c.412 4.558-1.646 9.531-2.057 14.09ZM57.268 842.18c.823 0 1.646.415 2.88 0h.412-.412c1.646.415 3.704 0 4.938-1.243 1.234-1.243 2.057-3.315 2.057-4.973v-2.486c0-1.658-.823-3.316-2.469-4.559-1.234-.829-2.88-1.243-4.526-1.243-1.645 0-3.291.414-4.525 1.657-.412.415-.412.415-.412.829-.823.415-1.646 1.243-2.057 2.072-.823 2.072-.823 4.144 0 6.216.823 2.487 2.469 3.73 4.114 3.73Z"/><path d="m175.766 919.676-2.469-1.244c-2.88-2.072-3.703-5.801-3.703-9.117 0-4.558.412-8.702-1.234-12.846-2.057-4.973-6.172-8.703-11.109-10.775 2.057-1.243 3.703-2.901 5.349-4.973 2.88-3.73 3.703-8.288 4.526-12.847.823-3.315 2.057-5.802 4.114-8.288 1.235 0 2.057-1.244 2.469-2.072 0-.415 0-.415.411-.829 1.235-2.901-1.234-4.973-3.703-4.144-2.468-1.244-4.114-2.901-5.76-5.388-2.469-2.901-4.114-6.216-6.995-8.288-3.291-2.901-7.817-4.559-12.343-4.559 1.234-4.144 1.646-8.702.823-12.432-.412-2.487-5.76-13.261-5.349-16.991.823-.829 2.057-1.658 2.469-2.487 1.234-2.072-.823-4.144-2.88-3.729-2.058.829-4.115 1.657-6.172 2.072-2.469.414-4.938.414-6.995 0-3.703-.415-7.406-.829-11.52 0-1.646.414-3.703.829-5.761 1.243 0-2.486-.411-4.973-1.234-7.459-1.234-3.73-3.703-7.045-6.583-9.532-2.88-2.486-8.23-5.802-8.23-9.946 0-2.072-2.468-2.901-4.114-1.658-1.645 1.244-2.88 2.901-4.937 3.73-1.646.829-3.292 1.243-4.938 1.658-3.703.829-7.817 1.657-11.109 3.73a26.285 26.285 0 0 0-8.229 8.288c0 .414-.411.414-.411.829-2.057-4.559-5.349-8.289-9.052-10.775-3.703-2.072-7.818-2.487-11.932-3.73-3.703-1.243-6.172-4.144-8.229-7.459C29.29 767.586 26 768 26 770.901c0 9.117-6.172 15.748-8.64 24.036-1.235 3.73-.824 7.459.41 10.775-3.702-3.316-7.817-6.216-12.754-7.46-3.703-.829-7.406-.829-11.52-.414-3.704.414-8.641 1.243-11.933-1.658h-.411c-1.235-.829-2.88 0-2.469 2.072 1.234 4.973.412 10.361-.411 15.334-.823 4.558-1.235 9.117-.412 14.09.412 2.901 1.646 6.63 3.703 9.531-3.291 0-6.995.415-10.286 1.658-4.526 1.658-8.229 4.558-11.52 7.459-2.88 2.487-5.35 4.973-9.053 6.631h-1.645c-.823 0-1.646.829-1.646 1.658v.414c0 .415.411.829.823.829l.823 1.243c.823.829 1.234 2.072 1.645 3.315 1.235 2.487 2.47 4.973 3.292 7.874 0 .415.412.415.412.829 0 .415.411.829.411 1.243.411 1.244 1.234 2.901 1.646 4.145 1.646 3.729 4.526 6.63 7.817 8.702 1.235.829 2.058 1.244 3.292 1.658-2.469 1.243-4.526 2.901-6.172 4.973-2.469 2.901-4.114 5.802-5.349 9.531-.823 1.244-1.645 4.559-2.468 7.045-.412.829-.823 1.658-1.235 2.073-.411.828-.823 1.243-1.234 1.657-1.234 1.243-2.469 1.658-3.703 3.316-.823 1.243 0 2.486.823 2.9 0 0 0 .415.411.415.412.414 1.235.414 2.057 0 .412.414 1.235.829 1.646.829 1.646 1.243 2.88 2.486 4.526 3.729 2.469 2.487 4.938 5.388 8.23 7.045 4.525 2.487 9.463 3.316 14.4 3.316h.411c-.411.414-.411.829-.411 1.243-1.646 2.901-2.057 6.216-2.057 9.532 0 4.144 1.234 7.873 2.057 12.018.411 3.315-.823 7.459 1.646 10.36 1.646 2.072 4.937 2.486 7.406 2.901 3.291.414 6.583.414 9.875.414 2.88 0 6.171 0 9.051-.829 2.47-.828 4.526-2.072 6.584-3.315 0 3.315.411 7.045 2.057 9.946 2.057 3.73 4.937 6.216 7.406 9.532 2.469 3.315 3.292 7.873 4.526 11.603.823 2.487 3.703 3.315 5.76 1.658 2.88-2.901 5.76-5.802 9.875-7.045 4.114-1.243 7.817-2.072 10.698-4.973 2.468-2.487 3.703-5.388 4.526-8.703v.415c1.645 4.144 4.937 6.63 9.051 8.288 3.292 1.243 6.995 1.657 10.698 2.901 3.292 1.243 5.76 2.901 7.818 6.216 1.645 2.901 5.76 2.072 6.583-.829 2.057-7.045 7.817-12.018 11.109-18.234.823-1.658 1.646-3.315 1.646-5.388 2.057 1.244 4.526 2.487 7.406 2.901 4.937.829 9.875 0 14.812-1.657 4.526-1.658 9.463-3.316 14.401-1.658 3.703 1.243 5.349-3.73 3.291-6.216-2.88-3.73-1.645-7.46-.411-12.018 1.234-4.144 1.646-8.288.411-12.433-.411-1.657-.823-2.901-1.645-4.558 2.468.414 4.937.414 7.406-.415 4.114-.828 7.406-3.729 10.697-6.216 3.292-2.486 7.406-6.216 11.521-4.144 2.469 2.072 4.526-1.658 2.057-3.315Zm-30.036-80.397c3.703 1.244 6.995 3.316 9.464 6.631 2.88 3.73 5.349 8.703 9.463 11.604-.823 1.243-2.057 2.486-2.469 4.144-1.646 4.144-1.645 8.288-3.291 12.432-2.058 4.559-6.172 7.46-10.698 8.703h-3.703c-.823 0-1.234.414-1.646.829-.823-12.433-4.937-24.865-10.286-36.054 0-.415-.411-.415-.411-.415.822.415 2.057.415 2.88-.414 3.291-1.658 5.349-4.144 7.406-7.045 1.234-.415 2.468-.415 3.291-.415Zm-26.744-33.567c4.115.414 7.818 1.243 11.932 1.243 1.646 0 3.292 0 4.526-.414 0 4.558 1.646 9.117 2.88 13.261 0 .414 0 .829.412 1.243v3.315c0 2.072-.412 4.145-1.235 6.217-1.234 3.729-3.291 7.045-6.583 9.117-.823.414-1.646 1.243-1.646 2.072-6.171-9.946-14.4-19.478-23.864-26.108 2.469-1.658 3.703-5.388 4.115-8.289.411 0 .823-.414 1.234-.414 2.469-1.243 5.349-1.658 8.229-1.243Zm-52.254-15.748c2.057-2.486 4.938-4.144 8.23-4.973 5.348-1.658 11.52-2.072 15.634-5.802.412.415.823 1.243 1.234 2.072.823 1.658 2.058 2.901 3.292 4.144 2.469 2.487 4.526 4.973 5.76 8.289 1.235 3.315 1.235 6.63 1.235 9.946 0 .829 0 1.243-.412 2.072 0 .414-.411 1.657-.411 1.657-.412 1.244-1.235 1.658-1.646 2.901-.411.415-.411.829-.411 1.244-11.521-6.217-25.51-8.289-38.265-8.703 1.234-.415 2.057-1.243 2.468-2.487.823 0 1.235-.828.823-1.657-1.645-2.901.823-6.631 2.47-8.703Zm-43.202 3.315c2.469-5.387 5.76-10.36 6.995-16.162 1.234.829 2.057 2.072 3.291 2.901 3.292 2.487 7.406 2.901 11.52 4.144 7.407 2.487 10.287 9.946 11.521 16.991.412 1.243.823 2.072 2.058 2.072-10.287 0-24.276.829-34.15 6.631-.824-1.658-2.058-3.73-2.47-5.387-1.234-4.145-.41-7.874 1.235-11.19Zm-61.306 76.667c-2.469-4.559-4.526-9.117-7.406-13.261l-.411-.415c6.171-1.657 10.697-8.288 16.869-10.774 4.937-2.073 13.166-2.901 17.692.828 0 0 .412 0 .412.415-1.646 3.315-3.292 6.63-4.526 9.946-2.88 7.045-4.115 14.919-4.938 22.378-1.234-.414-2.468-.829-3.703-.829-2.057-.414-4.526-.829-6.583-1.657-3.703-1.658-5.76-3.73-7.406-6.631Zm14.4 54.288c-3.702-.414-7.405-1.243-10.697-3.315-3.291-2.486-6.583-4.973-10.286-6.216 1.234-1.243 2.057-2.487 2.88-3.73 2.057-3.315 2.88-7.459 4.526-11.189 0 0 0-.415.411-.415 0-.414.412-.828.412-1.243.411-.829.823-1.657 1.646-2.486 1.234-1.658 2.468-3.316 4.114-4.144 1.646-1.244 2.88-1.658 4.938-2.073 1.645-.414 3.291 0 5.348 0 0 6.631.823 13.262 2.88 19.478 1.235 4.559 2.88 9.117 5.35 13.261-1.646.829-2.47 1.243-4.527 1.658-2.057.414-4.937.414-6.994.414Zm27.98 38.126c-3.292.829-6.995.829-10.287 1.244-2.88 0-5.349.414-8.229.414.823-2.901.823-6.216.412-8.703-.823-4.973-2.47-9.531-2.47-14.09 0-3.315 1.647-6.216 3.704-8.702l1.234-1.244c1.235-.414 2.469-.828 3.292-1.657 5.76 9.531 13.99 17.82 23.041 24.036-.823.829-1.234 2.072-2.057 2.901-2.469 2.901-5.35 4.973-8.64 5.801Zm34.972 22.379c-2.057.829-4.114 2.486-6.171 3.73-.412-2.073-1.235-4.145-2.469-5.802-2.057-3.73-5.349-6.216-7.817-9.532-2.058-2.901-2.88-6.216-2.88-9.531v-6.631c9.463 5.802 20.16 9.946 30.858 11.604 1.234 0 2.057.414 3.292.414-1.235 4.144-1.235 8.703-4.526 12.018-3.292 2.487-6.995 2.487-10.286 3.73Zm57.192-10.775c-2.469 4.144-5.349 7.874-7.818 11.604-1.234-1.244-2.88-2.487-4.526-3.316-3.291-1.657-6.994-2.072-10.286-2.901-3.291-.828-6.583-1.657-8.64-4.973-.823-1.657-1.235-2.9-2.058-4.558 4.938 0 9.875 0 14.813-.829 6.994-1.243 16.87-3.315 19.75-10.775v-.414 1.243c.41 2.072 1.234 3.73 1.234 5.802.411 3.315-.412 6.216-2.47 9.117Zm20.161-7.045c-3.292 0-6.583-.414-9.463-2.901l-1.235-1.243c-.411-2.072-.823-3.73-1.234-5.388-.412-.828-.412-1.657-1.234-2.486 0 0 .411 0 .411-.414 4.937-2.901 9.875-6.217 11.521-11.604.411-.829-.823-1.658-1.646-.829-3.292 3.73-8.229 6.631-12.755 9.117-2.469 1.243-4.938 2.487-7.818 3.73-2.88.414-4.937 1.658-7.406 2.901a41.524 41.524 0 0 1-10.286 2.486c-6.995 1.244-13.99.829-20.984 0-13.578-1.657-26.744-7.874-37.442-16.162-24.275-17.82-34.561-50.144-27.155-79.567 2.057-8.289 5.76-16.163 10.286-23.622 2.469-3.73 4.937-7.459 7.817-10.775 2.47-2.901 5.76-5.387 6.172-9.531 0-.415-.411-1.244-.823-1.244-3.703.415-6.172 2.901-8.64 5.388-3.292 2.901-6.172 6.216-9.052 9.946l-2.469 3.73c-3.291-.829-5.76-2.073-7.406-5.388s-2.88-7.045-2.88-10.36c-.411-4.559 1.234-9.532 1.646-14.09a22.7 22.7 0 0 0 0-7.46c1.646.415 2.88.829 4.937.829 3.703 0 7.818-.414 11.52.414 6.995 1.658 11.933 7.046 16.87 12.433-.411.414-.411.829-.823.829-.823 1.243.823 2.486 2.058 2.072 5.348-2.901 10.286-5.802 16.046-7.045 6.172-1.658 12.755-2.072 19.338-2.072 12.755 0 25.921 2.072 37.442 7.459 25.921 12.018 42.379 43.099 43.202 71.279.412 7.874-.823 16.163-3.291 23.622-1.235 3.315-2.469 6.631-4.115 9.532-.411.414-.823 1.243-.823 2.072-2.057 3.729-3.291 7.874-6.172 11.189-.411.414 0 .414.412.414 3.291-1.243 7.406-2.486 9.875-4.973l1.234-1.243c1.646 1.243 3.292 3.315 4.526 4.973 2.057 2.901 4.114 6.631 4.526 10.36.411 4.145-1.646 7.874-2.469 11.604-.411 2.072-.823 4.559-.411 6.631-7.818.414-14.401 5.387-21.807 5.387Zm36.207-40.613c-2.88 1.658-6.583 2.072-9.874 1.658-1.235-.414-2.469-.414-3.703-.829-1.235-1.657-2.881-2.901-4.115-4.144.412-1.243 1.234-2.072 1.646-3.315 3.292-7.46 5.349-15.334 6.172-23.622 0-2.072.411-4.144.411-6.216 1.646 0 3.292-.414 4.937-.829 3.292.415 6.172.829 9.052 2.487 3.703 2.072 6.584 5.801 7.818 10.36.823 3.73.411 7.874 1.234 12.018.412 1.658.823 2.901 1.646 4.144-5.76.829-10.698 5.802-15.224 8.288Z"/></g><g opacity=".1" clip-path="url(#h)" fill="#fff"><path d="M132.233 229.407c3.69-.814 7.38.814 10.66-1.221.82-.407.82-1.628 0-2.443-2.87-2.035-7.38-1.221-10.66-2.035a40.71 40.71 0 0 0-9.839-1.221c-7.79.407-15.58 1.221-23.37 1.221-7.789 0-15.579-.407-23.368-.407-3.69 0-7.38 0-11.07.407-3.69 0-6.97-.407-9.84 2.035-.82.815-.82 2.443 0 3.257 2.87 2.442 6.15 2.035 9.84 2.442 3.69 0 7.38.408 11.07.408 7.38.407 14.76.814 22.139.814.41 4.071-.82 8.955-.82 13.026 0 3.664 0 9.363-3.28 11.806-3.28 2.442-7.79 3.663-11.89 4.07-1.64.407-3.69.407-5.33.407-1.64 0-2.87-.814-4.51 0-.409 0-.819.408-.819.815v.814c0 .814.41 1.221.41 1.628.82 2.85 1.64 6.106 2.46 8.956 1.23 3.664 2.87 7.327 4.92 10.584 2.05 3.257 4.1 6.513 6.15 10.177 1.64 2.849 2.87 7.327 5.33 9.363 3.689 3.256 7.789-2.036 5.329-4.885-2.87-6.106-6.97-11.806-10.25-17.912-1.64-2.849-3.28-6.106-5.33-8.955-.82-1.222-1.64-2.85-2.87-4.071 1.64.407 3.28.814 4.51.814 6.15.407 12.71-1.628 17.22-5.292 5.33-4.071 6.559-10.584 6.149-17.097-.409-4.885 0-10.992-2.049-15.877l18.449-1.221c4.1 1.221 7.379.407 10.659-.407Zm-36.488-16.283c1.23.814 2.05 1.221 3.28 2.035.41 0 .82.407 1.23.407.82 0 1.23.407 2.05.407 1.229 0 2.459-.407 3.689-.814s2.05-1.628 2.87-2.442c.82-1.221.82-2.443.82-3.257v-1.221c0-.407 0-.814-.41-1.221 0-.407-.41-1.222-.82-1.629-.41-.814-1.23-1.628-1.64-2.035-.41-.407-.82-.814-1.23-.814-.82-.407-1.23-.407-2.459-.814h-2.87c-.82 0-1.64.407-2.05.814-.41 0-.41.407-.82.407-.41.407-1.23.814-1.64 1.221-.82.814-1.64 2.036-2.05 3.257 0 .407-.41 1.221 0 1.628 0 .407 0 1.221.41 1.628 0 .407.41 1.629 1.64 2.443Z"/><path d="M210.95 294.54c-1.64-.814-3.69-1.221-4.92-2.85-1.23-1.628-1.23-4.885-1.23-6.513-.82-6.513-1.23-13.434-4.1-19.54-1.64-3.664-4.509-8.141-8.199-10.584 1.64-1.221 3.69-2.035 5.33-3.664 4.099-3.663 6.149-8.955 6.969-14.247.41-4.478 0-8.956 0-13.027 0-3.664.82-8.549 4.51-10.177.41 0 .41-.407.82-.407 2.46-1.628 2.05-6.106-1.64-6.106-2.46 0-4.51.407-6.56-.407s-3.69-2.443-5.329-4.071c-3.69-3.664-6.97-7.735-11.48-9.77-4.92-2.442-11.069-3.257-16.399-2.035-.82 0-1.64.407-2.46.814 1.64-7.735 2.46-15.469-1.64-22.797-2.87-4.885-6.97-8.548-11.07-12.212-3.689-3.664-7.789-9.77-7.379-15.469 0-2.443-3.28-3.664-4.92-2.036-1.64 1.629-3.28 4.071-5.74 5.293-2.05 1.221-4.51 1.628-6.969 1.628-5.33.814-11.07 0-16.4 1.628-5.33 1.221-9.839 4.478-12.71 9.363-.41 1.221-1.23 2.442-1.64 3.664-3.689-6.514-10.249-11.399-16.808-13.841-9.02-3.257-22.14 1.628-27.47-8.142-1.64-3.256-7.379-2.035-6.969 2.036 1.23 10.991-10.25 17.911-14.35 27.274-2.05 4.885-2.05 10.584-.41 15.469.41 1.628 1.23 3.257 2.05 4.885-8.199-3.257-16.809-4.071-25.008 1.221-7.38 4.478-13.12 14.655-22.96 13.841-4.1-.407-4.51 4.885-2.05 6.92 11.07 7.328 6.56 21.169 11.48 31.753 1.64 3.663 4.1 6.92 6.56 9.362-4.1 2.443-6.97 6.921-9.02 11.399-1.64 3.663-2.46 7.734-2.87 11.805-.41 4.071-.41 8.142-1.23 12.212-.41 2.036-.82 4.071-2.05 5.699-.82 1.629-2.46 2.443-3.28 4.071-.41.407 0 1.222.41 1.629.41.407 1.23.407 1.64.407v.407c1.23 1.628 4.1 2.035 6.15 2.849 2.05.814 4.1 2.036 5.74 3.257 4.1 2.85 7.38 6.92 11.89 9.363 4.51 2.442 9.84 3.256 15.17 3.663 2.459 0 4.509-.407 6.969-1.221 0 0 .41 0 .41-.407a46.88 46.88 0 0 0-1.23 15.062c.41 6.106 3.69 10.991 7.38 15.469 4.1 4.885 9.84 9.77 9.84 16.69 0 4.885 7.379 4.885 7.379 0v-1.628c5.74-4.071 14.76-1.628 21.319-2.442 5.74-.407 11.48-3.664 15.58-7.735 2.049-2.035 3.279-4.478 4.099-7.327 2.46 4.885 7.79 9.77 11.479 12.212 4.51 3.257 9.84 4.071 15.58 4.071 2.87 0 5.74 0 9.019.407 3.69.407 6.15 2.442 9.43 4.071 2.46 1.628 5.33-.814 4.51-3.664-1.23-4.071 3.28-7.734 6.149-10.177 3.69-2.85 7.79-5.699 9.84-10.177 4.1-7.327 4.51-15.469 2.46-22.796 4.92.814 10.659-.408 15.169-2.443 5.33-2.442 10.25-6.513 14.76-10.177 2.05-1.628 3.69-3.664 6.559-4.071 2.46-.407 4.92-.407 7.38-.407 4.1-.814 6.15-5.699 2.46-7.327Zm-36.898-98.106c4.919.407 9.019 2.849 12.299 6.513 4.1 4.478 8.61 9.77 14.349 11.398-2.46 5.292-2.46 11.805-2.46 17.097 0 4.478-.409 9.363-3.689 12.62-3.69 4.071-8.61 4.885-13.53 6.513-.41-17.504-5.74-34.602-17.219-48.442 0-.407 0-.407.41-.814.41-.815.41-2.036.82-2.85 2.05-1.221 4.92-2.035 9.02-2.035ZM41.627 166.717c4.1-5.699 9.43-11.398 11.48-17.912 5.74 3.257 13.53 3.257 20.499 3.664 9.43.814 18.86 8.549 20.09 17.912-8.61.814-17.22 2.849-25.01 5.292-9.02 2.442-18.04 7.734-26.239 14.654-.82-1.221-1.23-2.442-2.05-3.256-1.23-2.036-1.64-4.478-2.05-6.513-.41-5.7.82-9.77 3.28-13.841ZM25.638 310.009c-4.92 0-10.25-1.221-14.35-3.664-4.1-2.442-7.379-6.106-11.889-7.734-2.05-.815-4.92-2.036-7.79-2.036.82-.814 1.64-2.035 2.05-2.849 2.05-3.664 2.87-7.735 3.69-11.806.41-2.035.41-4.07.82-6.106 0-.814 0-1.628.41-2.442v-1.629c.82-3.663 2.46-6.92 4.92-9.77l2.46-2.442s.41-.407 1.23-.814c0 0 1.23-.407.82-.407 0 0 1.64-.407.82-.407h.82c1.23.407 2.05.814 3.69 1.221h1.23c.41 2.035.41 3.664.82 4.478 2.46 13.84 7.79 26.867 15.989 38.265 1.23 2.036 2.87 3.664 4.51 5.699-3.69 0-6.56 2.443-10.25 2.443Zm47.968 43.557c-5.33.407-13.12 0-18.04 3.257-1.23-4.071-4.1-8.142-7.379-11.398-3.69-4.071-8.2-8.142-9.43-13.841-.82-3.664-.82-8.549-.41-13.027 0-1.628 0-4.07 1.23-5.292.41-.407.82-.407 1.23-.814 6.15 6.106 13.53 11.806 21.32 15.469 6.56 2.85 13.119 4.478 20.498 5.699 3.69.815 6.97 1.222 10.66 1.629-2.05 4.478-1.64 9.363-5.74 12.619-4.1 4.071-9.02 5.292-13.94 5.699Zm80.766-10.991c-2.869 3.257-6.149 5.699-9.019 8.549-1.64 1.628-2.46 3.664-3.28 5.292-3.28-2.035-6.97-2.85-11.07-3.257-5.329-.407-10.659.407-15.989-1.221-3.69-1.221-6.56-4.071-9.429-6.513-2.46-2.443-5.33-5.699-4.92-9.363 2.05 0 4.1 0 6.149-.407 4.92-.814 2.87-8.142-2.049-7.328-7.38 1.222-14.76-.407-22.14-1.628-6.15-1.221-12.299-2.442-18.039-5.292-10.66-5.292-19.269-13.841-26.239-23.611-7.38-10.177-12.709-21.575-15.989-33.787-.82-3.257-1.64-6.106-2.05-9.363v-1.221c-.41-2.036-.41-4.071-.82-5.699 0-1.222-.41-3.257-.41-4.478 0-.814-.41-1.221-.82-1.221-4.1-.408-5.33 3.663-5.74 8.548-.82-.407-1.64-.814-2.87-.814-1.23-.814-2.46-2.035-3.69-2.85C2.27 243.248.22 238.77-.19 233.478c-.82-8.549-1.64-17.505-6.56-24.018 6.97-2.849 11.48-7.327 16.4-11.398 3.69-3.257 8.2-5.292 13.12-5.292 4.509 0 8.609 1.628 12.709 4.071-8.61 9.77-14.76 21.982-15.17 34.194 0 3.664 4.92 3.257 5.33 0 3.28-23.203 24.599-42.743 46.738-48.849 11.89-3.257 25.829-6.513 38.128-3.257 5.74 1.629 11.48 2.85 17.22 4.885 2.049.814 4.099 1.628 6.149 2.036 1.64.407 5.33.407 6.56 1.221.82.407 1.64 0 1.23-1.221-2.46-4.885-5.74-6.107-10.66-8.142-6.149-2.443-12.299-4.885-18.449-6.513-3.28-.814-6.969-1.629-10.659-1.629.41-2.035.41-3.663 1.23-5.292.82-2.849 2.87-5.292 4.919-7.327 3.69-3.257 9.02-3.257 13.94-3.664 6.56-.407 15.989-.814 20.909-5.292v2.85c.41 2.442 1.64 4.885 3.28 6.92 2.87 4.071 6.969 7.735 10.249 12.212 3.28 4.478 4.1 8.956 2.87 14.655-.82 3.664-2.05 7.328-3.28 11.399-2.87-.408-5.329 3.256-3.28 6.106 9.43 10.991 17.63 24.017 19.68 38.672 2.46 14.248 0 29.31-4.92 42.337-4.51 12.212-12.3 24.424-23.779 31.345-4.51 2.849-9.43 5.292-13.94 8.141-4.509 2.85-9.019 4.885-14.349 6.106-.82 0-.82 1.222-.41 1.629 3.28 3.664 9.84.814 13.53-.814 5.739-2.443 11.069-5.699 16.809-8.549 3.69-1.628 6.969-4.071 9.839-6.513 6.15 7.734 6.56 20.354-.82 28.088Zm29.519-35.416c-4.1 2.85-8.2 5.292-13.119 6.106-2.87.408-5.33 0-7.79-.814l-2.46-3.663c5.74-6.107 9.84-13.841 13.12-21.576 3.689-8.955 5.739-18.318 6.559-27.274 1.64.407 3.69.407 4.92.814 2.46.407 4.1.407 5.74 2.036 2.46 2.442 4.1 5.292 5.33 8.141 2.459 6.513 2.049 13.434 3.279 20.354.41 1.628.82 2.85 1.23 4.071-1.23.407-2.869.814-4.099 1.628-4.51 2.443-8.2 6.921-12.71 10.177Z"/></g><g opacity=".1" clip-path="url(#i)" fill="#fff"><path d="M1292.76 89.83c-2.79 0-5.59.37-7.98.37-.4 0-.4-.37-.8-.37-.8 0-1.2 0-2 .37-5.19 0-10.38-.37-15.57-.37-8.78-.37-17.97 0-26.75 0-6.39.37-13.18 1.849-19.57 1.109-.8 0-1.2.74-.8 1.479 3.6 3.698 10.38 2.219 15.18 1.849 9.18-.37 18.36.37 27.55.74 6.39.37 13.17.739 19.56 1.109 0 .37 0 .74.4 1.11.4 2.957.4 5.546.4 8.504 0 3.328 0 6.656-.4 9.984-1.2-1.109-2.79-1.849-3.99-2.589-4.79-2.588-10.38-4.067-15.97-4.437-6.79-.37-13.58.37-19.57 3.698-2 1.109-11.98 7.765-9.58 10.354 1.2 1.109 3.59 0 4.79-.37 2.4-1.11 4.39-2.219 6.39-3.328 4.79-2.219 9.18-3.328 14.77-3.328 4.79 0 9.19 1.109 12.78 2.958 1.6.74 3.2 1.479 4.39 2.588.8.37 1.2 1.11 1.6 1.48v.369c-.4-.739 0 0 0 .37.4 1.849 2 2.589 3.59 2.589v13.311c-.79.37-1.19.74-1.19 1.48-2 4.807-7.19 9.244-12.38 11.093-5.99 2.218-12.78 2.588-19.17 1.479-5.59-1.109-11.98-3.328-15.57-7.765-2-2.589-3.2-5.547-3.6-8.875-.39-3.698.4-7.026.8-10.354 0-1.109-1.19-1.479-1.99-1.109-6.79 3.698-4.4 12.572-3.6 18.119.8 6.286 5.19 11.463 10.78 14.791 11.58 6.656 28.75 6.286 40.33-.37 2-1.109 4-2.958 5.59-4.807 0 5.547-.4 11.463 0 17.01-.4.739 0 1.479.4 2.218.8 2.219 2.4 2.959 4 2.589 1.59.37 3.59-.37 3.99-2.589.4-.739.4-1.479.4-2.218.4-7.766 0-15.901 0-23.666 0-8.874 0-17.749-.4-26.254 0-5.916 0-11.833-.4-17.379 0-1.479-.4-4.068-1.2-6.286h1.2c3.59 0 7.19-.74 10.78-1.11 2.8-.37 6.39-.37 8.79-1.849.4 0 .4-.37.4-.74-2.4-5.176-11.58-2.957-16.38-2.957Zm-9.18-9.614c.8.37 1.6 1.109 2.4 1.109h1.19c.4 0 .8 0 1.2-.37.8-.37 1.6-.74 2-1.11.4-.37.8-1.109 1.2-1.848v-2.219c-.4-.74-.8-1.479-1.6-2.219-.8-.37-1.2-.739-2-1.109h-2.39l-2.4 1.11c-.4.37-.8 1.109-1.2 1.479v2.958c.4.74.8 1.479 1.6 2.219Zm4.39-5.177c-.4 0-.4 0 0 0-.4 0 0 0 0 0Z"/><path d="M1372.23 177.096c-4.8-6.655-4.4-12.942-2.4-20.337 1.6-6.286 2-12.203-.4-18.119-2-4.807-5.59-10.724-9.98-14.052-1.2-1.109-2.8-1.848-4-2.588 7.59-2.588 13.58-8.505 15.58-16.27 1.59-6.286.4-12.572-1.2-18.489-1.2-3.328-2-7.025-1.6-10.353.4-2.959 1.6-5.917 2.8-8.875.8-1.849-1.2-4.437-3.6-4.437-12.37.37-17.96-10.724-28.35-15.161-7.18-3.328-17.17-3.698-24.35 0-.4-1.48-.8-2.958-1.2-4.068-2.4-5.916-6.39-10.723-11.98-14.79-5.19-3.698-10.78-6.287-16.77-8.875-5.19-2.219-13.98-4.807-14.38-11.463 0-2.219-2.79-2.589-3.99-1.11-.8 1.11-2 2.219-2.8 3.328-1.19 1.48-1.99 3.328-3.19 4.807-2.79 2.959-7.59 4.808-11.58 6.287-7.19 2.588-14.77 4.807-20.76 9.614-5.59 4.437-9.19 13.312-7.99 20.707-1.2-.74-2.79-1.479-4.39-2.218-5.19-1.85-11.58-1.85-17.17-.74-11.58 2.588-23.96 16.64-36.74 11.463-3.19-1.11-5.59 2.588-3.99 5.177 1.2 2.588 2.79 4.437 3.19 7.395.4 3.328.4 6.656 0 9.614-.4 6.287-1.59 12.203-.8 18.489 1.6 9.245 7.99 16.27 17.17 18.859-5.59 2.588-10.78 8.135-13.17 12.572-3.2 4.807-3.6 9.984-3.2 15.531.8 6.286 3.6 12.202 4 18.488 0 2.589-.4 5.177-2 7.396-1.2 1.479-2.4 2.588-1.6 4.807 1.6 4.067 6.39 2.588 9.99 3.328 5.59 1.109 10.78 5.547 15.17 8.874 4.39 2.959 8.78 5.917 13.97 7.396 6.79 1.849 14.38 1.109 20.37-1.849 0 1.109 0 2.219.4 3.328 1.2 5.547 4.39 10.724 8.78 14.791 4.79 4.807 11.58 7.026 17.97 9.614 3.2 1.11 6.39 2.219 8.79 4.068 2.79 1.849 2.39 4.437 3.99 7.025 1.6 1.849 4.79 1.849 5.59-.739 2-6.656 10.38-9.984 17.17-11.833 6.79-2.219 13.98-2.958 19.97-7.026 6.38-4.437 9.58-10.353 8.38-17.749 0-.739-.4-1.479-.4-2.218 5.99 3.328 14.38 3.328 21.16.739 11.19-4.067 21.17-16.64 34.34-14.421 3.6 0 7.19-2.958 5.2-5.917Zm-31.55-119.437c6.79 5.177 12.78 10.354 21.16 12.203-1.19 3.698-2.39 7.395-1.99 11.093.4 6.286 3.19 11.833 3.19 18.119 0 4.437-1.6 9.984-5.19 12.942-2.79 2.589-7.59 4.437-11.18 5.547-.4-6.286-2.4-12.573-4.79-18.489-3.6-8.135-8.39-15.53-14.38-22.556-2.79-3.328-6.39-6.656-9.58-9.614-1.6-1.11-3.19-2.589-4.79-3.698.4-.74.8-1.11.8-2.219 0 .37.4-1.849.8-2.588.4-1.11.39-1.85.39-2.959.4-.37.4-.37.4-.739 7.19-5.177 18.37-2.219 25.16 2.958Zm-172.9 38.827c.4-6.287 1.6-12.203 1.6-18.49 0-2.957-.4-6.655-2-9.983h2.4c2.79-.37 5.19-1.11 7.58-1.849 5.99-2.219 11.19-5.547 17.17-8.135 5.2-2.219 11.19-2.589 16.38-1.11 3.99 1.11 6.78 3.698 9.98 6.287a7949.7 7949.7 0 0 0-9.58 6.656c-14.78 11.833-22.37 28.842-24.36 46.591-1.6-.739-4-.739-5.99-1.479-2.8-.739-5.19-1.849-7.19-3.697-4.79-3.698-6.39-9.245-5.99-14.791Zm137.36 107.234c-1.59 7.026-9.18 9.984-15.57 12.203-7.99 2.588-17.97 5.177-23.96 11.093-.8-1.849-2.39-3.328-4.79-4.807-5.59-3.328-11.98-5.177-17.57-7.765-5.59-2.589-9.98-5.917-13.18-11.094-1.19-2.218-2.39-4.807-2.39-7.395 0-1.109 0-2.219.4-3.698.8-.739 1.19-1.479 1.59-2.218.4.369.8.369 1.6.739 11.58 4.807 23.56 8.505 36.34 8.505 11.58.37 23.56-2.219 33.94-7.026 2.79 1.11 3.99 8.505 3.59 11.463Zm16.77-11.463c-5.19 0-8.78-1.849-11.98-5.177 3.2-2.218 6.39-4.437 9.19-6.656 3.59-2.588 6.79-7.765 10.78-9.244 4.79-1.849 2.79-9.244-2.4-7.395-3.99 1.479-6.78 4.437-9.98 7.395-3.99 3.698-8.78 7.026-13.18 9.984-9.98 6.656-21.56 10.354-33.94 10.723-11.98.37-23.16-2.588-34.34-6.286-12.38-4.067-21.16-13.312-30.74-21.447-1.2-1.109-3.2.37-2.4 1.479 5.59 7.766 11.18 14.791 18.77 20.338-6.39 7.396-17.97 6.656-25.96 2.219-5.19-2.958-9.98-6.656-15.57-8.875-2.4-1.109-5.19-1.849-7.99-2.219h-3.59c.4-.739 1.2-1.848 1.6-2.958 1.2-2.588 1.59-5.177 1.59-7.765 0-6.286-1.99-12.572-2.79-18.859-.8-9.983 5.99-20.337 17.17-22.556v4.068c.4 9.614 2 24.775 12.78 29.952.8.369 1.99-.37 1.59-1.11-1.99-5.177-4.79-9.984-5.99-15.53-1.59-6.287-1.59-12.942-1.19-19.229.8-11.832 3.59-24.405 10.38-34.389 7.59-11.093 18.77-19.598 31.54-25.514 6.79-3.328 14.38-6.286 22.37-7.396 8.38-1.479 16.77 0 25.15 1.48.8 1.109 2.8 1.109 3.99.37l.4-.37c2.4-1.48 2.8-5.917-.79-6.287-7.19-1.11-14.78-2.588-21.97-2.588-7.18 0-13.97 1.849-20.36 4.067-5.19 1.85-9.98 3.698-14.78 6.287-3.19-4.068-3.99-8.875-2.39-14.052 2-6.656 7.59-10.354 13.97-12.942 6.39-2.219 12.78-4.068 18.77-7.396 2.8-1.479 5.59-3.328 7.19-6.286.4-.74.8-1.849 1.2-2.588 4.39 7.026 14.37 10.723 21.56 15.16 5.59 3.329 10.78 7.396 13.98 12.943 1.59 3.328 3.19 7.026 2.79 10.723 0 2.589-1.2 4.807-1.2 7.396 0 .74.4 1.479.4 1.849 1.6 2.958 4.79 5.176 7.19 7.765 3.19 2.958 5.99 5.916 8.38 9.244 5.2 6.656 9.59 13.682 12.78 21.447 2 5.177 3.6 10.724 4.39 16.27 0 .74 0 1.479.4 1.849.8 8.875-.4 18.119-3.99 26.994-1.2 2.588-7.19 10.723-1.2 11.463 6.79.739 9.19-10.354 10.39-14.421a134.477 134.477 0 0 0 3.59-18.119c2 .739 3.59 1.848 5.59 2.958 4.39 2.958 8.38 9.244 9.98 14.051 2.4 6.286-.4 12.573-1.2 19.228-.4 4.808.4 8.505 1.6 12.943-9.58.739-16.77 5.916-25.16 11.093-5.19 2.958-10.38 5.546-16.37 5.916Z"/></g><g opacity=".1" clip-path="url(#j)" fill="#fff"><path d="M618.761 397.294c-3.502.777-7.005 3.497-8.951 6.605-1.945 3.496-1.945 7.381-1.945 10.878 0 2.331.389 8.547-2.335 9.324-1.168.389-2.725-.388-4.281-.777-1.168-1.942-2.724-3.885-4.67-5.439-1.168-.777-1.946-1.165-3.114-1.942.389 0 .779-.389 1.168-.389 3.113-1.554 5.837-4.274 7.005-7.77 2.335-6.605-2.335-13.987-7.784-17.095-5.448-3.496-12.453-3.108-18.291 0-5.059 2.72-8.561 8.547-5.837 14.375 1.167 2.331 4.67 1.166 4.67-1.165 0-3.885 1.167-6.217 4.67-7.771 3.892-1.554 7.783-1.554 11.286 1.166 3.502 2.331 5.448 6.605 3.502 10.49-1.167 1.942-2.335 2.719-4.28 3.496-1.946.389-3.892.777-5.838 2.331-1.946 1.166-1.946 4.663.778 5.051 3.114.777 6.227.777 8.951 2.72.779.388 1.557 1.165 1.946 1.942 0 .389 0 .777.389 1.166.39.777 1.168 1.554 1.557 2.331.389 1.165.778 1.943.778 3.108 0 2.72-.778 5.828-3.113 7.77-1.946 1.554-4.281 1.943-6.616 2.331-3.892.777-9.729.389-13.232-1.942-1.556-1.166-2.724-3.108-3.891-4.662-.39-.777-.779-1.554-.779-2.72v-1.165c1.557-1.166 2.335-3.109 1.168-5.051-.779-1.554-3.503-2.331-5.059-1.166-5.449 3.885-3.892 10.102-.39 14.764 3.114 4.662 7.005 6.993 12.843 8.159 5.448.777 11.675.388 16.734-2.331 4.67-2.72 7.395-7.771 7.395-13.21 2.335.389 4.28.389 6.615-1.165 6.227-4.663 3.503-12.821 4.281-19.038.779-5.439 7.395-8.158 12.065-5.439 4.281 2.331 7.394 7.382 7.783 12.044.389 3.108-.389 6.216-2.724 8.159-2.724 2.331-6.227 3.108-9.729 3.108-2.335-.389-4.67 2.331-4.67 4.662 0 2.72 1.945 4.274 4.67 4.662 8.561.389 16.345-5.827 18.68-13.986 1.946-6.605-.779-13.987-5.059-19.037-3.503-6.217-10.119-8.936-16.346-7.382Zm-23.739-11.267c3.113 1.943 7.005 2.72 10.508 2.331 3.502-.388 6.615-1.165 9.729-2.72 3.113-1.554 7.005-5.05 5.837-8.547-.778-2.719-4.28-3.885-6.226-1.554-.39.389-.779.777-1.168 1.554v.389s-.389.388 0 0c0 0-.778.777 0 0-.389 0-.389.388-.778.388-.389.389-1.168.389-1.557.777h-.389c-.389 0-.389.389-.778.389-.39 0-1.168.388-1.557.388-.778 0-1.168.389-1.946.389h-4.67c-.389 0-.778 0-1.167-.389 0 0-.39-.388-.779-.388s-.389-.389-.778-.389-.389-.388-.779-.388h-.389l-1.556-1.554c-1.168-1.166-1.557-2.72-3.114-3.497-1.946-1.166-4.281.389-4.281 2.331 0 1.943 1.168 4.274 2.335 5.828.39 1.942 1.946 3.496 3.503 4.662Z"/><path d="M600.47 376.314c0 .389 0 .777.39 1.166 0 .388.389.777.778.777.389.388.778.777 1.557.777h1.167c.778 0 1.946 0 2.724-.389.779-.388 1.557-.777 2.335-1.554.779-.777 1.168-1.554 1.168-2.331.389-.777 0-1.943 0-3.108v.388c0-.777-.389-1.942-.778-2.719-.39-.777-1.168-1.554-1.946-1.943-1.946-1.165-4.67-.388-6.616.777-1.168.777-1.946 1.554-2.335 3.108-.389 1.166 0 2.332.389 3.109 0 1.165.778 1.554 1.167 1.942Zm5.449-5.051c0-.388 0 0 0 0Zm0-.388c-.389 0 0 0 0 0Zm-2.724.388s.389 0 .389-.388c.389 0 .389 0 .778-.389h1.168l.389.389v1.165c0 .389 0 .777-.389 1.166 0 0 0-.389.389-.389 0 .389 0 .389-.389.778 0 .388-.39.388-.39.777l-.389.388h-2.335s-.389 0-.389-.388l-.389-.389s0-.388-.389-.388v-.778l.389-.388c1.557-.777 1.557-.777 1.557-1.166Z"/><path d="M717.611 406.618c-1.557-1.942-3.503-1.554-5.838-2.331-1.946-.777-3.502-1.942-5.059-3.108-3.892-2.72-7.394-6.216-11.286-9.324-1.167-1.166-2.724-1.943-3.892-3.108 0-2.331 0-4.663.39-6.605.389-1.554.389-3.108 1.945-4.274 1.168-1.165 2.725-1.942 3.892-3.108.389 0 .389-.388.778-.388 2.725-1.943-.389-5.828-3.113-5.44-5.837 1.166-10.118-3.108-14.788-6.216l-.39-.388c.39-1.554.39-2.72.39-4.274.389-4.662-.779-8.547-1.168-13.209-.389-2.72-.778-6.217 0-8.936.778-.389 1.946-1.166 2.724-1.943.779-.777.779-1.942.779-2.719-.779-3.109-3.892-1.943-5.838-.777-2.724 1.165-5.838 2.331-8.951 2.331-6.227.388-12.064-1.166-18.291-1.166h-.778c-2.724-4.274-5.838-9.324-4.281-13.209l1.167-1.166c1.946-1.554 0-4.662-2.335-4.274-1.945.389-3.891 1.943-5.448 3.109-1.946 1.165-4.281 2.331-6.616 2.719-1.946.389-3.892.777-6.227.777-.778-1.165-1.556-1.942-2.335-3.108-3.113-3.497-7.394-5.439-11.286-8.159-1.946-1.165-3.891-2.331-5.448-3.885-1.557-1.554-2.724-3.108-3.892-5.051-.778-1.165-2.724-.388-2.335.778v.777c-.389 1.165-2.724 3.496-3.113 4.273-1.168 1.943-3.114 3.497-4.67 5.051-3.503 3.108-7.784 5.828-11.286 9.324-.779.777-1.946 1.943-2.335 3.108-1.946 0-3.892-.388-5.838-.777-2.335-.777-4.281-2.719-6.226-3.885-.779-.388-1.557-1.165-2.336-1.165v-.389c-.389-1.942-2.724-1.554-3.502 0-1.946 4.662 0 9.324-2.724 13.598v.389c-3.892-.389-7.784-.389-11.286 0-3.892.388-7.784 1.165-11.286 1.554-3.892.388-8.562.777-12.454 0-.778 0-1.556.388-1.167 1.165 1.946 5.828.778 11.656.389 17.483-.389 4.662-.778 9.325 0 13.987-2.335 1.554-4.281 3.108-6.616 4.662-1.167.777-2.335 1.165-3.502 1.165h-1.557s-1.557-.777-1.946-.777c-.389-.388-.389 0-.778 0-1.168-.388-1.946 1.166-.779 1.943l1.168 1.166c.389.388.389.777.778.777 1.168 1.554 1.946 3.496 2.335 5.439 1.168 3.885 1.168 6.993 1.946 10.878-1.167.777-1.946 1.554-3.113 2.72-3.503 3.496-5.838 7.77-9.34 11.267-1.557 1.554-3.114 3.496-5.06 4.273-2.335 1.166-5.059 1.554-7.005 3.108l-.389.389c0 .777 0 1.554.779 1.942.389.389.778.389 1.556.389 1.168 1.165 2.724 1.943 3.892 2.72 2.335 1.554 4.281 3.108 6.227 4.662 3.891 3.885 7.394 8.547 11.286 12.432.389.389.778.777 1.556 1.166 0 2.331-.389 4.662-.778 6.604-.389 1.943-.778 3.497-1.946 5.051-1.167 2.331-2.335 3.885-3.892 3.885-1.945 0-1.945 3.108 0 3.108h.39c2.724.389 5.059 1.554 7.394 2.72 3.113 1.942 6.227 3.497 9.729 5.051-.389 4.662.389 9.712.778 14.375.39 5.439 0 10.878-1.556 16.317 0 .777.389 1.166.778 1.554v.777c0 .389.778.777 1.168.389 0 0 1.945-.777 2.335-.777 1.167-.389 2.335-.389 3.113-.777 3.113 0 5.838.388 8.951.777 4.67.777 9.34 1.942 14.01.777.778 0 1.557-.389 1.946-.389 1.557 2.331 3.113 4.662 4.281 6.993.778 1.555 1.167 3.497 1.167 5.051 0 1.943-1.167 3.497-1.167 5.439 0 .777 1.167 1.166 1.946 1.166 1.167 0 1.945-.777 2.335-1.943.389 0 .778-.388.778-.777 2.335-3.496 6.227-3.885 10.118-4.273 1.946-.389 3.892-.389 6.227-.777 3.114 3.108 7.394 5.827 10.508 9.324 3.502 3.885 5.059 8.159 6.616 13.209.778 2.331 4.67 1.943 4.67-.777-.389-5.439 4.67-9.324 8.951-12.044 4.281-3.108 9.34-5.439 12.842-10.101.779-1.165 1.557-1.942 1.946-3.108h1.557c5.059.389 9.729 1.943 14.01 5.439 2.335 1.943 5.448-.777 3.503-3.496-2.725-3.497.778-7.382 3.113-10.102.389-.388.778-.777 1.167-1.554 3.114 0 6.227 0 9.341-.388 3.502-.389 6.615-1.166 10.118-.777 2.724.388 5.059 1.165 7.394 1.942.779 1.166 1.557 1.943 2.724 1.943 1.557.388 3.114-.389 3.503-1.943.778-1.942-.778-4.273-.778-6.216 0-2.331.389-5.051.778-7.382.778-5.439 2.335-10.878 1.946-16.317 0-2.331-.779-4.663-1.168-6.605 3.503-1.943 7.005-3.497 11.675-3.497 2.335 0 3.892-3.108 1.946-5.05-3.502-3.108-4.67-6.217-4.67-10.49v-4.274l1.557-1.554c5.059-6.216 9.729-17.872 19.069-17.095 1.946 0 3.114-1.554 2.725-3.108.389-.388.389-.388.389-.777v-.388c.778-1.166 1.167-2.331.389-3.497Zm-68.105 78.091c-.389.389-.389.777-.778 1.166-3.892-.389-7.395-1.554-10.508-3.497-2.335-1.165-3.892-2.719-5.059-4.273 0-.777-.389-1.166-.389-1.943.778-.388 1.945-.777 2.724-1.165 5.448-2.72 10.118-6.605 14.788-10.102 0 0 .389 0 .389-.388 0 .388.39.777.39 1.165 1.167 1.943 1.945 4.274 2.335 6.216 1.167 4.663-.779 9.325-3.892 12.821Zm-22.572-3.496c0 3.108-.389 6.216-1.167 8.936-.39 1.554-1.168 3.496-1.557 5.05-.389 0-1.168 0-1.557-.388-4.281-.777-8.172-2.331-11.286-5.051-1.167-1.165-1.946-1.942-2.724-3.497.778-1.554 1.167-3.108 1.167-5.05 5.838-.389 11.676-1.554 17.124-3.108-.389 1.165 0 2.331 0 3.108Zm-42.03 17.094c-1.557-1.942-3.114-4.273-4.281-6.604-1.946-4.663-2.335-9.713-.779-14.375 7.395 2.719 14.789 4.273 22.572 4.662-.778 3.885-2.724 7.382-5.837 10.101-3.114 3.108-7.395 5.051-11.675 6.216Zm-24.518-12.044c-2.335-3.885-5.449-7.77-6.616-12.043-1.557-4.274-.778-6.994 2.724-10.49.389-.389.389-.389.389-.777 4.281 4.273 8.562 8.158 14.789 10.878.778.389 1.556.777 2.335.777h-.389c-.39.389-.779 1.166-.779 1.554v1.166c-.389 1.165-1.556 2.331-2.724 3.496-3.113 2.72-6.616 4.274-9.729 5.439Zm98.071-38.462c-3.503 1.165-6.227 3.885-8.951 6.604-3.503 3.497-7.394 6.217-11.675 8.936-8.951 6.216-19.07 9.713-30.356 10.102-10.507.388-20.236-1.943-29.966-5.44-11.286-3.885-19.458-12.044-28.409-19.425-1.168-.777-3.114.388-2.335 1.554 1.556 2.331 3.502 4.662 5.059 6.993-1.557 0-2.724.388-3.503 2.331 0 .389-.389.777-.778 1.554-.389.389 0 0 0 .389l-.389.388-.389.389h-3.114c-.778 0-1.556-.389-2.335-.389-1.556-.388-3.502-1.165-5.059-1.554-1.557-.777-3.502-1.165-5.059-1.943.389-1.942.778-4.273 1.557-6.216 1.167-4.273 3.502-7.381 6.616-10.101 1.167.777 1.945 1.554 3.502 1.942.778.389 1.946-.388 1.557-1.165-1.557-5.051-4.281-9.713-5.449-14.764-1.167-5.439-1.167-11.266-.778-16.706.778-11.267 3.503-22.533 9.729-31.858 7.005-10.49 17.513-17.871 28.799-23.311 5.838-2.719 12.453-5.439 19.069-6.216 7.395-1.165 14.789.389 22.183 1.554.778.777 1.946.777 3.113.389.39 0 .779-.389.779-.389.778-.388 1.167-.777 1.556-1.554 1.946 1.166 4.671.777 5.838-1.942 2.724-2.72 5.059-5.44 8.562-7.382 2.724-1.554 5.837-2.331 8.951-2.72 1.556 2.72 3.113 5.439 3.891 8.159.39 1.943.39 3.885-.389 5.828-.778 1.942-2.724 3.496-3.891 5.439-2.335-1.554-4.67-2.72-7.006-2.72-1.556 0-1.945 1.554-1.556 2.72 1.167 2.72 3.892 4.662 6.227 6.605a85.29 85.29 0 0 1 7.783 8.936c4.67 5.827 8.562 12.432 11.286 19.425 1.946 5.439 3.502 10.49 3.892 15.929-.39.777-.39 1.554-.39 2.331-.778 1.554-.778 3.108.39 4.274 0 6.216-1.168 12.432-3.892 18.26-.778 2.331-3.503 5.051-3.503 7.77 0 2.331 1.946 3.886 4.281 3.108 1.168-.388 2.335-1.165 3.114-1.942.778 1.165 1.556 1.942 2.335 3.108 2.335 2.331 4.281 4.274 5.448 6.993.389.777.389 1.166.778 1.943 0 0-.389 0-.389.388-3.502 1.943-7.394 3.885-11.675 4.274-1.946 0-3.892 0-5.837-.389-.39 0-1.168 0-1.557-.388 1.167-.777 1.946-1.554 3.113-1.943 6.227-1.942 4.281-10.101-.778-8.158Zm-114.416 14.375c0 .388.389.388 0 0Zm8.951-107.619c-.779-4.273.778-8.935 3.502-12.821 1.168-1.554 2.335-3.108 3.503-4.273 6.226 1.554 13.231 4.273 14.399 10.878 0 .389.389.389.389.777-6.616 2.72-12.843 6.605-18.291 10.879-.778-1.166-1.946-2.72-3.113-3.497 0-.777-.389-1.554-.389-1.943Zm34.636-26.807c3.891.388 7.394 1.943 10.118 5.051 1.168 1.165 2.335 3.108 3.114 4.662.778 1.554.778 3.108 1.556 4.662-1.946 0-3.502 0-5.448.388-5.449.777-10.508 2.332-15.567 3.886 0-1.166-.389-2.331-.778-3.497v-1.943c0-2.719 0-5.439.778-8.158.389-1.943 1.168-3.497 1.946-5.051h4.281Zm21.793 12.044c.779-1.166 1.168-2.72 1.557-4.274.389-1.554.778-2.719 1.557-3.885.778-1.165.389-.777 1.167-1.165.779-.389 1.557-1.166 2.335-1.555 1.557-.777 3.503-1.165 5.449-1.554 1.556 5.44 1.556 11.656.389 17.095-.389 0-.389 0-.779-.388-3.891-.778-7.783-1.555-11.675-1.943.389-.777.389-1.554 0-2.331Zm-63.045 19.426c.389 2.331 1.556 5.439 3.113 6.993-2.724 2.719-5.059 5.439-7.005 8.547-1.168 1.554-2.335 3.497-3.113 5.439-2.335-1.942-5.06-3.108-6.616-5.05-2.335-2.72-3.892-5.44-5.06-8.936 1.557-1.166 3.114-2.331 4.67-3.108 3.114-1.943 7.006-3.885 10.119-4.274h2.335c.778.389 1.167.389 1.557.389Zm-10.897 29.915c-1.946 5.828-3.114 12.044-3.892 18.26-.778 0-1.167.389-1.946.389h-1.946c-.389 0-.778 0-1.167-.389h-.389c-.389 0-.779-.388-.779-.388l-.389-.389-.778-.777v-.388l-1.168-2.331-.389-.777c0-.389-.389-.777-.389-1.166-.389-.777-.389-1.554-.778-2.331l-1.168-5.828c1.168-.388 1.946-1.165 3.114-1.554 2.335-.777 5.059-1.554 7.783-1.942.389-.777 2.724-.777 4.281-.389Zm-7.394 27.585c1.167-.389 2.335-1.166 3.502-1.555 0 6.605.778 14.764 3.892 20.98-.389.389-.779.389-1.168.777-3.502-.388-7.005-.388-10.507-1.165-1.557-.389-3.114-1.166-4.281-1.943.389-4.274.778-8.936 3.113-12.432 1.557-2.331 3.114-3.497 5.449-4.662Zm140.49-43.902c-.778.777-1.167 1.942-1.946 2.719-.389.389-.778.777-1.167 1.554-2.335-3.496-4.67-6.605-7.394-9.713-1.168-1.165-2.335-2.719-3.892-3.885h.389c1.946-.388 3.503-.388 5.449-.777 3.502 0 7.783-.388 11.285.777.39.389 1.168.389 1.557.777-.389.777-.389 1.554-.778 2.331-1.168 2.331-2.335 4.274-3.503 6.217Zm2.724 63.327c1.168-2.719 1.557-5.827 1.946-7.77a71.997 71.997 0 0 0 2.335-13.21c4.281 2.332 7.395 6.217 9.34 10.49.779 1.554 1.168 3.497 1.557 5.44-1.167 1.165-2.335 1.942-3.892 2.719-2.724 1.554-6.226 1.943-9.34 2.331h-1.946Zm4.671-29.527c-.39-6.216-2.335-12.432-4.671-18.648 0-.389-.389-.777-.389-1.166 1.168 0 2.335.389 3.503.389 2.724.388 5.059 1.165 7.783 2.719 1.557.777 2.724 1.554 3.892 2.331v1.166c-.778 3.885-2.724 8.159-5.838 10.878-1.556 1.166-3.113 1.943-4.28 2.331Zm7.394-34.189c1.556 1.166 3.113 1.943 5.059 2.72-.389.777-.778 1.165-1.167 2.331-1.168 2.719-1.168 5.439-1.168 8.547-1.168-.777-2.335-1.166-3.503-1.554-3.891-1.554-7.783-2.331-11.675-1.943.779-1.165 1.557-2.331 2.335-3.108 1.557-1.942 2.725-3.885 3.503-6.216.778-1.554 1.167-2.72 1.946-4.274l4.67 3.497Zm-8.173-34.578c-1.167 4.662 0 10.49 0 15.152 0 1.943-.389 3.885-.778 5.828-1.946-.777-4.281-1.554-6.616-1.554-4.281-.389-8.951 0-12.843 1.166 1.946-2.72 2.725-6.217 3.114-8.936 0-4.274-1.946-8.159-4.281-11.656 7.005.389 14.399 1.943 21.404 0Zm-39.695-13.209c1.946-.777 3.502-1.943 5.059-3.108.389 3.496 1.946 7.77 3.503 10.49-3.114.777-5.838 1.554-8.562 3.496-1.557 1.166-3.503 2.331-5.059 3.885 0-4.662-.39-8.935-1.557-13.209 1.946-.389 4.281-.777 6.616-1.554Zm-36.193-12.821c1.167-1.554 2.724-3.108 3.502-4.662.779 1.165 1.557 1.942 2.725 2.719 3.113 3.108 7.005 5.44 10.118 8.548l2.335 2.331h-.778c-4.281 1.165-8.562 3.108-10.897 6.993-.389 1.165-.778 1.943-1.557 3.108 0-.777-.778-1.554-1.556-1.943-3.114-3.496-7.784-5.439-12.454-6.216-1.167 0-2.724-.388-3.892-.388l1.168-1.166c3.892-2.719 8.173-5.827 11.286-9.324Zm-33.858 9.713c1.557 1.554 3.113 3.496 5.448 4.273 1.946.777 3.892 1.166 5.838 1.554-.778 1.943-1.168 4.274-1.557 6.605 0 .777 0 1.554-.389 2.331a31.645 31.645 0 0 0-11.286-4.662c.389-.777.778-1.165.778-1.942.779-2.72.779-5.828.39-8.548.389 0 .778 0 .778.389Zm-38.917 25.642c-.389-4.274-.778-8.548-2.335-12.433 2.335.777 4.67 1.943 7.394 1.943 3.503.388 7.005.388 10.508 0 3.502-.389 7.005-.777 10.507-.777-1.945 1.942-3.502 4.273-4.67 6.604-1.556 3.109-2.335 6.605-2.335 10.49-3.502-.388-7.005.777-10.507 2.331-3.114 1.554-5.838 3.497-8.173 5.44-.389-4.274 0-8.936-.389-13.598Zm-11.286 29.138c-.389-.777-.778-1.165-1.168-1.942 2.725-.777 5.449-2.332 8.173-3.886.389 0 .389-.388.778-.388 1.168 3.497 3.114 6.605 5.449 8.936 1.167 1.165 2.335 1.942 3.502 3.108-4.67.388-9.34 1.942-13.232 3.885-.778-3.108-1.945-6.605-3.502-9.713Zm-12.454 41.183c-1.945-1.554-3.891-2.72-6.615-3.497 2.335-.777 4.28-2.331 5.837-3.497 3.503-3.108 6.227-6.993 9.34-10.49.779-1.165 1.557-1.942 2.724-2.719.779 5.439 2.335 10.878 6.616 14.375.39.388 1.168.777 1.557 1.165-1.167.777-2.335 1.554-3.113 2.331-3.503 3.886-4.281 8.936-5.06 13.987-3.891-4.274-7.394-8.547-11.286-11.655Zm10.897 33.8c1.168-1.165 1.946-2.331 2.724-3.496 1.168-2.331 1.946-5.051 2.725-8.159 3.113 1.554 6.616 2.719 10.118 3.108-1.946 3.497-3.502 7.77-3.892 12.044-3.113-1.554-6.226-2.72-9.729-3.497-.778.389-1.557 0-1.946 0Zm34.636 37.686c-4.67-.388-8.95-1.165-13.62-1.165-1.557 0-3.503.388-5.06.777 3.503-6.605 1.557-16.707 1.557-23.7 4.67 2.331 9.729 4.274 14.399 4.274-.389 3.885.779 7.77 2.724 11.655 1.557 2.72 3.114 5.051 4.671 7.771-1.557.388-3.114.777-4.671.388Zm22.183 12.821c-1.167.389-1.946.777-3.113 1.554 0-.777 0-1.943-.389-2.72-.779-3.108-1.946-5.827-3.503-8.547 2.335-1.165 4.67-1.942 7.005-3.496.779-.389 1.946-1.166 2.724-1.943.39 4.662 1.946 9.324 4.67 13.209-2.724.389-5.059.777-7.394 1.943Zm48.257 1.943c-4.67 4.273-12.842 8.547-16.734 14.375-2.335-5.828-7.005-10.49-11.675-14.375 5.838-2.332 11.286-6.217 15.178-11.656 2.335 3.108 5.837 5.439 9.729 6.993 1.946.777 4.281 1.554 6.227 1.943-1.168.777-1.946 1.554-2.725 2.72Zm23.351-8.936c-.779 1.554-1.168 3.108-1.168 4.662-3.113-1.943-7.005-2.331-10.897-3.108.779-2.331 1.557-5.051 2.335-7.77.39-1.166.39-2.332.779-3.886 3.113 3.109 7.394 5.44 10.897 6.605h.389c-1.168 1.166-1.946 2.331-2.335 3.497Zm36.971-27.196c-.778 5.05-1.946 10.101-2.335 15.152v2.719c-3.503-1.165-7.005-1.554-10.119-1.165-3.113.388-6.226.777-9.729 1.165.389-.388.389-.777.779-1.165 2.724-4.662 3.502-9.713 2.335-15.152-.39-2.331-1.557-4.662-2.725-6.605 0-.388-.389-.777-.389-1.165.389 0 .389 0 .779.388 1.945.777 4.28 1.166 6.226 1.166 4.281.388 8.562-.777 12.454-2.331.778-.389 1.946-.777 2.724-1.166v8.159Zm.389-21.757c-1.946-2.331-3.892-3.885-6.616-5.439 3.114.388 5.838 0 8.951-.777 1.946-.389 3.892-1.554 5.838-2.72.389 1.943.778 3.497 1.167 5.051.389 1.942.779 3.885 1.946 5.439-3.113.777-5.448 1.943-8.173 3.108-1.167-1.165-1.945-3.108-3.113-4.662Zm13.621-21.757c-.389.389-.389.777-.778 1.166 0-.389 0-.389-.389-.777-.39-1.554-1.168-2.72-1.946-3.885 0 0 0-.389-.389-.389-1.946-3.496-4.671-6.993-8.173-9.324 3.502-2.72 6.616-6.216 8.173-10.879.389-1.165.778-2.331.778-3.496.778.388 1.167 1.165 1.946 1.554 3.891 3.497 8.561 8.547 13.621 11.267-5.449 3.108-9.34 9.324-12.843 14.763Z"/></g><g opacity=".1" clip-path="url(#k)" fill="#fff"><path d="M1846.52 131.57v-.863c-.43.432 0 .863 0 .863Zm1.72 3.452c.87.864 2.16 1.295 3.02 1.295.44 0 1.3 0 1.73-.431 1.3 0 2.16 0 3.45.431h1.3c.43 0 .86-.431.86-.431.86-.432 1.29-1.295 1.73-2.158 0-.432.43-.863.43-.863v-1.295c0-.863-.43-1.726-1.3-2.157-.86-.863-1.72-1.295-2.59-1.726h-.43c-.43-.432-1.29-.863-1.72-1.295-.43-.431-1.3-.431-1.73-.863-.86 0-1.73-.431-2.16-.431h.87-1.73c-.86 0-1.73.431-2.16.863-.43.863-.86 1.294-.86 2.157v3.021c-.43 1.726 0 3.02 1.29 3.883Zm-59.11 88.462c3.45 2.158 9.06 5.178 12.94 2.158.43-.432.86-1.295 0-1.726-2.16-2.59-5.61-3.453-8.63-5.61-2.59-2.158-5.18-4.747-7.33-7.768-3.89-5.609-6.48-12.945-6.05-19.849.87-12.083 14.24-16.83 24.17-13.378 6.04 1.726 10.36 6.042 12.08 12.514 1.3 4.747 7.77 3.453 8.2-.863 4.32-4.315 9.06-8.198 15.54-9.061 5.6-.864 11.65 1.294 15.53 5.178 8.63 9.062 8.63 23.733 2.59 34.09-1.73 3.02-3.88 5.61-6.47 7.336-3.02 2.157-6.48 2.589-9.5 4.315-.86.431-.43 1.726.43 2.157 6.91 3.021 14.68-3.452 18.99-8.63 4.32-5.61 6.47-13.377 6.91-20.281.43-11.651-5.61-23.734-15.54-28.481.43-.863.43-2.157.43-3.02v-17.261c0-.863.43-1.726.87-2.589 0-.863 0-1.726-.44-2.589 6.48-.432 12.95.431 18.99-2.589v-.432c-7.34.863-14.67 1.726-21.58.432-7.33-1.727-14.24-2.59-21.57-3.453-9.06-.863-18.13-.863-27.19-1.294-9.06-.432-19.85-2.158-28.05.863-1.72.431-1.72 2.589 0 3.021 4.32 1.726 9.5 1.294 13.81 1.726 5.18.431 10.36.863 15.11.863l27.18 1.294c5.61.432 11.22 0 16.83-.431-.86 1.726-.86 3.883-1.29 6.041v6.041c0 2.158 0 4.315.43 6.041v4.747c-1.73-.431-3.45-.431-5.61-.431-6.91.431-14.24 3.883-18.99 9.493-6.04-12.082-22.01-17.692-34.95-12.945-7.34 2.589-13.38 8.63-15.54 16.829-2.15 8.63.43 18.124 5.18 25.891 4.75 5.178 8.2 9.062 12.52 11.651Z"/><path d="M1938 219.169c-.43-12.514-6.04-27.186-17.69-33.227 3.45-1.295 6.9-4.747 9.06-8.199 4.75-6.904 7.77-15.966 7.34-24.597-.44-12.082-6.05-22.87-9.93-34.09-3.45-11.219-4.31-22.007 1.73-32.364 1.29-2.157-.87-4.746-3.02-3.883-6.91 1.726-12.95 2.157-20.29.431-6.04-1.726-11.65-4.315-17.26-6.904-9.49-4.315-19.41-8.2-29.77-7.336-13.38.431-28.91 6.904-34.09 18.987-1.73-2.59-4.32-4.747-6.47-6.473-6.91-4.747-15.97-7.767-24.6-7.336-12.08.432-22.87 6.041-34.09 9.925-11.22 3.452-22.01 4.315-32.36-1.726-2.59-1.294-5.18.432-4.75 3.02 1.72 6.905 2.16 12.946.43 20.282-1.73 6.041-4.31 11.651-6.9 17.261-4.32 9.493-8.2 19.418-7.34 29.775.86 15.966 9.06 34.09 25.89 35.816-12.51 7.767-18.55 22.007-16.4 37.542 1.3 9.925 6.48 18.124 11.22 26.754 2.59 4.316 5.18 8.631 6.04 13.377.44 2.59.44 4.747.87 7.336.43 3.452.86 3.884-1.73 7.336-1.29 1.295 0 3.452 1.73 3.021 20.28-3.452 35.38 15.966 55.66 14.671 14.68-.863 31.94-8.198 35.39-23.733 7.77 13.377 22.44 20.713 38.83 18.124 9.93-1.295 18.13-6.473 26.76-11.22 4.31-2.589 8.63-5.178 13.38-6.041 2.59-.432 4.74-.432 7.33-.863 3.45-.432 3.89-.863 7.34 1.726 1.29 1.295 3.45 0 3.02-1.726-3.89-20.282 15.53-35.385 14.67-55.666Zm-221.8-75.085c1.73-10.356 7.77-19.849 11.65-29.343 3.45-8.63 4.32-17.692 1.29-26.323 6.48 1.295 12.95 3.453 19.85 3.453 9.93 0 18.99-3.453 28.05-6.473 9.5-3.02 18.56-4.747 28.05-.863 5.61 2.157 9.93 5.178 12.95 9.925-10.79.431-22.01 3.02-31.93 7.767-13.38 6.041-24.17 17.261-33.23 28.912-5.18 6.904-9.93 14.671-12.95 22.87-2.59 6.905-4.74 15.104-2.59 22.439.43 1.295 2.59 1.726 2.59 0 .87-6.041 1.3-11.651 3.45-17.26 2.59-6.905 6.05-12.946 10.36-18.987 7.77-11.22 18.12-21.576 30.21-28.912 11.65-6.904 25.03-9.494 38.4-9.494.87 2.158 3.89 2.158 4.75.432 15.97 1.295 31.5 6.473 44.01 14.24 7.77 4.747 14.68 11.22 19.85 18.124 3.03 3.884 5.18 7.767 7.34 12.083 2.16 4.315 5.18 8.198 6.04 13.377 0 .431.43.431.43 0 .87-3.884 2.16-7.768 2.16-11.651 0-4.316-2.59-9.062-4.75-12.946-4.31-7.767-10.35-14.672-17.26-20.281-13.81-11.22-30.2-18.124-47.9-20.713-2.58-.432-5.61-.863-8.63-.863 4.75-14.24 23.74-19.419 37.98-16.83 10.35 1.726 19.85 7.768 29.34 11.651 8.63 3.453 17.69 4.316 26.32 1.295-1.29 6.473-3.45 12.946-3.45 19.85 0 9.925 3.45 18.987 6.47 28.049 3.03 9.493 4.75 18.555.87 28.048-2.59 6.905-6.48 12.514-13.81 14.672h-.43c0-3.884-.87-7.336-3.02-10.788-.87-.863-2.16-.431-1.73.863 1.3 5.61.43 11.22-.43 16.829-.43 3.021-.86 5.61-1.73 8.631v.431c-2.59 5.61-3.02 12.083-6.04 17.693-3.45 6.904-7.77 12.945-12.94 18.986-11.22 12.083-26.76 20.282-42.72 24.597-32.37 8.63-68.18-6.041-86.74-34.09a93.268 93.268 0 0 1-10.36-20.713c-1.29-3.884-2.59-7.767-3.45-11.651.86-.431 1.3-.863 2.16-.863 3.45-1.295.86-6.904-2.59-6.041-.43 0-.86.431-1.29.431-.44-1.294-.87-2.589-2.16-3.452-.43-.431-.87-.431-1.3 0 1.3.432.87 1.295.87 1.726-18.13-1.726-24.6-23.302-22.01-38.837Zm102.27 129.025c-1.73 14.671-24.17 19.85-35.82 17.692-8.2-1.294-15.53-6.041-23.3-9.062-6.9-2.589-13.38-3.452-20.28-2.157.43-.432.86-1.295 1.29-1.726.87-1.727 2.16-2.158 2.59-3.884 1.3-3.884 0-9.062-1.29-12.514-3.02-9.062-9.06-16.398-13.38-25.028-3.88-8.199-5.18-18.124-2.59-27.186 2.16-6.473 6.48-11.22 11.65-15.103.43 3.02 1.3 6.472 2.16 8.63 2.16 7.767 4.75 15.103 8.63 22.008 8.2 14.671 21.15 26.322 35.82 34.09 11.65 6.041 24.59 9.493 37.54 9.925-1.29.863-2.59 2.157-3.02 4.315Zm94.5-5.61c-3.88-1.295-9.06 0-12.51 1.295-9.06 3.02-16.4 9.062-25.03 13.377-8.2 3.883-18.12 5.178-27.19 2.589-8.19-2.589-13.37-8.199-17.26-15.535 22.01-1.294 43.59-10.356 59.12-26.323 6.47-6.472 12.52-14.24 16.83-22.439 3.45-6.904 8.63-17.26 4.32-24.596 0-.432-.44-.432-.44-.432 0-1.294.44-2.157.44-3.452h.43c14.67 1.726 19.85 24.165 17.69 35.816-1.29 8.199-6.04 15.535-9.06 23.302-2.59 6.905-3.45 13.377-2.16 20.282-.43-.432-1.29-.863-1.73-1.295-1.29-.863-1.72-1.726-3.45-2.589Z"/></g><g opacity=".8"><path d="M1813.09 204.661c-.3-.002 30.79 2.297 57.26-19.669-1.83 5.074-3.66 9.849-5.48 14.624-5.99.859-32.94 5.767-56.04 16.386-.3-.002 29.29 3.485 55.73-15.49-2.12 4.773-4.25 9.546-6.37 14.32-5.69.561-31.73 3.381-54.22 12.508-.3-.002 27.78 4.97 53.91-11.613-2.42 4.772-4.84 9.244-7.27 13.716-5.08-.034-30.21 1.297-52.4 8.93-.3-.002 25.98 5.856 51.8-8.037-2.72 4.47-5.44 8.941-8.17 13.411-4.78-.331-28.4-.786-50.28 5.652-.3-.002 24.48 6.744 49.68-4.759-3.02 4.468-6.04 8.637-9.06 12.806-4.48-.628-26.9-2.571-47.87 2.377 0 0 22.68 7.63 47.27-1.782-3.32 4.167-6.63 8.334-9.95 12.201-4.18-.626-25.1-4.055-45.16-.297 0 0 21.18 8.218 44.86.894a190.704 190.704 0 0 1-10.85 11.597c-3.58-.921-23.29-5.24-42.45-2.673 0 0 19.38 8.804 42.15 2.971-3.61 3.865-7.52 7.43-11.44 10.995-3.28-.92-21.49-6.126-39.75-4.751 0 0 17.89 9.095 39.15 5.046a204.728 204.728 0 0 1-12.33 10.391c-2.68-1.215-19.39-7.01-36.74-6.526 0 0 16.38 9.383 36.44 6.823-4.21 3.263-8.42 6.527-12.92 9.489-2.39-1.212-17.6-7.596-33.75-8.002 0 0 14.6 9.372 33.45 8.299-4.51 2.963-9.02 5.925-13.52 8.887-2.09-1.21-15.5-8.18-30.75-9.178 0 0 13.1 9.361 30.45 9.176-4.81 2.961-9.31 5.624-14.41 7.984-1.49-.908-13.71-8.169-27.75-10.057 0 0 11.6 9.053 27.45 10.055-4.8 2.661-9.9 5.021-15 7.082-.89-.604-11.61-8.155-24.76-10.336 0 0 10.11 8.743 24.46 10.334-1.8.886-3.9 1.769-5.7 2.356-.89-.305-14.63-3.986-28.99-2.585 0 0 13.72 5.476 28.69 2.583-2.4.882-4.8 2.063-7.2 2.945.31-.298.6-.296.91-.593 0 0-16.17 1.988-30.27 8.477 0 0 15.86-.493 29.07-7.886 2.39-.882 5.09-1.762 7.49-2.943-1.8 1.185-14.12 9.781-21.97 20.5 0 0 15.31-8.277 22.27-20.498 1.8-.886 3.9-1.47 5.7-2.356-8.45 11.613-12.13 25.053-12.13 25.053 10.54-10.702 12.12-23.856 12.13-25.053 5.1-2.061 10.2-4.421 15-7.082-8.46 13.408-11.55 28.348-11.55 28.348 10.85-12.196 11.84-26.551 11.85-28.346 4.8-2.362 9.6-5.023 14.41-7.984-8.18 15.206-10.98 31.644-10.98 31.644 11.16-13.989 10.97-29.549 10.98-31.644 4.8-2.661 9.31-5.623 13.82-8.885-7.89 17.003-9.8 34.943-9.8 34.943 11.16-15.485 10.08-32.547 10.1-34.941 4.5-2.962 8.71-6.225 12.92-9.489-7.3 18.802-8.33 38.243-8.33 38.243 11.18-17.579 8.91-35.546 8.63-38.54 4.21-3.264 8.42-6.826 12.33-10.391-6.41 20.603-6.55 41.546-6.55 41.546 10.89-19.376 7.43-38.548 6.85-41.843 3.92-3.565 7.83-7.129 11.74-10.993-5.53 22.404-4.48 44.551-4.48 44.551 10.61-21.173 5.66-41.551 4.78-45.148 3.62-3.865 7.23-7.731 10.85-11.597-4.35 23.908-2.11 47.559-1.81 47.86 10.02-23.271 3.58-44.557 2.41-48.155 3.61-3.866 6.93-8.033 9.95-12.202-2.86 25.713.86 50.571.86 50.87 9.44-25.37 1.21-47.266-.56-51.466 3.32-4.167 6.34-8.336 9.36-12.805-1.38 27.219 3.83 53.583 3.83 53.583 8.56-27.47-1.46-50.276-3.53-54.179 3.02-4.468 5.74-8.938 8.47-13.408.4 29.025 7.1 56.297 7.4 56.299 7.37-29.573-4.44-52.689-6.8-57.193 2.72-4.47 5.14-9.241 7.57-13.713 2.19 30.533 10.98 58.716 10.98 58.716 6.18-31.376-7.71-55.404-10.68-59.612 2.43-4.771 4.55-9.544 6.68-14.318 4.27 31.744 14.85 61.136 15.15 61.138 5-33.478-11.29-57.821-14.55-62.031 2.13-4.774 3.95-9.848 5.78-14.623 6.66 32.956 19.32 63.259 19.32 63.259 3.23-35.584-15.15-59.94-19.01-64.454 2.13-6.269 4.27-12.538 6.11-19.109-.6-.303-1.5-.309-2.09-.612-1.54 6.572-3.68 12.842-5.81 19.111-5.4 1.46-33.56 8.455-56.97 20.868Z" fill="url(#l)"/><path d="M1853.43 256.09c-.3-.002 20.41-10.936 28.35-35.717.87 3.895 1.74 7.791 2.32 11.684-3.31 2.97-18.66 16.932-28.94 33.32-.3-.002 20.1-9.442 29.23-32.42.57 3.893 1.14 7.787 1.72 11.68-3.31 2.671-18.65 14.837-29.51 30.025-.3-.002 19.49-7.95 29.5-29.127.27 3.891.55 7.782.82 11.674-3.3 2.072-18.63 13.042-29.79 26.732-.3-.002 18.89-6.757 29.79-26.134.27 3.892.24 7.781.22 11.97-3.31 1.773-18.62 10.948-29.77 23.74 0 0 18.28-5.565 29.76-23.142-.02 3.89-.35 7.777-.67 11.964-3.01 1.476-18.01 9.156-29.45 20.75 0 0 17.67-4.372 29.44-20.451-.32 3.888-.65 7.775-1.27 11.96-3 1.177-17.7 7.662-28.83 18.061 0 0 16.77-3.181 28.83-17.762-.63 3.886-1.25 7.771-2.17 11.655-2.7.879-16.79 6.172-28.22 15.372 0 0 15.87-2.289 27.91-15.075l-2.76 11.65c-2.4.583-16.19 4.681-27.31 12.985 0 0 14.97-1.397 27-12.687-1.22 3.881-2.14 7.765-3.66 11.644-2.1.585-15.28 3.49-26.09 10.6 0 0 14.06-.506 25.79-10.302-1.22 3.881-2.74 7.462-4.26 11.341-2.1.286-14.38 2.299-24.59 8.515 0 0 13.16.087 24.58-8.216-1.52 3.88-3.34 7.459-5.15 11.037-1.8-.012-13.17 1.11-23.38 6.728 0 0 12.26.679 23.08-6.431-1.82 3.579-3.64 7.456-5.76 11.033-1.5-.01-11.97.22-21.57 4.944 0 0 11.06 1.27 21.57-4.645-2.12 3.576-4.24 7.153-6.65 10.727-.9-.005-10.77-.37-20.07 3.459 0 0 10.16 1.563 19.77-3.161-.91 1.191-1.82 2.681-2.72 3.871-.6.296-11.09 3.518-19.51 10.045 0 0 10.78-2.024 19.51-10.045-1.21 1.488-2.12 3.278-3.32 4.766 0-.299.3-.297.3-.597 0 0-9.62 7.716-15.67 17.55 0 0 9.92-6.816 15.36-16.654 1.21-1.488 2.42-3.275 3.63-4.763-.61 1.492-5.17 11.934-5.83 21.803 0 0 6.35-11.328 5.83-22.103.9-1.19 1.81-2.681 2.71-3.871-.66 10.767 2.26 20.66 2.26 20.66 2.47-11.055-1.96-20.06-2.25-20.96 2.41-3.574 4.53-6.851 6.65-10.428-.08 11.968 4.03 22.766 4.03 22.766 1.88-12.255-3.44-21.565-4.03-22.766 2.11-3.576 3.93-7.155 6.05-10.731.81 12.871 5.82 24.573 5.82 24.573 1.58-13.155-4.93-23.371-5.82-24.573 1.82-3.579 3.64-7.456 5.16-11.037 2 13.777 7.9 26.083 7.9 26.083.69-14.357-6.72-24.878-7.9-26.382 1.52-3.88 3.04-7.46 4.56-11.34 2.89 14.68 10.29 27.595 10.29 27.595.1-15.558-8.8-26.388-9.99-27.892 1.22-3.881 2.74-7.761 3.67-11.645 4.08 15.586 12.67 29.107 12.67 29.107-.79-16.761-10.89-27.599-12.67-29.406 1.22-3.881 2.14-7.765 3.07-11.648 5.57 16.492 15.35 30.32 15.35 30.32-1.98-17.965-13.27-28.811-15.35-30.62.92-3.883 1.54-7.769 2.17-11.654 7.06 17.101 18.04 31.236 18.04 31.236-3.17-18.871-15.66-29.725-18.04-31.535.62-3.886 1.25-7.772 1.57-11.958 8.56 17.709 21.03 31.854 21.03 31.854-4.36-19.776-18.34-30.64-21.02-32.453.32-3.887.65-7.775.68-11.963 10.05 18.018 24.01 32.472 24.31 32.474-5.55-20.981-21.33-31.258-24.31-33.073.03-3.889.05-7.779.08-11.967 11.84 18.329 27.3 32.793 27.6 32.795-7.04-21.888-24.32-31.876-27.6-33.693-.27-3.891-.24-7.781-.81-11.973 13.63 18.341 30.88 33.116 30.88 33.116-8.82-22.499-27.3-32.195-30.88-33.715-.27-3.891-.85-7.785-1.42-11.678 15.43 18.652 34.18 32.839 34.48 32.84-10.61-23.407-30.59-32.216-34.47-33.738-.57-3.893-1.45-7.788-2.32-11.684 17.53 18.367 37.77 32.563 38.07 32.565-12.4-24.018-33.88-31.939-38.06-33.462-1.17-4.795-2.33-9.889-4.09-14.688-.6.295-1.2.291-1.5.588 1.46 4.797 2.93 9.594 4.09 14.389-3.31 2.372-18.36 18.13-28.05 35.719Z" fill="url(#m)"/><path d="M1829.62 147.323c-.3.596-30.24 4.587-33.9 15.335-4.26 11.341 5.9 12.306 5.9 12.306-.3.596-32.05 7.568-36.59 15.616-4.84 8.645 4.4 12.596 4.4 12.596 0 .299-25.15 3.425-32.37 10.857-7.23 7.732 3.83 9.001 3.83 9.001-.01.3-23.36 4.035-29.38 9.082-6.01 5.346 3.22 11.092 3.52 11.094 0 .299-25.14 3.125-29.36 7.286-4.22 4.76 1.45 7.49 1.45 7.49-.01.299-29.35 4.594-28.52 15.67 1.12 11.975 32.58 3.805 32.28 3.504 0 0-4.52 5.355 1.44 7.489 6.27 2.435 32.38-10.857 32.08-11.158 0 0-5.45 10.735 3.52 11.094 9.27.36 33.01-16.239 32.71-16.54 0 0-8.74 10.414 3.83 9.001 13.17-1.409 34.56-24.606 33.96-24.909 0 0-2.17 11.056 9.81 9.34 12.87-1.71 36.13-36.264 35.53-36.268 0 0-2.76 11.351 12.22 6.962 15.88-4.982 25.09-40.526 24.49-40.231 0-.299 3.75 21.866 21.85-1.95 18.41-25.311-16.05-60.246-16.06-59.648-.3.297-46.26-15.265-61.01-1.3-15.35 14.56 4.07 18.279 4.37 18.281Z" fill="url(#n)"/><path opacity=".07" d="M1825.85 129.046c-15.95 14.556 3.47 18.275 3.77 18.277-.3.596-30.24 4.587-33.9 15.335-4.26 11.341 5.9 12.306 5.9 12.306-.3.596-32.05 7.568-36.59 15.616-4.84 8.645 4.4 12.596 4.4 12.596 0 .299-25.15 3.425-32.37 10.857-2.71 2.974-3.03 5.066-1.84 6.271 33.87-10.548 83.86-17.399 102.8 14.142 3.62-4.763 5.74-8.34 6.04-9.235v-.3.3c-.31 1.194-1.87 11.058 12.22 6.663 15.29-4.687 24.48-38.137 24.49-40.231.29 1.498 4.35 20.673 21.85-2.25 18.41-25.311-16.05-60.246-16.06-59.647 0 .598-45.96-14.964-60.71-.7Z" fill="#1F5148"/><path opacity=".8" d="M1813.35 165.467c14.35.992 29.31.791 44.57-.604-17.48 19.632-37.33 37.154-58.67 51.974-14.66.801-29.01.108-43.06-1.182 12.85 2.179 26 3.164 39.76 3.554a325.474 325.474 0 0 1-70.84 36.933c-.59-.004-1.79-.012-3.28-.321-2.39-.315-5.68-.337-8.97-.658-3.29-.32-6.28-.34-8.97-.657-2.39-.016-3.89-.325-3.89-.325s1.5.309 3.89.624 5.38.634 8.66.955c3.29.321 6.58.342 8.98.358l3.29.022c-16.8 6.472-33.88 11.445-51.55 14.919 29.65-5.788 58.43-15.472 85.44-29.057-.61.594-1.51 1.785-2.72 3.572-1.81 2.681-4.52 5.954-6.94 9.529-2.42 3.574-4.83 7.149-6.65 9.83-1.81 2.681-3.02 4.468-3.02 4.468s1.51-1.785 3.92-4.163c2.11-2.679 4.82-5.952 7.54-9.525 2.42-3.574 4.83-7.149 6.35-9.832.9-1.789 1.81-3.279 2.11-3.875 13.51-6.793 26.42-14.188 39.04-22.782 11.11-7.407 21.64-15.715 31.86-24.324-2.79 14.642-6.77 29.875-11.96 44.801 6.39-15.815 11.28-31.641 14.67-47.177a335.475 335.475 0 0 0 44.58-47.579 335.9 335.9 0 0 1 9.64 35.071c-1.71-12.877-4.32-25.461-7.83-37.452 4.83-6.551 9.36-13.104 13.89-19.955-.89-.305-1.49-.908-2.38-1.213-9.37 14.599-19.63 28.295-30.78 41.386-15.87 1.99-31.43 3.084-46.68 2.685Z" fill="#1F5148"/><path opacity=".82" d="M1793.72 57.026c-.3.297 28.49-11.481 60.41 1.595-3.26-4.21-6.52-8.42-9.79-12.332-5.98.858-33.23 4.568-58.33 1.111-.3.298 26.7-12.39 57.74-2.013-3.26-3.91-6.83-7.824-10.39-11.737-5.39 1.161-31.15 6.377-55.66 4.42-.3.297 24.91-13 55.07-5.022-3.57-3.614-7.43-7.53-11.3-10.846-5.09 1.462-29.06 7.887-52.69 7.432 0 .299 23.12-13.611 51.8-8.036a195.42 195.42 0 0 0-11.9-10.252c-4.5 1.766-26.98 9.397-49.41 9.847-.01.3 21.32-13.922 48.82-10.45-4.17-3.318-8.34-6.337-12.5-9.357-4.2 1.768-24.9 10.308-46.14 11.963 0 0 19.53-14.233 45.54-12.565-4.16-3.02-8.63-6.041-13.1-8.763-3.6 2.07-22.81 11.219-42.86 13.78 0 0 17.74-14.245 42.56-14.082-4.47-2.722-8.93-5.444-13.7-7.87-3.31 2.073-20.72 11.832-39.59 15.298 0 0 15.95-14.256 39.29-15.598-4.77-2.425-9.54-4.85-14.31-6.976-2.71 2.076-18.63 12.443-36.3 16.516 0 0 14.45-14.267 36-16.818-4.77-2.126-9.84-4.253-14.91-6.082-2.41 1.78-16.54 12.457-33.02 17.435 0 0 12.65-13.979 32.72-17.437-5.08-1.829-10.15-3.657-15.22-5.187-1.81 1.783-14.44 12.471-29.73 17.756 0 0 11.15-13.39 29.43-17.758-5.08-1.53-10.45-3.06-15.53-4.291-1.5 1.486-12.34 12.485-26.44 18.077 0 0 9.66-12.802 26.44-18.077-5.37-1.232-10.75-2.465-16.13-3.398-1.2 1.489-10.54 11.899-23.44 17.798 0 0 8.45-12.212 23.15-17.8-5.38-.933-10.76-1.866-16.44-2.502-.6.894-8.75 11.313-20.45 17.519 0 0 6.95-11.624 20.15-17.52-2.09-.314-4.18-.327-6.27-.64-.91.592-12.92 8.292-27 11.191 0 0 11.43-9.2 26.7-11.193-2.69-.317-5.09-.333-7.78-.65.3.002.6.004.9.305 0 0-15.87 3.187-31.41.99 0 0 15.28-4.387 30.21-1.297 2.7.018 5.39.335 8.08.652-2.09-.612-16.42-4.896-27.14-12.746 0 0 17.03 3.404 27.44 12.748 2.09.014 4.18.326 6.27.64-11.61-8.455-19.01-20.172-19.01-20.172 13.12 6.968 18.72 18.973 19.31 20.173 5.38.634 11.06 1.27 16.44 2.203-12.2-10.253-19.59-23.467-19.59-23.467 14 8.171 19.3 21.97 19.89 23.47 5.37.932 10.75 1.865 16.13 3.098-12.49-12.05-19.87-26.76-19.87-26.76 14.59 9.97 19.58 24.962 20.17 26.762 5.37 1.232 10.45 2.761 15.82 4.293-12.47-13.846-19.84-30.35-19.84-30.35 15.48 11.471 19.56 27.954 20.14 30.352 5.07 1.53 10.15 3.358 15.22 5.187-12.46-15.641-19.52-33.94-19.52-33.94 15.77 13.27 19.24 31.245 19.82 33.941 5.07 1.83 9.84 3.955 14.91 6.083-12.14-17.733-18.59-37.523-18.59-37.523 16.35 15.068 18.61 34.531 19.19 37.826 4.77 2.126 9.54 4.551 14.31 6.976-11.84-19.526-17.67-41.107-17.67-41.406 16.33 17.162 17.99 38.117 17.97 41.408 4.77 2.425 9.24 5.148 14.01 7.872-11.23-21.617-16.16-44.987-16.16-44.987 16.62 19.258 16.78 41.4 16.75 45.29 4.47 2.722 8.94 5.744 13.4 8.466-10.61-23.707-14.63-48.568-14.33-48.566 16.61 21.353 15.26 44.982 14.93 49.168 4.47 3.022 8.63 6.041 12.8 9.36-9.7-25.496-12.52-52.144-12.22-52.441 16.3 23.445 13.74 48.262 13.11 52.746 4.17 3.319 8.04 6.636 12.2 10.253-8.49-27.582-10.1-55.718-9.8-56.015 15.98 25.837 11.62 51.839 10.69 56.62 3.87 3.616 7.73 7.232 11.3 10.846-6.99-29.668-7.39-59.291-7.09-59.589 15.37 28.227 9.21 55.114 7.98 60.193 3.57 3.614 7.13 7.527 10.69 11.74-5.47-31.453-4.07-62.86-4.07-62.86 14.75 30.616 6.49 58.387 4.66 63.76 3.57 3.914 6.83 8.124 9.79 12.333-3.67-33.535-.76-66.13-.46-66.127 13.84 33.003 3.48 61.659 1.35 67.03 4.16 5.413 7.71 10.822 11.56 16.532-.6.296-1.2.89-1.8 1.185-3.55-5.708-7.41-11.119-11.26-16.53-8.38.842-37.11 2.747-63.1-2.211Z" fill="url(#o)"/><path d="M1842.88-3.987c-.29-.6-30.18-4.986-33.69-15.78-4.12-11.397 6.06-12.228 6.06-12.228-.3-.6-31.95-7.99-36.39-16.098-4.72-8.708 4.57-12.536 4.57-12.536.01-.3-25.09-4.055-32.22-11.283-7.13-7.826 3.94-8.95 3.94-8.95 0-.3-23.3-4.343-29.25-9.468-5.94-5.425 3.37-11.049 3.67-11.047 0-.299-25.11-3.456-29.27-7.673-4.15-4.814 1.55-7.47 1.55-7.47 0-.299-29.28-4.98-28.31-16.044 1.28-11.96 32.62-3.375 32.32-3.078 0 0-4.45-5.415 1.55-7.47 6.29-2.352 32.23 11.283 31.93 11.58 0 0-5.32-10.806 3.66-11.046 9.27-.238 32.79 16.672 32.49 16.969 0 0-8.61-10.528 3.94-8.95 13.15 1.583 34.24 25.06 33.64 25.355 0 0-2.02-11.084 9.93-9.21 12.85 1.88 35.65 36.738 35.05 36.734 0 0-2.62-11.387 12.31-6.8 15.81 5.19 24.55 40.853 23.96 40.55-.01.3 4.03-21.815 21.82 2.239 18.07 25.551-16.85 60.028-16.85 59.43-.29-.301-46.45 14.654-61.02.495-15.15-14.76 4.31-18.522 4.61-18.22Z" fill="url(#p)"/><path opacity=".05" d="M1838.87 14.238c-15.75-14.765 3.71-18.227 4.01-18.225-.29-.6-30.18-4.986-33.69-15.78-4.12-11.397 6.06-12.228 6.06-12.228-.3-.6-31.95-7.99-36.39-16.098-4.72-8.708 4.57-12.536 4.57-12.536.01-.3-25.09-4.055-32.22-11.283-2.68-3.01-2.96-5.106-1.76-6.295 33.73 10.994 83.63 18.504 102.98-12.785 3.55 4.81 5.62 8.415 5.92 9.314v.3-.3c-.29-1.198-1.72-11.082 12.3-6.501 15.23 4.888 23.98 38.456 23.96 40.55.31-1.494 4.63-20.614 21.82 2.538 18.08 25.551-16.85 60.029-16.84 59.43 0-.897-45.86 14.06-60.72-.1Z" fill="#1F5148"/><path opacity=".8" d="M1827.15-22.641c14.36-.803 29.32-.405 44.56 1.191-17.22-19.86-36.84-37.643-57.98-52.743-14.65-.994-29.01-.49-43.07.614 12.87-2.01 26.04-2.82 39.8-3.029a325.262 325.262 0 0 0-70.34-37.864c-.6-.004-1.79-.012-3.29.278-2.4.283-5.69.261-8.98.539-3.29.277-6.28.257-8.97.539-2.4-.016-3.89.274-3.89.274s1.49-.29 3.89-.573c2.39-.284 5.38-.563 8.68-.841 3.29-.277 6.58-.255 8.97-.24l3.29.022c-16.7-6.693-33.72-11.891-51.34-15.598 29.57 6.179 58.22 16.242 85.04 30.182-.59-.602-1.48-1.805-2.66-3.608-1.78-2.705-4.45-6.013-6.82-9.619-2.37-3.607-4.74-7.213-6.52-9.917a1509.24 1509.24 0 0 0-2.96-4.508s1.49 1.506 3.86 4.215c2.08 2.706 4.75 6.015 7.42 9.623 2.37 3.606 4.74 7.212 6.21 9.915.89 1.801 1.78 3.303 2.07 3.903 13.42 6.97 26.23 14.535 38.73 23.294 11.02 7.553 21.43 15.999 31.54 24.743a318.985 318.985 0 0 0-11.37-44.956c6.18 15.899 10.86 31.787 14.05 47.367a336.63 336.63 0 0 1 43.95 48.162 336.432 336.432 0 0 0 10.1-34.94c-1.88 12.853-4.66 25.402-8.32 37.346 4.74 6.613 9.18 13.225 13.62 20.136-.9.293-1.5.888-2.4 1.181-9.17-14.721-19.25-28.551-30.23-41.789-15.84-2.199-31.68-3.2-46.64-3.3Z" fill="#1F5148"/><path d="M1902.7 222.605s27.91 77.08-92.38 129.844c0-.299.85-128.353 92.38-129.844Z" fill="url(#q)"/><path opacity=".1" d="M1845.11 247.957c23.24 13.318 22.43 45.328 16.86 74.015 59.53-47.78 40.73-99.367 40.73-99.367-25.72.429-44.34 10.779-57.59 25.352Z" fill="#1A7F72"/><path opacity=".4" d="m1832.98 273.01 35.93-5.747-27.18 39.914-20.36 3.157 19.15-1.37-8.16 12.214-.6-.004v.598l-12.99 18.764 12.98-17.567.5 14.964 1.31-16.747-.3-.002 23.54-31.86.7 29.626 1.11-32.007 28.97-39.304c0 .598 0 .897-.01 1.496-.03 4.188-.06 9.574-.1 14.959l-.14 21.841s.67-10.767 1.04-21.835c.34-5.383.67-10.767.7-14.955.01-1.496.32-2.99.32-4.187l15.4-21.142-4.17-3.02-30.2 44.083-37.44 8.131Z" fill="#1F5148"/><path d="M1842.97 72.61s-13.03-64.415-117.21-50.44c0 0 53.56 87.421 117.21 50.44Z" fill="url(#r)"/><path opacity=".1" d="M1792.68 78.86c10.3-18.781-3.32-40.414-19.36-57.574 60.67 7.88 69.35 51.322 69.35 51.322-17.71 10.355-34.76 10.841-49.99 6.253Z" fill="#1A7F72"/><path opacity=".6" d="m1774.22 67.07 26.99-10.893-35.19-15.79-15.3 6.182 13.51-7.092-10.74-4.858-.3.298-.29-.6-16.7-7.591 16.11 6.689-5.92-10.511 8.01 10.824-.3.297 29.23 12.16-11.83-20.423 14.21 21.337 36.1 14.9c-.3-.302-.3-.601-.59-.902-1.78-2.705-4.15-6.61-6.22-10.214-4.44-7.51-9.17-14.722-9.17-14.722s4.73 7.212 9.77 14.426c2.37 3.606 5.04 7.215 6.82 9.92.89.903 1.48 1.804 1.77 2.704l19.39 7.907-1.52 3.88-39.07-17.612-28.77 9.684Z" fill="#1F5148"/><path d="M1749.16 193.468s-26.47 66.847-136 31.716c0 0 74.73-83.882 136-31.716Z" fill="url(#s)"/><path opacity=".2" d="M1639.33 202.019c28.17-7.893 54.17-5.328 77.31 23.548 24.61-12.404 32.52-32.099 32.52-32.099-38.67-32.868-82.48-11.615-109.83 8.551Z" fill="#1A7F72"/><path opacity=".6" d="m1673.83 186.389 27.11 16.934-41.05 10.5-15.49-9.676 13.39 10.261-12.58 3.208-.3-.301-.3.297-19.47 4.958 18.87-4.064-8.15 10.119 10.54-10.103-.3-.301 33.85-7.257-16.58 19.937 19.27-20.219 41.94-8.999c-.3.298-.61.595-.91.892-2.41 2.677-5.72 6.246-8.74 9.816-6.32 7.139-12.65 14.279-12.65 14.279s6.62-6.839 13.25-13.676c3.31-3.27 6.62-6.838 9.33-9.214.9-.892 1.81-1.784 2.41-2.378l22.47-4.938-1.17-4.496-45.54 11.369-29.2-16.948Z" fill="#1F5148"/></g></g><defs><linearGradient id="b" x1="1653.33" y1="858.635" x2="1692.5" y2="990.918" gradientUnits="userSpaceOnUse"><stop stop-color="#fff"/><stop offset="1" stop-color="#fff" stop-opacity="0"/></linearGradient><linearGradient id="c" x1="1653.33" y1="858.635" x2="1692.5" y2="990.918" gradientUnits="userSpaceOnUse"><stop stop-color="#fff"/><stop offset="1" stop-color="#fff" stop-opacity="0"/></linearGradient><linearGradient id="d" x1="1653.33" y1="858.635" x2="1692.5" y2="990.918" gradientUnits="userSpaceOnUse"><stop stop-color="#fff"/><stop offset="1" stop-color="#fff" stop-opacity="0"/></linearGradient><linearGradient id="e" x1="1653.33" y1="858.635" x2="1692.5" y2="990.918" gradientUnits="userSpaceOnUse"><stop stop-color="#fff"/><stop offset="1" stop-color="#fff" stop-opacity="0"/></linearGradient><linearGradient id="l" x1="1553.31" y1="-180.777" x2="2051.67" y2="815.121" gradientUnits="userSpaceOnUse"><stop stop-color="#41CBB9"/><stop offset="1" stop-color="#307E70"/></linearGradient><linearGradient id="m" x1="1669.44" y1="177.996" x2="2323.71" y2="592.572" gradientUnits="userSpaceOnUse"><stop stop-color="#41CBB9"/><stop offset="1" stop-color="#307E70"/></linearGradient><linearGradient id="n" x1="1313.32" y1="-19.698" x2="2204.73" y2="580.152" gradientUnits="userSpaceOnUse"><stop stop-color="#41CBB9"/><stop offset="1" stop-color="#3EB39D"/></linearGradient><linearGradient id="o" x1="1698.72" y1="287.691" x2="1811.91" y2="-422.744" gradientUnits="userSpaceOnUse"><stop stop-color="#41CBB9"/><stop offset="1" stop-color="#307E70"/></linearGradient><linearGradient id="p" x1="1142.42" y1="241.489" x2="2041.67" y2="-346.559" gradientUnits="userSpaceOnUse"><stop stop-color="#41CBB9"/><stop offset="1" stop-color="#359D8A"/></linearGradient><linearGradient id="q" x1="1119.11" y1="175.937" x2="2345.33" y2="361.1" gradientUnits="userSpaceOnUse"><stop stop-color="#41CBB9"/><stop offset="1" stop-color="#32BFA6"/></linearGradient><linearGradient id="r" x1="1240.27" y1="501.099" x2="2192.99" y2="-293.179" gradientUnits="userSpaceOnUse"><stop stop-color="#41CBB9"/><stop offset="1" stop-color="#4DD0B9"/></linearGradient><linearGradient id="s" x1="1324.05" y1="-215.766" x2="2122.1" y2="733.856" gradientUnits="userSpaceOnUse"><stop stop-color="#41CBB9"/><stop offset="1" stop-color="#2EA892"/></linearGradient><clipPath id="a"><path fill="#fff" transform="rotate(-16.495 3846.072 -4876.959)" d="M0 0h230v138.27H0z"/></clipPath><clipPath id="f"><path fill="#fff" transform="translate(1656 435)" d="M0 0h230v230H0z"/></clipPath><clipPath id="g"><path fill="#fff" transform="translate(0 768)" d="M0 0h177v230H0z"/></clipPath><clipPath id="h"><path fill="#fff" transform="translate(0 137)" d="M0 0h213v230H0z"/></clipPath><clipPath id="i"><path fill="#fff" transform="translate(1157 7)" d="M0 0h215.625v230H0z"/></clipPath><clipPath id="j"><path fill="#fff" transform="translate(488 299)" d="M0 0h230v230H0z"/></clipPath><clipPath id="k"><path fill="#fff" transform="translate(1708 69)" d="M0 0h212v230H0z"/></clipPath></defs></svg>