<svg width="55" height="55" fill="none" xmlns="http://www.w3.org/2000/svg"><path d="M32.764 27.5a5.264 5.264 0 1 1-10.528 0 5.264 5.264 0 0 1 10.528 0Z" fill="#000"/><path d="M39.81 18.187a4.894 4.894 0 0 0-1.181-1.816 4.889 4.889 0 0 0-1.816-1.181c-.556-.216-1.392-.473-2.932-.543-1.665-.076-2.165-.093-6.381-.093-4.217 0-4.716.016-6.381.092-1.54.07-2.376.328-2.932.544a4.886 4.886 0 0 0-1.816 1.181 4.897 4.897 0 0 0-1.181 1.816c-.216.556-.474 1.392-.544 2.932-.076 1.665-.092 2.165-.092 6.381s.016 4.716.092 6.381c.07 1.54.327 2.376.544 2.932a4.894 4.894 0 0 0 1.18 1.816 4.89 4.89 0 0 0 1.816 1.181c.557.217 1.393.474 2.933.544 1.665.076 2.164.092 6.38.092 4.218 0 4.717-.016 6.382-.092 1.54-.07 2.376-.327 2.932-.544a5.229 5.229 0 0 0 2.997-2.997c.216-.556.473-1.392.544-2.932.076-1.665.092-2.165.092-6.38 0-4.218-.016-4.717-.092-6.382-.07-1.54-.328-2.376-.544-2.932ZM27.5 35.608a8.109 8.109 0 1 1 0-16.217 8.109 8.109 0 0 1 0 16.218Zm8.43-14.642a1.895 1.895 0 1 1 0-3.79 1.895 1.895 0 0 1 0 3.79Z" fill="#000"/><path d="M27.5 0C12.315 0 0 12.315 0 27.5S12.315 55 27.5 55 55 42.685 55 27.5 42.685 0 27.5 0Zm15.696 34.01c-.077 1.681-.344 2.829-.734 3.834a8.075 8.075 0 0 1-4.618 4.618c-1.005.39-2.153.657-3.833.734-1.684.077-2.222.095-6.51.095-4.29 0-4.827-.018-6.511-.095-1.68-.077-2.829-.344-3.833-.734a7.737 7.737 0 0 1-2.797-1.822 7.74 7.74 0 0 1-1.821-2.796c-.39-1.005-.658-2.153-.734-3.833-.078-1.685-.096-2.223-.096-6.511s.018-4.826.095-6.51c.077-1.681.344-2.829.734-3.834a7.737 7.737 0 0 1 1.822-2.796 7.736 7.736 0 0 1 2.796-1.822c1.005-.39 2.153-.657 3.834-.734 1.684-.077 2.222-.095 6.51-.095s4.826.018 6.51.096c1.681.076 2.829.343 3.834.733a7.742 7.742 0 0 1 2.797 1.822 7.738 7.738 0 0 1 1.82 2.796c.392 1.005.658 2.153.735 3.834.077 1.684.095 2.222.095 6.51s-.018 4.826-.095 6.51Z" fill="#000"/></svg>