<svg width="704" height="554" fill="none" xmlns="http://www.w3.org/2000/svg"><g opacity=".1" clip-path="url(#a)"><path d="M209.436 154.091c34.222-7.262 70.502-6.338 103.9-16.948 45.068-14.027 79.961-46.628 117.706-73.283 38.151-26.285 86.807-47.782 132.023-34.237 60.152 17.935 81.473 85.631 93.468 142.945 12.821 61.035 25.642 122.071 38.464 183.478 7.025 32.378 13.26 67.74-3.511 97.263-21.162 37.372-70.668 50.677-115.371 57.622-177.599 28.519-645.44 50.392-514.391-241.668 25.49-57.141 82.489-101.411 147.712-115.172Z" fill="url(#b)"/></g><g opacity=".1" clip-path="url(#c)"><path d="M181.717 167.451c33.546-9.926 69.787-11.853 102.249-25.053 43.828-17.521 76.053-52.76 111.59-82.297 35.97-29.198 82.788-54.449 128.927-44.496 61.375 13.158 87.944 78.972 104.401 135.167 17.573 59.84 35.146 119.681 52.75 179.892 9.545 31.726 18.537 66.49 4.136 97.239-18.164 38.917-66.473 56.067-110.492 66.501C400.466 536.777-64.214 595.31 43.502 293.864c20.927-58.967 74.274-107.574 138.215-126.413Z" fill="url(#d)"/></g><path d="M135.546 477.569s-29.786 5.452-31.239 5.452c-11.987.727-61.387 15.63-59.934 25.807.727 1.454 7.628 3.272 10.534-1.817 10.17 4.725 13.803 3.271 20.705.363 4.722-1.817 8.717-2.907 12.713 1.091 3.632 3.998 15.256 7.633 21.794 3.998 5.812-3.271 3.632-8.723 7.991-13.085.364-.364 29.423-7.27 30.149-7.633 5.449-4.362-10.534-15.267-12.713-14.176Z" fill="#F4A082"/><path fill-rule="evenodd" clip-rule="evenodd" d="M526.752 140.619s-9.081-41.073-43.952-51.978c-26.516-8.36-73.01-9.087-90.809 31.26-19.978 46.162 7.991 41.437-5.085 61.792-13.077 20.355-33.055 14.176-36.687 30.532-3.633 16.357 10.897 38.893 6.538 47.98-4.722 9.087-27.606 25.807-21.794 40.347 6.901 17.447 21.068 21.809 15.982 30.896-9.807 17.447-27.243 14.176-24.7 18.174 2.543 3.998 57.028 27.625 74.827 8.723 13.44-13.812 6.901-36.348 9.081-46.889 4.722-21.082 35.234-31.259 54.485-38.892 19.615-7.634 21.795-36.349 27.243-49.798 5.812-13.085 45.768-11.995 34.871-82.147Z" fill="#1D3542"/><path d="M480.984 97.73c-16.345-9.088-58.481-12.36-76.643 27.987-17.072 38.166 9.081 47.98-3.995 67.972-13.077 19.991-33.781 15.266-37.414 31.623-3.632 16.356 10.897 31.623 6.175 40.71s-25.79 20.718-19.978 34.894c6.902 17.447 21.794 22.172-4.722 47.616" stroke="#01080A" stroke-miterlimit="10" stroke-linecap="round" stroke-linejoin="round"/><path d="M394.17 117.719c-19.978 38.893-2.542 37.439-15.982 59.248-13.44 21.809-32.328 17.084-36.324 34.531-3.996 17.447 12.713 38.529 7.991 48.343-4.722 9.814-23.973 24.717-14.529 40.347M484.98 108.269c-16.346-9.087-20.705 6.543-71.195 19.265-17.072 38.165 13.803 50.16.727 70.515-13.077 20.355-33.782 15.266-37.414 31.623-3.632 16.357 10.897 31.623 6.175 40.71s-25.79 20.719-19.978 34.895c6.902 17.447 21.794 22.172-4.722 47.616" stroke="#01080A" stroke-miterlimit="10" stroke-linecap="round" stroke-linejoin="round"/><path d="M441.754 136.985c-19.251 37.075 11.261 50.887-2.906 70.515-14.166 19.629-34.507 13.449-39.229 29.443-4.359 15.993 9.444 31.986 4.359 41.073-5.086 9.087-26.88 19.265-21.795 34.167 6.176 17.811 14.893 18.538-13.076 42.891" stroke="#01080A" stroke-miterlimit="10" stroke-linecap="round" stroke-linejoin="round"/><path d="M473.356 147.525c-22.884 34.895 5.812 51.615-10.17 69.789-15.983 18.174-35.961 9.814-41.773 25.444-6.175 15.63 5.812 32.713 0 41.073-6.175 8.36-28.695 16.357-25.063 31.623 4.359 18.175 12.713 19.992-17.435 41.437" stroke="#01080A" stroke-miterlimit="10" stroke-linecap="round" stroke-linejoin="round"/><path d="M452.652 177.694c-1.453 7.997-2.18 38.893-6.175 38.166-1.453-.364-12.714 1.09-14.53 1.09-12.713 1.818-34.87-1.09-39.593 11.268-4.358 10.905 40.683 51.615 33.781 78.513-2.905 11.268-14.529 50.16-15.255 61.792 51.942 9.45 106.065.727 105.338-3.635 0-28.715-14.529-43.255-11.623-66.881 2.179-2.908 9.807-26.898 10.17-34.167.364-6.907 33.418-29.442 16.346-40.71-21.431-13.813-47.947-3.999-48.674-9.087-.726-5.089-.363-18.175-2.179-32.35-1.816-12.722-26.153-12.359-27.606-3.999Z" fill="#F4A082"/><path opacity=".6" d="M478.441 187.872c0 5.816-9.807 14.539-18.888 14.176-9.081 0-9.16-3.683-8.26-9.766 0-5.816-1.184-12.043 7.897-12.043 9.444.363 19.251 1.454 19.251 7.633Z" fill="#DB8C70"/><path d="M434.127 149.344s-5.812-6.179-6.175 1.454c-.727 15.993 8.717 18.174 9.807 18.537 1.453.364-3.632-19.991-3.632-19.991Zm63.929.362s5.812-6.18 6.175 1.454c.727 15.993-8.717 18.174-9.807 18.537-1.453.364 3.632-19.991 3.632-19.991Z" fill="#F4A082"/><path fill-rule="evenodd" clip-rule="evenodd" d="M434.49 133.713c-.727 5.452-1.453 11.995-1.09 18.901 0 32.35 19.252 41.074 35.961 41.437 22.157 1.091 33.054-29.442 30.875-47.252-1.453-11.268-2.906-16.357-6.538-23.263-12.714-18.174-9.081-3.999-59.208 10.177Z" fill="#F4A082"/><path d="M515.068 251.666c-5.218-7.543-9.466-22.01-11.032-28.527-1.567-6.516-3.039-7.581-3.039-7.581s-4.377-1.014-5.811.102c.383 1.084 11.051 29.617 7.47 32.588-2.861 2.594-29.139 16.504-39.239 20.679-10.239-3.82-38.801-16.772-41.751-19.266-3.319-2.85 5.664-31.05 6.008-32.147-2.249-.45-5.624 0-5.624 0s-1.297.536-2.636 7.103c-1.339 6.567-3.284 20.052-7.496 28.487-6.661 13.93-6.37 30.648 7.308 44.224.739.714 1.88 3.602 2.631 5.043 1.121 1.798-2.049 28.392-2.049 28.392 24.893 10.835 77.134 6.651 90.433-1.579 0 0-1.315-33.786-.601-34.526 12.171-10.391 10.645-35.449 5.428-42.992Z" fill="#FFD2B9"/><path d="M466.818 140.256c1.816 7.996.363 16.357-.363 17.811-1.453 2.18-5.086.363-4.722 2.18.726 4.362 6.175 4.726 8.717 2.908" stroke="#EFAFA3" stroke-width="1.38" stroke-miterlimit="10" stroke-linecap="round" stroke-linejoin="round"/><path opacity=".69" d="M442.844 137.711c2.18-1.09 6.902-1.817 10.534-.363" stroke="#682C1A" stroke-width="1.31" stroke-miterlimit="10" stroke-linecap="round" stroke-linejoin="round"/><path d="M454.468 149.343c-1.816 2.908-8.354 3.271-10.534.363m46.131.001c-1.816 2.907-8.354 3.271-10.534.363" stroke="#49241B" stroke-miterlimit="10" stroke-linecap="round" stroke-linejoin="round"/><path opacity=".69" d="M489.339 138.076c-2.18-1.091-7.265-1.818-10.897-.364" stroke="#682C1A" stroke-width="1.31" stroke-miterlimit="10" stroke-linecap="round" stroke-linejoin="round"/><path d="M459.19 173.425c.726 1.454 9.444 5.816 15.256-.363" stroke="#BC4926" stroke-width="1.45" stroke-miterlimit="10" stroke-linecap="round" stroke-linejoin="round"/><path opacity=".24" fill-rule="evenodd" clip-rule="evenodd" d="M453.741 162.792c-1.453 2.908-6.175 3.635-10.533 2.181-4.359-1.817-6.539-5.452-4.723-8.36 1.453-2.908 6.175-3.635 10.534-2.181 4.359 1.817 6.175 5.452 4.722 8.36Zm27.243.364c1.816 2.544 6.538 3.271 10.534 1.09 3.996-2.18 5.812-5.815 3.996-8.723-1.817-2.544-6.539-3.271-10.534-1.091-4.359 2.181-6.175 6.18-3.996 8.724Z" fill="#ED5851"/><path d="M465.728 365.251c0 1.817-.726 3.635-1.816 3.635-1.089 0-1.816-1.454-1.816-3.635 0-1.817.727-3.635 1.816-3.635.727.364 1.816 1.818 1.816 3.635Z" fill="#EFAFA3"/><path d="M429.768 117.72c5.448-9.087 28.696-23.99 52.306-21.446" stroke="#01080A" stroke-miterlimit="10" stroke-linecap="round" stroke-linejoin="round"/><path d="M622.647 282.377c3.632-11.631-9.444-30.169-26.88-22.899-21.431 5.452-81.002 91.597-81.002 91.597s-41.409 14.176-102.069 3.999c-2.18 5.088-8.718 19.628-8.718 19.628s-53.759 29.078-133.671 65.427c-31.239 14.175-135.124 35.984-135.124 37.075v16.357s122.41 13.812 160.187-26.898c0 0 98.437-9.451 171.085-42.891 52.306 4.362 73.011-24.353 104.975-63.61 25.064-30.896 45.405-59.247 51.217-77.785Z" fill="#1F5148"/><path d="M411.928 358.097s49.037 14.87 101.748-3.387" stroke="#1D4941" stroke-width="1.44" stroke-miterlimit="10" stroke-linecap="round" stroke-linejoin="round"/><path d="M410.354 361.477s52.186 16.446 101.869-2.768" stroke="#1D4941" stroke-width="1.44" stroke-miterlimit="10" stroke-linecap="round" stroke-linejoin="round"/><path d="m515.401 351.113-9.353 22.134" stroke="#1D4941" stroke-width="1.44" stroke-miterlimit="10" stroke-linecap="round"/><path d="M590.682 420.502s-6.902 28.715-7.265 30.169c-.726 7.269 2.906 19.628-4.359 47.616 12.35 1.817 8.355 11.631-.726 11.631-25.79 0-18.889-16.356-14.893-27.624 1.816-5.089-.726-10.541-4.722-14.176-3.996-3.635-8.354-14.903-5.085-21.446 3.269-5.815 10.897-4.361 14.892-8.723.364-.364-.363-24.717 0-25.444 4.359-6.543 22.884 5.816 22.158 7.997Z" fill="#F4A082"/><path d="M622.647 275.834c4.722 37.075-32.328 128.673-32.328 159.932 0 0-14.53 6.543-22.158-1.817 1.09-26.898-21.068-74.877 14.166-122.494 21.431-29.442 27.243-27.261 40.32-35.621Z" fill="#1F5148"/><path d="M575.212 316.37s-16.234 27.085-12.798 60.877" stroke="#1D4941" stroke-width="1.75" stroke-miterlimit="10" stroke-linecap="round"/><path d="M392.354 228.219c-5.085 4.362-32.328 115.588-23.61 119.95 9.081 4.361 96.984-38.893 96.984-38.893s-1.816-49.07-1.816-61.792c-5.085-.727-11.26 51.614-11.26 51.614s-53.033 19.992-55.939 22.536c-2.906 2.545 12.713-63.973 15.983-69.061 1.089-5.089-14.893-28.352-20.342-24.354Z" fill="#F4A082"/><path d="M534.743 228.219c5.086 4.362 32.329 115.588 23.611 119.95-9.081 4.361-96.621-38.893-96.621-38.893s1.816-49.07 1.816-61.792c5.085-.727 11.26 51.614 11.26 51.614s53.033 19.992 55.939 22.536c2.906 2.545-12.713-63.973-15.983-69.061-1.453-5.089 14.893-28.352 19.978-24.354Z" fill="#F4A082"/><path d="m463.549 310.003.363-63.973" stroke="#DB8C70" stroke-width="1.38" stroke-miterlimit="10" stroke-linecap="round" stroke-linejoin="round"/><path d="M468.634 353.983c0 1.817-1.09 3.271-2.179 3.271-1.09 0-1.816-1.817-1.816-3.635 0-1.817 1.089-3.271 2.179-3.271 1.09 0 2.179 1.454 1.816 3.635Z" fill="#DB8C70"/><path d="m404.341 376.883 32.328 16.357" stroke="#1D4941" stroke-width="1.44" stroke-miterlimit="10" stroke-linecap="round"/><path opacity=".56" d="M609.358 512.564c.02 1.902-122.579 4.776-273.95 6.352-151.368 1.576-274 1.331-274.02-.648-.02-1.902 122.579-4.776 273.947-6.352 151.371-1.575 274.004-1.255 274.023.648Z" fill="#000" fill-opacity=".2"/><path opacity=".5" d="M35.477 116.32c-.028.711-.098 1.436-.126 2.146-.114 2.048-.13 4.108-.146 6.168-.016 2.06.066 4.132.23 6.174.15 2.002.398 4.015.59 6.001.351 3.097.564 6.196.998 9.263.132 1.028.248 2.013.406 2.984.138.652.414 1.301.635 1.923.074.207.216.343.357.48.198.163.56.128.666-.096.066-.21.188-.394.197-.63a7.575 7.575 0 0 0-.019-.974c-.345-3.473-.648-6.96-.994-10.433a65.09 65.09 0 0 1-.235-7.9c.119-3.217.294-6.407.623-9.558.13-1.214.203-2.454.292-3.652.154-1.409.251-2.844.405-4.253.24-2.746.786-5.414 1.39-8.056.077-.308.155-.615.15-.894.108-.879-.465-1.702-1.302-1.826-.852-.164-1.596.24-1.956 1.068-.148.239-.184.532-.262.84-.439 1.79-1.087 3.514-1.848 5.185-.67 1.404-1.311 2.753-1.995 4.116-.133.281-.309.576-.484.872-1.051 1.773-1.934 3.627-2.76 5.508a7.129 7.129 0 0 0-.517 2.098 6.057 6.057 0 0 0 .564 3.301c.103.29.275.51.529.699.142.137.42.132.57.031.152-.1.247-.227.23-.408-.006-.278-.067-.583-.114-.846-.19-1.194-.143-2.377.309-3.472.413-.94.841-1.839 1.367-2.726.618-1.153 1.307-2.238 1.981-3.364.027-.056.11-.086.193-.115.044.124.088.249.076.346Zm52.296 17.253 1.078-.383c1.81-.689 3.678-1.212 5.344-2.176l.124-.044c1.393-.681 2.687-1.374 3.88-2.357.506-.413 1.055-.841 1.547-1.296.246-.228.492-.455.682-.709.205-.213.297-.479.36-.828.123-.838-.761-1.224-1.327-.977-.207.074-.359.174-.551.289-.646.416-1.292.832-1.912 1.192-.785.419-1.614.713-2.355 1.256-.549.428-1.168.788-1.758 1.231-1.592 1.172-3.328 2.068-5.15 2.854-1.422.598-2.8 1.321-4.292 1.85-.125.045-.208.074-.317.16-.483.218-.925.421-1.366.624-.358.174-.717.348-1.034.507-.4.189-.758.363-1.158.551-.276.145-.608.263-.883.407a88.237 88.237 0 0 0-3.046 1.548c-1.268.636-2.521 1.315-3.645 2.227-.136.142-.33.257-.522.372 0 0-.083.029-.097-.012a.333.333 0 0 1-.142-.137c.033-.432.108-.879.156-1.269.127-1.352.352-2.693.438-4.03.145-1.826.277-3.694.283-5.517.004-1.962.023-3.883 0-5.789-.166-4.283-.332-8.566-.178-12.87.112-2.841.266-5.697.698-8.558.087-.544.16-1.13.273-1.73.021-.335.1-.643.08-.963.023-.195-.036-.36-.095-.526-.061-.305-.454-.493-.8-.416-.25.088-.484.218-.59.442a5.326 5.326 0 0 0-.429.9 25.383 25.383 0 0 0-1.197 5.046 55.608 55.608 0 0 0-.631 6.247c-.206 3.761-.33 7.493-.313 11.223.024 1.252.007 2.518-.01 3.785a240.72 240.72 0 0 1-.133 5.416c-.056 2.868-.14 5.792-.18 8.702a58.265 58.265 0 0 0-.051 3.146c-.037.293-.031.571.072.861.076.347.345.578.694.641a.666.666 0 0 0 .773-.321c.149-.24.282-.52.375-.787.45-1.233 1.182-2.193 2.196-3.02.261-.186.507-.413.81-.614a31.402 31.402 0 0 1 5.125-2.659c.788-.28 1.576-.56 2.35-.881.33-.117.677-.194.938-.379.66-.375 1.366-.625 2.07-.875l3.816-1.354Zm-3.492-4.737c.512 1.312 1.327 2.424 2.403 3.349a3.621 3.621 0 0 0 2.161.961c.669.043 1.365.029 1.984-.331.563-.386 1.153-.829 1.616-1.367a15.745 15.745 0 0 0 2-3.044c.619-1.153 1.027-2.372 1.476-3.605a45.207 45.207 0 0 0 1.673-6.337c.228-1.201.455-2.402.585-3.615.118-1.116.18-2.258.2-3.386.027-3.605-.333-7.119-1.678-10.516l-.118-.332c-.5-1.41-1.276-2.675-2.162-3.855-.8-1.07-1.846-1.913-3.177-2.374-1.248-.491-2.514-.509-3.756.072-.841.392-1.582.935-2.193 1.712-1.196 1.498-1.747 3.234-1.878 5.102-.173 1.882.072 3.756.58 5.583.106.43.156.832.024 1.252-.065.21-.09.405-.155.615-.608 2.364-1.022 4.752-1.323 7.193-.178 1.604-.202 3.246-.128 4.901.153 2.14.388 4.251 1.248 6.28l.618 1.742Zm1.931-26.924.054-.113c-.35-1.51 0-2.894.754-4.189.592-1.097 1.61-1.645 2.777-1.78.82-.057 1.59.137 2.24.654.706.543 1.344 1.157 1.845 1.913.673.975 1.263 1.979 1.619 3.113l.088.249c1.052 2.569 1.493 5.26 1.573 7.986.087 2.35-.021 4.676-.449 7.023-.287 1.689-.617 3.393-1.1 5.059-.48 1.804-1.114 3.57-1.958 5.27a15.176 15.176 0 0 1-1.66 2.69c-.326.396-.667.75-1.08 1.037a8.464 8.464 0 0 1-.924.421c-.512.135-1.015.033-1.41-.293-.722-.585-1.182-1.355-1.518-2.17a18.763 18.763 0 0 1-.92-2.988c-.366-1.691-.51-3.414-.558-5.124-.075-2.448.143-4.86.542-7.289.024-.196.09-.406.155-.616l.107-.224c.124-.044.21.065.281.133.33.537.702 1.059 1.033 1.595.775 1.265 1.608 2.558 2.576 3.708.313.356.626.711.966 1.011.156.178.381.285.606.392.225.107.503.102.752.013.414-.147.7-.528.635-.972-.12-.471-.268-.886-.54-1.256-.46-.771-.946-1.485-1.406-2.255-.891-1.458-1.824-2.902-2.605-4.445-.534-.978-.819-2.044-1.213-3.025-.103-.29-.067-.583.01-.891.174-1.088.363-2.136.537-3.225.048-.39.067-.864.059-1.281-.014-.696-.895-.943-1.32-.559-.15.1-.343.215-.494.315l-.054.113Zm36.822-22.59-.633-1.784c-.159-.317-.235-.663-.421-.924a2.162 2.162 0 0 0-.57-.685.743.743 0 0 0-.822-.082c-.291.103-.41.426-.404.704-.01.237.037.5.125.75.386 1.216.578 2.549 1.005 3.751.074.207.106.43.138.652.061.305.179.636.241.941.12.471.184.915.305 1.386.24.942.274 1.957.405 2.984.449 3.109.496 6.267.167 9.419a46.908 46.908 0 0 1-1.435 7.139c-.611 2.224-1.447 4.342-2.354 6.391-.922 2.008-2.027 3.894-3.146 5.738-.621 1.014-1.298 2.002-2.116 2.852a7.244 7.244 0 0 1-.792.795c-.151.1-.344.215-.551.289-.317.159-.628-.058-.648-.377a3.092 3.092 0 0 1 .016-.613c.2-1.938.414-3.835.613-5.773.154-1.409.251-2.844.405-4.253.064-1.003.17-2.021.193-3.009.117-2.563.235-5.126.311-7.674.113-2.841.198-5.626.032-8.462-.02-.32-.055-.681-.075-1-.049-.404-.445-.73-.85-.82-.391-.048-.791.141-.951.478-.161.337-.295.618-.358.967-.152.755-.331 1.565-.428 2.346-.259 2.427-.477 4.839-.737 7.265a.996.996 0 0 1-.05.252c-.153 2.201-.332 4.459-.485 6.661-.167 2.16-.349 4.279-.433 6.41-.055 2.214-.053 4.454.407 6.672.167.735.471 1.327.914 1.917a1.656 1.656 0 0 0 1.792.578c.498-.177.939-.38 1.307-.791.409-.425.901-.88 1.281-1.388.653-.792 1.235-1.652 1.858-2.527a29.834 29.834 0 0 0 1.999-3.184c.727-1.238 1.47-2.435 2.085-3.728a64.805 64.805 0 0 0 1.733-3.93c.545-1.36 1.063-2.664 1.468-4.022.917-2.94 1.625-5.946 1.803-8.997.089-1.853.04-3.703-.246-5.562-.141-.79-.254-1.637-.534-2.425-.294-.83-.589-1.659-.717-2.547-.02-.32-.165-.595-.253-.844-.194-.678-.456-1.285-.677-1.907l.083-.03Zm16.649 12.486c-1.509 1.143-2.805 2.49-3.859 4.124-1.309 2.1-1.989 4.395-2.024 6.928.013 1.35.33 2.638.869 3.894.769 1.641 2.191 2.491 3.916 2.485a6.29 6.29 0 0 0 3.033-.796c1.114-.675 2.214-1.392 3.157-2.287.504-.553 1.079-1.037 1.569-1.631.543-.706 1.1-1.371 1.643-2.077 1.018-1.342 2.051-2.642 3.054-4.025.312-.438.553-.943.808-1.407.08-.169.078-.308.06-.489.012-.097-.115-.192-.186-.26-.07-.069-.21-.066-.236-.01-.178.157-.398.328-.561.526-.828 1.087-1.697 2.19-2.525 3.277a32.637 32.637 0 0 1-4.746 5.046c-1.124.912-2.306 1.659-3.704 2.061a3.23 3.23 0 0 1-1.628.018c-.405-.09-.674-.321-.889-.665-.157-.178-.216-.344-.289-.551-.336-.815-.547-1.674-.537-2.565-.053-1.335.088-2.645.594-3.852.771-1.908 1.71-3.735 3.015-5.319.952-1.131 1.964-2.097 3.273-2.748a1.23 1.23 0 0 0 .359-.174.503.503 0 0 0 .172-.435c.024-.195-.162-.456-.357-.48-.237-.01-.488-.06-.725-.07-.237-.01-.5.038-.766-.055a2.64 2.64 0 0 1-1.67-1.415c-.418-.785-.713-1.614-.8-2.517-.127-1.543.066-3.105.51-4.616a21.708 21.708 0 0 1 1.743-4.167c.766-1.393 1.772-2.637 3.133-3.54.85-.628 1.763-.952 2.76-1.166.972-.158 1.77.119 2.369.887.328.397.614.809.776 1.265.466 1.049.682 2.186.801 3.31.018.181.05.403.124.61.029.084.156.179.268.232.113.054.362-.035.415-.147.054-.112.149-.24.161-.337.089-.405.152-.755.159-1.13-.004-.933-.106-1.877-.415-2.748a6.673 6.673 0 0 0-1.767-2.874c-.936-.929-2.113-1.351-3.407-1.313-1.154.036-2.247.378-3.281.885-1.944.97-3.418 2.473-4.582 4.193-.757 1.156-1.375 2.309-1.795 3.625-.762 2.325-1.051 4.668-.671 7.055.284 1.72 1.13 3.054 2.487 4.113.212.205.452.353.706.543.071.068.074.207.118.332-.22.171-.398.328-.632.457Zm-84.338 72.053 1.312-.025.278.782-1.173.417 1.198.895c-.105 1.506-1.96 2.898-5.564 4.177l-2.6 1.363.026 1.312.391-.139c-.123 2.134 1.273 11.033 4.19 26.699l2.977 4.668-.39.139c-.584.207-1.568-.912-2.953-3.356l-.997-4.05-.139-.392-.391.139.277.783c-.782.277-1.08.677-.895 1.198l.138.391 3.003 5.981.14.391-.783.278-1.981-.618-.252.529-.391.139c-1.844-1.884-3.06-3.655-3.647-5.312l.53.253.391-.139-1.754-2.461 1.035-.807-.694-1.956-.783.278-.138-.391c.782-.278 1.08-.677.896-1.199l-.14-.391-.782.277c-.74-2.086-.719-3.267.063-3.545l-1.804-5.085c.284-.515-.166-3.438-1.35-8.769l-2.6 1.363-5.614 1.552-.139-.392 1.817-1.085.139.391.252-.529 5.867-2.082-.416-1.174-5.98 3.003-.53-.252-.392.139-2.208 1.224-1.45-.366-.304-2.095-.53-.252c-.462-1.304.87-2.511 4-3.621l20.844-8.278Zm-1.93 2.006.139.392 1.564-.556-.139-.391-1.564.555Zm-6.7 27.04 2.271 8.883.783-.278-1.085-1.817-.278-.782.366-1.451-.391.139.252-.53-.139-.391-.53-.253-.139-.391.228-1.842-.947-1.426-.39.139Zm8.65-29.208 1.174-.417 1.085 1.817c.782-.277 1.034-.807.757-1.59l.391-.138 1.06.504.441 2.486.392-.139-.253.53.14.391.529.253.139.391-.391.138.53.253.138.391 4.19 13.046.138.392.391-.139-.214-4.328.782-.278-.1 8.404.782-.278-.026-14.964-.782.277.24 5.64-.782.278-.14-.391.518-7.23.391-.139.278.782 2.851-1.892c1.18.013 1.84.219 1.981.618l.253-.53 1.173-.416 4.896 8.832.39-.139c-.413-1.166-.741-8.614-.985-22.343l.391-.139.808 1.034.39-.138-.277-.783.391-.138c1.933-.686 3.115-.665 3.546.063l.277.782-.365 1.451.138.391.783-.278-.58-2.876.781-.278 1.06.505.14.391 1.995 33.876-1.035.807-.278-.782-.252.53-.391.139-.53-.253c.37 1.044.164 1.704-.618 1.981-2.152.557-3.334.536-3.546-.063l.391-.138c-.723-1.212-1.569-1.939-2.536-2.183l-4.618-8.05c-.44.173-.709 4.379-.807 12.617l-1.262 2.65-.391.139-.947-1.426c1.648-8.011 1.93-13.836.846-17.475-.446.935-.753 5.448-.921 13.538-.322.115-.289 1.864.1 5.249l-3.52 1.25-.946-1.426-.252.53-.391.138c-.501-1.411-1.262-2.315-2.284-2.712l-.555-1.565 1.98.618-3.141-6.371.252-.53-.53-.253.252-.53-.39.139.252-.53-1.944-5.476-.302-2.094-.392.138.253-.529-3.609-10.17-.53-.253-.139-.391.896-1.198Zm23.05-7.973c.402 13.346.86 20.748 1.378 22.205l.139.391.39-.139-1.124-22.734-.782.277Zm4.658 15.316.467 3.798.14.391.39-.139-.467-3.798-.138-.391-.392.139Zm.985 10.22.467 3.798.277.782.391-.139-.605-4.189-.14-.391-.39.139Zm8.61-29.686c.216.804.846 1.021 1.889.651l1.268 1.311-.275.538.391-.139c.088 6.186 1.212 12.981 3.373 20.383l.695 2.396.529.252.116.399-.275.539.391-.139-.275.538 1.201 2.656.232.799c-.797 2.182-1.063 3.745-.798 4.687l-1.564.555-2.165-.113-.42-2.934-2.05-1.034-1.369-6.12-2.107-7.179.435-1.476-.463-1.597-.507-.26-.116-.4.783-.277-.116-.4-.507-.26-1.05-7.995-.39.139.275-.539-.718-2.387-.507-.261-.116-.399 4.21-1.934Zm-1.827 8.575.833 2.787.391-.139-.833-2.787-.391.139Zm.79 4.124.694 2.396.391-.139-.694-2.396-.392.139Zm.65 3.733.718 2.387.391-.139-.718-2.387-.39.139Zm5.483 15.67.58 1.996.527-1.068-.325-1.206-.782.278Zm9.445-38.065c.875.276 3.161-.241 6.858-1.553l.116.399-2.738.972.116.399c3.267-1.159 5.585-1.101 6.953.175l.231.799-1.955.694.115.399 2.854-.572.116.399-2.347.833.116.399c.782-.277 1.25-.15 1.405.382-4.648 1.65-8.196 4.817-10.643 9.502l.115.4c5.526-.441 10.586 1.14 15.18 4.742l.116.399c.246 3.713-1.304 7.786-4.653 12.221l-2.254 1.24.116.4.782-.278c.22.716-1.895 2.348-6.346 4.894l-.231-.798 1.956-.694-.093-.408c-1.672.593-3.507.217-5.505-1.129-1.378-.185-2.366-1.121-2.965-2.808a5.63 5.63 0 0 1-.148-.492l.942-1.215 1.405.383.782-.278c6.954-3.763 9.918-7.457 8.891-11.082-3.638-.47-5.956-.529-6.953-.175l.116.399-4.398-.201.507.261.255.79c-4.101-1.239-6.337-2.501-6.706-3.786l1.117-6.562 1.492-2.291.232.799 5.051-7.958Zm-1.59 12.455.115.399 5.376-6.752 2.898-1.909-.232-.799-.782.278c-3.582 2.998-6.04 5.926-7.375 8.783Zm7.853 15.269.391-.139.551-1.076-.391.139-.551 1.076Zm7.041-2.498-.986 2.551.391-.138.986-2.552-.391.139Zm-3.791 4.868.139.391.391-.139 1.217-1.753-1.747 1.501Zm-3.469 4.314.116.399 1.565-.555 1.84-1.093-.139-.392-.391.139-2.991 1.502Zm27.914-46.614 1.312-.025.277.782-1.173.417 1.199.896c-.105 1.505-1.96 2.897-5.565 4.176l-2.599 1.363.025 1.312.391-.139c-.123 2.134 1.273 11.033 4.19 26.699l2.978 4.668-.392.139c-.582.207-1.567-.912-2.952-3.356l-.997-4.05-.139-.391-.391.138.278.783c-.783.277-1.081.677-.896 1.198l.139.392 3.003 5.98.139.391-.783.278-1.981-.618-.252.53-.391.138c-1.843-1.884-3.059-3.655-3.647-5.311l.53.252.391-.139-1.754-2.46 1.035-.808-.694-1.956-.782.278-.139-.391c.782-.278 1.081-.677.896-1.199l-.139-.391-.782.278c-.74-2.086-.719-3.268.063-3.546l-1.805-5.085c.284-.515-.166-3.438-1.35-8.769l-2.599 1.363-5.615 1.552-.138-.391 1.816-1.085.139.391.253-.53 5.867-2.082-.417-1.174-5.98 3.003-.53-.252-.391.139-2.209 1.224-1.451-.366-.302-2.095-.53-.252c-.463-1.304.87-2.511 3.999-3.621l20.845-8.278Zm-1.931 2.007.139.391 1.564-.555-.138-.392-1.565.556Zm-6.7 27.039 2.272 8.883.782-.278-1.085-1.817-.278-.782.366-1.451-.391.139.252-.53-.138-.391-.53-.253-.139-.391.227-1.842-.946-1.426-.392.139Zm27.82-35.052 2.352.642c.269 2.512-.333 3.978-1.808 4.398l-10.052 4.085.232.799 1.981-.548 2.288-1.071.524.306.399-.115 2.679-1.21.807-.209.116.4-8.754 4.168 1.083 5.315.4-.116 10.327-4.623.492.291.116.4-.807.208.139.391 2.905-.357.115.4c-.05 1.658-3.374 4.167-9.97 7.527l-3.886 1.534.507.261-.123 5.639-.391.139-1.019-3.602-.4.116 1.168 5.699c7.437-3.813 12.805-6.184 16.102-7.112l2.098-.149.254.791-.798.231.492.292.347 1.198c-.403 1.248-1.852 2.228-4.345 2.94l.116.4 3.203-.904.208.807-17.252 9.127-.4.116c-1.356.17-2.129-.013-2.319-.55l-.025-.069-.347-1.198-.421-4.617-.515-.284.79-.254.556 2.005.408-.093c-.309-1.358-.226-2.096.251-2.214l-.524-.306-1.103-3.986-.807.208.157 2.121.306-.524.399-.115.672 2.404-.407.092-.34-1.175-.399.116.232.799-.4.116-.231-.799-1.101-7.044-.399.116.228-2.206-.515-.283-.116-.399-1.492-6.906.515.284.399-.116-.231-.799-.956-1.889-.619-3.717-.348-1.198.408-.093.515.283.283-.515.408-.092.507.26.283-.515 1.206-.324 13.647-5.128Zm-13.514 24.044.787 2.803.399-.116-.779-2.78-.407.093Zm13.087-4.075.391-.138.093.407-6.834 3.228-.523-.307-.107-.376 3.486-1.418.115.399 3.379-1.795Zm8.163-22.843 1.564-.556 1.451.366 2.599-1.362c4.525-1.606 9.623-.479 15.293 3.381l3.344 3.217-.253.53 1.085 1.817.694 1.956c2.379 6.703-1.293 13.731-11.015 21.084l-3.772 1.779c-.234-.659-.895-.866-1.981-.618l.555 1.564-1.173.417-.833-2.347-.53-.252.252-.53-.139-.391c-1.945-.519-3.051-1.154-3.318-1.906-3.409-12.088-5.159-21.156-5.249-27.203l.391-.139.53.252.505-1.059Zm-.177 4.466 2.069 12.037.139.391.391-.138-1.93-11.646-.278-.783-.391.139Zm7.23.517c.185.522-.244.968-1.287 1.338.644 5.125 1.805 10.879 3.482 17.261 1.519-.539 4.968-3.231 10.347-8.076l-.139-.391-.782.278c1.329-2.873 1.586-5.459.769-7.76l-.416-1.173c-1.018-2.869-3.575-3.87-7.672-3.003l-4.302 1.526Zm7.823-2.776.138.392 1.843.227-.139-.391-1.451-.366-.391.138Zm5.463 4.227 1.275 4.833.782-.278-.417-1.173-.164-1.704-1.085-1.816-.391.138Zm3.849 2.158.265 6.952.138.391.391-.139-.126-6.561-.277-.782-.391.139Zm-2.94 4.126-.227 1.842.391-.139.227-1.842-.391.139Zm.151 7.873c.581-.31 1.216-1.416 1.905-3.318l-.138-.391-1.767 3.709Zm-8.163 5.539.138.392 1.565-.556 1.678-1.476-.139-.391-.391.139-2.851 1.892Zm-2.991 1.502.808 1.035.782-.278.505-1.06-.139-.391-.391.139-1.035.807-.53-.252Zm-3.469 3.874.391-.139.138.391-.504 1.06-.391.139-.139-.392.505-1.059ZM54.659 226.071c-1.404.121-2.54.035-3.407-.259-.869-.299-1.473-.889-1.813-1.769a3.105 3.105 0 0 1-.142-1.857c.15-.623.477-1.192.981-1.707.508-.523 1.161-.938 1.96-1.246.869-.335 1.685-.458 2.447-.369.769.086 1.426.341 1.972.765.553.421.95.949 1.195 1.583l-1.599.617c-.27-.7-.707-1.175-1.312-1.425-.608-.255-1.343-.217-2.207.117-.803.31-1.345.723-1.623 1.238-.278.516-.306 1.063-.082 1.643.13.339.341.6.632.783.29.183.678.3 1.162.352.485.052 1.094.043 1.827-.026 1.018-.098 1.875-.089 2.572.025.703.112 1.278.342 1.727.69.452.341.797.82 1.035 1.438.247.639.292 1.269.135 1.888-.153.612-.494 1.171-1.021 1.675-.528.505-1.21.919-2.046 1.242-.76.293-1.54.434-2.343.423a4.367 4.367 0 0 1-2.161-.598c-.643-.38-1.111-.95-1.404-1.71l1.59-.613c.203.524.503.911.9 1.16.403.246.856.37 1.359.371a4.397 4.397 0 0 0 1.566-.312c.814-.315 1.38-.728 1.698-1.239.317-.512.362-1.063.134-1.654-.15-.388-.356-.679-.62-.873-.259-.201-.631-.327-1.116-.379-.487-.057-1.152-.048-1.996.026Zm12.039 1.488c-.308.245-.678.45-1.11.617-.618.238-1.187.244-1.707.018-.516-.228-.934-.761-1.257-1.597l-2.126-5.511-1.615.624-.446-1.157 1.615-.623-.832-2.156 1.534-.592.832 2.157 1.656-.639.446 1.156-1.657.639 2.13 5.518c.162.421.359.672.59.752.23.075.496.054.797-.062.114-.044.237-.101.367-.17.128-.075.23-.139.303-.192l.48 1.218Zm1.868-11.102c.098-.038.227-.072.385-.101.156-.035.267-.05.332-.043l.54 1.402a4.39 4.39 0 0 0-.77.222c-.504.194-.882.469-1.134.823a2.216 2.216 0 0 0-.39 1.235l2.432 6.305-1.533.592-3.423-8.873 1.492-.575.422.996c.086-.461.265-.859.537-1.197.27-.342.64-.604 1.11-.786Zm11.153 1.463-6.002 2.316c.229.545.537 1.001.923 1.367.386.366.824.606 1.313.718.493.105 1.001.057 1.526-.146.514-.198.917-.473 1.209-.824a3.46 3.46 0 0 0 .663-1.283l1.205.364a4.192 4.192 0 0 1-.834 1.745c-.424.528-1.041.948-1.85 1.26-.81.312-1.593.404-2.352.276a4.024 4.024 0 0 1-2.024-.971c-.584-.522-1.036-1.196-1.354-2.021l-.136-.353c-.356-.924-.487-1.8-.392-2.628.093-.833.364-1.547.813-2.141a3.85 3.85 0 0 1 1.699-1.287c.825-.318 1.58-.396 2.265-.233.688.156 1.288.508 1.802 1.057.513.55.934 1.251 1.263 2.103l.263.681Zm-2.052-.753c-.312-.678-.724-1.184-1.237-1.52-.51-.344-1.12-.379-1.83-.105a2.139 2.139 0 0 0-1.274 1.264c-.234.599-.245 1.326-.035 2.181l4.42-1.705-.044-.115Zm11.392-.457c.12.311.272.623.455.936a3.9 3.9 0 0 0 .552.747l.05.132-1.598.616c-.175-.177-.366-.458-.57-.844-.18.446-.447.854-.801 1.223a3.56 3.56 0 0 1-1.297.839c-.59.228-1.16.315-1.707.263a2.862 2.862 0 0 1-1.425-.543c-.4-.304-.693-.7-.881-1.186-.243-.629-.287-1.224-.133-1.786.16-.564.495-1.07 1.006-1.519.515-.456 1.18-.841 1.994-1.155l1.493-.576-.273-.705c-.208-.541-.533-.903-.974-1.084-.437-.19-.956-.168-1.558.064a2.524 2.524 0 0 0-.908.576 1.767 1.767 0 0 0-.48.779c-.077.275-.067.538.03.789l-1.533.592c-.167-.432-.18-.907-.041-1.426.139-.518.428-1.007.866-1.465.437-.463 1-.828 1.689-1.094.656-.253 1.273-.362 1.851-.328a2.729 2.729 0 0 1 1.55.551c.45.336.8.826 1.048 1.471l1.595 4.133Zm-3.493 2.252a2.79 2.79 0 0 0 .906-.557c.258-.244.457-.509.597-.796.14-.287.223-.57.247-.849l-.708-1.837-1.247.481c-.874.337-1.49.735-1.847 1.193-.36.453-.435.95-.226 1.491.112.29.278.524.497.703.22.179.482.288.786.328.302.034.634-.018.995-.157Zm10.39-2.69a4.22 4.22 0 0 1-1.11.617c-.618.238-1.187.244-1.708.018-.515-.229-.934-.761-1.256-1.597l-2.126-5.511-1.616.623-.446-1.156 1.616-.623-.832-2.157 1.533-.591.832 2.157 1.657-.64.446 1.157-1.657.639 2.13 5.518c.162.421.359.672.59.752.23.075.496.054.796-.062.115-.044.238-.101.368-.17.128-.075.23-.139.303-.192l.48 1.218Zm7.749-6.211c.173.53.184 1.088.033 1.673a3.825 3.825 0 0 1-.875 1.591 3.945 3.945 0 0 1-1.556 1.071c-.858.331-1.66.415-2.409.251a3.956 3.956 0 0 1-1.945-1.087c-.554-.558-.99-1.247-1.306-2.067l-.133-.345c-.316-.82-.456-1.62-.418-2.401a3.89 3.89 0 0 1 .712-2.111c.442-.629 1.092-1.109 1.95-1.441.678-.261 1.333-.354 1.965-.277a3.368 3.368 0 0 1 1.693.675c.488.371.863.854 1.125 1.45l-1.452.56a2.394 2.394 0 0 0-.697-.88 2.108 2.108 0 0 0-1.008-.44 2.234 2.234 0 0 0-1.151.142c-.585.226-1 .562-1.242 1.007-.245.44-.35.93-.318 1.47.03.535.155 1.086.374 1.655l.133.344c.35.908.83 1.596 1.437 2.065.614.466 1.352.533 2.216.2.355-.137.658-.339.907-.604.252-.274.426-.579.522-.918a1.843 1.843 0 0 0-.009-1.023l1.452-.56Zm3.442-8.488c1.897-.732 3.26-.023 4.089 2.125l2.243 5.814-1.534.592-2.249-5.831c-.261-.678-.599-1.113-1.012-1.305-.408-.194-.907-.177-1.498.05-.47.182-.844.474-1.122.876-.272.4-.435.859-.487 1.375l2.449 6.347-1.534.591-4.859-12.595 1.534-.592 1.841 4.773a3.561 3.561 0 0 1 2.139-2.22Zm10.621 1.084c-.331-.858-.465-1.692-.4-2.502.064-.81.325-1.526.782-2.148.46-.63 1.095-1.101 1.904-1.413.82-.316 1.612-.396 2.376-.238a4.084 4.084 0 0 1 2.031 1.063c.591.557 1.053 1.264 1.384 2.122l.072.189c.332.858.465 1.692.401 2.502a4.147 4.147 0 0 1-.791 2.151c-.457.623-1.093 1.091-1.907 1.405-.815.314-1.603.396-2.365.244a4.242 4.242 0 0 1-2.031-1.063c-.591-.557-1.052-1.265-1.384-2.123l-.072-.189Zm1.606-.403c.232.602.537 1.115.914 1.541.384.424.821.71 1.312.86.489.144 1.004.112 1.545-.097.536-.207.937-.527 1.202-.963.263-.44.392-.945.386-1.515a4.888 4.888 0 0 0-.349-1.758l-.073-.189a4.88 4.88 0 0 0-.923-1.538c-.383-.423-.82-.71-1.311-.86-.491-.149-1.007-.12-1.549.089-.535.207-.935.53-1.198.971-.258.439-.387.944-.386 1.515.006.569.125 1.154.357 1.756l.073.188Zm13.666-10.481 3.423 8.872-1.459.563-.363-.868c-.323.922-1.056 1.604-2.198 2.044-.913.353-1.73.36-2.45.022-.721-.337-1.3-1.074-1.739-2.211l-2.208-5.724 1.533-.592 2.215 5.74c.284.738.636 1.202 1.055 1.393.422.182.871.182 1.346-.002 1.148-.443 1.751-1.168 1.808-2.176l-2.496-6.47 1.533-.591Zm9.491 6.531a4.18 4.18 0 0 1-1.109.616c-.618.239-1.187.245-1.708.018-.515-.228-.934-.76-1.256-1.597l-2.126-5.51-1.615.623-.447-1.156 1.616-.623-.832-2.157 1.533-.591.832 2.156 1.657-.639.446 1.156-1.657.639 2.129 5.519c.163.421.36.672.592.752.229.074.495.054.795-.062.115-.045.238-.101.368-.171.128-.074.229-.138.303-.192l.479 1.219Zm3.756-6.649c-.331-.858-.464-1.692-.4-2.502.065-.81.325-1.526.782-2.148.461-.63 1.096-1.101 1.905-1.413.82-.317 1.612-.396 2.376-.239a4.085 4.085 0 0 1 2.03 1.063c.592.557 1.053 1.265 1.384 2.123l.073.189c.331.858.465 1.692.4 2.502a4.152 4.152 0 0 1-.79 2.151c-.457.622-1.093 1.091-1.908 1.405-.814.314-1.602.395-2.364.243a4.233 4.233 0 0 1-2.031-1.063c-.591-.557-1.053-1.264-1.384-2.122l-.073-.189Zm1.606-.403c.232.601.537 1.115.915 1.541.383.423.821.71 1.312.86.489.144 1.004.112 1.545-.097.536-.207.936-.528 1.202-.963.263-.441.392-.946.386-1.515a4.893 4.893 0 0 0-.349-1.759l-.073-.189a4.894 4.894 0 0 0-.923-1.537c-.383-.424-.82-.71-1.311-.86-.492-.15-1.008-.12-1.549.089-.536.206-.935.53-1.198.971-.258.438-.387.943-.386 1.515.006.569.125 1.154.357 1.755l.072.189Zm9.512-11.875c-.486.188-.807.478-.964.871-.158.388-.134.85.073 1.385l.364.943 1.886-.727.446 1.156-1.886.728 2.977 7.716-1.534.591-2.976-7.716-1.394.538-.446-1.156 1.394-.538-.364-.943c-.365-.946-.389-1.772-.071-2.479.321-.714.941-1.248 1.859-1.602a4.745 4.745 0 0 1 1.092-.271l.39 1.253a5.134 5.134 0 0 0-.846.251Zm12.25 3.988c-1.139.189-2.056.191-2.749.006-.687-.187-1.165-.628-1.433-1.322a2.39 2.39 0 0 1-.09-1.454c.122-.499.386-.962.793-1.389.412-.429.941-.768 1.586-1.017.688-.265 1.337-.374 1.946-.327.609.048 1.128.231 1.559.548.433.31.749.722.947 1.236l-1.533.592a1.452 1.452 0 0 0-.503-.645 1.744 1.744 0 0 0-.869-.324 2.17 2.17 0 0 0-1.073.15c-.399.154-.705.345-.919.572-.216.221-.348.457-.396.708a1.29 1.29 0 0 0 .067.709c.09.235.221.411.391.527.174.109.43.17.768.184.344.012.815-.028 1.414-.121.809-.117 1.49-.151 2.043-.1.553.05 1.006.199 1.359.446.358.245.629.605.813 1.08.198.514.232 1.026.101 1.534-.132.504-.415.967-.847 1.392-.435.419-.995.76-1.678 1.024-.754.291-1.459.409-2.115.354-.652-.062-1.205-.26-1.661-.593a2.763 2.763 0 0 1-.973-1.254l1.533-.592c.174.385.413.663.718.835.302.166.628.244.976.235.354-.01.703-.082 1.048-.215.399-.154.719-.341.961-.56.246-.226.405-.464.479-.712.072-.254.06-.503-.035-.749a1.354 1.354 0 0 0-.402-.58c-.174-.14-.438-.23-.792-.269-.354-.039-.832-.009-1.434.091Zm10.81.305c-.308.244-.678.45-1.11.616-.617.239-1.187.245-1.707.018-.515-.228-.934-.76-1.257-1.597l-2.126-5.51-1.615.623-.446-1.156 1.615-.623-.832-2.157 1.534-.591.832 2.156 1.656-.639.446 1.156-1.656.639 2.129 5.519c.162.421.359.671.591.752.23.074.495.054.796-.062.114-.045.237-.101.367-.171.129-.074.229-.138.303-.192l.48 1.219Zm1.868-11.102c.099-.038.227-.072.385-.102.156-.035.267-.049.332-.043l.541 1.402a4.33 4.33 0 0 0-.772.223c-.503.194-.88.468-1.133.823a2.208 2.208 0 0 0-.39 1.234l2.432 6.306-1.533.591-3.423-8.872 1.492-.576.422.996c.086-.46.265-.859.537-1.196.27-.343.64-.605 1.11-.786Zm11.153 1.463-6.002 2.315c.229.546.537 1.002.923 1.368a2.8 2.8 0 0 0 1.313.718c.493.105 1.002.056 1.526-.146.514-.198.917-.473 1.209-.824.297-.353.518-.781.663-1.283l1.205.364a4.185 4.185 0 0 1-.834 1.744c-.424.528-1.041.948-1.85 1.261-.809.312-1.593.404-2.352.276a4.02 4.02 0 0 1-2.024-.972c-.584-.522-1.036-1.195-1.354-2.021l-.136-.352c-.356-.924-.487-1.8-.392-2.628.093-.834.364-1.547.813-2.142a3.85 3.85 0 0 1 1.699-1.286c.825-.318 1.58-.396 2.265-.233.688.155 1.288.507 1.802 1.057.513.549.934 1.25 1.263 2.103l.263.681Zm-2.052-.754c-.312-.677-.724-1.184-1.237-1.52-.509-.343-1.119-.378-1.83-.104a2.137 2.137 0 0 0-1.274 1.264c-.233.599-.245 1.326-.035 2.18l4.42-1.705-.044-.115Zm10.974-2.688-6.003 2.315c.23.546.537 1.002.923 1.368.387.366.824.605 1.314.718.492.105 1.001.057 1.526-.146.514-.198.917-.473 1.208-.824.297-.353.519-.781.664-1.283l1.205.364a4.195 4.195 0 0 1-.834 1.745c-.425.528-1.041.948-1.85 1.26-.81.312-1.594.404-2.353.276a4.017 4.017 0 0 1-2.023-.972c-.584-.522-1.036-1.195-1.354-2.021l-.136-.352c-.357-.924-.487-1.8-.392-2.628.093-.834.364-1.547.813-2.141a3.844 3.844 0 0 1 1.698-1.287c.826-.318 1.581-.396 2.265-.233.688.155 1.289.508 1.802 1.057.514.549.935 1.25 1.264 2.103l.263.681Zm-2.053-.754c-.311-.677-.723-1.184-1.236-1.52-.509-.343-1.119-.378-1.83-.104a2.137 2.137 0 0 0-1.274 1.264c-.234.599-.246 1.326-.035 2.18l4.42-1.705-.045-.115Zm7.004-1.015c-1.14.188-2.056.19-2.749.005-.688-.187-1.165-.627-1.433-1.321a2.383 2.383 0 0 1-.09-1.454c.121-.499.386-.962.792-1.389.413-.429.941-.768 1.586-1.017.689-.266 1.338-.375 1.947-.327.609.048 1.128.23 1.558.548.434.31.75.722.948 1.236l-1.533.591a1.455 1.455 0 0 0-.503-.644 1.748 1.748 0 0 0-.87-.324c-.337-.046-.695.004-1.072.15-.399.154-.706.344-.92.571-.216.222-.347.458-.395.709a1.3 1.3 0 0 0 .066.709c.091.235.222.411.392.527.174.109.43.17.768.184.344.012.815-.029 1.413-.121.809-.118 1.49-.151 2.044-.101.553.05 1.006.199 1.359.446.358.245.629.605.812 1.081a2.47 2.47 0 0 1 .102 1.534c-.132.503-.415.967-.848 1.391-.435.419-.994.761-1.677 1.024-.755.291-1.46.41-2.115.355-.652-.063-1.206-.261-1.661-.594a2.765 2.765 0 0 1-.974-1.254l1.534-.591c.174.385.413.663.718.834.302.166.628.245.976.236a3.158 3.158 0 0 0 1.047-.216c.399-.154.72-.34.962-.559.245-.227.405-.464.479-.712.071-.254.06-.504-.035-.75a1.344 1.344 0 0 0-.403-.579c-.173-.141-.437-.231-.791-.27-.354-.039-.832-.008-1.434.092Z" fill="#000"/><defs><linearGradient id="b" x1="38.435" y1="278.243" x2="701.481" y2="274.702" gradientUnits="userSpaceOnUse"><stop stop-color="#1A7F54"/><stop offset="1" stop-color="#7ADBAE"/></linearGradient><linearGradient id="d" x1="20.991" y1="304.644" x2="681.712" y2="249.062" gradientUnits="userSpaceOnUse"><stop stop-color="#1A7F72"/><stop offset="1" stop-color="#7ADBAE"/></linearGradient><clipPath id="a"><path fill="#fff" transform="scale(1 -1) rotate(-89.694 4.287 -32.796)" d="M0 0h500v663.434H0z"/></clipPath><clipPath id="c"><path fill="#fff" transform="scale(1 -1) rotate(-85.191 -30.244 -27.807)" d="M0 0h500v663.434H0z"/></clipPath></defs></svg>